<svg width="26" height="25" viewBox="0 0 26 25" fill="none" xmlns="http://www.w3.org/2000/svg">
<path fill-rule="evenodd" clip-rule="evenodd" d="M7.38747 0.0739576C8.71872 0.0246523 10.4362 0 12.5399 0C14.6435 0 16.361 0.0246523 17.6922 0.0739576C18.8263 0.123263 19.837 0.320481 20.7245 0.665619C21.5791 0.994321 22.3187 1.47093 22.9432 2.09547C23.5678 2.72 24.0444 3.45957 24.3731 4.3142C24.7182 5.20169 24.9154 6.21244 24.9647 7.34646C25.014 8.6777 25.0387 10.3951 25.0387 12.4988C25.0387 14.6025 25.014 16.32 24.9647 17.6512C24.9154 18.7852 24.7182 19.796 24.3731 20.6835C24.0444 21.5381 23.5678 22.2777 22.9432 22.9022C22.3187 23.5267 21.5791 24.0034 20.7245 24.3321C19.837 24.6772 18.8263 24.8744 17.6922 24.9237C16.361 24.973 14.6435 24.9977 12.5399 24.9977C10.4362 24.9977 8.71872 24.973 7.38747 24.9237C6.25345 24.8744 5.24271 24.6772 4.35521 24.3321C3.50059 24.0034 2.76102 23.5267 2.13648 22.9022C1.51195 22.2777 1.03534 21.5381 0.706634 20.6835C0.361497 19.796 0.164279 18.7852 0.114973 17.6512C0.0656679 16.32 0.0410156 14.6025 0.0410156 12.4988C0.0410156 10.3951 0.0656679 8.6777 0.114973 7.34646C0.164279 6.21244 0.361497 5.20169 0.706634 4.3142C1.03534 3.45957 1.51195 2.72 2.13648 2.09547C2.76102 1.47093 3.50059 0.994321 4.35521 0.665619C5.24271 0.320481 6.25345 0.123263 7.38747 0.0739576ZM17.8893 1.70102C16.5087 1.65172 14.7256 1.62706 12.5397 1.62706C10.3538 1.62706 8.57063 1.65172 7.19008 1.70102C6.30259 1.73389 5.48084 1.89002 4.72483 2.16942C3.5415 2.66247 2.70332 3.50065 2.21027 4.68398C1.93087 5.43999 1.77474 6.26174 1.74187 7.14923C1.69256 8.52978 1.66791 10.313 1.66791 12.4988C1.66791 14.6847 1.69256 16.4679 1.74187 17.8484C1.77474 18.7359 1.93087 19.5577 2.21027 20.3137C2.70332 21.497 3.5415 22.3352 4.72483 22.8283C5.48084 23.1076 6.30259 23.2638 7.19008 23.2966C8.57063 23.346 10.3538 23.3706 12.5397 23.3706C14.7256 23.3706 16.5087 23.346 17.8893 23.2966C18.7768 23.2638 19.5985 23.1076 20.3545 22.8283C21.5379 22.3352 22.376 21.497 22.8691 20.3137C23.1485 19.5577 23.3046 18.7359 23.3375 17.8484C23.3868 16.4679 23.4115 14.6847 23.4115 12.4988C23.4115 10.313 23.3868 8.52978 23.3375 7.14923C23.3046 6.26174 23.1485 5.43999 22.8691 4.68398C22.376 3.50065 21.5379 2.66247 20.3545 2.16942C19.5985 1.89002 18.7768 1.73389 17.8893 1.70102ZM8.98972 16.0488C9.97582 17.0185 11.1591 17.5033 12.5397 17.5033C13.9202 17.5033 15.0994 17.0144 16.0773 16.0365C17.0552 15.0586 17.5441 13.8794 17.5441 12.4988C17.5441 11.1183 17.0552 9.93909 16.0773 8.9612C15.0994 7.98331 13.9202 7.49437 12.5397 7.49437C11.1591 7.49437 9.97993 7.98331 9.00204 8.9612C8.02415 9.93909 7.53521 11.1183 7.53521 12.4988C7.53521 13.8794 8.02004 15.0627 8.98972 16.0488ZM8.00343 7.96278C9.2525 6.71371 10.7645 6.08918 12.5395 6.08918C14.3145 6.08918 15.8265 6.71371 17.0756 7.96278C18.3246 9.21184 18.9492 10.7239 18.9492 12.4988C18.9492 14.2738 18.3246 15.7858 17.0756 17.0349C15.8265 18.284 14.3145 18.9085 12.5395 18.9085C10.7645 18.9085 9.2525 18.284 8.00343 17.0349C6.75436 15.7858 6.12984 14.2738 6.12984 12.4988C6.12984 10.7239 6.75436 9.21184 8.00343 7.96278ZM20.256 4.78259C20.5683 5.07842 20.7244 5.43177 20.7244 5.84265C20.7244 6.25353 20.5765 6.60277 20.2807 6.89038C19.9848 7.178 19.6233 7.3218 19.196 7.3218C18.7851 7.3218 18.4359 7.178 18.1482 6.89038C17.8606 6.60277 17.7168 6.25353 17.7168 5.84265C17.7168 5.41534 17.8606 5.05377 18.1482 4.75794C18.4359 4.46211 18.7851 4.31419 19.196 4.31419C19.6068 4.31419 19.9602 4.47032 20.256 4.78259Z" fill="#F1EEDA"/>
</svg>
