<svg width="238" height="53" viewBox="0 0 238 53" fill="none" xmlns="http://www.w3.org/2000/svg">
<path d="M0 22.5453C0 20.325 0.447013 18.2515 1.3443 16.3214C2.24159 14.3945 3.488 12.7187 5.08681 11.2972C6.68561 9.87573 8.5846 8.75418 10.787 7.93584C12.9895 7.1175 15.3975 6.70996 18.0078 6.70996C20.5789 6.70996 22.9673 7.11098 25.1698 7.9065C27.3722 8.70527 29.281 9.81378 30.8993 11.2353C32.5177 12.6568 33.7739 14.3521 34.6712 16.3181C35.5685 18.2873 36.0155 20.4587 36.0155 22.8322C36.0155 25.209 35.5587 27.3803 34.6419 29.3463C33.725 31.3123 32.4688 33.0076 30.87 34.4291C29.2712 35.8506 27.3526 36.9526 25.111 37.7318C22.8694 38.5111 20.4419 38.899 17.8316 38.899C15.2604 38.899 12.8818 38.5078 10.6989 37.7318C8.51608 36.9526 6.63341 35.8441 5.05744 34.4031C3.47822 32.962 2.24159 31.2373 1.3443 29.2322C0.447013 27.2304 0 25.0003 0 22.5453ZM11.1688 22.6627C11.1688 23.6766 11.3548 24.6026 11.7235 25.4372C12.0922 26.2751 12.5816 27.0054 13.1852 27.6281C13.7889 28.2508 14.51 28.7399 15.3485 29.0887C16.1871 29.4376 17.0746 29.6137 18.0078 29.6137C18.9442 29.6137 19.8284 29.4376 20.667 29.0887C21.5056 28.7366 22.2267 28.2508 22.8303 27.6281C23.4339 27.0054 23.9201 26.2751 24.292 25.4372C24.6607 24.5993 24.8467 23.6929 24.8467 22.7214C24.8467 21.7856 24.6607 20.9021 24.292 20.0642C23.9201 19.2263 23.4339 18.496 22.8303 17.8733C22.2267 17.2506 21.5056 16.7615 20.667 16.4127C19.8284 16.0605 18.9409 15.8877 18.0078 15.8877C17.0713 15.8877 16.1838 16.0638 15.3485 16.4127C14.51 16.7615 13.7889 17.2506 13.1852 17.8733C12.5816 18.496 12.0922 19.2165 11.7235 20.0349C11.3548 20.8499 11.1688 21.727 11.1688 22.6627Z" fill="#E9F3FB"/>
<path d="M51.0017 7.82129V24.7064C51.0017 28.4069 52.793 30.2588 56.3822 30.2588C59.9681 30.2588 61.7627 28.4102 61.7627 24.7064V7.82129H72.3474V26.7539C72.3474 30.8065 71.0129 33.8451 68.3406 35.8698C65.6683 37.8944 61.6844 38.9084 56.3822 38.9084C51.08 38.9084 47.0928 37.8944 44.4238 35.8698C41.7548 33.8451 40.417 30.8065 40.417 26.7539V7.82129H51.0017Z" fill="#E9F3FB"/>
<path d="M94.0747 7.82149V0H83.4933V7.82149H77.6299V16.6439H83.4933V37.7968H94.0747V16.6439H99.9381V7.82149H94.0747Z" fill="#E9F3FB"/>
<path d="M115.969 52.7518H105.384V7.82145H115.969V11.1502C118.23 8.30724 121.31 6.88574 125.209 6.88574C127.353 6.88574 129.35 7.30632 131.203 8.14096C133.053 8.97886 134.661 10.12 136.029 11.5578C137.393 12.9988 138.456 14.6942 139.216 16.6406C139.977 18.5903 140.355 20.6703 140.355 22.8939C140.355 25.1174 139.977 27.1812 139.216 29.0885C138.456 30.999 137.402 32.6716 136.058 34.1126C134.714 35.5537 133.125 36.6817 131.291 37.5001C129.457 38.3184 127.47 38.726 125.326 38.726C121.584 38.726 118.465 37.4414 115.972 34.869V52.7518H115.969ZM129.301 22.8971C129.301 21.9614 129.134 21.0779 128.805 20.24C128.472 19.4021 127.995 18.6718 127.372 18.0491C126.749 17.4263 126.018 16.9308 125.18 16.5591C124.341 16.1907 123.434 16.0048 122.462 16.0048C121.525 16.0048 120.647 16.1809 119.832 16.5297C119.013 16.8819 118.301 17.3676 117.698 17.9904C117.094 18.6131 116.605 19.3434 116.236 20.1813C115.864 21.0192 115.681 21.906 115.681 22.8385C115.681 23.7709 115.858 24.6512 116.207 25.4663C116.559 26.2846 117.045 26.9954 117.668 27.5985C118.292 28.2017 119.023 28.6907 119.861 29.0591C120.7 29.4308 121.587 29.6134 122.52 29.6134C123.457 29.6134 124.335 29.4373 125.15 29.0885C125.969 28.7364 126.681 28.2506 127.284 27.6279C127.888 27.0051 128.374 26.2846 128.746 25.4663C129.118 24.6479 129.301 23.7937 129.301 22.8971Z" fill="#E9F3FB"/>
<path d="M144.885 22.5453C144.885 20.325 145.332 18.2515 146.229 16.3214C147.126 14.3945 148.373 12.7187 149.972 11.2972C151.57 9.87573 153.469 8.75418 155.672 7.93584C157.874 7.1175 160.282 6.70996 162.893 6.70996C165.464 6.70996 167.852 7.11098 170.055 7.9065C172.257 8.70527 174.166 9.81378 175.784 11.2353C177.403 12.6568 178.659 14.3521 179.556 16.3181C180.453 18.2873 180.9 20.4587 180.9 22.8322C180.9 25.209 180.444 27.3803 179.527 29.3463C178.61 31.3123 177.354 33.0076 175.755 34.4291C174.156 35.8506 172.237 36.9526 169.996 37.7318C167.754 38.5111 165.327 38.899 162.716 38.899C160.145 38.899 157.767 38.5078 155.584 37.7318C153.401 36.9526 151.518 35.8441 149.942 34.4031C148.363 32.962 147.126 31.2373 146.229 29.2322C145.335 27.2304 144.885 25.0003 144.885 22.5453ZM156.054 22.6627C156.054 23.6766 156.24 24.6026 156.608 25.4372C156.977 26.2751 157.466 27.0054 158.07 27.6281C158.674 28.2508 159.395 28.7399 160.233 29.0887C161.072 29.4376 161.959 29.6137 162.893 29.6137C163.829 29.6137 164.713 29.4376 165.552 29.0887C166.39 28.7366 167.111 28.2508 167.715 27.6281C168.319 27.0054 168.805 26.2751 169.177 25.4372C169.546 24.5993 169.732 23.6929 169.732 22.7214C169.732 21.7856 169.546 20.9021 169.177 20.0642C168.805 19.2263 168.319 18.496 167.715 17.8733C167.111 17.2506 166.39 16.7615 165.552 16.4127C164.713 16.0605 163.826 15.8877 162.893 15.8877C161.956 15.8877 161.069 16.0638 160.233 16.4127C159.395 16.7615 158.674 17.2506 158.07 17.8733C157.466 18.496 156.977 19.2165 156.608 20.0349C156.24 20.8499 156.054 21.727 156.054 22.6627Z" fill="#E9F3FB"/>
<path d="M206.882 15.5353C204.931 14.5213 203.022 14.016 201.153 14.016C200.177 14.016 199.388 14.2116 198.784 14.5996C198.18 14.9908 197.877 15.5157 197.877 16.1776C197.877 16.5264 197.926 16.8101 198.024 17.0253C198.122 17.2404 198.334 17.4458 198.667 17.6382C198.996 17.8338 199.486 18.0099 200.128 18.1631C200.771 18.3196 201.619 18.512 202.673 18.7467C205.597 19.3303 207.78 20.3736 209.222 21.8733C210.664 23.3731 211.385 25.2902 211.385 27.6278C211.385 29.3818 211.033 30.9598 210.331 32.3618C209.63 33.7637 208.654 34.9439 207.408 35.896C206.158 36.8512 204.66 37.5913 202.905 38.1162C201.15 38.6411 199.221 38.9052 197.117 38.9052C193.061 38.9052 189.067 37.7576 185.129 35.4591L188.989 27.9799C191.952 30.0046 194.758 31.0185 197.41 31.0185C198.386 31.0185 199.185 30.8033 199.809 30.3762C200.432 29.9491 200.745 29.4014 200.745 28.7396C200.745 28.3516 200.696 28.0288 200.598 27.7745C200.5 27.5202 200.295 27.2887 199.985 27.0735C199.671 26.8584 199.215 26.666 198.611 26.4899C198.007 26.3139 197.218 26.1313 196.242 25.9357C192.966 25.2739 190.676 24.2892 189.371 22.9851C188.065 21.681 187.413 19.878 187.413 17.5795C187.413 15.9037 187.723 14.3942 188.349 13.0509C188.973 11.7077 189.87 10.5666 191.038 9.63413C192.206 8.69842 193.619 7.97789 195.276 7.47254C196.934 6.9672 198.774 6.71289 200.804 6.71289C204.116 6.71289 207.333 7.35517 210.452 8.63974L206.882 15.5353Z" fill="#E9F3FB"/>
<path d="M232.136 7.82149V0H221.555V7.82149H215.691V16.6439H221.555V37.7968H232.136V16.6439H238V7.82149H232.136Z" fill="#E9F3FB"/>
</svg>
