<svg width="59" height="82" viewBox="0 0 59 82" fill="none" xmlns="http://www.w3.org/2000/svg">
<path d="M50.3045 58.8105L58.185 50.9532L45.8002 38.605C49.4624 34.5021 51.6947 29.1082 51.6947 23.1994C51.6947 10.4077 41.2562 0 28.4265 0C15.5968 0 5.15832 10.4077 5.15832 23.1994C5.15832 29.5122 7.70042 35.2388 11.8155 39.4288L0.256836 50.9532L8.13734 58.8105L21.6105 45.3771C23.5965 45.987 25.7017 46.3276 27.8784 46.3831L0.256836 73.923L8.13734 81.7802L29.2209 60.7589L50.3045 81.7802L58.185 73.923L30.484 46.3038C32.5575 46.1217 34.5514 45.6702 36.4342 44.9811L50.3045 58.8105ZM16.3118 23.1994C16.3118 16.5382 21.7456 11.1126 28.4345 11.1126C35.1154 11.1126 40.5571 16.5382 40.5571 23.1994C40.5571 26.0429 39.5641 28.6567 37.9038 30.724L29.2289 22.0747L19.7119 31.5715C17.6067 29.3934 16.3118 26.4469 16.3118 23.1994Z" fill="white"/>
</svg>
