<svg width="58" height="72" viewBox="0 0 58 72" fill="none" xmlns="http://www.w3.org/2000/svg">
<path d="M52.2323 23.1994C52.2323 10.4077 41.7938 0 28.9641 0C16.1344 0 5.6959 10.4077 5.6959 23.1994C5.6959 31.5319 10.1287 38.8585 16.7699 42.9455L0 59.6659L7.88052 67.5231L23.7846 51.6661V71.9112H34.9301V52.4582L50.0477 67.5231L57.9282 59.6659L41.1582 42.9455C47.7995 38.8585 52.2323 31.5319 52.2323 23.1994ZM16.8414 23.1994C16.8414 16.5382 22.2752 11.1126 28.9641 11.1126C35.6451 11.1126 41.0868 16.5382 41.0868 23.1994C41.0868 28.5142 37.6231 33.0289 32.8329 34.6447L28.9641 30.7874L25.0953 34.6447C20.3051 33.0289 16.8414 28.5142 16.8414 23.1994Z" fill="white"/>
</svg>
