<svg width="59" height="83" viewBox="0 0 59 83" fill="none" xmlns="http://www.w3.org/2000/svg">
<path d="M51.5698 23.1994C51.5698 10.4077 41.1313 0 28.3016 0C15.472 0 5.03347 10.4077 5.03347 23.1994C5.03347 31.7379 9.68869 39.2149 16.6 43.2386L0.124023 59.6659L8.00454 67.5231L29.0881 46.5019L50.1717 67.5231L58.0522 59.6659L40.9724 42.6366C47.3436 38.4941 51.5698 31.326 51.5698 23.1994ZM16.179 23.1994C16.179 16.5382 21.6127 11.1126 28.3016 11.1126C34.9826 11.1126 40.4243 16.5382 40.4243 23.1994C40.4243 28.3003 37.2387 32.6566 32.7503 34.4309L29.096 30.7874L25.0446 34.8269C19.9365 33.4012 16.179 28.7359 16.179 23.1994Z" fill="white"/>
<path d="M28.6993 83C35.2804 83 40.6154 77.6807 40.6154 71.1191C40.6154 64.5574 35.2804 59.2382 28.6993 59.2382C22.1182 59.2382 16.7832 64.5574 16.7832 71.1191C16.7832 77.6807 22.1182 83 28.6993 83Z" fill="white"/>
</svg>
