<svg width="57" height="79" viewBox="0 0 57 79" fill="none" xmlns="http://www.w3.org/2000/svg">
<path d="M51.4312 34.1695L45.8544 31.128V50.4938C45.8544 55.0403 44.0829 59.3174 40.8497 62.5252C38.9908 64.3787 36.7744 65.7331 34.3594 66.5648V24.8549L45.8385 31.1201V17.0293C45.8385 16.9659 45.8386 16.8946 45.8306 16.8313C45.7353 7.53249 38.1249 0 28.7667 0C19.4166 0 11.7982 7.53249 11.6949 16.8313C11.687 16.8946 11.687 16.9659 11.687 17.0293V31.5794L6.15 34.5972L0.573242 37.6387V50.4938C0.573242 66.0024 13.2282 78.6278 28.7906 78.6278C36.3375 78.6278 43.4236 75.6972 48.7381 70.3904C54.0686 65.0836 57.0079 58.0184 57.0079 50.4938V37.211L51.4312 34.1695ZM34.3276 19.2312V24.839L29.1878 22.0351L28.7906 22.249L23.2138 25.2905V66.5568C16.5329 64.244 11.7188 57.9234 11.7188 50.4938V31.5636L23.1979 25.2984V18.7639V17.0293C23.1979 16.9659 23.1979 16.8946 23.2059 16.8313C23.3092 13.8611 25.7559 11.4849 28.7588 11.4849C31.7616 11.4849 34.2085 13.8611 34.3117 16.8313C34.3197 16.8946 34.3196 16.9659 34.3196 17.0293V19.2312H34.3276Z" fill="white"/>
</svg>
