<svg width="28" height="22" viewBox="0 0 28 22" fill="none" xmlns="http://www.w3.org/2000/svg">
<path fill-rule="evenodd" clip-rule="evenodd" d="M25.9977 3.41094C25.2892 4.44723 24.4327 5.33018 23.4281 6.05981C23.4387 6.20785 23.444 6.42991 23.444 6.72599C23.444 8.10066 23.2431 9.47266 22.8412 10.842C22.4394 12.2114 21.8288 13.5253 21.0092 14.7836C20.1897 16.042 19.2143 17.1549 18.0828 18.1225C16.9513 19.09 15.5873 19.8619 13.9905 20.4382C12.3938 21.0145 10.6861 21.3027 8.86729 21.3027C6.00164 21.3027 3.37923 20.5361 1 19.0028C1.3701 19.0451 1.7825 19.0662 2.23719 19.0662C4.61643 19.0662 6.73656 18.3366 8.59764 16.8773C7.48734 16.8562 6.49336 16.5152 5.61569 15.8543C4.73802 15.1934 4.13529 14.3501 3.80748 13.3244C4.15643 13.3772 4.47895 13.4037 4.77503 13.4037C5.22973 13.4037 5.67913 13.3455 6.12326 13.2292C4.93893 12.986 3.95817 12.3965 3.18095 11.4606C2.40374 10.5248 2.01513 9.43831 2.01513 8.20111V8.13766C2.73419 8.53949 3.50611 8.75626 4.33091 8.78798C3.633 8.32271 3.07785 7.71469 2.66545 6.96391C2.25305 6.21313 2.04686 5.39892 2.04686 4.52125C2.04686 3.5907 2.27949 2.7289 2.74476 1.93583C4.02426 3.51141 5.58131 4.77238 7.41597 5.71879C9.25062 6.66519 11.2148 7.19126 13.3085 7.297C13.2239 6.89518 13.1816 6.50393 13.1816 6.12326C13.1816 4.70629 13.6812 3.49819 14.6805 2.49891C15.6798 1.49963 16.8879 1 18.3049 1C19.7853 1 21.033 1.53928 22.0482 2.61787C23.2008 2.39581 24.2846 1.98341 25.2998 1.38068C24.9085 2.59673 24.1578 3.53783 23.0474 4.20402C24.0309 4.09827 25.0143 3.83392 25.9977 3.41094Z" stroke="#F1EEDA" stroke-width="1.24988"/>
</svg>
