<?xml version="1.0" encoding="utf-8"?>
<!-- Generator: Adobe Illustrator 23.0.1, SVG Export Plug-In . SVG Version: 6.00 Build 0)  -->
<svg version="1.1" id="Layer_1" xmlns="http://www.w3.org/2000/svg" xmlns:xlink="http://www.w3.org/1999/xlink" x="0px" y="0px"
	 viewBox="0 0 1280 1024" style="enable-background:new 0 0 1280 1024;" xml:space="preserve">
<style type="text/css">
	.st0{fill:#FFFFFF;}
</style>
<g>
	<path class="st0" d="M937.44,568.51c-198.38,0-396.76,0-595.17,0c0-37.74,0-75.47,0-113.24c198.37,0,396.77,0,595.17,0
		C937.44,493,937.44,530.76,937.44,568.51z M646.17,512.89c3.11-3.31,6.08-6.61,9.21-9.75c5.58-5.61,11.27-11.12,16.89-16.7
		c0.75-0.74,1.49-1.3,2.62-1.01c0.74,0.19,1.24-0.15,1.72-0.75c1.12-1.4,2.34-2.73,3.51-4.1c0.19-0.22,0.32-0.48,0.58-0.87
		c-1.05,0-1.88-0.02-2.72,0.01c-0.84,0.02-1.24-0.33-1.28-1.19c-0.04-0.88-0.15-1.75-0.26-2.9c-1.6,1.68-2.93,3.17-4.36,4.55
		c-0.69,0.67-0.91,1.32-0.67,2.23c0.22,0.8,0.14,1.48-0.56,2.15c-7.16,6.86-14.27,13.76-21.4,20.65c-1.86,1.8-3.73,3.58-5.63,5.4
		c-3.24-3.13-6.4-6.18-9.55-9.24c-5.86-5.67-11.72-11.34-17.57-17.02c-0.28-0.27-0.63-0.81-0.53-1.08c0.71-1.94-0.46-3.07-1.66-4.21
		c-1.08-1.02-2.14-2.06-3.33-3.2c-0.08,0.91-0.22,1.69-0.22,2.48c0.01,1.14-0.54,1.46-1.58,1.37c-0.75-0.06-1.52-0.01-2.61-0.01
		c1.58,1.83,2.93,3.31,4.16,4.87c0.6,0.76,1.24,0.91,2.15,0.9c0.63-0.01,1.4,0.24,1.87,0.65c1.36,1.17,2.6,2.49,3.88,3.75
		c5.42,5.32,10.85,10.64,16.26,15.97c2.24,2.21,4.44,4.46,6.71,6.74c-9.53,9.21-19.02,18.39-28.67,27.72
		c-0.75-1.25-1.4-2.33-2.13-3.55c-1.38,3.93-2.71,7.7-4.12,11.71c4.13-1.3,8.02-2.52,12-3.77c-1.2-0.74-2.3-1.42-3.57-2.2
		c9.6-9.44,19.02-18.71,28.51-28.05c9.49,9.34,18.94,18.63,28.53,28.06c-1.29,0.78-2.39,1.46-3.59,2.18
		c3.99,1.25,7.89,2.47,12.02,3.77c-1.43-4.04-2.77-7.82-4.14-11.72c-0.75,1.27-1.37,2.33-2.1,3.56
		C664.89,530.99,655.39,521.8,646.17,512.89z M819.37,515.26c0.74,0,1.43,0,2.2,0c0-2.14,0-4.19,0-6.23
		c0.76,1.57,1.29,3.18,1.92,4.76c0.26,0.65,0.15,1.6,1.38,1.61c1.22,0.01,1.16-0.89,1.43-1.55c0.61-1.53,1.16-3.09,1.73-4.64
		c0.09,0.02,0.18,0.03,0.27,0.05c0,2.01,0,4.01,0,6.03c0.85,0,1.55,0,2.3,0c0-3.32,0-6.57,0-9.93c-0.87,0-1.66,0.06-2.45-0.02
		c-0.8-0.08-1.11,0.27-1.34,0.98c-0.54,1.71-1.16,3.4-1.82,5.34c-0.71-1.99-1.3-3.73-1.96-5.44c-0.13-0.34-0.5-0.79-0.8-0.83
		c-0.93-0.11-1.88-0.04-2.87-0.04C819.37,508.75,819.37,511.98,819.37,515.26z M513.1,511.48c-0.07-0.01-0.14-0.02-0.2-0.03
		c-0.48-1.76-1.03-3.52-1.42-5.3c-0.23-1.05-0.95-0.76-1.57-0.78c-0.6-0.01-1.23-0.2-1.44,0.78c-0.38,1.79-0.93,3.54-1.41,5.31
		c-0.06,0.01-0.12,0.02-0.19,0.03c-0.5-2.02-1-4.05-1.48-6.03c-0.92,0-1.72,0-2.62,0c0.86,3.06,1.74,6,2.5,8.96
		c0.25,0.98,0.84,0.93,1.58,0.96c0.77,0.03,1.23-0.11,1.45-0.97c0.45-1.78,1.01-3.53,1.53-5.29c0.74,1.68,1.28,3.33,1.7,5.02
		c0.23,0.93,0.61,1.25,1.61,1.27c1.07,0.02,1.37-0.45,1.56-1.33c0.2-0.93,0.52-1.84,0.78-2.76c0.55-1.94,1.09-3.88,1.65-5.9
		c-0.93,0-1.72,0-2.53,0C514.1,507.47,513.6,509.48,513.1,511.48z M880.28,515.28c0-1.99,0-3.91,0-5.82
		c1.13,1.42,2.04,2.9,2.96,4.38c1.05,1.7,1.54,1.88,3.59,1.33c0-3.25,0-6.5,0-9.75c-0.76,0-1.43,0-2.26,0c0,2,0,3.95,0,5.9
		c-1.31-1.73-2.37-3.51-3.51-5.24c-0.23-0.35-0.76-0.61-1.2-0.69c-0.6-0.12-1.24-0.03-1.89-0.03c0,3.4,0,6.65,0,9.92
		C878.76,515.28,879.46,515.28,880.28,515.28z M531.83,505.12c-3.22,0.01-5.37,2.05-5.39,5.13c-0.03,3.16,2.26,5.39,5.48,5.35
		c3.2-0.03,5.42-2.22,5.41-5.31C537.31,507.17,535.12,505.11,531.83,505.12z M453.99,505.12c-3.28-0.01-5.45,2.04-5.46,5.17
		c-0.01,3.11,2.2,5.29,5.39,5.31c3.2,0.02,5.43-2.12,5.45-5.23C459.37,507.18,457.27,505.13,453.99,505.12z M797.96,510.3
		c0.01,3.14,2.19,5.29,5.39,5.3c3.24,0.01,5.47-2.18,5.45-5.36c-0.02-3.12-2.2-5.14-5.52-5.12
		C800.07,505.14,797.95,507.2,797.96,510.3z M564.18,515.42c1.8-0.08,3.48-0.01,5.13-0.26c2.53-0.38,4.05-2.25,4.09-4.71
		c0.05-2.71-1.21-4.42-3.93-4.88c-1.71-0.29-3.48-0.19-5.29-0.27C564.18,508.72,564.18,511.95,564.18,515.42z M711.82,505.4
		c0,3.38,0,6.63,0,9.87c1.58,0,3.06,0.04,4.53-0.01c1.41-0.05,2.64-0.53,3.07-2.02c0.42-1.45-0.22-2.51-1.64-3.2
		c1.27-0.72,1.55-1.77,1.2-2.94c-0.36-1.19-1.4-1.62-2.53-1.68C714.94,505.35,713.42,505.4,711.82,505.4z M754.86,511.2
		c1.78-1.18,2.24-2.1,1.83-3.69c-0.35-1.34-1.42-1.95-2.66-2.05c-1.58-0.13-3.17-0.03-4.8-0.03c0,3.3,0,6.55,0,9.83
		c0.8,0,1.53,0,2.35,0c0-1.32,0-2.55,0-4.1c0.49,0.36,0.84,0.5,1.01,0.76c0.38,0.56,0.67,1.18,0.99,1.77
		c1.03,1.89,1.37,2.03,3.68,1.48C756.46,513.85,755.69,512.56,754.86,511.2z M383.26,509.04c0-1.31,0-2.45,0-3.59
		c-0.83,0-1.57,0-2.33,0c0,3.31,0,6.54,0,9.84c0.78,0,1.52,0,2.41,0c0-1.38,0-2.72,0-4.06c1.33,0,2.51,0,3.82,0c0,1.4,0,2.74,0,4.04
		c0.87,0,1.61,0,2.3,0c0-3.35,0-6.6,0-9.84c-0.81,0-1.52,0-2.35,0c0,1.24,0,2.42,0,3.62C385.8,509.04,384.62,509.04,383.26,509.04z
		 M728.76,515.36c0.76,0,1.29,0.09,1.78-0.03c0.42-0.1,1.07-0.39,1.13-0.69c0.25-1.19,0.96-1.41,2-1.29
		c0.51,0.06,1.05-0.07,1.55,0.04c0.36,0.08,0.8,0.33,0.96,0.63c0.76,1.44,1.48,1.73,3.2,1.1c-1.26-3.05-2.51-6.11-3.82-9.15
		c-0.13-0.29-0.65-0.58-0.98-0.57c-0.61,0.02-1.6,0.09-1.76,0.44C731.41,508.9,730.15,512.04,728.76,515.36z M868.17,515.36
		c-1.36-3.28-2.63-6.37-3.94-9.45c-0.1-0.24-0.41-0.48-0.67-0.53c-1.53-0.3-1.9-0.08-2.5,1.37c-0.19,0.44-0.39,0.88-0.57,1.32
		c-0.99,2.37-1.97,4.75-3.03,7.29c0.71,0,1.21-0.03,1.72,0.01c0.62,0.04,1.12-0.04,1.24-0.77c0.17-1.1,0.86-1.39,1.88-1.25
		c0.43,0.06,0.88,0.05,1.32,0c0.75-0.09,1.23,0.15,1.38,0.93c0.18,0.91,0.74,1.23,1.64,1.1
		C867.06,515.31,867.5,515.36,868.17,515.36z M400.62,515.27c2.33,0,4.58,0,6.84,0c0-0.71,0-1.34,0-2.1c-1.52,0-2.98,0-4.45,0
		c0-0.72,0-1.29,0-2c1.38,0,2.67,0,3.95,0c0-0.72,0-1.29,0-1.98c-1.38,0-2.68,0-3.95,0c0-0.63,0-1.13,0-1.77c1.45,0,2.83,0,4.19,0
		c0-0.76,0-1.38,0-1.99c-2.23,0-4.37,0-6.57,0C400.62,508.72,400.62,511.94,400.62,515.27z M788.63,513.89
		c-0.53-0.51-1.07-1.02-1.59-1.51c-1.67,1.21-3.11,1.23-4.16,0.12c-0.97-1.02-1.05-2.96-0.18-4.1c0.98-1.27,2.4-1.38,4.32-0.27
		c0.49-0.51,0.99-1.04,1.5-1.57c-2.21-2.03-5.91-1.89-7.8,0.19c-1.87,2.06-1.71,5.65,0.33,7.49
		C783.18,516.17,786.7,516.04,788.63,513.89z M437.24,507.93c0.74-0.49,1.33-0.88,1.92-1.28c-2.2-2.13-6.08-1.98-7.92,0.15
		c-1.89,2.19-1.6,5.87,0.62,7.64c2.36,1.9,6.38,1.27,7.29-0.62c-0.51-0.48-1.02-0.96-1.52-1.44c-1.69,1.19-3.1,1.22-4.15,0.13
		c-1.01-1.05-1.07-3.04-0.13-4.2C434.33,507.1,435.81,507.02,437.24,507.93z M844.08,515.29c0-0.67,0-1.27,0-1.86
		c0-0.59,0-1.17,0-1.84c0.67,0,1.19,0.05,1.7-0.01c0.51-0.06,1.03-0.17,1.51-0.34c1.35-0.49,1.92-1.44,1.87-3
		c-0.04-1.37-0.67-2.36-2.04-2.58c-1.78-0.28-3.61-0.27-5.41-0.38c0,3.51,0,6.74,0,10.02C842.51,515.29,843.25,515.29,844.08,515.29
		z M485.69,514.18c1.69,1.35,3.45,1.72,5.38,1.14c1.4-0.42,2.13-1.44,2.17-2.82c0.05-1.5-0.5-2.3-2-2.9
		c-0.52-0.21-1.11-0.29-1.56-0.59c-0.38-0.26-0.61-0.76-0.9-1.15c0.5-0.23,1-0.66,1.5-0.65c0.54,0.01,1.08,0.41,1.69,0.67
		c0.44-0.5,0.9-1.02,1.39-1.58c-1.65-1.27-3.33-1.47-5.11-0.88c-1.28,0.43-1.98,1.42-2.01,2.68c-0.03,1.38,0.51,2.21,1.85,2.76
		c0.55,0.23,1.2,0.29,1.67,0.62c0.42,0.29,0.65,0.85,0.97,1.29c-0.53,0.25-1.09,0.73-1.59,0.69c-0.66-0.06-1.28-0.54-1.96-0.85
		C486.73,513.09,486.26,513.58,485.69,514.18z M643.86,551.87c0.09-0.07,0.17-0.14,0.25-0.2c1.19-0.79,1.58-1.62,1.23-2.81
		c-0.32-1.09-1.2-1.45-2.22-1.48c-1.67-0.05-3.34-0.05-5.02-0.05c-0.15,0-0.3,0.16-0.78,0.44c1.71-0.04,1.72,0.91,1.72,1.89
		c-0.01,1.48,0.11,2.96,0.01,4.43c-0.07,1.11,0.54,2.6-1.46,2.93c0.28,0.17,0.37,0.27,0.47,0.27c1.47,0.02,2.95,0.07,4.42,0.03
		c1.5-0.04,3.03-0.11,3.5-2C646.32,553.96,645.8,553.1,643.86,551.87z M896.7,505.57c1.69,3.01,4.71,5.56,3.41,9.69
		c1.04,0,1.8,0,2.65,0c0-0.74,0.05-1.37-0.01-2c-0.14-1.46,0.23-2.71,1.14-3.88c0.94-1.21,1.72-2.54,2.67-3.96
		c-0.47-0.03-0.74-0.02-1-0.07c-1.36-0.26-2.25,0.23-2.77,1.55c-0.27,0.68-0.73,1.28-1.16,2
		C900.34,507.1,899.92,504.29,896.7,505.57z M370.79,507.47c0-0.8,0-1.39,0-2.02c-2.66,0-5.27,0-7.89,0c0,0.68,0,1.27,0,1.94
		c0.91,0.04,1.77,0.08,2.75,0.12c0,2.66,0,5.2,0,7.73c0.91,0,1.67,0,2.51,0c0-2.63,0-5.15,0-7.78
		C369.05,507.47,369.87,507.47,370.79,507.47z M476.46,505.44c-2.68,0-5.29,0-7.89,0c0,0.69,0,1.3,0,2c0.52,0,0.96,0.05,1.39-0.01
		c1.1-0.15,1.44,0.28,1.39,1.39c-0.09,2.14-0.03,4.29-0.03,6.47c0.88,0,1.61,0,2.47,0c0-2.64,0-5.22,0-7.88c0.95,0,1.78,0,2.67,0
		C476.46,506.73,476.46,506.15,476.46,505.44z M550.27,513.24c0-2.73,0-5.26,0-7.82c-0.88,0-1.62,0-2.39,0c0,3.31,0,6.56,0,9.83
		c2.11,0,4.15,0,6.2,0c0-0.7,0-1.29,0-2C552.85,513.24,551.67,513.24,550.27,513.24z M605.21,505.18c-0.68-0.04-1.17-0.05-1.66-0.09
		c-0.91-0.08-1.83-0.29-2.72-0.22c-2.32,0.18-4.08,1.91-4.42,4.19c-0.38,2.58,0.7,4.81,2.76,5.7c2.26,0.97,4.85,0.37,6.28-1.48
		c0.14-0.18,0.19-0.43,0.28-0.65c-0.44,0.04-0.68,0.21-0.91,0.4c-2.24,1.89-5.09,1.14-5.85-1.67c-0.32-1.18-0.33-2.55-0.08-3.75
		c0.43-2.02,2.5-2.77,4.22-1.62c0.63,0.42,1.08,1.14,1.58,1.75c0.2,0.24,0.33,0.55,0.49,0.82c0.12-0.04,0.24-0.08,0.36-0.11
		C605.43,507.3,605.31,506.17,605.21,505.18z M640.84,467.17c0,2.05,0,4.2,0,6.34c0,1.01,0.31,2.19-1.23,2.5c1.52,0,3.04,0,4.57,0
		c0.05-0.1,0.1-0.21,0.14-0.31c-1.31,0.04-1.37-0.73-1.32-1.64c0.05-1,0.01-2,0.01-3c0-1.34,0-2.68,0-3.84
		c2.04-0.95,2.81,0.68,3.85,1.72c0.08-0.08,0.16-0.15,0.24-0.23c-0.16-1.03-0.31-2.06-0.45-2.97c-3.16,0.72-6.12,0.69-9.24,0.07
		c-0.2,0.83-0.45,1.83-0.7,2.83c0.1,0.08,0.2,0.15,0.3,0.23C638,467.75,638.89,466.34,640.84,467.17z M685.98,512.63
		c-0.39-0.1-0.44-0.13-0.46-0.11c-0.13,0.09-0.27,0.17-0.37,0.28c-1.16,1.19-2.59,1.68-4.15,1.16c-1.5-0.49-2.17-1.82-2.48-3.29
		c-0.12-0.58-0.14-1.19-0.09-1.78c0.15-1.9,1.07-3.1,2.5-3.4c1.46-0.3,2.9,0.51,3.79,2.14c0.15,0.27,0.32,0.52,0.49,0.77
		c0.1-0.04,0.21-0.09,0.31-0.13c-0.12-1.03-0.24-2.07-0.34-2.94c-0.59-0.05-0.99-0.09-1.38-0.12c-1.06-0.1-2.14-0.37-3.18-0.28
		c-2.03,0.18-3.64,1.82-4.04,3.86c-0.48,2.44,0.38,4.65,2.25,5.74c1.85,1.09,4.38,0.89,5.94-0.49
		C685.17,513.64,685.5,513.17,685.98,512.63z"/>
	<path d="M646.17,512.89c9.22,8.91,18.72,18.1,28.36,27.42c0.73-1.23,1.35-2.29,2.1-3.56c1.38,3.9,2.72,7.68,4.14,11.72
		c-4.13-1.29-8.02-2.52-12.02-3.77c1.19-0.73,2.3-1.4,3.59-2.18c-9.59-9.44-19.04-18.73-28.53-28.06
		c-9.49,9.34-18.92,18.61-28.51,28.05c1.27,0.78,2.37,1.46,3.57,2.2c-3.98,1.25-7.87,2.47-12,3.77c1.41-4,2.74-7.78,4.12-11.71
		c0.73,1.22,1.38,2.3,2.13,3.55c9.65-9.33,19.14-18.51,28.67-27.72c-2.27-2.28-4.47-4.53-6.71-6.74
		c-5.41-5.33-10.84-10.65-16.26-15.97c-1.28-1.26-2.52-2.57-3.88-3.75c-0.47-0.41-1.24-0.66-1.87-0.65
		c-0.91,0.01-1.55-0.14-2.15-0.9c-1.23-1.56-2.58-3.04-4.16-4.87c1.09,0,1.85-0.05,2.61,0.01c1.04,0.08,1.59-0.23,1.58-1.37
		c-0.01-0.78,0.13-1.57,0.22-2.48c1.19,1.14,2.26,2.17,3.33,3.2c1.2,1.15,2.37,2.28,1.66,4.21c-0.1,0.26,0.25,0.8,0.53,1.08
		c5.84,5.69,11.71,11.35,17.57,17.02c3.16,3.06,6.32,6.11,9.55,9.24c1.91-1.83,3.78-3.61,5.63-5.4c7.13-6.89,14.25-13.79,21.4-20.65
		c0.7-0.67,0.78-1.35,0.56-2.15c-0.24-0.9-0.02-1.56,0.67-2.23c1.43-1.38,2.76-2.87,4.36-4.55c0.11,1.15,0.22,2.02,0.26,2.9
		c0.04,0.85,0.44,1.21,1.28,1.19c0.83-0.02,1.67-0.01,2.72-0.01c-0.26,0.4-0.39,0.66-0.58,0.87c-1.17,1.37-2.38,2.7-3.51,4.1
		c-0.48,0.6-0.98,0.93-1.72,0.75c-1.13-0.29-1.87,0.27-2.62,1.01c-5.62,5.57-11.31,11.08-16.89,16.7
		C652.25,506.28,649.28,509.58,646.17,512.89z"/>
	<path d="M819.37,515.26c0-3.28,0-6.51,0-9.9c0.99,0,1.94-0.07,2.87,0.04c0.3,0.03,0.67,0.49,0.8,0.83
		c0.66,1.71,1.25,3.45,1.96,5.44c0.67-1.94,1.28-3.63,1.82-5.34c0.22-0.71,0.54-1.06,1.34-0.98c0.78,0.08,1.58,0.02,2.45,0.02
		c0,3.36,0,6.61,0,9.93c-0.75,0-1.45,0-2.3,0c0-2.02,0-4.03,0-6.03c-0.09-0.02-0.18-0.03-0.27-0.05c-0.57,1.55-1.12,3.11-1.73,4.64
		c-0.27,0.67-0.21,1.57-1.43,1.55c-1.24-0.01-1.12-0.96-1.38-1.61c-0.63-1.58-1.16-3.2-1.92-4.76c0,2.05,0,4.09,0,6.23
		C820.79,515.26,820.11,515.26,819.37,515.26z"/>
	<path d="M513.1,511.48c0.5-2,0.99-4.01,1.5-6.06c0.82,0,1.6,0,2.53,0c-0.57,2.02-1.11,3.96-1.65,5.9
		c-0.26,0.92-0.58,1.83-0.78,2.76c-0.19,0.88-0.49,1.35-1.56,1.33c-1-0.02-1.39-0.34-1.61-1.27c-0.42-1.69-0.96-3.35-1.7-5.02
		c-0.52,1.76-1.08,3.51-1.53,5.29c-0.22,0.86-0.68,1-1.45,0.97c-0.75-0.03-1.33,0.02-1.58-0.96c-0.76-2.97-1.64-5.9-2.5-8.96
		c0.89,0,1.7,0,2.62,0c0.49,1.98,0.99,4.01,1.48,6.03c0.06-0.01,0.12-0.02,0.19-0.03c0.48-1.77,1.03-3.52,1.41-5.31
		c0.21-0.97,0.84-0.79,1.44-0.78c0.62,0.02,1.34-0.27,1.57,0.78c0.39,1.78,0.94,3.54,1.42,5.3
		C512.97,511.46,513.04,511.47,513.1,511.48z"/>
	<path d="M880.28,515.28c-0.82,0-1.52,0-2.31,0c0-3.28,0-6.52,0-9.92c0.64,0,1.29-0.09,1.89,0.03c0.44,0.08,0.97,0.34,1.2,0.69
		c1.14,1.72,2.2,3.51,3.51,5.24c0-1.95,0-3.9,0-5.9c0.83,0,1.49,0,2.26,0c0,3.25,0,6.5,0,9.75c-2.05,0.55-2.53,0.37-3.59-1.33
		c-0.91-1.48-1.82-2.96-2.96-4.38C880.28,511.38,880.28,513.29,880.28,515.28z"/>
	<path d="M531.83,505.12c3.29-0.01,5.48,2.05,5.49,5.17c0.01,3.09-2.21,5.27-5.41,5.31c-3.22,0.04-5.5-2.19-5.48-5.35
		C526.46,507.17,528.61,505.13,531.83,505.12z M534.68,510.39c0.03-1.73-1.18-3.07-2.8-3.07c-1.6,0-2.77,1.23-2.79,2.94
		c-0.02,1.74,1.08,3.01,2.66,3.07C533.39,513.4,534.65,512.14,534.68,510.39z"/>
	<path d="M453.99,505.12c3.29,0.01,5.39,2.06,5.37,5.25c-0.01,3.11-2.25,5.26-5.45,5.23c-3.19-0.02-5.4-2.2-5.39-5.31
		C448.53,507.16,450.7,505.11,453.99,505.12z M451.16,510.25c-0.03,1.77,1.15,3.08,2.78,3.09c1.59,0.01,2.76-1.22,2.8-2.94
		c0.04-1.77-1.13-3.07-2.78-3.08C452.36,507.31,451.19,508.53,451.16,510.25z"/>
	<path d="M797.96,510.3c-0.01-3.1,2.11-5.16,5.32-5.18c3.32-0.02,5.5,2,5.52,5.12c0.02,3.18-2.21,5.37-5.45,5.36
		C800.15,515.59,797.97,513.44,797.96,510.3z M806.16,510.32c0-1.72-1.14-2.97-2.74-3c-1.66-0.03-2.83,1.22-2.82,3.02
		c0.01,1.75,1.12,2.98,2.72,3C804.97,513.36,806.16,512.09,806.16,510.32z"/>
	<path d="M564.18,515.42c0-3.48,0-6.7,0-10.13c1.81,0.08,3.58-0.01,5.29,0.27c2.72,0.46,3.98,2.17,3.93,4.88
		c-0.04,2.47-1.56,4.34-4.09,4.71C567.67,515.41,565.98,515.34,564.18,515.42z M566.62,507.47c0,1.95,0,3.8,0,5.7
		c1.51,0.03,2.96,0.13,3.83-1.29c0.62-1.02,0.64-2.18-0.02-3.18C569.52,507.32,568.07,507.47,566.62,507.47z"/>
	<path d="M711.82,505.4c1.6,0,3.12-0.05,4.63,0.02c1.13,0.05,2.17,0.49,2.53,1.68c0.35,1.17,0.07,2.23-1.2,2.94
		c1.42,0.69,2.06,1.75,1.64,3.2c-0.43,1.49-1.66,1.97-3.07,2.02c-1.47,0.05-2.95,0.01-4.53,0.01
		C711.82,512.03,711.82,508.78,711.82,505.4z M714.17,513.36c0.76-0.05,1.44,0.03,2-0.19c0.38-0.15,0.8-0.69,0.84-1.09
		c0.02-0.27-0.56-0.76-0.94-0.85c-0.58-0.15-1.23-0.04-1.89-0.04C714.17,511.94,714.17,512.57,714.17,513.36z M714.19,509.55
		c0.94-0.32,1.69-0.54,2.39-0.86c0.11-0.05,0.1-0.79-0.01-0.84c-0.72-0.3-1.48-0.49-2.38-0.76
		C714.19,507.98,714.19,508.55,714.19,509.55z"/>
	<path d="M754.86,511.2c0.82,1.36,1.6,2.65,2.39,3.96c-2.31,0.55-2.65,0.41-3.68-1.48c-0.32-0.59-0.61-1.21-0.99-1.77
		c-0.17-0.26-0.52-0.4-1.01-0.76c0,1.56,0,2.78,0,4.1c-0.82,0-1.54,0-2.35,0c0-3.29,0-6.54,0-9.83c1.63,0,3.22-0.09,4.8,0.03
		c1.25,0.1,2.31,0.71,2.66,2.05C757.11,509.1,756.64,510.01,754.86,511.2z M751.62,509.87c1.01-0.36,1.83-0.6,2.59-0.97
		c0.12-0.06,0.1-0.88-0.04-0.94c-0.77-0.33-1.6-0.54-2.55-0.83C751.62,508.13,751.62,508.76,751.62,509.87z"/>
	<path d="M383.26,509.04c1.36,0,2.54,0,3.85,0c0-1.2,0-2.38,0-3.62c0.83,0,1.54,0,2.35,0c0,3.24,0,6.49,0,9.84c-0.7,0-1.43,0-2.3,0
		c0-1.3,0-2.63,0-4.04c-1.31,0-2.49,0-3.82,0c0,1.34,0,2.68,0,4.06c-0.89,0-1.63,0-2.41,0c0-3.3,0-6.53,0-9.84c0.77,0,1.5,0,2.33,0
		C383.26,506.59,383.26,507.73,383.26,509.04z"/>
	<path d="M728.76,515.36c1.39-3.32,2.65-6.46,4.06-9.52c0.16-0.36,1.15-0.42,1.76-0.44c0.33-0.01,0.85,0.28,0.98,0.57
		c1.31,3.03,2.56,6.09,3.82,9.15c-1.71,0.63-2.44,0.35-3.2-1.1c-0.16-0.3-0.61-0.55-0.96-0.63c-0.5-0.11-1.04,0.02-1.55-0.04
		c-1.04-0.11-1.75,0.11-2,1.29c-0.06,0.31-0.71,0.59-1.13,0.69C730.05,515.45,729.51,515.36,728.76,515.36z M732.94,511.31
		c0.8,0,1.49,0,2.29,0c-0.38-1.04-0.71-1.95-1.14-3.13C733.64,509.4,733.29,510.35,732.94,511.31z"/>
	<path d="M868.17,515.36c-0.67,0-1.11-0.05-1.54,0.01c-0.9,0.13-1.46-0.19-1.64-1.1c-0.15-0.78-0.63-1.01-1.38-0.93
		c-0.43,0.05-0.89,0.06-1.32,0c-1.02-0.15-1.71,0.15-1.88,1.25c-0.12,0.73-0.62,0.81-1.24,0.77c-0.51-0.03-1.02-0.01-1.72-0.01
		c1.06-2.55,2.04-4.92,3.03-7.29c0.18-0.44,0.38-0.88,0.57-1.32c0.61-1.44,0.97-1.66,2.5-1.37c0.25,0.05,0.57,0.3,0.67,0.53
		C865.53,508.99,866.81,512.08,868.17,515.36z M862.91,508.55c-0.09,0-0.18-0.01-0.27-0.01c-0.34,0.91-0.68,1.83-1.03,2.77
		c0.81,0,1.5,0,2.29,0C863.55,510.32,863.23,509.43,862.91,508.55z"/>
	<path d="M400.62,515.27c0-3.33,0-6.56,0-9.85c2.2,0,4.34,0,6.57,0c0,0.61,0,1.23,0,1.99c-1.36,0-2.74,0-4.19,0
		c0,0.64,0,1.14,0,1.77c1.27,0,2.57,0,3.95,0c0,0.69,0,1.27,0,1.98c-1.27,0-2.57,0-3.95,0c0,0.71,0,1.28,0,2c1.47,0,2.93,0,4.45,0
		c0,0.77,0,1.39,0,2.1C405.2,515.27,402.94,515.27,400.62,515.27z"/>
	<path d="M788.63,513.89c-1.94,2.14-5.46,2.28-7.59,0.35c-2.04-1.84-2.2-5.43-0.33-7.49c1.89-2.08,5.59-2.23,7.8-0.19
		c-0.5,0.53-1,1.05-1.5,1.57c-1.92-1.11-3.34-1.01-4.32,0.27c-0.87,1.14-0.79,3.09,0.18,4.1c1.06,1.11,2.49,1.09,4.16-0.12
		C787.57,512.88,788.1,513.39,788.63,513.89z"/>
	<path d="M437.24,507.93c-1.43-0.91-2.91-0.83-3.9,0.39c-0.94,1.16-0.88,3.15,0.13,4.2c1.05,1.09,2.46,1.07,4.15-0.13
		c0.5,0.47,1.02,0.96,1.52,1.44c-0.92,1.89-4.94,2.52-7.29,0.62c-2.21-1.78-2.51-5.46-0.62-7.64c1.84-2.13,5.72-2.29,7.92-0.15
		C438.57,507.05,437.97,507.44,437.24,507.93z"/>
	<path d="M844.08,515.29c-0.83,0-1.57,0-2.37,0c0-3.28,0-6.5,0-10.02c1.8,0.11,3.63,0.1,5.41,0.38c1.38,0.22,2,1.22,2.04,2.58
		c0.05,1.55-0.52,2.5-1.87,3c-0.48,0.18-1,0.29-1.51,0.34c-0.51,0.06-1.03,0.01-1.7,0.01c0,0.66,0,1.25,0,1.84
		C844.08,514.02,844.08,514.62,844.08,515.29z M844.08,507.43c0,0.5-0.01,0.93,0,1.35c0.01,0.27,0.04,0.54,0.07,0.79
		c1.63,0.15,2.52-0.23,2.55-1.07C846.74,507.64,845.96,507.29,844.08,507.43z"/>
	<path d="M485.69,514.18c0.57-0.6,1.03-1.09,1.49-1.56c0.68,0.32,1.3,0.79,1.96,0.85c0.51,0.04,1.06-0.44,1.59-0.69
		c-0.32-0.44-0.55-0.99-0.97-1.29c-0.47-0.33-1.12-0.4-1.67-0.62c-1.33-0.55-1.88-1.39-1.85-2.76c0.03-1.27,0.73-2.26,2.01-2.68
		c1.78-0.59,3.45-0.39,5.11,0.88c-0.49,0.56-0.94,1.07-1.39,1.58c-0.61-0.26-1.14-0.67-1.69-0.67c-0.5-0.01-1,0.42-1.5,0.65
		c0.29,0.39,0.52,0.89,0.9,1.15c0.45,0.3,1.04,0.38,1.56,0.59c1.5,0.6,2.04,1.4,2,2.9c-0.04,1.38-0.77,2.4-2.17,2.82
		C489.14,515.9,487.38,515.54,485.69,514.18z"/>
	<path d="M643.86,551.87c1.95,1.23,2.46,2.09,2.12,3.46c-0.47,1.88-2,1.96-3.5,2c-1.47,0.04-2.95-0.01-4.42-0.03
		c-0.09,0-0.19-0.1-0.47-0.27c2.01-0.33,1.39-1.83,1.46-2.93c0.1-1.47-0.01-2.95-0.01-4.43c0-0.99,0-1.93-1.72-1.89
		c0.48-0.28,0.63-0.44,0.78-0.44c1.67,0,3.35,0,5.02,0.05c1.02,0.03,1.9,0.39,2.22,1.48c0.34,1.19-0.04,2.02-1.23,2.81
		C644.02,551.73,643.95,551.8,643.86,551.87z M640.9,552.35c-0.03,0.1-0.09,0.22-0.09,0.33c-0.01,0.8-0.04,1.59,0,2.39
		c0.04,0.78,0,1.67,1.16,1.73c1.09,0.06,1.83-0.52,2.01-1.6C644.33,553.22,643.08,552.06,640.9,552.35z M640.84,551.7
		c0.42,0,0.74,0.04,1.05-0.01c1.07-0.14,1.79-1.02,1.74-2.06c-0.05-1-0.81-1.69-1.89-1.78c-0.59-0.05-0.91,0.1-0.9,0.75
		C640.85,549.59,640.84,550.58,640.84,551.7z"/>
	<path d="M896.7,505.57c3.21-1.28,3.64,1.53,4.93,3.34c0.43-0.72,0.89-1.32,1.16-2c0.52-1.31,1.41-1.81,2.77-1.55
		c0.26,0.05,0.53,0.04,1,0.07c-0.94,1.41-1.72,2.75-2.67,3.96c-0.92,1.17-1.28,2.42-1.14,3.88c0.06,0.63,0.01,1.27,0.01,2
		c-0.85,0-1.61,0-2.65,0C901.41,511.13,898.4,508.57,896.7,505.57z"/>
	<path d="M370.79,507.47c-0.91,0-1.74,0-2.63,0c0,2.63,0,5.14,0,7.78c-0.84,0-1.6,0-2.51,0c0-2.53,0-5.08,0-7.73
		c-0.98-0.04-1.84-0.08-2.75-0.12c0-0.67,0-1.26,0-1.94c2.62,0,5.23,0,7.89,0C370.79,506.08,370.79,506.67,370.79,507.47z"/>
	<path d="M476.46,505.44c0,0.71,0,1.29,0,1.97c-0.89,0-1.72,0-2.67,0c0,2.66,0,5.24,0,7.88c-0.86,0-1.59,0-2.47,0
		c0-2.18-0.06-4.33,0.03-6.47c0.05-1.11-0.29-1.54-1.39-1.39c-0.43,0.06-0.87,0.01-1.39,0.01c0-0.7,0-1.31,0-2
		C471.17,505.44,473.78,505.44,476.46,505.44z"/>
	<path d="M550.27,513.24c1.4,0,2.58,0,3.81,0c0,0.71,0,1.3,0,2c-2.05,0-4.09,0-6.2,0c0-3.27,0-6.52,0-9.83c0.77,0,1.51,0,2.39,0
		C550.27,507.98,550.27,510.52,550.27,513.24z"/>
	<path d="M605.21,505.18c0.1,0.99,0.22,2.12,0.33,3.26c-0.12,0.04-0.24,0.08-0.36,0.11c-0.16-0.28-0.29-0.58-0.49-0.82
		c-0.5-0.61-0.95-1.33-1.58-1.75c-1.72-1.15-3.79-0.4-4.22,1.62c-0.25,1.2-0.24,2.57,0.08,3.75c0.76,2.82,3.62,3.56,5.85,1.67
		c0.23-0.19,0.47-0.36,0.91-0.4c-0.09,0.22-0.14,0.47-0.28,0.65c-1.44,1.85-4.02,2.45-6.28,1.48c-2.06-0.89-3.14-3.12-2.76-5.7
		c0.34-2.28,2.1-4.01,4.42-4.19c0.9-0.07,1.81,0.15,2.72,0.22C604.04,505.12,604.53,505.14,605.21,505.18z"/>
	<path d="M640.84,467.17c-1.94-0.83-2.83,0.58-3.85,1.7c-0.1-0.08-0.2-0.15-0.3-0.23c0.25-1,0.49-2,0.7-2.83
		c3.12,0.62,6.08,0.65,9.24-0.07c0.14,0.91,0.3,1.94,0.45,2.97c-0.08,0.08-0.16,0.15-0.24,0.23c-1.03-1.05-1.8-2.68-3.85-1.72
		c0,1.16,0,2.5,0,3.84c0,1,0.04,2-0.01,3c-0.05,0.91,0.01,1.68,1.32,1.64c-0.05,0.1-0.1,0.21-0.14,0.31c-1.52,0-3.04,0-4.57,0
		c1.54-0.31,1.23-1.49,1.23-2.5C640.84,471.36,640.84,469.22,640.84,467.17z"/>
	<path d="M685.98,512.63c-0.48,0.55-0.81,1.02-1.23,1.39c-1.55,1.38-4.09,1.58-5.94,0.49c-1.86-1.09-2.73-3.3-2.25-5.74
		c0.4-2.04,2.01-3.68,4.04-3.86c1.04-0.09,2.12,0.18,3.18,0.28c0.4,0.04,0.79,0.07,1.38,0.12c0.1,0.88,0.22,1.91,0.34,2.94
		c-0.1,0.04-0.21,0.09-0.31,0.13c-0.16-0.26-0.34-0.51-0.49-0.77c-0.9-1.62-2.33-2.44-3.79-2.14c-1.43,0.29-2.35,1.5-2.5,3.4
		c-0.05,0.59-0.03,1.21,0.09,1.78c0.31,1.47,0.98,2.8,2.48,3.29c1.56,0.51,2.99,0.02,4.15-1.16c0.11-0.11,0.24-0.19,0.37-0.28
		C685.54,512.5,685.59,512.53,685.98,512.63z"/>
	<path class="st0" d="M534.68,510.39c-0.03,1.75-1.29,3-2.93,2.94c-1.58-0.06-2.68-1.33-2.66-3.07c0.02-1.71,1.19-2.95,2.79-2.94
		C533.5,507.32,534.71,508.66,534.68,510.39z"/>
	<path class="st0" d="M451.16,510.25c0.03-1.72,1.2-2.94,2.8-2.93c1.65,0.01,2.82,1.31,2.78,3.08c-0.04,1.72-1.21,2.95-2.8,2.94
		C452.31,513.34,451.13,512.02,451.16,510.25z"/>
	<path class="st0" d="M806.16,510.32c0,1.77-1.19,3.04-2.84,3.02c-1.6-0.02-2.71-1.25-2.72-3c-0.01-1.79,1.16-3.04,2.82-3.02
		C805.01,507.35,806.16,508.6,806.16,510.32z"/>
	<path class="st0" d="M566.62,507.47c1.44,0,2.9-0.16,3.8,1.23c0.66,1.01,0.64,2.16,0.02,3.18c-0.86,1.42-2.31,1.33-3.83,1.29
		C566.62,511.27,566.62,509.43,566.62,507.47z"/>
	<path class="st0" d="M714.17,513.36c0-0.79,0-1.42,0-2.17c0.66,0,1.31-0.11,1.89,0.04c0.38,0.1,0.96,0.58,0.94,0.85
		c-0.03,0.4-0.45,0.94-0.84,1.09C715.6,513.39,714.92,513.31,714.17,513.36z"/>
	<path class="st0" d="M714.19,509.55c0-1,0-1.58,0-2.46c0.9,0.27,1.66,0.46,2.38,0.76c0.11,0.05,0.12,0.79,0.01,0.84
		C715.89,509.02,715.14,509.23,714.19,509.55z"/>
	<path class="st0" d="M751.62,509.87c0-1.12,0-1.74,0-2.74c0.96,0.29,1.78,0.5,2.55,0.83c0.13,0.06,0.16,0.88,0.04,0.94
		C753.45,509.27,752.63,509.51,751.62,509.87z"/>
	<path class="st0" d="M732.94,511.31c0.35-0.96,0.7-1.91,1.15-3.13c0.43,1.18,0.76,2.09,1.14,3.13
		C734.42,511.31,733.74,511.31,732.94,511.31z"/>
	<path class="st0" d="M862.91,508.55c0.32,0.88,0.64,1.76,1,2.76c-0.79,0-1.48,0-2.29,0c0.35-0.94,0.69-1.85,1.03-2.77
		C862.74,508.55,862.82,508.55,862.91,508.55z"/>
	<path class="st0" d="M844.08,507.43c1.88-0.15,2.66,0.2,2.62,1.08c-0.03,0.84-0.92,1.22-2.55,1.07c-0.02-0.26-0.06-0.53-0.07-0.79
		C844.07,508.36,844.08,507.93,844.08,507.43z"/>
	<path class="st0" d="M640.9,552.35c2.18-0.3,3.43,0.86,3.09,2.85c-0.19,1.08-0.92,1.66-2.01,1.6c-1.16-0.06-1.12-0.95-1.16-1.73
		c-0.04-0.79-0.01-1.59,0-2.39C640.81,552.57,640.87,552.46,640.9,552.35z"/>
	<path class="st0" d="M640.84,551.7c0-1.12,0.01-2.11,0-3.1c-0.01-0.65,0.32-0.81,0.9-0.75c1.08,0.1,1.84,0.79,1.89,1.78
		c0.06,1.04-0.67,1.92-1.74,2.06C641.58,551.74,641.26,551.7,640.84,551.7z"/>
</g>
</svg>
