<?xml version="1.0" encoding="utf-8"?>
<!-- Generator: Adobe Illustrator 23.0.1, SVG Export Plug-In . SVG Version: 6.00 Build 0)  -->
<svg version="1.1" id="Layer_1" xmlns="http://www.w3.org/2000/svg" xmlns:xlink="http://www.w3.org/1999/xlink" x="0px" y="0px"
	 viewBox="0 0 720 405" style="enable-background:new 0 0 720 405;" xml:space="preserve">
<style type="text/css">
	.st0{clip-path:url(#SVGID_2_);}
	.st1{clip-path:url(#SVGID_4_);}
	.st2{clip-path:url(#SVGID_6_);}
	.st3{opacity:0;clip-path:url(#SVGID_4_);fill-rule:evenodd;clip-rule:evenodd;}
	.st4{clip-path:url(#SVGID_10_);}
	.st5{clip-path:url(#SVGID_12_);}
	.st6{fill:#FFFFFF;}
</style>
<g>
	<defs>
		<rect id="SVGID_1_" width="720" height="405"/>
	</defs>
	<clipPath id="SVGID_2_">
		<use xlink:href="#SVGID_1_"  style="overflow:visible;"/>
	</clipPath>
	<g class="st0">
		<defs>
			<rect id="SVGID_3_" width="720" height="405"/>
		</defs>
		<clipPath id="SVGID_4_">
			<use xlink:href="#SVGID_3_"  style="overflow:visible;"/>
		</clipPath>
		<g class="st1">
			<defs>
				<rect id="SVGID_5_" width="720" height="405"/>
			</defs>
			<clipPath id="SVGID_6_">
				<use xlink:href="#SVGID_5_"  style="overflow:visible;"/>
			</clipPath>
			<g class="st2">
				<defs>
					<rect id="SVGID_7_" width="720" height="405"/>
				</defs>
				<clipPath id="SVGID_8_">
					<use xlink:href="#SVGID_7_"  style="overflow:visible;"/>
				</clipPath>
			</g>
		</g>
		<rect x="187.32" y="148.49" class="st3" width="345.36" height="108.03"/>
		<g class="st1">
			<defs>
				<rect id="SVGID_9_" x="187.32" y="148.49" width="345.36" height="108.03"/>
			</defs>
			<clipPath id="SVGID_10_">
				<use xlink:href="#SVGID_9_"  style="overflow:visible;"/>
			</clipPath>
			<g class="st4">
				<defs>
					<rect id="SVGID_11_" x="187.32" y="148.49" width="345.36" height="108.03"/>
				</defs>
				<clipPath id="SVGID_12_">
					<use xlink:href="#SVGID_11_"  style="overflow:visible;"/>
				</clipPath>
				<g class="st5">
					<path d="M532.87,256.7c-115.12,0-230.24,0-345.36,0c0-36.01,0-72.02,0-108.03c115.12,0,230.24,0,345.36,0
						C532.87,184.68,532.87,220.69,532.87,256.7z M217.32,227.16c0.49,0,0.86,0,1.23,0c7.74,0,15.48,0.02,23.22-0.01
						c2.02-0.01,4.05-0.07,6.05-0.31c6.85-0.84,12.94-3.45,17.93-8.29c3.99-3.87,6.47-8.55,6.84-14.19
						c0.43-6.4-1.82-11.87-6.22-16.39c-6.06-6.22-13.66-9.05-22.22-9.2c-8.7-0.15-17.41-0.04-26.11-0.05
						c-0.24,0-0.47,0.04-0.71,0.06C217.32,194.92,217.32,210.98,217.32,227.16z M414.58,212.11c0.48,0,0.81,0,1.15,0
						c3.42,0,6.84,0.09,10.26-0.03c6.13-0.21,11.56-2.28,15.95-6.66c3.33-3.32,5.12-7.3,4.55-12.11c-0.5-4.19-2.75-7.34-6.03-9.79
						c-4.55-3.4-9.78-4.76-15.39-4.79c-8.4-0.04-16.79-0.01-25.19-0.01c-0.3,0-0.59,0.04-0.88,0.05c0,16.16,0,32.22,0,48.32
						c5.21,0,10.36,0,15.57,0C414.58,222.11,414.58,217.18,414.58,212.11z M355.88,212.11c3.85,0,7.52,0.07,11.18-0.02
						c5.96-0.14,11.26-2.1,15.69-6.15c7.24-6.62,6.85-16.42-0.93-22.37c-4.56-3.5-9.88-4.82-15.55-4.84
						c-8.3-0.03-16.6-0.01-24.9-0.01c-0.33,0-0.66,0-1.03,0c0,16.19,0,32.27,0,48.4c5.19,0,10.3,0,15.54,0
						C355.88,222.13,355.88,217.17,355.88,212.11z M332.33,227.12c-0.59-1.33-1.14-2.57-1.69-3.81
						c-6.49-14.57-12.98-29.14-19.45-43.72c-0.3-0.66-0.65-0.89-1.38-0.88c-3.92,0.04-7.83,0.04-11.75,0
						c-0.75-0.01-1.12,0.2-1.44,0.92c-6.9,15.55-13.83,31.08-20.75,46.61c-0.12,0.27-0.21,0.55-0.32,0.82
						c0.17,0.06,0.23,0.09,0.28,0.09c5.19,0,10.38,0.02,15.57-0.02c0.27,0,0.65-0.32,0.77-0.58c0.85-1.79,1.66-3.61,2.46-5.43
						c0.2-0.45,0.44-0.65,0.96-0.65c5.53,0.02,11.07,0.02,16.6,0c0.51,0,0.77,0.15,0.98,0.62c0.76,1.77,1.59,3.5,2.34,5.27
						c0.25,0.6,0.58,0.81,1.24,0.81c4.85-0.03,9.7-0.02,14.55-0.02C331.61,227.16,331.91,227.14,332.33,227.12z M502.43,227.11
						c-0.1-0.28-0.15-0.43-0.21-0.57c-7-15.71-14-31.42-20.98-47.14c-0.25-0.55-0.55-0.7-1.12-0.69c-4.01,0.02-8.02,0.03-12.03-0.01
						c-0.7-0.01-1.02,0.23-1.3,0.86c-6.49,14.61-13.01,29.21-19.52,43.81c-0.54,1.21-1.06,2.42-1.61,3.66
						c0.19,0.06,0.27,0.11,0.36,0.11c5.16,0.01,10.32,0.02,15.49-0.02c0.29,0,0.7-0.35,0.83-0.64c0.84-1.76,1.65-3.55,2.42-5.34
						c0.22-0.51,0.49-0.68,1.04-0.68c5.5,0.02,11.01,0.02,16.51,0c0.56,0,0.82,0.2,1.03,0.69c0.75,1.74,1.56,3.45,2.31,5.19
						c0.25,0.58,0.55,0.84,1.23,0.84c4.88-0.03,9.76-0.01,14.65-0.02C501.79,227.17,502.06,227.13,502.43,227.11z M319.74,161.74
						c-0.27-0.08-0.36-0.13-0.44-0.13c-3.89,0-7.77-0.02-11.66,0.03c-0.34,0-0.8,0.31-1.01,0.61c-1.79,2.58-3.54,5.18-5.29,7.79
						c-0.12,0.18-0.21,0.4-0.36,0.68c2.3,0,4.48,0.02,6.65-0.02c0.33-0.01,0.7-0.21,0.99-0.42c1.49-1.12,2.96-2.26,4.44-3.4
						C315.25,165.19,317.44,163.51,319.74,161.74z"/>
					<path class="st6" d="M217.32,227.16c0-16.19,0-32.25,0-48.38c0.24-0.02,0.48-0.06,0.71-0.06c8.71,0,17.41-0.11,26.11,0.05
						c8.56,0.15,16.16,2.98,22.22,9.2c4.4,4.52,6.65,9.99,6.22,16.39c-0.37,5.64-2.85,10.31-6.84,14.19
						c-4.99,4.84-11.08,7.46-17.93,8.29c-2,0.24-4.03,0.3-6.05,0.31c-7.74,0.03-15.48,0.01-23.22,0.01
						C218.17,227.16,217.8,227.16,217.32,227.16z M232.67,215.26c3.7,0,7.31,0.17,10.9-0.05c3.52-0.22,6.68-1.62,9.29-4.07
						c4.14-3.89,4.91-9.66,1.82-14.22c-2.66-3.92-6.57-5.86-11.17-6.23c-3.43-0.27-6.9-0.13-10.35-0.17c-0.15,0-0.3,0.04-0.49,0.07
						C232.67,198.82,232.67,207.02,232.67,215.26z"/>
					<path class="st6" d="M414.58,212.11c0,5.06,0,10,0,14.99c-5.22,0-10.36,0-15.57,0c0-16.11,0-32.16,0-48.32
						c0.29-0.02,0.59-0.05,0.88-0.05c8.4,0,16.79-0.03,25.19,0.01c5.61,0.02,10.84,1.38,15.39,4.79c3.28,2.45,5.53,5.61,6.03,9.79
						c0.57,4.82-1.22,8.79-4.55,12.11c-4.39,4.37-9.81,6.45-15.95,6.66c-3.42,0.12-6.84,0.03-10.26,0.03
						C415.4,212.11,415.06,212.11,414.58,212.11z M415,199.91c3.36,0,6.61,0.06,9.86-0.03c1.61-0.04,3.07-0.7,4.27-1.83
						c2.06-1.95,2.05-4.7-0.03-6.63c-1.36-1.26-3.01-1.84-4.84-1.86c-2.89-0.04-5.77-0.01-8.66-0.01c-0.2,0-0.41,0.06-0.61,0.09
						C415,193.07,415,196.44,415,199.91z"/>
					<path class="st6" d="M355.88,212.11c0,5.06,0,10.02,0,15.01c-5.23,0-10.35,0-15.54,0c0-16.12,0-32.2,0-48.4
						c0.36,0,0.69,0,1.03,0c8.3,0,16.6-0.02,24.9,0.01c5.67,0.02,10.99,1.34,15.55,4.84c7.78,5.95,8.16,15.75,0.93,22.37
						c-4.43,4.05-9.72,6.02-15.69,6.15C363.39,212.18,359.72,212.11,355.88,212.11z M356.32,199.84c3.49,0,6.87,0.07,10.24-0.04
						c0.94-0.03,1.94-0.48,2.78-0.96c3.39-1.93,3.51-5.84,0.3-8.04c-1.24-0.85-2.63-1.25-4.13-1.26c-2.89-0.02-5.78-0.01-8.67,0
						c-0.17,0-0.35,0.05-0.52,0.08C356.32,193.05,356.32,196.44,356.32,199.84z"/>
					<path class="st6" d="M332.33,227.12c-0.43,0.02-0.72,0.04-1.02,0.04c-4.85,0-9.7-0.01-14.55,0.02c-0.66,0-0.99-0.21-1.24-0.81
						c-0.75-1.77-1.58-3.51-2.34-5.27c-0.21-0.48-0.47-0.63-0.98-0.62c-5.53,0.02-11.07,0.02-16.6,0c-0.53,0-0.77,0.2-0.96,0.65
						c-0.79,1.82-1.6,3.63-2.46,5.43c-0.13,0.27-0.51,0.58-0.77,0.58c-5.19,0.03-10.38,0.02-15.57,0.02c-0.06,0-0.11-0.04-0.28-0.09
						c0.11-0.28,0.2-0.56,0.32-0.82c6.92-15.53,13.85-31.07,20.75-46.61c0.32-0.72,0.69-0.93,1.44-0.92c3.92,0.04,7.83,0.04,11.75,0
						c0.74-0.01,1.09,0.22,1.38,0.88c6.47,14.58,12.96,29.15,19.45,43.72C331.2,224.55,331.74,225.79,332.33,227.12z M299.34,209.1
						c3.11,0,6.07,0,9.16,0c-1.51-4.2-2.98-8.3-4.45-12.41c-0.07,0.01-0.14,0.02-0.21,0.04
						C302.35,200.82,300.86,204.92,299.34,209.1z"/>
					<path class="st6" d="M502.43,227.11c-0.37,0.02-0.64,0.06-0.91,0.06c-4.88,0-9.76-0.02-14.65,0.02c-0.69,0-0.98-0.25-1.23-0.84
						c-0.74-1.74-1.56-3.45-2.31-5.19c-0.21-0.49-0.47-0.69-1.03-0.69c-5.5,0.02-11.01,0.02-16.51,0c-0.55,0-0.82,0.16-1.04,0.68
						c-0.77,1.8-1.57,3.58-2.42,5.34c-0.14,0.29-0.55,0.64-0.83,0.64c-5.16,0.04-10.32,0.02-15.49,0.02c-0.08,0-0.16-0.05-0.36-0.11
						c0.54-1.24,1.07-2.45,1.61-3.66c6.51-14.6,13.02-29.2,19.52-43.81c0.28-0.63,0.6-0.87,1.3-0.86c4.01,0.04,8.02,0.03,12.03,0.01
						c0.57,0,0.87,0.14,1.12,0.69c6.98,15.72,13.98,31.43,20.98,47.14C502.28,226.68,502.33,226.83,502.43,227.11z M478.64,209.12
						c-1.51-4.22-2.99-8.33-4.56-12.7c-1.6,4.4-3.1,8.51-4.62,12.7C472.57,209.12,475.51,209.12,478.64,209.12z"/>
					<path class="st6" d="M319.74,161.74c-2.3,1.77-4.49,3.45-6.68,5.14c-1.48,1.14-2.95,2.28-4.44,3.4
						c-0.28,0.21-0.65,0.41-0.99,0.42c-2.17,0.04-4.35,0.02-6.65,0.02c0.15-0.28,0.23-0.49,0.36-0.68c1.75-2.6,3.5-5.21,5.29-7.79
						c0.21-0.3,0.66-0.61,1.01-0.61c3.89-0.04,7.77-0.03,11.66-0.03C319.38,161.6,319.47,161.65,319.74,161.74z"/>
					<path d="M232.67,215.26c0-8.24,0-16.43,0-24.66c0.2-0.03,0.35-0.07,0.49-0.07c3.45,0.04,6.91-0.11,10.35,0.17
						c4.6,0.37,8.51,2.31,11.17,6.23c3.1,4.56,2.33,10.33-1.82,14.22c-2.61,2.45-5.77,3.85-9.29,4.07
						C239.98,215.43,236.37,215.26,232.67,215.26z"/>
					<path d="M415,199.91c0-3.46,0-6.84,0-10.28c0.2-0.03,0.41-0.09,0.61-0.09c2.89,0,5.77-0.03,8.66,0.01
						c1.83,0.02,3.48,0.6,4.84,1.86c2.08,1.94,2.09,4.68,0.03,6.63c-1.2,1.14-2.66,1.79-4.27,1.83
						C421.61,199.97,418.36,199.91,415,199.91z"/>
					<path d="M356.32,199.84c0-3.41,0-6.79,0-10.22c0.18-0.03,0.35-0.08,0.52-0.08c2.89,0,5.78-0.01,8.67,0
						c1.49,0.01,2.89,0.41,4.13,1.26c3.21,2.2,3.09,6.11-0.3,8.04c-0.84,0.48-1.84,0.92-2.78,0.96
						C363.19,199.91,359.81,199.84,356.32,199.84z"/>
					<path d="M299.34,209.1c1.52-4.18,3.01-8.27,4.5-12.37c0.07-0.01,0.14-0.02,0.21-0.04c1.47,4.1,2.94,8.21,4.45,12.41
						C305.41,209.1,302.44,209.1,299.34,209.1z"/>
					<path d="M478.64,209.12c-3.12,0-6.07,0-9.18,0c1.53-4.19,3.02-8.3,4.62-12.7C475.65,200.79,477.12,204.9,478.64,209.12z"/>
				</g>
			</g>
		</g>
	</g>
</g>
</svg>
