<?xml version="1.0" encoding="utf-8"?>
<!-- Generator: Adobe Illustrator 23.0.1, SVG Export Plug-In . SVG Version: 6.00 Build 0)  -->
<svg version="1.1" id="Layer_1" xmlns="http://www.w3.org/2000/svg" xmlns:xlink="http://www.w3.org/1999/xlink" x="0px" y="0px"
	 viewBox="0 0 1280 1024" style="enable-background:new 0 0 1280 1024;" xml:space="preserve">
<style type="text/css">
	.st0{fill:#FFFFFF;}
</style>
<g>
	<path class="st0" d="M745.72,541.56c-70.16,0-140.32,0-210.48,0c0-19.44,0-38.88,0-58.32c70.16,0,140.32,0,210.48,0
		C745.72,502.68,745.72,522.12,745.72,541.56z M589.5,519.24c0.57-0.31,0.95-0.5,1.33-0.72c3.86-2.16,5.62-6.93,4.13-11.17
		c-1.46-4.14-5.87-6.77-10.16-6.05c-4.12,0.69-7.37,4.04-7.78,8c-0.46,4.43,1.89,8.3,5.96,9.9c0.53,0.21,1.05,0.54,1.47,0.93
		c1.79,1.67,3.81,2.9,6.24,3.34c0.5,0.09,1.21,0.09,1.56-0.19c0.96-0.79,1.78-1.76,2.82-2.83
		C593.02,520.45,591.22,520.48,589.5,519.24z M654.97,501.48c0,6.08,0,12.01,0,17.93c1.28,0,2.46,0,3.79,0c0-3.71,0-7.35,0-11.32
		c0.49,0.59,0.77,0.91,1.02,1.24c2.41,3.13,4.81,6.27,7.24,9.4c0.24,0.31,0.63,0.68,0.98,0.71c0.94,0.1,1.89,0.03,2.87,0.03
		c0-6.06,0-11.99,0-17.94c-1.27,0-2.45,0-3.82,0c0,3.57,0,7.08,0,10.91c-0.57-0.72-0.91-1.15-1.25-1.58
		c-2.22-2.88-4.42-5.77-6.66-8.63c-0.26-0.33-0.71-0.68-1.11-0.72C657.06,501.41,656.06,501.48,654.97,501.48z M727.66,519.48
		c-1.86-2.53-3.55-4.83-5.25-7.14c-1.62-2.2-1.62-2.2,0.02-4.43c1.53-2.08,3.05-4.16,4.72-6.43c-1.43,0-2.61,0.05-3.79-0.02
		c-0.73-0.04-1.17,0.22-1.58,0.8c-1.06,1.52-2.19,3-3.37,4.61c-1.23-1.67-2.35-3.22-3.5-4.74c-0.2-0.26-0.51-0.6-0.79-0.61
		c-1.41-0.06-2.82-0.03-4.45-0.03c2.22,3.03,4.29,5.85,6.34,8.65c-2.29,3.12-4.5,6.14-6.84,9.34c1.42,0,2.61-0.05,3.79,0.02
		c0.72,0.04,1.16-0.21,1.57-0.79c1.24-1.76,2.54-3.47,3.88-5.29c1.38,1.88,2.66,3.65,4,5.38c0.25,0.33,0.73,0.63,1.12,0.66
		C724.8,519.53,726.08,519.48,727.66,519.48z M565.14,515.86c-2.72,0-5.35,0-8.02,0c0-1.23,0-2.36,0-3.62c2.53,0,4.98,0,7.42,0
		c0-1.26,0-2.39,0-3.6c-2.53,0-4.95,0-7.41,0c0-1.22,0-2.35,0-3.63c2.65,0,5.22,0,7.76,0c0-1.25,0-2.35,0-3.48
		c-3.9,0-7.71,0-11.57,0c0,5.99,0,11.92,0,17.94c3.74,0,7.41,0,11.08,0c0.23,0,0.46-0.04,0.75-0.06
		C565.14,518.25,565.14,517.15,565.14,515.86z M606.56,501.52c0,3.55-0.02,6.98,0,10.41c0.04,5.68,5.98,9.49,11.15,7.12
		c3.03-1.39,4.65-3.81,4.68-7.18c0.03-3.42,0.01-6.85,0.01-10.33c-1.3,0-2.47,0-3.76,0c0,0.54,0,1.01,0,1.48
		c0,2.88,0.06,5.75-0.03,8.63c-0.09,2.61-1.85,4.29-4.22,4.24c-2.32-0.05-4-1.89-4.02-4.46c-0.02-2.92-0.01-5.83-0.01-8.75
		c0-0.38,0-0.76,0-1.16C609.04,501.52,607.89,501.52,606.56,501.52z M695.46,502.32c-4.19-2.37-9.64-0.85-12.19,3.33
		c-2.28,3.74-1.5,9.39,1.61,11.39c0.46-0.64,0.88-1.33,1.4-1.92c0.6-0.68,0.64-1.21,0.17-2.07c-2.04-3.66,0.72-8.34,4.85-7.9
		c1.95,0.21,2.72-0.55,3.52-1.88C695,502.97,695.21,502.69,695.46,502.32z M695.38,506.92c0.27,0.47,0.48,0.81,0.66,1.16
		c1.78,3.6-0.88,8.06-4.86,7.72c-1.94-0.17-2.81,0.53-3.61,1.94c-0.17,0.31-0.4,0.59-0.6,0.89c3.79,2.28,9.16,0.97,11.81-2.84
		c2.6-3.75,2.06-9.23-1.21-11.9C696.84,504.9,696.12,505.9,695.38,506.92z M637.13,501.54c0,6.03,0,11.94,0,17.88
		c1.27,0,2.45,0,3.69,0c0-5.98,0-11.9,0-17.88C639.58,501.54,638.39,501.54,637.13,501.54z"/>
	<path d="M589.5,519.24c1.72,1.25,3.51,1.21,5.56,1.21c-1.04,1.07-1.86,2.03-2.82,2.83c-0.34,0.28-1.05,0.28-1.56,0.19
		c-2.43-0.44-4.45-1.67-6.24-3.34c-0.42-0.39-0.94-0.73-1.47-0.93c-4.07-1.6-6.42-5.47-5.96-9.9c0.41-3.96,3.67-7.31,7.78-8
		c4.29-0.72,8.7,1.91,10.16,6.05c1.49,4.24-0.27,9.01-4.13,11.17C590.45,518.73,590.07,518.93,589.5,519.24z M591.64,510.5
		c0.01-2.98-2.4-5.43-5.37-5.46c-2.98-0.03-5.44,2.38-5.47,5.35c-0.03,3.06,2.4,5.53,5.42,5.52
		C589.19,515.9,591.63,513.47,591.64,510.5z"/>
	<path d="M654.97,501.48c1.08,0,2.09-0.07,3.07,0.03c0.4,0.04,0.85,0.38,1.11,0.72c2.24,2.86,4.44,5.75,6.66,8.63
		c0.34,0.44,0.68,0.87,1.25,1.58c0-3.83,0-7.34,0-10.91c1.36,0,2.55,0,3.82,0c0,5.95,0,11.88,0,17.94c-0.98,0-1.93,0.07-2.87-0.03
		c-0.35-0.04-0.74-0.4-0.98-0.71c-2.43-3.12-4.83-6.26-7.24-9.4c-0.26-0.33-0.54-0.65-1.02-1.24c0,3.96,0,7.6,0,11.32
		c-1.33,0-2.51,0-3.79,0C654.97,513.49,654.97,507.56,654.97,501.48z"/>
	<path d="M727.66,519.48c-1.58,0-2.86,0.05-4.13-0.03c-0.39-0.03-0.87-0.34-1.12-0.66c-1.34-1.73-2.61-3.51-4-5.38
		c-1.35,1.83-2.65,3.54-3.88,5.29c-0.41,0.59-0.85,0.83-1.57,0.79c-1.18-0.06-2.37-0.02-3.79-0.02c2.35-3.2,4.56-6.22,6.84-9.34
		c-2.05-2.8-4.12-5.62-6.34-8.65c1.63,0,3.04-0.03,4.45,0.03c0.27,0.01,0.59,0.35,0.79,0.61c1.15,1.52,2.27,3.07,3.5,4.74
		c1.18-1.6,2.31-3.08,3.37-4.61c0.41-0.58,0.85-0.84,1.58-0.8c1.18,0.06,2.36,0.02,3.79,0.02c-1.67,2.28-3.19,4.36-4.72,6.43
		c-1.64,2.23-1.64,2.23-0.02,4.43C724.11,514.64,725.8,516.95,727.66,519.48z"/>
	<path d="M565.14,515.86c0,1.29,0,2.39,0,3.55c-0.29,0.02-0.52,0.06-0.75,0.06c-3.67,0-7.34,0-11.08,0c0-6.02,0-11.95,0-17.94
		c3.85,0,7.67,0,11.57,0c0,1.13,0,2.23,0,3.48c-2.54,0-5.11,0-7.76,0c0,1.27,0,2.4,0,3.63c2.46,0,4.88,0,7.41,0c0,1.22,0,2.34,0,3.6
		c-2.44,0-4.89,0-7.42,0c0,1.26,0,2.39,0,3.62C559.79,515.86,562.41,515.86,565.14,515.86z"/>
	<path d="M606.56,501.52c1.33,0,2.48,0,3.8,0c0,0.4,0,0.78,0,1.16c0,2.92-0.02,5.83,0.01,8.75c0.02,2.57,1.7,4.41,4.02,4.46
		c2.37,0.05,4.13-1.63,4.22-4.24c0.1-2.87,0.03-5.75,0.03-8.63c0-0.47,0-0.94,0-1.48c1.29,0,2.47,0,3.76,0
		c0,3.48,0.02,6.9-0.01,10.33c-0.03,3.37-1.65,5.79-4.68,7.18c-5.16,2.37-11.1-1.44-11.15-7.12
		C606.54,508.5,606.56,505.07,606.56,501.52z"/>
	<path d="M695.46,502.32c-0.25,0.36-0.46,0.65-0.65,0.95c-0.8,1.32-1.57,2.08-3.52,1.88c-4.13-0.44-6.88,4.23-4.85,7.9
		c0.48,0.86,0.43,1.39-0.17,2.07c-0.52,0.59-0.94,1.28-1.4,1.92c-3.11-2-3.89-7.65-1.61-11.39
		C685.82,501.48,691.26,499.95,695.46,502.32z"/>
	<path d="M695.38,506.92c0.74-1.03,1.46-2.03,2.18-3.03c3.28,2.67,3.82,8.15,1.21,11.9c-2.65,3.81-8.02,5.12-11.81,2.84
		c0.2-0.3,0.42-0.58,0.6-0.89c0.8-1.41,1.67-2.11,3.61-1.94c3.98,0.34,6.64-4.12,4.86-7.72
		C695.86,507.73,695.65,507.39,695.38,506.92z"/>
	<path d="M637.13,501.54c1.27,0,2.45,0,3.69,0c0,5.98,0,11.9,0,17.88c-1.24,0-2.42,0-3.69,0
		C637.13,513.48,637.13,507.56,637.13,501.54z"/>
	<path class="st0" d="M591.64,510.5c-0.01,2.97-2.44,5.4-5.42,5.41c-3.02,0.01-5.44-2.46-5.42-5.52c0.02-2.96,2.49-5.38,5.47-5.35
		C589.24,505.07,591.65,507.52,591.64,510.5z"/>
</g>
</svg>
