<svg width="92" height="58" viewBox="0 0 92 58" fill="none" xmlns="http://www.w3.org/2000/svg">
<path fill-rule="evenodd" clip-rule="evenodd" d="M74.649 35.6239C70.3556 35.7942 66.1671 35.2065 61.9873 34.5081C60.2822 34.2185 58.6208 33.716 56.9331 33.4435C54.7208 33.0772 52.5872 32.4129 50.3662 32.0637C47.0434 31.5442 43.7556 30.7435 40.459 30.0451C39.5408 29.8492 38.6139 29.8492 37.687 29.713C34.5479 29.236 31.3912 28.9805 28.1995 29.0742C26.372 29.1253 24.5007 29.2275 22.7781 29.5852C19.5602 30.2581 16.3073 31.0842 13.3693 32.6088C11.4805 33.5968 9.64422 34.7296 7.76421 35.7176C5.41201 36.9525 3.64567 38.8434 1.51207 40.2998C1.17979 40.5212 0.882483 41.0237 0.44527 40.6234C0.112989 40.3083 -0.114362 39.9335 0.0605234 39.3203C0.436526 37.9831 1.48584 37.1995 2.42147 36.3563C4.59879 34.3889 7.23955 33.0772 9.78413 31.6208C11.9789 30.3688 14.2962 29.4319 16.6833 28.6313C20.1898 27.4559 23.8012 26.7064 27.5087 26.5701C29.6511 26.4935 31.8109 26.5616 33.9532 26.766C35.8158 26.9364 37.6608 27.243 39.5233 27.4644C41.8406 27.737 44.1403 28.231 46.4051 28.7846C47.6293 29.0827 48.8884 29.1594 50.0951 29.5256C52.1763 30.1559 54.3798 30.3007 56.4435 31.0331C57.3091 31.3397 58.2885 31.3057 59.2066 31.4845C62.853 32.2085 66.5256 32.7366 70.2244 32.975C75.0337 33.2817 79.8256 33.1539 84.5125 31.8848C86.4013 31.3738 88.3075 30.8543 89.8028 29.483C90.0389 29.2701 90.3449 29.0997 90.651 28.9975C91.1669 28.8272 91.4467 29.1423 91.6303 29.7045C91.9888 30.8032 91.5866 31.4931 90.6597 32.1233C89.2606 33.0772 87.7216 33.699 86.0865 34.1249C83.5506 34.7892 80.9711 35.2236 78.3828 35.5983C77.1586 35.7772 75.8732 35.6239 74.649 35.6239Z" fill="#B5C9D6"/>
<path fill-rule="evenodd" clip-rule="evenodd" d="M46.0815 57.8198C44.3064 58.1434 42.6362 57.9901 41.0535 57.6835C39.1823 57.3172 37.2061 57.2747 35.4834 56.193C34.8626 55.8012 34.0494 55.3157 33.1487 55.5883C32.9564 55.6479 32.7815 55.5542 32.6328 55.4435C31.1113 54.3022 29.5199 53.2546 27.8235 52.3688C26.302 51.5682 25.1215 50.3332 23.9935 49.0897C22.6994 47.6758 21.3702 46.296 20.3297 44.6778C18.4671 41.782 17.1642 38.6647 16.4909 35.3174C16.08 33.2989 15.8264 31.2633 15.8526 29.1936C15.8788 26.9536 16.1237 24.7476 16.6134 22.5502C17.173 20.0462 18.0824 17.6528 19.3153 15.4299C20.4871 13.3261 21.8337 11.282 23.5388 9.51044C24.8417 8.15621 26.1796 6.87864 27.7798 5.80548C28.7766 5.13262 29.6685 4.38311 30.8577 4.05094C31.0763 3.99132 31.3387 3.8806 31.4611 3.71877C32.047 2.88409 32.9913 2.71375 33.8745 2.46675C34.3467 2.33048 34.7227 2.15162 35.0812 1.845C35.6146 1.38507 36.2792 1.11252 37.0049 1.17214C37.9231 1.2488 38.6926 0.729251 39.5583 0.558908C42.0329 0.0904643 44.5075 -0.0969131 47.0171 0.0478786C47.9003 0.0989815 48.7747 0.0734301 49.6579 0.0989815C51.2756 0.158602 52.7708 0.592977 54.2748 1.10401C54.3623 1.12956 54.4497 1.19769 54.5372 1.20621C57.5102 1.39359 59.7138 3.40364 62.372 4.33201C63.2901 5.43924 64.663 5.99286 65.7298 6.93826C66.9715 8.02846 67.9858 9.32306 69.2887 10.3366C69.5685 10.5581 69.7784 10.805 69.8658 11.0776C70.1719 12.023 70.8802 12.6959 71.431 13.4794C73.005 15.7194 74.1155 18.1894 74.8063 20.7957C75.5933 23.7511 76.1092 26.7747 75.8731 29.8579C75.6807 32.3449 75.3485 34.8064 74.5003 37.2082C73.7395 39.3546 72.9176 41.4498 71.7021 43.3747C71.3961 43.8687 71.2387 44.5074 70.5916 44.7459C70.3468 44.8396 70.2855 45.0525 70.1981 45.274C69.8746 46.0831 69.3324 46.7389 68.7728 47.4288C66.5343 50.2054 63.5612 52.0962 60.6406 54.0722C60.5619 54.1233 60.4832 54.1829 60.3958 54.217C57.5714 55.2646 54.9306 56.8318 51.8877 57.2321C49.9202 57.4706 48.0139 58.3649 46.0815 57.8198ZM73.1711 29.3299C73.3198 26.0167 72.7951 23.0101 71.7808 20.0973C71.3174 18.7601 70.7228 17.4569 70.0494 16.2134C68.9564 14.1949 67.7322 12.253 65.9921 10.6688C64.663 9.45934 63.6662 7.94328 61.9873 7.04898C61.4364 6.7594 60.8942 6.2143 60.3084 5.93323C59.5826 5.57551 58.883 5.26038 58.3671 4.63863C58.2535 4.50235 58.1223 4.39163 57.9124 4.35756C56.5308 4.11056 55.228 3.64212 53.9338 3.13109C53.1118 2.80744 52.2462 2.48379 51.3805 2.40713C49.3606 2.22827 47.3494 1.76834 45.3032 1.9472C44.7961 1.98979 44.2539 1.6491 43.7905 1.91314C43.0909 2.31344 42.3389 2.24531 41.6044 2.37306C40.73 2.51785 39.7769 2.56044 39.0249 2.95223C37.2498 3.87208 35.0113 3.66767 33.4898 5.16669C32.2131 5.09855 31.7322 6.45278 30.6129 6.67423C28.8466 8.40321 26.7567 9.75744 25.104 11.6568C23.6 13.3772 22.3671 15.2425 21.3527 17.21C19.8925 20.0291 18.9393 23.0442 18.5983 26.2041C18.231 29.645 18.5109 33.0433 19.4815 36.3736C20.181 38.7839 21.2653 41.0324 22.5507 43.2128C24.046 45.7595 26.2233 47.7014 28.3044 49.7199C29.3625 50.7505 30.7878 51.3552 31.9945 52.1984C33.1487 52.9991 34.4516 53.4419 35.6758 53.9445C37.1711 54.5577 38.8237 55.0176 40.4327 55.3157C42.8986 55.7671 45.4169 55.9375 47.9615 55.699C50.7334 55.435 53.3829 54.711 56.0237 53.9359C56.3297 53.8423 56.6183 53.6634 56.8981 53.5016C57.9562 52.8968 59.0404 52.3177 60.081 51.7044C61.2352 51.0231 62.5906 50.5291 63.3688 49.3282C63.4913 49.1408 63.6399 48.9364 63.8323 48.8256C65.2139 48.008 66.0708 46.6708 67.1813 45.5976C67.7934 45.01 68.423 44.3797 68.7903 43.5791C68.9652 43.2128 68.9914 42.7188 69.2625 42.4633C70.5566 41.2113 70.8539 39.4823 71.5097 37.9663C72.7252 35.1471 73.2061 32.1576 73.1711 29.3299Z" fill="#B5C9D6"/>
</svg>
