<svg xmlns="http://www.w3.org/2000/svg" xmlns:xlink="http://www.w3.org/1999/xlink" version="1.1" id="Layer_1" x="0px" y="0px" viewBox="0 0 148.8 68.6" style="enable-background:new 0 0 148.8 68.6;" xml:space="preserve">
<style type="text/css">
	.st0{fill:#FFFFFF;}
</style>
<polygon class="st0" points="148.8,0.1 126.1,0.1 114.5,11.6 103,0.1 80.3,0.1 80.3,22.8 91.9,34.3 80.3,45.9 80.3,68.6 103,68.6   114.5,57 126.1,68.6 148.8,68.6 148.8,45.9 137.2,34.3 148.8,22.8 "/>
<path class="st0" d="M42.7,13.1c-0.8,0-1.2,0.5-1.2,1.8v4c0,1.2,0.4,1.8,1.2,1.8s1.2-0.5,1.2-1.8v-4C43.9,13.6,43.5,13.1,42.7,13.1z   M33.8,13.1c-0.8,0-1.2,0.5-1.2,1.8v0.6H35v-0.6C35,13.6,34.6,13.1,33.8,13.1z M23.7,14.8v4c0,1.4,0.5,1.7,1.1,1.7  c0.4,0,0.8-0.2,1.3-0.6v-6.4c-0.4-0.3-0.8-0.6-1.3-0.6C24.1,13.1,23.7,13.4,23.7,14.8z M0,0v68.6h68.6V0H0z M7.2,7.7h2.5v5.9h2.6  V7.7h2.5v14.5h-2.5v-6.4H9.7v6.4H7.2V7.7z M19.3,22.2h-2.2V11.4h2.2V22.2z M19.3,9.8h-2.2v-2h2.2V9.8z M28.3,22.2h-2.1v-1.1l0,0  c-0.7,0.9-1.3,1.3-2.4,1.3c-1.4,0-2.3-1-2.3-3v-5.2c0-2,0.9-3,2.3-3c1,0,1.4,0.4,2.3,1.1V7.7h2.2V22.2z M37.3,17.2h-4.7v1.6  c0,1.2,0.4,1.8,1.2,1.8s1.2-0.5,1.2-1.8v-0.2h2.2c0,2.3-1,3.8-3.5,3.8c-2.6,0-3.5-1.6-3.5-4v-3.2c0-2.4,0.9-4,3.5-4s3.5,1.6,3.5,4  L37.3,17.2L37.3,17.2z M46.2,18.4c0,2.4-0.9,4-3.5,4s-3.5-1.6-3.5-4v-3.2c0-2.4,0.9-4,3.5-4s3.5,1.6,3.5,4V18.4z M55,22.2h-2.1v-1.1  c-0.9,0.8-1.4,1.3-2.7,1.3c-1.2,0-1.9-0.9-1.9-2.3v-8.7h2.2v8.4c0,0.5,0.3,0.8,0.8,0.8s0.9-0.3,1.4-0.7v-8.5H55V22.2z M61.2,13.3  h-1.5v6.2c0,0.6,0.2,0.9,0.8,0.9h0.7v1.9c-0.3,0.1-0.6,0.1-1.1,0.1c-1.7,0-2.6-0.8-2.6-2.4v-6.7h-1.2v-1.8h1.2v-3h2.2v2.9h1.5  L61.2,13.3z"/>
</svg>
