<svg xmlns="http://www.w3.org/2000/svg" xmlns:xlink="http://www.w3.org/1999/xlink" version="1.0" id="Layer_1" x="0px" y="0px" viewBox="0 0 621.5 286.4" enable-background="new 0 0 621.5 286.4" xml:space="preserve">
<rect x="19.7" y="20.3" fill="#FFFFFF" width="240" height="86"/>
<polygon fill="#2329A2" points="621.5,0.3 526.8,0.3 478.5,48.6 430.1,0.3 335.4,0.3 335.4,95.1 383.7,143.4 335.4,191.7   335.4,286.4 430.1,286.4 478.5,238.1 526.8,286.4 621.5,286.4 621.5,191.7 573.2,143.4 621.5,95.1 "/>
<path fill="#2329A2" d="M178.3,54.6c-3.3,0-5.2,2.2-5.2,7.4v16.6c0,5.2,1.8,7.4,5.2,7.4c3.4,0,5.2-2.2,5.2-7.4V62  C183.5,56.8,181.7,54.6,178.3,54.6z M141.2,54.6c-3.3,0-5.2,2.2-5.2,7.4v2.3h10.4V62C146.4,56.8,144.5,54.6,141.2,54.6z M98.8,61.9  v16.7c0,6,2,7.3,4.5,7.3c1.9,0,3.5-1,5.4-2.3V56.9c-1.8-1.3-3.5-2.3-5.4-2.3C100.8,54.6,98.8,55.9,98.8,61.9z M0,0v286.4h286.4V0H0z   M30,32.3h10.4v24.6h11V32.3h10.4v60.4H51.4V66h-11v26.8H30V32.3z M80.8,92.7h-9.4v-45h9.4V92.7z M80.8,40.9h-9.4v-8.5h9.4V40.9z   M118.1,92.7h-8.9v-4.7H109c-3.1,3.9-5.4,5.5-10.1,5.5c-5.8,0-9.5-4.4-9.5-12.6V59.4c0-8.2,3.7-12.6,9.5-12.6c4.1,0,6,1.7,9.7,4.7  V32.3h9.4V92.7z M155.7,72H136v6.5c0,5.2,1.9,7.4,5.2,7.4c3.3,0,5.2-2.2,5.2-7.4v-1h9.4c-0.2,9.6-4.1,16.1-14.6,16.1  c-10.7,0-14.6-6.9-14.6-16.7V63.6c0-9.9,3.8-16.7,14.6-16.7c10.7,0,14.6,6.9,14.6,16.7V72z M192.9,76.9c0,9.9-3.8,16.7-14.6,16.7  c-10.7,0-14.6-6.9-14.6-16.7V63.6c0-9.9,3.8-16.7,14.6-16.7c10.7,0,14.6,6.9,14.6,16.7V76.9z M229.6,92.7h-8.9v-4.5  c-3.9,3.4-5.9,5.4-11.4,5.4c-4.9,0-7.9-3.6-7.9-9.5V47.7h9.4v34.9c0,2.3,1.3,3.3,3.3,3.3c2,0,3.9-1.3,6-2.8V47.7h9.4V92.7z   M255.8,55.4h-6.3v26c0,2.3,1,3.7,3.2,3.7h3.1v8c-1.3,0.3-2.3,0.5-4.7,0.5c-7,0-11-3.3-11-10.1v-28h-5.2v-7.7h5.2V35.6h9.4v12.1h6.3  V55.4z"/>
</svg>
