<svg width="80" height="20" viewBox="0 0 80 20" fill="none" xmlns="http://www.w3.org/2000/svg">
<path fill-rule="evenodd" clip-rule="evenodd" d="M72.9399 14.0453L75.4894 0.0187175L79.9999 0.0773405L77.4354 14.2358C77.1074 15.8191 76.2396 17.2488 74.9723 18.294C73.705 19.3391 72.1121 19.9387 70.4508 19.9959C69.5376 20.0324 68.6318 19.8231 67.8333 19.3912C67.0347 18.9593 66.3744 18.3215 65.9251 17.5483L59.3026 5.046C59.2021 4.85135 59.0465 4.68863 58.8541 4.57699C58.6617 4.46534 58.4404 4.4094 58.2164 4.41576C57.7841 4.42708 57.3677 4.57694 57.0321 4.84202C56.6965 5.1071 56.4605 5.47254 56.3609 5.88144L53.8114 19.9373H49.2858L51.8654 5.76418C52.1934 4.18087 53.0612 2.7512 54.3285 1.70605C55.5958 0.660905 57.1887 0.061294 58.85 0.00405758C59.7632 -0.0323586 60.669 0.176919 61.4675 0.608816C62.2661 1.04071 62.9264 1.67846 63.3757 2.45175L69.9982 14.8807C70.0972 15.0765 70.2525 15.2403 70.4452 15.3521C70.638 15.464 70.86 15.5191 71.0844 15.511C71.5167 15.4996 71.9331 15.3498 72.2687 15.0847C72.6043 14.8196 72.8402 14.4542 72.9399 14.0453ZM32.1851 4.86684C31.8535 5.13092 31.6185 5.49192 31.515 5.89617L30.0064 14.1773C29.9674 14.3527 29.9688 14.5344 30.0105 14.7092C30.0522 14.884 30.1333 15.0478 30.2478 15.1886C30.3638 15.3177 30.5079 15.4202 30.6697 15.4886C30.8314 15.557 31.0068 15.5897 31.1831 15.5843H48.0789L47.2945 19.9814H30.5193C29.7817 19.9987 29.0493 19.858 28.374 19.5692C27.6987 19.2804 27.0972 18.8507 26.6122 18.3105C26.0783 17.6962 25.7148 16.9596 25.5562 16.1706C24.9471 17.2856 24.0463 18.2249 22.9446 18.8939C21.8428 19.563 20.5791 19.938 19.2806 19.9814H5.10018C4.35518 19.9995 3.61538 19.8563 2.93438 19.5622C2.25338 19.2682 1.64825 18.8306 1.16285 18.2812C0.677563 17.7025 0.331007 17.026 0.148352 16.3009C-0.0343041 15.5759 -0.0484763 14.8204 0.106863 14.0893L1.61542 5.80823C1.94282 4.22728 2.80835 2.7994 4.07261 1.75452C5.33688 0.709636 6.92631 0.108565 8.58494 0.0480994H26.0088L25.2243 4.44514H7.92118C7.48884 4.45646 7.07247 4.60633 6.73688 4.87141C6.40129 5.13649 6.16531 5.50192 6.06565 5.91082L4.5571 14.1919C4.51805 14.3674 4.51944 14.549 4.56117 14.7239C4.6029 14.8987 4.68394 15.0624 4.79847 15.2032C4.91681 15.3335 5.06347 15.4366 5.22784 15.505C5.3922 15.5735 5.57016 15.6055 5.74886 15.599H19.9293C20.3616 15.5877 20.778 15.4378 21.1136 15.1727C21.4492 14.9076 21.6851 14.5422 21.7848 14.1333L22.1469 12.1693H14.3325L15.117 7.77224H26.6273L27.0044 5.69097C27.3347 4.12303 28.2021 2.71009 29.4651 1.68264C30.728 0.655181 32.3121 0.0738409 33.9588 0.033445H50.8999L50.1155 4.43049H33.3554C32.9271 4.44973 32.5167 4.60277 32.1851 4.86684Z" fill="white"/>
</svg>
