<svg width="227" height="140" viewBox="0 0 227 140" fill="none" xmlns="http://www.w3.org/2000/svg">
<g filter="url(#filter0_d)">
<path d="M113.138 60.0389H89.7871L83.3916 79.9871H89.6315L94.3276 65.1555H98.0508C98.2075 65.1583 98.3616 65.1966 98.5015 65.2674C98.6413 65.3383 98.7633 65.4399 98.8581 65.5645C98.953 65.6892 99.0184 65.8337 99.0493 65.9872C99.0802 66.1407 99.0759 66.2992 99.0367 66.4508L94.7168 79.9871H100.957L105.718 65.1555H109.609C109.766 65.1583 109.92 65.1966 110.06 65.2674C110.2 65.3383 110.322 65.4399 110.417 65.5645C110.512 65.6892 110.577 65.8337 110.608 65.9872C110.639 66.1407 110.635 66.2992 110.595 66.4508L106.237 79.9871H109.467C110.335 79.9793 111.178 79.6985 111.877 79.1845C112.575 78.6706 113.094 77.9497 113.359 77.1244L117.082 65.4663C117.284 64.8382 117.335 64.1711 117.23 63.5195C117.125 62.8679 116.867 62.2504 116.478 61.7174C116.088 61.1843 115.578 60.7508 114.988 60.4524C114.399 60.1539 113.747 59.9989 113.086 60" fill="white"/>
<path d="M138.162 69.5855C139.266 69.0647 140.187 68.2238 140.805 67.1723C141.423 66.1209 141.709 64.9079 141.626 63.6917C141.626 60.2849 137.124 60.0388 137.124 60.0388H121.051L114.656 79.9871H131.922C132.779 79.9223 139.706 79.1321 139.706 72.215C139.706 71.6741 139.563 71.1428 139.292 70.6744C139.021 70.206 138.631 69.8171 138.162 69.5466V69.5855ZM133.842 64.5466C134.141 64.5466 135.14 64.5466 135.14 65.1166C135.12 65.5307 135.018 65.9368 134.84 66.3113C134.662 66.6858 134.411 67.0213 134.102 67.2984C133.793 67.5755 133.432 67.7887 133.04 67.9255C132.648 68.0624 132.233 68.1203 131.819 68.0958H124.697L125.838 64.5466H133.842ZM129.951 75.4145H122.349L123.646 71.5285H131.884C131.884 71.5285 133.427 71.5285 133.427 72.4611C133.32 73.2863 132.913 74.0436 132.285 74.5901C131.656 75.1366 130.849 75.4344 130.015 75.4275" fill="white"/>
<path d="M162.369 60.0518H146.166L141.34 75.1036L139.771 79.9871H146.011L148.06 73.5881L150.746 65.1943H158.75C158.907 65.1971 159.061 65.2354 159.201 65.3063C159.34 65.3771 159.462 65.4787 159.557 65.6033C159.652 65.728 159.717 65.8725 159.748 66.026C159.779 66.1795 159.775 66.338 159.736 66.4896L155.442 79.9871H158.672C159.54 79.9793 160.383 79.6985 161.082 79.1845C161.781 78.6705 162.299 77.9496 162.564 77.1244L166.3 65.4663C166.5 64.8424 166.55 64.1801 166.445 63.5333C166.341 62.8866 166.084 62.2736 165.697 61.7445C165.31 61.2155 164.804 60.7852 164.219 60.4887C163.633 60.1923 162.986 60.0382 162.33 60.0388" fill="white"/>
<path d="M67.8631 67.759C68.1821 67.0641 68.6784 66.465 69.3022 66.0217C69.926 65.5784 70.6555 65.3065 71.4176 65.2331H85.8432L87.5297 60.0518H73.5581C67.2793 60.0518 62.9723 63.5103 60.741 70.3497C59.5865 73.9119 59.7811 76.5544 61.3248 78.1995C62.8686 79.8446 64.8793 80 66.9679 80H81.0433L82.4314 75.7383L82.7557 74.7668H67.7204C66.008 74.7668 66.0988 73.1088 66.5658 71.5414H83.8973L85 68.1347H67.6555L67.8371 67.7979L67.8631 67.759Z" fill="white"/>
</g>
<defs>
<filter id="filter0_d" x="0" y="0" width="226.499" height="140" filterUnits="userSpaceOnUse" color-interpolation-filters="sRGB">
<feFlood flood-opacity="0" result="BackgroundImageFix"/>
<feColorMatrix in="SourceAlpha" type="matrix" values="0 0 0 0 0 0 0 0 0 0 0 0 0 0 0 0 0 0 127 0"/>
<feOffset/>
<feGaussianBlur stdDeviation="30"/>
<feColorMatrix type="matrix" values="0 0 0 0 0 0 0 0 0 0 0 0 0 0 0 0 0 0 0.5 0"/>
<feBlend mode="normal" in2="BackgroundImageFix" result="effect1_dropShadow"/>
<feBlend mode="normal" in="SourceGraphic" in2="effect1_dropShadow" result="shape"/>
</filter>
</defs>
</svg>
