<svg width="549" height="141" viewBox="0 0 549 141" fill="none" xmlns="http://www.w3.org/2000/svg">
<g clip-path="url(#clip0)">
<path d="M31.726 59.7489C23.3262 59.7489 19.1235 56.4468 19.1235 49.8373C19.1235 48.0601 19.4312 46.0581 20.041 43.8256L27.5344 15.9613C30.3801 5.34766 37.1208 0.0380859 47.7511 0.0380859H119.515L115.246 15.9613H47.4709C44.812 15.9613 43.1254 17.2887 42.4058 19.9435L37.0604 39.8489C36.9011 40.4084 36.8242 40.9076 36.8242 41.3628C36.8242 43.0084 37.8735 43.8311 39.972 43.8311H91.7994L93.3926 37.8578H65.4847L69.7917 21.9346H113.648L103.479 59.7489H31.726Z" fill="white"/>
<path d="M125.778 59.7492C117.378 59.7492 113.175 56.4582 113.175 49.876C113.175 48.0989 113.483 46.0968 114.093 43.8644L125.855 0L141.803 0.0383957L131.118 39.8438C130.958 40.4033 130.881 40.9024 130.881 41.3577C130.881 43.0032 131.931 43.8369 134.029 43.8644L193.834 43.826L189.57 59.7492H125.778Z" fill="white"/>
<path d="M283.699 0.0380859C292.099 0.0380859 296.296 3.34012 296.296 9.94966C296.296 11.7268 295.988 13.7289 295.379 15.9613L287.885 43.864C285.04 54.4503 278.304 59.7489 267.674 59.7489H211.858C203.458 59.7489 199.261 56.4468 199.261 49.8373C199.261 48.0601 199.569 46.0581 200.179 43.8256L207.672 15.9613C210.518 5.34766 217.253 0.0380859 227.883 0.0380859H283.699ZM217.193 39.8435C217.033 40.4029 216.956 40.9076 216.956 41.3573C216.956 43.0029 218.006 43.8256 220.104 43.8256H267.949C270.608 43.8256 272.294 42.4982 273.014 39.8435L278.354 19.938C278.513 19.3785 278.595 18.8794 278.595 18.4241C278.595 16.7786 277.546 15.9558 275.448 15.9558H227.603C224.944 15.9558 223.258 17.2832 222.538 19.938L217.193 39.8435Z" fill="white"/>
<path d="M305.987 0.0380859H377.751C386.151 0.0380859 390.348 3.34011 390.348 9.94966C390.348 11.7268 390.04 13.7289 389.431 15.9613L387.799 21.973C386.975 25.0776 384.942 27.7049 381.696 29.8551C383.157 31.4458 383.888 33.2504 383.888 35.2689C383.888 36.0916 383.767 36.9528 383.53 37.8578L381.937 43.8695C379.092 54.4557 372.356 59.7544 361.726 59.7544H289.957L305.987 0.0380859ZM311.766 37.8578L310.173 43.8311H362.001C364.66 43.8311 366.176 43.1674 366.544 41.84L367.06 39.8489C367.088 39.6899 367.099 39.5472 367.099 39.4101C367.099 38.3734 365.929 37.8578 363.588 37.8578H311.766ZM367.901 21.9346C370.56 21.9346 372.06 21.2709 372.406 19.9435L372.922 17.9524C372.977 17.7933 373.005 17.6343 373.005 17.4752C373.005 16.466 371.834 15.9613 369.494 15.9613H317.667L316.074 21.9291H367.901V21.9346Z" fill="white"/>
<path d="M407.379 47.8078L397.408 59.7489H377.471L415.663 13.9702C423.475 4.68396 430.705 0.0380859 437.352 0.0380859C443.994 0.0380859 448.729 4.68396 451.542 13.9702L465.178 59.7489H445.246L441.659 47.8078H407.379ZM436.924 31.8846L432.655 17.5959L420.734 31.8846H436.924Z" fill="white"/>
<path d="M480.944 59.7492C472.544 59.7492 468.341 56.4582 468.341 49.876C468.341 48.0989 468.649 46.0968 469.259 43.8644L481.026 0L496.974 0.0383957L486.289 39.8438C486.13 40.4033 486.053 40.9024 486.053 41.3577C486.053 43.0032 487.102 43.8369 489.201 43.8644L549.005 43.826L544.742 59.7492H480.944Z" fill="white"/>
<path d="M13.9869 67.6816H76.5325C83.8281 67.6816 87.4814 70.5613 87.4814 76.3097C87.4814 77.84 87.2177 79.5898 86.7013 81.5589L85.2674 86.8082C84.5423 89.4959 82.7788 91.7832 79.966 93.6591C81.2405 95.0468 81.8778 96.621 81.8778 98.3872C81.8778 99.1112 81.7789 99.8627 81.5757 100.642L80.1418 105.891C77.6806 115.117 71.8134 119.724 62.551 119.724H0L13.9869 67.6816ZM19.0246 100.642L17.6347 105.847H62.8092C65.1276 105.847 66.4296 105.266 66.7207 104.114L67.1987 102.38C67.2262 102.238 67.2426 102.106 67.2426 101.991C67.2426 101.097 66.2318 100.647 64.2046 100.647H19.0246V100.642ZM67.9349 86.7643C70.2532 86.7643 71.5552 86.1884 71.8409 85.031L72.3188 83.2977C72.3463 83.1551 72.3628 83.0235 72.3628 82.9083C72.3628 82.0142 71.3464 81.5644 69.3193 81.5644H24.1502L22.7603 86.7698H67.9349V86.7643Z" fill="#E62039"/>
<path d="M111.28 67.6816L97.2988 119.68L83.3943 119.724L97.3812 67.6816H111.28Z" fill="#E62039"/>
<path d="M143.555 86.7643L144.55 86.0238L170.354 67.6816H187.725L151.197 93.7029L173.743 119.724H156.367L140.424 101.377L139.82 100.642H123.267L118.147 119.68L104.243 119.724L118.23 67.6816H132.129L127.003 86.7643H143.555Z" fill="#E62039"/>
<path d="M199.893 86.7643H255.489L251.753 100.642H196.157L195.679 102.375C195.564 102.869 195.504 103.302 195.504 103.675C195.504 105.117 196.416 105.841 198.239 105.841H250.363L246.628 119.719H191.032C183.703 119.719 180.044 116.845 180.044 111.091C180.044 109.56 180.303 107.827 180.825 105.885L187.384 81.5589C189.873 72.3056 195.751 67.6816 205.019 67.6816H260.615L256.879 81.5589H204.755C202.437 81.5589 200.959 82.7163 200.322 85.031L199.893 86.7643Z" fill="#E62039"/>
<path d="M273.882 77.2851L302.18 77.2961L300.362 84.2073L272.064 84.1963L269.564 93.702L262.488 93.6965L267.493 74.6852C268.707 70.0777 271.674 67.7739 276.387 67.7739L304.685 67.7849L302.867 74.6961L276.332 74.6906C275.151 74.6906 274.41 75.2666 274.107 76.4184L273.882 77.2851Z" fill="#E62039"/>
<path d="M313.431 77.2577L341.597 77.2687L339.784 84.147L311.618 84.136L311.393 84.9972C311.09 86.1436 311.524 86.7195 312.7 86.7195L339.108 86.7305L337.295 93.6088L309.129 93.5979C304.432 93.5979 302.691 91.3051 303.894 86.7305L307.069 74.6742C308.278 70.0887 311.228 67.7959 315.919 67.7959L344.086 67.8069L342.273 74.6852L315.864 74.6742C314.689 74.6742 313.953 75.2447 313.651 76.3911L313.431 77.2577Z" fill="#E62039"/>
<path d="M377.378 77.2848C382.069 77.2848 383.816 79.5831 382.608 84.1686L381.921 86.7631C380.718 91.3376 377.768 93.6249 373.076 93.6249L341.388 93.614L343.201 86.7356L373.125 86.7466C374.301 86.7466 374.96 86.4614 375.114 85.8854L375.339 85.0243C375.488 84.4483 374.977 84.1631 373.801 84.1631L350.92 84.1357C346.223 84.1357 344.481 81.8429 345.684 77.2683L346.365 74.6903C347.574 70.1048 350.524 67.812 355.216 67.812L386.898 67.8449L385.085 74.7232L355.161 74.6903C353.985 74.6903 353.326 74.9756 353.172 75.5515L352.947 76.4127C352.799 76.9776 353.31 77.2574 354.485 77.2574L377.378 77.2848Z" fill="#E62039"/>
<path d="M402.676 74.7174L388.59 74.7119L390.403 67.8281L425.612 67.8446L423.799 74.7284L409.719 74.7229L404.741 93.6246L397.693 93.6355L402.676 74.7174Z" fill="#E62039"/>
<path d="M436.671 67.8516L429.886 93.637L422.837 93.648L429.633 67.8516H436.671Z" fill="#E62039"/>
<path d="M452.602 93.6634C449.669 93.6634 447.554 91.6558 446.263 87.6407L440.027 67.856L448.828 67.8614L454.597 86.083L469.952 67.8724L478.753 67.8779L462.101 87.6517C458.701 91.6558 455.536 93.6634 452.602 93.6634Z" fill="#E62039"/>
<path d="M475.104 88.5125L470.753 93.6685L461.953 93.663L478.604 73.8892C482.01 69.8741 485.174 67.8721 488.108 67.8721C491.041 67.8721 493.157 69.8796 494.442 73.8947L500.677 93.6795L491.877 93.674L490.245 88.5125H475.104ZM488.058 81.6342L486.108 75.458L480.911 81.6342H488.058Z" fill="#E62039"/>
<path d="M503.068 86.8242L508.056 67.8677L515.093 67.8896L510.566 85.0909C510.264 86.2373 510.698 86.8187 511.868 86.8297L538.282 86.8242L536.469 93.7025L508.303 93.6915C503.611 93.6861 501.864 91.3988 503.068 86.8242Z" fill="#E62039"/>
<path d="M531.717 112.62H257.192L255.264 119.674H529.788L531.717 112.62Z" fill="white"/>
<path d="M535.123 100.421H260.598L258.67 107.475H533.189L535.123 100.421Z" fill="white"/>
</g>
<defs>
<clipPath id="clip0">
<path d="M0 0H549V141H0V0Z" fill="white"/>
</clipPath>
</defs>
</svg>
