<svg width="183" height="47" viewBox="0 0 183 47" fill="none" xmlns="http://www.w3.org/2000/svg">
<g clip-path="url(#clip0)">
<path d="M10.5753 19.9163C7.7754 19.9163 6.37451 18.8156 6.37451 16.6124C6.37451 16.02 6.47706 15.3527 6.68033 14.6085L9.17812 5.32044C10.1267 1.78255 12.3736 0.0126953 15.917 0.0126953H39.8383L38.4155 5.32044H15.8236C14.9373 5.32044 14.3751 5.76291 14.1353 6.64784L12.3535 13.283C12.3004 13.4695 12.2747 13.6359 12.2747 13.7876C12.2747 14.3361 12.6245 14.6104 13.324 14.6104H30.5998L31.1309 12.6193H21.8282L23.2639 7.31153H37.8826L34.493 19.9163H10.5753Z" fill="white"/>
<path d="M41.9259 19.9164C39.126 19.9164 37.7251 18.8194 37.7251 16.6253C37.7251 16.033 37.8276 15.3656 38.0309 14.6215L41.9516 0L47.2676 0.0127986L43.7059 13.2813C43.6528 13.4678 43.6271 13.6341 43.6271 13.7859C43.6271 14.3344 43.9769 14.6123 44.6764 14.6215L64.6112 14.6087L63.1901 19.9164H41.9259Z" fill="white"/>
<path d="M94.5663 0.0126953C97.3663 0.0126953 98.7653 1.11337 98.7653 3.31655C98.7653 3.90894 98.6628 4.5763 98.4595 5.32044L95.9617 14.6213C95.0132 18.1501 92.7681 19.9163 89.2247 19.9163H70.6194C67.8195 19.9163 66.4204 18.8156 66.4204 16.6124C66.4204 16.02 66.523 15.3527 66.7262 14.6085L69.224 5.32044C70.1726 1.78255 72.4177 0.0126953 75.9611 0.0126953H94.5663ZM72.3975 13.2812C72.3444 13.4676 72.3188 13.6359 72.3188 13.7858C72.3188 14.3343 72.6686 14.6085 73.3681 14.6085H89.3162C90.2025 14.6085 90.7647 14.1661 91.0046 13.2812L92.7846 6.64601C92.8377 6.45952 92.8651 6.29313 92.8651 6.14138C92.8651 5.59287 92.5154 5.31861 91.8158 5.31861H75.8677C74.9814 5.31861 74.4192 5.76108 74.1793 6.64601L72.3975 13.2812Z" fill="white"/>
<path d="M101.996 0.0126953H125.917C128.717 0.0126953 130.116 1.11337 130.116 3.31655C130.116 3.90894 130.014 4.5763 129.81 5.32044L129.266 7.32433C128.992 8.35919 128.314 9.23497 127.232 9.95169C127.719 10.4819 127.963 11.0835 127.963 11.7563C127.963 12.0305 127.922 12.3176 127.844 12.6193L127.312 14.6232C126.364 18.1519 124.119 19.9181 120.575 19.9181H96.6522L101.996 0.0126953ZM103.922 12.6193L103.391 14.6104H120.667C121.553 14.6104 122.059 14.3891 122.181 13.9467L122.354 13.283C122.363 13.23 122.366 13.1824 122.366 13.1367C122.366 12.7911 121.976 12.6193 121.196 12.6193H103.922ZM122.634 7.31153C123.52 7.31153 124.02 7.0903 124.135 6.64784L124.307 5.98414C124.326 5.93112 124.335 5.87809 124.335 5.82507C124.335 5.48865 123.945 5.32044 123.165 5.32044H105.889L105.358 7.3097H122.634V7.31153Z" fill="white"/>
<path d="M135.793 15.9359L132.469 19.9163H125.824L138.554 4.65675C141.158 1.56132 143.568 0.0126953 145.784 0.0126953C147.998 0.0126953 149.576 1.56132 150.514 4.65675L155.059 19.9163H148.415L147.22 15.9359H135.793ZM145.641 10.6282L144.218 5.8653L140.245 10.6282H145.641Z" fill="white"/>
<path d="M160.315 19.9164C157.515 19.9164 156.114 18.8194 156.114 16.6253C156.114 16.033 156.216 15.3656 156.42 14.6215L160.342 0L165.658 0.0127986L162.096 13.2813C162.043 13.4678 162.018 13.6341 162.018 13.7859C162.018 14.3344 162.367 14.6123 163.067 14.6215L183.002 14.6087L181.581 19.9164H160.315Z" fill="white"/>
<path d="M4.6623 22.5605H25.5108C27.9427 22.5605 29.1605 23.5204 29.1605 25.4366C29.1605 25.9467 29.0726 26.5299 28.9004 27.1863L28.4225 28.9361C28.1807 29.832 27.5929 30.5944 26.6553 31.2197C27.0802 31.6823 27.2926 32.207 27.2926 32.7957C27.2926 33.0371 27.2596 33.2876 27.1919 33.5472L26.7139 35.2969C25.8935 38.3723 23.9378 39.9081 20.8503 39.9081H0L4.6623 22.5605ZM6.34154 33.5472L5.87824 35.2823H20.9364C21.7092 35.2823 22.1432 35.0885 22.2402 34.7046L22.3996 34.1268C22.4087 34.0792 22.4142 34.0354 22.4142 33.997C22.4142 33.699 22.0773 33.549 21.4015 33.549H6.34154V33.5472ZM22.645 28.9214C23.4177 28.9214 23.8517 28.7295 23.947 28.3437L24.1063 27.7659C24.1154 27.7184 24.1209 27.6745 24.1209 27.6361C24.1209 27.3381 23.7821 27.1881 23.1064 27.1881H8.05007L7.58677 28.9233H22.645V28.9214Z" fill="#E62039"/>
<path d="M37.0934 22.5605L32.4329 39.8935L27.7981 39.9081L32.4604 22.5605H37.0934Z" fill="#E62039"/>
<path d="M47.8518 28.9214L48.1833 28.6746L56.7845 22.5605H62.5749L50.3991 31.2343L57.9144 39.9081H52.1222L46.808 33.7922L46.6066 33.5472H41.0891L39.3824 39.8935L34.7476 39.9081L39.4099 22.5605H44.0429L42.3343 28.9214H47.8518Z" fill="#E62039"/>
<path d="M66.631 28.9214H85.163L83.9177 33.5472H65.3857L65.2264 34.125C65.188 34.2895 65.1678 34.434 65.1678 34.5583C65.1678 35.0391 65.4718 35.2805 66.0798 35.2805H83.4544L82.2092 39.9062H63.6772C61.2344 39.9062 60.0148 38.9482 60.0148 37.0302C60.0148 36.5201 60.1008 35.9424 60.2748 35.2951L62.4613 27.1863C63.2908 24.1019 65.2502 22.5605 68.3395 22.5605H86.8715L85.6263 27.1863H68.2516C67.4788 27.1863 66.9862 27.5721 66.7738 28.3437L66.631 28.9214Z" fill="#E62039"/>
<path d="M91.2941 25.7617L100.727 25.7654L100.121 28.0691L90.6879 28.0654L89.8547 31.234L87.4961 31.2322L89.1643 24.8951C89.569 23.3592 90.5579 22.5913 92.1291 22.5913L101.562 22.595L100.956 24.8987L92.1108 24.8969C91.7171 24.8969 91.4699 25.0889 91.3691 25.4728L91.2941 25.7617Z" fill="#E62039"/>
<path d="M104.477 25.7526L113.866 25.7562L113.261 28.049L103.873 28.0453L103.798 28.3324C103.697 28.7145 103.841 28.9065 104.233 28.9065L113.036 28.9102L112.432 31.2029L103.043 31.1993C101.477 31.1993 100.897 30.435 101.298 28.9102L102.356 24.8914C102.759 23.3629 103.743 22.5986 105.306 22.5986L114.695 22.6023L114.091 24.8951L105.288 24.8914C104.896 24.8914 104.651 25.0816 104.55 25.4637L104.477 25.7526Z" fill="#E62039"/>
<path d="M125.792 25.7616C127.356 25.7616 127.939 26.5277 127.536 28.0562L127.307 28.921C126.906 30.4459 125.922 31.2083 124.359 31.2083L113.796 31.2047L114.4 28.9119L124.375 28.9155C124.767 28.9155 124.987 28.8205 125.038 28.6285L125.113 28.3414C125.163 28.1494 124.992 28.0544 124.6 28.0544L116.973 28.0452C115.408 28.0452 114.827 27.281 115.228 25.7561L115.455 24.8968C115.858 23.3683 116.841 22.604 118.405 22.604L128.966 22.615L128.362 24.9077L118.387 24.8968C117.995 24.8968 117.775 24.9919 117.724 25.1838L117.649 25.4709C117.6 25.6592 117.77 25.7525 118.162 25.7525L125.792 25.7616Z" fill="#E62039"/>
<path d="M134.225 24.9058L129.53 24.904L130.134 22.6094L141.871 22.6149L141.266 24.9095L136.573 24.9076L134.914 31.2082L132.564 31.2118L134.225 24.9058Z" fill="#E62039"/>
<path d="M145.557 22.6172L143.295 31.2123L140.946 31.216L143.211 22.6172H145.557Z" fill="#E62039"/>
<path d="M150.867 31.2211C149.89 31.2211 149.185 30.5519 148.754 29.2136L146.676 22.6187L149.609 22.6205L151.532 28.6943L156.651 22.6241L159.584 22.626L154.034 29.2172C152.9 30.5519 151.845 31.2211 150.867 31.2211Z" fill="#E62039"/>
<path d="M158.368 29.5042L156.918 31.2228L153.984 31.221L159.535 24.6297C160.67 23.2914 161.725 22.624 162.703 22.624C163.681 22.624 164.386 23.2932 164.814 24.6316L166.892 31.2265L163.959 31.2247L163.415 29.5042H158.368ZM162.686 27.2114L162.036 25.1527L160.304 27.2114H162.686Z" fill="#E62039"/>
<path d="M167.689 28.9414L169.352 22.6226L171.698 22.6299L170.189 28.3636C170.088 28.7458 170.233 28.9396 170.623 28.9432L179.427 28.9414L178.823 31.2342L169.434 31.2305C167.871 31.2287 167.288 30.4663 167.689 28.9414Z" fill="#E62039"/>
<path d="M177.239 37.54H85.7307L85.0879 39.8913H176.596L177.239 37.54Z" fill="white"/>
<path d="M178.374 33.4736H86.8661L86.2234 35.8249H177.73L178.374 33.4736Z" fill="white"/>
</g>
<defs>
<clipPath id="clip0">
<path d="M0 0H183V47H0V0Z" fill="white"/>
</clipPath>
</defs>
</svg>
