<svg width="416" height="103" viewBox="0 0 416 103" fill="none" xmlns="http://www.w3.org/2000/svg">
<g clip-path="url(#clip0)">
<path d="M305.638 102.969H108.357C102.681 102.969 98.0547 98.3923 98.0547 92.7093C98.0547 87.057 102.651 82.4492 108.357 82.4492H305.638C311.314 82.4492 315.94 87.0263 315.94 92.7093C315.94 98.3615 311.314 102.969 305.638 102.969Z" fill="white"/>
<path d="M118.35 93.9689C118.35 91.9107 118.381 89.699 118.443 88.4088H118.381C117.857 90.6205 116.438 94.8904 115.235 98.5767H113.323C112.397 95.4434 110.948 90.6205 110.423 88.3781H110.362C110.454 89.7297 110.516 92.2179 110.516 94.2146V98.5767H108.48V86.9036H111.75C112.798 90.1598 114.032 94.2761 114.402 95.9349H114.433C114.711 94.5525 116.222 90.0983 117.333 86.9036H120.51V98.5767H118.381V93.9689H118.35Z" fill="black"/>
<path d="M125.506 86.8728V93.846C125.506 96.2727 126.802 96.9486 128.128 96.9486C129.67 96.9486 130.719 96.1499 130.719 93.846V86.8728H132.909V93.7538C132.909 97.6858 130.657 98.7302 128.097 98.7302C125.506 98.7302 123.286 97.6244 123.286 93.846V86.9035H125.506V86.8728Z" fill="black"/>
<path d="M136.919 95.1976C137.196 96.457 138.091 97.0407 139.571 97.0407C141.083 97.0407 141.731 96.3956 141.731 95.4433C141.731 94.4296 141.175 93.9074 139.047 93.4159C135.993 92.7094 135.161 91.6035 135.161 90.0061C135.161 88.0708 136.61 86.6885 139.325 86.6885C142.317 86.6885 143.55 88.3473 143.705 89.9754H141.484C141.33 89.146 140.836 88.3473 139.263 88.3473C138.091 88.3473 137.412 88.8388 137.412 89.7604C137.412 90.6819 137.968 91.0198 139.911 91.4806C143.304 92.2793 143.982 93.5695 143.982 95.1669C143.982 97.225 142.44 98.6688 139.417 98.6688C136.456 98.6688 134.976 97.1636 134.729 95.1361H136.919V95.1976Z" fill="black"/>
<path d="M148.177 86.8728V98.5459H145.987V86.8728H148.177Z" fill="black"/>
<path d="M160.792 95.044C160.299 97.1636 158.726 98.6995 155.857 98.6995C152.218 98.6995 150.46 96.0577 150.46 92.7401C150.46 89.5453 152.249 86.6885 155.981 86.6885C158.973 86.6885 160.484 88.4394 160.792 90.3747H158.603C158.294 89.361 157.585 88.4394 155.919 88.4394C153.667 88.4394 152.773 90.4669 152.773 92.6786C152.773 94.7675 153.575 96.9485 155.981 96.9485C157.677 96.9485 158.294 95.8734 158.603 95.044H160.792Z" fill="black"/>
<path d="M178.004 91.2349L174.919 95.5048C173.562 97.4094 172.575 98.6996 170.138 98.6996C167.671 98.6996 166.499 97.0715 166.499 95.5048C166.499 93.8767 167.547 92.863 169.707 91.7878C171.002 91.2349 172.082 90.5898 172.082 89.4839C172.082 88.7774 171.681 88.1323 170.848 88.1323C170.077 88.1323 169.583 88.6545 169.583 89.5146C169.583 90.2212 170.169 90.8048 170.909 91.5114L178.065 98.4845H175.32L169.09 92.4636C168.288 91.6957 167.64 90.8356 167.64 89.7297C167.64 88.0402 168.874 86.7192 170.848 86.7192C172.822 86.7192 173.963 88.0401 173.963 89.5146C173.963 90.9584 172.914 91.8493 170.786 92.8937C169.09 93.6617 168.658 94.4911 168.658 95.2898C168.658 96.1499 169.275 96.9486 170.354 96.9486C171.619 96.9486 172.205 96.3342 173.655 94.3068L175.814 91.2656H178.004V91.2349Z" fill="black"/>
<path d="M186.363 95.5662L185.314 98.5459H183.155L187.195 86.8728H189.941L194.166 98.5459H191.853L190.773 95.5662H186.363ZM190.311 93.7538C189.385 91.0813 188.83 89.4839 188.553 88.5009H188.522C188.244 89.6068 187.627 91.4806 186.856 93.7538H190.311Z" fill="black"/>
<path d="M197.96 93.7231V98.5459H195.801V86.8728H200.767C203.265 86.8728 204.623 88.2552 204.623 90.0676C204.623 91.6035 203.759 92.4943 202.803 92.8323C203.512 93.0473 204.376 93.6924 204.376 95.7812V96.3342C204.376 97.1329 204.376 98.0544 204.53 98.5767H202.433C202.217 98.0852 202.217 97.1943 202.217 95.9963V95.812C202.217 94.3989 201.847 93.7538 199.872 93.7538H197.96V93.7231ZM197.96 91.9414H200.243C201.785 91.9414 202.402 91.3577 202.402 90.2826C202.402 89.2381 201.723 88.6545 200.366 88.6545H197.991V91.9414H197.96Z" fill="black"/>
<path d="M209.496 88.6852H205.856V86.8728H215.326V88.6852H211.686V98.5459H209.496V88.6852Z" fill="black"/>
<path d="M218.503 95.1976C218.78 96.457 219.675 97.0407 221.155 97.0407C222.667 97.0407 223.314 96.3956 223.314 95.4433C223.314 94.4296 222.759 93.9074 220.631 93.4159C217.577 92.7094 216.744 91.6035 216.744 90.0061C216.744 88.0708 218.194 86.6885 220.908 86.6885C223.9 86.6885 225.134 88.3473 225.288 89.9754H223.068C222.913 89.146 222.42 88.3473 220.847 88.3473C219.675 88.3473 218.996 88.8388 218.996 89.7604C218.996 90.6819 219.551 91.0198 221.494 91.4806C224.887 92.2793 225.566 93.5695 225.566 95.1669C225.566 97.225 224.024 98.6688 221.001 98.6688C218.04 98.6688 216.559 97.1636 216.313 95.1361H218.503V95.1976Z" fill="black"/>
<path d="M231.889 86.8728H239.847V88.6852H234.048V91.8492H239.508V93.6616H234.048V98.5459H231.889V86.8728Z" fill="black"/>
<path d="M249.625 93.3545H243.949V96.7335H250.211L249.933 98.5459H241.79V86.8728H249.871V88.6852H243.918V91.5421H249.594V93.3545H249.625Z" fill="black"/>
<path d="M253.665 95.1976C253.943 96.457 254.837 97.0407 256.318 97.0407C257.829 97.0407 258.477 96.3956 258.477 95.4433C258.477 94.4296 257.922 93.9074 255.794 93.4159C252.74 92.7094 251.907 91.6035 251.907 90.0061C251.907 88.0708 253.357 86.6885 256.071 86.6885C259.063 86.6885 260.297 88.3473 260.451 89.9754H258.23C258.076 89.146 257.583 88.3473 256.01 88.3473C254.837 88.3473 254.159 88.8388 254.159 89.7604C254.159 90.6819 254.714 91.0198 256.657 91.4806C260.05 92.2793 260.729 93.5695 260.729 95.1669C260.729 97.225 259.187 98.6688 256.164 98.6688C253.203 98.6688 251.722 97.1636 251.475 95.1361H253.665V95.1976Z" fill="black"/>
<path d="M265.17 88.6852H261.531V86.8728H271V88.6852H267.36V98.5459H265.17V88.6852Z" fill="black"/>
<path d="M274.825 86.8728V98.5459H272.635V86.8728H274.825Z" fill="black"/>
<path d="M280.562 98.5459L276.367 86.8728H278.742L280.593 92.4021C281.148 94.0609 281.61 95.5662 281.888 96.7028H281.919C282.166 95.6583 282.69 94.0917 283.276 92.4329L285.219 86.842H287.471L283.153 98.5152H280.562V98.5459Z" fill="black"/>
<path d="M289.815 95.5662L288.766 98.5459H286.607L290.648 86.8728H293.393L297.619 98.5459H295.305L294.226 95.5662H289.815ZM293.732 93.7538C292.807 91.0813 292.252 89.4839 291.974 88.5009H291.943C291.666 89.6068 291.049 91.4806 290.278 93.7538H293.732Z" fill="black"/>
<path d="M299.254 86.8728H301.443V96.7335H307.366L307.088 98.5459H299.223V86.8728H299.254Z" fill="black"/>
<path d="M380.621 72.742H35.3787C15.8541 72.742 0 56.9525 0 37.5075V35.5415C0 16.0966 15.8541 0.307129 35.3787 0.307129H380.621C400.146 0.307129 416 16.0966 416 35.5415V37.5075C416 56.9525 400.146 72.742 380.621 72.742Z" fill="white"/>
<path d="M19.0928 37.5076C19.0928 21.3496 27.8218 12.2875 46.7911 8.57056C62.5527 8.57056 72.8856 19.6293 72.8856 35.5416C72.8856 51.6997 64.1566 60.7617 45.1255 64.4787C29.4257 64.4787 19.0928 53.4507 19.0928 37.5076ZM59.2523 38.2756C59.2523 22.1175 53.1451 10.6287 44.4778 10.6287C36.4582 10.6287 32.6335 21.9947 32.6335 34.7737C32.6335 50.9932 38.8332 62.4206 47.4697 62.4206C55.5201 62.4206 59.2523 51.0853 59.2523 38.2756Z" fill="black"/>
<path d="M75.8467 29.2137V27.9849H80.9052V22.8242L91.6082 17.0183V27.9849H101.324V29.2137H91.6082V53.7579C91.6082 56.8913 93.3664 58.335 95.8031 58.335C98.0856 58.335 99.6278 57.8128 101.849 56.7377L102.373 57.8128L89.6033 64.3559C83.4036 64.3559 80.8743 60.4853 80.8743 54.4645V29.2137H75.8467Z" fill="black"/>
<path d="M105.303 63.1885V61.9597L109.282 61.3454V11.9803L105.396 12.5025L105.18 11.1202L118.782 8.90845H120.016V34.2821L133.557 25.8959C137.443 25.8959 139.294 26.8175 140.589 28.1077C142.193 29.7972 142.718 31.6096 142.718 37.0161V61.3147L147.159 61.929V63.1578H128.714V61.929L131.552 61.3147V36.6168C131.552 33.3299 130.411 32.0397 128.036 32.0397C125.815 32.0397 124.365 32.9612 122.144 34.2514L120.016 35.5416V61.2839L122.915 61.8983V63.1271H105.303V63.1885Z" fill="black"/>
<path d="M150.583 46.8155C150.583 35.0195 159.065 27.9235 169.182 25.9268C176.893 25.9268 183.031 30.5039 183.031 39.6273V42.5149H160.237C161.07 51.5769 166.807 56.0004 173.47 56.0004C176.924 56.0004 179.515 55.0174 182.414 53.3279L183.093 54.2495C178.189 59.0416 174.518 61.6527 168.72 64.2945C158.849 64.3252 150.583 57.8435 150.583 46.8155ZM160.145 41.3169H171.773V38.0299C171.773 31.794 170.632 28.1999 166.406 28.1999C162.057 28.1999 160.145 32.4699 160.145 40.1495V41.3169Z" fill="black"/>
<path d="M188.059 63.1884V61.9597L192.1 61.3453V29.6743L187.966 30.4422L187.812 29.2135L200.89 26.3259H202.124L202.741 39.0435L209.249 26.3259H215.295V37.0775H205.363L202.833 40.8252V61.3146L209.187 61.9904V63.2192H188.059V63.1884Z" fill="black"/>
<path d="M218.904 63.1885V61.9597L222.882 61.3454V11.9803L218.996 12.5025L218.78 11.1202L232.383 8.90845H233.616V61.3147L237.657 61.929V63.1578H218.904V63.1885Z" fill="black"/>
<path d="M258.292 25.9268C265.571 25.9268 268.316 26.6947 270.537 28.7529C272.295 30.3503 273.128 33.0228 273.128 37.2005V53.6658C273.128 55.8776 273.498 58.1507 274.115 60.3011L277.632 59.9324L277.786 61.1612L264.091 63.8952L262.24 57.6592L251.753 64.3559C245.707 64.3559 240.803 61.2226 240.803 54.8946C240.803 52.007 241.728 48.8737 244.998 46.5083L261.901 41.4705V34.6202C261.901 30.7496 261.592 28.3843 257.151 28.3843C255.917 28.3843 255.3 28.5379 253.789 28.9986L252.246 39.0437H242.222V32.1934L258.292 25.9268ZM261.962 42.6992L255.3 45.2181C253.388 46.8155 252.308 49.0887 252.308 52.3142C252.308 56.2769 254.066 58.7958 256.596 58.7958C258.138 58.7958 259.803 57.8743 260.729 57.1985L261.962 56.3691V42.6992Z" fill="black"/>
<path d="M280.716 63.1884V61.9597L284.757 61.3453V29.8278L280.623 30.5037L280.469 29.2135L294.164 26.3259H295.46V34.2513L308.908 25.9573C312.887 25.9573 314.645 26.8788 315.94 28.169C317.699 30.0122 318.069 31.671 318.069 37.0775V61.376L322.51 61.9904V63.2191H304.127V61.9904L307.026 61.376V36.6781C307.026 33.3912 305.793 32.101 303.51 32.101C301.228 32.101 299.747 33.0226 297.557 34.3128L295.49 35.603V61.3453L298.39 61.9597V63.1884H280.716Z" fill="black"/>
<path d="M325.996 46.969C325.996 36.7704 330.653 28.3841 342.683 25.9574C345.582 25.9574 348.111 26.5717 350.394 28.0155V11.9803L346.415 12.5025L346.261 11.1202L359.863 8.90845H361.004V53.5428C361.004 56.5225 361.22 57.8742 362.084 60.0859L365.97 59.8709L366.186 61.0996L352.738 63.8336L350.61 56.4304L340.739 64.2637C332.411 64.3251 325.996 56.9526 325.996 46.969ZM344.811 57.6898C346.507 57.6898 347.248 57.3212 349.314 55.9389L350.394 55.1709V30.1351C349.561 29.1521 348.111 28.2306 346.199 28.2306C340.4 28.292 337.778 34.1593 337.778 43.0984C337.778 51.6075 340.308 57.6898 344.811 57.6898Z" fill="black"/>
<path d="M388.703 29.8895C386.729 27.9849 385.186 27.5241 382.904 27.5241C380.22 27.5241 378.246 29.2137 378.246 31.7019C378.246 34.3744 380.004 35.8182 383.767 38.245L391.263 43.1907C395.396 45.7711 397 48.29 396.938 52.1913C396.938 57.5978 392.898 62.2363 383.397 64.4481C378.277 64.4481 373.157 63.0657 370.011 61.5605V50.1946H371.306L375.964 59.1952C378.246 61.3148 380.097 62.6357 383.089 62.6357C386.698 62.6357 388.672 60.5161 388.672 58.2122C388.672 55.2325 386.975 54.0344 383.151 51.5155L375.717 46.5698C372.571 44.5116 369.764 42.0848 369.764 37.3541C369.764 32.1012 374.206 27.9849 383.151 25.9268C388.826 25.9268 391.725 26.7562 395.303 28.4457V39.0437H394.07L388.703 29.8895Z" fill="black"/>
<path d="M305.638 102.969H108.357C102.681 102.969 98.0547 98.3923 98.0547 92.7093C98.0547 87.057 102.651 82.4492 108.357 82.4492H305.638C311.314 82.4492 315.94 87.0263 315.94 92.7093C315.94 98.3615 311.314 102.969 305.638 102.969Z" fill="white"/>
<path d="M118.35 93.9689C118.35 91.9107 118.381 89.699 118.443 88.4088H118.381C117.857 90.6205 116.438 94.8904 115.235 98.5767H113.323C112.397 95.4434 110.948 90.6205 110.423 88.3781H110.362C110.454 89.7297 110.516 92.2179 110.516 94.2146V98.5767H108.48V86.9036H111.75C112.798 90.1598 114.032 94.2761 114.402 95.9349H114.433C114.711 94.5525 116.222 90.0983 117.333 86.9036H120.51V98.5767H118.381V93.9689H118.35Z" fill="black"/>
<path d="M125.506 86.8728V93.846C125.506 96.2727 126.802 96.9486 128.128 96.9486C129.67 96.9486 130.719 96.1499 130.719 93.846V86.8728H132.909V93.7538C132.909 97.6858 130.657 98.7302 128.097 98.7302C125.506 98.7302 123.286 97.6244 123.286 93.846V86.9035H125.506V86.8728Z" fill="black"/>
<path d="M136.919 95.1976C137.196 96.457 138.091 97.0407 139.571 97.0407C141.083 97.0407 141.731 96.3956 141.731 95.4433C141.731 94.4296 141.175 93.9074 139.047 93.4159C135.993 92.7094 135.161 91.6035 135.161 90.0061C135.161 88.0708 136.61 86.6885 139.325 86.6885C142.317 86.6885 143.55 88.3473 143.705 89.9754H141.484C141.33 89.146 140.836 88.3473 139.263 88.3473C138.091 88.3473 137.412 88.8388 137.412 89.7604C137.412 90.6819 137.968 91.0198 139.911 91.4806C143.304 92.2793 143.982 93.5695 143.982 95.1669C143.982 97.225 142.44 98.6688 139.417 98.6688C136.456 98.6688 134.976 97.1636 134.729 95.1361H136.919V95.1976Z" fill="black"/>
<path d="M148.177 86.8728V98.5459H145.987V86.8728H148.177Z" fill="black"/>
<path d="M160.792 95.044C160.299 97.1636 158.726 98.6995 155.857 98.6995C152.218 98.6995 150.46 96.0577 150.46 92.7401C150.46 89.5453 152.249 86.6885 155.981 86.6885C158.973 86.6885 160.484 88.4394 160.792 90.3747H158.603C158.294 89.361 157.585 88.4394 155.919 88.4394C153.667 88.4394 152.773 90.4669 152.773 92.6786C152.773 94.7675 153.575 96.9485 155.981 96.9485C157.677 96.9485 158.294 95.8734 158.603 95.044H160.792Z" fill="black"/>
<path d="M178.004 91.2349L174.919 95.5048C173.562 97.4094 172.575 98.6996 170.138 98.6996C167.671 98.6996 166.499 97.0715 166.499 95.5048C166.499 93.8767 167.547 92.863 169.707 91.7878C171.002 91.2349 172.082 90.5898 172.082 89.4839C172.082 88.7774 171.681 88.1323 170.848 88.1323C170.077 88.1323 169.583 88.6545 169.583 89.5146C169.583 90.2212 170.169 90.8048 170.909 91.5114L178.065 98.4845H175.32L169.09 92.4636C168.288 91.6957 167.64 90.8356 167.64 89.7297C167.64 88.0402 168.874 86.7192 170.848 86.7192C172.822 86.7192 173.963 88.0401 173.963 89.5146C173.963 90.9584 172.914 91.8493 170.786 92.8937C169.09 93.6617 168.658 94.4911 168.658 95.2898C168.658 96.1499 169.275 96.9486 170.354 96.9486C171.619 96.9486 172.205 96.3342 173.655 94.3068L175.814 91.2656H178.004V91.2349Z" fill="black"/>
<path d="M186.363 95.5662L185.314 98.5459H183.155L187.195 86.8728H189.941L194.166 98.5459H191.853L190.773 95.5662H186.363ZM190.311 93.7538C189.385 91.0813 188.83 89.4839 188.553 88.5009H188.522C188.244 89.6068 187.627 91.4806 186.856 93.7538H190.311Z" fill="black"/>
<path d="M197.96 93.7231V98.5459H195.801V86.8728H200.767C203.265 86.8728 204.623 88.2552 204.623 90.0676C204.623 91.6035 203.759 92.4943 202.803 92.8323C203.512 93.0473 204.376 93.6924 204.376 95.7812V96.3342C204.376 97.1329 204.376 98.0544 204.53 98.5767H202.433C202.217 98.0852 202.217 97.1943 202.217 95.9963V95.812C202.217 94.3989 201.847 93.7538 199.872 93.7538H197.96V93.7231ZM197.96 91.9414H200.243C201.785 91.9414 202.402 91.3577 202.402 90.2826C202.402 89.2381 201.723 88.6545 200.366 88.6545H197.991V91.9414H197.96Z" fill="black"/>
<path d="M209.496 88.6852H205.856V86.8728H215.326V88.6852H211.686V98.5459H209.496V88.6852Z" fill="black"/>
<path d="M218.503 95.1976C218.78 96.457 219.675 97.0407 221.155 97.0407C222.667 97.0407 223.314 96.3956 223.314 95.4433C223.314 94.4296 222.759 93.9074 220.631 93.4159C217.577 92.7094 216.744 91.6035 216.744 90.0061C216.744 88.0708 218.194 86.6885 220.908 86.6885C223.9 86.6885 225.134 88.3473 225.288 89.9754H223.068C222.913 89.146 222.42 88.3473 220.847 88.3473C219.675 88.3473 218.996 88.8388 218.996 89.7604C218.996 90.6819 219.551 91.0198 221.494 91.4806C224.887 92.2793 225.566 93.5695 225.566 95.1669C225.566 97.225 224.024 98.6688 221.001 98.6688C218.04 98.6688 216.559 97.1636 216.313 95.1361H218.503V95.1976Z" fill="black"/>
<path d="M231.889 86.8728H239.847V88.6852H234.048V91.8492H239.508V93.6616H234.048V98.5459H231.889V86.8728Z" fill="black"/>
<path d="M249.625 93.3545H243.949V96.7335H250.211L249.933 98.5459H241.79V86.8728H249.871V88.6852H243.918V91.5421H249.594V93.3545H249.625Z" fill="black"/>
<path d="M253.665 95.1976C253.943 96.457 254.837 97.0407 256.318 97.0407C257.829 97.0407 258.477 96.3956 258.477 95.4433C258.477 94.4296 257.922 93.9074 255.794 93.4159C252.74 92.7094 251.907 91.6035 251.907 90.0061C251.907 88.0708 253.357 86.6885 256.071 86.6885C259.063 86.6885 260.297 88.3473 260.451 89.9754H258.23C258.076 89.146 257.583 88.3473 256.01 88.3473C254.837 88.3473 254.159 88.8388 254.159 89.7604C254.159 90.6819 254.714 91.0198 256.657 91.4806C260.05 92.2793 260.729 93.5695 260.729 95.1669C260.729 97.225 259.187 98.6688 256.164 98.6688C253.203 98.6688 251.722 97.1636 251.475 95.1361H253.665V95.1976Z" fill="black"/>
<path d="M265.17 88.6852H261.531V86.8728H271V88.6852H267.36V98.5459H265.17V88.6852Z" fill="black"/>
<path d="M274.825 86.8728V98.5459H272.635V86.8728H274.825Z" fill="black"/>
<path d="M280.562 98.5459L276.367 86.8728H278.742L280.593 92.4021C281.148 94.0609 281.61 95.5662 281.888 96.7028H281.919C282.166 95.6583 282.69 94.0917 283.276 92.4329L285.219 86.842H287.471L283.153 98.5152H280.562V98.5459Z" fill="black"/>
<path d="M289.815 95.5662L288.766 98.5459H286.607L290.648 86.8728H293.393L297.619 98.5459H295.305L294.226 95.5662H289.815ZM293.732 93.7538C292.807 91.0813 292.252 89.4839 291.974 88.5009H291.943C291.666 89.6068 291.049 91.4806 290.278 93.7538H293.732Z" fill="black"/>
<path d="M299.254 86.8728H301.443V96.7335H307.366L307.088 98.5459H299.223V86.8728H299.254Z" fill="black"/>
<path d="M380.621 72.742H35.3787C15.8541 72.742 0 56.9525 0 37.5075V35.5415C0 16.0966 15.8541 0.307129 35.3787 0.307129H380.621C400.146 0.307129 416 16.0966 416 35.5415V37.5075C416 56.9525 400.146 72.742 380.621 72.742Z" fill="white"/>
<path d="M19.0928 37.5076C19.0928 21.3496 27.8218 12.2875 46.7911 8.57056C62.5527 8.57056 72.8856 19.6293 72.8856 35.5416C72.8856 51.6997 64.1566 60.7617 45.1255 64.4787C29.4257 64.4787 19.0928 53.4507 19.0928 37.5076ZM59.2523 38.2756C59.2523 22.1175 53.1451 10.6287 44.4778 10.6287C36.4582 10.6287 32.6335 21.9947 32.6335 34.7737C32.6335 50.9932 38.8332 62.4206 47.4697 62.4206C55.5201 62.4206 59.2523 51.0853 59.2523 38.2756Z" fill="black"/>
<path d="M75.8467 29.2137V27.9849H80.9052V22.8242L91.6082 17.0183V27.9849H101.324V29.2137H91.6082V53.7579C91.6082 56.8913 93.3664 58.335 95.8031 58.335C98.0856 58.335 99.6278 57.8128 101.849 56.7377L102.373 57.8128L89.6033 64.3559C83.4036 64.3559 80.8743 60.4853 80.8743 54.4645V29.2137H75.8467Z" fill="black"/>
<path d="M105.303 63.1885V61.9597L109.282 61.3454V11.9803L105.396 12.5025L105.18 11.1202L118.782 8.90845H120.016V34.2821L133.557 25.8959C137.443 25.8959 139.294 26.8175 140.589 28.1077C142.193 29.7972 142.718 31.6096 142.718 37.0161V61.3147L147.159 61.929V63.1578H128.714V61.929L131.552 61.3147V36.6168C131.552 33.3299 130.411 32.0397 128.036 32.0397C125.815 32.0397 124.365 32.9612 122.144 34.2514L120.016 35.5416V61.2839L122.915 61.8983V63.1271H105.303V63.1885Z" fill="black"/>
<path d="M150.583 46.8155C150.583 35.0195 159.065 27.9235 169.182 25.9268C176.893 25.9268 183.031 30.5039 183.031 39.6273V42.5149H160.237C161.07 51.5769 166.807 56.0004 173.47 56.0004C176.924 56.0004 179.515 55.0174 182.414 53.3279L183.093 54.2495C178.189 59.0416 174.518 61.6527 168.72 64.2945C158.849 64.3252 150.583 57.8435 150.583 46.8155ZM160.145 41.3169H171.773V38.0299C171.773 31.794 170.632 28.1999 166.406 28.1999C162.057 28.1999 160.145 32.4699 160.145 40.1495V41.3169Z" fill="black"/>
<path d="M188.059 63.1884V61.9597L192.1 61.3453V29.6743L187.966 30.4422L187.812 29.2135L200.89 26.3259H202.124L202.741 39.0435L209.249 26.3259H215.295V37.0775H205.363L202.833 40.8252V61.3146L209.187 61.9904V63.2192H188.059V63.1884Z" fill="black"/>
<path d="M218.904 63.1885V61.9597L222.882 61.3454V11.9803L218.996 12.5025L218.78 11.1202L232.383 8.90845H233.616V61.3147L237.657 61.929V63.1578H218.904V63.1885Z" fill="black"/>
<path d="M258.292 25.9268C265.571 25.9268 268.316 26.6947 270.537 28.7529C272.295 30.3503 273.128 33.0228 273.128 37.2005V53.6658C273.128 55.8776 273.498 58.1507 274.115 60.3011L277.632 59.9324L277.786 61.1612L264.091 63.8952L262.24 57.6592L251.753 64.3559C245.707 64.3559 240.803 61.2226 240.803 54.8946C240.803 52.007 241.728 48.8737 244.998 46.5083L261.901 41.4705V34.6202C261.901 30.7496 261.592 28.3843 257.151 28.3843C255.917 28.3843 255.3 28.5379 253.789 28.9986L252.246 39.0437H242.222V32.1934L258.292 25.9268ZM261.962 42.6992L255.3 45.2181C253.388 46.8155 252.308 49.0887 252.308 52.3142C252.308 56.2769 254.066 58.7958 256.596 58.7958C258.138 58.7958 259.803 57.8743 260.729 57.1985L261.962 56.3691V42.6992Z" fill="black"/>
<path d="M280.716 63.1884V61.9597L284.757 61.3453V29.8278L280.623 30.5037L280.469 29.2135L294.164 26.3259H295.46V34.2513L308.908 25.9573C312.887 25.9573 314.645 26.8788 315.94 28.169C317.699 30.0122 318.069 31.671 318.069 37.0775V61.376L322.51 61.9904V63.2191H304.127V61.9904L307.026 61.376V36.6781C307.026 33.3912 305.793 32.101 303.51 32.101C301.228 32.101 299.747 33.0226 297.557 34.3128L295.49 35.603V61.3453L298.39 61.9597V63.1884H280.716Z" fill="black"/>
<path d="M325.996 46.969C325.996 36.7704 330.653 28.3841 342.683 25.9574C345.582 25.9574 348.111 26.5717 350.394 28.0155V11.9803L346.415 12.5025L346.261 11.1202L359.863 8.90845H361.004V53.5428C361.004 56.5225 361.22 57.8742 362.084 60.0859L365.97 59.8709L366.186 61.0996L352.738 63.8336L350.61 56.4304L340.739 64.2637C332.411 64.3251 325.996 56.9526 325.996 46.969ZM344.811 57.6898C346.507 57.6898 347.248 57.3212 349.314 55.9389L350.394 55.1709V30.1351C349.561 29.1521 348.111 28.2306 346.199 28.2306C340.4 28.292 337.778 34.1593 337.778 43.0984C337.778 51.6075 340.308 57.6898 344.811 57.6898Z" fill="black"/>
<path d="M388.703 29.8895C386.729 27.9849 385.186 27.5241 382.904 27.5241C380.22 27.5241 378.246 29.2137 378.246 31.7019C378.246 34.3744 380.004 35.8182 383.767 38.245L391.263 43.1907C395.396 45.7711 397 48.29 396.938 52.1913C396.938 57.5978 392.898 62.2363 383.397 64.4481C378.277 64.4481 373.157 63.0657 370.011 61.5605V50.1946H371.306L375.964 59.1952C378.246 61.3148 380.097 62.6357 383.089 62.6357C386.698 62.6357 388.672 60.5161 388.672 58.2122C388.672 55.2325 386.975 54.0344 383.151 51.5155L375.717 46.5698C372.571 44.5116 369.764 42.0848 369.764 37.3541C369.764 32.1012 374.206 27.9849 383.151 25.9268C388.826 25.9268 391.725 26.7562 395.303 28.4457V39.0437H394.07L388.703 29.8895Z" fill="black"/>
</g>
<defs>
<clipPath id="clip0">
<rect width="416" height="102.662" fill="white" transform="translate(0 0.307129)"/>
</clipPath>
</defs>
</svg>
