<svg width="61" height="55" viewBox="0 0 61 55" fill="none" xmlns="http://www.w3.org/2000/svg">
<path d="M54.8789 14.3004L54.8789 53.6956L6.45018 53.6956L6.45018 14.4432" stroke="#2D404B" stroke-linecap="round" stroke-linejoin="round"/>
<path d="M20.1849 53.503V35.7195H10.9375V53.503" stroke="#2D404B" stroke-linecap="round" stroke-linejoin="round"/>
<path d="M29.4301 4.26906L2.74658 16.2179C1.92633 16.5852 1 15.985 1 15.0863C1 14.5976 1.2871 14.1545 1.73314 13.9547L29.4301 1.55208C30.2141 1.201 31.111 1.20286 31.8936 1.55718L59.2729 13.9538C59.7156 14.1542 60 14.5952 60 15.0812C60 15.9804 59.0712 16.5795 58.252 16.2086L31.8936 4.27416C31.111 3.91984 30.2141 3.91798 29.4301 4.26906Z" fill="#89D2D4" stroke="#2D404B"/>
<rect x="11.3867" y="20.07" width="4.64549" height="9.87166" stroke="#2D404B" stroke-linecap="round" stroke-linejoin="round"/>
<path d="M15.7441 20.07H20.3896V29.9416H15.7441" stroke="#2D404B" stroke-linecap="round" stroke-linejoin="round"/>
<rect x="25.6133" y="20.07" width="4.64549" height="9.87166" stroke="#2D404B" stroke-linecap="round" stroke-linejoin="round"/>
<path d="M29.9707 20.07H34.6162V29.9417H29.9707" stroke="#2D404B" stroke-linecap="round" stroke-linejoin="round"/>
<rect x="39.8438" y="20.07" width="4.64549" height="9.87166" stroke="#2D404B" stroke-linecap="round" stroke-linejoin="round"/>
<path d="M44.2012 20.07H48.8467V29.9417H44.2012" stroke="#2D404B" stroke-linecap="round" stroke-linejoin="round"/>
<rect x="25.6133" y="35.6324" width="4.64549" height="9.87166" stroke="#2D404B" stroke-linecap="round" stroke-linejoin="round"/>
<path d="M29.9707 35.6325H34.6162V45.5041H29.9707" stroke="#2D404B" stroke-linecap="round" stroke-linejoin="round"/>
<rect x="39.8438" y="35.6324" width="4.64549" height="9.87166" stroke="#2D404B" stroke-linecap="round" stroke-linejoin="round"/>
<path d="M44.2012 35.6325H48.8467V45.5041H44.2012" stroke="#2D404B" stroke-linecap="round" stroke-linejoin="round"/>
</svg>
