<svg width="63" height="49" viewBox="0 0 63 49" fill="none" xmlns="http://www.w3.org/2000/svg">
<path d="M6.98006 47.2252L10.8102 39.7416M11.9516 37.4077L16.5554 28.516" stroke="#2D404B" stroke-linecap="round" stroke-linejoin="round"/>
<path d="M36.6465 10.6935C37.3891 11.139 38.7852 12.4757 38.4287 14.258C38.7258 13.6639 39.8545 12.5648 41.9932 12.9213" stroke="#2D404B" stroke-linecap="round" stroke-linejoin="round"/>
<path d="M6.34766 7.23734C7.36187 6.98378 9.69458 6.93307 10.9116 8.75866C10.6581 7.998 10.6834 6.09634 12.8133 4.57501" stroke="#2D404B" stroke-linecap="round" stroke-linejoin="round"/>
<path d="M49.1211 31.6349L52.24 36.9817M53.5767 38.7639L56.2501 43.2195" stroke="#2D404B" stroke-linecap="round" stroke-linejoin="round"/>
<path d="M13.9219 22.7237C15.5556 22.4266 17.0408 21.2385 19.2686 22.7237C21.942 24.5059 21.4666 25.9862 23.2787 26.2882C25.9521 26.7337 25.9521 24.5059 28.1799 22.7237C29.6144 21.5761 31.7444 21.8326 32.1899 21.8326" stroke="#2D404B" stroke-linecap="round" stroke-linejoin="round"/>
<path d="M36.6465 26.2023C37.7622 26.0856 38.7765 25.6189 40.2979 26.2023C42.1236 26.9023 41.799 27.4836 43.0365 27.6023C44.8622 27.7773 44.8622 26.9023 46.3837 26.2023C47.3633 25.7515 48.818 25.8523 49.1222 25.8523" stroke="#2D404B" stroke-linecap="round" stroke-linejoin="round"/>
<path d="M43.774 43.37L46.0018 47.5604H1C5.90119 37.758 16.5056 16.9948 19.7136 12.3609C22.9217 7.72707 26.1 10.4302 27.2882 12.3609L35.5311 27.8654M43.774 43.37H59.3687L46.0018 20.3811C44.9622 18.7474 42.3482 16.4601 40.2095 20.3811C38.0708 24.302 36.1995 27.0044 35.5311 27.8654M43.774 43.37L35.5311 27.8654" stroke="#2D404B" stroke-linecap="round" stroke-linejoin="round"/>
<circle cx="56.2496" cy="6.23788" r="5.73788" fill="#89D2D4" stroke="#2D404B"/>
</svg>
