<svg width="74" height="52" viewBox="0 0 74 52" fill="none" xmlns="http://www.w3.org/2000/svg">
<path d="M27.7402 45.2353H44.5659M47.8433 48.6431H52.8692M55.4913 48.6431H62.0468M27.7402 48.6431H44.5659M27.7402 41.6577H44.5659" stroke="#2D404B" stroke-linecap="round"/>
<path d="M46.7598 27.0335L53.6204 25.0596" stroke="#2D404B" stroke-linecap="round"/>
<path d="M23.5954 51.4097H14.6934V27.0629H72.5204V51.4097H23.5954ZM23.5954 51.4097V47.8359M23.5954 42.4751V45.8256M23.5954 40.2415V37.1144M23.5954 34.8807V31.977M23.5954 29.9667V27.0629" stroke="#2D404B" stroke-linecap="round" stroke-linejoin="round"/>
<path d="M14.3983 26.9899L13.6058 24.0322M13.0397 21.9195L12.3038 19.173M11.7943 17.2716L11.0584 14.5251M14.5078 37.9165L7.50781 39.9165L4.01376 27.9165L1.01376 17.2716L61.5358 1.00397L67.7062 24.0322L56.6939 26.9899" stroke="#2D404B" stroke-linecap="round" stroke-linejoin="round"/>
<path d="M60.1369 37.9493C60.1212 38.096 60.045 38.2329 59.9222 38.3355C59.7993 38.438 59.6379 38.4994 59.467 38.5085H59.4217C59.3111 38.5116 59.2028 38.481 59.1158 38.422C59.0947 38.385 59.0787 38.346 59.0684 38.3057C59.0531 38.2538 59.051 38.1998 59.0624 38.1472C59.0737 38.0946 59.0983 38.0447 59.1342 38.0011C59.2716 37.825 59.5789 37.6654 60.0477 37.5259C60.1127 37.6609 60.1431 37.8064 60.1369 37.9524V37.9493ZM59.4727 36.6122C59.5669 36.7377 59.6646 36.8723 59.756 37.0057C59.5252 37.0716 59.3033 37.1584 59.0939 37.2646C59.2305 37.0435 59.3594 36.8211 59.4727 36.6122ZM59.2787 35.1721C59.3007 35.1566 59.3271 35.1465 59.3552 35.1428C59.3596 35.1619 59.3624 35.1813 59.3637 35.2007C59.3672 35.2336 59.3637 35.3268 59.2773 35.5498C59.2433 35.4964 59.218 35.4392 59.2022 35.3798C59.1916 35.3421 59.1932 35.3025 59.2068 35.2655C59.2204 35.2284 59.2455 35.1953 59.2794 35.1696L59.2787 35.1721ZM61.6678 35.8276C61.7315 35.7008 61.8618 35.4882 62.0219 35.4882C62.0347 35.4883 62.0475 35.4895 62.0601 35.4919C62.1548 35.5074 62.2444 35.5409 62.3221 35.59C62.347 35.6429 62.3583 35.6998 62.3554 35.7569C62.3455 36.0779 61.9964 36.4879 61.4348 36.6548C61.4667 36.3712 61.5442 36.0928 61.665 35.8276H61.6678ZM64.5483 37.8652C64.5377 37.8266 64.5142 37.7914 64.4808 37.7639C64.4473 37.7365 64.4054 37.7179 64.36 37.7105C64.3451 37.7096 64.3302 37.7096 64.3154 37.7105C64.2595 37.7105 64.2053 37.7273 64.1623 37.758C64.1192 37.7887 64.09 37.8314 64.0796 37.8787C64.0003 38.2442 63.489 39.0836 62.8376 39.3163C62.7351 39.3546 62.625 39.3753 62.5133 39.3772C62.3294 39.3733 62.1513 39.3212 62.0027 39.228C61.951 39.1969 61.9035 39.161 61.8611 39.1208C61.6374 38.8277 61.4809 38.3544 61.42 37.7867C61.4016 37.6118 61.3924 37.4333 61.3938 37.2542C61.8235 37.1938 62.2182 37.0133 62.5168 36.7407C62.7866 36.4922 62.9459 36.1882 62.9544 35.9067C62.9603 35.803 62.9415 35.6992 62.8991 35.6019C62.8567 35.5046 62.7917 35.4158 62.708 35.3408C62.5735 35.1483 62.3433 35.0167 62.0417 34.9601C61.9951 34.9515 61.9477 34.9472 61.9001 34.9473C61.6706 34.9473 61.3463 35.049 61.1027 35.5364C60.947 35.8483 60.8422 36.285 60.8068 36.773C60.6085 36.8059 60.4216 36.8424 60.2488 36.8808C60.0866 36.6438 59.9039 36.4075 59.7404 36.1967L59.705 36.151C59.8891 35.7569 59.974 35.4718 59.9585 35.3043C59.9535 35.1375 59.8747 34.9787 59.7382 34.8602C59.6778 34.7621 59.5812 34.6841 59.4635 34.6384C59.3939 34.6122 59.3186 34.5987 59.2426 34.5988C59.1032 34.6003 58.9684 34.6416 58.8595 34.7164C58.7558 34.7878 58.6771 34.8825 58.6322 34.9901C58.5874 35.0976 58.578 35.2138 58.6053 35.3256C58.6428 35.5083 58.7944 35.7368 59.0436 36.0651C58.868 36.413 58.6393 36.8059 58.3815 37.2043C57.6614 38.3166 57.1834 38.7479 57.073 38.776H57.051C57.0335 38.7763 57.0161 38.7743 56.9993 38.7699C56.9566 38.6481 56.9377 38.5211 56.9434 38.394C57.3307 37.6831 57.9276 36.4641 57.6692 36.112C57.6463 36.0804 57.6159 36.0532 57.58 36.0322C57.5723 36.0134 57.562 35.9954 57.5495 35.9786C57.5236 35.9389 57.486 35.9057 57.4406 35.8823C57.3951 35.8589 57.3433 35.8461 57.2904 35.8452H57.272C57.1112 35.8537 57.0156 35.9671 56.9179 36.1328C56.6913 36.5305 56.3684 37.451 56.3436 38.1613C56.1553 38.5 55.9365 38.8637 55.6936 39.2426C55.6631 39.2906 55.6559 39.3471 55.6736 39.3997C55.6912 39.4523 55.7322 39.4967 55.7878 39.5234C55.7956 39.5513 55.8101 39.5774 55.8303 39.6002C55.8506 39.623 55.8761 39.6418 55.9053 39.6556C55.9406 39.6725 55.9804 39.6813 56.0207 39.6812C56.064 39.6816 56.1066 39.6719 56.144 39.6531C56.1814 39.6343 56.2122 39.6072 56.2332 39.5746C56.3535 39.3864 56.4718 39.1957 56.5872 39.0062L56.617 39.0324C56.6268 39.0478 56.6376 39.0627 56.6495 39.0769C56.706 39.1512 56.7835 39.2119 56.8748 39.2533C56.9662 39.2947 57.0682 39.3153 57.1714 39.3133C57.1926 39.3133 57.2146 39.3133 57.2365 39.3133C57.3845 39.3029 57.6111 39.2243 58.0572 38.7084C58.1833 38.5628 58.3206 38.3898 58.4623 38.1973C58.4658 38.2206 58.4708 38.2438 58.4771 38.2667C58.5163 38.4203 58.6029 38.5619 58.7278 38.6767C58.8127 38.7956 58.9324 38.8934 59.0749 38.9602C59.2174 39.027 59.3777 39.0605 59.54 39.0574C59.5648 39.0574 59.5903 39.0574 59.615 39.0574C59.8999 39.042 60.169 38.9395 60.3736 38.7683C60.5783 38.5972 60.705 38.3687 60.731 38.1241C60.7529 37.9176 60.697 37.6788 60.5596 37.3974C60.6361 37.381 60.7154 37.3651 60.7983 37.3493C60.833 38.2332 61.0879 38.9849 61.488 39.3791C61.5849 39.5043 61.7078 39.6131 61.8505 39.7001C62.0775 39.8411 62.3494 39.9187 62.6294 39.9224C62.8052 39.9214 62.979 39.8904 63.1406 39.8311C63.6122 39.6629 63.9684 39.298 64.1837 39.0215C64.423 38.7138 64.6142 38.3477 64.6708 38.0888C64.6802 38.0456 64.6733 38.0009 64.6511 37.9612C64.629 37.9216 64.5927 37.889 64.5476 37.8683L64.5483 37.8652ZM60.0774 40.4268C59.8607 40.6096 59.5279 40.7625 59.1406 40.8648C58.775 40.9637 58.3944 41.0152 58.0112 41.0177C57.5304 41.0163 57.0554 40.9279 56.617 40.7582C57.3527 40.5353 57.9227 40.3824 58.2852 40.2904C58.8807 40.1393 59.3998 40.0595 59.7857 40.0595C59.8459 40.0595 59.9039 40.0595 59.957 40.065C60.0719 40.0705 60.1848 40.0932 60.2906 40.132C60.2835 40.1984 60.2268 40.3032 60.0781 40.4268H60.0774ZM53.422 37.7349C53.4496 37.6587 53.4766 37.5832 53.5028 37.5089C53.9276 36.2991 54.5798 34.5659 55.4288 33.2879C55.6446 33.5918 55.791 33.9284 55.86 34.2796C55.9903 34.8888 55.7347 35.6552 55.1597 36.3886C54.6739 37.0087 54.0267 37.5089 53.4213 37.7349H53.422ZM52.1807 37.9956C52.1452 37.9958 52.1097 37.9936 52.0745 37.9889C52.1084 37.9779 52.1445 37.9727 52.1807 37.9737C52.2257 37.9741 52.2704 37.9792 52.3139 37.9889C52.2696 37.9931 52.2252 37.9953 52.1807 37.9956ZM60.702 39.8725C60.5164 39.5758 60.0406 39.5125 59.671 39.5125C59.2284 39.5125 58.6796 39.5953 58.0324 39.7561C57.6564 39.8518 56.8804 40.0607 55.8621 40.3781C55.1441 39.9371 54.5557 39.334 54.0735 38.7991L53.8993 38.6048C53.8738 38.5762 53.849 38.5481 53.8242 38.5213L53.8072 38.5018L53.7796 38.4708C53.7237 38.4099 53.667 38.3489 53.6104 38.288C54.3397 38.0504 55.1052 37.4845 55.6787 36.7523C56.3231 35.9311 56.6049 35.0509 56.452 34.3369C56.333 33.7832 56.0809 33.294 55.7219 32.9224L55.7021 32.8992C56.0264 32.4728 56.3585 32.142 56.6892 31.9185C56.7203 31.8972 56.7448 31.8696 56.7604 31.8381C56.776 31.8067 56.7823 31.7724 56.7787 31.7383C56.7752 31.7042 56.7618 31.6715 56.7399 31.643C56.7179 31.6144 56.6881 31.591 56.6531 31.5749C56.6449 31.5459 56.6297 31.5187 56.6085 31.4951C56.5861 31.4706 56.5576 31.4509 56.5251 31.4373C56.4926 31.4237 56.457 31.4166 56.4208 31.4165C56.3672 31.4168 56.3153 31.4322 56.2728 31.4604C55.9124 31.704 55.5711 32.0366 55.2319 32.4734C55.1099 32.3874 54.9788 32.3114 54.8403 32.2462C54.4067 32.0479 53.9216 31.9475 53.4305 31.9544C52.8131 31.9544 52.1142 32.0909 51.3537 32.3595C49.6181 32.973 48.7224 33.947 48.2763 34.6561C48.027 35.0453 47.8549 35.4676 47.7672 35.9055C47.7006 36.2662 47.7155 36.5945 47.8097 36.8309C47.868 36.9834 47.9617 37.1241 48.0851 37.2445C48.1998 37.3931 48.3565 37.5142 48.5406 37.5962C48.7247 37.6783 48.9301 37.7187 49.1373 37.7136C49.2607 37.7142 49.3836 37.7005 49.5027 37.6727C49.5331 37.6654 49.5615 37.653 49.5863 37.6363C49.6111 37.6195 49.6318 37.5987 49.6472 37.5751C49.6627 37.5514 49.6726 37.5254 49.6763 37.4985C49.6801 37.4715 49.6776 37.4442 49.6691 37.4181C49.6603 37.3914 49.6454 37.3665 49.6252 37.3448C49.605 37.3232 49.58 37.3052 49.5516 37.292V37.2847C49.5374 37.2414 49.5072 37.2032 49.4656 37.1759C49.4239 37.1486 49.3731 37.1338 49.3207 37.1336C49.2987 37.1335 49.2767 37.1362 49.2556 37.1415C49.1758 37.158 49.094 37.1662 49.012 37.1659C48.8113 37.1715 48.6161 37.1087 48.4689 36.9911C48.4343 36.9401 48.4058 36.8862 48.3839 36.8303C48.248 36.4909 48.3266 35.7691 48.8187 34.9863C49.2273 34.3363 50.0515 33.4426 51.656 32.8785C52.3585 32.63 52.9951 32.5045 53.5495 32.5045C53.9608 32.4988 54.3671 32.5826 54.7306 32.7482C54.8068 32.7846 54.8801 32.8253 54.9501 32.87C54.2689 33.8648 53.6083 35.3037 52.9221 37.2549C52.8775 37.3828 52.8315 37.5101 52.7855 37.6356C52.5718 37.5092 52.3214 37.4367 52.0625 37.426C51.9454 37.4246 51.8296 37.4471 51.7247 37.4918C51.5123 37.5856 51.4018 37.7714 51.4613 37.9438L51.4656 37.9554C51.4956 38.0729 51.5642 38.1805 51.6631 38.2655C51.7156 38.3529 51.7982 38.4241 51.8996 38.4696C52.0247 38.5221 52.1627 38.5476 52.3018 38.5439C52.3422 38.5439 52.384 38.5439 52.4279 38.5396C51.8274 39.9492 51.2411 40.8429 50.8467 41.3491C50.351 41.9955 49.992 42.241 49.8971 42.2806C49.7258 42.3531 49.4093 42.4865 49.0864 42.4865C48.9838 42.4873 48.8819 42.4724 48.7854 42.4426C48.643 42.3949 48.5165 42.3177 48.4172 42.2178C48.3482 42.1275 48.2887 42.0321 48.2395 41.9327C47.724 40.9081 49.1062 40.3123 49.165 40.2879C49.2041 40.2711 49.2371 40.2454 49.2605 40.2136C49.2838 40.1817 49.2967 40.145 49.2975 40.1074C49.2984 40.0698 49.2873 40.0327 49.2654 40.0001C49.2436 39.9675 49.2118 39.9406 49.1735 39.9224C49.1693 39.9077 49.1633 39.8935 49.1558 39.8798C49.1277 39.8307 49.0782 39.7932 49.0181 39.7754C48.958 39.7576 48.8922 39.761 48.835 39.7848C48.8166 39.7927 46.9826 40.5797 47.6794 41.965C47.7677 42.1482 47.887 42.3192 48.0334 42.4725C48.2022 42.6962 48.4481 42.8689 48.7366 42.9665C48.8868 43.0133 49.0455 43.037 49.2053 43.0366C49.6358 43.0366 50.0182 42.8751 50.2243 42.788C50.7716 42.5571 52.0356 41.1834 53.1345 38.4738C53.2351 38.564 53.3378 38.6651 53.4404 38.7784C53.502 38.8479 53.5821 38.9398 53.6706 39.0361C54.116 39.5368 54.652 40.104 55.2829 40.5706C54.2569 40.9069 53.2358 41.2797 52.2431 41.6787C52.1855 41.7021 52.1411 41.7441 52.1193 41.7955C52.0976 41.847 52.1003 41.9037 52.1269 41.9534C52.1491 41.9936 52.1856 42.0267 52.231 42.0479C52.2347 42.0615 52.2402 42.0748 52.2473 42.0875C52.2607 42.112 52.2796 42.1341 52.3029 42.1524C52.3262 42.1706 52.3534 42.1848 52.3831 42.194C52.4127 42.2032 52.4442 42.2073 52.4757 42.2061C52.5072 42.2049 52.5381 42.1983 52.5667 42.1868C53.66 41.7469 54.7858 41.3406 55.9138 40.9794C56.6276 41.3772 57.3491 41.5703 58.1181 41.5703C58.5532 41.5673 58.9854 41.5088 59.4005 41.3966C60.5398 41.0963 61.0057 40.5085 60.8655 40.1076C60.8345 40.0193 60.7768 39.9397 60.6984 39.8768L60.702 39.8725ZM57.2769 35.5406C57.3108 35.5824 57.355 35.6173 57.4064 35.6426C57.4578 35.668 57.5151 35.6832 57.5742 35.6872C57.6332 35.6912 57.6926 35.6839 57.748 35.6658C57.8034 35.6477 57.8534 35.6193 57.8945 35.5826C57.9356 35.5459 57.9667 35.5018 57.9856 35.4535C58.0045 35.4052 58.0107 35.3538 58.0038 35.3032C57.9968 35.2526 57.977 35.2039 57.9456 35.1607C57.9142 35.1175 57.872 35.0808 57.8221 35.0533C57.7883 35.0115 57.744 34.9766 57.6926 34.9513C57.6412 34.9259 57.5839 34.9107 57.5249 34.9067C57.4658 34.9027 57.4065 34.91 57.3511 34.9281C57.2957 34.9462 57.2457 34.9746 57.2046 35.0113C57.1635 35.048 57.1324 35.0922 57.1135 35.1405C57.0946 35.1888 57.0884 35.2401 57.0953 35.2907C57.1022 35.3413 57.1221 35.39 57.1535 35.4332C57.1849 35.4764 57.227 35.5131 57.2769 35.5406Z" fill="#89D2D4"/>
<path d="M47.2382 15.2782C47.2637 15.4329 47.2294 15.5929 47.1416 15.7294C47.0538 15.8659 46.9182 15.9698 46.7593 16.0224L46.7165 16.0339C46.6128 16.0651 46.502 16.061 46.4037 16.0224C46.3735 15.9898 46.3477 15.9536 46.3268 15.9149C46.2981 15.8655 46.2813 15.8104 46.2775 15.7535C46.2738 15.6966 46.2832 15.6392 46.3052 15.5852C46.3865 15.3695 46.6329 15.1277 47.0373 14.8657C47.1359 14.988 47.2046 15.1297 47.239 15.2813L47.2382 15.2782ZM46.2425 14.0723C46.366 14.1774 46.4954 14.291 46.6184 14.405C46.4186 14.5311 46.2329 14.6765 46.0643 14.8386C46.1325 14.5768 46.193 14.3157 46.2425 14.0723ZM45.6627 12.6416C45.6793 12.6202 45.7014 12.6031 45.7269 12.5922C45.7363 12.6107 45.7443 12.6299 45.7509 12.6495C45.7633 12.6824 45.7856 12.7791 45.7654 13.0301C45.7185 12.9838 45.6789 12.9314 45.6477 12.8744C45.6272 12.8383 45.6179 12.7973 45.6205 12.7558C45.6232 12.7143 45.6378 12.6739 45.6627 12.6389L45.6627 12.6416ZM48.1002 12.7104C48.1255 12.5641 48.1901 12.3126 48.3413 12.2721C48.3534 12.2689 48.3659 12.2669 48.3784 12.2662C48.4722 12.2581 48.5659 12.2699 48.6529 12.3006C48.691 12.3487 48.7174 12.4044 48.7303 12.4637C48.8093 12.7961 48.5924 13.3058 48.1079 13.6194C48.0599 13.32 48.0565 13.0143 48.0975 12.7111L48.1002 12.7104ZM51.3825 14.0751C51.3618 14.0381 51.3299 14.0079 51.2908 13.9881C51.2517 13.9683 51.2069 13.9599 51.162 13.9638C51.1477 13.9666 51.1336 13.9704 51.1199 13.9751C51.067 13.9893 51.0205 14.0202 50.9883 14.0627C50.9561 14.1051 50.9402 14.1564 50.9434 14.2076C50.9691 14.6032 50.7173 15.5952 50.1659 15.9993C50.0797 16.0645 49.9813 16.1137 49.8763 16.144C49.7015 16.1864 49.5189 16.178 49.3529 16.1198C49.2955 16.101 49.2407 16.0761 49.1896 16.0455C48.8975 15.801 48.6194 15.3543 48.4055 14.7863C48.34 14.6113 48.2821 14.4302 48.2342 14.2458C48.6235 14.0749 48.9466 13.7896 49.1537 13.4338C49.3401 13.1101 49.407 12.7574 49.3375 12.4661C49.3145 12.3579 49.2681 12.2561 49.2013 12.1668C49.1345 12.0776 49.0486 12.0027 48.9489 11.9469C48.7688 11.7832 48.5151 11.7062 48.2146 11.7244C48.1682 11.7273 48.1222 11.7349 48.0773 11.7471C47.8605 11.8051 47.5822 11.9918 47.4862 12.5542C47.4249 12.9141 47.4462 13.3895 47.5471 13.8999C47.3688 13.9839 47.2023 14.0687 47.0497 14.1519C46.8312 13.9495 46.5935 13.7528 46.381 13.5776L46.335 13.5396C46.4004 13.088 46.4021 12.7736 46.3413 12.6054C46.2907 12.4353 46.1725 12.292 46.011 12.2048C45.9269 12.1193 45.8141 12.0636 45.6904 12.0465C45.6174 12.0371 45.5426 12.0423 45.4708 12.0617C45.3395 12.0984 45.2235 12.1751 45.1412 12.2795C45.0629 12.3791 45.0147 12.4963 45.0019 12.6182C44.9891 12.7401 45.0123 12.8618 45.0688 12.9698C45.1546 13.1481 45.3606 13.3445 45.6865 13.6188C45.6164 14.0207 45.5085 14.4823 45.3747 14.957C45.0007 16.2823 44.6679 16.8465 44.5712 16.9032L44.5505 16.9088C44.5341 16.9136 44.517 16.9159 44.5 16.9156C44.4261 16.8013 44.3733 16.6756 44.3437 16.5436C44.5138 15.715 44.7421 14.3113 44.401 14.0149C44.3706 13.9882 44.3344 13.9679 44.2947 13.9555C44.2823 13.9381 44.2677 13.9222 44.2512 13.9081C44.2158 13.8738 44.1712 13.8492 44.1218 13.8367C44.0724 13.8241 44.0199 13.8241 43.9697 13.8366L43.9523 13.8413C43.8028 13.8907 43.7436 14.0314 43.697 14.2264C43.5924 14.6925 43.5408 15.7201 43.713 16.4562C43.6283 16.852 43.5217 17.2811 43.3966 17.7319C43.3811 17.789 43.3898 17.8488 43.4209 17.8984C43.4521 17.948 43.5031 17.9833 43.5629 17.9966C43.578 18.0233 43.5989 18.0465 43.6242 18.0648C43.6496 18.083 43.679 18.096 43.7103 18.1027C43.7483 18.1111 43.7883 18.1101 43.8264 18.0998C43.8674 18.0892 43.905 18.0684 43.9352 18.0397C43.9653 18.0109 43.987 17.9753 43.9978 17.9365C44.0597 17.7126 44.1189 17.4867 44.1757 17.2628L44.2111 17.2822C44.2245 17.2955 44.2389 17.308 44.2541 17.3197C44.3279 17.3817 44.4178 17.4245 44.5155 17.4439C44.6131 17.4633 44.7153 17.4586 44.8122 17.4304C44.8322 17.4251 44.853 17.4195 44.8737 17.4139C45.0107 17.3658 45.2031 17.2277 45.4825 16.5846C45.5614 16.4031 45.6436 16.1905 45.7244 15.9569C45.7342 15.98 45.7453 16.0025 45.7575 16.0245C45.8368 16.1724 45.9576 16.296 46.1072 16.3823C46.2202 16.4831 46.3602 16.5532 46.5132 16.5858C46.6662 16.6183 46.8269 16.6122 46.9793 16.568C47.0028 16.5617 47.0268 16.5552 47.0502 16.549C47.3151 16.461 47.5411 16.2875 47.6873 16.0599C47.8335 15.8322 47.8903 15.5653 47.8475 15.3075C47.8114 15.0897 47.6928 14.8585 47.4856 14.6041C47.5533 14.5678 47.6238 14.5314 47.6977 14.4942C47.9739 15.3937 48.4217 16.1016 48.9082 16.4054C49.0342 16.5095 49.1803 16.5902 49.3391 16.6435C49.5924 16.7309 49.8706 16.7418 50.1361 16.6748C50.3019 16.6293 50.4575 16.5534 50.5939 16.4515C50.9932 16.1593 51.2292 15.6942 51.3564 15.3555C51.4978 14.9788 51.5776 14.5542 51.5598 14.2739C51.5568 14.227 51.5379 14.1829 51.5061 14.1477C51.4742 14.1126 51.431 14.0883 51.3827 14.0784L51.3825 14.0751ZM47.8641 17.8391C47.7097 18.0818 47.4374 18.3231 47.0997 18.5263C46.7816 18.7204 46.4362 18.8697 46.0748 18.9693C45.6203 19.0895 45.1472 19.1189 44.6862 19.0556C45.3199 18.6403 45.8163 18.3389 46.1335 18.1526C46.6544 17.8466 47.1228 17.6332 47.4874 17.5355C47.5442 17.5203 47.5991 17.5056 47.6508 17.4978C47.7608 17.4744 47.8736 17.4691 47.9843 17.4822C47.9959 17.5522 47.9712 17.6742 47.8648 17.8389L47.8641 17.8391ZM40.8355 16.7576C40.8406 16.6724 40.8452 16.588 40.8495 16.5049C40.9178 15.1542 41.0567 13.2082 41.5069 11.68C41.7945 11.9377 42.0254 12.2465 42.1873 12.5899C42.4781 13.1829 42.4476 14.0351 42.1064 14.9343C41.8183 15.6946 41.3446 16.3723 40.8348 16.7578L40.8355 16.7576ZM39.7346 17.3398C39.7011 17.3489 39.6669 17.3556 39.6324 17.3598C39.6614 17.3399 39.6941 17.3254 39.7286 17.3172C39.7711 17.3062 39.8148 17.3002 39.8585 17.2992C39.8179 17.3146 39.7766 17.3282 39.7346 17.3398ZM48.3015 17.1114C48.0446 16.8535 47.5776 16.9088 47.2284 17.0024C46.8103 17.1144 46.3147 17.3385 45.7475 17.6676C45.4187 17.861 44.743 18.2722 43.8685 18.8561C43.0687 18.5846 42.3468 18.1138 41.744 17.6863L41.5259 17.5307C41.4939 17.5077 41.4628 17.4852 41.432 17.4639L41.4106 17.4482L41.3759 17.4233C41.3063 17.3748 41.236 17.3266 41.1657 17.2783C41.7893 16.8496 42.3566 16.0743 42.6969 15.1767C43.0795 14.1697 43.1034 13.1939 42.7623 12.4989C42.4975 11.96 42.1246 11.5212 41.6832 11.2302L41.6581 11.2114C41.847 10.6912 42.0697 10.2672 42.3205 9.95375C42.344 9.92399 42.3596 9.88942 42.3657 9.85315C42.3718 9.81688 42.3683 9.78005 42.3555 9.74595C42.3428 9.71186 42.3211 9.68157 42.2926 9.65781C42.264 9.63406 42.2294 9.61757 42.1918 9.60984C42.1761 9.58208 42.1543 9.55798 42.1277 9.53913C42.0999 9.51967 42.0675 9.50657 42.033 9.50082C41.9986 9.49506 41.9629 9.49679 41.9288 9.50588C41.8783 9.51975 41.8334 9.54874 41.8011 9.58841C41.5277 9.93003 41.2968 10.3582 41.0966 10.8929C40.9576 10.8354 40.8129 10.7904 40.6641 10.7585C40.1998 10.6646 39.7139 10.6842 39.2519 10.8156C38.6686 10.9719 38.0459 11.289 37.4015 11.7576C35.9308 12.8272 35.3528 14.0549 35.1266 14.8965C34.9982 15.3595 34.9519 15.837 34.9896 16.3092C35.026 16.6967 35.1305 17.0303 35.2845 17.2494C35.3816 17.3913 35.5089 17.5122 35.6586 17.6047C35.8079 17.7284 35.9893 17.8131 36.1858 17.8508C36.3823 17.8885 36.5874 17.878 36.7818 17.8203C36.8986 17.7898 37.0109 17.7445 37.1158 17.6859C37.1424 17.6707 37.1659 17.6508 37.1847 17.6273C37.2035 17.6038 37.2173 17.5772 37.2254 17.5489C37.2335 17.5207 37.2357 17.4915 37.2318 17.4629C37.2279 17.4342 37.2181 17.4068 37.2029 17.3821C37.1872 17.3569 37.1662 17.3351 37.1412 17.3179C37.1161 17.3008 37.0876 17.2887 37.0571 17.2823L37.0551 17.2748C37.0298 17.2338 36.9907 17.2022 36.9439 17.1847C36.897 17.1673 36.8449 17.1649 36.7954 17.178C36.7746 17.1834 36.7546 17.1917 36.7361 17.2026C36.6652 17.2397 36.5902 17.2688 36.5126 17.2893C36.3245 17.3458 36.1228 17.3307 35.9514 17.2471C35.9047 17.2035 35.8629 17.1553 35.8269 17.1034C35.605 16.7891 35.4805 16.0274 35.7299 15.0985C35.9369 14.3271 36.4695 13.2002 37.83 12.2144C38.4252 11.7811 38.992 11.4911 39.5158 11.3507C39.9027 11.2407 40.3096 11.224 40.6987 11.3021C40.7807 11.3203 40.8612 11.3435 40.9396 11.3717C40.57 12.5664 40.342 14.2122 40.2311 16.3909C40.2241 16.5336 40.2157 16.6761 40.2068 16.8167C39.9702 16.741 39.7136 16.7298 39.4661 16.7844C39.3551 16.8125 39.2519 16.865 39.1651 16.9375C38.9903 17.0877 38.9371 17.3066 39.0407 17.4687L39.0479 17.4795C39.1087 17.5926 39.2031 17.6858 39.3199 17.7481C39.3936 17.8246 39.4912 17.8769 39.5995 17.8979C39.7321 17.9203 39.8696 17.9115 40 17.8725C40.0381 17.8623 40.0776 17.8517 40.1179 17.8362C39.9387 19.4367 39.6309 20.5034 39.3977 21.1235C39.1074 21.9131 38.8358 22.2562 38.7571 22.3209C38.6152 22.4388 38.3529 22.656 38.0478 22.7378C37.9512 22.7646 37.8508 22.7751 37.7515 22.7689C37.6038 22.7559 37.4631 22.7086 37.3417 22.6311C37.2517 22.5558 37.1692 22.4728 37.0953 22.3831C36.3262 21.4607 37.4679 20.4986 37.5168 20.4587C37.5491 20.4315 37.5732 20.3967 37.5865 20.3581C37.5998 20.3195 37.6018 20.2785 37.5923 20.2396C37.5827 20.2007 37.562 20.1654 37.5324 20.1374C37.5028 20.1095 37.4653 20.09 37.4241 20.081C37.4161 20.0669 37.4066 20.0538 37.3957 20.0416C37.3557 19.9983 37.2986 19.9723 37.2369 19.9692C37.1753 19.9661 37.114 19.9862 37.0665 20.0252C37.0513 20.038 35.5354 21.311 36.5751 22.5581C36.7089 22.724 36.8687 22.8695 37.0493 22.9899C37.2703 23.1771 37.5501 23.2923 37.8496 23.3196C38.0044 23.3297 38.1608 23.3139 38.3117 23.2729C38.7184 23.1639 39.0352 22.9013 39.2059 22.7596C39.6594 22.3838 40.4752 20.6522 40.7674 17.5897C40.8872 17.6569 41.012 17.7348 41.1402 17.8253C41.2175 17.881 41.3185 17.9553 41.4286 18.0318C41.9872 18.4336 42.6498 18.8807 43.3743 19.2005C42.4976 19.8058 41.6356 20.4473 40.8076 21.1086C40.7597 21.1472 40.7292 21.2016 40.7228 21.26C40.7165 21.3184 40.7347 21.376 40.7735 21.4204C40.8056 21.456 40.8491 21.4807 40.8979 21.491C40.9052 21.5041 40.914 21.5164 40.9242 21.5276C40.9436 21.5495 40.9675 21.5673 40.9945 21.5802C41.0215 21.5931 41.0512 21.6008 41.0818 21.6027C41.1123 21.6047 41.1432 21.601 41.1726 21.5917C41.202 21.5824 41.2294 21.5679 41.2532 21.5488C42.1649 20.8201 43.1167 20.1176 44.0829 19.4608C44.8667 19.6889 45.6015 19.7047 46.328 19.51C46.7382 19.3969 47.1304 19.2274 47.4916 19.007C48.4853 18.41 48.7636 17.688 48.5208 17.3116C48.4671 17.2287 48.3907 17.1615 48.2993 17.1167L48.3015 17.1114ZM43.8731 13.527C43.9166 13.5614 43.968 13.586 44.0235 13.5991C44.079 13.6121 44.1374 13.6133 44.1943 13.6024C44.2512 13.5916 44.3052 13.5691 44.3526 13.5365C44.3999 13.5038 44.4394 13.462 44.4681 13.4138C44.4968 13.3657 44.514 13.3125 44.5186 13.2581C44.5231 13.2037 44.5148 13.1494 44.4944 13.0991C44.4739 13.0488 44.4417 13.0039 44.4002 12.9674C44.3586 12.9309 44.3087 12.9039 44.254 12.8882C44.2105 12.8539 44.1591 12.8293 44.1036 12.8162C44.048 12.8032 43.9897 12.802 43.9328 12.8129C43.8759 12.8237 43.8218 12.8462 43.7745 12.8788C43.7271 12.9114 43.6877 12.9533 43.659 13.0015C43.6303 13.0496 43.6131 13.1028 43.6085 13.1572C43.604 13.2116 43.6122 13.2659 43.6327 13.3162C43.6532 13.3664 43.6853 13.4114 43.7269 13.4479C43.7685 13.4844 43.8184 13.5114 43.8731 13.527Z" fill="#89D2D4"/>
</svg>
