<svg width="58" height="65" viewBox="0 0 58 65" fill="none" xmlns="http://www.w3.org/2000/svg">
<path d="M1 63.9882L5.82564 58.1823M57.0001 63.9882L51.7501 58.1823M51.7501 58.1823L47.3751 53.0507H9.75001L5.82564 58.1823M51.7501 58.1823H5.82564" stroke="#2D404B" stroke-linecap="round" stroke-linejoin="round"/>
<path d="M9.75135 53.0508L2.77734 48.6758V14.9882C2.77734 8.42565 6.25105 0.99996 16.75 1C27.25 1.00004 38.4796 1 41.6884 1C49.5625 1 55 6.25075 55 15.0009C55 24.8071 55 48.6758 55 48.6758L46.9662 53.0508" stroke="#2D404B" stroke-linecap="round" stroke-linejoin="round"/>
<path d="M8.875 21.4882C8.875 15.9653 13.3522 11.4882 18.875 11.4882H38.25C43.7729 11.4882 48.25 15.9653 48.25 21.4882V32.4882H8.875V21.4882Z" stroke="#2D404B" stroke-linecap="round" stroke-linejoin="round"/>
<circle cx="13.25" cy="41.2382" r="3.875" fill="#89D2D4" stroke="#2D404B"/>
<circle cx="44.75" cy="41.2382" r="3.875" fill="#89D2D4" stroke="#2D404B"/>
<path d="M35.125 39.4882H22.875C21.9085 39.4882 21.125 40.2717 21.125 41.2382C21.125 42.2047 21.9085 42.9882 22.875 42.9882H35.125C36.0915 42.9882 36.875 42.2047 36.875 41.2382C36.875 40.2717 36.0915 39.4882 35.125 39.4882Z" stroke="#2D404B" stroke-linecap="round" stroke-linejoin="round"/>
<path d="M42.125 7.5625C42.125 8.77063 43.1044 9.75 44.3125 9.75C45.5206 9.75 46.5 8.77063 46.5 7.5625C46.5 6.35438 45.5206 5.375 44.3125 5.375C43.1044 5.375 42.125 6.35438 42.125 7.5625Z" stroke="#2D404B" stroke-linecap="round" stroke-linejoin="round"/>
<path d="M35.125 45.6132H22.875C21.9085 45.6132 21.125 46.3967 21.125 47.3632C21.125 48.3297 21.9085 49.1132 22.875 49.1132H35.125C36.0915 49.1132 36.875 48.3297 36.875 47.3632C36.875 46.3967 36.0915 45.6132 35.125 45.6132Z" stroke="#2D404B" stroke-linecap="round" stroke-linejoin="round"/>
<path d="M10.625 7.5625C10.625 8.77063 11.6044 9.75 12.8125 9.75C14.0206 9.75 15 8.77063 15 7.5625C15 6.35438 14.0206 5.375 12.8125 5.375C11.6044 5.375 10.625 6.35438 10.625 7.5625Z" stroke="#2D404B" stroke-linecap="round" stroke-linejoin="round"/>
</svg>
