<svg width="23" height="30" viewBox="0 0 23 30" fill="none" xmlns="http://www.w3.org/2000/svg">
<path d="M12.6562 1.44665C12.6562 0.0403975 10.7812 -0.54554 10.0195 0.626335C4.45312 9.29821 11.7188 13.9857 11.7188 16.8568C11.7188 18.2045 10.6641 19.2006 9.375 19.2006C8.02734 19.2006 7.03125 18.2045 7.03125 16.8568V10.7045C7.03125 9.53259 5.74219 8.88805 4.80469 9.53259C1.75781 11.642 0 15.099 0 18.7318C0 24.9427 5.03906 29.9818 11.25 29.9818C17.4023 29.9818 22.5 24.9427 22.5 18.7318C22.5 8.77087 12.6562 7.4818 12.6562 1.44665ZM11.25 27.1693C6.5625 27.1693 2.8125 23.4193 2.8125 18.7318C2.8125 17.0912 3.28125 14.9818 4.21875 13.5756V16.8568C4.21875 19.7279 6.50391 22.0131 9.375 22.0131C12.1875 22.0131 14.5312 19.7279 14.5312 16.8568C14.5312 13.1068 9.375 9.82555 10.7812 4.6693C13.125 9.82555 19.6875 11.8177 19.6875 18.7318C19.6875 23.4193 15.8789 27.1693 11.25 27.1693Z" fill="white"/>
</svg>
