<svg width="38" height="27" viewBox="0 0 38 27" fill="none" xmlns="http://www.w3.org/2000/svg">
<path d="M37.0312 11.25H35.625V7.03125C35.625 5.27344 34.1016 3.75 32.3438 3.75H30.4688C30.293 3.75 30.1172 3.80859 30 3.80859V3.28125C30 1.52344 28.4766 0 26.7188 0H24.8438C23.0273 0 21.5625 1.52344 21.5625 3.28125V11.25H15.9375V3.28125C15.9375 1.52344 14.4141 0 12.6562 0H10.7812C8.96484 0 7.5 1.52344 7.5 3.28125V3.80859C7.32422 3.80859 7.14844 3.75 7.03125 3.75H5.15625C3.33984 3.75 1.875 5.27344 1.875 7.03125V11.25H0.46875C0.175781 11.25 0 11.4844 0 11.7188V14.5312C0 14.8242 0.175781 15 0.46875 15H1.875V19.2188C1.875 21.0352 3.33984 22.5 5.15625 22.5H7.03125C7.14844 22.5 7.32422 22.5 7.5 22.5V22.9688C7.5 24.7852 8.96484 26.25 10.7812 26.25H12.6562C14.4141 26.25 15.9375 24.7852 15.9375 22.9688V15H21.5625V22.9688C21.5625 24.7852 23.0273 26.25 24.8438 26.25H26.7188C28.4766 26.25 30 24.7852 30 22.9688V22.5C30.1172 22.5 30.293 22.5 30.4688 22.5H32.3438C34.1016 22.5 35.625 21.0352 35.625 19.2188V15H37.0312C37.2656 15 37.5 14.8242 37.5 14.5312V11.7188C37.5 11.4844 37.2656 11.25 37.0312 11.25ZM7.03125 19.6875H5.15625C4.86328 19.6875 4.6875 19.5117 4.6875 19.2188V7.03125C4.6875 6.79688 4.86328 6.5625 5.15625 6.5625H7.03125C7.26562 6.5625 7.5 6.79688 7.5 7.03125V19.2188C7.5 19.5117 7.26562 19.6875 7.03125 19.6875ZM13.125 22.9688C13.125 23.2617 12.8906 23.4375 12.6562 23.4375H10.7812C10.4883 23.4375 10.3125 23.2617 10.3125 22.9688V3.28125C10.3125 3.04688 10.4883 2.8125 10.7812 2.8125H12.6562C12.8906 2.8125 13.125 3.04688 13.125 3.28125V22.9688ZM27.1875 22.9688C27.1875 23.2617 26.9531 23.4375 26.7188 23.4375H24.8438C24.5508 23.4375 24.375 23.2617 24.375 22.9688V3.28125C24.375 3.04688 24.5508 2.8125 24.8438 2.8125H26.7188C26.9531 2.8125 27.1875 3.04688 27.1875 3.28125V22.9688ZM32.8125 19.2188C32.8125 19.5117 32.5781 19.6875 32.3438 19.6875H30.4688C30.1758 19.6875 30 19.5117 30 19.2188V7.03125C30 6.79688 30.1758 6.5625 30.4688 6.5625H32.3438C32.5781 6.5625 32.8125 6.79688 32.8125 7.03125V19.2188Z" fill="white"/>
</svg>
