<svg width="31" height="22" viewBox="0 0 31 22" fill="none" xmlns="http://www.w3.org/2000/svg">
<path d="M4.55759 11.6111H4.76475H4.55759C4.62664 11.5432 4.66117 11.4753 4.66117 11.4074L4.55759 11.6111ZM6.7328 2.64814C6.7328 2.64814 6.69827 2.6821 6.62922 2.75C6.62922 2.75 6.62922 2.8179 6.62922 2.9537C6.62922 2.9537 6.69827 2.8858 6.83638 2.75H6.7328V2.64814ZM5.48982 4.37963V4.27778L5.28265 4.37963C5.28265 4.44753 5.28265 4.48148 5.28265 4.48148C5.35171 4.48148 5.38624 4.51543 5.38624 4.58333V4.37963H5.48982ZM5.38624 9.67592C5.11002 10.0833 4.97191 10.2531 4.97191 10.1852C4.97191 10.4568 4.97191 10.5926 4.97191 10.5926C5.04096 10.6605 5.11002 10.6605 5.17908 10.5926C5.24813 10.5247 5.28265 10.4568 5.28265 10.3889C5.42076 10.1173 5.45529 9.87963 5.38624 9.67592ZM7.2507 2.34259C7.73409 2.00308 8.14841 1.73148 8.49368 1.52778C8.90801 1.32407 9.32234 1.22222 9.73666 1.22222C9.80572 1.22222 10.1165 1.08642 10.6689 0.81481C10.9451 0.67901 11.1868 0.611109 11.394 0.611109C11.6702 0.543208 11.8773 0.543208 12.0155 0.611109C12.1536 0.611109 12.2917 0.577159 12.4298 0.509258C12.706 0.441354 13.0513 0.271601 13.4656 0C14.2252 0.543207 14.9848 0.848762 15.7444 0.916667C16.6421 0.984567 16.9874 1.49383 16.7802 2.44444C16.573 2.78395 16.4349 3.15741 16.3659 3.56481C15.192 6.41666 14.1561 9.26852 13.2584 12.1204C13.1203 12.5957 12.9822 13.037 12.8441 13.4444C12.706 13.8519 12.5679 14.2932 12.4298 14.7685C12.2917 15.108 12.1881 15.4475 12.119 15.787C12.05 16.0586 11.8428 16.3642 11.4975 16.7037C11.3594 16.9074 11.2904 17.1111 11.2904 17.3148C11.2904 17.5185 11.2904 17.7222 11.2904 17.9259C11.3594 18.0617 11.3594 18.1975 11.2904 18.3333C11.2213 18.4691 11.1523 18.537 11.0832 18.537C10.4617 18.8086 10.151 19.284 10.151 19.963C10.0819 20.5062 9.70213 20.8796 9.01159 21.0833C8.73537 21.2191 8.45915 21.287 8.18294 21.287L6.62922 21.5926C6.353 21.7284 6.18036 21.7624 6.11131 21.6945C5.76603 21.4907 5.42076 21.4568 5.07549 21.5926C4.73022 21.6605 4.35042 21.7624 3.93609 21.8981C3.3146 21.9661 2.72764 21.9661 2.17521 21.8981C1.89899 21.8302 1.55372 21.8302 1.1394 21.8981C0.794123 21.9661 0.448851 22 0.10358 22C0.10358 21.8642 0.0690534 21.7284 0 21.5926C0 21.3889 0.0345265 21.2191 0.10358 21.0833C0.379798 19.9969 0.656015 18.9444 0.932233 17.9259C1.20845 16.8395 1.48467 15.787 1.76088 14.7685C1.89899 14.429 1.96805 14.1235 1.96805 13.8519C2.0371 13.5802 2.14068 13.2747 2.27879 12.9352C2.34785 12.7315 2.4169 12.5278 2.48595 12.3241C2.55501 12.0525 2.65859 11.8148 2.7967 11.6111C3.00386 11.3395 3.14197 11.1019 3.21102 10.8982C3.34913 10.6944 3.34913 10.4568 3.21102 10.1852C3.14197 10.1173 3.1765 9.91358 3.31461 9.57407C3.65988 8.41975 4.03968 7.26543 4.454 6.11111C4.86833 4.88889 5.28266 3.66667 5.69698 2.44444C5.69698 2.37654 5.69698 2.30864 5.69698 2.24074C5.76604 2.17284 5.80056 2.10494 5.80056 2.03704L6.31847 1.52778C6.66374 1.39197 6.87091 1.42592 6.93996 1.62963C6.93996 1.76543 6.97449 1.90123 7.04354 2.03704C7.1126 2.17284 7.18165 2.30864 7.2507 2.44444V2.34259Z" fill="white"/>
<path d="M18.7191 11.6111H18.9263H18.7191C18.7882 11.5432 18.8227 11.4753 18.8227 11.4074L18.7191 11.6111ZM20.8943 2.64814C20.8943 2.64814 20.8598 2.6821 20.7908 2.75C20.7908 2.75 20.7908 2.8179 20.7908 2.9537C20.7908 2.9537 20.8598 2.8858 20.9979 2.75H20.8943V2.64814ZM19.6514 4.37963V4.27778L19.4442 4.37963C19.4442 4.44753 19.4442 4.48148 19.4442 4.48148C19.5132 4.48148 19.5478 4.51543 19.5478 4.58333V4.37963H19.6514ZM19.5478 9.67592C19.2716 10.0833 19.1334 10.2531 19.1334 10.1852C19.1334 10.4568 19.1334 10.5926 19.1334 10.5926C19.2025 10.6605 19.2716 10.6605 19.3406 10.5926C19.4097 10.5247 19.4442 10.4568 19.4442 10.3889C19.5823 10.1173 19.6168 9.87963 19.5478 9.67592ZM21.4122 2.34259C21.8956 2.00308 22.3099 1.73148 22.6552 1.52778C23.0695 1.32407 23.4839 1.22222 23.8982 1.22222C23.9672 1.22222 24.278 1.08642 24.8304 0.81481C25.1066 0.67901 25.3483 0.611109 25.5555 0.611109C25.8317 0.543208 26.0389 0.543208 26.177 0.611109C26.3151 0.611109 26.4532 0.577159 26.5913 0.509258C26.8675 0.441354 27.2128 0.271601 27.6271 0C28.3867 0.543207 29.1463 0.848762 29.9059 0.916667C30.8036 0.984567 31.1489 1.49383 30.9417 2.44444C30.7346 2.78395 30.5965 3.15741 30.5274 3.56481C29.3535 6.41666 28.3177 9.26852 27.42 12.1204C27.2819 12.5957 27.1437 13.037 27.0056 13.4444C26.8675 13.8519 26.7294 14.2932 26.5913 14.7685C26.4532 15.108 26.3496 15.4475 26.2806 15.787C26.2115 16.0586 26.0043 16.3642 25.6591 16.7037C25.521 16.9074 25.4519 17.1111 25.4519 17.3148C25.4519 17.5185 25.4519 17.7222 25.4519 17.9259C25.521 18.0617 25.521 18.1975 25.4519 18.3333C25.3829 18.4691 25.3138 18.537 25.2448 18.537C24.6233 18.8086 24.3125 19.284 24.3125 19.963C24.2435 20.5062 23.8637 20.8796 23.1731 21.0833C22.8969 21.2191 22.6207 21.287 22.3445 21.287L20.7908 21.5926C20.5145 21.7284 20.3419 21.7624 20.2728 21.6945C19.9276 21.4907 19.5823 21.4568 19.237 21.5926C18.8918 21.6605 18.512 21.7624 18.0976 21.8981C17.4761 21.9661 16.8892 21.9661 16.3367 21.8981C16.0605 21.8302 15.7153 21.8302 15.3009 21.8981C14.9557 21.9661 14.6104 22 14.2651 22C14.2651 21.8642 14.2306 21.7284 14.1615 21.5926C14.1615 21.3889 14.1961 21.2191 14.2651 21.0833C14.5413 19.9969 14.8176 18.9444 15.0938 17.9259C15.37 16.8395 15.6462 15.787 15.9224 14.7685C16.0605 14.429 16.1296 14.1235 16.1296 13.8519C16.1986 13.5802 16.3022 13.2747 16.4403 12.9352C16.5094 12.7315 16.5784 12.5278 16.6475 12.3241C16.7165 12.0525 16.8201 11.8148 16.9582 11.6111C17.1654 11.3395 17.3035 11.1019 17.3726 10.8982C17.5107 10.6944 17.5107 10.4568 17.3726 10.1852C17.3035 10.1173 17.338 9.91358 17.4761 9.57407C17.8214 8.41975 18.2012 7.26543 18.6155 6.11111C19.0299 4.88889 19.4442 3.66667 19.8585 2.44444C19.8585 2.37654 19.8585 2.30864 19.8585 2.24074C19.9276 2.17284 19.9621 2.10494 19.9621 2.03704L20.48 1.52778C20.8253 1.39197 21.0324 1.42592 21.1015 1.62963C21.1015 1.76543 21.136 1.90123 21.2051 2.03704C21.2741 2.17284 21.3432 2.30864 21.4122 2.44444V2.34259Z" fill="white"/>
</svg>
