<svg width="20" height="12" viewBox="0 0 20 12" fill="none" xmlns="http://www.w3.org/2000/svg">
<path d="M13.8925 0.175439L13.5351 0.502924C13.3565 0.736842 13.3565 1.06433 13.5351 1.29825L17.2872 5.18129H0.536807C0.224132 5.18129 0.000793457 5.46199 0.000793457 5.74269V6.21053C0.000793457 6.53801 0.224132 6.77193 0.536807 6.77193H17.2872L13.5351 10.7018C13.3565 10.9357 13.3565 11.2632 13.5351 11.4971L13.8925 11.8246C14.0711 12.0585 14.4285 12.0585 14.6518 11.8246L19.8333 6.39766C20.0566 6.16374 20.0566 5.83626 19.8333 5.60234L14.6518 0.175439C14.4285 -0.0584795 14.0711 -0.0584795 13.8925 0.175439Z" fill="white"/>
</svg>
