<svg width="20" height="12" viewBox="0 0 20 12" fill="none" xmlns="http://www.w3.org/2000/svg">
<path d="M13.8917 0.175439L13.5343 0.502924C13.3557 0.736842 13.3557 1.06433 13.5343 1.29825L17.2864 5.18129H0.536013C0.223339 5.18129 0 5.46199 0 5.74269V6.21053C0 6.53801 0.223339 6.77193 0.536013 6.77193H17.2864L13.5343 10.7018C13.3557 10.9357 13.3557 11.2632 13.5343 11.4971L13.8917 11.8246C14.0704 12.0585 14.4277 12.0585 14.651 11.8246L19.8325 6.39766C20.0558 6.16374 20.0558 5.83626 19.8325 5.60234L14.651 0.175439C14.4277 -0.0584795 14.0704 -0.0584795 13.8917 0.175439Z" fill="black"/>
</svg>
