<svg width="31" height="30" viewBox="0 0 31 30" fill="none" xmlns="http://www.w3.org/2000/svg">
<path d="M29.3873 3.89444L25.4029 2.48819L25.7544 1.60928C25.9302 1.08194 25.6958 0.554592 25.1685 0.378811L24.2896 0.0858423C23.8208 -0.0899389 23.2935 0.144436 23.1177 0.613186L22.7662 1.49209L18.8404 0.0858423C18.1958 -0.207126 17.7271 0.320217 17.6099 0.613186L15.0318 7.64444C14.856 8.17178 15.149 8.69912 15.6177 8.8749L19.6021 10.2812L18.6646 12.8593L15.7349 11.8632L12.8052 8.46475C12.1607 7.82022 11.3404 7.46865 10.4615 7.46865H6.77006C5.53959 7.46865 4.42631 8.17178 3.84037 9.28506L0.148969 16.7265C-0.202594 17.4296 0.0903751 18.2499 0.7935 18.6015C1.61381 19.0116 2.37553 18.5429 2.6685 17.9569L5.65678 12.039V17.7226L4.25053 28.3866C4.13334 29.2069 4.66069 29.9101 5.42241 29.9687C5.481 29.9687 5.59819 29.9687 5.65678 29.9687C6.30131 29.9687 6.94584 29.4999 7.00444 28.7968L8.2935 19.1874H9.11381L12.1021 23.8163C12.1607 23.8749 12.1607 23.9921 12.1607 24.1093V28.5624C12.1607 29.3827 12.8052 29.9687 13.5669 29.9687C14.3872 29.9687 14.9732 29.3827 14.9732 28.5624V24.1093C14.9732 23.3476 14.7388 22.6444 14.3872 22.1757L11.2232 17.371V10.9843L13.6841 13.7968C14.0357 14.1483 14.5044 14.4413 14.9732 14.6171L17.6685 15.496L16.8482 17.7226C16.6724 18.2499 16.9654 18.7772 17.4341 18.953L18.313 19.246C18.7818 19.4218 19.3091 19.1874 19.4849 18.7187L22.2388 11.2772L26.1646 12.6835C26.8677 12.9765 27.2779 12.4491 27.3951 12.1562L29.9732 5.1249C30.149 4.59756 29.856 4.07022 29.3873 3.89444ZM25.4029 9.40225L18.313 6.88272L19.6021 3.36709L26.6919 5.88662L25.4029 9.40225ZM8.46928 5.65225C9.99272 5.65225 11.2818 4.36319 11.2818 2.83975C11.2818 1.25772 9.99272 0.0272486 8.46928 0.0272486C6.88725 0.0272486 5.65678 1.25772 5.65678 2.83975C5.65678 4.36319 6.88725 5.65225 8.46928 5.65225Z" fill="white"/>
</svg>
