<svg width="325" height="5" viewBox="0 0 325 5" fill="none" xmlns="http://www.w3.org/2000/svg">
<path fill-rule="evenodd" clip-rule="evenodd" d="M272.474 2.62696C273.506 3.52869 274.676 4.54845 276.989 4.54845C277.034 4.54845 277.079 4.54806 277.123 4.54729C277.204 4.54991 277.287 4.55125 277.371 4.55125C277.432 4.54977 277.492 4.54239 277.551 4.52929L277.551 4.52728C279.491 4.37718 280.551 3.4561 281.495 2.63504L281.504 2.62696L281.506 2.62525C282.462 1.79013 283.287 1.06917 284.959 1.06917C286.632 1.06917 287.458 1.78974 288.415 2.62559C289.447 3.52869 290.618 4.54708 292.93 4.54708C295.243 4.54708 296.413 3.52869 297.444 2.62559C298.4 1.78974 299.227 1.06918 300.9 1.06918C302.573 1.06918 303.398 1.78974 304.354 2.62559C305.386 3.52869 306.557 4.54708 308.87 4.54708C311.182 4.54708 312.355 3.52869 313.387 2.62559C314.343 1.78974 315.168 1.06918 316.841 1.06918C318.514 1.06918 319.341 1.78974 320.297 2.62559C321.329 3.52869 322.5 4.5512 324.82 4.5512C324.881 4.54973 324.941 4.54235 325 4.52924L325 3.50124C324.941 3.48814 324.881 3.48076 324.82 3.47928C323.147 3.47928 322.32 2.75735 321.364 1.9215C320.332 1.01977 319.161 1.92449e-06 316.848 1.72232e-06C314.543 1.52075e-06 313.374 1.0164 312.342 1.91342L312.333 1.9215L312.331 1.9232C311.376 2.75833 310.551 3.47928 308.879 3.47928C307.205 3.47928 306.379 2.75735 305.422 1.9215C304.39 1.01977 303.22 5.30859e-07 300.909 3.28845e-07C298.599 1.26945e-07 297.427 1.02134 296.395 1.91996L296.394 1.9215C295.437 2.75735 294.611 3.47928 292.937 3.47928C291.264 3.47928 290.437 2.75735 289.481 1.9215C288.449 1.01976 287.278 -8.62771e-07 284.966 -1.06494e-06C282.66 -1.26651e-06 281.491 1.0164 280.46 1.91342L280.451 1.92149L280.449 1.9232C279.529 2.72667 278.731 3.42445 277.183 3.4762C275.634 3.42404 274.834 2.72548 273.914 1.92154C272.882 1.01981 271.712 4.42569e-05 269.399 4.40787e-05C269.369 4.40764e-05 269.339 0.000218626 269.309 0.00056517L269.295 -2.43496e-06L269.295 0.000745156C267.058 0.0309278 265.909 1.03008 264.893 1.91346L264.884 1.92154L264.882 1.92324C263.926 2.75837 263.101 3.47932 261.429 3.47932C259.756 3.47932 258.929 2.75739 257.973 1.92154C256.941 1.01981 255.77 4.30287e-05 253.46 4.28507e-05C251.15 4.26727e-05 249.978 1.02138 248.946 1.92L248.944 1.92154C247.988 2.75739 247.161 3.47932 245.488 3.47932C243.815 3.47932 242.988 2.75739 242.032 1.92154C241 1.01981 239.829 4.18005e-05 237.517 4.16224e-05C235.211 4.14447e-05 234.042 1.01644 233.011 1.91346L233.001 1.92154L232.999 1.92324C232.08 2.72668 231.282 3.42445 229.734 3.47624C228.184 3.42438 227.384 2.72568 226.464 1.92154C225.432 1.01981 224.261 4.45669e-05 221.949 4.43888e-05C221.919 4.43865e-05 221.889 0.000219124 221.859 0.000566042L221.845 4.0415e-05L221.845 0.000732196C219.608 0.0306338 218.459 1.02995 217.443 1.91346L217.434 1.92154L217.432 1.92324C216.476 2.75837 215.651 3.47932 213.979 3.47932C212.306 3.47932 211.479 2.75739 210.523 1.92154C209.491 1.01981 208.32 4.33388e-05 206.009 4.31607e-05C203.7 4.29828e-05 202.527 1.02138 201.496 1.92L201.494 1.92154C200.605 2.69842 199.828 3.37689 198.38 3.46876C196.931 3.37688 196.154 2.69842 195.265 1.92154C194.233 1.01981 193.063 4.40978e-05 190.75 4.38963e-05C190.633 4.38861e-05 190.519 0.00264938 190.408 0.00771298C190.297 0.00264795 190.183 4.19414e-05 190.066 4.19324e-05C187.761 4.17548e-05 186.592 1.01643 185.56 1.91345L185.551 1.92154L185.549 1.92325C184.661 2.69941 183.886 3.37695 182.438 3.46875C180.99 3.37688 180.213 2.69841 179.324 1.92154C178.292 1.01981 177.121 4.27085e-05 174.811 4.25071e-05C174.71 4.24984e-05 174.612 0.0019664 174.516 0.00572067C174.476 0.00350767 174.436 0.00161204 174.395 4.07251e-05L174.395 0.0114719C172.357 0.125795 171.265 1.07689 170.297 1.91996L170.297 1.92L170.295 1.92154C169.339 2.75739 168.512 3.47932 166.839 3.47932C165.166 3.47932 164.339 2.75739 163.383 1.92154C162.351 1.01981 161.18 4.13192e-05 158.867 4.11176e-05C156.562 4.09167e-05 155.393 1.01643 154.361 1.91345L154.352 1.92154L154.35 1.92324C153.431 2.72659 152.633 3.42429 151.085 3.47622C149.536 3.42422 148.736 2.72559 147.816 1.92154C146.784 1.01981 145.613 4.4467e-05 143.301 4.42888e-05C143.27 4.42865e-05 143.24 0.000222 143.21 0.000574803L143.196 3.97518e-05L143.196 0.00074542C140.96 0.0309292 139.811 1.03008 138.795 1.91347L138.785 1.92154L138.784 1.92323C137.828 2.75836 137.003 3.47932 135.331 3.47932C133.658 3.47932 132.831 2.75739 131.875 1.92154C130.843 1.01981 129.672 4.32388e-05 127.361 4.30608e-05C125.052 4.28829e-05 123.879 1.02135 122.848 1.91995L122.848 1.92001L122.846 1.92154C121.89 2.75739 121.063 3.47932 119.39 3.47932C117.717 3.47932 116.89 2.75739 115.933 1.92154C114.901 1.01981 113.731 4.20106e-05 111.418 4.18325e-05C109.113 4.16548e-05 107.944 1.01644 106.912 1.91346L106.903 1.92154L106.901 1.92323C105.982 2.72658 105.184 3.42429 103.636 3.47622C102.087 3.42422 101.287 2.72559 100.367 1.92154C99.3347 1.01981 98.1641 4.43003e-05 95.8515 4.41221e-05C95.821 4.41197e-05 95.7907 0.000221865 95.7606 0.000574732L95.7471 4.06251e-05L95.7471 0.000745047C93.5103 0.0309245 92.3613 1.03008 91.3455 1.91347L91.3362 1.92154L91.3343 1.92323C90.3787 2.75836 89.5538 3.47932 87.8817 3.47932C86.2086 3.47932 85.3819 2.75739 84.4255 1.92154C83.3935 1.01981 82.2228 4.30721e-05 79.912 4.28941e-05C77.6026 4.27161e-05 76.4301 1.02135 75.3985 1.91995L75.3985 1.92001L75.3967 1.92154C74.4404 2.75739 73.6137 3.47932 71.9405 3.47932C70.2673 3.47932 69.4406 2.75739 68.4842 1.92154C67.4522 1.01981 66.2815 4.18439e-05 63.9689 4.16658e-05C61.6633 4.14881e-05 60.4945 1.01643 59.463 1.91345L59.4537 1.92154L59.4517 1.92326C58.4961 2.75838 57.6712 3.47932 55.9992 3.47932C54.326 3.47932 53.4993 2.75739 52.543 1.92154C51.5524 1.05549 50.4303 0.0823905 48.2978 4.04584e-05L48.2978 0.0377708C48.0634 0.0131739 47.8156 4.44153e-05 47.5533 4.43951e-05C45.2476 4.42175e-05 44.0788 1.01646 43.0472 1.91348L43.038 1.92154L43.036 1.92323C42.0805 2.75836 41.2556 3.47932 39.5835 3.47932C37.9103 3.47932 37.0836 2.75739 36.1273 1.92154C35.0952 1.01981 33.9246 4.33451e-05 31.6138 4.31671e-05C29.3044 4.29891e-05 28.1319 1.02138 27.1003 1.91999L27.0985 1.92154C26.1421 2.75739 25.3154 3.47932 23.6422 3.47932C21.9691 3.47932 21.1424 2.75739 20.186 1.92154C19.154 1.01981 17.9833 4.21169e-05 15.6707 4.19388e-05C13.3651 4.17611e-05 12.1963 1.01643 11.1648 1.91345L11.1554 1.92154L11.1535 1.92323C10.198 2.75836 9.37305 3.47932 7.70099 3.47932C6.02777 3.47932 5.20108 2.75739 4.24472 1.92154C3.25415 1.05549 2.13208 0.0823907 -0.000396729 4.07314e-05L-0.000396776 1.07608C1.48932 1.15003 2.27084 1.83337 3.17245 2.62168L3.1785 2.627C4.21051 3.52873 5.38119 4.5485 7.69379 4.5485C9.99942 4.5485 11.1682 3.53211 12.1997 2.63509L12.209 2.627L12.2111 2.62527C13.1666 1.79016 13.9915 1.06922 15.6635 1.06922C17.3367 1.06922 18.1634 1.78978 19.1198 2.62563C20.1518 3.52873 21.3225 4.54713 23.635 4.54713C25.9476 4.54713 27.1183 3.52873 28.1485 2.62563C29.1049 1.78978 29.9316 1.06922 31.6048 1.06922C33.278 1.06922 34.1029 1.78978 35.0592 2.62563C36.0912 3.52873 37.2619 4.54713 39.5745 4.54713C41.8871 4.54713 43.0596 3.52873 44.0916 2.62563C45.048 1.78978 45.8729 1.06922 47.5461 1.06922C49.2192 1.06922 50.0459 1.78978 51.0023 2.62563C52.0343 3.52873 53.205 4.55125 55.5248 4.55125C55.5652 4.55027 55.6054 4.5467 55.6449 4.5406C55.7577 4.54581 55.8734 4.5485 55.992 4.5485C58.2977 4.5485 59.4665 3.53208 60.498 2.63506L60.5073 2.627L60.5092 2.62531C61.4648 1.79018 62.2897 1.06922 63.9617 1.06922C65.6349 1.06922 66.4616 1.78978 67.418 2.62563C68.45 3.52873 69.6207 4.54713 71.9333 4.54713C74.2458 4.54713 75.4165 3.52873 76.4468 2.62563C77.4031 1.78978 78.2298 1.06922 79.903 1.06922C81.5762 1.06922 82.4011 1.78978 83.3575 2.62563C84.3895 3.52873 85.5602 4.54713 87.8727 4.54713C90.1853 4.54713 91.3578 3.52873 92.3898 2.62563C93.3275 1.80612 94.1388 1.09744 95.7471 1.07004L95.7471 1.07608C97.2368 1.15003 98.0183 1.83337 98.9199 2.62168L98.926 2.627C99.958 3.52873 101.129 4.5485 103.441 4.5485C103.487 4.5485 103.532 4.5481 103.577 4.54731C103.657 4.54992 103.739 4.55125 103.823 4.55125C103.884 4.54977 103.945 4.54239 104.003 4.52929L104.003 4.52732C105.944 4.37722 107.003 3.45614 107.947 2.63507L107.957 2.627L107.958 2.62531C108.914 1.79018 109.739 1.06922 111.411 1.06922C113.084 1.06922 113.911 1.78978 114.867 2.62563C115.899 3.52873 117.07 4.54713 119.383 4.54713C121.695 4.54713 122.866 3.52873 123.896 2.62563C124.852 1.78978 125.679 1.06922 127.352 1.06922C129.025 1.06922 129.85 1.78978 130.807 2.62563C131.839 3.52873 133.009 4.54713 135.322 4.54713C137.635 4.54713 138.807 3.52873 139.839 2.62563C140.777 1.80613 141.588 1.09745 143.196 1.07004L143.196 1.07608C144.686 1.15002 145.468 1.83335 146.369 2.62166L146.375 2.627C147.407 3.52873 148.578 4.5485 150.891 4.5485C150.936 4.5485 150.981 4.5481 151.026 4.54731C151.107 4.54992 151.189 4.55125 151.272 4.55125C151.333 4.54977 151.394 4.54239 151.452 4.52929L151.452 4.52732C153.393 4.37722 154.452 3.45614 155.397 2.63507L155.406 2.627L155.408 2.62529C156.363 1.79017 157.188 1.06922 158.86 1.06922C160.533 1.06922 161.36 1.78978 162.317 2.62563C163.349 3.52873 164.519 4.54712 166.832 4.54712C169.144 4.54713 170.315 3.52873 171.345 2.62563C172.234 1.84864 173.011 1.17127 174.46 1.07973C175.908 1.1701 176.68 1.84492 177.568 2.62166L177.574 2.627C178.606 3.52873 179.777 4.5485 182.089 4.5485C182.211 4.5485 182.33 4.54567 182.445 4.54017C182.551 4.54476 182.66 4.54713 182.771 4.54713C185.084 4.54713 186.256 3.52873 187.288 2.62563C188.177 1.84875 188.953 1.17147 190.401 1.07977C191.85 1.17148 192.626 1.84876 193.515 2.62563C194.547 3.52873 195.718 4.54713 198.031 4.54713C198.133 4.54713 198.233 4.54513 198.331 4.54124C198.458 4.54784 198.588 4.55124 198.722 4.55124C198.783 4.54977 198.843 4.54239 198.902 4.52929L198.902 4.49494C200.655 4.27612 201.652 3.40765 202.544 2.62563C203.5 1.78978 204.327 1.06922 206 1.06922C207.674 1.06922 208.498 1.78978 209.455 2.62563C210.487 3.52873 211.658 4.54713 213.97 4.54713C216.283 4.54713 217.455 3.52873 218.487 2.62563C219.425 1.80596 220.236 1.09716 221.845 1.07003L221.845 1.07608C223.335 1.15003 224.117 1.83336 225.018 2.62167L225.024 2.627C226.056 3.52873 227.227 4.5485 229.54 4.5485C229.585 4.5485 229.63 4.5481 229.674 4.54733C229.755 4.54992 229.837 4.55125 229.92 4.55125C229.981 4.54977 230.042 4.54239 230.101 4.52929L230.101 4.5274C232.042 4.37753 233.101 3.45628 234.046 2.63508L234.055 2.627L234.057 2.6253C235.012 1.79017 235.837 1.06922 237.509 1.06922C239.183 1.06922 240.009 1.78978 240.966 2.62563C241.998 3.52873 243.168 4.54713 245.481 4.54713C247.793 4.54713 248.964 3.52873 249.994 2.62563C250.951 1.78978 251.777 1.06922 253.451 1.06922C255.124 1.06922 255.949 1.78978 256.905 2.62563C257.937 3.52873 259.108 4.54713 261.42 4.54713C263.733 4.54713 264.905 3.52873 265.937 2.62563C266.875 1.80612 267.686 1.09744 269.295 1.07004L269.295 1.07603C270.784 1.14998 271.566 1.83332 272.467 2.62163L272.474 2.62696Z" fill="white" fill-opacity="0.8"/>
</svg>
