<svg xmlns="http://www.w3.org/2000/svg" xmlns:xlink="http://www.w3.org/1999/xlink" version="1.1" id="Capa_1" x="0px" y="0px" viewBox="0 0 18 18" enable-background="new 0 0 18 18" xml:space="preserve">
<path fill="#FFFFFF" d="M14.2,0.5H3.8C2,0.5,0.5,2,0.5,3.8v3.5v7c0,1.8,1.5,3.3,3.3,3.3h10.4c1.8,0,3.3-1.5,3.3-3.3v-7V3.8  C17.5,2,16,0.5,14.2,0.5z M15.2,2.5l0.4,0v0.4v2.5l-2.9,0l0-2.9L15.2,2.5z M6.6,7.3C7.1,6.5,8,6,9,6s1.9,0.5,2.4,1.2  C11.8,7.7,12,8.3,12,9c0,1.7-1.3,3-3,3s-3-1.3-3-3C6,8.3,6.2,7.7,6.6,7.3z M15.8,14.2c0,0.9-0.7,1.6-1.6,1.6H3.8  c-0.9,0-1.6-0.7-1.6-1.6v-7h2.5C4.5,7.8,4.3,8.4,4.3,9c0,2.6,2.1,4.7,4.7,4.7c2.6,0,4.7-2.1,4.7-4.7c0-0.6-0.1-1.2-0.3-1.7h2.5V14.2  z"/>
</svg>
