<?xml version="1.0" encoding="utf-8"?>
<!-- Generator: Adobe Illustrator 23.0.3, SVG Export Plug-In . SVG Version: 6.00 Build 0)  -->
<svg version="1.1" id="Capa_1" xmlns="http://www.w3.org/2000/svg" xmlns:xlink="http://www.w3.org/1999/xlink" x="0px" y="0px"
	 viewBox="0 0 1685.9 801.1" style="enable-background:new 0 0 1685.9 801.1;" xml:space="preserve">
<style type="text/css">
	.st0{fill:#8D8C8A;}
</style>
<title>Graphic_Envision_Horizontal_WEB_Grey-TOP</title>
<g>
	<path class="st0" d="M715.9,252.1c-4.6-3.8-7.5-6.3-10.9-9c-2.3-1.8-1.7,5.2-1.6,5.5c1.2,6.3,3.3,11.8,8.8,16.1
		c8.3,6.4,20.9,11.7,32,14.6c12,3.1,58,12,64,5c-11.7-1.7-35.5-4.2-58.8-13.8C738.8,266.1,727.7,261.8,715.9,252.1z"/>
	<path class="st0" d="M753.7,290.8c-10.5-1.5-21.3-2.9-34.6-9c-5.2-2.4-8.4-4-12.2-5.7c-2.6-1.1,0.3,5.2,0.4,5.4
		c3,5.5,6.7,10.1,12.7,12.7c9.2,3.9,21.7,5.9,32.1,5.9c11.3,0,53.6-2.8,56.5-10.7c0,0,0,0,0,0h0C798,290.7,776.8,294.1,753.7,290.8z
		"/>
	<path class="st0" d="M809.8,293.5c-8.5,3.7-25,11.9-45.7,14.3c-9.4,1.1-19.2,2.4-32.7-0.2c-5.3-1-8.6-1.8-12.5-2.5
		c-2.6-0.5,2.2,4.9,2.4,5.1c4.7,4.5,9.5,8,15.7,9c9.3,1.6,20.6,0.4,29.3-2.1c9.4-2.7,43.5-15.1,43.5-23.3
		C809.9,293.6,809.9,293.5,809.8,293.5z"/>
	<path class="st0" d="M777,324c-7.3,2.8-14.6,5.9-26.8,5.9c-4.8,0-7.9-0.1-11.3-0.1c-2.3,0.1,3.9,4.3,4.2,4.5
		c5.8,3.5,11.2,6,16.7,5.8c8.2-0.4,16.2-3,23.1-7.5c5.9-3.8,24.4-18.9,25.8-27.8c0.1-0.4,0.1-0.7,0.1-1.1c0-0.2-0.1-0.4-0.1-0.6
		c-0.1-0.5-0.2-1-0.4-1.5C803,306.8,793,317.9,777,324z"/>
	<path class="st0" d="M808.8,311.1c-2.7,4.3-10.5,21.2-21.8,27.9c-4.8,2.8-8.9,6.6-17.2,8.9c-3.2,0.9-5.4,1.4-7.7,2.1
		c-1.6,0.5,3.4,2,3.6,2c4.6,1,8.8,1.6,12.5,0.4c5.6-1.7,10-6.2,14.4-9.3c4.8-3.3,16.9-22.4,16.9-29.8
		C809.6,312.6,809.4,311.8,808.8,311.1z"/>
	<path class="st0" d="M801.1,344.6c0.1-0.3,0-0.6-0.1-0.8c-0.1-0.3-0.3-0.5-0.5-0.8c-1,2.1-5.1,9.5-10,12.4
		c-3.1,1.9-6.4,4.2-10.6,4.7c-1.6,0.1-2.7,0.2-3.8,0.4c-0.8,0.1,2,1.5,2.1,1.5c2.5,1,6,2,7.9,1.7c2.8-0.4,5.2-2.2,7-3.7
		c1.8-1.6,7.1-9.7,7.9-14.4C801.1,345.3,801.1,344.9,801.1,344.6z"/>
	<path class="st0" d="M648.1,294.7c0.1-0.2,0.1-0.4,0.1-0.6c0-0.2,0-0.4-0.1-0.6c0-0.1-0.1-0.3-0.2-0.4c-1.8-2.7-8.3,3.3-21.2,6.6
		c-7.7,2-23.3,2.3-20.3,7.3c3.9,6.4,16.1,1.8,24.2-1.3C642.1,301.2,647.4,297.3,648.1,294.7z"/>
	<path class="st0" d="M645.2,310.5c2.3-1.1,5-3.6,5.5-5.8c0.1-0.3,0.1-0.5,0.1-0.7c0-0.2-0.1-0.3-0.1-0.5c-0.1-0.3-0.2-0.6-0.3-0.8
		c-1.5-2.1-4.7,0.5-6.8,2.1c-2.1,1.6-8.7,3.9-17.7,6c-9,2.1-11.4,3.7-10.5,5.9c0.9,2.2,6.2,0.5,11.6-0.3S642.1,311.9,645.2,310.5z"
		/>
	<path class="st0" d="M657.5,313c0-0.7-0.3-1.4-0.9-1.7c-3.4-2.5-7.1,1.9-16.1,5.8c-9,3.9-19,5.2-17.4,8.6c1.6,3.4,18-1.6,24.6-3.8
		C653,320.2,657.5,315.8,657.5,313z"/>
	<path class="st0" d="M663.2,321.7c0.1-0.3,0.1-0.6,0.1-0.9c0-0.2,0-0.5-0.1-0.8c0-0.2-0.1-0.5-0.2-0.7c-1.3-3.1-7.4,3.5-16.9,6.4
		c-9.5,2.9-15.2,7.6-13.6,9.5c1.6,1.9,11.9-1.4,21.3-5.5C660.4,326.8,662.7,324,663.2,321.7z"/>
	<path class="st0" d="M671.1,331.1c0-1-0.3-1.9-0.8-2.6c-3.1-4.3-6.7,1.5-15,5.1c-5.8,2.5-17.5,6.3-15.3,9.7s15-2.7,22.6-4.5
		C668.4,337.4,671.1,334,671.1,331.1z"/>
	<path class="st0" d="M686,346.2c0.1-0.4-0.1-0.8-0.3-1.1c-0.8-1-3.7-2.6-4.8-2l-20.5,12.3c-0.9,0.4-1.3,1.4-1,2.2
		c0.1,0.2,0.2,0.4,0.3,0.5c0.9,1,2.4,1.2,3.5,0.6l21.7-10.9C685.5,347.5,686,346.9,686,346.2z"/>
	<path class="st0" d="M678.7,340.8c-0.1-0.5-0.3-1-0.6-1.4c-0.9-1.2-3.9-3.6-5.1-3.1l-21.6,11.3c-1,0.5-1.4,1.7-0.9,2.7
		c0.1,0.2,0.2,0.3,0.3,0.4c0.9,1.2,2.4,1.7,3.8,1.3l22.9-9.5C678.2,342.2,678.7,341.6,678.7,340.8z"/>
	<path class="st0" d="M693,352.8c0-1-0.2-1.9-0.8-2.6c-0.9-0.9-4.3-1.1-5.4-0.5l-18.7,11.5c-0.9,0.4-1.2,1.4-0.8,2.3
		c0.1,0.2,0.2,0.3,0.3,0.5c0.9,0.9,2.3,1.1,3.5,0.5l21.3-10.2C692.9,353.9,693.1,353.4,693,352.8z"/>
	<path class="st0" d="M699,358.6c0.2-0.4,0-0.7-0.2-1c-0.7-0.8-3.5-1.6-4.5-1.1L677,366.6c-0.8,0.3-1.2,1.3-0.8,2.1
		c0.1,0.1,0.1,0.3,0.2,0.4c0.8,0.8,2,1.1,3,0.6l18.7-9.7C698.7,359.8,699,359.2,699,358.6z"/>
	<path class="st0" d="M703.7,363.6c0-0.2,0-0.4,0-0.5c0-0.2,0-0.3,0-0.5c-0.1-0.4-0.2-0.8-0.5-1.1c-0.8-0.7-2.1-0.8-3-0.2l-16,10.3
		c-0.6,0.3-0.9,1.1-0.5,1.7c0.1,0.2,0.2,0.3,0.4,0.5c0.8,0.7,2,0.8,2.9,0.2l16-9C703.4,364.6,703.6,364.1,703.7,363.6z"/>
	<path class="st0" d="M709.5,368.8c0-0.1,0-0.3,0-0.4c0-0.9-0.3-1.7-0.7-2.3c-0.7-0.7-1.8-0.9-2.7-0.4l-15.2,9.7
		c-0.7,0.4-0.9,1.2-0.5,1.9c0.1,0.1,0.2,0.2,0.3,0.3c0.7,0.7,1.8,0.8,2.7,0.3l15.7-8.3C709.3,369.4,709.4,369.1,709.5,368.8z"/>
	<path class="st0" d="M698.2,381.5l-0.2-0.2C698.1,381.4,698.1,381.5,698.2,381.5z"/>
	<path class="st0" d="M697.4,380.9l0.6,0.4c0,0-0.1-0.1-0.1-0.1C697.7,381.1,697.6,381,697.4,380.9z"/>
	<path class="st0" d="M714.9,371c-0.1-0.4-0.3-0.8-0.7-1.1c-0.8-0.6-1.8-0.6-2.6,0l-14.2,9c-0.5,0.5-0.1,1.6,0.5,2.3
		c1.2,0.7,3.5,1.8,4.1,1.3l12.5-10.6C714.8,371.7,714.9,371.4,714.9,371z"/>
	<path class="st0" d="M720.4,375.5c0.1-0.1,0.1-0.2,0.1-0.3c0-0.1-0.1-0.2-0.1-0.3c-0.2-0.6-0.5-1.1-1-1.6c-0.7-0.5-1.7-0.5-2.4,0
		l-13.1,9.8c-0.6,0.5,0.8,2.2,1.5,2.8c0.7,0.5,1.7,0.5,2.4,0l12.4-10.1C720.3,375.7,720.4,375.6,720.4,375.5z"/>
	<path class="st0" d="M725.6,378c0.1-0.1,0.1-0.3,0.1-0.4c0-0.2,0-0.3-0.1-0.5c-0.1-0.3-0.3-0.5-0.6-0.6c-0.7-0.4-1.7-0.4-2.3,0.1
		l-11.5,9.1c-0.6,0.5-0.8,1.5,1.3,2.8c0.7,0.5,1.7,0.4,2.4-0.1l10.5-10.1C725.5,378.2,725.6,378.1,725.6,378z"/>
	<path class="st0" d="M729.9,380.4c0.1-0.4-0.1-0.8-0.5-0.9c-0.7-0.5-1.6-0.5-2.3,0l-10.8,9.4c-0.6,0.5-0.5,1.2,0.2,1.7
		s2.6,1.1,3.2,0.6l9.9-10C729.8,381,729.9,380.7,729.9,380.4z"/>
	<path class="st0" d="M734,383.2c0.1-0.5-0.1-0.8-0.5-1c-0.7-0.4-1.6-0.4-2.2,0.1l-9.9,9.2c-0.5,0.5-0.7,1.4-0.1,1.8l0.7,0.4
		c0.8,0.5,1.8,0.5,2.6,0l9.1-9.8C733.9,383.7,734,383.5,734,383.2z"/>
	<path class="st0" d="M737.9,385.9c-0.1-0.5-0.4-0.9-0.8-1.1c-0.7-0.3-1.5-0.2-2,0.4l-8.7,9.3c-0.4,0.5,1,1.7,1.7,2s1.5,0.2,2.1-0.3
		l7.5-9.8C737.8,386.2,737.9,386.1,737.9,385.9z"/>
	<path class="st0" d="M742.4,389.1c-0.1-0.4-0.4-0.8-0.7-1c-0.7-0.4-1.5-0.3-2,0.3l-8.9,9.1c-0.4,0.5,1.4,1.3,2.1,1.6
		c0.7,0.3,2.1,0.4,2.5-0.1l6.8-9.4C742.3,389.5,742.4,389.3,742.4,389.1z"/>
	<path class="st0" d="M747,392.5c0.1-0.1,0.1-0.2,0.1-0.3c0-0.2,0-0.3-0.1-0.4c-0.1-0.3-0.3-0.5-0.6-0.6c-0.6-0.3-1.3-0.2-1.8,0.2
		l-7.7,8.4c-0.4,0.5,0.3,1.1,1,1.5c0.7,0.4,3,1.4,3.4,1l5.6-9.6C746.9,392.7,747,392.6,747,392.5z"/>
	<path class="st0" d="M751.1,394.6c0-0.3-0.3-0.6-0.6-0.7c-0.5-0.2-1.1-0.1-1.5,0.3l-5.4,7.8c-0.3,0.4,0.4,0.9,1,1.1
		s2.5,0.9,2.8,0.5l3.6-8.6C751.1,394.9,751.1,394.8,751.1,394.6z"/>
	<path class="st0" d="M754.2,395.3c-0.5-0.2-1.1,0-1.3,0.5l-3.5,8c-0.2,0.4,0.6,0.8,1.2,0.9c0.6,0.1,2.7,0.6,2.8,0.2l1.6-8.6
		c0-0.1,0-0.1,0-0.2C755.1,395.7,754.8,395.4,754.2,395.3z"/>
	<path class="st0" d="M757.6,396.7c-0.5-0.1-1,0.2-1.2,0.7l-1.3,7.9c0,0.4,0.8,0.7,1.5,0.7s2.8,0.1,2.8-0.3l-0.8-8.2
		C758.6,397.1,758.2,396.7,757.6,396.7z"/>
	<path class="st0" d="M762,397.8c-0.7,0-1.1,0.4-1,0.7l0.2,6.9c0,0.2,0.4,0.3,0.8,0.4c0.2,0,0.5,0,0.7,0c0.5-0.1,2.8-0.2,2.8-0.5
		l-2.3-6.9C763.2,398.1,762.7,397.8,762,397.8z"/>
	<path class="st0" d="M771.2,403.2l-3.8-5.5c-0.1-0.3-0.7-0.5-1.2-0.3s-1,0.5-0.9,0.8l1.6,5.8c0.1,0.1,0.2,0.2,0.4,0.2
		c0.4,0.1,0.9,0.1,1.2,0C769,404.1,771.2,403.5,771.2,403.2z"/>
	<path class="st0" d="M660.6,292.6c3.6,0.8,8.2,1.3,13.3,1c15.2-0.9,29.8-7.7,27.5-11c-0.6-0.8-1.7-1.2-3.2-1.2
		c-4-1.5-14.5,1.9-26.5,2.2c-6.3,0.2-18.2-1.2-20.9,2.4C648.9,288.5,653.2,291.3,660.6,292.6z"/>
	<path class="st0" d="M685.3,314.6c12.7-3.4,23.8-10.9,23.8-14.1c0,0,0,0,0,0c0,0,0,0,0,0c-0.1-0.2-0.2-0.5-0.4-0.8
		c-3.1-2.5-13,3.6-25.7,6.6c-6,1.4-17.3,2.6-19.1,6.3C662.1,316.3,672.6,318,685.3,314.6z"/>
	<path class="st0" d="M700.3,331.8c10.4-4.4,18.9-12.1,18.9-15c0.1-0.4-0.1-0.8-0.4-0.9c-3-1.8-10.8,4.8-21.6,9
		c-5,2-14.8,4.5-15.8,7.9C680.4,336.2,689.7,336.3,700.3,331.8z"/>
	<path class="st0" d="M716.1,346.6c8.7-5,15-12.8,15-15.9v-0.4c-0.1-0.4-0.3-0.7-0.7-0.8c-3.3-1.4-9.5,5.7-18.9,10.8
		c-4.4,2.4-13.3,5.7-13.5,9.1C697.8,352.8,706.8,352,716.1,346.6z"/>
	<path class="st0" d="M733.4,360.3c6.6-5.4,11.3-12.6,12-16.2c0.1-0.3,0.1-0.6,0.1-0.8c0-0.2-0.1-0.3-0.1-0.5
		c-0.1-0.4-0.4-0.7-0.8-0.8c-3.1-0.9-8,6.8-16.1,13c-3.8,2.8-11.6,7.3-11.4,10.5S725.5,366.7,733.4,360.3z"/>
	<path class="st0" d="M750.6,372.5c6-6.2,9.9-14.1,9.9-17.4c0-0.9-0.3-1.5-0.9-1.6c-3-0.6-7,7.3-14.1,14.2
		c-3.3,3.2-10.3,8.2-9.8,11.4C736.2,382.3,743.7,379.5,750.6,372.5z"/>
	<path class="st0" d="M768.2,383.7c3.9-5.1,5.9-11.2,5.9-14.8c0,0,0,0,0,0s0,0,0,0c0-1.9-0.5-3-1.6-3.2c-3.3-0.3-5.3,7.2-10.8,14
		c-2.6,3.1-8.4,8.3-7.1,11.1C755.9,393.6,762.9,390.6,768.2,383.7z"/>
	<path class="st0" d="M784.8,381.8c-2.6-0.1-2.6,3.1-5.5,6.1c-1.3,1.4-4.8,3.6-3.2,4.9s6.3-0.1,9-3.1c0.9-1,1.6-2.3,1.8-3.6
		c0.1-0.4,0.1-0.7,0.1-1.1c0-0.4,0-0.7-0.1-1C786.7,382.6,785.9,381.8,784.8,381.8z"/>
	<path class="st0" d="M805.2,383.4c2.6,0.3,4.8-14.4,4.8-19.5c0-4.8,6.8-36.9,7.7-41.1c0.1-0.3,0.1-0.5,0.1-0.5s0-0.2-0.1-0.4
		c-0.3-1.3-1.4-4.8-2.1,1.2c0,0-15.6,43-14.3,50.4C802.6,380.9,802.6,383.1,805.2,383.4z"/>
	<path class="st0" d="M827.1,393c0.7,0,1.2-1.2,1.4-3c0.1-1,0.2-2.3,0.2-3.6c0-1.2-0.1-2.4-0.2-3.6c-0.3-3.8-0.7-7.6-1.4-11.3
		c-1.2-5.4-2.1-45.3-2.1-45.3s-2.8-6.5-1.9,1.2c0,0-5.3,47.9-2.3,55.6S824.4,393,827.1,393z"/>
	<path class="st0" d="M906.6,362c0.2,0,2.3-1.1,2.3-1.4c0-0.1,0-0.1-0.1-0.1c-1.2-0.2-2.2-0.2-3.9-0.4c-4.2-0.5-7.5-2.8-10.6-4.7
		c-4.9-3-8.9-10.3-9.9-12.4c-2.7,2.7,5.1,15,7.4,17c1.9,1.9,4.4,3.2,7,3.7C900.6,364,904.1,363.1,906.6,362z"/>
	<path class="st0" d="M879.7,383.3c2.6-0.3,2.6-2.5,3.9-9.9c0-0.4,0.1-0.7,0.1-1.1c0-9.6-14.4-49.2-14.4-49.2
		c-0.7-6-1.8-2.5-2.1-1.3c-0.1,0.2-0.1,0.4-0.1,0.4s0,0.2,0.1,0.5c0.9,4.2,7.7,36.4,7.7,41.1C874.9,368.9,877.1,383.6,879.7,383.3z"
		/>
	<path class="st0" d="M857.9,392.9c2.6,0,3.2-2.3,6.2-10c0.7-1.7,1-5.5,1-10.2c0,0,0,0,0,0c0,0,0,0,0,0c0-16.5-3.2-45.4-3.2-45.3
		c0.8-7.6-2-1.2-2-1.2s-0.9,39.9-2.1,45.3C856.6,376.9,855.3,392.9,857.9,392.9z"/>
	<path class="st0" d="M794.5,368.4C794.6,368.4,794.6,368.3,794.5,368.4c0.1-0.1-0.1-0.1-0.3,0c-2,0.6-12.9,3.4-9.5,6
		C788.5,377.3,793.4,370.2,794.5,368.4z"/>
	<path class="st0" d="M837.2,297L837.2,297c0,0-16.6,19.6-10.7,24C829.5,323.3,837.2,297,837.2,297L837.2,297z"/>
	<path class="st0" d="M826.6,297c-5.4,4.6-15,16.4-9.9,17.9s20.3-26.8,20.3-26.8S832,292.4,826.6,297z"/>
	<path class="st0" d="M837.5,282.7c0,0-0.1,0-0.2,0.1c-2.3,1.1-24.7,12.2-25.6,13.2c-0.9,1.2-1.7,3.1,2.4,3.9
		c3.9,0.8,21.8-15.7,23.3-17.1C837.5,282.7,837.5,282.7,837.5,282.7z"/>
	<path class="st0" d="M860.1,321c0.7-0.5,1-1.2,1.2-2c0.1-0.3,0.1-0.6,0.1-0.9c0-0.3,0-0.7-0.1-1c-1.1-7.2-12-20.1-12-20.1
		S857.1,323.3,860.1,321z"/>
	<path class="st0" d="M869.8,314.9c0.9-0.2,1.5-1.1,1.4-2c0.1-3.9-6.9-12.3-11.4-15.9c-5-4.2-9.5-8.2-10.2-8.8
		c-0.1-0.1-0.1-0.1-0.1-0.1s0,0.1,0.1,0.2C850.9,290.6,864.8,316.3,869.8,314.9z"/>
	<path class="st0" d="M872.4,299.9c2.4-0.5,3.1-1.4,3.1-2.2c0-0.6-0.3-1.2-0.7-1.7c-0.9-1-23.3-12.1-25.6-13.2
		c-0.1-0.1-0.2-0.1-0.2-0.1s0,0,0.1,0.1C850.6,284.2,868.5,300.8,872.4,299.9z"/>
	<path class="st0" d="M1037.6,119.2c5.4,26.3-0.1,53.5-11,78.6c-3.9,9-8.5,17.6-13.9,25.8c-1.8,2.9-9,13.7-5.8,14.3
		c5.5,1.1,17.2-16.6,19-18.9c5.7-7.3,9.9-15.4,13.6-23.5c9.3-19.8,15.6-41,16.4-62.3c0.1-1.6,0.1-3.2,0.1-4.8c0-1.5,0-2.9-0.1-4.3
		c-0.1-2.4-0.3-4.8-0.6-7.3c-4-39.2-37-78.8-89.4-87.8C1003.9,52.7,1029.8,81.1,1037.6,119.2z"/>
	<path class="st0" d="M1085.5,204.7c-8.9,12.2-20.1,22.6-32.9,30.5c-2.2,1.4-15.5,5.1-11.3,9.7c12.9,13.9,55.8-28.1,60.8-34.3
		c8.1-10.1,15.2-19.2,18.3-30.8c1.3-4.5,2-9.2,2.2-13.9c0,0,0,0,0,0c0,0,0,0,0,0c0-5.6-1.5-10.6-6.8-11.5
		c-6.7-1.1-8.7,14.7-10.1,18.5C1101.3,184.9,1093.5,193.9,1085.5,204.7z"/>
	<path class="st0" d="M1055.2,93.1c7.3,17.4,8,35.9,6,54c-2.4,20.6-9.4,40.2-20.9,58.9c-1.1,1.8-19.8,28.7-21.2,29
		c12.7,0.1,27.6-20.8,32.7-27.6c12.2-16.4,23.3-32.7,27.7-51.5c2.2-9.2,3.3-18.6,3.4-28c0-8.5-1.2-17-3.6-25.2
		c-3.5-11.4-12.4-19.6-23.5-27.3c-0.6-0.4-13.6-8.1-12.1-3.3C1045.9,79.2,1052.3,86,1055.2,93.1z"/>
	<path class="st0" d="M942.5,279.8c11-2.9,23.7-8.3,32-14.7c5.5-4.2,7.6-9.8,8.8-16c0.1-0.8,0.2-1.6,0.2-2.4c-0.1-2-0.4-4.3-1.8-3.2
		c-3.5,2.7-6.3,5.2-10.9,9c-11.8,9.7-22.9,14-33.5,18.4c-23.4,9.6-47.1,12.1-58.8,13.9C884.5,291.8,930.5,282.9,942.5,279.8z"/>
	<path class="st0" d="M934.6,300.6C934.6,300.6,934.6,300.6,934.6,300.6C934.6,300.6,934.6,300.6,934.6,300.6
		c10.4,0,23-1.9,32.1-5.9c6.1-2.6,9.7-7.2,12.7-12.7c0.1-0.2,1.1-2.4,1.4-4c0.1-0.3,0.1-0.6,0.1-0.8c0-0.1-0.1-0.3-0.1-0.4
		c-0.1-0.4-0.4-0.5-1-0.3c-3.8,1.6-7.1,3.3-12.2,5.7c-13.3,6.1-24.2,7.5-34.6,9c-23.1,3.3-44.2-0.1-54.8-1.3
		C881,297.8,923.3,300.6,934.6,300.6z"/>
	<path class="st0" d="M876.8,293.8C876.8,293.8,876.8,293.9,876.8,293.8c-0.3,8.3,34,20.9,43.5,23.5c8.8,2.5,20.1,3.6,29.3,2.1
		c6.2-1,10.9-4.5,15.6-9c0.2-0.2,3.2-3.5,3.2-4.7c0.1-0.2-0.1-0.4-0.7-0.3c-3.8,0.6-7.2,1.5-12.5,2.5c-13.5,2.6-23.2,1.3-32.7,0.2
		c-20.6-2.3-37-10.5-45.5-14.2C877,293.9,876.9,293.8,876.8,293.8z"/>
	<path class="st0" d="M936.6,330.4c-12.2,0-19.6-3.1-26.8-5.9c-16-6.1-26-17.2-31.3-22.4c-4,7.8,18.8,26.6,25.5,31
		c6.9,4.5,14.9,7.1,23.1,7.5c5.4,0.1,10.9-2.3,16.7-5.9c0.3-0.1,4-2.7,4.6-3.8c0.1-0.1,0.1-0.2,0.1-0.3c0,0-0.1-0.1-0.1-0.1
		c-0.1-0.1-0.3-0.2-0.5-0.2C944.4,330.2,941.3,330.3,936.6,330.4z"/>
	<path class="st0" d="M920.8,352.6c0.2-0.1,4-1.1,4-1.7c0-0.2-0.1-0.3-0.3-0.4c-2.3-0.7-4.5-1.2-7.7-2.1c-8.3-2.4-12.4-6.1-17.2-8.9
		c-11.3-6.7-19.1-23.6-21.8-27.8c-4.2,4.1,10.7,28.3,16.2,32.1c4.4,3.1,8.8,7.5,14.3,9.2C912,354.1,916.2,353.6,920.8,352.6z"/>
	<path class="st0" d="M1077.7,178.2c-5,12.1-11.6,23.5-19.7,33.8c-2.1,2.6-22,22.1-18.5,22.5c11.9,1.3,26.6-15.7,32.7-21.8
		c10.7-10.8,17.9-23.2,24.5-35.7c5.4-10.2,9.7-22.2,9.7-33.5c0-2.5-0.2-4.9-0.6-7.3c-1.1-6.1-3.9-22.8-13-25.4
		c-7.1-2.1-4.4,21.6-4.2,24C1089.6,147.2,1082.6,166.4,1077.7,178.2z"/>
	<path class="st0" d="M1123.2,208c-0.2-1.1-0.7-2.2-1.4-3c-5.6-5.8-16,8.1-17.8,10.5c-5.3,6.7-12.7,12.5-20,17.9
		c-7.8,5.7-16,11.5-25.8,15.1c-2.6,0.9-12.4,2.3-13.2,4.8c-1,3.1,14.6,1.2,15.9,1c11.9-2.3,21.6-7.8,31-13.5
		c8.4-5,16.8-10.4,23.1-17.1c2.7-2.9,7.5-8.8,8.2-13.8c0.1-0.4,0.1-0.8,0.1-1.2C1123.3,208.5,1123.2,208.2,1123.2,208z"/>
	<path class="st0" d="M1088,247.8c-6.5,3-12.8,6.7-20.2,8.3c-9.3,2.1-18.1,0.1-20.6,3.8c-5.4,8.1,27.1,3.2,31.1,2.5
		c14.9-2.3,33.1-4.7,38.8-18.8c0.5-1.1,0.7-2.2,0.8-3.4c0,0,0,0,0,0c0,0,0,0,0,0C1117.9,231.3,1091.4,246.3,1088,247.8z"/>
	<path class="st0" d="M1104.7,262.1c-31.9,9.7-58.4,2.9-59.8,5.5c-2.6,5.1,20.9,8.1,32.6,8.7c7.2,0.5,14.5-0.6,21.2-3.2
		c9.3-3.7,12.1-6.8,12.1-8.7C1110.9,262,1106.9,261.2,1104.7,262.1z"/>
	<path class="st0" d="M1073,279.2c-15.7-1.6-27.6-7.8-29.3-4c-2.4,5.6,52.9,24,54.7,10.1c0-0.2,0-0.3,0-0.5
		C1098.4,279.6,1087.1,280.6,1073,279.2z"/>
	<path class="st0" d="M1076.7,292.4c-11.7-1.1-17.2-3.2-20.8-4.6c-3.6-1.4-12.2-6.5-13.5-5.4c-1.3,1.1,2.5,5.4,6,7.7
		c8.8,5.8,15.6,7.5,24.1,8.8s16.5,1.3,17.2-1.3c0.1-0.3,0.2-0.7,0.2-1C1089.9,294.4,1087.1,293.3,1076.7,292.4z"/>
	<path class="st0" d="M1060,300.1c-12.8-3.3-19.4-9.3-21.2-6.6c-1.6,2.4,2.9,7,17.3,12.5c8.1,3.2,20.3,7.7,24.2,1.3
		c0.1-0.2,0.2-0.4,0.3-0.7c0.1-0.2,0.1-0.4,0.1-0.5c0-0.2,0-0.4-0.1-0.5C1079.4,302.3,1066.8,301.8,1060,300.1z"/>
	<path class="st0" d="M1060.9,311.1c-9-2-15.5-4.4-17.7-6c-2.2-1.6-5.3-4.2-6.8-2.1c-1.6,2.3,2.2,6.4,5.3,7.8
		c3.1,1.4,12.7,5.1,18.1,5.9s10.7,2.5,11.7,0.3c0-0.1,0.1-0.2,0.1-0.3c0.1-0.2,0.1-0.3,0.1-0.5c0-0.1,0-0.3-0.1-0.4
		C1071,314.2,1068,312.8,1060.9,311.1z"/>
	<path class="st0" d="M1046.2,317.5c-8.9-3.9-12.7-8.4-16.1-5.9c-3.1,2.3,2.3,8.5,8.9,10.7s23.1,7.2,24.6,3.8
		c0.1-0.2,0.2-0.4,0.2-0.6C1063.8,322.5,1054.4,321.2,1046.2,317.5z"/>
	<path class="st0" d="M1040.6,326.2c-9.5-2.9-15.6-9.5-16.9-6.4c-1,2.3-0.1,6.4,9.3,10.4c9.4,4.1,19.7,7.3,21.2,5.4
		c0.2-0.2,0.3-0.4,0.3-0.7C1054.5,332.7,1049.1,328.8,1040.6,326.2z"/>
	<path class="st0" d="M1031.3,334c-8.3-3.5-11.9-9.4-15-5.1c-2.3,3.1,0,8.4,7.6,10.3c7.6,1.9,20.4,8,22.6,4.5
		c0.2-0.3,0.3-0.6,0.3-0.9C1046.9,339.7,1036.7,336.3,1031.3,334z"/>
	<path class="st0" d="M1026.3,355.8l-20.5-12.3c-1.2-0.6-4,1.1-4.8,2c-0.6,0.7-0.6,1.7,0.1,2.4c0.2,0.2,0.4,0.3,0.6,0.4l21.8,10.9
		c1.2,0.6,2.6,0.3,3.6-0.6c0.3-0.3,0.4-0.7,0.4-1.2C1027.4,356.7,1027,356.1,1026.3,355.8z"/>
	<path class="st0" d="M1035.2,348l-21.6-11.3c-1.2-0.5-4.2,1.9-5.1,3.1s-0.6,2.6,0.7,3.1l22.9,9.5c1.4,0.4,2.9-0.1,3.8-1.3
		c0.2-0.2,0.3-0.5,0.4-0.8c0.1-0.2,0.1-0.4,0.1-0.6c0-0.2,0-0.4-0.1-0.6C1036.1,348.6,1035.7,348.2,1035.2,348z"/>
	<path class="st0" d="M1018.5,361.6l-18.7-11.5c-1.1-0.6-4.6-0.3-5.4,0.6c-0.8,0.9-1.3,3.4-0.2,3.9l21.3,10.3
		c1.2,0.6,2.6,0.4,3.5-0.6c0.3-0.3,0.5-0.7,0.5-1.2C1019.5,362.5,1019.1,361.9,1018.5,361.6z"/>
	<path class="st0" d="M1009.7,367.1l-17.3-10.2c-1-0.5-3.8,0.3-4.4,1.1c-0.6,0.6-0.5,1.6,0.1,2.1c0.1,0.1,0.3,0.2,0.5,0.3l18.7,9.6
		c1,0.5,2.3,0.3,3-0.6c0.1-0.1,0.2-0.3,0.3-0.4c0.1-0.2,0.1-0.4,0.1-0.6c0-0.1-0.1-0.2-0.1-0.3
		C1010.4,367.7,1010.1,367.3,1009.7,367.1z"/>
	<path class="st0" d="M1002.4,372l-16-10.3c-0.9-0.5-2.1-0.5-3,0.2c-0.7,0.7-0.6,2.9,0.2,3.4l15.9,9.1c0.9,0.5,2.1,0.5,2.9-0.2
		c0.3-0.3,0.6-0.7,0.6-1.1C1003,372.7,1002.8,372.2,1002.4,372z"/>
	<path class="st0" d="M995.8,375.8l-15.2-9.7c-0.9-0.5-2-0.3-2.7,0.4c-0.7,0.6-1,3-0.2,3.5l15.8,8.3c0.9,0.5,1.9,0.4,2.7-0.3
		c0.1-0.1,0.2-0.3,0.3-0.4c0.1-0.2,0.1-0.4,0.1-0.6c0-0.1-0.1-0.2-0.1-0.3C996.4,376.3,996.1,376,995.8,375.8z"/>
	<path class="st0" d="M989.2,379.4l-14.2-9c-0.8-0.5-1.8-0.5-2.6,0c-0.6,0.3-0.8,1-0.6,1.6c0.1,0.2,0.2,0.3,0.3,0.4l12.5,10.6
		c0.6,0.5,3-0.7,4.1-1.4c0.4-0.5,0.6-1,0.7-1.6C989.5,379.8,989.4,379.5,989.2,379.4z"/>
	<path class="st0" d="M988.5,381.9l0.4-0.3c0,0,0,0-0.1,0C988.7,381.7,988.6,381.8,988.5,381.9z"/>
	<path class="st0" d="M988.6,382c-0.1,0-0.1,0.1-0.2,0.1L988.6,382z"/>
	<path class="st0" d="M989.2,381.3l-0.3,0.3C989,381.5,989.1,381.5,989.2,381.3z"/>
	<path class="st0" d="M982.8,383.5l-13.1-9.8c-0.7-0.6-1.7-0.6-2.4,0c-0.7,0.6-1.4,1.9-0.7,2.5l12.4,10.1c0.7,0.5,1.7,0.5,2.4,0
		c0.7-0.5,1.2-1.3,1.5-2.1c0-0.1,0.1-0.2,0.1-0.3c0-0.1,0-0.2-0.1-0.3C982.9,383.6,982.8,383.5,982.8,383.5z"/>
	<path class="st0" d="M964,377.1c-0.7-0.5-1.6-0.6-2.4-0.1c-0.6,0.3-0.8,0.9-0.5,1.5c0.1,0.1,0.1,0.2,0.2,0.3l10.5,10.1
		c0.7,0.6,1.6,0.6,2.3,0.1c1.3-0.9,1.7-1.5,1.7-2.1c0.1-0.2,0-0.5-0.3-0.8L964,377.1z"/>
	<path class="st0" d="M970.4,389.3l-10.8-9.4c-0.7-0.5-1.6-0.5-2.3,0c-0.5,0.3-0.7,0.9-0.5,1.4c0.1,0.1,0.1,0.2,0.3,0.3l9.9,10
		c0.6,0.5,2.5-0.1,3.2-0.6c0.4-0.2,0.6-0.6,0.6-1c0,0,0,0,0,0c0,0,0,0,0,0C970.8,389.8,970.6,389.5,970.4,389.3z"/>
	<path class="st0" d="M955.4,382.7c-0.6-0.5-1.5-0.5-2.2-0.1c-0.5,0.2-0.7,0.8-0.5,1.3c0.1,0.1,0.1,0.2,0.2,0.3l9.1,9.8
		c0.8,0.5,1.8,0.5,2.6,0.1l0.8-0.5c0.3-0.1,0.4-0.4,0.4-0.7c-0.1-0.4-0.3-0.8-0.5-1L955.4,382.7z"/>
	<path class="st0" d="M951.6,385.6c-0.5-0.5-1.4-0.7-2.1-0.4c-0.7,0.3-0.9,1-0.5,1.5l7.5,9.9c0.5,0.5,1.3,0.7,2,0.3
		c0.6-0.3,1.8-1.2,1.8-1.8c0.1,0,0.1,0,0-0.1L951.6,385.6z"/>
	<path class="st0" d="M947,388.9c-0.5-0.5-1.3-0.7-2-0.3c-0.7,0.3-0.9,1-0.5,1.5l6.8,9.4c0.4,0.5,1.8,0.5,2.5,0.1
		c0.7-0.4,2.1-1,2.1-1.5c0.1,0,0.1-0.1,0-0.1L947,388.9z"/>
	<path class="st0" d="M949.8,400.2l-7.7-8.4c-0.5-0.5-1.2-0.6-1.8-0.2c-0.7,0.3-0.9,0.9-0.5,1.4l5.7,9.7c0.4,0.4,2.7-0.7,3.3-1
		c0.5-0.2,0.9-0.6,1.1-0.9c0.1-0.1,0.1-0.2,0.1-0.3c0-0.1-0.1-0.1-0.1-0.2C949.9,400.3,949.9,400.3,949.8,400.2z"/>
	<path class="st0" d="M936.1,394.4c-0.5,0.2-0.8,0.7-0.5,1.1l3.7,8.7c0.2,0.4,2.2-0.3,2.8-0.5s1-0.6,1-0.9c0-0.2,0-0.2,0-0.3
		l-5.5-7.8C937.2,394.3,936.7,394.1,936.1,394.4z"/>
	<path class="st0" d="M932.4,395.7c-0.6,0.1-0.9,0.6-0.7,1l1.5,8.6c0.2,0.4,2.3,0,2.9-0.2s1.2-0.5,1.2-0.9l-3.5-8
		C933.5,395.7,933,395.5,932.4,395.7z"/>
	<path class="st0" d="M929.1,397.1c-0.6,0-1.1,0.4-1,0.8l-0.8,8.2c0.1,0.4,2.2,0.3,2.8,0.3s1.4-0.3,1.4-0.7l-1.2-7.9
		C930.3,397.4,929.7,397.1,929.1,397.1z"/>
	<path class="st0" d="M924.7,398.2c-0.6,0-1.1,0.2-1.2,0.6l-2.3,6.9c0,0.4,2.1,0.5,2.7,0.5s1.6,0,1.6-0.4l0.2-6.9
		C925.7,398.5,925.3,398.2,924.7,398.2z"/>
	<path class="st0" d="M920.4,397.8c-0.6-0.1-1.2,0-1.3,0.3l-3.8,5.5c-0.1,0.3,2,0.8,2.6,0.9c0.6,0.1,1.5,0.2,1.6-0.2l1.7-5.8
		C921.3,398.2,921,398,920.4,397.8z"/>
	<path class="st0" d="M1041.1,259.4c0.1-0.2,0.1-0.4,0.1-0.6c0-0.1-0.1-0.2-0.1-0.4c-0.2-0.5-0.5-1-1-1.3c-4.1-3-15.5,0.8-22,1.9
		c-14,2.5-27.4,0.6-28.6,4.4c-1.1,3.6,16.2,7.3,32,4.9C1032.4,266.7,1040.2,262.6,1041.1,259.4z"/>
	<path class="st0" d="M1036.3,287.6c-0.1-0.4-0.2-0.8-0.5-1.2c-2.7-3.7-14.5-2.3-20.8-2.5c-13.7-0.3-25.4-4.7-27.8-1.3
		c-2.3,3.3,12.3,10.1,27.5,11C1026.9,294.2,1036.3,290.9,1036.3,287.6z"/>
	<path class="st0" d="M632.7,124.1c-0.1,1.4-0.1,2.9-0.1,4.3c0,1.6,0,3.2,0.1,4.8c0.8,21.3,7.1,42.5,16.4,62.3
		c3.7,8.1,7.9,16.2,13.6,23.5c1.8,2.3,13.5,20,19,18.9c3.2-0.6-4-11.4-5.8-14.3c-5.4-8.2-10-16.8-13.9-25.8
		c-10.9-25.1-16.4-52.3-11-78.6c7.8-38.1,33.7-66.5,71.7-90.2c-52.4,9-85.4,48.6-89.4,87.8C633,119.2,632.8,121.6,632.7,124.1z"/>
	<path class="st0" d="M586.5,210.6c5,6.2,47.9,48.2,60.8,34.3c4.2-4.6-9.1-8.3-11.3-9.7c-12.9-7.9-24.1-18.3-33-30.5
		c-8-10.8-15.8-19.8-20.2-31.8c-1.3-3.8-3.3-19.6-10-18.5c-5.3,0.9-6.8,6-6.8,11.5c0.2,4.7,0.9,9.4,2.2,13.9
		C571.3,191.4,578.3,200.5,586.5,210.6z"/>
	<path class="st0" d="M609.1,156c4.3,18.8,15.5,35.2,27.7,51.5c5.1,6.8,19.9,27.7,32.7,27.6c-1.4-0.4-20.1-27.2-21.2-29
		c-11.5-18.7-18.5-38.3-20.9-58.9c-2-18.1-1.3-36.6,6-54c2.9-7.1,9.3-13.9,11.5-21c1.5-4.8-11.5,2.9-12.1,3.3
		c-11.1,7.7-19.9,15.9-23.5,27.2c-2,6.9-3.2,14-3.5,21.2c-0.1,1.3-0.1,2.7-0.1,4.1c0,1.3,0,2.6,0.1,3.8
		C606.1,139.9,607.2,148,609.1,156z"/>
	<path class="st0" d="M616.4,212.7c6,6.1,20.8,23.1,32.7,21.8c3.5-0.4-16.4-19.9-18.5-22.5c-8.1-10.3-14.7-21.7-19.7-33.8
		c-4.9-11.8-11.9-31-10.9-43.4c0.2-2.4,2.9-26.1-4.2-24c-9.1,2.6-11.9,19.3-13,25.4c-0.3,1.7-0.5,3.4-0.6,5.1c0,0.7,0,1.5,0,2.2
		c0,11.3,4.3,23.3,9.7,33.5C598.5,189.5,605.7,201.9,616.4,212.7z"/>
	<path class="st0" d="M596.8,240.8c9.4,5.7,19.1,11.2,31,13.5c1.3,0.2,16.9,2.1,15.9-1c-0.8-2.5-10.6-3.9-13.2-4.8
		c-9.9-3.6-18.1-9.4-25.9-15.1c-7.3-5.4-14.7-11.2-20-17.9c-1.8-2.4-12.3-16.3-17.8-10.5c-0.9,1-1.4,2.3-1.3,3.7
		c0,5.2,5.4,11.9,8.3,15C580,230.4,588.4,235.8,596.8,240.8z"/>
	<path class="st0" d="M641.3,259.9c-2.4-3.7-11.2-1.7-20.5-3.8c-7.4-1.6-13.7-5.3-20.2-8.3c-3.3-1.5-28.2-15.5-29.9-8.4
		c-0.1,0.2-0.1,0.5-0.1,0.8c0,0.3,0.1,0.6,0.1,0.9c0.1,0.9,0.3,1.7,0.7,2.5c5.7,14.1,23.9,16.5,38.8,18.8
		C614.2,263.1,646.7,268,641.3,259.9z"/>
	<path class="st0" d="M611.1,276.3c11.7-0.6,35.2-3.6,32.6-8.7c-1.4-2.6-27.9,4.2-59.8-5.5c-2.2-0.9-6.2-0.1-6.1,2.3
		c0,1.9,2.9,5,12.1,8.7C596.6,275.7,603.9,276.8,611.1,276.3z"/>
	<path class="st0" d="M644.9,275.2c-1.7-3.8-13.6,2.4-29.3,4c-14.1,1.4-25.4,0.4-25.3,5.6c0,0.2,0,0.3,0,0.5
		C592,299.2,647.4,280.8,644.9,275.2z"/>
	<path class="st0" d="M640.2,290.1c3.5-2.3,7.3-6.6,6-7.7c-1.3-1.1-9.9,4-13.5,5.4c-3.6,1.4-9.1,3.5-20.8,4.6
		c-10.4,0.9-13.2,2-13.2,4.2c0,0.3,0.1,0.7,0.2,1c0.7,2.6,8.7,2.6,17.2,1.3S631.4,295.9,640.2,290.1z"/>
	<path class="st0" d="M699.1,263.4c-1.2-3.8-14.6-1.9-28.6-4.4c-6.5-1.1-17.9-4.9-22-1.9c-0.5,0.3-0.8,0.8-1,1.3
		c0,0.1-0.1,0.2-0.1,0.4c0,0.2,0,0.4,0.1,0.6c0.9,3.1,8.7,7.3,19.6,8.9C682.9,270.7,700.2,267,699.1,263.4z"/>
	<path class="st0" d="M1023,314.5c0.1-0.2,0.1-0.3,0.1-0.5c0-0.2-0.1-0.3-0.1-0.4c0-0.2-0.1-0.3-0.2-0.5c-1.7-3.7-13.1-4.8-19-6.2
		c-12.8-3-22.7-9.2-25.8-6.6c-2.8,2.4,9.3,11.2,23.5,15C1012.6,318.2,1022,317.3,1023,314.5z"/>
	<path class="st0" d="M1005.2,333.7c0.1-0.2,0.1-0.3,0-0.5c-1-3.4-10.8-5.9-15.8-7.8c-10.8-4.3-18.6-10.9-21.6-9.1
		s6.5,10.8,18.4,15.9C996.2,336.5,1005.2,336.6,1005.2,333.7z"/>
	<path class="st0" d="M988.7,349.9L988.7,349.9c-0.2-3.5-9.2-6.8-13.5-9.2c-9.4-5.1-15.6-12.2-18.9-10.8c-3.1,1.3,4,11.1,14.3,17.1
		C979.8,352.3,988.7,353.1,988.7,349.9z"/>
	<path class="st0" d="M969.6,365.9L969.6,365.9c0-3.3-7.7-7.7-11.4-10.5c-8.1-6.2-12.9-13.9-16.2-13c-2.9,0.8,2.4,11.1,11.3,18.3
		C961.2,367.2,969.4,369.2,969.6,365.9z"/>
	<path class="st0" d="M951,379.5C951,379.5,951,379.5,951,379.5c0-0.1,0-0.2,0-0.3c0,0,0,0,0,0c-0.1-3.2-6.7-8-9.8-11.1
		c-7.1-6.8-11-14.7-14.1-14.2c-2.8,0.5,1.3,11.1,9,19C943,379.9,950.5,382.7,951,379.5z"/>
	<path class="st0" d="M932.1,391.1c0.1-0.3,0.2-0.6,0.2-0.9c0-3-5-7.3-7.3-10.1c-5.5-6.8-7.5-14.3-10.8-14
		c-3.1,0.3-1.5,10.2,4.3,17.9C923.8,390.9,930.8,394,932.1,391.1z"/>
	<path class="st0" d="M910.6,393.1c0.2-0.2,0.4-0.5,0.4-0.8c0-1.2-2.5-2.9-3.7-4c-2.9-3-2.9-6.3-5.5-6.1c-2.4,0.1-3.2,4.5-0.2,7.8
		C904.3,393,909,394.4,910.6,393.1z"/>
	<path class="st0" d="M901.9,374.9c0.4-0.2,0.7-0.6,0.7-1.1c0-2.6-10.5-5-10.5-5C893,370.4,898,377.8,901.9,374.9z"/>
	<path class="st0" d="M843.2,456.1c2.5,0,3.3-5.3,3.3-12.4c0-9.3-1.4-21.7-2.4-29.1c1.9-19.5,6.8-71.3,7.8-76.5c0.9-4.6,4-9,4-13
		c0,0,0,0,0,0s0,0,0,0c0-1.7-0.7-3.4-1.8-4.6c-4-4.5-10.6-22.8-10.6-22.8s-6.7,18.3-10.6,22.8c-4.5,5.1,0.9,11,2.2,17.6
		c1,4.7,5.6,53.3,7.6,73.8C841.1,423.2,837,456.1,843.2,456.1z"/>
	<path class="st0" d="M731.8,255.3c1.2,0.9,2.4,1.8,2.3,1.8c13.5,6.4,7.8,6.5,33.7,17.3c-1.8-3.4-3.9-6.5-6.3-9.5
		c-1.2-1.3-2.6-2.5-4.1-3.4c-4-2.9-14.1-4.7-14.1-4.7s-7.9-1.8-13.8-3.3C729.4,253.5,730.6,254.4,731.8,255.3z"/>
	<path class="st0" d="M955.4,255.2c1.2-0.9,2.4-1.7,2.3-1.7c-5.8,1.5-13.8,3.3-13.8,3.4c0,0.1-10.2,1.7-14.1,4.6
		c-1.5,0.9-2.8,2.1-4,3.4c-2.5,2.9-4.6,6.1-6.4,9.4c25.9-10.8,20.2-10.9,33.7-17.3C953,257,954.2,256.1,955.4,255.2z"/>
	<path class="st0" d="M779.4,477.2c1.9-2.9,5.3-2.4,8.2-4.8c2.9-2.4,7.2-16.7,8.6-20.6c1.4-3.9,16.3-40.2,18.2-46.5
		c0.8-2.8,1.2-5.8,1.2-8.7c0,0,0,0,0,0c0,0,0,0,0,0c0-2.4-0.3-4.3-0.3-5c0,0-38.3,69.4-43.1,77.5c-4.8,8.1-6.2,12.9-0.5,13.4
		S777.5,480.1,779.4,477.2z"/>
	<path class="st0" d="M813.6,548.3c0.2-6.2,1.8-66.2,1.9-68.8c0-0.1,0-0.1,0-0.1s0,0,0,0.1c-0.5,2.2-10.3,43.6-13.5,58.5
		c-3.3,15.2-7.4,39-7.6,45.7s-1.8,11.9,2,12.5s5.4-5.1,8.5-9.8s5-7.5,7-12.3S813.4,554.6,813.6,548.3z"/>
	<path class="st0" d="M827.4,462.4c0.1-5.3,5.7-59.5,6.5-67.4c0.1-0.6,0.1-1,0.1-1s0,0.1-0.1,0.3c-1.2,3.2-14.4,38.3-15.6,50.1
		c-1.3,12.4-3.7,28.2-0.8,30.6C820.4,477.4,827.3,468.1,827.4,462.4z"/>
	<path class="st0" d="M850.2,729.8c0.3-6.6-0.1-13.2-1-19.7c-3.5-11.9-5.1-32.6-5.9-49.5c-0.8,16.8-2.4,37.5-5.8,49.5
		c-0.9,6.5-1.3,13.1-1,19.7c0,3.8-0.2,7.6-0.6,11.3c-0.8,8.5-1.5,17.9,2.2,21.7c1.3,1.6,3.7,10.5,5.2,9.3c1.6,1.2,4-7.8,5.3-9.3
		c2.2-2.2,2.8-6.4,2.8-11.2c0-0.9,0-1.8,0-2.7c-0.1-2.6-0.3-5.2-0.6-7.8C850.3,737.3,850.1,733.5,850.2,729.8z"/>
	<path class="st0" d="M871.4,391.6c0,1.4-1,7.6,0.9,13.8c1.9,6.2,16.8,42.6,18.2,46.5c1.4,3.9,5.8,18.2,8.6,20.6
		c2.8,2.4,6.2,1.9,8.2,4.8c2,2.9,1.9,5.7,7.6,5.3c2.6-0.2,3.8-1.3,3.8-3.3c0-2.3-1.6-5.7-4.2-10.2
		C909.7,461,871.4,391.6,871.4,391.6z"/>
	<path class="st0" d="M893.1,475.7c-5.6-11.3-22.6-54.8-22.6-54.8s6.5,46.7,9.3,58.1c2.8,11.4,13.6,47,18.7,55.4
		s10.6,13.5,15.3,11.4c1.2-0.5,1.7-2,1.7-4c0-5.4-3.8-14.6-4.9-17.4C909,520.6,898.7,487,893.1,475.7z"/>
	<path class="st0" d="M815.3,421c0,0-16.8,43.4-22.5,54.7c-5.6,11.3-16,44.9-17.5,48.7s-7.9,19.4-3.2,21.5s10.2-3,15.2-11.4
		s15.9-44,18.7-55.4C808.8,467.7,815.3,421,815.3,421z"/>
	<path class="st0" d="M892.2,583.7c-0.2-6.7-4.3-30.5-7.5-45.7s-13.6-58.5-13.6-58.5s1.7,62.6,1.9,68.9s-0.3,21.1,1.7,25.8
		s4,7.6,7.1,12.3s4.6,10.3,8.4,9.8c1.6-0.2,2.3-1.3,2.5-2.9c0.1-0.5,0.1-0.9,0.1-1.5c0-0.7,0-1.4-0.1-2.2
		C892.6,587.9,892.3,585.9,892.2,583.7z"/>
	<path class="st0" d="M870.6,583c-2.4-12.9-6-89.8-6-89.8s-7.4,102.8-6.7,110.4s5.3,15.2,7,22.8s6.4,19.4,10.2,19.3
		c2-0.1,2.4-2.9,2.4-6.2s-0.4-6.9-0.4-8.8C877,626.9,873,595.9,870.6,583z"/>
	<path class="st0" d="M828.6,601.8c0-1,0-2.3-0.1-3.9c-0.8-23.1-6.7-104.7-6.7-104.7s-3.6,77-6,89.8s-6.4,43.9-6.5,47.7
		s-2,14.8,1.9,14.9s8.6-11.7,10.3-19.3s6.3-15.1,7-22.8C828.6,602.9,828.6,602.4,828.6,601.8z"/>
	<path class="st0" d="M868.7,475.1c0.7-0.6,1.1-2.1,1.3-4.3c0.1-0.8,0.1-1.7,0.1-2.7c0-1.1,0-2.2-0.1-3.5
		c-0.3-5.9-1.2-13.5-1.9-20.1c-1.2-12.4-15.2-50.5-15.2-50.5l0,0l0,0c0,0,5.8,62.6,6,68.4C859.1,468.2,865.9,477.6,868.7,475.1z"/>
	<path class="st0" d="M858.9,634c-9.6-19.1-3.1-72.8-3.1-72.8c-2.9,5.3-5.4,10.9-7.5,16.6c-1.7,5-1,27.2-0.3,47
		c0.4,11.5,0.9,22.3,0.8,28.2c-0.1,15.9,3.8,48.6,7.7,51.7s5.3-13.2,6.7-16.4c0.5-1.1,0.8-3,0.9-5.4c0.1-1.2,0.1-2.4,0.1-3.8
		c0-1.3,0-2.6-0.1-4C863.5,659.8,860.3,637.3,858.9,634z"/>
	<path class="st0" d="M837.1,653c0-5.9,0.4-16.7,0.9-28.2c0.3-7.6,0.6-15.6,0.7-22.8c0.1-3.2,0.1-6.2,0.1-8.9c0-1.7-0.1-3.2-0.1-4.7
		c-0.2-5.1-0.5-8.9-1-10.6c-2.1-5.7-4.6-11.2-7.5-16.5c0,0,6.3,53.6-3.3,72.8c-2,4.6-7.6,46.9-4.3,54.3c1.4,3.2,2.8,19.4,6.7,16.3
		S837.3,668.9,837.1,653z"/>
	<path class="st0" d="M858.6,482.1c0.1-1,0.1-2.1,0-3.1c-0.1-2.7-0.6-5.3-1.4-7.9c-1.7-5-4-29.4-4-29.4s-2.4,19.7-7.8,25.4
		c-1.3,1.4-0.1,65.4,0,69.4s3.6,22.2,6.1,21.9c4.4-0.6,4.8-33.7,4.5-45c-0.1-4,0.6-9.3,1.3-15C858.1,493,858.5,487.5,858.6,482.1z"
		/>
	<path class="st0" d="M834.7,558.3c2.5,0.3,5.9-17.9,6.1-21.9c0.1-2.6,0.6-30,0.6-49.6c0,0,0,0,0,0c0-3.6,0-6.9,0-9.7
		c-0.1-5.8-0.3-9.6-0.6-10c-5.3-5.7-7.8-25.4-7.8-25.4s-2.4,24.4-4,29.4c-2.5,7.4-1.3,17.8-0.1,27.2c0.7,5.7,1.4,11.1,1.3,15
		C829.9,524.6,830.3,557.7,834.7,558.3z"/>
	<path class="st0" d="M812.8,284.9c1.4,6.6,19.7-9.1,21.3-10.2c0,0,0.1-0.1,0.1-0.1c0,0-0.1,0-0.1,0c-0.9,0.3-8.3,2.2-13.7,3.3
		C814.6,278.9,811,278,812.8,284.9z"/>
	<path class="st0" d="M815.3,266.5c-1.3,6.1,19.7,5.2,20,5.4c0,0-6.9-3.2-11.7-6C818.8,263.1,816.4,260.2,815.3,266.5z"/>
	<path class="st0" d="M869.6,267.1c0-0.3-0.1-0.4-0.1-0.6c-1-6.3-3.5-3.4-8.2-0.6s-11.7,6-11.7,6
		C849.9,271.7,869.6,272.6,869.6,267.1z"/>
	<path class="st0" d="M850.6,274.6c0.6,0.2,20,17.1,21.3,10.3c0.3-1,0.5-1.9,0.5-3c0-3.7-3.3-3.2-8.1-4
		C858.6,276.9,850.9,274.7,850.6,274.6z"/>
	<path class="st0" d="M837.4,266.6l5.3,6.7l5.6-6.7c9.8-5.9,21-12,22.1-18.7c0.1-0.4,0.1-0.7,0.1-1.1c0-0.3,0-0.6-0.1-0.9
		c-0.4-2.1-1.7-4.4-4.6-6.7c-3.6-2.9-6.5-5.4-8.6-7.5c3.6,2.7,7.4,4.9,11.5,6.8c0,0-1.6-7.3-9-13.8c-1-0.9-2-1.7-2.9-2.6
		c-1.1,2.6-4,4.9-10.8,4.9h-0.7c1.8,4.3,5.5,6.8,9.4,10.4c5.5,5.1-1.7,9.6-1.7,9.6s4.2,2.7,9.9-1.7c0,0-0.5,3.4-7.7,8.1
		c-3.6,2.3-8,5.8-12.3,9.3c-4.3-3.5-8.7-6.9-12.4-9.3c-7.3-4.7-7.7-8.1-7.7-8.1c5.7,4.4,9.9,1.7,9.9,1.7s-7.3-4.5-1.7-9.6
		c3.9-3.6,7.6-6.1,9.4-10.4h-0.2c-7.4,0-10.1-2.6-10.8-5.3c-1.1,1-2.2,2-3.5,3c-7.4,6.6-9,13.8-9,13.8c4.1-1.8,8-4.1,11.5-6.8
		c-2.2,2.1-5,4.6-8.6,7.5C807,249.6,823.5,258.3,837.4,266.6z"/>
	<path class="st0" d="M843.1,223.1c3.2,0,10.3,0.4,10.3-2.2c0-2.6-6.2-12.3-11.1-12.3c-4.3,0-9.5,10.4-9.5,12.7
		S839.9,223.1,843.1,223.1z"/>
	<path class="st0" d="M877.2,280.5c0,0,2.9-0.7,7.3-1.3c8.4-1.1,21-2.8,22.2-3c0.1,0,0.1,0,0.1,0s0,0-0.1,0c-0.4,0-2,0.2-5.3,0.7
		c-20.6,2.6-27.6-11.2-27.6-11.2l0,0v0c0,0,2.7,5.6,3.2,8.4C877.4,276.2,877.5,278.4,877.2,280.5z"/>
	<path class="st0" d="M809.8,280.5c-0.2-2.1-0.1-4.3,0.2-6.4c0.4-2.5,2.6-7.2,3.1-8.2c0.1-0.1,0.1-0.2,0.1-0.2s0,0.1-0.1,0.2
		c-0.9,1.6-8.4,13.4-27.5,11c-15-1.9,5.1,0.7,16.9,2.3C806.9,279.8,809.8,280.5,809.8,280.5z"/>
</g>
</svg>
