<svg xmlns="http://www.w3.org/2000/svg" width="184" height="22" viewBox="0 0 184 22">
    <g fill="#0F2E33" fill-rule="nonzero">
        <path d="M.121.04h4.091l4.9 8.141c3.079-5.305 4.739-8.019 4.901-8.14h4.01c.121.04.162.08.162.162-4.78 7.978-7.169 12.068-7.169 12.311v8.951c0 .122-.04.162-.162.162H7.331c-.122 0-.163-.04-.163-.162v-9.072c0-.162-2.308-4.131-6.925-11.867L0 .122l.121-.08zM27.864.04c4.09 0 7.33 1.904 9.72 5.752.85 1.458 1.255 3.159 1.255 5.184 0 4.13-2.186 7.37-6.52 9.72-1.539.647-3.078.971-4.617.971-4.374 0-7.776-2.146-10.206-6.439-.567-1.62-.85-3.078-.85-4.374 0-4.495 2.389-7.857 7.127-10.125A12.22 12.22 0 0 1 27.864.04zM20.331 10.45v.648c0 2.47 1.296 4.536 3.848 6.115a7.024 7.024 0 0 0 3.442.892h.243c3.159 0 5.467-1.661 6.966-5.022.203-.77.324-1.499.324-2.228v-.243c0-2.957-1.458-5.144-4.374-6.602a7.754 7.754 0 0 0-3.078-.648c-3.2 0-5.508 1.62-6.966 4.86a6.024 6.024 0 0 0-.405 2.228zM51.759 0c2.511 0 4.577.526 6.197 1.58-1.337 1.538-2.147 2.389-2.35 2.551-1.336-.527-2.592-.81-3.766-.81-2.876 0-5.144 1.58-6.845 4.779-.202.729-.323 1.418-.323 2.066 0 3.28 1.458 5.75 4.333 7.411.891.364 1.741.567 2.592.567 2.227 0 4.05-.891 5.468-2.713.364-.486.648-1.134.85-1.985h-5.022c-.121 0-.162-.04-.162-.162v-3.119c0-.121.081-.161.162-.161h8.788c.122.04.163.08.163.162v1.336c0 4.171-1.985 7.25-5.954 9.153-1.458.567-2.794.891-4.05.891-4.577 0-7.979-2.43-10.206-7.25a12.914 12.914 0 0 1-.608-3.847c0-4.131 2.309-7.412 6.885-9.801C49.248.243 50.544 0 51.76 0zM71.24 0l10.044 21.546-.163.081h-3.563c-.163-.121-.892-1.701-2.269-4.779h-8.1c-.202.284-.971 1.863-2.267 4.698l-.162.081h-3.484l-.162-.081C67.311 8.181 70.713 1.012 71.24 0zm-2.552 13.527h5.144c-1.458-3.159-2.309-5.063-2.592-5.67-.122.162-1.013 2.025-2.552 5.67zM89.87.04h.85c2.187 0 3.888.73 5.103 2.228v.081l-2.025 2.308h-.162c-1.134-.85-2.308-1.255-3.523-1.255-1.823.284-2.754 1.013-2.754 2.146 0 1.256 1.377 2.228 4.13 2.957 2.714 1.296 4.253 2.632 4.617 3.969.325 1.012.487 1.822.487 2.551 0 2.876-1.702 4.982-5.103 6.359-.77.162-1.418.243-1.864.243-2.227 0-4.09-.85-5.629-2.551-.081 0-.567-.486-1.498-1.499v-.081c0-.04.729-.81 2.187-2.227h.08c1.823 1.903 3.564 2.875 5.265 2.875 1.661 0 2.633-1.053 2.916-3.2v-.324c0-1.255-1.62-2.51-4.86-3.725-2.267-1.013-3.604-2.106-4.009-3.362-.203-.648-.324-1.215-.324-1.66v-.649c0-2.227 1.417-3.847 4.212-4.86C88.493.122 89.141.04 89.87.04zM109.593.203c2.025 0 3.888.445 5.63 1.336v.162a25.868 25.868 0 0 1-2.025 2.39c-.689-.365-1.701-.568-2.957-.568h-1.174c-2.309 0-4.334 1.216-6.035 3.645a6.124 6.124 0 0 0-.931 3.281v.567c0 2.835 1.457 5.062 4.293 6.682a7.606 7.606 0 0 0 3.078.648c1.66 0 2.916-.364 3.766-1.134.121.041.81.932 2.025 2.714v.243c-2.066 1.053-4.01 1.58-5.791 1.58-4.253 0-7.574-2.107-10.044-6.359a10.923 10.923 0 0 1-1.013-4.617v-.081c0-4.253 2.308-7.492 6.885-9.72 1.418-.486 2.876-.77 4.293-.77zM127.413 0l10.044 21.546-.162.081h-3.523c-.162-.121-.891-1.701-2.268-4.779h-8.1c-.203.284-.972 1.863-2.269 4.698l-.162.081h-3.564l-.162-.081C123.484 8.181 126.888 1.012 127.413 0zm-2.551 13.527h5.143c-1.458-3.159-2.308-5.063-2.592-5.67-.121.162-.972 2.025-2.551 5.67zM145.597.04c2.714 0 4.82 1.135 6.359 3.402.365 1.013.567 2.471.567 4.374v.324c0 2.755-1.012 4.617-2.997 5.549-1.094.891-2.997 1.336-5.71 1.336v6.44c0 .122-.041.162-.162.162h-3.565l-.161-.081c.04-6.642.08-11.745.08-15.309V.283c0-.121.081-.161.162-.161h3.16c.688 0 1.417-.041 2.267-.081zm-1.903 3.443v7.695h1.377c2.106 0 3.402-.932 3.888-2.795v-.769c0-1.904-.931-3.159-2.754-3.807a5.749 5.749 0 0 0-1.944-.324h-.567zM155.034.04h11.988c.121.041.162.081.162.163v3.24c0 .121-.04.161-.162.161h-8.343V8.1h8.181c.121 0 .162.081.162.162v3.24c0 .121-.04.162-.162.162h-8.181v6.52h8.343c.121.041.162.081.162.162v3.24c0 .122-.04.163-.162.163h-11.988c-.121 0-.162-.041-.162-.162V.203c.04-.122.081-.163.162-.163zM177.107.04h.85c2.187 0 3.888.73 5.103 2.228v.081l-2.025 2.308h-.162c-1.134-.85-2.308-1.255-3.523-1.255-1.823.284-2.755 1.013-2.755 2.146 0 1.256 1.377 2.228 4.131 2.957 2.714 1.296 4.253 2.632 4.618 3.969.323 1.012.486 1.822.486 2.551 0 2.876-1.702 4.982-5.104 6.359-.769.162-1.417.243-1.863.243-2.227 0-4.09-.85-5.629-2.551-.081 0-.567-.486-1.499-1.499v-.081c0-.04.73-.81 2.188-2.227h.08c1.823 1.903 3.565 2.875 5.266 2.875 1.66 0 2.632-1.053 2.916-3.2v-.324c0-1.255-1.62-2.51-4.86-3.725-2.268-1.013-3.605-2.106-4.01-3.362-.202-.648-.324-1.215-.324-1.66v-.649c0-2.227 1.417-3.847 4.212-4.86.526-.242 1.174-.324 1.904-.324z"/>
    </g>
</svg>
