<svg width="318" height="293" viewBox="0 0 318 293" fill="none" xmlns="http://www.w3.org/2000/svg">
<path d="M271.658 49.7723C285.973 63.0325 297.304 79.1805 304.9 97.1465C313.185 115.88 317.635 136.079 317.989 156.557L317.989 158.367C318.406 191.294 306.761 223.237 285.245 248.183C276.759 258.867 266.531 268.045 254.991 275.332C249.306 278.877 243.226 281.747 236.875 283.883C215.514 290.446 193.228 293.502 170.887 292.933C142.855 293.523 114.921 289.44 88.2332 280.852C83.206 279.132 79.9904 277.956 78.677 277.322C65.4611 271.438 53.7427 262.653 44.3925 251.622C29.9612 235.703 18.5303 217.308 10.6515 197.325C3.09766 175.138 -0.489634 151.796 0.0536409 128.367L0.053641 127.87C-0.124894 110.029 4.40519 92.456 13.1877 76.9209C21.2329 62.2829 31.9918 49.3076 44.8907 38.6867C59.811 27.3122 76.2623 18.0966 93.7586 11.3119C112.008 3.87917 131.524 0.0381864 151.232 -7.28968e-06L151.73 -7.26791e-06C174.304 0.160628 196.573 5.22475 216.993 14.8412C236.894 23.6254 255.33 35.406 271.658 49.7723" fill="#D3D3D3"/>
</svg>
