<svg width="8" height="7" viewBox="0 0 8 7" fill="none" xmlns="http://www.w3.org/2000/svg">
<path fill-rule="evenodd" clip-rule="evenodd" d="M3.48656 0.903159C3.64166 0.674692 3.95261 0.615221 4.18107 0.770327C4.82341 1.2064 5.74124 1.87223 6.392 2.44659C6.70448 2.72239 7.0061 3.02018 7.16253 3.28255C7.1855 3.32108 7.20892 3.36459 7.2297 3.41223C7.32112 3.53865 7.32739 3.66903 7.32464 3.73129C7.31958 3.84595 7.27562 3.9323 7.26605 3.95109C7.26571 3.95175 7.26542 3.95233 7.26517 3.95283C7.25192 3.9791 7.23783 4.00245 7.22583 4.02108C7.19458 4.08067 7.15622 4.13013 7.11382 4.17117C7.00382 4.30567 6.84257 4.48033 6.65733 4.66744C6.12617 5.20392 5.26072 5.97949 4.36062 6.53078C4.12514 6.67501 3.81732 6.60103 3.67309 6.36555C3.52887 6.13006 3.60284 5.82224 3.83833 5.67802C4.45244 5.30189 5.06438 4.79712 5.54263 4.35414C5.10968 4.32866 4.61823 4.28665 4.128 4.23884C3.10225 4.13881 2.0188 4.00639 1.3333 3.91484C1.05959 3.87828 0.867333 3.62676 0.90389 3.35305C0.940447 3.07934 1.19197 2.88708 1.46568 2.92364C2.14245 3.01403 3.2138 3.14494 4.22506 3.24357C4.87181 3.30664 5.47031 3.35389 5.92317 3.37212C5.86509 3.31726 5.8008 3.25858 5.73027 3.19633C5.12608 2.66307 4.24836 2.02468 3.61939 1.59768C3.39092 1.44257 3.33145 1.13163 3.48656 0.903159Z" fill="#EF7A28"/>
</svg>
