<svg width="8" height="8" viewBox="0 0 8 8" fill="none" xmlns="http://www.w3.org/2000/svg">
<path fill-rule="evenodd" clip-rule="evenodd" d="M3.41027 1.34601C3.55854 1.11305 3.86759 1.0444 4.10055 1.19267C4.75551 1.60954 5.69265 2.2479 6.36013 2.80274C6.68065 3.06917 6.99095 3.3579 7.15507 3.61552C7.17918 3.65336 7.20387 3.69615 7.22606 3.74316C7.32118 3.86681 7.33131 3.99695 7.3304 4.05926C7.32874 4.17402 7.28735 4.26164 7.27835 4.2807C7.27803 4.28138 7.27775 4.28197 7.27752 4.28247C7.26505 4.30912 7.25166 4.33287 7.24022 4.35186C7.21074 4.41234 7.17386 4.46291 7.1327 4.5052C7.02673 4.64289 6.87072 4.82225 6.6911 5.01476C6.17606 5.56673 5.33395 6.36759 4.45057 6.94529C4.21946 7.09642 3.90959 7.03159 3.75845 6.80048C3.60731 6.56937 3.67215 6.2595 3.90326 6.10836C4.50596 5.71422 5.10269 5.19155 5.56761 4.7346C5.13411 4.72196 4.64162 4.69451 4.15019 4.66124C3.12193 4.59162 2.03503 4.49134 1.34712 4.42012C1.07245 4.39169 0.872832 4.14597 0.901268 3.87129C0.929705 3.59662 1.17543 3.397 1.4501 3.42544C2.12925 3.49575 3.204 3.59489 4.21774 3.66353C4.86608 3.70742 5.46571 3.73693 5.91891 3.74175C5.85924 3.68863 5.79323 3.63188 5.72089 3.57175C5.10118 3.05661 4.20494 2.44449 3.5636 2.03629C3.33064 1.88802 3.26199 1.57897 3.41027 1.34601Z" fill="white"/>
</svg>
