<svg width="1609" height="664" viewBox="0 0 1609 664" fill="none" xmlns="http://www.w3.org/2000/svg">
<mask id="mask0" mask-type="alpha" maskUnits="userSpaceOnUse" x="0" y="0" width="1609" height="664">
<rect width="1609" height="664" fill="#C4C4C4"/>
</mask>
<g mask="url(#mask0)">
<path d="M1372.96 202.221C1445.25 254.763 1502.48 318.75 1540.84 389.939C1582.68 464.169 1605.16 544.209 1606.95 625.349L1606.95 632.521C1609.05 762.993 1550.24 889.568 1441.57 988.415C1398.72 1030.75 1347.06 1067.12 1288.78 1095.99C1260.07 1110.04 1229.37 1121.41 1197.29 1129.88C1089.41 1155.88 976.864 1167.99 864.035 1165.73C722.465 1168.07 581.388 1151.89 446.605 1117.86C421.216 1111.05 404.977 1106.39 398.344 1103.88C331.599 1080.56 272.417 1045.75 225.196 1002.04C152.313 938.963 94.5837 866.073 54.7933 786.891C16.6442 698.977 -1.47278 606.486 1.27093 513.65L1.27093 511.678C0.369269 440.985 23.2476 371.353 67.6021 309.796C108.233 251.793 162.569 200.379 227.712 158.294C303.065 113.224 386.149 76.7069 474.51 49.8229C566.678 20.371 665.235 5.1513 764.767 4.99996L767.283 4.99996C881.289 5.63647 993.754 25.7028 1096.88 63.8076C1197.39 98.6146 1290.5 145.295 1372.96 202.221" fill="#EF7A28"/>
</g>
</svg>
