<svg width="30" height="30" viewBox="0 0 30 30" fill="none" xmlns="http://www.w3.org/2000/svg">
<rect width="30" height="30" rx="10" fill="#EF7A28"/>
<path d="M18.7188 16H16.375V23H13.25V16H10.7188V13.0938H13.25V10.9062C13.25 10.0729 13.4062 9.36458 13.7188 8.78125C14.0312 8.19792 14.4688 7.76042 15.0312 7.46875C15.6146 7.15625 16.2812 7 17.0312 7C17.3646 7 17.7188 7.02083 18.0938 7.0625C18.4688 7.08333 18.7604 7.11458 18.9688 7.15625L19.2812 7.1875V9.65625H18.0312C17.4479 9.65625 17.0208 9.8125 16.75 10.125C16.5 10.4167 16.375 10.7812 16.375 11.2188V13.0938H19.1562L18.7188 16Z" fill="white"/>
</svg>
