<svg width="40" height="40" viewBox="0 0 40 40" fill="none" xmlns="http://www.w3.org/2000/svg">
<circle cx="20" cy="20" r="20" fill="#EF7A28"/>
<path fill-rule="evenodd" clip-rule="evenodd" d="M18.5142 14.0662C18.8809 13.5485 19.5978 13.4262 20.1154 13.7928C21.5708 14.8238 23.6485 16.3949 25.1169 17.7439C25.822 18.3916 26.5011 19.0893 26.8484 19.6991C26.8994 19.7886 26.9512 19.8896 26.9968 20C27.2009 20.2945 27.2094 20.5943 27.2002 20.7371C27.1834 21.0003 27.0785 21.1966 27.0556 21.2393C27.0548 21.2408 27.0541 21.2421 27.0535 21.2433C27.0219 21.303 26.9885 21.356 26.9601 21.3982C26.8856 21.5337 26.7952 21.6455 26.6959 21.7378C26.4371 22.0417 26.0588 22.4355 25.6248 22.8568C24.3803 24.0647 22.3571 25.8065 20.2646 27.0315C19.7172 27.352 19.0136 27.1681 18.6931 26.6206C18.3726 26.0732 18.5565 25.3696 19.104 25.0491C20.5317 24.2132 21.9602 23.0819 23.0789 22.0863C22.0857 22.008 20.9588 21.889 19.8351 21.7568C17.4837 21.4802 15.0013 21.1266 13.431 20.885C12.8041 20.7885 12.374 20.202 12.4705 19.575C12.5669 18.9481 13.1534 18.518 13.7804 18.6145C15.3307 18.853 17.7853 19.2026 20.1035 19.4753C21.586 19.6497 22.9585 19.7856 23.9978 19.8482C23.8669 19.7195 23.7219 19.5818 23.5628 19.4356C22.1994 18.1832 20.2127 16.6769 18.7876 15.6674C18.2699 15.3007 18.1475 14.5838 18.5142 14.0662Z" fill="white"/>
</svg>
