<svg width="40" height="40" viewBox="0 0 40 40" fill="none" xmlns="http://www.w3.org/2000/svg">
<circle cx="20" cy="20" r="20" transform="rotate(180 20 20)" fill="#EF7A28"/>
<path fill-rule="evenodd" clip-rule="evenodd" d="M21.4858 25.9338C21.1191 26.4515 20.4022 26.5738 19.8846 26.2072C18.4292 25.1762 16.3515 23.6051 14.8831 22.2561C14.178 21.6084 13.4989 20.9107 13.1516 20.3009C13.1006 20.2114 13.0488 20.1104 13.0032 20C12.7991 19.7055 12.7906 19.4057 12.7998 19.2629C12.8166 18.9997 12.9215 18.8034 12.9444 18.7607C12.9452 18.7592 12.9459 18.7579 12.9465 18.7567C12.9781 18.697 13.0115 18.644 13.0399 18.6018C13.1144 18.4663 13.2048 18.3545 13.3041 18.2622C13.5629 17.9583 13.9412 17.5645 14.3752 17.1432C15.6197 15.9353 17.6429 14.1935 19.7354 12.9685C20.2828 12.648 20.9864 12.8319 21.3069 13.3794C21.6274 13.9268 21.4435 14.6304 20.896 14.9509C19.4683 15.7868 18.0398 16.9181 16.9211 17.9137C17.9143 17.992 19.0412 18.111 20.1649 18.2432C22.5163 18.5198 24.9987 18.8734 26.569 19.115C27.1959 19.2115 27.626 19.798 27.5295 20.425C27.4331 21.0519 26.8466 21.482 26.2196 21.3855C24.6693 21.147 22.2147 20.7974 19.8965 20.5247C18.414 20.3503 17.0415 20.2144 16.0022 20.1518C16.1331 20.2805 16.2781 20.4182 16.4372 20.5644C17.8006 21.8168 19.7873 23.3231 21.2124 24.3326C21.7301 24.6993 21.8525 25.4162 21.4858 25.9338Z" fill="white"/>
</svg>
