<svg width="174" height="161" viewBox="0 0 174 161" fill="none" xmlns="http://www.w3.org/2000/svg">
<path d="M148.643 27.3493C156.476 34.6356 162.676 43.5088 166.832 53.3809C171.365 63.6746 173.8 74.774 173.994 86.026L173.994 87.0205C174.222 105.114 167.85 122.666 156.077 136.374C151.434 142.244 145.838 147.287 139.523 151.291C136.413 153.24 133.086 154.817 129.611 155.99C117.923 159.597 105.729 161.276 93.5044 160.963C78.1662 161.287 62.8814 159.044 48.2785 154.325C45.5278 153.38 43.7683 152.733 43.0497 152.385C35.8184 149.152 29.4064 144.325 24.2902 138.263C16.3939 129.516 10.1392 119.408 5.82817 108.428C1.69494 96.2362 -0.267917 83.4102 0.0293548 70.5363L0.0293548 70.2628C-0.0683315 60.4595 2.41038 50.8034 7.21591 42.2671C11.618 34.2237 17.5049 27.0939 24.5628 21.2579C32.7268 15.0077 41.7284 9.94385 51.3019 6.21575C61.2876 2.13156 71.9657 0.020983 82.7493 -3.98869e-06L83.0219 -3.97678e-06C95.3738 0.0882629 107.559 2.87094 118.732 8.15506C129.621 12.9819 139.709 19.4551 148.643 27.3493Z" fill="#4DB272"/>
</svg>
