<svg width="266" height="279" viewBox="0 0 266 279" fill="none" xmlns="http://www.w3.org/2000/svg">
<mask id="mask0" mask-type="alpha" maskUnits="userSpaceOnUse" x="0" y="0" width="266" height="279">
<rect width="266" height="279" fill="#C4C4C4"/>
</mask>
<g mask="url(#mask0)">
<path d="M258.129 162.942C256.284 179.349 250.974 195.176 242.551 209.374C233.95 224.426 222.425 237.604 208.655 248.133L207.422 249.042C185.202 265.87 157.596 273.991 129.8 271.877C118.261 271.468 106.874 269.116 96.1157 264.921C90.8461 262.833 85.8382 260.136 81.194 256.885C65.9978 245.64 52.726 232.005 41.896 216.51C27.4187 197.723 16.1735 176.655 8.62286 154.172C7.26982 149.886 6.45655 147.106 6.22855 145.893C3.60095 133.94 3.7006 121.549 6.52008 109.641C10.1173 91.8186 16.9078 74.7948 26.5636 59.3912C37.8836 43.1017 51.982 28.9323 68.2139 17.531L68.5529 17.2809C80.6159 8.19576 94.8607 2.45069 109.853 0.624379C123.863 -1.25316 138.104 -0.447987 151.815 2.99697C167.055 7.43946 181.593 14.0087 195 22.5108C209.227 31.2003 221.642 42.5557 231.564 55.953L231.814 56.2922C243.039 71.7406 250.772 89.4448 254.474 108.177C258.484 126.139 259.716 144.608 258.129 162.942Z" fill="#4DB272"/>
</g>
</svg>
