<svg width="1630" height="650" viewBox="0 0 1630 650" fill="none" xmlns="http://www.w3.org/2000/svg">
<mask id="mask0" mask-type="alpha" maskUnits="userSpaceOnUse" x="0" y="0" width="1630" height="650">
<rect width="1630" height="650" fill="#C4C4C4"/>
</mask>
<g mask="url(#mask0)">
<path d="M1371.96 -313.779C1444.25 -261.237 1501.48 -197.25 1539.84 -126.061C1581.68 -51.831 1604.16 28.209 1605.95 109.349L1605.95 116.521C1608.05 246.993 1549.24 373.568 1440.57 472.415C1397.72 514.748 1346.06 551.116 1287.78 579.99C1259.07 594.039 1228.37 605.411 1196.29 613.876C1088.41 639.881 975.864 651.991 863.035 649.734C721.465 652.072 580.388 635.893 445.605 601.863C420.216 595.05 403.977 590.388 397.344 587.878C330.599 564.561 271.417 529.753 224.196 486.041C151.313 422.963 93.5837 350.073 53.7933 270.891C15.6442 182.977 -2.47278 90.4862 0.270926 -2.3497L0.270926 -4.32192C-0.630731 -75.0155 22.2476 -144.647 66.6021 -206.204C107.233 -264.207 161.569 -315.621 226.712 -357.706C302.065 -402.776 385.149 -439.293 473.51 -466.177C565.678 -495.629 664.235 -510.849 763.767 -511L766.283 -511C880.289 -510.364 992.754 -490.297 1095.88 -452.192C1196.39 -417.385 1289.5 -370.705 1371.96 -313.779" fill="#E72063"/>
</g>
</svg>
