<svg width="1440" height="948" viewBox="0 0 1440 948" fill="none" xmlns="http://www.w3.org/2000/svg">
<path d="M79.4449 -154.648C78.3913 -154.648 77.3199 -154.648 76.2663 -154.648V-153.219H79.4091H79.8377V-154.648H79.4449ZM85.3198 -154.469V-153.022C86.4984 -153.022 87.6948 -152.843 88.8912 -152.718L89.0519 -154.147C87.8376 -154.273 86.6412 -154.38 85.4805 -154.469H85.3198ZM70.8378 -154.308L67.2664 -154.005L67.4093 -152.558C68.57 -152.683 69.7843 -152.861 70.945 -152.861L70.8378 -154.308ZM61.9093 -153.379L60.3022 -153.165L58.2844 -152.861L58.4808 -151.432L60.4451 -151.718L62.0344 -151.932L61.9093 -153.379ZM94.3733 -153.379L94.1054 -151.968C95.284 -151.736 96.4447 -151.486 97.6768 -151.2L98.0161 -152.593C96.8554 -152.897 95.659 -153.147 94.4447 -153.379H94.3733ZM53.0523 -152.075L49.4809 -151.45L49.7488 -150.039L53.3202 -150.664L53.0523 -152.075ZM103.23 -151.021L102.748 -149.663L104.141 -149.145L106.052 -148.359L106.623 -149.681C105.98 -149.967 105.32 -150.235 104.659 -150.485L103.23 -151.021ZM44.0703 -150.378C42.8798 -150.152 41.6893 -149.902 40.4989 -149.628L40.8203 -148.234L44.3917 -148.967L44.0703 -150.378ZM35.2668 -148.413L31.6954 -147.537L32.0525 -146.144L35.6239 -147.019L35.2668 -148.413ZM111.391 -147.198L110.695 -145.948C111.587 -145.447 112.48 -144.929 113.302 -144.375H113.909L114.516 -145.304C113.498 -145.965 112.462 -146.609 111.391 -147.198ZM26.5348 -146.126L23.0705 -145.126L23.3027 -144.375H25.6598L26.9276 -144.733L26.5348 -146.126ZM-39.1431 -116.989L-42.1787 -115.041L-41.393 -113.844L-38.4645 -115.72V-115.917L-39.1431 -116.989ZM-46.7501 -112.058L-49.7144 -109.986L-48.893 -108.807L-45.9466 -110.843L-46.7501 -112.058ZM-54.1072 -106.841L-57 -104.626L-56.125 -103.465L-53.2679 -105.627L-54.1072 -106.841ZM-38.5359 311.625C-39.5716 311.625 -40.643 311.625 -41.7145 311.786L-41.6073 313.215L-38.5359 313.054V311.625ZM-47.1251 312.393L-49.5001 312.804L-49.2501 314.215L-46.9108 313.822L-47.1251 312.393ZM1493.66 455.919L1492.45 456.67V456.777C1493.01 457.723 1493.47 458.73 1493.8 459.778L1495.18 459.349C1494.81 458.186 1494.31 457.071 1493.68 456.026L1493.66 455.919ZM1494.55 464.852C1494.53 466.01 1494.41 467.164 1494.18 468.3L1495.59 468.585C1495.84 467.368 1495.98 466.13 1496 464.887L1494.55 464.852ZM1492.48 473.212C1492.13 473.954 1491.72 474.67 1491.27 475.356V476.607L1491.88 477.035L1492.14 476.642C1492.76 475.757 1493.3 474.826 1493.77 473.856L1492.48 473.212ZM1235.47 942.879H1231.79L1231.97 943.826L1235.54 943.094L1235.47 942.879ZM1155.11 942.879H1151.54L1151.4 943.63L1154.97 944.291L1155.11 942.879ZM1226.54 943.38L1222.97 943.951L1223.18 945.362C1224.38 945.184 1225.56 945.005 1226.75 944.791L1226.54 943.38ZM1160.47 943.755L1160.24 945.184L1163.81 945.702L1163.99 944.273L1160.41 943.755H1160.47ZM1217.56 944.666C1216.38 944.827 1215.18 944.952 1213.99 945.077L1214.15 946.506C1215.34 946.381 1216.54 946.256 1217.72 946.095L1217.56 944.666ZM1169.34 944.934L1169.2 946.363L1172.77 946.72L1172.9 945.291L1169.33 944.934H1169.34ZM1208.72 945.577L1205.15 945.827V947.256L1208.72 947.006V945.577ZM1178.25 945.72L1178.16 947.167L1181.74 947.381V945.934L1178.16 945.72H1178.25ZM1199.59 946.077C1198.41 946.077 1197.22 946.077 1196.02 946.184V947.613H1199.59V946.077ZM1187.09 946.077V947.506H1190.66V946.059H1187.09" fill="#153863"/>
<path d="M113.909 -144.375H113.301L113.73 -144.108L113.909 -144.375ZM25.6596 -144.375H23.356L23.5346 -143.732L25.7131 -144.375H25.6596ZM17.9989 -143.518C16.8085 -143.161 15.6656 -142.786 14.5704 -142.392L15.0168 -141.035L18.3382 -142.142L17.9989 -143.518ZM118.926 -142.142L118.033 -141.017C118.944 -140.284 119.819 -139.498 120.712 -138.694L121.694 -139.766C120.801 -140.588 119.908 -141.374 118.926 -142.142ZM9.37402 -140.677L5.98121 -139.427L6.4812 -138.087L9.85616 -139.32L9.37402 -140.677ZM0.927692 -137.462L-2.41155 -136.104L-1.85799 -134.782L1.46341 -136.14L0.927692 -137.462ZM125.533 -135.89L124.48 -134.925C125.266 -134.05 126.051 -133.138 126.801 -132.227L127.908 -133.138C127.141 -134.085 126.355 -134.925 125.533 -135.89ZM-7.37578 -133.907L-10.5722 -132.424L-9.96503 -131.12L-6.69722 -132.603L-7.37578 -133.907ZM-15.5543 -130.119L-18.7864 -128.512L-18.1435 -127.225L-14.9293 -128.815L-15.5543 -130.119ZM131.176 -128.708L129.98 -127.904C130.658 -126.922 131.301 -125.921 131.926 -124.903L133.14 -125.653C132.515 -126.689 131.855 -127.708 131.176 -128.708ZM-23.5899 -126.064L-26.7684 -124.278L-26.072 -123.009L-22.9292 -124.796L-23.5899 -126.064ZM-31.4826 -121.687L-34.5897 -119.901L-33.8576 -118.668C-32.8219 -119.293 -31.8041 -119.901 -30.7684 -120.454L-31.4826 -121.687ZM135.819 -120.937L134.533 -120.276C135.069 -119.222 135.587 -118.15 136.087 -117.078L137.39 -117.668C136.89 -118.775 136.373 -119.865 135.819 -120.937ZM-38.5361 -115.917V-115.72H-38.4468L-38.5361 -115.917ZM139.426 -112.612L138.069 -112.094C138.498 -110.986 138.89 -109.861 139.248 -108.735L140.623 -109.182C140.248 -110.325 139.855 -111.468 139.426 -112.612ZM687.634 -106.055C686.42 -106.055 685.223 -106.055 684.063 -106.055V-104.626H687.634V-106.055ZM692.991 -106.055V-104.626L696.562 -104.537V-105.966C695.348 -105.966 694.152 -105.966 692.991 -106.055ZM678.563 -105.859H677.438L674.956 -105.698V-104.269L677.42 -104.412H678.545L678.563 -105.859ZM702.009 -105.752V-104.305L705.58 -104.108L705.687 -105.537L702.116 -105.752H702.009ZM669.652 -105.162L666.081 -104.716L666.277 -103.286C667.474 -103.447 668.652 -103.59 669.849 -103.715L669.652 -105.162ZM711.116 -105.162L710.991 -103.733L714.562 -103.411L714.705 -104.841L711.134 -105.162H711.116ZM720.062 -104.269L719.884 -102.84L723.455 -102.411L723.634 -103.84L720.062 -104.269ZM142.122 -104.019L140.73 -103.661C141.033 -102.5 141.283 -101.339 141.533 -100.089L142.944 -100.374C142.694 -101.571 142.426 -102.75 142.122 -103.947V-104.019ZM660.652 -103.84L657.081 -103.161L657.367 -101.75C658.545 -101.982 659.706 -102.214 660.938 -102.411L660.652 -103.84ZM728.991 -103.036L728.794 -101.607L732.366 -101.089L732.58 -102.5C731.384 -102.697 730.205 -102.875 729.009 -103.036H728.991ZM651.92 -101.982L648.349 -101.053L648.742 -99.6598C649.884 -99.9813 651.045 -100.267 652.206 -100.553L651.92 -101.982ZM738.026 -101.625L737.776 -100.214L741.348 -99.5883L741.598 -101L738.026 -101.625ZM746.866 -99.9813L746.58 -98.57L750.151 -97.8376L750.455 -99.2489L746.883 -99.9813H746.866ZM643.313 -99.5347C642.17 -99.1774 641.01 -98.7844 639.885 -98.3914L640.349 -97.0336C641.474 -97.4267 642.617 -97.8018 643.742 -98.1591L643.313 -99.5347ZM755.812 -98.0877L755.49 -96.6942L759.062 -95.8724L759.401 -97.2837L755.83 -98.0877H755.812ZM634.867 -96.5156L631.528 -95.14L632.081 -93.818L635.385 -95.1757L634.867 -96.5156ZM764.597 -95.9796L764.24 -94.5862L767.812 -93.675L768.169 -95.0685L764.419 -95.9796H764.597ZM143.98 -95.0328L142.551 -94.8363C142.712 -93.6572 142.855 -92.4602 142.962 -91.2633L144.408 -91.4062C144.283 -92.6032 144.14 -93.818 143.98 -94.9792V-95.0328ZM773.133 -93.5857L772.74 -92.1923L776.187 -91.1918L776.597 -92.5674L773.133 -93.5857ZM626.403 -92.8354C625.313 -92.3173 624.242 -91.7635 623.17 -91.2097L623.831 -89.9413C624.867 -90.4951 625.938 -91.0132 627.01 -91.5313L626.403 -92.8354ZM781.758 -91.0489L781.329 -89.6733L784.758 -88.5836L785.204 -89.9592L781.758 -91.0489ZM618.403 -88.655C617.367 -88.0476 616.331 -87.4223 615.313 -86.7792L616.081 -85.5644C617.081 -86.1897 618.099 -86.7971 619.135 -87.3509L618.403 -88.655ZM790.347 -88.2441L789.883 -86.8864L793.276 -85.6895L793.758 -87.0472L790.347 -88.2441ZM144.783 -85.9932H143.355C143.355 -84.7962 143.355 -83.6171 143.355 -82.4202H144.783C144.783 -83.635 144.783 -84.8319 144.783 -85.9932ZM798.901 -85.1892L798.383 -83.8494L801.74 -82.5631L802.258 -83.903C801.151 -84.3496 800.026 -84.7783 798.901 -85.1892ZM610.849 -83.7779C609.849 -83.0812 608.885 -82.3666 607.921 -81.6341L608.796 -80.4908C609.742 -81.2054 610.688 -81.9021 611.671 -82.5988L610.849 -83.7779ZM807.276 -81.9914L806.722 -80.6694C807.847 -80.2049 808.936 -79.7583 810.043 -79.276L810.597 -80.6158L807.276 -81.9021V-81.9914ZM815.561 -78.3291L814.99 -77.0071L818.258 -75.5244L818.847 -76.8285L815.561 -78.3291ZM603.671 -78.2041C602.742 -77.4359 601.885 -76.632 600.956 -75.8102L601.921 -74.7562C602.802 -75.566 603.695 -76.3521 604.599 -77.1143L603.671 -78.2041ZM143.301 -76.9714C143.301 -75.7745 143.176 -74.5775 143.087 -73.3984L144.533 -73.2913C144.622 -74.4882 144.694 -75.703 144.73 -76.8642L143.301 -76.9714ZM823.74 -74.5061L823.115 -73.2198L826.329 -71.6298L826.972 -72.9161L823.74 -74.5061ZM596.992 -72.0586C596.135 -71.1832 595.314 -70.2721 594.528 -69.3967L595.599 -68.4499C596.385 -69.3253 597.189 -70.2364 598.01 -71.0581L596.992 -72.0586ZM831.704 -70.4507L831.043 -69.1823L834.186 -67.3959L834.882 -68.6643L831.704 -70.4507ZM142.515 -68.0926C142.372 -66.8956 142.23 -65.7166 142.069 -64.5196L143.497 -64.3231C143.658 -65.5022 143.801 -66.6991 143.944 -67.8961L142.515 -68.0926ZM839.597 -66.056L838.864 -64.8055L841.936 -63.019L842.686 -64.2516L839.597 -66.0381V-66.056ZM591.046 -65.1985C590.296 -64.2516 589.582 -63.2691 588.885 -62.2865L590.046 -61.4469C590.742 -62.4294 591.457 -63.3763 592.171 -64.3231L591.046 -65.1985ZM847.275 -61.3218L846.489 -60.107L849.489 -58.1776L850.293 -59.3745L847.275 -61.3754V-61.3218ZM141.212 -59.2316C140.998 -58.0525 140.783 -56.8735 140.551 -55.6586L141.962 -55.3907C142.194 -56.5697 142.426 -57.7488 142.622 -58.9636L141.212 -59.2316ZM585.849 -57.7488C585.225 -56.7127 584.617 -55.6765 584.064 -54.6046L585.332 -53.9079C585.903 -54.9619 586.492 -55.9802 587.117 -56.9985L585.849 -57.7488ZM854.704 -56.2125L853.864 -55.0512L856.739 -52.9253L857.596 -54.0687C856.65 -54.8011 855.668 -55.5157 854.704 -56.2125ZM861.846 -50.728L860.936 -49.6203L863.703 -47.3336L864.632 -48.4412L861.846 -50.728ZM139.426 -50.4421C139.158 -49.263 138.89 -48.1018 138.605 -46.8691L140.015 -46.5297C140.283 -47.7088 140.569 -48.87 140.819 -50.1027L139.426 -50.4421ZM581.564 -49.7275C581.064 -48.6199 580.582 -47.5123 580.135 -46.3868L581.475 -45.8508C581.921 -46.9585 582.385 -48.0482 582.885 -49.1201L581.564 -49.7275ZM868.721 -44.8683L867.757 -43.7964C868.65 -43.0103 869.543 -42.1886 870.4 -41.3668L871.382 -42.4208C870.507 -43.2426 869.596 -44.0644 868.721 -44.8683ZM137.301 -41.7241C136.998 -40.5629 136.694 -39.4016 136.373 -38.2583L137.765 -37.8652C138.087 -39.0265 138.39 -40.1877 138.694 -41.4382L137.301 -41.7241ZM578.367 -41.2596C577.992 -40.1162 577.635 -38.955 577.314 -37.7938L578.707 -37.4008C579.028 -38.5918 579.367 -39.7351 579.725 -40.8308L578.367 -41.2596ZM875.346 -38.6513L874.328 -37.633C875.168 -36.7934 876.007 -35.8465 876.828 -35.0605L877.882 -36.0609C877.042 -36.9363 876.203 -37.8474 875.346 -38.6513ZM134.962 -33.0596C134.64 -31.9163 134.301 -30.7551 133.962 -29.6117L135.337 -29.2008L136.355 -32.6666L134.962 -33.0596ZM576.028 -32.4879C575.796 -31.3089 575.564 -30.1119 575.367 -28.915L576.796 -28.6827C576.992 -29.8439 577.207 -31.023 577.439 -32.2557L576.028 -32.4879ZM881.543 -32.077L880.471 -31.1123C881.275 -30.237 882.06 -29.3259 882.828 -28.4147L883.917 -29.3616C883.15 -30.2727 882.346 -31.1481 881.543 -32.077ZM887.382 -25.1812L886.257 -24.288C887.007 -23.359 887.757 -22.5015 888.471 -21.4653L889.614 -22.3407C888.882 -23.2875 888.15 -24.2344 887.382 -25.1812ZM132.408 -24.4488C132.069 -23.2875 131.712 -22.1442 131.373 -21.0008L132.748 -20.5721C133.087 -21.7333 133.444 -22.8766 133.801 -24.02L132.408 -24.4488ZM574.653 -23.5376C574.528 -22.3228 574.439 -21.1259 574.35 -19.9647H575.796C575.796 -21.1616 575.957 -22.3407 576.082 -23.5376H574.653ZM892.846 -17.9817L891.685 -17.142C892.364 -16.1595 893.06 -15.1769 893.721 -14.1943L894.917 -14.9982C894.239 -15.9987 893.542 -16.9991 892.846 -17.9817ZM129.783 -15.8379L128.712 -12.4078L130.087 -11.9791L131.158 -15.4091L129.783 -15.8379ZM574.153 -14.4802C574.153 -14.105 574.153 -13.7477 574.153 -13.3725C574.153 -12.5329 574.153 -11.6933 574.153 -10.8536H575.6C575.6 -11.6933 575.6 -12.515 575.6 -13.3368V-14.4266L574.153 -14.4802ZM897.899 -10.4606L896.667 -9.69238C897.31 -8.68005 897.935 -7.66176 898.542 -6.6375L899.792 -7.36995C899.167 -8.40611 898.542 -9.44228 897.899 -10.4606ZM127.123 -7.2449C126.783 -6.10155 126.426 -4.94034 126.069 -3.79698L127.444 -3.36823C127.801 -4.52945 128.158 -5.67279 128.498 -6.81615L127.123 -7.2449ZM575.867 -5.45842L574.439 -5.35123C574.528 -4.15428 574.635 -2.95734 574.76 -1.77826L576.189 -1.93904C576.064 -3.11812 575.957 -4.31506 575.867 -5.51201V-5.45842ZM902.489 -2.65364L901.221 -1.95691C901.81 -0.902878 902.364 0.151138 902.917 1.20517L904.203 0.544174C903.649 -0.52771 903.078 -1.59961 902.417 -2.65364H902.489ZM124.373 1.38382L123.355 4.79601L124.73 5.22476C125.087 4.08141 125.426 2.93805 125.783 1.77684L124.373 1.38382ZM576.921 3.34895L575.51 3.56332C575.689 4.76027 575.885 5.95721 576.1 7.13629L577.51 6.88618C577.296 5.69521 577.1 4.50421 576.921 3.31322V3.34895ZM906.667 5.34981L905.364 5.9751C905.864 7.04698 906.364 8.13673 906.846 9.2265L908.167 8.65482C907.685 7.5472 907.185 6.45743 906.667 5.34981ZM121.837 9.95894L120.766 13.389L122.141 13.8178L123.212 10.3877L121.837 9.95894ZM578.528 12.1385L577.135 12.46C577.403 13.6391 577.689 14.8003 577.975 16.033L579.367 15.6757C579.082 14.5145 578.796 13.3533 578.528 12.1027V12.1385ZM910.203 13.657L908.881 14.1929C909.328 15.3005 909.756 16.426 910.167 17.5336L911.524 17.0513C911.096 15.9079 910.667 14.7825 910.221 13.657H910.203ZM119.176 18.6413C118.837 19.8025 118.48 20.9458 118.123 22.0892L119.498 22.5179C119.855 21.3567 120.212 20.2134 120.551 19.07L119.176 18.6413ZM580.796 20.8922L579.421 21.3031C579.564 21.7855 579.707 22.2678 579.867 22.7502C580.028 23.2325 580.278 24.09 580.51 24.751L581.867 24.2866C581.653 23.6434 581.439 22.9824 581.242 22.3214C581.046 21.6604 580.939 21.3746 580.796 20.8922ZM913.256 22.2142L911.881 22.6609C912.256 23.8042 912.596 24.9476 912.935 26.0909L914.31 25.68C913.971 24.5367 913.631 23.3754 913.256 22.2142ZM116.533 27.1628C116.176 28.3061 115.819 29.4495 115.48 30.5928L116.855 31.0216C117.194 29.8783 117.551 28.7349 117.908 27.5737L116.533 27.1628ZM583.76 29.2173L582.439 29.7532C582.885 30.8787 583.367 31.9863 583.867 33.0939L585.171 32.4865C584.689 31.3968 584.207 30.307 583.76 29.2173ZM915.721 31.0037L914.31 31.3432C914.596 32.5044 914.864 33.6656 915.114 34.9161L916.524 34.6124C916.274 33.4214 916.006 32.2305 915.721 31.0395V31.0037ZM1005.26 31.6826C1004.02 31.6912 1002.8 31.7807 1001.58 31.9506L1001.79 33.3798C1002.97 33.2117 1004.17 33.1281 1005.36 33.1297V31.6826H1005.26ZM1010.77 32.2007L1010.49 33.612C1011.63 33.8543 1012.75 34.1706 1013.84 34.5589L1014.33 33.2011C1013.16 32.7834 1011.97 32.4491 1010.76 32.2007H1010.77ZM996.184 33.2904C995.024 33.7157 993.897 34.2232 992.809 34.809L993.505 36.0774C994.526 35.5181 995.589 35.0402 996.684 34.6482L996.184 33.2904ZM1019.27 35.7201L1018.49 36.8991L1018.88 37.185C1019.7 37.7639 1020.48 38.3903 1021.22 39.0608L1022.18 38.0068C1021.4 37.2893 1020.58 36.621 1019.72 36.0059L1019.27 35.7201ZM113.926 35.863L112.855 39.3109L114.23 39.7218L115.301 36.2917L113.926 35.863ZM587.528 37.4529L586.242 38.0961C586.778 39.168 587.332 40.2399 587.903 41.3118L589.171 40.6329L587.528 37.4529ZM988.327 38.0068L987.416 38.8821C986.844 39.4485 986.301 40.0449 985.791 40.6686L986.934 41.544C987.403 40.9183 987.91 40.3217 988.452 39.7575C988.72 39.4717 989.005 39.2037 989.291 38.9357L988.327 38.0068ZM917.56 39.9183L916.203 40.0791C916.393 41.2701 916.572 42.4611 916.738 43.6521L918.149 43.4555C917.989 42.2586 917.81 41.0616 917.613 39.8826L917.56 39.9183ZM1025.9 42.205L1024.68 42.991C1025.32 43.9586 1025.86 44.981 1026.31 46.0459L1027.63 45.4921C1027.14 44.3447 1026.54 43.2445 1025.84 42.205H1025.9ZM111.23 44.3488C110.891 45.51 110.534 46.6534 110.176 47.7967L111.551 48.2254C111.909 47.0821 112.266 45.9209 112.605 44.7775L111.23 44.3488ZM591.707 45.2599L590.439 45.9745L592.224 49.1187L593.492 48.4041C592.903 47.368 592.314 46.3139 591.707 45.2599ZM982.916 45.4028C982.417 46.5615 982.005 47.7558 981.684 48.9758L983.077 49.351C983.378 48.2267 983.766 47.1276 984.238 46.0638L982.916 45.4028ZM918.631 48.7793L917.203 48.9043C917.31 50.1013 917.399 51.2803 917.453 52.4773H918.899C918.899 51.2803 918.738 50.0655 918.631 48.9043V48.7793ZM1029.06 50.798L1027.63 51.0302C1027.83 52.2116 1027.94 53.4056 1027.97 54.6032H1029.4C1029.37 53.3704 1029.25 52.141 1029.06 50.923V50.798ZM108.587 52.9596C108.23 54.103 107.873 55.2463 107.534 56.3897L108.909 56.8185C109.248 55.6751 109.605 54.5317 109.962 53.3884L108.587 52.9596ZM596.082 53.1204L594.832 53.8172L596.617 56.9614L597.867 56.2646C597.296 55.2106 596.707 54.1566 596.082 53.1204ZM980.738 54.3352C980.738 55.3535 980.595 56.3897 980.595 57.4437C980.595 57.6224 980.595 57.8189 980.595 58.0154H982.023V57.4794C982.023 56.4612 982.023 55.4786 982.148 54.496L980.738 54.3352ZM919.096 57.9082H917.649V58.7657C917.649 59.659 917.649 60.5522 917.649 61.4812H919.096C919.096 60.5522 919.096 59.6947 919.096 58.73V57.8546V57.9082ZM1027.67 59.8019C1027.52 60.9929 1027.33 62.1839 1027.08 63.3748L1028.49 63.6785C1028.74 62.4816 1028.95 61.2668 1029.09 60.1056L1027.67 59.8019ZM600.421 61.0524L599.153 61.7134C599.724 62.7853 600.26 63.8393 600.814 64.8934L602.081 64.2502C601.546 63.1783 600.992 62.1064 600.421 61.0524ZM105.944 61.5169L104.873 64.9648L106.248 65.3757L107.319 61.9456L105.944 61.5169ZM982.47 63.3034L981.041 63.482C981.184 64.679 981.398 65.8759 981.631 67.055L983.041 66.7692C982.809 65.5901 982.613 64.4289 982.47 63.1962V63.3034ZM917.364 66.7692C917.364 67.9483 917.167 69.1452 917.042 70.3421L918.471 70.5029C918.614 69.2881 918.721 68.0912 918.81 66.9299L917.364 66.7692ZM1025.76 68.4127C1025.4 69.5561 1025.01 70.6816 1024.59 71.7892L1025.95 72.2894C1026.36 71.1461 1026.76 70.0027 1027.13 68.8415L1025.76 68.4127ZM604.474 69.0916L603.153 69.699C603.653 70.7947 604.135 71.8845 604.599 72.9683L605.921 72.4145C605.456 71.3068 604.974 70.1992 604.474 69.0916ZM103.284 70.1635C102.944 71.3068 102.587 72.4502 102.23 73.5936L103.605 74.0223C103.962 72.879 104.319 71.7356 104.659 70.5744L103.284 70.1635ZM984.291 71.95L982.916 72.343C983.238 73.4863 983.595 74.6476 983.97 75.8088L985.345 75.3622C984.97 74.2188 984.613 73.0755 984.291 71.95ZM916.328 75.5229C916.149 76.702 915.935 77.8811 915.721 79.0959L917.131 79.3639C917.364 78.1669 917.56 76.9879 917.756 75.7909L916.328 75.5229ZM1022.58 76.6306C1022.09 77.7382 1021.58 78.8279 1021.08 79.882L1022.36 80.5072C1022.88 79.4353 1023.4 78.3456 1023.9 77.2201L1022.58 76.6306ZM607.867 77.3809L606.51 77.8632C606.903 78.9887 607.26 80.1142 607.581 81.2576L608.956 80.8467C608.635 79.6855 608.26 78.5421 607.867 77.3809ZM100.73 78.6493C100.373 79.7926 100.016 80.936 99.6765 82.0793L101.052 82.5081C101.391 81.3647 101.748 80.2214 102.105 79.078L100.73 78.6493ZM987.273 80.3286L985.934 80.8467C986.38 81.9722 986.845 83.0798 987.327 84.2053L988.648 83.6157C988.166 82.526 987.702 81.4184 987.273 80.3286ZM914.774 84.4196C914.524 85.5809 914.292 86.7599 914.042 87.9926L915.453 88.2784C915.685 87.1172 915.935 85.9381 916.185 84.7055L914.774 84.4196ZM1018.7 84.7234C1018.13 85.7595 1017.56 86.8135 1016.92 87.8497L1018.17 88.5643C1018.77 87.5043 1019.37 86.4503 1019.95 85.4022L1018.7 84.7234ZM610.278 86.2597L608.867 86.492C609.046 87.6532 609.189 88.8144 609.278 90.0649L610.724 89.9399C610.617 88.7251 610.474 87.5103 610.278 86.3669V86.2597ZM98.0873 87.4209L97.0159 90.8688L98.3908 91.2976L99.4623 87.8497L98.0873 87.4209ZM990.934 88.6536L989.648 89.2968C990.184 90.3865 990.738 91.4584 991.309 92.5303L992.577 91.8514C992.023 90.7974 991.47 89.7255 990.934 88.6536ZM1014.15 92.566C1013.52 93.5843 1012.88 94.5847 1012.22 95.5852L1013.43 96.3712C1014.09 95.3708 1014.74 94.3525 1015.38 93.3342L1014.15 92.566ZM912.899 93.3342C912.667 94.5311 912.435 95.7102 912.239 96.9072L913.649 97.1573C913.864 95.9961 914.078 94.817 914.31 93.5843L912.899 93.3342ZM609.331 95.4423C609.331 96.6213 609.331 97.8004 609.171 99.0152L610.617 99.1224C610.712 97.9314 610.766 96.7404 610.778 95.5495L609.331 95.4423ZM95.3195 96.0318C94.9802 97.1752 94.623 98.3185 94.2659 99.4619L95.6409 99.8906C95.998 98.7472 96.3552 97.6039 96.6944 96.4427L95.3195 96.0318ZM995.095 96.532L993.845 97.2645C994.47 98.3006 995.095 99.3368 995.738 100.355L996.952 99.5869C996.327 98.5865 995.702 97.5682 995.166 96.532H995.095ZM1009.22 100.016C1008.52 100.998 1007.81 101.963 1007.09 102.91L1008.26 103.785C1008.97 102.82 1009.68 101.838 1010.38 100.855L1009.22 100.016ZM911.399 102.249C911.256 103.464 911.114 104.661 911.006 105.822L912.435 105.965C912.542 104.786 912.685 103.589 912.828 102.392L911.399 102.249ZM999.97 104.071L998.791 104.893C999.488 105.893 1000.18 106.894 1000.9 107.84L1002.06 106.983C1001.36 106.054 1000.67 105.071 999.97 104.071ZM608.689 104.321C608.528 105.5 608.331 106.679 608.117 107.894L609.546 108.144C609.76 106.947 609.939 105.75 610.117 104.571L608.689 104.321ZM92.7481 104.625C92.3909 105.768 92.0338 106.911 91.6945 108.073L93.0695 108.484C93.4088 107.34 93.7659 106.197 94.123 105.054L92.7481 104.625ZM1003.7 107.09C1002.95 108.019 1002.2 108.877 1001.42 109.859L1002.52 110.788C1003.31 109.859 1004.08 108.93 1004.83 108.001L1003.7 107.09ZM1005.22 111.163L1004.11 112.074C1004.9 113.039 1005.68 113.968 1006.47 114.843L1007.54 113.879C1006.77 113.021 1006.01 112.092 1005.22 111.163ZM910.578 111.163V111.914C910.578 112.878 910.578 113.843 910.578 114.808H912.024C912.024 113.861 912.024 112.932 912.024 111.985V111.253L910.578 111.163ZM607.01 112.95C606.742 114.111 606.456 115.272 606.171 116.433L607.564 116.791C607.867 115.63 608.135 114.45 608.403 113.218L607.01 112.95ZM90.0517 113.075C89.6945 114.218 89.3552 115.362 88.9981 116.505L90.3731 116.934C90.7302 115.772 91.0874 114.629 91.4267 113.486L90.0517 113.075ZM997.934 113.807L995.505 116.433L996.541 117.416C997.38 116.559 998.202 115.63 999.005 114.772L997.934 113.807ZM1011.29 117.666L1010.29 118.702C1010.9 119.274 1011.51 119.828 1012.08 120.328L1012.99 121.114L1013.92 120.024L1013.01 119.238C1012.43 118.756 1011.86 118.22 1011.22 117.666H1011.29ZM912.685 119.989L911.256 120.239C911.471 121.436 911.721 122.633 912.042 123.812L913.435 123.454C913.131 122.311 912.881 121.15 912.685 119.989ZM991.648 120.257C990.809 121.096 989.863 121.918 989.059 122.722L990.041 123.776C990.934 122.954 991.827 122.132 992.666 121.275L991.648 120.257ZM604.689 121.614C604.349 122.775 603.992 123.919 603.653 125.044L605.01 125.473C605.367 124.348 605.724 123.186 606.064 122.007L604.689 121.614ZM87.3731 121.614L86.3374 125.062L87.7303 125.473L88.7481 122.025L87.3731 121.614ZM1018.04 123.401L1017.17 124.544L1020.04 126.724L1020.9 125.562L1018.04 123.401ZM985.077 126.331L982.327 128.653L983.256 129.761C984.184 128.992 985.041 128.206 986.006 127.42L985.077 126.331ZM915.131 128.492L913.81 129.046C914.274 130.172 914.81 131.279 915.381 132.351L916.649 131.654C916.09 130.627 915.583 129.572 915.131 128.492ZM1025.27 128.707L1024.45 129.886L1027.42 131.94L1028.24 130.743L1025.27 128.707ZM602.064 130.189V130.404C601.724 131.458 601.331 132.512 600.939 133.548L602.296 134.066C602.689 132.994 603.081 131.94 603.439 130.85V130.654L602.064 130.189ZM84.9089 130.332C84.5875 131.494 84.2482 132.655 83.9267 133.798L85.3017 134.191C85.641 133.048 85.9624 131.887 86.3017 130.743L84.9089 130.332ZM978.22 131.994L977.916 132.226L975.363 134.138L976.202 135.299C977.077 134.673 977.988 134.03 978.791 133.369L979.095 133.137L978.22 131.994ZM1032.77 133.78L1031.97 134.977L1034.95 136.996L1035.77 135.817L1032.77 133.78ZM919.631 136.067L918.506 136.96C919.27 137.927 920.093 138.846 920.971 139.711L921.971 138.675C921.14 137.853 920.358 136.982 919.631 136.067ZM970.934 137.175C969.934 137.818 968.934 138.443 967.899 139.05L968.631 140.301C969.684 139.676 970.702 139.05 971.72 138.389L970.934 137.175ZM598.849 138.514C598.367 139.604 597.867 140.694 597.349 141.766L598.635 142.391C599.171 141.301 599.671 140.212 600.171 139.104L598.849 138.514ZM1040.22 138.872L1039.42 140.122L1042.34 142.212L1043.18 141.033L1040.24 138.943L1040.22 138.872ZM82.4803 139.068C82.1589 140.229 81.8375 141.391 81.5339 142.641L82.9268 143.016C83.2303 141.855 83.5518 140.712 83.8732 139.551L82.4803 139.068ZM963.22 141.659C962.149 142.177 961.077 142.677 959.988 143.124L960.542 144.463C961.667 143.981 962.774 143.481 963.863 142.945L963.22 141.659ZM926.078 142.034L925.292 143.249C926.324 143.913 927.397 144.51 928.506 145.035L929.131 143.731C928.073 143.206 927.053 142.61 926.078 141.944V142.034ZM1047.5 144.195L1046.56 145.482C1047.5 146.214 1048.43 146.964 1049.34 147.715L1050.27 146.607C1049.34 145.839 1048.4 145.089 1047.43 144.338L1047.5 144.195ZM523.475 144.803C522.404 144.803 521.332 144.803 520.261 144.946L520.386 146.375C521.422 146.286 522.44 146.232 523.475 146.232H523.904V144.803H523.475ZM954.881 144.981C954.22 145.178 953.542 145.375 952.845 145.535C952.149 145.696 951.935 145.768 951.452 145.857L951.756 147.268L953.202 146.929C953.899 146.75 954.613 146.571 955.31 146.357L954.881 144.981ZM529.404 145.249L529.189 146.679C530.35 146.857 531.511 147.072 532.654 147.34L532.993 145.946C531.802 145.66 530.612 145.428 529.422 145.249H529.404ZM934.06 145.482L933.685 146.875C934.861 147.193 936.053 147.45 937.256 147.643L937.47 146.214C936.32 146.039 935.181 145.794 934.06 145.482ZM514.922 145.839L514.243 146.053C513.286 146.356 512.35 146.72 511.44 147.143L512.047 148.447C512.897 148.048 513.774 147.708 514.672 147.429L515.315 147.232L514.922 145.839ZM946.31 146.518C945.238 146.518 944.167 146.643 943.095 146.643H942.774V148.09H942.988C944.095 148.09 945.22 148.09 946.31 147.947V146.518ZM594.885 146.518C594.314 147.554 593.707 148.59 593.099 149.608L594.332 150.341C594.957 149.323 595.564 148.269 596.117 147.215L594.885 146.518ZM538.332 147.322L537.868 148.68C538.993 149.055 540.1 149.483 541.189 149.93L541.743 148.59C540.618 148.126 539.493 147.715 538.332 147.322ZM80.1589 147.715C79.8554 148.876 79.5518 150.037 79.2661 151.288L80.6589 151.645C80.9446 150.484 81.2482 149.323 81.5518 148.161L80.1589 147.715ZM506.708 150.037C505.73 150.801 504.816 151.644 503.975 152.556L505.029 153.521C505.826 152.671 506.685 151.883 507.6 151.163L506.708 150.037ZM1054.43 150.037L1053.45 151.091C1054.33 151.895 1055.24 152.735 1056 153.574L1057.04 152.574C1056.2 151.717 1055.25 150.788 1054.43 150.037ZM546.689 150.841L546.046 152.11C547.094 152.669 548.13 153.265 549.154 153.896L549.886 152.663C548.832 152.038 547.779 151.466 546.689 150.877V150.841ZM590.189 154.093C589.51 155.075 588.814 156.04 588.099 157.005L589.26 157.862C589.974 156.897 590.689 155.915 591.367 154.914L590.189 154.093ZM554.475 155.593L553.636 156.772C554.618 157.451 555.564 158.166 556.493 158.916L557.386 157.773C556.439 157.022 555.457 156.29 554.475 155.593ZM77.9982 156.469C77.7125 157.63 77.4447 158.809 77.1768 160.042L78.5875 160.363L79.3911 156.79L77.9982 156.469ZM1060.67 156.701L1059.54 157.612C1060.29 158.541 1060.99 159.398 1061.67 160.452L1062.84 159.631C1062.15 158.63 1061.43 157.666 1060.67 156.701ZM500.815 157.13C500.254 158.27 499.816 159.468 499.511 160.703L500.922 161.06C501.189 159.94 501.584 158.855 502.1 157.826L500.815 157.13ZM584.742 161.185C583.975 162.096 583.189 162.971 582.385 163.847L583.439 164.829C584.26 163.936 585.064 163.043 585.849 162.114L584.742 161.185ZM561.528 161.346L560.546 162.4C561.403 163.204 562.332 164.043 563.082 164.901L564.118 163.9C563.278 163.025 562.332 162.114 561.528 161.346ZM1065.7 164.311L1064.42 165.133C1064.97 166.169 1065.47 167.241 1065.93 168.331L1067.25 167.777C1066.77 166.634 1066.25 165.544 1065.68 164.472L1065.7 164.311ZM76.0875 165.419C75.8375 166.598 75.5876 167.777 75.3554 168.992L76.7661 169.278C76.9983 168.099 77.2482 166.92 77.4982 165.705L76.0875 165.419ZM500.654 166.259L499.208 166.419C499.35 167.668 499.631 168.896 500.047 170.082L501.404 169.599C501.018 168.521 500.766 167.399 500.654 166.259ZM578.725 167.813C577.867 168.635 576.939 169.421 576.082 170.189L577.028 171.279C577.939 170.492 578.814 169.689 579.707 168.849L578.725 167.813ZM567.796 168.116L566.689 169.045C567.457 169.957 568.189 170.832 568.903 171.85L570.046 170.975C569.314 170.01 568.582 169.063 567.796 168.116ZM1069.11 172.958L1067.72 173.333C1068.02 174.441 1068.29 175.602 1068.5 176.781L1069.93 176.513C1069.7 175.298 1069.43 174.101 1069.11 172.94V172.958ZM571.903 173.512C570.957 174.226 569.993 174.905 568.993 175.566L569.796 176.763C570.814 176.084 571.796 175.387 572.76 174.673L571.903 173.512ZM503.708 174.065L502.547 174.923C503.29 175.918 504.114 176.85 505.011 177.71L506.011 176.692C505.176 175.877 504.406 174.999 503.708 174.065ZM74.1768 174.191C73.9626 175.37 73.7483 176.549 73.5519 177.763L74.9626 178.014C75.159 176.835 75.3733 175.655 75.5875 174.441L74.1768 174.191ZM573.01 175.387L571.796 176.173C572.439 177.174 573.046 178.192 573.582 179.211L574.832 178.496C574.225 177.436 573.6 176.4 572.957 175.387H573.01ZM564.421 178.282C563.385 178.871 562.332 179.407 561.261 179.943L561.903 181.229C562.993 180.693 564.064 180.139 565.118 179.532L564.421 178.282ZM510.225 179.943L509.422 181.14C510.45 181.79 511.511 182.386 512.6 182.926L513.261 181.658C512.219 181.116 511.206 180.519 510.225 179.872V179.943ZM1070.56 181.783H1069.11C1069.11 182.819 1069.22 183.855 1069.22 184.945V185.32H1070.65V184.927C1070.65 183.82 1070.65 182.73 1070.54 181.676L1070.56 181.783ZM556.368 181.908C555.261 182.337 554.136 182.73 553.011 183.105L553.457 184.481C554.647 184.111 555.79 183.701 556.886 183.248L556.368 181.908ZM72.6947 182.998C72.5162 184.177 72.3376 185.374 72.1769 186.571L73.5876 186.767C73.7661 185.588 73.9269 184.391 74.1233 183.194L72.6947 182.998ZM577.439 183.23L576.153 183.855C576.671 184.927 577.153 186.017 577.617 187.107L578.939 186.535C578.475 185.427 577.975 184.32 577.439 183.23ZM518.029 183.766L517.547 185.124C518.707 185.535 519.868 185.892 521.118 186.196L521.475 184.802C520.35 184.516 519.207 184.159 518.1 183.766H518.029ZM547.868 184.641C546.677 184.903 545.517 185.136 544.386 185.338L544.636 186.767C545.832 186.553 547.029 186.321 548.207 186.053L547.868 184.641ZM526.689 185.821L526.511 187.25L527.761 187.393L530.136 187.571L530.225 186.124C529.457 186.124 528.672 186.124 527.904 185.946L526.689 185.821ZM539.1 186.017C537.939 186.106 536.743 186.178 535.529 186.214V187.643C536.743 187.643 537.957 187.643 539.1 187.446V186.017ZM1068.9 190.733C1068.79 191.895 1068.63 193.056 1068.45 194.306L1069.86 194.521C1070.06 193.288 1070.22 192.091 1070.33 190.948L1068.9 190.733ZM580.957 191.627L579.6 192.091C579.975 193.217 580.332 194.36 580.671 195.503L582.046 195.092C581.707 193.931 581.35 192.788 580.957 191.627ZM71.5697 191.93C71.4269 193.127 71.3019 194.324 71.1769 195.503L72.6054 195.646C72.7304 194.467 72.8554 193.27 72.9983 192.073L71.5697 191.93ZM1067.4 199.487C1067.11 200.648 1066.79 201.792 1066.45 202.917L1067.83 203.346C1068.18 202.185 1068.5 201.023 1068.79 199.773L1067.4 199.487ZM583.475 200.38L582.064 200.684C582.314 201.845 582.528 203.007 582.707 204.257L584.135 204.025C583.939 202.846 583.725 201.649 583.475 200.452V200.38ZM70.7662 200.988C70.7662 202.185 70.5876 203.382 70.5162 204.561H71.9447C72.0162 203.37 72.1054 202.179 72.2126 200.988H70.7662ZM1064.81 208.134C1064.4 209.241 1063.95 210.349 1063.5 211.457L1064.83 212.01C1065.29 210.891 1065.74 209.765 1066.17 208.634L1064.81 208.134ZM584.778 209.509L583.35 209.634C583.439 210.813 583.528 212.01 583.564 213.207H585.01C585.01 212.01 584.885 210.796 584.778 209.634V209.509ZM70.2483 210.188C70.2483 211.403 70.2483 212.6 70.1412 213.761H71.5876C71.5876 212.564 71.5876 211.367 71.5876 210.188H70.2483ZM1061.31 216.512C1060.81 217.602 1060.31 218.674 1059.79 219.764L1061.09 220.389C1061.61 219.299 1062.11 218.192 1062.61 217.102L1061.31 216.512ZM583.546 218.674C583.546 219.853 583.457 221.05 583.367 222.247L584.796 222.354C584.885 221.139 584.939 219.942 584.975 218.781L583.546 218.674ZM71.5162 219.21H70.0698C70.0698 220.407 70.0698 221.604 70.0698 222.783H71.4983C71.4983 221.586 71.4983 220.389 71.4983 219.21H71.5162ZM1057.45 224.569L1055.9 227.821L1057.2 228.428L1058.75 225.195L1057.45 224.569ZM339.227 225.874C338.335 225.874 337.442 225.874 336.549 225.874V227.303H339.156H340.102V225.874H339.138H339.227ZM345.567 226.249L345.388 227.678L346.888 227.892L348.906 228.232L349.156 226.802L347.102 226.463L345.567 226.249ZM331.031 226.463C329.835 226.624 328.638 226.838 327.46 227.07L327.745 228.482C328.906 228.25 330.085 228.053 331.317 227.874L331.031 226.463ZM582.6 227.392C582.457 228.571 582.26 229.75 582.064 230.965L583.475 231.215C583.689 230.018 583.867 228.821 584.028 227.642L582.6 227.392ZM71.6412 227.982L70.2126 228.089C70.284 229.28 70.3733 230.471 70.4805 231.662L71.909 231.537C71.8019 230.358 71.7126 229.161 71.6412 227.964V227.982ZM354.459 227.964L354.084 229.357C355.227 229.679 356.352 230.036 357.459 230.411L357.941 229.053C356.799 228.66 355.638 228.303 354.459 227.964ZM322.156 228.321C320.978 228.66 319.835 229.036 318.692 229.429L319.156 230.786C320.281 230.393 321.406 230.036 322.549 229.714L322.156 228.321ZM362.995 231.054L362.406 232.358C363.495 232.859 364.548 233.377 365.584 233.913L366.263 232.644C365.191 232.09 364.102 231.555 362.995 231.054ZM313.603 231.394C312.496 231.876 311.388 232.376 310.299 232.912L310.924 234.199C311.996 233.68 313.085 233.18 314.174 232.716L313.603 231.394ZM1053.42 232.573C1052.93 233.68 1052.43 234.788 1051.97 235.896L1053.29 236.449C1053.75 235.354 1054.24 234.264 1054.74 233.18L1053.42 232.573ZM370.959 235.395L370.191 236.61C371.173 237.253 372.156 237.914 373.12 238.611L373.959 237.45C372.977 236.735 371.977 236.056 370.959 235.395ZM305.478 235.395C304.424 236.003 303.388 236.61 302.371 237.182L303.121 238.415C304.138 237.772 305.156 237.164 306.192 236.628L305.478 235.395ZM580.992 236.092C580.707 237.236 580.421 238.397 580.1 239.54L581.492 239.933C581.814 238.772 582.117 237.593 582.385 236.36L580.992 236.092ZM72.4447 236.825L71.0162 236.985C71.159 238.182 71.3019 239.379 71.4804 240.558L72.909 240.362C72.7304 239.165 72.5876 237.986 72.4447 236.789V236.825ZM297.835 240.219C296.835 240.934 295.871 241.648 294.906 242.381L295.781 243.524C296.728 242.792 297.692 242.095 298.656 241.398L297.835 240.219ZM378.191 240.719L377.263 241.827C378.173 242.595 379.048 243.381 379.923 244.185L380.905 243.131C380.03 242.309 379.12 241.505 378.191 240.719ZM1049.97 240.898C1049.58 242.089 1049.22 243.25 1048.9 244.382L1050.27 244.775C1050.59 243.631 1050.95 242.506 1051.33 241.362L1049.97 240.898ZM578.546 244.632C578.171 245.757 577.778 246.883 577.35 248.008L578.707 248.508C579.135 247.383 579.528 246.239 579.921 245.096L578.546 244.632ZM73.7483 245.65L72.3197 245.9C72.534 247.079 72.7483 248.276 72.9804 249.473L74.3911 249.187C74.159 248.026 73.9447 246.847 73.7483 245.614V245.65ZM290.71 245.757L289.764 246.579L287.978 248.169L288.96 249.223L290.746 247.669L291.674 246.865L290.71 245.757ZM384.834 246.918L383.798 247.919C384.602 248.776 385.423 249.705 386.209 250.545L387.28 249.58C386.477 248.687 385.655 247.794 384.834 246.918ZM1047.7 249.67C1047.47 250.866 1047.29 252.063 1047.13 253.242L1048.56 253.421C1048.72 252.26 1048.9 251.081 1049.11 249.848L1047.7 249.67ZM284.085 251.92C283.228 252.778 282.299 253.707 281.549 254.511L282.603 255.493C283.424 254.636 284.246 253.707 285.103 252.939L284.085 251.92ZM575.35 252.939C574.867 254.029 574.385 255.118 573.868 256.19L575.171 256.815C575.689 255.726 576.189 254.618 576.671 253.51L575.35 252.939ZM390.798 253.725L389.673 254.636C390.423 255.565 391.155 256.422 391.887 257.459L393.03 256.565L390.798 253.725ZM75.5875 254.457L74.1768 254.797C74.4626 255.958 74.7483 257.137 75.0518 258.37L76.4447 258.012C76.1352 256.821 75.8494 255.66 75.5875 254.529V254.457ZM277.96 258.638L275.585 261.371L276.675 262.3L279.032 259.602L277.96 258.638ZM1046.77 258.852C1046.77 259.459 1046.77 260.067 1046.77 260.639C1046.77 261.21 1046.77 261.853 1046.77 262.425H1048.22C1048.22 261.818 1048.22 261.228 1048.22 260.639C1048.22 260.049 1048.22 259.459 1048.22 258.852H1046.77ZM396.334 261.067L395.155 261.907C395.852 262.889 396.548 263.854 397.227 264.855L398.405 264.033C397.727 263.032 397.03 262.05 396.334 261.067ZM571.528 261.067C570.957 262.103 570.385 263.157 569.743 264.194L570.975 264.908C571.582 263.86 572.177 262.806 572.76 261.746L571.528 261.067ZM77.8732 263.175L76.4982 263.586C76.8375 264.747 77.1947 265.909 77.5697 267.052L78.9268 266.605C78.5697 265.462 78.2125 264.337 77.8732 263.175ZM272.121 265.516L269.871 268.338L270.996 269.232L273.246 266.427L272.121 265.516ZM1048.65 267.749L1047.22 267.927C1047.36 269.142 1047.56 270.339 1047.79 271.5L1049.2 271.215C1048.99 270.053 1048.79 268.892 1048.65 267.642V267.749ZM401.441 268.374L400.245 269.178C400.887 270.178 401.548 271.179 402.209 272.179L403.405 271.393L401.441 268.374ZM567.01 268.713C566.368 269.732 565.707 270.714 565.028 271.697L566.225 272.519C566.903 271.518 567.564 270.518 568.207 269.499L567.01 268.713ZM80.6768 271.679L79.3375 272.179C79.7422 273.37 80.1708 274.496 80.6232 275.556L81.9625 275.038C81.516 273.93 81.0875 272.804 80.6768 271.679ZM266.55 272.608L264.425 275.484L265.568 276.36C266.282 275.395 267.014 274.43 267.746 273.483L266.55 272.608ZM406.334 276.056L405.102 276.824C405.762 277.842 406.387 278.861 407.03 279.879L408.262 279.111L406.334 276.056ZM561.903 276.181C561.189 277.128 560.457 278.075 559.707 279.004L560.832 279.897C561.582 278.95 562.314 278.003 563.046 277.038L561.903 276.181ZM1050.47 276.431L1049.09 276.842C1049.43 278.003 1049.81 279.147 1050.22 280.29L1051.58 279.807C1051.17 278.682 1050.81 277.574 1050.47 276.431ZM261.193 279.825L259.068 282.719L260.21 283.577L262.353 280.683L261.193 279.825ZM84.0696 279.986L82.7482 280.558C83.2482 281.665 83.7482 282.773 84.2839 283.845L85.5696 283.22C85.0517 282.148 84.5517 281.076 84.0696 279.986ZM556.314 283.148C555.546 284.041 554.761 284.935 553.939 285.846L555.028 286.811C555.832 285.882 556.636 285.024 557.403 284.077L556.314 283.148ZM411.155 283.684L409.941 284.452C410.584 285.471 411.227 286.489 411.887 287.489L413.084 286.721L411.155 283.684ZM1053.7 284.828L1052.4 285.435C1052.92 286.525 1053.45 287.614 1054.04 288.686L1055.31 287.99C1054.74 286.953 1054.2 285.882 1053.7 284.828ZM255.907 287.15L253.764 290.044L254.925 290.902L257.068 288.007L255.907 287.15ZM88.0517 288.097L86.7838 288.776C87.3553 289.848 87.9505 290.902 88.5695 291.938L89.8195 291.223C89.2124 290.187 88.641 289.151 88.0338 288.097H88.0517ZM550.35 289.883C549.529 290.741 548.707 291.67 547.868 292.474L548.886 293.474C549.743 292.617 550.671 291.688 551.386 290.866L550.35 289.883ZM416.048 291.312L414.851 292.116L416.851 295.118L418.048 294.314C417.369 293.331 416.709 292.331 416.048 291.312ZM1057.99 292.563L1056.77 293.349C1057.43 294.367 1058.13 295.368 1058.84 296.35L1060 295.511C1059.31 294.546 1058.63 293.563 1057.99 292.563ZM250.496 294.349L248.3 297.19L249.443 298.083L251.639 295.225L250.496 294.349ZM92.5695 295.814L91.3552 296.583C91.9981 297.601 92.6766 298.601 93.3552 299.602L94.5338 298.78C93.8731 297.815 93.2123 296.815 92.5695 295.814ZM544.046 296.297C543.189 297.119 542.261 297.94 541.439 298.762L542.439 299.816L545.046 297.333L544.046 296.297ZM421.101 298.762L419.923 299.602C420.619 300.584 421.334 301.567 422.048 302.532L423.191 301.674L421.101 298.762ZM1063.31 299.727L1062.2 300.656C1062.99 301.567 1063.79 302.442 1064.61 303.371L1065.67 302.389C1064.86 301.513 1064.08 300.602 1063.31 299.727ZM244.943 301.406C244.193 302.335 243.425 303.193 242.657 304.175L243.764 305.104L246.068 302.317L244.943 301.406ZM537.475 302.389L534.761 304.747L535.689 305.837C536.618 305.051 537.475 304.264 538.422 303.461L537.475 302.389ZM97.6766 303.139L96.5337 303.997C97.2599 304.961 98.0099 305.908 98.7837 306.837L99.8908 305.926C99.1409 305.015 98.4087 304.139 97.6766 303.139ZM426.476 305.926L425.351 306.837C426.101 307.784 426.869 308.713 427.637 309.624L428.744 308.695C427.976 307.784 427.208 306.908 426.476 305.926ZM1069.45 306.176L1068.47 307.23C1069.34 308.052 1070.25 308.856 1071.17 309.642L1072.09 308.552C1071.2 307.784 1070.31 306.98 1069.45 306.176ZM530.493 308.052C529.564 308.802 528.618 309.535 527.672 310.267L528.547 311.41C529.493 310.66 530.457 309.928 531.386 309.159L530.493 308.052ZM239.032 308.052L236.621 310.714L237.675 311.678C238.496 310.803 239.3 309.892 240.104 309.017L239.032 308.052ZM103.319 309.838L102.266 310.821C103.075 311.714 103.897 312.589 104.73 313.447L105.766 312.447C104.944 311.589 104.123 310.66 103.319 309.838ZM-38.0719 311.625H-38.5361V313.054H-38.054L-38.0719 311.625ZM-32.6255 311.732L-32.7326 313.161C-31.5422 313.245 -30.3517 313.37 -29.1612 313.536L-28.9648 312.107C-30.1612 311.946 -31.3576 311.821 -32.5362 311.732H-32.6255ZM1076.38 311.732L1075.5 312.875C1076.45 313.608 1077.43 314.305 1078.43 315.001L1079.25 313.822C1078.27 313.143 1077.31 312.447 1076.38 311.732ZM432.28 312.607L431.226 313.59C432.066 314.465 432.905 315.376 433.762 316.18L434.78 315.144C433.923 314.322 433.083 313.465 432.28 312.607ZM-23.6256 313.251L-23.9649 314.662C-22.8042 314.948 -21.6792 315.269 -20.5542 315.626L-20.1078 314.269C-21.2506 313.894 -22.4292 313.554 -23.6792 313.251H-23.6256ZM523.386 313.518C522.422 314.215 521.44 314.894 520.457 315.573L521.261 316.752C522.261 316.073 523.243 315.376 524.225 314.68L523.386 313.518ZM232.925 314.68C232.086 315.537 231.229 316.359 230.371 317.181L231.354 318.235L233.943 315.698L232.925 314.68ZM109.569 316.234L108.587 317.306C109.462 318.11 110.373 318.914 111.284 319.718L112.23 318.61C111.319 317.842 110.444 317.038 109.569 316.234ZM-15.0721 316.234L-15.6614 317.538C-14.59 318.02 -13.5364 318.556 -12.5007 319.128L-11.8043 317.86C-12.8757 317.288 -13.9471 316.734 -15.0721 316.234ZM1083.52 316.913L1082.74 318.11C1083.75 318.771 1084.77 319.414 1085.81 320.039L1086.56 318.806C1085.54 318.181 1084.52 317.556 1083.52 316.913ZM515.957 318.503C514.957 319.128 513.94 319.753 512.904 320.289L513.636 321.54C514.672 320.914 515.707 320.289 516.725 319.646L515.957 318.503ZM438.655 318.717L437.726 319.825C438.655 320.611 439.601 321.361 440.565 322.094L441.44 320.95C440.494 320.236 439.655 319.485 438.655 318.717ZM226.389 320.772C225.497 321.558 224.604 322.326 223.657 323.058L224.55 324.184C225.497 323.433 226.425 322.647 227.336 321.861L226.389 320.772ZM-7.17935 320.772L-8.00077 321.951C-7.0365 322.63 -6.10794 323.344 -5.19723 324.094L-4.28653 322.987C-5.21509 322.219 -6.17936 321.468 -7.17935 320.772ZM1091.17 321.558L1090.45 322.808L1093.59 324.595L1094.29 323.326L1091.17 321.54V321.558ZM116.373 321.969L115.498 323.112C116.462 323.844 117.426 324.559 118.408 325.256L119.248 324.094L116.373 321.969ZM508.225 322.969C507.172 323.541 506.118 324.077 505.047 324.613L505.69 325.899C506.761 325.363 507.833 324.827 508.904 324.255L508.225 322.969ZM445.726 323.969L444.958 325.184C445.976 325.827 447.03 326.453 448.083 326.971L448.78 325.702C447.744 325.148 446.726 324.541 445.726 323.916V323.969ZM1098.97 325.702L1098.31 326.989L1101.52 328.614L1102.16 327.328C1101.09 326.792 1100.02 326.256 1098.97 325.702ZM219.336 326.203C218.372 326.893 217.389 327.572 216.39 328.239L217.193 329.436C218.193 328.757 219.193 328.078 220.175 327.364L219.336 326.203ZM-0.304432 326.596L-1.34013 327.596C-0.518715 328.436 0.266994 329.382 1.01698 330.222L2.12411 329.311C1.35626 328.364 0.534843 327.525 -0.304432 326.596ZM500.136 326.738C499.047 327.203 497.94 327.65 496.833 328.06L497.333 329.4C498.458 328.989 499.583 328.525 500.708 328.06L500.136 326.738ZM123.658 326.989L122.873 328.203L124.141 328.989L125.926 330.079L126.641 328.847L124.855 327.757L123.605 326.989H123.658ZM453.53 327.971L452.976 329.293C454.083 329.758 455.208 330.204 456.369 330.597L456.833 329.24C455.708 328.846 454.619 328.436 453.53 327.971ZM1106.99 329.65L1106.38 330.955L1109.66 332.455L1110.25 331.133L1106.99 329.65ZM491.708 329.775C490.565 330.115 489.422 330.419 488.279 330.704L488.618 332.098C489.779 331.812 490.958 331.508 492.19 331.151L491.708 329.775ZM461.922 330.74L461.583 332.134C462.744 332.419 463.94 332.652 465.154 332.866L465.404 331.455C464.226 331.24 463.065 331.008 461.94 330.74H461.922ZM211.943 331.062C210.907 331.651 209.872 332.223 208.818 332.848L209.479 334.135C210.55 333.581 211.604 332.991 212.657 332.348L211.943 331.062ZM131.462 331.401L130.801 332.687C131.89 333.223 132.98 333.759 134.069 334.26L134.676 332.955C133.593 332.455 132.521 331.937 131.462 331.401ZM483.244 331.741C482.065 331.919 480.886 332.044 479.672 332.151L479.779 333.581C480.994 333.491 482.19 333.348 483.351 333.152L483.244 331.741ZM470.851 332.098L470.744 333.527C471.922 333.634 473.137 333.688 474.315 333.724V332.277C473.119 332.277 471.922 332.277 470.744 332.098H470.851ZM1115.24 333.259L1114.66 334.581L1117.99 335.975L1118.54 334.635L1115.24 333.259ZM5.49907 333.831L4.30266 334.635C4.95742 335.623 5.55265 336.624 6.08836 337.636L7.33833 336.921C6.7312 335.867 6.08835 334.831 5.40979 333.831H5.49907ZM139.551 335.171L139.033 336.511C140.158 336.957 141.283 337.368 142.426 337.761L142.908 336.403C141.783 336.01 140.658 335.599 139.551 335.171ZM203.925 335.171C202.836 335.635 201.729 336.082 200.622 336.493L201.14 337.85C202.265 337.422 203.39 336.975 204.497 336.493L203.925 335.171ZM1123.56 336.778L1123.02 338.118L1126.38 339.422L1126.9 338.083L1123.56 336.778ZM148.033 337.975L147.64 339.351C148.801 339.69 149.98 339.994 151.212 340.28L151.551 338.869C150.39 338.601 149.247 338.297 148.105 337.975H148.033ZM195.64 338.19C194.515 338.529 193.354 338.833 192.211 339.119L192.55 340.512C193.729 340.226 194.89 339.923 196.122 339.565L195.64 338.19ZM1132.02 339.976L1131.52 341.334L1134.91 342.549L1135.4 341.191L1132.02 339.976ZM156.801 339.976L156.533 341.388C157.729 341.602 158.926 341.799 160.104 341.959L160.301 340.548C159.122 340.369 157.944 340.191 156.729 339.976H156.801ZM186.908 340.209C185.717 340.411 184.527 340.59 183.336 340.744L183.515 342.174C184.729 342.013 185.926 341.834 187.086 341.62L186.908 340.209ZM165.479 341.138L165.372 342.567C166.569 342.656 167.783 342.728 168.944 342.781V341.352C167.747 341.352 166.551 341.227 165.372 341.138H165.479ZM177.872 341.245C176.676 341.245 175.497 341.37 174.301 341.406V342.835C175.515 342.835 176.711 342.835 177.872 342.692V341.245ZM9.69545 341.745L8.37404 342.334C8.87403 343.406 9.33831 344.514 9.76688 345.622L11.1061 345.104C10.6597 343.96 10.1954 342.835 9.69545 341.745ZM1140.22 342.96L1139.75 344.317L1143.16 345.479L1143.63 344.121L1140.22 342.96ZM1148.74 345.836L1148.29 347.194L1151.7 348.319L1152.15 346.961L1148.74 345.836ZM1157.29 348.623L1156.84 349.999L1160.27 351.088L1160.72 349.713L1157.29 348.623ZM12.8383 350.284L11.4454 350.677C11.7847 351.803 12.0704 352.964 12.3383 354.125L13.7311 353.804C13.4633 352.607 13.1776 351.446 12.8383 350.231V350.284ZM1165.86 351.303L1165.41 352.678L1168.84 353.768L1169.29 352.392L1165.86 351.303ZM1174.43 354.036L1174 355.412L1177.43 356.519L1177.86 355.144L1174.43 354.036ZM1183 356.805L1182.56 358.181L1185.99 359.306L1186.43 357.948L1183 356.805ZM14.7133 359.127L13.2847 359.324C13.4633 360.485 13.5883 361.664 13.6954 362.897L15.124 362.772C15.0168 361.557 14.8918 360.342 14.7133 359.199V359.127ZM1191.49 359.735L1191.02 361.093L1194.43 362.272L1194.91 360.914L1191.49 359.735ZM1200 362.718L1199.52 364.076L1202.91 365.309L1203.41 363.951L1200 362.718ZM1208.45 365.862L1207.93 367.202L1211.2 368.489L1211.72 367.149L1208.43 365.862H1208.45ZM15.6061 368.274H14.1597V368.792C14.1597 369.828 14.1597 370.865 14.1597 371.919H15.5882C15.5882 370.865 15.5882 369.793 15.5882 368.739L15.6061 368.274ZM1217.15 369.221L1216.61 370.543L1219.93 371.901L1220.48 370.579L1217.15 369.221ZM1225.47 372.651L1224.91 373.973L1228.23 375.367L1228.79 374.045L1225.47 372.651ZM1233.77 376.224L1233.2 377.546L1236.5 378.975L1237.07 377.653L1233.77 376.224ZM13.6597 377.242C13.5168 378.404 13.3383 379.583 13.124 380.815L14.5525 381.065C14.743 379.874 14.9216 378.683 15.0882 377.492L13.6597 377.242ZM1242.02 379.815L1241.45 381.137L1244.73 382.584L1245.31 381.28L1242.02 379.815ZM1250.23 383.477L1249.65 384.799L1252.93 386.282L1253.52 384.978L1250.23 383.477ZM12.0169 385.925C11.8919 386.425 11.7669 386.925 11.624 387.425C11.4811 387.926 11.2669 388.712 11.0704 389.355L12.4454 389.766C12.6418 389.122 12.8204 388.462 13.0168 387.801C13.2133 387.14 13.2847 386.782 13.4097 386.264L12.0169 385.925ZM1258.43 387.14L1257.82 388.462L1261.09 389.962L1261.7 388.658L1258.43 387.14ZM1266.59 390.945L1265.98 392.249L1269.23 393.785L1269.84 392.481L1266.59 390.945ZM9.46331 394.518C9.08237 395.637 8.68951 396.763 8.28476 397.894L9.64188 398.394C10.0526 397.251 10.4454 396.126 10.8383 394.982L9.46331 394.518ZM1274.73 394.857L1274.11 396.143L1277.36 397.716L1277.98 396.411L1274.73 394.857ZM1282.84 398.77L1282.2 400.056L1285.43 401.646L1286.07 400.36L1282.84 398.77ZM1290.91 402.736L1290.27 404.04L1293.48 405.63L1294.13 404.343L1290.91 402.736ZM6.37407 402.914C5.92764 404.04 5.48121 405.147 5.01693 406.255L6.33835 406.791C6.80263 405.683 7.26691 404.576 7.69547 403.45L6.37407 402.914ZM1298.97 406.773L1298.34 408.095L1301.54 409.703L1302.2 408.417L1298.98 406.809L1298.97 406.773ZM1307 410.864L1306.36 412.15L1309.56 413.794L1310.22 412.508L1307 410.864ZM2.92768 411.239L1.48126 414.526L2.80268 415.116L4.24908 411.811L2.92768 411.239ZM1315.02 414.973L1314.36 416.259L1317.56 417.903L1318.22 416.634L1315.02 414.973ZM1323 419.118L1322.34 420.386L1325.52 422.065L1326.2 420.779L1323 419.118ZM-0.732998 419.457L-2.19727 422.726L-0.893711 423.334C-0.393715 422.226 0.0884209 421.136 0.588413 420.047L-0.732998 419.457ZM1330.97 423.298L1330.31 424.566L1333.48 426.246L1334.16 424.977L1330.97 423.298ZM1338.93 427.496L1338.25 428.765L1341.43 430.444L1342.11 429.175L1338.93 427.496ZM-4.41153 427.657C-4.91152 428.765 -5.39366 429.854 -5.8758 430.962L-4.55438 431.534L-3.10797 428.247L-4.41153 427.657ZM1346.88 431.712L1346.2 432.981L1349.36 434.678L1350.04 433.409L1346.88 431.712ZM-8.01863 435.875C-8.48291 436.982 -8.94719 438.09 -9.37576 439.216L-8.05434 439.752C-7.60792 438.644 -7.1615 437.536 -6.69722 436.429L-8.01863 435.875ZM1354.77 435.875L1354.09 437.143L1357.25 438.93L1357.93 437.661L1354.77 435.964V435.875ZM1362.7 440.216L1362 441.484L1365.18 443.271L1365.86 442.003L1362.7 440.216ZM-11.3222 444.271C-11.7329 445.415 -12.1257 446.54 -12.5186 447.701L-11.1436 448.148C-10.7626 447.028 -10.3698 445.903 -9.96503 444.772L-11.3222 444.271ZM1370.61 444.432L1369.93 445.683L1373.09 447.469L1373.77 446.201L1370.61 444.414V444.432ZM1478.12 448.273H1477.54V449.72H1478.09C1479.07 449.717 1480.05 449.776 1481.02 449.899L1481.2 448.47C1480.17 448.341 1479.13 448.275 1478.09 448.273H1478.12ZM1378.48 448.684L1377.8 449.952L1380.97 451.739L1381.64 450.47L1378.48 448.684ZM1472.02 448.916C1470.81 449.164 1469.62 449.474 1468.45 449.845L1468.89 451.221C1470.01 450.863 1471.15 450.564 1472.3 450.328L1472.02 448.916ZM1486.59 449.917L1486.02 451.239C1487.08 451.706 1488.07 452.306 1488.98 453.025L1489.84 451.864C1488.83 451.112 1487.74 450.482 1486.59 449.988V449.917ZM1463.38 452.007C1462.27 452.578 1461.21 453.186 1460.2 453.793L1460.98 455.008C1461.96 454.354 1462.97 453.757 1464.02 453.222L1463.38 452.007ZM-14.1436 452.882C-14.4888 454.073 -14.8102 455.234 -15.1078 456.366L-13.715 456.723C-13.4114 455.58 -13.1079 454.419 -12.7686 453.275L-14.1436 452.882ZM1386.41 452.989L1385.73 454.258L1388.89 456.044L1389.57 454.776L1386.41 452.989ZM1455.82 457.045C1454.88 457.795 1454.04 458.581 1453.05 459.385L1454 460.457C1454.89 459.671 1455.79 458.903 1456.73 458.17L1455.82 457.045ZM1394.32 457.259L1393.64 458.527L1396.8 460.314L1397.48 459.046L1394.32 457.259ZM1402.23 461.547L1401.55 462.815L1404.71 464.512L1405.41 463.244L1402.23 461.547ZM-16.3221 461.69C-16.5542 462.869 -16.7864 464.048 -16.9828 465.263L-15.5543 465.495C-15.3578 464.334 -15.1435 463.154 -14.9114 461.922L-16.3221 461.69ZM1449.13 463.172C1448.29 464.03 1447.46 464.959 1446.64 465.816L1447.71 466.781C1448.52 465.888 1449.32 464.995 1450.16 464.173L1449.13 463.172ZM1410.18 465.834L1409.5 467.103L1412.66 468.889L1413.34 467.621L1410.18 465.924V465.834ZM1443.13 470.05C1442.38 470.979 1441.64 471.944 1440.91 472.909L1442.07 473.784C1442.79 472.819 1443.52 471.872 1444.25 470.944L1443.13 470.05ZM1418.13 470.175L1417.43 471.444L1420.61 473.23L1421.29 471.962L1418.13 470.265V470.175ZM-17.7149 470.622C-17.8399 471.819 -17.9471 473.034 -18.0185 474.195L-16.5721 474.284C-16.5721 473.105 -16.4114 471.926 -16.2864 470.711L-17.7149 470.622ZM682.009 472.712H681.384V474.141H684.956V472.712H681.973H682.009ZM675.938 472.712L672.366 472.837V474.266L675.938 474.159V472.712ZM690.366 472.712V474.141L693.938 474.302V472.873C692.741 472.873 691.527 472.748 690.366 472.712ZM666.92 473.034L663.349 473.302L663.456 474.731L667.027 474.481L666.92 473.034ZM699.384 473.195L699.277 474.642C700.455 474.642 701.652 474.82 702.848 474.927L702.973 473.48L699.402 473.195H699.384ZM657.956 473.784L654.384 474.177L654.545 475.606L658.117 475.213L657.956 473.784ZM708.384 474.034L708.223 475.463L711.794 475.874L711.973 474.445L708.402 474.034H708.384ZM1426.04 474.159L1425.36 475.428L1426.39 475.981L1428.54 477.125L1429.21 475.856L1427.07 474.713L1426.04 474.159ZM649.009 474.874L645.438 475.41L645.67 476.839L649.242 476.303L649.009 474.874ZM717.348 475.195L717.134 476.625L720.705 477.178L720.937 475.749L717.366 475.195H717.348ZM1491.29 475.303C1491.18 475.463 1491.09 475.624 1490.98 475.767L1490.71 476.142L1491.29 476.553V475.303ZM640.117 476.321L636.545 477L636.813 478.411L640.385 477.732L640.117 476.321ZM726.259 476.696L725.991 478.107L729.562 478.804L729.848 477.393L726.276 476.696H726.259ZM1437.82 477.107C1437.3 477.875 1436.79 478.679 1436.27 479.465L1434.05 478.482L1433.41 479.769L1436.64 481.377L1436.86 480.894L1437.11 481.055C1437.73 480.037 1438.39 479.036 1439.05 478.054L1437.82 477.107ZM631.295 478.107L627.724 478.929L628.063 480.323C629.224 480.055 630.385 479.769 631.635 479.519L631.313 478.107H631.295ZM735.098 478.536L734.776 479.947L738.348 480.769L738.687 479.376L735.116 478.536H735.098ZM-16.6614 479.519H-18.1078C-18.1078 480.71 -18.0542 481.901 -17.9471 483.092L-16.5185 482.984C-16.5185 481.805 -16.6435 480.626 -16.6614 479.411V479.519ZM1487.23 479.912C1486.36 480.692 1485.44 481.414 1484.48 482.073L1485.29 483.252C1486.31 482.569 1487.28 481.811 1488.2 480.984L1487.23 479.912ZM622.528 480.144C621.337 480.442 620.177 480.763 619.046 481.109L619.438 482.484L622.903 481.537L622.528 480.144ZM743.848 480.626L743.473 482.002L746.937 482.967L747.33 481.591L743.758 480.626H743.848ZM1441.96 482.073L1441.39 483.395C1442.5 483.878 1443.63 484.324 1444.75 484.771L1445.27 483.431C1444.16 483.002 1443.05 482.538 1441.96 482.073ZM613.724 482.645L610.278 483.735L610.724 485.11L614.135 484.021L613.724 482.645ZM752.365 483.127L751.937 484.503L755.365 485.611L755.812 484.235L752.365 483.127ZM1479.71 484.61C1478.64 485.079 1477.54 485.491 1476.43 485.843L1476.86 487.218C1478.03 486.848 1479.18 486.412 1480.3 485.914L1479.71 484.61ZM1432.91 484.61L1431.13 487.772L1432.39 488.469C1432.96 487.415 1433.55 486.361 1434.18 485.325L1432.91 484.61ZM1450.3 485.128L1449.89 486.504C1451.05 486.861 1452.21 487.183 1453.46 487.469L1453.8 486.075C1452.66 485.789 1451.52 485.468 1450.38 485.128H1450.3ZM605.224 485.414L602.01 486.593H601.831L602.349 487.933H602.51C603.564 487.522 604.635 487.147 605.706 486.754L605.224 485.414ZM761.008 485.914L760.526 487.272L763.883 488.505L764.401 487.165L761.008 485.914ZM1471.36 487.004C1470.2 487.201 1469.02 487.326 1467.79 487.415L1467.89 488.844C1469.08 488.749 1470.27 488.606 1471.46 488.415L1471.36 487.004ZM1459.04 487.004L1458.82 488.433L1459.68 488.54C1460.61 488.671 1461.54 488.761 1462.46 488.808L1462.55 487.361C1461.64 487.361 1460.77 487.236 1459.86 487.111L1459.04 487.004ZM10.0169 487.469C8.81256 487.579 7.61855 487.782 6.44549 488.076L6.78477 489.469C7.91 489.185 9.05671 488.994 10.2133 488.898L10.0169 487.469ZM15.5882 487.754L15.3025 489.166C16.4275 489.395 17.5235 489.748 18.5704 490.22L19.1596 488.916C18.0177 488.393 16.8193 488.003 15.5882 487.754ZM-15.9293 488.487L-17.34 488.719C-17.1614 489.916 -16.9292 491.113 -16.6614 492.292L-15.2685 491.988C-15.5185 490.827 -15.7507 489.666 -15.9293 488.415V488.487ZM596.849 488.844L593.528 490.22L594.082 491.542L597.403 490.184L596.849 488.844ZM769.508 489.326L768.972 490.666L772.294 492.024L772.847 490.702L769.508 489.326ZM1.21341 490.273C0.106274 490.756 -0.982994 491.292 -2.07227 491.881L-1.39371 493.15C-0.340149 492.578 0.731266 492.06 1.78482 491.595L1.21341 490.273ZM588.528 492.471L585.242 493.989L585.867 495.293L589.117 493.775L588.528 492.471ZM23.8917 492.471L22.8917 493.507C23.7071 494.298 24.4154 495.193 24.9988 496.169L26.231 495.436C25.5803 494.352 24.7942 493.356 23.8917 492.471ZM1428.75 492.882C1428.21 493.953 1427.7 495.025 1427.18 496.133L1428.48 496.74C1428.98 495.651 1429.52 494.579 1430.04 493.525L1428.75 492.882ZM777.776 492.882L777.187 494.186L780.454 495.686L781.062 494.382C779.972 493.882 778.883 493.364 777.776 492.882ZM-6.73293 494.668C-7.73292 495.347 -8.71505 496.062 -9.67932 496.812L-8.80433 497.955C-7.85792 497.223 -6.89364 496.526 -5.92937 495.847L-6.73293 494.668ZM580.367 496.294L577.171 497.937L577.832 499.224L581.028 497.58L580.367 496.294ZM785.936 496.722L785.294 498.009L788.49 499.652L789.151 498.366L785.936 496.722ZM-13.8936 497.044L-15.2507 497.491C-14.9114 498.527 -14.5364 499.545 -14.1436 500.581C-14.9412 501.32 -15.7269 502.07 -16.5007 502.832L-15.4828 503.851C-14.6436 503.011 -13.7864 502.189 -12.8936 501.385L-13.5186 500.724L-12.6614 500.367L-12.7864 500.063C-13.1793 499.063 -13.5543 498.062 -13.8936 497.044ZM572.403 500.51C571.35 501.099 570.296 501.689 569.26 502.296L569.975 503.547C571.01 502.939 572.046 502.35 573.1 501.76L572.403 500.51ZM28.2488 500.51L26.9274 500.992C27.1559 502.079 27.2697 503.187 27.2667 504.297V504.422H28.6952V504.279C28.6999 503.079 28.5802 501.882 28.3381 500.706L28.2488 500.51ZM794.008 501.046L793.311 502.296C794.347 502.868 795.401 503.458 796.436 504.083L797.151 502.832C796.115 502.225 795.061 501.635 794.008 501.046ZM1425.02 501.046C1424.54 502.153 1424.05 503.243 1423.59 504.369L1424.91 504.922C1425.38 503.815 1425.86 502.725 1426.34 501.635L1425.02 501.046ZM225.657 501.242H224.354V502.672H227.925V501.242H225.604H225.657ZM218.854 501.528C217.639 501.617 216.461 501.76 215.282 501.921L215.497 503.35C216.622 503.19 217.782 503.065 218.979 502.957L218.854 501.528ZM233.354 501.528L233.229 502.957C234.407 503.065 235.586 503.172 236.8 503.333L236.979 501.903C235.764 501.743 234.568 501.617 233.407 501.528H233.354ZM242.336 502.707L242.086 504.119C243.246 504.333 244.425 504.565 245.657 504.815L245.978 503.422C244.782 503.154 243.603 502.922 242.407 502.707H242.336ZM209.943 502.707C208.753 502.933 207.562 503.184 206.372 503.458L206.693 504.851C207.854 504.583 209.015 504.333 210.265 504.119L209.943 502.707ZM251.246 504.654L250.871 506.048C252.014 506.37 253.157 506.709 254.282 507.066L254.728 505.709C253.568 505.333 252.425 504.976 251.246 504.654ZM201.14 504.797C199.979 505.119 198.818 505.458 197.675 505.834L198.104 507.191L201.533 506.173L201.14 504.797ZM564.707 505.012L561.635 506.905L562.403 508.138C563.421 507.495 564.439 506.852 565.457 506.244L564.707 505.012ZM-10.2865 505.101L-11.5543 505.816C-10.9472 506.87 -10.3043 507.906 -9.60789 508.924L-8.42934 508.102C-9.09004 507.138 -9.71504 506.137 -10.215 505.101H-10.2865ZM801.865 505.423L801.097 506.655L804.133 508.567L804.918 507.37L801.865 505.423ZM-20.0721 506.763C-20.8935 507.709 -21.6613 508.638 -22.3935 509.567L-21.2685 510.461C-20.5363 509.549 -19.7863 508.674 -18.9828 507.709L-20.0721 506.763ZM259.889 507.549L259.353 508.888C260.46 509.341 261.55 509.806 262.621 510.282L263.228 508.978C262.121 508.478 261.014 507.995 259.889 507.549ZM192.568 507.549L189.176 508.817L189.711 510.157C190.818 509.728 191.943 509.299 193.05 508.906L192.568 507.549ZM1421.61 509.228C1421.16 510.353 1420.73 511.479 1420.3 512.604L1421.66 513.105C1422.07 511.997 1422.5 510.871 1422.95 509.764L1421.61 509.228ZM26.4988 509.335C26.1501 510.434 25.6768 511.489 25.0881 512.479L26.3203 513.212C26.9605 512.128 27.4814 510.978 27.8738 509.782L26.4988 509.335ZM557.136 509.835L554.136 511.872L554.957 513.051L557.921 511.05L557.136 509.835ZM809.401 510.389L808.579 511.568C809.543 512.265 810.508 512.962 811.454 513.694L812.329 512.533L809.401 510.389ZM184.068 511.086L180.783 512.569L181.39 513.873C182.461 513.372 183.551 512.872 184.64 512.408L184.068 511.086ZM267.996 511.604L267.3 512.854C268.353 513.444 269.371 514.034 270.353 514.641L271.139 513.426C270.121 512.783 269.067 512.158 267.996 511.64V511.604ZM-5.21509 512.336L-6.25079 513.337C-5.36776 514.228 -4.42511 515.057 -3.4294 515.82L-2.53655 514.695C-3.47636 513.964 -4.37086 513.176 -5.21509 512.336ZM-25.7684 514.123C-26.4648 515.195 -27.0898 516.249 -27.6434 517.267L-26.3756 517.946C-25.8577 516.963 -25.2506 515.945 -24.5899 514.909L-25.7684 514.123ZM175.801 514.873L172.604 516.535L173.283 517.803C174.336 517.249 175.39 516.695 176.461 516.159L175.801 514.873ZM549.529 515.123L546.636 517.267L547.493 518.41L550.386 516.284L549.529 515.123ZM816.383 516.052L815.454 517.16C816.365 517.928 817.24 518.714 818.133 519.5L819.097 518.446C818.204 517.624 817.311 516.838 816.383 516.052ZM21.5703 516.499C21.1574 516.827 20.7218 517.125 20.2668 517.392C19.7443 517.713 19.2015 517.999 18.6418 518.25L19.2311 519.554C19.8458 519.283 20.4423 518.973 21.0167 518.625C21.5168 518.318 21.9996 517.984 22.4632 517.624L21.5703 516.499ZM275.514 516.624L274.621 517.767C275.55 518.5 276.407 519.268 277.317 520.054L278.299 519C277.407 518.178 276.514 517.392 275.514 516.624ZM1.92768 517.499L1.3027 518.803C2.41491 519.339 3.56721 519.787 4.74908 520.143L5.17765 518.768C4.06406 518.427 2.97767 518.003 1.92768 517.499ZM1418.39 517.875C1417.98 519 1417.59 520.143 1417.2 521.287L1418.57 521.751C1418.95 520.608 1419.34 519.482 1419.75 518.357L1418.39 517.875ZM167.997 519.196L164.872 520.983L165.587 522.234L168.694 520.447L167.997 519.196ZM13.7668 519.59C13.0084 519.682 12.2452 519.73 11.4811 519.732H10.3026V521.162C10.7133 521.162 11.124 521.162 11.5526 521.162C12.3762 521.167 13.1994 521.12 14.0168 521.019L13.7668 519.59ZM542.457 520.626C541.511 521.358 540.671 522.126 539.636 522.877L540.546 524.002C541.475 523.234 542.332 522.501 543.35 521.751L542.457 520.626ZM823.15 522.287L822.115 523.288C822.954 524.145 823.758 525.074 824.525 525.896L825.615 524.949C824.811 524.038 823.99 523.162 823.15 522.287ZM-29.7684 522.43C-30.1612 523.627 -30.4827 524.788 -30.7684 526.003L-29.3755 526.342C-29.1077 525.217 -28.7684 524.091 -28.4113 522.93L-29.7684 522.43ZM282.085 523.02L280.978 523.931C281.728 524.842 282.442 525.717 283.103 526.753L284.299 525.949C283.603 524.931 282.871 523.966 282.085 523.02ZM160.14 523.806C159.104 524.431 158.087 525.074 157.069 525.717L157.837 526.932L160.89 525.038L160.14 523.806ZM535.386 526.378L532.654 528.754L533.618 529.826L536.332 527.486L535.386 526.378ZM1415.39 526.467C1415.02 527.611 1414.66 528.754 1414.3 529.898L1415.68 530.326C1416.04 529.183 1416.39 528.057 1416.77 526.914L1415.39 526.467ZM152.533 528.647L149.515 530.63L150.319 531.827L153.319 529.844L152.533 528.647ZM828.954 529.237L827.793 530.094C828.49 531.041 829.168 532.023 829.811 533.006L831.025 532.22C830.365 531.202 829.668 530.219 828.954 529.237ZM287.014 530.719L285.71 531.327C286.213 532.384 286.654 533.47 287.032 534.578L288.389 534.114C287.997 532.956 287.538 531.823 287.014 530.719ZM-31.7505 531.362C-31.8924 532.549 -31.9758 533.741 -32.0005 534.935H-30.5719C-30.5719 533.792 -30.4648 532.613 -30.3219 531.362H-31.7505ZM528.636 532.399L526.011 534.864L527.011 535.918C527.868 535.078 528.797 534.274 529.618 533.453L528.636 532.399ZM145.051 533.685L142.069 535.739L142.89 536.918L145.855 534.882L145.051 533.685ZM1412.71 534.935C1412.36 536.079 1412.02 537.24 1411.68 538.383L1413.05 538.794C1413.39 537.651 1413.73 536.49 1414.09 535.346L1412.71 534.935ZM833.775 536.811L832.49 537.472C833.025 538.508 833.543 539.58 834.007 540.67L835.329 540.116C834.847 538.991 834.329 537.883 833.775 536.811ZM522.136 538.49L519.6 541.063L520.636 542.063C521.457 541.206 522.315 540.366 523.154 539.509L522.136 538.49ZM137.64 538.794L134.694 540.867L135.533 542.046L138.462 539.955L137.64 538.794ZM289.674 539.455L288.246 539.67C288.428 540.853 288.536 542.046 288.567 543.243H290.014C289.963 542.017 289.85 540.794 289.674 539.58V539.455ZM-30.3219 540.295L-31.7505 540.474C-31.5898 541.688 -31.3934 542.903 -31.1255 544.047L-29.7148 543.725C-29.9648 542.582 -30.1791 541.438 -30.3219 540.259V540.295ZM1410.18 543.671L1409.21 547.137L1410.59 547.53C1410.91 546.387 1411.23 545.226 1411.57 544.064L1410.18 543.671ZM130.319 543.993L127.391 546.065L128.23 547.244L131.158 545.154L130.319 543.993ZM515.886 545.101C515.065 545.976 514.261 546.887 513.457 547.762L514.529 548.727C515.315 547.834 516.118 546.941 516.94 546.065L515.886 545.101ZM837.186 545.351L835.811 545.762C835.811 545.958 835.918 546.155 835.989 546.351C836.263 547.304 836.495 548.251 836.686 549.192L838.097 548.888C837.882 547.905 837.65 546.941 837.365 545.958C837.316 545.753 837.256 545.55 837.186 545.351ZM288.389 548.441C288.264 549.602 288.103 550.764 287.871 552.014L289.282 552.282C289.514 551.067 289.692 549.853 289.835 548.709L288.389 548.441ZM-28.1791 548.763L-29.5184 549.299C-29.072 550.424 -28.572 551.55 -28.0363 552.639L-26.7506 551.996C-27.2684 550.942 -27.7505 549.87 -28.1791 548.763ZM122.98 549.192L120.033 551.246L120.855 552.425L123.819 550.371L122.98 549.192ZM509.886 551.853C509.1 552.765 508.333 553.64 507.565 554.622L508.672 555.534L510.975 552.782L509.886 551.853ZM1407.77 552.354C1407.46 553.533 1407.14 554.676 1406.84 555.837L1408.23 556.212C1408.54 555.051 1408.84 553.908 1409.16 552.729L1407.77 552.354ZM1048.84 553.211H1047.67V554.658H1051.24V553.211H1048.81H1048.84ZM1042.2 553.372C1041 553.372 1039.79 553.497 1038.63 553.604L1038.74 555.033C1039.93 554.944 1041.11 554.873 1042.31 554.819L1042.2 553.372ZM1056.67 553.372V554.801C1057.86 554.801 1059.06 554.944 1060.24 555.051L1060.36 553.604C1059.15 553.515 1057.95 553.426 1056.79 553.372H1056.67ZM1033.31 554.069C1032.12 554.212 1030.93 554.372 1029.74 554.551L1029.95 555.98C1031.13 555.802 1032.33 555.623 1033.52 555.498L1033.31 554.069ZM1065.79 554.069L1065.63 555.498L1069.2 555.945L1069.4 554.515L1065.83 554.069H1065.79ZM839.168 554.158L837.739 554.301C837.864 555.48 837.954 556.659 837.99 557.874H839.436C839.436 556.659 839.311 555.444 839.168 554.301V554.158ZM115.819 554.301L112.641 556.373L113.444 557.57L116.426 555.551L115.819 554.301ZM1074.74 555.498L1074.49 556.927C1075.67 557.124 1076.84 557.356 1078.06 557.588L1078.34 556.177L1074.77 555.498H1074.74ZM1024.42 555.587C1023.22 555.819 1022.04 556.087 1020.84 556.373L1021.2 557.767L1024.68 556.981L1024.42 555.587ZM-23.7863 556.552L-24.9649 557.356C-24.2863 558.356 -23.572 559.339 -22.7863 560.286L-21.6792 559.392C-22.4113 558.463 -23.1256 557.517 -23.7863 556.552ZM286.924 557.106C286.585 558.231 286.21 559.357 285.817 560.5L287.174 560.982C287.585 559.821 287.96 558.678 288.299 557.517L286.924 557.106ZM1083.72 557.338L1083.38 558.731L1086.84 559.607L1087.22 558.213C1086.06 557.91 1084.88 557.606 1083.65 557.338H1083.72ZM1015.65 557.82C1014.49 558.195 1013.33 558.571 1012.2 558.982L1012.68 560.339C1013.81 559.928 1014.93 559.553 1016.08 559.196L1015.65 557.82ZM504.404 558.839C503.654 559.785 502.922 560.75 502.19 561.697L503.333 562.572L505.529 559.732L504.404 558.839ZM108.355 559.285L105.337 561.232L106.105 562.447C107.123 561.804 108.141 561.161 109.141 560.5L108.355 559.285ZM1092.36 559.696L1091.93 561.072L1095.34 562.161L1095.81 560.804C1094.67 560.411 1093.5 560.053 1092.36 559.696ZM1007.15 561.036C1006.04 561.536 1004.95 562.072 1003.88 562.626L1004.54 563.912C1005.59 563.358 1006.65 562.84 1007.74 562.34L1007.15 561.036ZM1405.66 561.036C1405.36 562.215 1405.05 563.376 1404.73 564.52L1406.13 564.895C1406.43 563.734 1406.75 562.59 1407.05 561.322L1405.66 561.036ZM1100.91 562.59L1100.4 563.948C1101.52 564.359 1102.63 564.805 1103.74 565.252L1104.27 563.93C1103.16 563.466 1102.04 563.019 1100.91 562.59ZM837.972 563.305C837.972 564.484 837.829 565.663 837.704 566.878L839.132 567.021C839.257 565.806 839.347 564.609 839.418 563.448L837.972 563.305ZM-18.1435 563.305L-19.1614 564.341C-18.3042 565.181 -17.3757 566.02 -16.5007 566.824L-15.5543 565.734C-16.4471 564.948 -17.3399 564.144 -18.1435 563.305ZM100.766 564.055L97.6944 565.842L98.4266 567.092L101.516 565.306L100.766 564.055ZM999.148 565.377C998.13 566.038 997.148 566.753 996.184 567.485L997.041 568.628C997.988 567.914 998.952 567.235 999.952 566.574L999.148 565.377ZM283.764 565.377C283.299 566.467 282.799 567.539 282.282 568.628L283.585 569.254C284.103 568.146 284.621 567.056 285.085 565.949L283.764 565.377ZM498.976 565.967C498.261 566.943 497.565 567.926 496.886 568.914L498.065 569.736C498.743 568.754 499.44 567.789 500.136 566.806L498.976 565.967ZM1109.25 565.967L1108.66 567.289C1109.74 567.771 1110.83 568.289 1111.88 568.825L1112.52 567.521L1109.25 565.967ZM93.0159 568.468L89.8731 570.254L90.5338 571.523L93.7123 569.736L93.0159 568.468ZM-11.3757 568.95L-12.215 570.111C-11.2507 570.826 -10.2507 571.505 -9.2329 572.166L-8.4472 570.969C-9.44718 570.308 -10.4293 569.647 -11.3757 568.95ZM1403.34 569.629C1403.04 570.79 1402.73 571.969 1402.45 573.202L1403.84 573.541C1404.13 572.38 1404.43 571.237 1404.73 570.076L1403.34 569.629ZM1117.33 570.04L1116.65 571.29L1119.75 573.077L1120.47 571.826C1119.43 571.219 1118.4 570.612 1117.33 570.04ZM992.023 570.951L991.577 571.38C990.88 572.094 990.184 572.827 989.505 573.577L990.559 574.542C991.238 573.803 991.916 573.089 992.595 572.398L993.023 571.987L992.023 570.951ZM836.972 572.059C836.793 573.22 836.561 574.399 836.329 575.632L837.739 575.917C837.972 574.738 838.204 573.541 838.4 572.344L836.972 572.059ZM85.0874 572.63L81.8553 574.185L82.4625 575.489L85.7124 573.917L85.0874 572.63ZM493.833 573.363C493.172 574.363 492.511 575.381 491.868 576.4L493.083 577.168C493.726 576.15 494.368 575.149 495.029 574.149L493.833 573.363ZM279.835 573.363C279.282 574.417 278.692 575.471 278.049 576.507L279.299 577.222C279.889 576.168 280.478 575.113 281.085 574.059L279.835 573.363ZM-3.85796 573.72L-4.55438 574.971C-3.50082 575.56 -2.42941 576.114 -1.34013 576.65L-0.697285 575.364C-1.7687 574.828 -2.82226 574.292 -3.85796 573.72ZM1125.09 574.703L1124.31 575.899C1125.29 576.543 1126.29 577.221 1127.25 577.9L1128.08 576.721C1127.08 576.025 1126.08 575.364 1125.08 574.703H1125.09ZM76.8733 576.364L73.3554 577.811L73.8733 579.151C74.9983 578.704 76.1054 578.258 77.2304 577.775L76.8733 576.364ZM3.94552 577.811L3.39195 579.151C4.49908 579.615 5.62407 580.062 6.76691 580.491L7.26691 579.133C6.15978 578.722 5.03479 578.276 3.94552 577.811ZM985.773 577.99C985.041 578.937 984.309 579.919 983.613 580.902L984.791 581.741C985.488 580.759 986.184 579.794 986.916 578.865L985.773 577.99ZM1400.98 578.633L1400.23 582.206L1401.64 582.492L1402.39 578.919L1400.98 578.633ZM68.3733 579.812C67.2484 580.205 66.1055 580.58 64.9805 580.937L65.4091 582.313C66.5519 581.956 67.7126 581.581 68.8376 581.17L68.3733 579.812ZM1132.22 580.187L1131.34 581.313C1132.27 582.045 1133.13 582.795 1134.11 583.564L1135.04 582.456C1134.11 581.688 1133.25 580.919 1132.22 580.187ZM12.3383 580.866L11.9276 582.242C13.0704 582.599 14.2311 582.938 15.3918 583.26L15.7847 581.866C14.624 581.545 13.4811 581.223 12.3383 580.866ZM834.9 581.027C834.615 582.218 834.311 583.379 833.99 584.51L835.382 584.885C835.704 583.706 836.007 582.545 836.293 581.313L834.9 581.027ZM488.779 581.223C488.154 582.259 487.547 583.296 486.994 584.332L488.226 585.064C488.833 584.028 489.44 582.992 490.011 581.974L488.779 581.223ZM275.139 581.277L273.228 584.314L274.425 585.082C275.085 584.082 275.728 583.045 276.353 582.027L275.139 581.277ZM59.8377 582.349C58.6949 582.652 57.5342 582.938 56.3735 583.206L56.7128 584.618L60.2842 583.742L59.8377 582.349ZM20.9989 583.028L20.6953 584.439C21.8917 584.689 23.0703 584.921 24.2667 585.136L24.5167 583.706C23.3382 583.51 22.1775 583.278 20.9453 583.028H20.9989ZM51.0878 584.26C49.9271 584.457 48.7664 584.6 47.5164 584.725L47.6772 586.154C48.8914 586.029 50.1057 585.886 51.2485 585.689L51.0878 584.26ZM29.7666 584.492L29.5881 585.922C30.8024 586.065 31.9988 586.172 33.1595 586.279L33.2845 584.832C32.1059 584.743 30.9095 584.635 29.7131 584.492H29.7666ZM42.2129 585.082H38.6415V586.511H39.9987H42.2665L42.2129 585.082ZM980.541 585.332C979.898 586.35 979.273 587.387 978.648 588.441L979.898 589.173C980.506 588.119 981.131 587.119 981.684 586.1L980.541 585.332ZM1139.08 585.957L1138.09 587.011C1138.97 587.821 1139.83 588.643 1140.66 589.477L1141.68 588.458L1139.08 585.957ZM1399.16 587.404C1398.95 588.584 1398.73 589.781 1398.54 590.977L1399.96 591.21C1400.16 590.031 1400.36 588.852 1400.57 587.637L1399.16 587.404ZM270.192 588.816L268.175 591.781L269.353 592.603L271.389 589.62L270.192 588.816ZM484.226 588.959C483.636 590.031 483.065 591.085 482.44 592.157L483.708 592.818C484.261 591.763 484.833 590.709 485.404 589.655L484.226 588.959ZM832.436 589.584C832.097 590.745 831.74 591.889 831.4 593.032L832.775 593.461C833.115 592.299 833.472 591.156 833.811 589.995L832.436 589.584ZM1145.4 592.407L1144.33 593.371C1145.11 594.247 1145.9 595.158 1146.65 596.069L1147.77 595.158C1146.99 594.229 1146.2 593.371 1145.4 592.407ZM975.952 593.157C975.381 594.211 974.809 595.283 974.274 596.355L975.541 597.016C976.095 595.944 976.648 594.89 977.22 593.836L975.952 593.157ZM265.068 596.212L263.085 599.249L264.246 600.071L266.335 597.123L265.068 596.212ZM1397.68 596.319C1397.5 597.498 1397.34 598.695 1397.2 599.892L1398.63 600.071C1398.77 598.892 1398.93 597.712 1399.11 596.498L1397.68 596.319ZM480.011 596.98C479.476 598.052 478.958 599.142 478.44 600.231L479.744 600.839C480.244 599.767 480.761 598.695 481.297 597.605L480.011 596.98ZM829.793 598.195C829.436 599.338 829.097 600.482 828.74 601.625L830.115 602.054C830.472 600.91 830.811 599.767 831.168 598.624L829.793 598.195ZM1151.11 599.445L1149.93 600.303C1150.65 601.268 1151.33 602.232 1151.99 603.233L1153.18 602.429C1152.5 601.411 1151.81 600.428 1151.11 599.445ZM971.845 601.232C971.327 602.304 970.827 603.393 970.309 604.483L971.613 605.091C972.131 604.019 972.631 602.929 973.149 601.857L971.845 601.232ZM259.96 603.572L257.907 606.538L259.085 607.36L261.139 604.394L259.96 603.572ZM476.279 605.162C475.779 606.252 475.315 607.359 474.851 608.467L476.172 609.039C476.636 607.931 477.101 606.841 477.583 605.734L476.279 605.162ZM1396.63 605.269L1396.25 608.842L1397.7 608.985C1397.8 607.788 1397.93 606.591 1398.05 605.412L1396.63 605.269ZM827.275 606.806C826.936 607.967 826.597 609.128 826.275 610.289L827.668 610.665C827.99 609.521 828.311 608.36 828.65 607.217L827.275 606.806ZM1156.16 607.038L1154.91 607.753C1155.52 608.789 1156.11 609.825 1156.7 610.879L1157.97 610.2C1157.4 609.128 1156.8 608.074 1156.18 607.038H1156.16ZM968.166 609.396L966.72 612.719L968.042 613.291L969.488 609.986L968.166 609.396ZM254.871 611.04L252.907 614.059L254.121 614.845L256.085 611.826L254.871 611.04ZM472.726 613.487C472.297 614.613 471.869 615.738 471.458 616.864L472.797 617.364C473.208 616.256 473.637 615.131 474.083 614.023L472.726 613.487ZM1395.7 614.237L1395.43 617.81H1396.88C1396.88 616.614 1397.04 615.434 1397.14 614.237H1395.7ZM1160.29 615.059L1158.99 615.667C1159.49 616.756 1159.95 617.846 1160.41 618.936L1161.74 618.382C1161.27 617.274 1160.79 616.167 1160.29 615.059ZM824.918 615.577C824.686 616.756 824.454 617.953 824.275 619.15L825.686 619.365C825.882 618.203 826.097 617.042 826.329 615.792L824.918 615.577ZM964.542 617.685L963.149 621.026L964.47 621.58L965.863 618.239L964.542 617.685ZM249.943 618.632C249.318 619.651 248.675 620.669 248.05 621.705L249.282 622.455C249.907 621.419 250.532 620.401 251.175 619.383L249.943 618.632ZM469.583 621.973C469.19 623.164 468.815 624.307 468.458 625.403L469.815 625.85L470.94 622.437L469.583 621.973ZM1395.04 623.241C1395.04 624.438 1394.91 625.635 1394.86 626.814H1396.3C1396.3 625.617 1396.41 624.42 1396.48 623.241H1395.04ZM1163.61 623.474L1162.25 623.938C1162.65 625.081 1163 626.207 1163.34 627.35L1164.74 626.922C1164.38 625.778 1164 624.617 1163.61 623.474ZM823.543 624.546C823.436 625.76 823.347 626.975 823.311 628.118H824.74C824.74 626.939 824.865 625.76 824.972 624.546H823.543ZM961.042 626.01C960.577 627.136 960.131 628.244 959.667 629.333L961.006 629.887C961.452 628.779 961.917 627.672 962.381 626.564L961.042 626.01Z" fill="#153863"/>
<path d="M245.354 626.35L243.568 629.494L244.836 630.209C245.407 629.173 246.002 628.136 246.621 627.1L245.354 626.35ZM466.994 630.584C466.655 631.745 466.315 632.888 465.994 634.05L467.387 634.443C467.708 633.281 468.03 632.138 468.369 630.995L466.994 630.584ZM1166.25 632.192L1164.86 632.513C1165.12 633.704 1165.37 634.865 1165.61 635.997L1167.02 635.729C1166.79 634.55 1166.54 633.371 1166.25 632.156V632.192ZM1394.82 632.156C1394.82 633.353 1394.82 634.568 1394.72 635.729H1396.16C1396.16 634.532 1396.16 633.335 1396.16 632.156H1394.82ZM824.9 633.478H823.454C823.454 634.693 823.579 635.908 823.686 637.051L825.115 636.926C825.008 635.747 824.936 634.568 824.9 633.353V633.478ZM240.979 634.05C240.425 635.122 239.871 636.193 239.336 637.265L240.621 637.908L242.246 634.711L240.979 634.05ZM957.685 634.05L956.292 637.372L957.613 637.926L959.06 634.979L957.685 634.05ZM464.637 639.284C464.333 640.445 464.047 641.606 463.744 642.768L465.155 643.125C465.44 641.964 465.744 640.803 466.03 639.641L464.637 639.284ZM1167.91 641.071L1166.49 641.249C1166.65 642.428 1166.75 643.625 1166.86 644.822L1168.29 644.697C1168.29 643.5 1168.08 642.303 1167.91 641.124V641.071ZM1394.7 641.267C1394.7 642.482 1394.7 643.679 1394.7 644.84H1396.14C1396.14 643.643 1396.14 642.446 1396.14 641.267H1394.7ZM237.157 642.393C236.657 643.5 236.175 644.608 235.693 645.715L237.032 646.269C237.497 645.179 237.961 644.09 238.461 643L237.157 642.393ZM825.9 642.393L824.472 642.643C824.686 643.84 824.918 645.037 825.186 646.216L826.597 645.894C826.329 644.733 826.097 643.572 825.9 642.321V642.393ZM954.274 642.482C953.774 643.589 953.274 644.679 952.774 645.751L954.078 646.359C954.578 645.287 955.078 644.179 955.577 643.071L954.274 642.482ZM462.405 648.02C462.137 649.199 461.851 650.36 461.583 651.593L462.976 651.932C463.244 650.771 463.53 649.592 463.815 648.359L462.405 648.02ZM1168.5 650.164H1167.06V651.236C1167.06 652.057 1167.06 652.897 1167.06 653.737H1168.5C1168.5 652.897 1168.5 652.04 1168.5 651.2V650.11V650.164ZM1395.98 650.217H1394.54C1394.54 651.414 1394.54 652.611 1394.54 653.79H1395.98C1395.98 652.593 1395.98 651.396 1395.98 650.217ZM950.31 650.628C949.786 651.7 949.25 652.772 948.703 653.844L950.006 654.505L951.613 651.271L950.31 650.628ZM233.568 650.628C233.157 651.772 232.747 652.897 232.372 654.04L233.729 654.505C234.104 653.379 234.497 652.254 234.925 651.128L233.568 650.628ZM827.883 650.932L826.508 651.379C826.883 652.54 827.275 653.683 827.722 654.809L829.061 654.291C828.633 653.183 828.24 652.075 827.883 650.932ZM460.351 656.684C460.065 657.846 459.798 659.025 459.53 660.257L460.923 660.579C461.19 659.418 461.476 658.239 461.744 657.006L460.351 656.684ZM946.256 658.596C945.703 659.65 945.149 660.704 944.471 661.758L945.738 662.455C946.328 661.383 946.881 660.329 947.435 659.257L946.256 658.596ZM1166.66 658.971C1166.54 660.15 1166.4 661.329 1166.2 662.544L1167.63 662.758C1167.81 661.561 1167.97 660.365 1168.09 659.185L1166.66 658.971ZM1396.05 659.15H1394.61C1394.61 660.347 1394.61 661.544 1394.61 662.723H1396.04V659.15H1396.05ZM831.168 659.15L829.883 659.775C830.418 660.865 830.972 661.937 831.579 663.009L832.829 662.294C832.24 661.258 831.686 660.204 831.168 659.15ZM230.764 659.15C230.443 660.311 230.139 661.49 229.854 662.723L231.264 663.044C231.532 661.883 231.836 660.74 232.139 659.596L230.764 659.15ZM458.262 665.349C457.994 666.51 457.708 667.671 457.423 668.922L458.815 669.261L459.673 665.688L458.262 665.349ZM941.899 666.349C941.292 667.368 940.667 668.386 940.113 669.404L941.328 670.172C941.971 669.154 942.596 668.118 943.221 667.082L941.899 666.349ZM835.65 666.76L834.472 667.582C835.15 668.582 835.865 669.565 836.615 670.53L837.757 669.636C837.025 668.69 836.311 667.743 835.65 666.76ZM1165.18 667.671C1164.91 668.815 1164.61 669.976 1164.29 671.119L1165.68 671.512C1166 670.351 1166.31 669.172 1166.59 667.939L1165.18 667.671ZM228.782 667.993C228.586 669.19 228.425 670.387 228.282 671.566L229.711 671.727C229.854 670.548 230.014 669.368 230.211 668.154L228.782 667.993ZM1396.2 667.993H1394.77C1394.77 669.19 1394.77 670.387 1394.77 671.566H1396.22C1396.22 670.369 1396.22 669.172 1396.13 667.993H1396.2ZM841.132 673.62L840.079 674.603C840.882 675.478 841.74 676.389 842.615 677.193L843.615 676.157C842.757 675.335 841.936 674.478 841.132 673.62ZM936.988 673.763C936.31 674.746 935.596 675.693 934.863 676.639L936.006 677.515C936.738 676.568 937.471 675.585 938.167 674.603L936.988 673.763ZM456.137 674.281L455.226 677.765L456.619 678.14L457.53 674.567L456.137 674.281ZM1162.63 676.389C1162.22 677.497 1161.77 678.587 1161.31 679.676L1162.63 680.266C1163.11 679.141 1163.56 678.015 1163.99 676.89L1162.63 676.389ZM227.854 677.229C227.854 678.194 227.854 679.176 227.854 680.159C227.854 680.391 227.854 680.623 227.854 680.856H229.282V680.177C229.282 679.212 229.282 678.265 229.282 677.3L227.854 677.229ZM1396.45 677.229H1395L1395.11 680.802H1396.54C1396.54 679.605 1396.54 678.408 1396.54 677.229H1396.45ZM847.686 679.998L846.775 681.106C847.704 681.874 848.668 682.624 849.65 683.339L850.489 682.178C849.543 681.481 848.597 680.748 847.686 679.998ZM931.614 681.016C930.828 681.91 930.006 682.803 929.167 683.607L930.185 684.625C931.042 683.768 931.971 682.839 932.685 681.981L931.614 681.016ZM453.708 682.928C453.387 684.089 453.048 685.232 452.69 686.376L454.083 686.787L455.101 683.339L453.708 682.928ZM1158.91 684.5C1158.34 685.554 1157.77 686.59 1157.13 687.608L1158.36 688.341C1158.99 687.305 1159.58 686.251 1160.15 685.179L1158.91 684.5ZM854.847 685.179L854.079 686.412C855.097 687.037 856.132 687.662 857.204 688.198L857.9 686.947C856.864 686.352 855.847 685.756 854.847 685.161V685.179ZM229.443 686.161L227.997 686.286C228.122 687.501 228.264 688.698 228.443 689.859L229.872 689.645C229.693 688.466 229.55 687.305 229.443 686.072V686.161ZM1396.63 686.072H1395.18L1395.29 689.645H1396.72C1396.72 688.448 1396.72 687.251 1396.72 686.072H1396.63ZM925.131 687.18C924.221 687.93 923.346 688.645 922.31 689.306L923.114 690.485C924.114 689.806 925.096 689.073 926.042 688.287L925.131 687.18ZM862.632 689.449L862.025 690.753C863.114 691.271 864.221 691.771 865.346 692.235L865.9 690.913C864.793 690.449 863.704 689.967 862.632 689.449ZM451.048 691.503C450.673 692.646 450.28 693.772 449.887 694.897L451.244 695.38C451.655 694.236 452.03 693.093 452.423 691.95L451.048 691.503ZM917.649 692.003C916.596 692.539 915.524 693.021 914.435 693.468L914.971 694.79C916.114 694.344 917.221 693.825 918.31 693.289L917.649 692.003ZM1154.27 692.093C1153.59 693.075 1152.9 694.022 1152.18 694.969L1153.33 695.844C1154.06 694.879 1154.77 693.897 1155.45 692.914L1154.27 692.093ZM870.9 692.807L870.436 694.183C871.561 694.576 872.721 694.933 873.882 695.29L874.293 693.897C873.15 693.557 872.025 693.2 870.9 692.807ZM230.889 694.933L229.497 695.272C229.782 696.452 230.104 697.631 230.443 698.845L231.818 698.417C231.479 697.291 231.175 696.148 230.889 694.987V694.933ZM909.453 695.219C908.328 695.523 907.167 695.791 906.007 696.023L906.292 697.434C907.489 697.202 908.667 696.916 909.864 696.594L909.453 695.219ZM1396.95 695.219H1395.52C1395.52 696.416 1395.52 697.613 1395.52 698.792H1396.97C1396.97 697.595 1396.97 696.398 1396.97 695.219H1396.95ZM879.596 695.219L879.275 696.63C880.471 696.898 881.65 697.13 882.846 697.345L883.096 695.916C881.918 695.719 880.757 695.487 879.525 695.219H879.596ZM888.31 696.648L888.168 698.095C889.382 698.202 890.578 698.31 891.739 698.363V696.916C890.56 696.916 889.382 696.773 888.168 696.648H888.31ZM900.667 696.648C899.489 696.773 898.31 696.845 897.096 696.88V698.327C898.31 698.327 899.525 698.202 900.667 698.095V696.648ZM1148.88 699.06C1148.11 699.953 1147.33 700.846 1146.5 701.722L1147.56 702.704C1148.38 701.811 1149.2 700.918 1149.99 699.989L1148.88 699.06ZM448.066 699.846C447.619 700.953 447.173 702.061 446.708 703.151L448.03 703.723C448.512 702.597 448.958 701.489 449.405 700.364L448.066 699.846ZM233.675 703.401L232.336 703.937C232.782 705.062 233.264 706.17 233.764 707.278L235.068 706.688C234.568 705.598 234.104 704.509 233.675 703.401ZM1397.13 704.223H1395.7V707.796H1397.13C1397.13 706.599 1397.13 705.402 1397.13 704.223ZM1142.81 705.652C1141.95 706.492 1141.02 707.296 1140.22 708.117L1141.18 709.171C1142.08 708.35 1142.97 707.528 1143.81 706.688L1142.81 705.652ZM353.531 705.991H352.763V707.438H353.477C354.391 707.442 355.304 707.507 356.209 707.635L356.424 706.224C355.45 706.066 354.464 705.989 353.477 705.991H353.531ZM347.21 707.045C346.033 707.459 344.902 707.991 343.835 708.635L344.567 709.868C345.557 709.276 346.604 708.786 347.692 708.403L347.21 707.045ZM361.781 707.724L361.227 709.046C362.296 709.497 363.328 710.029 364.316 710.636L365.066 709.404C364.016 708.759 362.918 708.198 361.781 707.724ZM444.512 708.153L443.708 709.814C443.458 710.315 443.208 710.833 442.923 711.333L444.191 712.03C444.476 711.494 444.744 710.976 444.994 710.458C445.244 709.94 445.548 709.332 445.816 708.76L444.512 708.153ZM237.372 711.476L236.104 712.155C236.675 713.227 237.282 714.263 237.889 715.317L239.121 714.566C238.514 713.548 237.907 712.512 237.336 711.476H237.372ZM1136.06 711.655C1135.15 712.423 1134.27 713.173 1133.29 713.923L1134.18 715.049C1135.13 714.299 1136.06 713.53 1136.99 712.744L1136.06 711.655ZM339.424 712.155C338.584 713.07 337.826 714.056 337.156 715.102L338.352 715.889C338.986 714.916 339.697 713.996 340.477 713.137L339.424 712.155ZM369.388 712.798L368.388 713.834C369.228 714.641 370.009 715.507 370.727 716.424L371.87 715.549C371.109 714.574 370.28 713.655 369.388 712.798ZM1397.13 713.244H1395.68C1395.68 714.441 1395.68 715.638 1395.68 716.817H1397.11C1397.11 715.621 1397.11 714.424 1397.11 713.244H1397.13ZM440.119 715.889C439.476 716.871 438.798 717.836 438.066 718.818L439.226 719.676C439.958 718.675 440.655 717.675 441.316 716.692L440.119 715.889ZM1129.04 717.193L1126.15 719.301L1126.99 720.462C1127.97 719.765 1128.93 719.051 1129.9 718.336L1129.04 717.193ZM241.996 718.979L240.818 719.801C241.496 720.783 242.211 721.766 242.925 722.749L244.086 721.891C243.371 720.926 242.675 719.962 241.996 718.979ZM334.674 719.98C334.242 721.142 333.902 722.337 333.656 723.552L335.067 723.838C335.298 722.695 335.621 721.572 336.031 720.48L334.674 719.98ZM374.745 720.212L373.441 720.801C373.745 721.498 374.013 722.195 374.263 722.909C374.388 723.285 374.495 723.678 374.602 724.071L375.995 723.695C375.888 723.291 375.763 722.88 375.62 722.463C375.373 721.696 375.081 720.944 374.745 720.212ZM1395.7 722.177C1395.7 723.374 1395.7 724.571 1395.7 725.75H1397.14C1397.14 724.535 1397.14 723.338 1397.14 722.177H1395.7ZM1121.72 722.338L1118.86 724.303L1119.65 725.518L1122.65 723.517L1121.72 722.338ZM434.762 722.981C434.012 723.892 433.226 724.767 432.405 725.678L433.476 726.643C434.298 725.732 435.101 724.857 435.869 723.91L434.762 722.981ZM247.389 726.143L246.282 727.054C247.05 727.983 247.836 728.84 248.639 729.805L249.711 728.858C248.925 727.965 248.139 727.072 247.389 726.143ZM1114.2 727.233L1111.15 729.126L1111.9 730.359L1114.97 728.448L1114.2 727.233ZM333.049 729.019V729.18C333.043 730.375 333.121 731.569 333.281 732.753L334.71 732.556C334.567 731.455 334.495 730.345 334.495 729.234V729.073L333.049 729.019ZM376.87 729.144L375.441 729.234C375.441 729.734 375.441 730.234 375.441 730.734C375.441 731.234 375.441 732.074 375.441 732.735L376.87 732.842C376.87 732.128 376.87 731.431 376.87 730.734C376.87 730.037 376.87 729.68 376.87 729.144ZM428.655 729.519C427.816 730.359 426.959 731.181 426.084 732.003L427.066 733.057C427.959 732.217 428.851 731.377 429.673 730.538L428.655 729.519ZM1395.52 731.109C1395.52 732.306 1395.52 733.503 1395.52 734.682H1396.95L1397.05 731.109H1395.52ZM1106.49 731.86L1103.38 733.646L1104.11 734.897L1107.22 733.11L1106.49 731.86ZM253.3 732.753L252.264 733.753C253.103 734.629 253.943 735.54 254.8 736.326L255.818 735.308C254.961 734.468 254.121 733.521 253.3 732.753ZM422.102 735.593C421.191 736.362 420.316 737.13 419.334 737.88L420.244 739.006C421.191 738.237 422.119 737.469 423.03 736.683L422.102 735.593ZM1098.72 736.397L1095.59 738.184L1096.31 739.434L1099.43 737.648L1098.72 736.397ZM335.942 737.576L334.603 738.095C335.041 739.238 335.573 740.343 336.192 741.4L337.442 740.667C336.873 739.675 336.377 738.642 335.96 737.576H335.942ZM374.531 737.934C374.253 739.073 373.908 740.195 373.495 741.292L374.852 741.793C375.279 740.622 375.643 739.429 375.941 738.22L374.531 737.934ZM259.728 739.006L258.764 740.06C259.639 740.881 260.55 741.685 261.461 742.471L262.407 741.382C261.496 740.596 260.621 739.81 259.728 739.006ZM1395.23 740.095C1395.23 741.292 1395.13 742.489 1395.05 743.668H1396.5C1396.5 742.471 1396.63 741.274 1396.68 740.095H1395.23ZM1090.92 740.881L1087.79 742.668L1088.5 743.918L1091.63 742.132L1090.92 740.881ZM415.119 741.167C414.155 741.882 413.191 742.579 412.209 743.257L413.03 744.437C414.012 743.74 414.994 743.043 415.959 742.328L415.119 741.167ZM266.514 744.847L265.585 745.973L268.425 748.224L269.3 747.081C268.353 746.348 267.514 745.616 266.514 744.847ZM340.424 745.115L339.281 745.991C340.031 746.973 340.799 747.92 341.602 748.813L342.674 747.849C341.9 746.991 341.15 746.08 340.424 745.115ZM1083.11 745.348L1080 747.134L1080.74 748.385L1083.83 746.598L1083.11 745.348ZM371.281 746.116C370.727 747.134 370.102 748.152 369.495 749.117L370.674 749.939C371.37 748.921 371.995 747.867 372.584 746.795L371.281 746.116ZM407.727 746.205C406.709 746.848 405.691 747.456 404.655 747.992L405.387 749.242C406.423 748.635 407.459 747.992 408.495 747.348L407.727 746.205ZM1394.73 749.063C1394.64 750.26 1394.55 751.44 1394.45 752.636L1395.89 752.762L1396.16 749.189L1394.73 749.063ZM1075.34 749.903L1072.25 751.69L1073 752.922L1076.08 751.136L1075.34 749.903ZM273.568 750.332L272.728 751.493L275.692 753.583L276.496 752.386L273.568 750.332ZM399.941 750.653C398.87 751.207 397.816 751.725 396.727 752.243L397.352 753.53C398.441 753.029 399.513 752.494 400.602 751.922L399.941 750.653ZM346.477 751.493L345.549 752.619C346.497 753.398 347.486 754.126 348.513 754.798L349.299 753.601C348.32 752.952 347.378 752.248 346.477 751.493ZM366.12 753.28C365.316 754.155 364.495 755.066 363.638 755.816L364.638 756.853C365.513 756.013 366.424 755.066 367.191 754.244L366.12 753.28ZM391.78 754.352C390.655 754.798 389.548 755.227 388.441 755.62L388.905 756.978C390.048 756.567 391.173 756.156 392.316 755.691L391.78 754.352ZM1067.81 754.673L1064.77 756.62L1065.56 757.835L1068.58 755.888L1067.81 754.673ZM281.157 755.423L280.389 756.638C281.425 757.281 282.442 757.907 283.496 758.514L284.21 757.281L281.157 755.495V755.423ZM354.102 756.299L353.495 757.603C354.614 758.104 355.758 758.545 356.924 758.925L357.37 757.567C356.263 757.192 355.174 756.781 354.102 756.299ZM383.566 757.371C382.406 757.674 381.245 757.96 380.102 758.192L380.406 759.604C381.596 759.354 382.786 759.068 383.977 758.746L383.566 757.371ZM1394.14 758.139L1393.77 761.712L1395.2 761.873L1395.57 758.3L1394.14 758.139ZM362.495 758.836L362.263 760.247C363.445 760.457 364.637 760.606 365.834 760.694L365.959 759.264C364.763 759.175 363.602 759.032 362.388 758.836H362.495ZM374.745 759.068C373.549 759.193 372.37 759.3 371.174 759.354V760.783C372.388 760.783 373.602 760.64 374.745 760.497V759.068ZM359.692 759.372C358.745 760.068 357.763 760.729 356.763 761.372L357.531 762.587C358.567 761.944 359.567 761.247 360.549 760.533L359.692 759.372ZM1060.17 759.693C1059.17 760.372 1058.17 761.069 1057.2 761.765L1058.02 762.927C1059 762.248 1059.97 761.551 1060.97 760.89L1060.17 759.693ZM288.746 759.961L288.067 761.229C289.139 761.783 290.228 762.337 291.317 762.855L291.924 761.551C290.853 761.051 289.799 760.515 288.746 759.961ZM296.817 763.748L296.264 765.088C297.389 765.553 298.514 765.982 299.639 766.41L300.139 765.053C299.032 764.642 297.924 764.213 296.817 763.748ZM352.067 763.945C351.013 764.463 349.924 764.945 348.835 765.41L349.37 766.732C350.495 766.267 351.602 765.785 352.692 765.249L352.067 763.945ZM1052.77 764.963C1051.81 765.696 1050.84 766.428 1049.92 767.178L1050.81 768.304L1053.63 766.107L1052.77 764.963ZM305.21 766.75L304.799 768.125C305.96 768.483 307.139 768.804 308.371 769.09L308.728 767.697C307.567 767.411 306.424 767.089 305.281 766.75H305.21ZM1393.04 767.071L1392.55 770.644L1393.97 770.841C1394.14 769.644 1394.3 768.465 1394.47 767.268L1393.04 767.071ZM343.96 767.178C342.835 767.518 341.692 767.84 340.531 768.107L340.87 769.519C342.049 769.233 343.227 768.911 344.442 768.554L343.96 767.178ZM314.049 768.822L313.799 770.233L315.174 770.466L317.388 770.769L317.567 769.34C316.835 769.251 316.121 769.161 315.406 769.036L314.049 768.822ZM335.299 769.126C334.108 769.304 332.918 769.447 331.728 769.555L331.87 770.984C333.085 770.877 334.281 770.734 335.442 770.555L335.299 769.126ZM322.888 769.787V771.234C323.835 771.234 324.763 771.234 325.71 771.234H326.531V769.787H325.728C324.799 769.787 323.942 769.787 322.978 769.787H322.888ZM1045.99 770.662C1045.08 771.448 1044.2 772.252 1043.29 773.074L1044.27 774.128C1045.15 773.324 1046.06 772.52 1046.93 771.734L1045.99 770.662ZM1391.89 776.022C1391.72 777.201 1391.5 778.38 1391.29 779.595L1392.7 779.862C1392.91 778.666 1393.13 777.486 1393.32 776.29L1391.89 776.022ZM1039.4 776.951C1038.56 777.808 1037.74 778.737 1036.92 779.595L1037.99 780.559C1038.79 779.684 1039.59 778.773 1040.43 777.951L1039.4 776.951ZM1033.42 783.739C1032.67 784.704 1031.93 785.669 1031.24 786.651L1032.4 787.491C1033.09 786.526 1033.81 785.579 1034.54 784.632L1033.42 783.739ZM1390.27 784.847C1390.04 786.008 1389.79 787.187 1389.52 788.42L1390.93 788.741C1391.18 787.562 1391.45 786.383 1391.68 785.168L1390.27 784.847ZM1028.24 791.171C1027.59 792.207 1027.01 793.243 1026.45 794.315L1027.72 794.994C1028.29 793.958 1028.88 792.922 1029.51 791.921L1028.24 791.171ZM1388.29 793.583L1387.38 797.048L1388.77 797.442C1389.07 796.262 1389.39 795.101 1389.68 793.869L1388.29 793.583ZM1024.01 799.21C1023.52 800.318 1023.08 801.425 1022.65 802.569L1024.01 803.069C1024.42 801.961 1024.86 800.872 1025.33 799.782L1024.01 799.21ZM1385.84 802.104L1384.77 805.516L1386.13 805.963C1386.5 804.82 1386.86 803.659 1387.22 802.515L1385.84 802.104ZM1020.93 807.625C1020.67 808.518 1020.43 809.411 1020.22 810.322C1020.22 810.608 1020.09 810.876 1020.04 811.144L1021.45 811.448C1021.45 811.198 1021.56 810.93 1021.63 810.662C1021.84 809.768 1022.06 808.875 1022.31 808.018L1020.93 807.625ZM1383.04 810.608L1381.8 813.967L1383.14 814.485C1383.57 813.359 1383.98 812.216 1384.39 811.09L1383.04 810.608ZM1019.06 816.521C1018.9 817.736 1018.79 818.933 1018.7 820.094L1020.13 820.201C1020.13 819.022 1020.33 817.843 1020.49 816.628L1019.06 816.521ZM1379.77 818.969C1379.33 820.076 1378.86 821.184 1378.38 822.291L1379.7 822.845C1380.17 821.738 1380.64 820.63 1381.09 819.522L1379.77 818.969ZM1019.95 825.614H1018.52C1018.52 826.829 1018.52 828.044 1018.67 829.187L1020.11 829.08C1020.02 827.901 1019.97 826.722 1019.95 825.507V825.614ZM1376.2 827.115C1375.7 828.205 1375.18 829.295 1374.66 830.366L1375.95 830.992C1376.48 829.908 1377 828.818 1377.5 827.722L1376.2 827.115ZM1020.7 834.368L1019.27 834.583C1019.45 835.779 1019.67 836.976 1019.9 838.155L1021.31 837.87C1021.08 836.691 1020.88 835.529 1020.7 834.297V834.368ZM1372.25 835.101C1371.7 836.155 1371.14 837.209 1370.57 838.263L1371.84 838.959C1372.41 837.888 1372.98 836.834 1373.63 835.762L1372.25 835.101ZM1367.97 842.961C1367.38 843.997 1366.77 845.034 1366.18 846.052L1367.43 846.802L1369.22 843.676L1367.97 842.961ZM1022.56 842.961L1021.18 843.336C1021.51 844.498 1021.84 845.659 1022.22 846.909L1023.59 846.463C1023.22 845.337 1022.88 844.194 1022.56 843.05V842.961ZM1363.34 850.661C1362.7 851.679 1362.04 852.68 1361.39 853.68L1362.59 854.466C1363.25 853.466 1363.91 852.465 1364.55 851.447L1363.34 850.661ZM1025.42 851.501L1024.08 852.036C1024.52 853.162 1024.99 854.27 1025.47 855.377L1026.79 854.806C1026.31 853.698 1025.84 852.608 1025.42 851.501ZM1358.41 858.289C1357.73 859.272 1357.04 860.254 1356.34 861.219L1357.5 862.059L1359.59 859.111L1358.41 858.289ZM1029.13 859.808L1027.84 860.451C1028.4 861.523 1028.97 862.595 1029.63 863.649L1030.88 862.952C1030.31 861.916 1029.74 860.862 1029.2 859.808H1029.13ZM1353.13 865.435C1352.41 866.382 1351.68 867.329 1350.93 868.258L1352.07 869.151C1352.81 868.204 1353.56 867.257 1354.27 866.293L1353.13 865.435ZM1033.49 867.472L1032.26 868.24C1032.9 869.258 1033.56 870.277 1034.22 871.295L1035.42 870.491C1034.76 869.49 1034.11 868.49 1033.49 867.472ZM1347.56 872.581C1346.79 873.51 1346.02 874.368 1345.23 875.314L1346.32 876.261L1348.66 873.51L1347.56 872.581ZM1038.52 874.957L1037.36 875.797C1038.06 876.779 1038.79 877.744 1039.52 878.691L1040.67 877.815C1039.93 876.869 1039.22 875.922 1038.52 874.957ZM1341.68 879.263C1340.88 880.138 1340.07 881.049 1339.25 881.906L1340.31 882.889L1342.75 880.227L1341.68 879.263ZM1044.04 881.996L1042.93 882.925C1043.7 883.854 1044.51 884.711 1045.29 885.658L1046.38 884.711C1045.58 883.818 1044.81 882.925 1044.04 881.996ZM1335.52 885.783L1332.98 888.302L1333.98 889.338C1334.86 888.499 1335.77 887.552 1336.56 886.784L1335.52 885.783ZM1050.01 888.659L1048.97 889.66C1049.81 890.535 1050.65 891.446 1051.51 892.232L1052.52 891.214C1051.67 890.374 1050.74 889.535 1050.01 888.659ZM1329.09 892.018L1326.45 894.448L1327.41 895.52L1330.07 893.072L1329.09 892.018ZM1056.4 894.948L1055.42 896.002L1058 898.342L1058.95 897.252C1058.09 896.484 1057.17 895.716 1056.4 894.93V894.948ZM1322.47 897.985C1321.56 898.771 1320.68 899.539 1319.72 900.289L1320.63 901.397C1321.56 900.647 1322.41 899.861 1323.39 899.075L1322.47 897.985ZM1063.17 900.843L1062.25 901.951L1065.04 904.238L1065.95 903.112C1065.02 902.38 1064.17 901.611 1063.17 900.843ZM1315.48 903.666C1314.54 904.398 1313.59 905.131 1312.63 905.845L1313.5 907.007L1316.36 904.791L1315.48 903.666ZM1070.15 906.417L1069.27 907.56C1070.24 908.293 1071.2 909.008 1072.18 909.704L1073.02 908.543L1070.15 906.417ZM1308.31 909.043C1307.34 909.74 1306.36 910.419 1305.38 911.098L1306.18 912.277C1307.18 911.598 1308.16 910.901 1309.14 910.204L1308.31 909.043ZM1077.43 911.634L1076.61 912.831L1079.63 914.831L1080.49 913.67C1079.49 913.027 1078.49 912.348 1077.5 911.687L1077.43 911.634ZM1300.98 914.153L1297.97 916.082L1298.73 917.297L1301.77 915.35L1300.98 914.153ZM1084.95 916.493L1084.2 917.726L1087.31 919.512L1088.04 918.279L1084.95 916.493ZM1293.31 918.815L1290.2 920.602L1290.91 921.852L1294.04 920.066L1293.31 918.815ZM1092.72 920.995L1092.02 922.245C1093.08 922.835 1094.13 923.407 1095.2 924.032L1095.88 922.763L1092.72 921.066V920.995ZM1285.48 923.282L1282.31 924.943L1282.97 926.229C1284.04 925.675 1285.11 925.122 1286.16 924.55L1285.48 923.282ZM1100.67 925.193L1100.04 926.479L1103.29 928.051L1103.9 926.747C1102.83 926.229 1101.74 925.729 1100.67 925.193ZM1277.45 927.319L1274.22 928.82L1274.81 930.142L1278.07 928.605L1277.45 927.319ZM1108.77 928.963L1108.18 930.285L1111.52 931.696L1112.08 930.374L1108.77 928.963ZM1269.29 930.981L1265.98 932.339L1266.52 933.679L1269.84 932.303L1269.29 930.981ZM1117.06 932.357L1116.54 933.715L1119.93 934.983L1120.41 933.625L1117.06 932.357ZM1260.97 934.268C1259.84 934.679 1258.72 935.09 1257.59 935.465L1258.06 936.841L1261.47 935.626L1260.97 934.268ZM1125.5 935.394L1125.04 936.769L1128.49 937.877L1128.91 936.502L1125.5 935.394ZM1252.48 937.18L1249.06 938.234L1249.47 939.61L1252.91 938.556L1252.48 937.18ZM1134.06 938.074L1133.66 939.467L1137.24 940.432L1137.61 939.038C1136.45 938.735 1135.31 938.413 1134.15 938.074H1134.06ZM1243.97 939.681L1240.5 940.575L1240.84 941.968L1244.41 941.075L1243.97 939.681ZM1142.83 940.378L1142.49 941.772L1146.06 942.593L1146.36 941.182L1142.79 940.378H1142.83ZM1235.22 941.772L1231.65 942.504L1231.74 942.969H1235.41L1235.22 941.772ZM1151.54 942.29L1151.41 942.969H1154.99L1151.41 942.29" fill="#153863"/>
</svg>
