<svg width="30" height="30" viewBox="0 0 30 30" fill="none" xmlns="http://www.w3.org/2000/svg">
<rect width="30" height="30" rx="10" fill="#EF7A28"/>
<path d="M12.4688 12.4688C13.1771 11.7604 14.0312 11.4062 15.0312 11.4062C16.0312 11.4062 16.875 11.7604 17.5625 12.4688C18.2708 13.1562 18.625 14 18.625 15C18.625 16 18.2708 16.8542 17.5625 17.5625C16.875 18.25 16.0312 18.5938 15.0312 18.5938C14.0312 18.5938 13.1771 18.25 12.4688 17.5625C11.7812 16.8542 11.4375 16 11.4375 15C11.4375 14 11.7812 13.1562 12.4688 12.4688ZM13.375 16.6562C13.8333 17.1146 14.3854 17.3438 15.0312 17.3438C15.6771 17.3438 16.2292 17.1146 16.6875 16.6562C17.1458 16.1979 17.375 15.6458 17.375 15C17.375 14.3542 17.1458 13.8021 16.6875 13.3438C16.2292 12.8854 15.6771 12.6562 15.0312 12.6562C14.3854 12.6562 13.8333 12.8854 13.375 13.3438C12.9167 13.8021 12.6875 14.3542 12.6875 15C12.6875 15.6458 12.9167 16.1979 13.375 16.6562ZM19.3438 10.6875C19.5104 10.8333 19.5938 11.0208 19.5938 11.25C19.5938 11.4792 19.5104 11.6771 19.3438 11.8438C19.1979 12.0104 19.0104 12.0938 18.7812 12.0938C18.5521 12.0938 18.3542 12.0104 18.1875 11.8438C18.0208 11.6771 17.9375 11.4792 17.9375 11.25C17.9375 11.0208 18.0208 10.8333 18.1875 10.6875C18.3542 10.5208 18.5521 10.4375 18.7812 10.4375C19.0104 10.4375 19.1979 10.5208 19.3438 10.6875ZM22 12.125C22.0208 12.6875 22.0312 13.6458 22.0312 15C22.0312 16.3542 22.0208 17.3125 22 17.875C21.9375 19.1458 21.5521 20.1354 20.8438 20.8438C20.1562 21.5312 19.1771 21.8958 17.9062 21.9375C17.3438 21.9792 16.3854 22 15.0312 22C13.6771 22 12.7188 21.9792 12.1562 21.9375C10.8854 21.875 9.90625 21.5 9.21875 20.8125C8.94792 20.5625 8.72917 20.2708 8.5625 19.9375C8.39583 19.6042 8.27083 19.2812 8.1875 18.9688C8.125 18.6562 8.09375 18.2917 8.09375 17.875C8.05208 17.3125 8.03125 16.3542 8.03125 15C8.03125 13.6458 8.05208 12.6771 8.09375 12.0938C8.15625 10.8438 8.53125 9.875 9.21875 9.1875C9.90625 8.47917 10.8854 8.09375 12.1562 8.03125C12.7188 8.01042 13.6771 8 15.0312 8C16.3854 8 17.3438 8.01042 17.9062 8.03125C19.1771 8.09375 20.1562 8.47917 20.8438 9.1875C21.5521 9.875 21.9375 10.8542 22 12.125ZM20.5 19.125C20.5625 18.9583 20.6146 18.75 20.6562 18.5C20.6979 18.2292 20.7292 17.9167 20.75 17.5625C20.7708 17.1875 20.7812 16.8854 20.7812 16.6562C20.7812 16.4271 20.7812 16.1042 20.7812 15.6875C20.7812 15.2708 20.7812 15.0417 20.7812 15C20.7812 14.9375 20.7812 14.7083 20.7812 14.3125C20.7812 13.8958 20.7812 13.5729 20.7812 13.3438C20.7812 13.1146 20.7708 12.8229 20.75 12.4688C20.7292 12.0938 20.6979 11.7812 20.6562 11.5312C20.6146 11.2604 20.5625 11.0417 20.5 10.875C20.25 10.2292 19.8021 9.78125 19.1562 9.53125C18.9896 9.46875 18.7708 9.41667 18.5 9.375C18.25 9.33333 17.9375 9.30208 17.5625 9.28125C17.2083 9.26042 16.9167 9.25 16.6875 9.25C16.4792 9.25 16.1562 9.25 15.7188 9.25C15.3021 9.25 15.0729 9.25 15.0312 9.25C14.9896 9.25 14.7604 9.25 14.3438 9.25C13.9271 9.25 13.6042 9.25 13.375 9.25C13.1458 9.25 12.8438 9.26042 12.4688 9.28125C12.1146 9.30208 11.8021 9.33333 11.5312 9.375C11.2812 9.41667 11.0729 9.46875 10.9062 9.53125C10.2604 9.78125 9.8125 10.2292 9.5625 10.875C9.5 11.0417 9.44792 11.2604 9.40625 11.5312C9.36458 11.7812 9.33333 12.0938 9.3125 12.4688C9.29167 12.8229 9.28125 13.1146 9.28125 13.3438C9.28125 13.5521 9.28125 13.875 9.28125 14.3125C9.28125 14.7292 9.28125 14.9583 9.28125 15C9.28125 15.0833 9.28125 15.2812 9.28125 15.5938C9.28125 15.8854 9.28125 16.1354 9.28125 16.3438C9.28125 16.5312 9.28125 16.7812 9.28125 17.0938C9.30208 17.4062 9.32292 17.6771 9.34375 17.9062C9.36458 18.1146 9.39583 18.3333 9.4375 18.5625C9.47917 18.7917 9.52083 18.9792 9.5625 19.125C9.83333 19.7708 10.2812 20.2188 10.9062 20.4688C11.0729 20.5312 11.2812 20.5833 11.5312 20.625C11.8021 20.6667 12.1146 20.6979 12.4688 20.7188C12.8438 20.7396 13.1354 20.75 13.3438 20.75C13.5729 20.75 13.8958 20.75 14.3125 20.75C14.75 20.75 14.9896 20.75 15.0312 20.75C15.0938 20.75 15.3229 20.75 15.7188 20.75C16.1354 20.75 16.4583 20.75 16.6875 20.75C16.9167 20.75 17.2083 20.7396 17.5625 20.7188C17.9375 20.6979 18.25 20.6667 18.5 20.625C18.7708 20.5833 18.9896 20.5312 19.1562 20.4688C19.8021 20.1979 20.25 19.75 20.5 19.125Z" fill="white"/>
</svg>
