<svg width="1293" height="14" viewBox="0 0 1293 14" fill="none" xmlns="http://www.w3.org/2000/svg">
<path fill-rule="evenodd" clip-rule="evenodd" d="M0.994995 4.80581C1.18992 4.45567 3.07651 4.19221 5.20883 4.21737C27.2153 4.47697 50.2309 4.78311 73.9148 5.09815C171.509 6.3963 280.45 7.84539 376.882 6.81105C435.78 6.17929 513.21 6.09186 580.958 6.01536C611.441 5.98094 639.963 5.94873 663.956 5.87015C702.412 5.7442 760.691 6.33004 819.437 6.92056L821.778 6.94409C881.456 7.5439 941.366 8.13908 981.88 8.00638C1018.87 7.88524 1057.65 7.93397 1095.57 7.98161C1113.35 8.00394 1130.93 8.02604 1148.06 8.03027C1201.83 8.04358 1250.99 7.8807 1287.68 7.0097C1289.81 6.95926 1291.74 7.2 1292.01 7.5474C1292.28 7.8948 1290.77 8.21732 1288.65 8.26776C1251.32 9.15388 1201.62 9.31481 1147.9 9.30152C1130.67 9.29726 1113.02 9.27508 1095.22 9.25269C1057.36 9.2051 1018.76 9.15659 981.884 9.27738C940.98 9.41135 880.699 8.81143 821.154 8.21296L819.135 8.19267C760.14 7.59966 702.098 7.01623 663.96 7.14114C639.754 7.22042 611.09 7.25275 580.52 7.28722C512.88 7.36349 435.907 7.45028 377.238 8.07957C280.176 9.12068 170.484 7.66103 72.8605 6.36197C49.2524 6.04782 26.3501 5.74307 4.50296 5.48534C2.37064 5.46019 0.800074 5.15595 0.994995 4.80581Z" fill="#EF7A28"/>
</svg>
