<svg width="30" height="30" viewBox="0 0 30 30" fill="none" xmlns="http://www.w3.org/2000/svg">
<rect width="30" height="30" rx="10" fill="#EF7A28"/>
<path d="M11.125 21H8.21875V11.6562H11.125V21ZM9.6875 10.375C9.22917 10.375 8.83333 10.2083 8.5 9.875C8.16667 9.54167 8 9.14583 8 8.6875C8 8.22917 8.16667 7.83333 8.5 7.5C8.83333 7.16667 9.22917 7 9.6875 7C9.97917 7 10.25 7.07292 10.5 7.21875C10.7708 7.36458 10.9792 7.57292 11.125 7.84375C11.2917 8.09375 11.375 8.375 11.375 8.6875C11.375 8.97917 11.2917 9.26042 11.125 9.53125C10.9792 9.78125 10.7708 9.98958 10.5 10.1562C10.25 10.3021 9.97917 10.375 9.6875 10.375ZM22 21H19.0938V16.4375C19.0938 16.0833 19.0833 15.8021 19.0625 15.5938C19.0417 15.3646 18.9896 15.1146 18.9062 14.8438C18.8229 14.5521 18.6667 14.3333 18.4375 14.1875C18.2292 14.0417 17.9479 13.9688 17.5938 13.9688C16.9062 13.9688 16.4375 14.1875 16.1875 14.625C15.9583 15.0625 15.8438 15.6458 15.8438 16.375V21H12.9375V11.6562H15.75V12.9375H15.7812C15.9896 12.5208 16.3333 12.1667 16.8125 11.875C17.2917 11.5625 17.8646 11.4062 18.5312 11.4062C19.2396 11.4062 19.8229 11.5208 20.2812 11.75C20.7604 11.9583 21.1146 12.2812 21.3438 12.7188C21.5938 13.1354 21.7604 13.5938 21.8438 14.0938C21.9479 14.5938 22 15.1875 22 15.875V21Z" fill="white"/>
</svg>
