<svg width="47" height="50" viewBox="0 0 47 50" fill="none" xmlns="http://www.w3.org/2000/svg">
<mask id="path-1-inside-1" fill="white">
<path d="M7.9112 7.29405C9.99566 5.03636 12.5434 3.2516 15.3816 2.06086C18.3329 0.763114 21.5139 0.0630211 24.7395 0.00134781H25.0559C30.2494 -0.0569243 35.2854 1.7761 39.217 5.15576C40.9114 6.48194 42.3641 8.08844 43.5116 9.90501C44.073 10.7986 44.5281 11.7541 44.8678 12.7523C45.9193 16.1089 46.4155 19.6134 46.337 23.1287C46.4155 27.5388 45.7586 31.9313 44.3931 36.1272C44.1219 36.915 43.9411 37.4214 43.8394 37.6353C42.908 39.708 41.5215 41.5463 39.782 43.0148C37.2613 45.2886 34.3472 47.0884 31.1814 48.3267C27.6945 49.5097 24.0259 50.0735 20.3431 49.9923H20.264C17.4505 50.0186 14.6796 49.3084 12.2285 47.9328C9.91367 46.6632 7.86189 44.9675 6.18204 42.936C4.38169 40.5925 2.92081 38.0088 1.84218 35.2606C0.652298 32.3936 0.0268936 29.3256 0 26.2236L0 26.1448C0.024946 22.594 0.827168 19.0914 2.35076 15.881C3.74447 12.7481 5.62051 9.85095 7.9112 7.29405"/>
</mask>
<path d="M7.9112 7.29405C9.99566 5.03636 12.5434 3.2516 15.3816 2.06086C18.3329 0.763114 21.5139 0.0630211 24.7395 0.00134781H25.0559C30.2494 -0.0569243 35.2854 1.7761 39.217 5.15576C40.9114 6.48194 42.3641 8.08844 43.5116 9.90501C44.073 10.7986 44.5281 11.7541 44.8678 12.7523C45.9193 16.1089 46.4155 19.6134 46.337 23.1287C46.4155 27.5388 45.7586 31.9313 44.3931 36.1272C44.1219 36.915 43.9411 37.4214 43.8394 37.6353C42.908 39.708 41.5215 41.5463 39.782 43.0148C37.2613 45.2886 34.3472 47.0884 31.1814 48.3267C27.6945 49.5097 24.0259 50.0735 20.3431 49.9923H20.264C17.4505 50.0186 14.6796 49.3084 12.2285 47.9328C9.91367 46.6632 7.86189 44.9675 6.18204 42.936C4.38169 40.5925 2.92081 38.0088 1.84218 35.2606C0.652298 32.3936 0.0268936 29.3256 0 26.2236L0 26.1448C0.024946 22.594 0.827168 19.0914 2.35076 15.881C3.74447 12.7481 5.62051 9.85095 7.9112 7.29405" fill="#EF7A28"/>
<path d="M15.3816 2.06086L15.7685 2.98299L15.7764 2.9797L15.7842 2.97627L15.3816 2.06086ZM24.7395 0.00134781V-0.998652H24.7299L24.7203 -0.998469L24.7395 0.00134781ZM25.0559 0.00134781L25.0559 1.00141L25.0671 1.00128L25.0559 0.00134781ZM39.217 5.15576L38.5651 5.91408L38.5825 5.92907L38.6006 5.94323L39.217 5.15576ZM43.5116 9.90501L44.3584 9.37303L44.3571 9.37095L43.5116 9.90501ZM44.8678 12.7523L45.8221 12.4534L45.8184 12.4417L45.8145 12.4302L44.8678 12.7523ZM46.337 23.1287L45.3373 23.1063L45.3368 23.1264L45.3372 23.1464L46.337 23.1287ZM44.3931 36.1272L45.3387 36.4528L45.3414 36.4447L45.3441 36.4367L44.3931 36.1272ZM43.8394 37.6353L42.9363 37.2057L42.9317 37.2155L42.9272 37.2254L43.8394 37.6353ZM39.782 43.0148L39.137 42.2506L39.1244 42.2612L39.1122 42.2722L39.782 43.0148ZM31.1814 48.3267L31.5027 49.2737L31.5244 49.2664L31.5457 49.258L31.1814 48.3267ZM20.3431 49.9923L20.3651 48.9926L20.3541 48.9923H20.3431V49.9923ZM20.264 49.9923L20.264 48.9923L20.2546 48.9924L20.264 49.9923ZM12.2285 47.9328L12.7179 47.0607L12.7094 47.0561L12.2285 47.9328ZM6.18204 42.936L5.38903 43.5452L5.39995 43.5594L5.41138 43.5732L6.18204 42.936ZM1.84218 35.2606L2.77305 34.8953L2.76951 34.8863L2.76579 34.8773L1.84218 35.2606ZM0 26.2236L-1.00004 26.2236L-0.999962 26.2322L0 26.2236ZM0 26.1448L-1 26.1377L-1 26.1448L0 26.1448ZM2.35076 15.881L3.25418 16.3097L3.25944 16.2986L3.26443 16.2874L2.35076 15.881ZM8.64593 7.97241C10.6331 5.82013 13.0622 4.11842 15.7685 2.98299L14.9948 1.13873C12.0247 2.38478 9.35825 4.25259 7.17647 6.61569L8.64593 7.97241ZM15.7842 2.97627C18.6143 1.73175 21.665 1.06031 24.7586 1.00117L24.7203 -0.998469C21.3627 -0.934272 18.0514 -0.205524 14.9791 1.14545L15.7842 2.97627ZM24.7395 1.00135H25.0559V-0.998652H24.7395V1.00135ZM25.0671 1.00128C30.0181 0.945734 34.8182 2.69319 38.5651 5.91408L39.8688 4.39743C35.7526 0.859011 30.4808 -1.05958 25.0447 -0.998589L25.0671 1.00128ZM38.6006 5.94323C40.2048 7.19881 41.58 8.71963 42.6662 10.4391L44.3571 9.37095C43.1482 7.45725 41.6179 5.76507 39.8333 4.36828L38.6006 5.94323ZM42.6649 10.437C43.1849 11.2648 43.6065 12.1499 43.9211 13.0745L45.8145 12.4302C45.4497 11.3583 44.9611 10.3323 44.3584 9.37303L42.6649 10.437ZM43.9135 13.0513C44.9325 16.304 45.4134 19.7 45.3373 23.1063L47.3368 23.151C47.4177 19.5269 46.9061 15.9138 45.8221 12.4534L43.9135 13.0513ZM45.3372 23.1464C45.4137 27.4455 44.7734 31.7274 43.4422 35.8178L45.3441 36.4367C46.7439 32.1351 47.4173 27.632 47.3369 23.1109L45.3372 23.1464ZM43.4476 35.8017C43.1664 36.6185 43.0075 37.0561 42.9363 37.2057L44.7424 38.0648C44.8747 37.7868 45.0774 37.2116 45.3387 36.4528L43.4476 35.8017ZM42.9272 37.2254C42.0573 39.1613 40.7622 40.8786 39.137 42.2506L40.4271 43.7789C42.2808 42.214 43.7586 40.2547 44.7515 38.0452L42.9272 37.2254ZM39.1122 42.2722C36.6812 44.4651 33.8707 46.201 30.8172 47.3954L31.5457 49.258C34.8238 47.9758 37.8413 46.1121 40.4519 43.7573L39.1122 42.2722ZM30.8602 47.3797C27.4837 48.5252 23.9314 49.0711 20.3651 48.9926L20.3211 50.9921C24.1205 51.0758 27.9052 50.4942 31.5027 49.2737L30.8602 47.3797ZM20.3431 48.9923H20.264V50.9923H20.3431V48.9923ZM20.2546 48.9924C17.6156 49.017 15.0166 48.3508 12.7179 47.0608L11.7391 48.8049C14.3425 50.266 17.2855 51.0202 20.2733 50.9923L20.2546 48.9924ZM12.7094 47.0561C10.5053 45.8471 8.55185 44.2327 6.9527 42.2987L5.41138 43.5732C7.17193 45.7024 9.32207 47.4792 11.7475 48.8096L12.7094 47.0561ZM6.97505 42.3268C5.23181 40.0576 3.81736 37.556 2.77305 34.8953L0.911313 35.626C2.02426 38.4616 3.53158 41.1274 5.38903 43.5452L6.97505 42.3268ZM2.76579 34.8773C1.62519 32.1291 1.02574 29.1882 0.999962 26.2149L-0.999962 26.2322C-0.971953 29.463 -0.320594 32.6582 0.918566 35.644L2.76579 34.8773ZM1 26.2236L1 26.1448L-1 26.1448L-1 26.2236L1 26.2236ZM0.999975 26.1518C1.0239 22.7471 1.79311 19.3884 3.25418 16.3097L1.44733 15.4522C-0.138778 18.7944 -0.974003 22.4409 -0.999975 26.1377L0.999975 26.1518ZM3.26443 16.2874C4.61573 13.2499 6.43477 10.4407 8.65602 7.96132L7.16639 6.62678C4.80625 9.2612 2.8732 12.2463 1.43709 15.4745L3.26443 16.2874Z" fill="white" mask="url(#path-1-inside-1)"/>
<path d="M11.4262 16.0611H12.4885H13.5622C17.337 16.0611 19.213 17.4678 19.213 20.2814C19.2874 21.5147 19.0693 22.7481 18.5765 23.882C18.0838 25.0159 17.3301 26.0185 16.3763 26.8088C16.139 26.9664 16.026 27.0902 16.026 27.1802C16.0249 27.2115 16.0303 27.2426 16.042 27.2717C16.0537 27.3008 16.0713 27.3271 16.0938 27.349C16.1616 27.4165 16.5458 28.2043 17.2239 29.7011C17.902 31.1979 18.4558 32.3458 18.8062 33.1449C18.9345 33.3847 19.0368 33.6375 19.1113 33.8989C19.1113 34.0565 18.8966 34.1465 18.4784 34.1465H16.5571H16.2746C16.1902 34.174 16.0991 34.174 16.0147 34.1465C15.9283 34.0237 15.8563 33.8916 15.7999 33.7526C15.28 32.5709 14.7263 31.378 14.116 30.185C13.7738 29.4037 13.3374 28.6668 12.8163 27.9905C12.7259 27.9905 12.692 28.2381 12.692 28.7333V29.6786C12.692 29.8474 12.692 30.0838 12.692 30.3876C12.692 30.6915 12.692 30.8941 12.692 31.0291C12.692 31.1642 12.692 31.8507 12.7711 33.2799V33.7976C12.7711 34.034 12.6581 34.1465 12.4433 34.1465H12.2173C11.7878 34.1465 11.2679 34.1465 10.6689 34.079C10.4001 34.0414 10.1464 33.9326 9.93434 33.7639C9.811 33.5863 9.75493 33.371 9.77611 33.1561V30.5677C9.77611 29.2022 9.81002 27.1539 9.87783 24.4229C9.94564 21.6882 9.97954 19.6624 9.97954 18.3344C9.97954 18.0756 9.97954 17.6704 9.97954 17.1077C9.96702 16.7973 10.0414 16.4895 10.1943 16.2186C10.2866 16.1435 10.3934 16.0878 10.508 16.0549C10.6226 16.022 10.7427 16.0126 10.8611 16.0273H11.1097H11.381L11.4262 16.0611ZM14.0482 24.5355C14.3768 24.5254 14.6936 24.4107 14.9519 24.2081C15.2103 24.0056 15.3966 23.7258 15.4835 23.41C15.8114 22.5479 15.9688 21.6307 15.9469 20.709C15.9469 19.3023 15.3253 18.6045 14.0708 18.6045C13.404 18.6045 13.0649 18.7508 13.0649 19.0547C13.0649 19.3585 13.0649 20.3377 13.0649 21.5981C13.0649 22.8586 13.0649 23.7139 13.0649 24.1191C13.0649 24.3216 13.1214 24.4454 13.2231 24.5017C13.3906 24.5568 13.567 24.5798 13.743 24.5692L14.0482 24.5355Z" fill="white"/>
<path d="M30.6503 15.9935H31.7014C32.1308 15.9935 32.4925 15.9935 32.775 15.9935C36.5423 15.9935 38.4259 17.4002 38.4259 20.2138C38.4984 21.4452 38.2795 22.6764 37.7868 23.8082C37.294 24.94 36.5413 25.9408 35.5892 26.7299C35.3518 26.8988 35.2388 27.0226 35.2388 27.1013C35.2382 27.1352 35.245 27.1689 35.2587 27.1999C35.2723 27.231 35.2925 27.2588 35.3179 27.2814C35.3857 27.3489 35.77 28.1255 36.4481 29.6223C37.1262 31.1191 37.68 32.267 38.0303 33.066C38.184 33.2856 38.3165 33.5193 38.4259 33.7638C38.4259 33.9326 38.2225 34.0114 37.8043 34.0114C37.3861 34.0114 36.6741 34.0114 35.8717 34.0114H35.6005C35.4648 34.0114 35.3744 34.0114 35.3292 33.9551C35.2447 33.8313 35.1727 33.6993 35.1145 33.5612C34.5946 32.4358 34.0408 31.1978 33.4418 29.9936C33.0915 29.2141 32.6516 28.4777 32.1308 27.7991C32.0517 27.7991 32.0065 28.0467 32.0065 28.5419L32.063 29.4985C32.063 29.6673 32.063 29.8924 32.063 30.1962C32.063 30.5001 32.063 30.7139 32.063 30.849C32.063 30.984 32.063 31.6705 32.1421 33.0998V33.6287C32.1421 33.8538 32.0291 33.9776 31.8144 33.9776H31.5883C31.1476 33.9776 30.6277 33.9776 30.0287 33.8988C29.7345 33.9147 29.4425 33.8401 29.1924 33.685C29.058 33.5124 28.9972 33.2942 29.0229 33.0773V30.5001C29.0229 29.1346 29.0568 27.0863 29.1246 24.3553C29.1924 21.6318 29.2263 19.5948 29.2263 18.2668C29.2263 18.0192 29.2263 17.6141 29.2828 17.0401C29.2718 16.7312 29.342 16.4247 29.4862 16.151C29.6758 16.0055 29.9156 15.9407 30.153 15.971H30.6842L30.6503 15.9935ZM33.3401 24.4904C33.6698 24.4792 33.9874 24.3643 34.2473 24.162C34.5072 23.9598 34.6961 23.6808 34.7867 23.3649C35.1102 22.4977 35.2674 21.5777 35.2501 20.6527C35.2501 19.2459 34.6172 18.5482 33.3627 18.5482C32.6959 18.5482 32.3569 18.7057 32.3569 18.9983C32.3569 19.2909 32.3569 20.2813 32.3569 21.553C32.3569 22.8247 32.3569 23.6576 32.3569 24.074C32.3569 24.2765 32.3569 24.4003 32.5038 24.4453C32.6719 24.5137 32.8541 24.5407 33.035 24.5241L33.3401 24.4904Z" fill="white"/>
<path d="M27.8589 16.2299C27.8589 16.0836 27.6668 16.0048 27.3729 16.0048H26.8982C26.2653 16.0048 25.2934 15.9823 23.9824 15.9373C22.6601 15.9373 21.7221 15.881 21.0213 15.881C20.3206 15.881 20.2302 16.0836 20.2302 16.4775C20.2302 16.6012 20.2302 16.7926 20.2302 17.0514C20.2302 17.3103 20.2302 17.5241 20.2302 17.6929C20.2302 18.4807 20.2302 19.246 20.2302 19.9437C20.2302 20.6415 20.2302 21.4518 20.2302 22.2734V24.7943C20.2302 28.163 20.2641 31.1641 20.3319 33.7976C20.3319 33.9439 20.4337 34.0227 20.6371 34.0227C20.8405 34.0227 21.4395 34.0227 22.0385 34.0227H23.3156C24.0163 34.0227 24.3893 33.8651 24.4458 33.55C24.4594 33.4078 24.4594 33.2646 24.4458 33.1224C24.4458 31.0629 24.4458 29.5773 24.5249 28.6207C24.5249 28.6207 24.5249 28.5307 24.5249 28.4519C24.5291 28.3995 24.5291 28.3468 24.5249 28.2943C24.5205 28.2532 24.5205 28.2117 24.5249 28.1705C24.5119 28.1303 24.5119 28.087 24.5249 28.0467C24.5513 28.0248 24.5826 28.0095 24.6162 28.0021C24.6497 27.9947 24.6846 27.9954 24.7178 28.0043C24.7511 28.0131 24.7817 28.0297 24.8071 28.0528C24.8325 28.0758 24.852 28.1046 24.8639 28.1368C24.9086 28.1266 24.9549 28.1266 24.9996 28.1368C25.1917 28.1368 25.4742 28.1368 25.8585 28.1368H26.7513C27.0678 28.1368 27.2373 28.0017 27.2373 27.7316C27.2373 27.4615 27.2373 26.8988 27.2373 26.1785C27.2373 25.4583 27.2373 24.9518 27.2373 24.6592C27.2466 24.5985 27.235 24.5365 27.2041 24.4833C27.1733 24.4301 27.1252 24.3889 27.0678 24.3666C26.8315 24.3075 26.5876 24.2847 26.3445 24.2991H25.1465C25.0824 24.3076 25.0173 24.303 24.9552 24.2856C24.893 24.2682 24.835 24.2383 24.7848 24.1978C24.717 24.1303 24.6944 23.9727 24.6944 23.7251C24.6944 23.4775 24.6944 23.365 24.6944 23.0499C24.6944 22.7348 24.6944 22.4872 24.6944 22.2846V21.2492C24.6743 21.0208 24.6743 20.7911 24.6944 20.5627C24.6944 20.2701 24.9656 20.1125 25.3725 20.1125H26.1523H26.9208C27.4294 20.1125 27.7007 19.9325 27.7346 19.5836C27.8476 18.6045 27.9041 17.9517 27.9041 17.6141V17.1077C27.9181 16.8378 27.9181 16.5673 27.9041 16.2974L27.8589 16.2299ZM22.7957 32.6384C22.7467 32.7058 22.682 32.7605 22.6073 32.7977C22.5325 32.8349 22.4498 32.8536 22.3663 32.8523C22.2893 32.8577 22.2122 32.8428 22.1428 32.8092C22.0734 32.7757 22.014 32.7245 21.9707 32.6609C21.871 32.5454 21.8186 32.3968 21.8238 32.2445C21.8192 32.0958 21.8718 31.9509 21.9707 31.8394C22.0306 31.7821 22.1015 31.7376 22.1792 31.7086C22.257 31.6796 22.3398 31.6666 22.4228 31.6706C22.4955 31.6638 22.5688 31.6734 22.6373 31.6987C22.7058 31.7241 22.7677 31.7645 22.8183 31.8169C22.9093 31.9145 22.958 32.0439 22.9539 32.177C22.9531 32.3439 22.8976 32.5059 22.7957 32.6384V32.6384ZM22.7957 29.7799C22.7472 29.8487 22.683 29.905 22.6083 29.9441C22.5336 29.9833 22.4506 30.0041 22.3663 30.005C22.2896 30.0082 22.2133 29.9924 22.1442 29.959C22.0752 29.9256 22.0156 29.8757 21.9707 29.8136C21.8721 29.6931 21.82 29.5414 21.8238 29.386C21.8192 29.2372 21.8718 29.0924 21.9707 28.9808C22.0306 28.9236 22.1015 28.879 22.1792 28.85C22.257 28.821 22.3398 28.8081 22.4228 28.812C22.4955 28.8052 22.5688 28.8149 22.6373 28.8402C22.7058 28.8655 22.7677 28.9059 22.8183 28.9583C22.9073 29.0572 22.9557 29.1857 22.9539 29.3185C22.9531 29.4853 22.8976 29.6474 22.7957 29.7799ZM22.7957 26.9326C22.7448 26.998 22.6798 27.0512 22.6055 27.0882C22.5311 27.1253 22.4494 27.1451 22.3663 27.1464C22.2896 27.1496 22.2133 27.1338 22.1442 27.1004C22.0752 27.0671 22.0156 27.0171 21.9707 26.9551C21.8721 26.8345 21.82 26.6829 21.8238 26.5274C21.8192 26.3787 21.8718 26.2338 21.9707 26.1223C22.0306 26.065 22.1015 26.0205 22.1792 25.9915C22.257 25.9624 22.3398 25.9495 22.4228 25.9535C22.4955 25.9467 22.5688 25.9563 22.6373 25.9816C22.7058 26.007 22.7677 26.0473 22.8183 26.0998C22.909 26.2021 22.9575 26.3347 22.9539 26.4712C22.95 26.6375 22.8948 26.7986 22.7957 26.9326ZM22.7957 24.074C22.7467 24.1414 22.682 24.196 22.6073 24.2333C22.5325 24.2705 22.4498 24.2892 22.3663 24.2878C22.2896 24.2911 22.2133 24.2753 22.1442 24.2419C22.0752 24.2085 22.0156 24.1585 21.9707 24.0965C21.8721 23.9759 21.82 23.8243 21.8238 23.6689C21.8192 23.5201 21.8718 23.3753 21.9707 23.2637C22.0306 23.2064 22.1015 23.1619 22.1792 23.1329C22.257 23.1039 22.3398 23.0909 22.4228 23.0949C22.4955 23.0881 22.5688 23.0977 22.6373 23.1231C22.7058 23.1484 22.7677 23.1888 22.8183 23.2412C22.909 23.3435 22.9575 23.4762 22.9539 23.6126C22.9515 23.7792 22.8961 23.9407 22.7957 24.074V24.074ZM22.7957 21.2155C22.7448 21.2809 22.6798 21.3341 22.6055 21.3711C22.5311 21.4081 22.4494 21.428 22.3663 21.4293C22.2896 21.4325 22.2133 21.4167 22.1442 21.3833C22.0752 21.3499 22.0156 21.3 21.9707 21.238C21.8729 21.1213 21.8207 20.9735 21.8238 20.8216C21.8166 20.7419 21.8273 20.6617 21.855 20.5867C21.8828 20.5117 21.9269 20.4438 21.9842 20.3878C22.0415 20.3318 22.1105 20.2892 22.1864 20.263C22.2622 20.2368 22.343 20.2277 22.4228 20.2363C22.4928 20.2315 22.5631 20.2415 22.629 20.2656C22.6949 20.2898 22.7549 20.3275 22.8051 20.3764C22.8552 20.4253 22.8944 20.4843 22.9201 20.5494C22.9458 20.6144 22.9573 20.6842 22.9539 20.754C22.9531 20.9209 22.8976 21.0829 22.7957 21.2155V21.2155ZM22.7957 18.3569C22.7467 18.4243 22.682 18.4789 22.6073 18.5161C22.5325 18.5534 22.4498 18.5721 22.3663 18.5707C22.2896 18.574 22.2133 18.5582 22.1442 18.5248C22.0752 18.4914 22.0156 18.4414 21.9707 18.3794C21.8729 18.2628 21.8207 18.1149 21.8238 17.963C21.8166 17.8834 21.8273 17.8032 21.855 17.7282C21.8828 17.6531 21.9269 17.5852 21.9842 17.5292C22.0415 17.4732 22.1105 17.4306 22.1864 17.4044C22.2622 17.3782 22.343 17.3691 22.4228 17.3778C22.4928 17.3729 22.5631 17.3829 22.629 17.4071C22.6949 17.4312 22.7549 17.469 22.8051 17.5179C22.8552 17.5668 22.8944 17.6257 22.9201 17.6908C22.9458 17.7559 22.9573 17.8256 22.9539 17.8955C22.9531 18.0623 22.8976 18.2244 22.7957 18.3569ZM24.7396 25.7959C24.7982 25.7369 24.869 25.6912 24.947 25.6621C25.0251 25.6329 25.1086 25.621 25.1917 25.6271C25.2643 25.6219 25.3372 25.6322 25.4054 25.6575C25.4737 25.6827 25.5357 25.7222 25.5872 25.7734C25.6678 25.8763 25.7116 26.003 25.7116 26.1335C25.7092 26.3036 25.6539 26.4688 25.5533 26.6062C25.5025 26.6717 25.4374 26.7249 25.3631 26.7619C25.2887 26.7989 25.207 26.8188 25.1239 26.82C25.0476 26.8205 24.9723 26.8035 24.9037 26.7703C24.8351 26.7371 24.7751 26.6887 24.7283 26.6287C24.6289 26.5086 24.5766 26.3566 24.5814 26.2011C24.5799 26.0508 24.6366 25.9057 24.7396 25.7959V25.7959ZM25.5533 18.3569C25.5043 18.4243 25.4396 18.4789 25.3649 18.5161C25.2901 18.5534 25.2074 18.5721 25.1239 18.5707C25.0476 18.5712 24.9723 18.5541 24.9037 18.521C24.8351 18.4878 24.7751 18.4394 24.7283 18.3794C24.6305 18.2628 24.5784 18.1149 24.5814 17.963C24.5804 17.8095 24.6368 17.6611 24.7396 17.5466C24.7982 17.4876 24.869 17.4419 24.947 17.4128C25.0251 17.3836 25.1086 17.3717 25.1917 17.3778C25.2651 17.374 25.3385 17.3861 25.4068 17.4133C25.4751 17.4405 25.5367 17.4822 25.5872 17.5353C25.6712 17.6364 25.7154 17.7644 25.7116 17.8955C25.7107 18.0623 25.6552 18.2244 25.5533 18.3569Z" fill="white"/>
</svg>
