<svg width="100" height="93" viewBox="0 0 100 93" fill="none" xmlns="http://www.w3.org/2000/svg">
<path d="M85.4269 15.718C89.9286 19.9055 93.4918 25.005 95.8806 30.6787C98.4858 36.5946 99.8852 42.9736 99.9966 49.4402L99.9966 50.0118C100.128 60.4101 96.4656 70.4978 89.6995 78.3756C87.031 81.7495 83.8147 84.6479 80.1858 86.9491C78.3981 88.0688 76.4862 88.9751 74.4889 89.6497C67.7716 91.7223 60.7636 92.6874 53.7382 92.5075C44.9231 92.6938 36.1387 91.4044 27.7463 88.6923C26.1654 88.1494 25.1542 87.7778 24.7412 87.5778C20.5853 85.7195 16.9002 82.9454 13.9599 79.4616C9.42175 74.4344 5.82712 68.6253 3.34952 62.3147C0.974096 55.3082 -0.153979 47.9369 0.0168592 40.5381L0.0168592 40.381C-0.0392776 34.7469 1.38527 29.1974 4.14706 24.2914C6.677 19.6688 10.0603 15.5712 14.1166 12.2172C18.8085 8.62514 23.9818 5.71485 29.4838 3.57227C35.2228 1.22503 41.3596 0.0120592 47.5571 -2.29235e-06L47.7137 -2.2855e-06C54.8125 0.0507258 61.8153 1.64996 68.2366 4.68682C74.495 7.46085 80.2924 11.1811 85.4269 15.718Z" fill="#281840"/>
</svg>
