<svg width="80" height="74" viewBox="0 0 80 74" fill="none" xmlns="http://www.w3.org/2000/svg">
<path d="M68.3415 12.4296C71.9428 15.7411 74.7935 19.7737 76.7045 24.2604C78.7886 28.9386 79.9082 33.983 79.9973 39.0968L79.9973 39.5488C80.1022 47.7716 77.1725 55.7489 71.7596 61.9786C69.6248 64.6466 67.0518 66.9387 64.1486 68.7584C62.7185 69.6438 61.189 70.3606 59.5912 70.894C54.2173 72.533 48.6109 73.2962 42.9905 73.154C35.9385 73.3013 28.911 72.2816 22.197 70.1369C20.9323 69.7076 20.1234 69.4138 19.793 69.2556C16.4682 67.786 13.5202 65.5923 11.1679 62.8374C7.53741 58.8619 4.66171 54.2682 2.67962 49.2778C0.779295 43.7371 -0.123171 37.908 0.0135026 32.0571L0.0135026 31.9328C-0.0314114 27.4774 1.10823 23.089 3.31767 19.2094C5.34161 15.5539 8.04826 12.3135 11.2933 9.6612C15.0468 6.82067 19.1855 4.51924 23.5871 2.82491C28.1782 0.968743 33.0877 0.00953625 38.0457 -1.83388e-06L38.171 -1.8284e-06C43.85 0.0401134 49.4523 1.30477 54.5893 3.70629C59.596 5.89996 64.2339 8.84191 68.3415 12.4296Z" fill="white"/>
</svg>
