<svg width="138" height="125" viewBox="0 0 138 125" fill="none" xmlns="http://www.w3.org/2000/svg">
<path opacity="0.2" d="M117.889 21.2339C124.101 26.891 129.019 33.7801 132.315 41.4448C135.91 49.4368 137.842 58.0544 137.995 66.7904L137.995 67.5625C138.176 81.6099 133.123 95.2377 123.785 105.88C120.103 110.438 115.664 114.354 110.656 117.462C108.189 118.975 105.551 120.199 102.795 121.111C93.5249 123.91 83.8538 125.214 74.1587 124.971C61.9939 125.223 49.8714 123.481 38.2899 119.817C36.1083 119.084 34.7128 118.582 34.1428 118.312C28.4077 115.801 23.3223 112.053 19.2647 107.347C13.002 100.556 8.04144 92.7081 4.62234 84.1829C1.34428 74.7175 -0.212481 64.7595 0.0232825 54.7642L0.0232825 54.5519C-0.054186 46.9406 1.9117 39.4437 5.72298 32.8161C9.21428 26.5712 13.8832 21.0356 19.4809 16.5046C25.9557 11.652 33.095 7.72038 40.6877 4.82589C48.6074 1.65494 57.0762 0.0162911 65.6288 -3.16345e-06L65.845 -3.154e-06C75.6413 0.0685271 85.3052 2.22899 94.1666 6.33157C102.803 10.0791 110.804 15.1049 117.889 21.2339Z" fill="white"/>
</svg>
