<svg width="290" height="268" viewBox="0 0 290 268" fill="none" xmlns="http://www.w3.org/2000/svg">
<path d="M247.738 45.3899C260.793 57.4824 271.126 72.2087 278.054 88.5928C285.609 105.677 289.667 124.098 289.99 142.772L289.99 144.422C290.371 174.45 279.75 203.581 260.129 226.33C252.39 236.073 243.063 244.443 232.539 251.088C227.355 254.322 221.81 256.939 216.018 258.887C196.538 264.872 176.215 267.659 155.841 267.14C130.277 267.678 104.802 263.955 80.4642 256.123C75.8797 254.555 72.9472 253.482 71.7495 252.904C59.6973 247.538 49.0106 239.527 40.4837 229.466C27.3231 214.949 16.8987 198.174 9.71362 179.95C2.82494 159.717 -0.446509 138.431 0.0489451 117.065L0.0489451 116.611C-0.113865 100.341 4.01733 84.3152 12.0265 70.148C19.3633 56.7989 29.1749 44.966 40.9381 35.2803C54.5447 24.9074 69.5474 16.5032 85.5031 10.3159C102.146 3.53761 119.943 0.0348241 137.916 -6.64782e-06L138.37 -6.62796e-06C158.956 0.146484 179.265 4.76471 197.886 13.5344C216.035 21.5452 232.848 32.2884 247.738 45.3899Z" fill="#281840"/>
</svg>
