<svg width="1439" height="97" viewBox="0 0 1439 97" fill="none" xmlns="http://www.w3.org/2000/svg">
<mask id="mask0" mask-type="alpha" maskUnits="userSpaceOnUse" x="-1" y="0" width="1440" height="97">
<rect x="-1" width="1440" height="97" fill="#C4C4C4"/>
</mask>
<g mask="url(#mask0)">
<path d="M2162.71 197.221C2337.33 249.763 2475.55 313.75 2568.21 384.939C2669.26 459.169 2723.55 539.209 2727.87 620.349L2727.87 627.521C2732.96 757.993 2590.9 884.568 2328.44 983.415C2224.93 1025.75 2100.17 1062.12 1959.41 1090.99C1890.06 1105.04 1815.9 1116.41 1738.43 1124.88C1477.86 1150.88 1206.02 1162.99 933.503 1160.73C591.567 1163.07 250.821 1146.89 -74.7215 1112.86C-136.044 1106.05 -175.268 1101.39 -191.289 1098.88C-352.497 1075.56 -495.441 1040.75 -609.495 997.041C-785.53 933.962 -924.965 861.073 -1021.07 781.891C-1113.21 693.976 -1156.97 601.486 -1150.35 508.65L-1150.35 506.678C-1152.52 435.984 -1097.26 366.353 -990.135 304.796C-891.999 246.793 -760.761 195.379 -603.418 153.294C-421.418 108.223 -220.744 71.7068 -7.32227 44.8228C215.292 15.371 453.339 0.151245 693.739 -8.89204e-05L699.816 -8.86547e-05C975.178 0.636428 1246.82 20.7028 1495.9 58.8076C1738.66 93.6146 1963.54 140.295 2162.71 197.221Z" fill="#FFF4F1"/>
</g>
</svg>
