<svg width="1439" height="97" viewBox="0 0 1439 97" fill="none" xmlns="http://www.w3.org/2000/svg">
<mask id="mask0" mask-type="alpha" maskUnits="userSpaceOnUse" x="-1" y="-1" width="1440" height="98">
<rect x="1439" y="97" width="1440" height="97" transform="rotate(-180 1439 97)" fill="#C4C4C4"/>
</mask>
<g mask="url(#mask0)">
<path d="M-724.709 -100.221C-899.329 -152.764 -1037.55 -216.75 -1130.21 -287.939C-1231.26 -362.169 -1285.55 -442.209 -1289.87 -523.349L-1289.87 -530.521C-1294.96 -660.993 -1152.9 -787.568 -890.445 -886.415C-786.933 -928.748 -662.172 -965.116 -521.407 -993.99C-452.064 -1008.04 -377.901 -1019.41 -300.426 -1027.88C-39.8619 -1053.88 231.979 -1065.99 504.497 -1063.73C846.434 -1066.07 1187.18 -1049.89 1512.72 -1015.86C1574.04 -1009.05 1613.27 -1004.39 1629.29 -1001.88C1790.5 -978.561 1933.44 -943.753 2047.5 -900.041C2223.53 -836.962 2362.97 -764.073 2459.07 -684.891C2551.21 -596.976 2594.97 -504.486 2588.35 -411.65L2588.35 -409.678C2590.52 -338.984 2535.26 -269.353 2428.13 -207.796C2330 -149.793 2198.76 -98.379 2041.42 -56.2941C1859.42 -11.2234 1658.74 25.2932 1445.32 52.1772C1222.71 81.629 984.661 96.8487 744.261 97L738.184 97C462.822 96.3635 191.183 76.2971 -57.8998 38.1923C-300.66 3.38526 -525.542 -43.2947 -724.709 -100.221Z" fill="#FFF4F1"/>
</g>
</svg>
