<?xml version="1.0" encoding="utf-8"?>
<!-- Generator: Adobe Illustrator 23.1.1, SVG Export Plug-In . SVG Version: 6.00 Build 0)  -->
<svg version="1.1" id="Layer_1" xmlns="http://www.w3.org/2000/svg" xmlns:xlink="http://www.w3.org/1999/xlink" x="0px" y="0px"
	 viewBox="0 0 1440 87" style="enable-background:new 0 0 1440 87;" xml:space="preserve">
<style type="text/css">
	.st0{fill:#C4C4C4;filter:url(#Adobe_OpacityMaskFilter);}
	.st1{mask:url(#mask0_1_);}
	.st2{fill:#281840;}
</style>
<defs>
	<filter id="Adobe_OpacityMaskFilter" filterUnits="userSpaceOnUse" x="-1150" y="0" width="3879" height="1038.2">
		<feColorMatrix  type="matrix" values="1 0 0 0 0  0 1 0 0 0  0 0 1 0 0  0 0 0 1 0"/>
	</filter>
</defs>
<mask maskUnits="userSpaceOnUse" x="-1150" y="0" width="3879" height="1038.2" id="mask0_1_">
	<rect class="st0" width="1440" height="86.7"/>
</mask>
<g class="st1">
	<path class="st2" d="M2163.7,176.4c174.6,47,312.8,104.2,405.5,167.9c101.1,66.4,155.3,137.9,159.7,210.5v6.4
		c5.1,116.7-137,229.9-399.4,318.2c-103.5,37.9-228.3,70.4-369,96.2c-69.3,12.6-143.5,22.7-221,30.3
		c-260.6,23.3-532.4,34.1-804.9,32.1c-341.9,2.1-682.7-12.4-1008.2-42.8c-61.3-6.1-100.5-10.3-116.6-12.5
		c-161.2-20.8-304.2-52-418.2-91.1c-176-56.4-315.5-121.6-411.6-192.4c-92.1-78.6-135.9-161.3-129.3-244.3v-1.8
		c-2.2-63.2,53.1-125.5,160.2-180.5c98.1-51.9,229.4-97.8,386.7-135.5c182-40.3,382.7-73,596.1-97C216.3,13.7,454.3,0.1,694.7,0
		l6.1,0c275.4,0.6,547,18.5,796.1,52.6C1739.7,83.7,1964.5,125.5,2163.7,176.4z"/>
</g>
</svg>
