<svg width="1440" height="87" viewBox="0 0 1440 87" fill="none" xmlns="http://www.w3.org/2000/svg">
<mask id="mask0" mask-type="alpha" maskUnits="userSpaceOnUse" x="0" y="-1" width="1440" height="88">
<rect x="1440" y="86.7378" width="1440" height="86.7382" transform="rotate(-180 1440 86.7378)" fill="#C4C4C4"/>
</mask>
<g mask="url(#mask0)">
<path d="M-723.709 -89.6186C-898.329 -136.603 -1036.55 -193.82 -1129.21 -257.478C-1230.26 -323.855 -1284.55 -395.427 -1288.87 -467.984L-1288.87 -474.397C-1293.96 -591.066 -1151.9 -704.25 -889.445 -792.64C-785.933 -830.495 -661.172 -863.015 -520.407 -888.834C-451.064 -901.397 -376.901 -911.567 -299.426 -919.135C-38.8619 -942.389 232.979 -953.218 505.497 -951.2C847.433 -953.29 1188.18 -938.823 1513.72 -908.393C1575.04 -902.301 1614.27 -898.133 1630.29 -895.888C1791.5 -875.038 1934.44 -843.912 2048.5 -804.824C2224.53 -748.419 2363.97 -683.241 2460.07 -612.435C2552.21 -533.821 2595.97 -451.116 2589.35 -368.101L2589.35 -366.338C2591.52 -303.123 2536.26 -240.858 2429.13 -185.813C2331 -133.947 2199.76 -87.9715 2042.42 -50.3389C1860.42 -10.0362 1659.74 22.6172 1446.32 46.6571C1223.71 72.9932 985.661 86.6028 745.261 86.7381L739.184 86.7381C463.822 86.1689 192.183 68.2253 -56.8998 34.1517C-299.66 3.02693 -524.542 -38.7147 -723.709 -89.6186Z" fill="#153863"/>
</g>
</svg>
