<?xml version="1.0" encoding="utf-8"?>
<!-- Generator: Adobe Illustrator 23.1.1, SVG Export Plug-In . SVG Version: 6.00 Build 0)  -->
<svg version="1.1" id="Layer_1" xmlns="http://www.w3.org/2000/svg" xmlns:xlink="http://www.w3.org/1999/xlink" x="0px" y="0px"
	 viewBox="0 0 1440 87" style="enable-background:new 0 0 1440 87;" xml:space="preserve">
<style type="text/css">
	.st0{fill:#281840;}
</style>
<g>
	<path class="st0" d="M-723.7-89.6c-174.6-47-312.8-104.2-405.5-167.9c-101.1-66.4-155.3-137.9-159.7-210.5v-6.4
		c-5.1-116.7,137-229.9,399.4-318.2c103.5-37.9,228.3-70.4,369-96.2c69.3-12.6,143.5-22.7,221-30.3
		c260.6-23.3,532.4-34.1,804.9-32.1c341.9-2.1,682.7,12.4,1008.2,42.8c61.3,6.1,100.6,10.3,116.6,12.5
		c161.2,20.8,304.1,52,418.2,91.1c176,56.4,315.5,121.6,411.6,192.4c92.1,78.6,135.9,161.3,129.3,244.3v1.8
		c2.2,63.2-53.1,125.5-160.2,180.5C2331-133.9,2199.8-88,2042.4-50.3c-182,40.3-382.7,73-596.1,97c-222.6,26.3-460.6,39.9-701,40
		h-6.1c-275.4-0.6-547-18.5-796.1-52.6C-299.7,3-524.5-38.7-723.7-89.6z"/>
</g>
</svg>
