<svg width="440" height="406" viewBox="0 0 440 406" fill="none" xmlns="http://www.w3.org/2000/svg">
<mask id="path-1-inside-1" fill="white">
<path d="M68.6375 336.865C48.8778 319.08 33.1245 297.299 22.4215 272.967C10.766 247.603 4.30313 220.165 3.41318 192.266L3.37714 189.8C2.15342 144.937 17.3775 101.174 46.1831 66.7505C57.5272 52.0224 71.2736 39.3113 86.8445 29.1517C94.5159 24.2067 102.739 20.1746 111.346 17.1372C140.307 7.7686 170.596 3.16029 201.033 3.4919C239.197 2.13013 277.322 7.13842 313.839 18.3108C320.719 20.5539 325.122 22.0931 326.923 22.9302C345.039 30.6864 361.173 42.4244 374.127 57.2717C394.097 78.6782 410.031 103.519 421.159 130.594C431.888 160.679 437.238 192.416 436.965 224.355L436.975 225.033C437.573 249.342 431.754 273.38 420.102 294.725C409.437 314.833 395.043 332.73 377.688 347.46C357.595 363.257 335.373 376.143 311.681 385.737C286.974 396.23 260.474 401.852 233.634 402.296L232.956 402.306C202.21 402.537 171.781 396.079 143.78 383.38C116.502 371.805 91.16 356.118 68.6375 336.865Z"/>
</mask>
<path d="M68.6375 336.865C48.8778 319.08 33.1245 297.299 22.4215 272.967C10.766 247.603 4.30313 220.165 3.41318 192.266L3.37714 189.8C2.15342 144.937 17.3775 101.174 46.1831 66.7505C57.5272 52.0224 71.2736 39.3113 86.8445 29.1517C94.5159 24.2067 102.739 20.1746 111.346 17.1372C140.307 7.7686 170.596 3.16029 201.033 3.4919C239.197 2.13013 277.322 7.13842 313.839 18.3108C320.719 20.5539 325.122 22.0931 326.923 22.9302C345.039 30.6864 361.173 42.4244 374.127 57.2717C394.097 78.6782 410.031 103.519 421.159 130.594C431.888 160.679 437.238 192.416 436.965 224.355L436.975 225.033C437.573 249.342 431.754 273.38 420.102 294.725C409.437 314.833 395.043 332.73 377.688 347.46C357.595 363.257 335.373 376.143 311.681 385.737C286.974 396.23 260.474 401.852 233.634 402.296L232.956 402.306C202.21 402.537 171.781 396.079 143.78 383.38C116.502 371.805 91.16 356.118 68.6375 336.865Z" fill="white"/>
<path d="M22.4215 272.967L23.3368 272.565L23.3335 272.557L23.3301 272.55L22.4215 272.967ZM3.41318 192.266L2.41329 192.281L2.41341 192.29L2.41369 192.298L3.41318 192.266ZM3.37714 189.8L4.37712 189.785L4.37677 189.773L3.37714 189.8ZM46.1831 66.7505L46.95 67.3923L46.963 67.3767L46.9754 67.3607L46.1831 66.7505ZM86.8445 29.1517L86.3027 28.3112L86.2981 28.3142L86.8445 29.1517ZM111.346 17.1372L111.038 16.1858L111.026 16.1898L111.013 16.1942L111.346 17.1372ZM201.033 3.4919L201.022 4.49187L201.045 4.4921L201.069 4.49128L201.033 3.4919ZM313.839 18.3108L314.149 17.3601L314.14 17.3572L314.131 17.3546L313.839 18.3108ZM326.923 22.9302L326.502 23.8371L326.516 23.8435L326.53 23.8495L326.923 22.9302ZM374.127 57.2717L373.373 57.9291L373.384 57.9417L373.395 57.9538L374.127 57.2717ZM421.159 130.594L422.101 130.258L422.093 130.236L422.084 130.214L421.159 130.594ZM436.965 224.355L435.965 224.346L435.965 224.358L435.965 224.37L436.965 224.355ZM436.975 225.033L435.975 225.048L435.975 225.058L436.975 225.033ZM420.102 294.725L419.224 294.246L419.219 294.257L420.102 294.725ZM377.688 347.46L378.306 348.246L378.321 348.234L378.335 348.222L377.688 347.46ZM311.681 385.737L311.305 384.811L311.297 384.814L311.29 384.817L311.681 385.737ZM233.634 402.296L233.649 403.296L233.651 403.296L233.634 402.296ZM232.956 402.306L232.964 403.306L232.971 403.306L232.956 402.306ZM143.78 383.38L144.193 382.469L144.182 382.464L144.171 382.459L143.78 383.38ZM69.3065 336.122C49.6521 318.431 33.9828 296.767 23.3368 272.565L21.5061 273.37C32.2662 297.832 48.1035 319.728 67.9685 337.608L69.3065 336.122ZM23.3301 272.55C11.7304 247.307 5.29837 219.999 4.41267 192.234L2.41369 192.298C3.30789 220.33 9.80165 247.899 21.5128 273.385L23.3301 272.55ZM4.41307 192.252L4.37704 189.785L2.37725 189.814L2.41329 192.281L4.41307 192.252ZM4.37677 189.773C3.1597 145.153 18.301 101.628 46.95 67.3923L45.4162 66.1087C16.454 100.719 1.14713 144.72 2.37752 189.827L4.37677 189.773ZM46.9754 67.3607C58.2508 52.7216 71.9141 40.0874 87.391 29.9892L86.2981 28.3142C70.633 38.5352 56.8035 51.3231 45.3909 66.1403L46.9754 67.3607ZM87.3863 29.9922C94.9922 25.0894 103.145 21.0917 111.679 18.0802L111.013 16.1942C102.333 19.2575 94.0395 23.3241 86.3027 28.3112L87.3863 29.9922ZM111.654 18.0887C140.511 8.75335 170.693 4.16142 201.022 4.49187L201.044 2.49197C170.499 2.15916 140.102 6.78385 111.038 16.1858L111.654 18.0887ZM201.069 4.49128C239.122 3.13347 277.136 8.12718 313.546 19.2671L314.131 17.3546C277.508 6.14966 239.273 1.12681 200.997 2.49256L201.069 4.49128ZM313.529 19.2616C320.432 21.512 324.768 23.0311 326.502 23.8371L327.345 22.0234C325.476 21.1551 321.007 19.5959 314.149 17.3601L313.529 19.2616ZM326.53 23.8495C344.507 31.5466 360.518 43.195 373.373 57.9291L374.88 56.6143C361.828 41.6537 345.571 29.8263 327.317 22.011L326.53 23.8495ZM373.395 57.9538C393.284 79.2721 409.152 104.01 420.234 130.974L422.084 130.214C410.91 103.027 394.911 78.0841 374.858 56.5895L373.395 57.9538ZM420.217 130.93C430.907 160.904 436.237 192.525 435.965 224.346L437.965 224.363C438.239 192.308 432.869 160.453 422.101 130.258L420.217 130.93ZM435.965 224.37L435.975 225.048L437.975 225.019L437.965 224.34L435.965 224.37ZM435.975 225.058C436.569 249.191 430.792 273.055 419.224 294.246L420.98 295.204C432.716 273.705 438.577 249.493 437.974 225.009L435.975 225.058ZM419.219 294.257C408.613 314.253 394.299 332.049 377.041 346.697L378.335 348.222C395.787 333.41 410.261 315.414 420.986 295.194L419.219 294.257ZM377.07 346.674C357.05 362.413 334.911 375.252 311.305 384.811L312.056 386.664C335.836 377.035 358.139 364.102 378.306 348.246L377.07 346.674ZM311.29 384.817C286.702 395.259 260.328 400.854 233.618 401.296L233.651 403.296C260.619 402.85 287.247 397.2 312.071 386.658L311.29 384.817ZM233.62 401.296L232.941 401.306L232.971 403.306L233.649 403.296L233.62 401.296ZM232.949 401.306C202.347 401.535 172.062 395.108 144.193 382.469L143.367 384.291C171.5 397.049 202.072 403.538 232.964 403.306L232.949 401.306ZM144.171 382.459C116.987 370.925 91.7321 355.292 69.2873 336.105L67.9878 337.625C90.5879 356.945 116.017 372.686 143.39 384.301L144.171 382.459Z" fill="#281840" mask="url(#path-1-inside-1)"/>
</svg>
