<svg width="851" height="597" viewBox="0 0 851 597" fill="none" xmlns="http://www.w3.org/2000/svg">
<mask id="path-1-inside-1" fill="white">
<path d="M124.017 495.489C85.708 468.476 55.3845 435.58 35.0559 398.981C12.8858 360.819 0.976567 319.669 0.0289882 277.954L0.0289883 274.267C-1.08736 207.19 30.0779 142.117 87.657 91.2986C110.366 69.5344 137.737 50.8373 168.619 35.9932C183.832 28.7703 200.102 22.9235 217.099 18.572C274.263 5.20252 333.901 -1.02337 393.688 0.136907C468.705 -1.065 543.46 7.25263 614.879 24.7477C628.332 28.2504 636.938 30.647 640.452 31.9374C675.819 43.925 707.179 61.8203 732.201 84.2932C770.821 116.722 801.411 154.196 822.496 194.904C842.71 240.102 852.31 287.652 850.856 335.38L850.856 336.394C851.334 372.738 839.211 408.536 815.708 440.183C794.179 470.003 765.387 496.436 730.868 518.072C690.94 541.243 646.914 560.017 600.093 573.838C551.254 588.98 499.03 596.804 446.289 596.882L444.956 596.882C384.546 596.555 324.951 586.239 270.306 566.648C217.048 548.754 167.712 524.755 124.017 495.489Z"/>
</mask>
<path d="M35.0559 398.981L35.9301 398.495L35.9255 398.487L35.9206 398.479L35.0559 398.981ZM0.0289882 277.954L-0.971012 277.954L-0.971012 277.966L-0.970754 277.977L0.0289882 277.954ZM0.0289883 274.267L1.02899 274.267L1.02899 274.259L1.02885 274.251L0.0289883 274.267ZM87.657 91.2986L88.3187 92.0484L88.3341 92.0348L88.3489 92.0206L87.657 91.2986ZM168.619 35.9932L168.19 35.0898L168.186 35.0919L168.619 35.9932ZM217.099 18.572L216.871 17.5983L216.861 17.6006L216.851 17.6032L217.099 18.572ZM393.688 0.136907L393.669 1.13666L393.687 1.13703L393.704 1.13672L393.688 0.136907ZM614.879 24.7477L615.131 23.78L615.124 23.7782L615.117 23.7765L614.879 24.7477ZM640.452 31.9374L640.108 32.8762L640.12 32.8805L640.131 32.8845L640.452 31.9374ZM732.201 84.2932L731.533 85.0372L731.545 85.0483L731.558 85.0591L732.201 84.2932ZM822.496 194.904L823.408 194.496L823.397 194.47L823.383 194.444L822.496 194.904ZM850.856 335.38L849.857 335.349L849.856 335.365L849.856 335.38L850.856 335.38ZM850.856 336.394L849.856 336.394L849.857 336.407L850.856 336.394ZM815.708 440.183L814.905 439.587L814.898 439.598L815.708 440.183ZM730.868 518.072L731.37 518.937L731.385 518.928L731.399 518.919L730.868 518.072ZM600.093 573.838L599.81 572.879L599.797 572.883L600.093 573.838ZM446.289 596.882L446.289 597.882L446.291 597.882L446.289 596.882ZM444.956 596.882L444.951 597.882L444.956 597.882L444.956 596.882ZM270.306 566.648L270.644 565.707L270.634 565.704L270.625 565.701L270.306 566.648ZM124.593 494.672C86.3924 467.735 56.1773 434.948 35.9301 398.495L34.1817 399.467C54.5917 436.212 85.0236 469.217 123.441 496.306L124.593 494.672ZM35.9206 398.479C13.8302 360.453 1.97225 319.468 1.02873 277.932L-0.970754 277.977C-0.0191204 319.87 11.9414 361.184 34.1913 399.483L35.9206 398.479ZM1.02899 277.954L1.02899 274.267L-0.971012 274.267L-0.971012 277.954L1.02899 277.954ZM1.02885 274.251C-0.0818965 207.51 30.9236 142.704 88.3187 92.0484L86.9952 90.5489C29.2321 141.529 -2.09283 206.87 -0.970873 274.284L1.02885 274.251ZM88.3489 92.0206C110.975 70.3356 138.257 51.6969 169.052 36.8945L168.186 35.0919C137.217 49.9777 109.757 68.7332 86.965 90.5766L88.3489 92.0206ZM169.048 36.8966C184.2 29.7023 200.41 23.877 217.347 19.5408L216.851 17.6032C199.794 21.97 183.463 27.8382 168.19 35.0899L169.048 36.8966ZM217.327 19.5457C274.409 6.19556 333.964 -0.0220297 393.669 1.13666L393.708 -0.86291C333.839 -2.02478 274.118 4.20954 216.871 17.5983L217.327 19.5457ZM393.704 1.13672C468.637 -0.0637761 543.306 8.2447 614.641 25.7191L615.117 23.7765C543.613 6.26063 468.772 -2.06622 393.672 -0.862971L393.704 1.13672ZM614.627 25.7155C628.099 29.2232 636.649 31.6064 640.108 32.8762L640.797 30.9987C637.226 29.6876 628.565 27.2778 615.131 23.78L614.627 25.7155ZM640.131 32.8845C675.384 44.8334 706.622 62.6643 731.533 85.0372L732.869 83.5493C707.736 60.9763 676.254 43.0166 640.773 30.9904L640.131 32.8845ZM731.558 85.0591C770.087 117.412 800.59 154.784 821.608 195.364L823.383 194.444C802.233 153.607 771.555 116.033 732.844 83.5274L731.558 85.0591ZM821.583 195.312C841.738 240.377 851.306 287.778 849.857 335.349L851.856 335.41C853.315 287.526 843.682 239.826 823.408 194.496L821.583 195.312ZM849.856 335.38L849.856 336.394L851.856 336.394L851.856 335.38L849.856 335.38ZM849.857 336.407C850.331 372.513 838.289 408.1 814.906 439.587L816.511 440.78C840.133 408.972 852.337 372.963 851.856 336.381L849.857 336.407ZM814.898 439.598C793.451 469.302 764.758 495.649 730.337 517.225L731.399 518.919C766.015 497.222 794.906 470.704 816.519 440.769L814.898 439.598ZM730.366 517.207C690.51 540.336 646.559 559.079 599.81 572.879L600.376 574.797C647.27 560.955 691.369 542.15 731.37 518.937L730.366 517.207ZM599.797 572.883C551.056 587.994 498.932 595.804 446.288 595.882L446.291 597.882C499.128 597.804 551.452 589.965 600.389 574.793L599.797 572.883ZM446.289 595.882L444.956 595.882L444.956 597.882L446.289 597.882L446.289 595.882ZM444.961 595.882C384.659 595.555 325.178 585.257 270.644 565.707L269.969 567.59C324.725 587.22 384.432 597.554 444.951 597.882L444.961 595.882ZM270.625 565.701C217.445 547.832 168.19 523.872 124.574 494.658L123.461 496.32C167.234 525.639 216.651 549.675 269.988 567.596L270.625 565.701Z" fill="#F5C5BB" mask="url(#path-1-inside-1)"/>
</svg>
