<svg width="234" height="217" viewBox="0 0 234 217" fill="none" xmlns="http://www.w3.org/2000/svg">
<mask id="path-1-inside-1" fill="white">
<path d="M199.596 37.3013C210.114 47.0498 218.439 58.9214 224.021 72.1295C230.108 85.9017 233.377 100.752 233.638 115.806L233.638 117.137C233.944 141.344 225.387 164.828 209.579 183.167C203.344 191.022 195.829 197.769 187.35 203.126C183.174 205.733 178.707 207.843 174.04 209.413C158.345 214.238 141.971 216.485 125.557 216.066C104.961 216.5 84.4363 213.498 64.8278 207.185C61.1341 205.921 58.7715 205.056 57.8065 204.59C48.0964 200.264 39.4864 193.806 32.6165 185.696C22.0133 173.992 13.6146 160.469 7.82581 145.778C2.27575 129.467 -0.35996 112.307 0.039211 95.0822L0.039211 94.7163C-0.0919683 81.6002 3.23645 68.6811 9.68927 57.2601C15.6003 46.4987 23.5053 36.9596 32.9826 29.1514C43.9451 20.7892 56.0324 14.0141 68.8875 9.02619C82.2963 3.56185 96.6347 0.738065 111.115 0.709986L111.481 0.709986C128.067 0.828081 144.429 4.55109 159.432 11.6208C174.054 18.0787 187.6 26.7395 199.596 37.3013Z"/>
</mask>
<path d="M199.596 37.3013C210.114 47.0498 218.439 58.9214 224.021 72.1295C230.108 85.9017 233.377 100.752 233.638 115.806L233.638 117.137C233.944 141.344 225.387 164.828 209.579 183.167C203.344 191.022 195.829 197.769 187.35 203.126C183.174 205.733 178.707 207.843 174.04 209.413C158.345 214.238 141.971 216.485 125.557 216.066C104.961 216.5 84.4363 213.498 64.8278 207.185C61.1341 205.921 58.7715 205.056 57.8065 204.59C48.0964 200.264 39.4864 193.806 32.6165 185.696C22.0133 173.992 13.6146 160.469 7.82581 145.778C2.27575 129.467 -0.35996 112.307 0.039211 95.0822L0.039211 94.7163C-0.0919683 81.6002 3.23645 68.6811 9.68927 57.2601C15.6003 46.4987 23.5053 36.9596 32.9826 29.1514C43.9451 20.7892 56.0324 14.0141 68.8875 9.02619C82.2963 3.56185 96.6347 0.738065 111.115 0.709986L111.481 0.709986C128.067 0.828081 144.429 4.55109 159.432 11.6208C174.054 18.0787 187.6 26.7395 199.596 37.3013Z" fill="#F5C5BB"/>
<path d="M224.021 72.1295L223.1 72.5188L223.103 72.5263L223.106 72.5338L224.021 72.1295ZM233.638 115.806L234.638 115.806L234.638 115.798L234.637 115.789L233.638 115.806ZM233.638 117.137L232.637 117.137L232.638 117.149L233.638 117.137ZM209.579 183.167L208.821 182.515L208.808 182.53L208.796 182.546L209.579 183.167ZM187.35 203.126L187.88 203.975L187.885 203.972L187.35 203.126ZM174.04 209.413L174.334 210.369L174.346 210.365L174.359 210.361L174.04 209.413ZM125.557 216.066L125.582 215.067L125.559 215.066L125.536 215.067L125.557 216.066ZM64.8278 207.185L64.504 208.131L64.5126 208.134L64.5213 208.136L64.8278 207.185ZM57.8065 204.59L58.2412 203.689L58.2274 203.683L58.2135 203.677L57.8065 204.59ZM32.6165 185.696L33.3795 185.049L33.3688 185.036L33.3576 185.024L32.6165 185.696ZM7.82581 145.778L6.87911 146.1L6.88674 146.122L6.89543 146.144L7.82581 145.778ZM0.039211 95.0822L1.03894 95.1054L1.03921 95.0938L1.03921 95.0822L0.039211 95.0822ZM0.039211 94.7163L1.03926 94.7163L1.03917 94.7063L0.039211 94.7163ZM9.68927 57.2601L10.56 57.7521L10.5657 57.7416L9.68927 57.2601ZM32.9826 29.1514L32.3761 28.3563L32.3611 28.3677L32.3467 28.3796L32.9826 29.1514ZM68.8875 9.02619L69.2492 9.95847L69.2571 9.95542L69.2649 9.95224L68.8875 9.02619ZM111.115 0.709986L111.115 -0.290016L111.113 -0.290012L111.115 0.709986ZM111.481 0.709986L111.488 -0.290014L111.481 -0.290014L111.481 0.709986ZM159.432 11.6208L159.006 12.5254L159.017 12.5307L159.028 12.5356L159.432 11.6208ZM198.916 38.0347C209.33 47.6869 217.573 59.4412 223.1 72.5188L224.942 71.7403C219.305 58.4016 210.898 46.4127 200.276 36.5679L198.916 38.0347ZM223.106 72.5338C229.139 86.184 232.38 100.903 232.638 115.823L234.637 115.789C234.375 100.601 231.076 85.6195 224.935 71.7253L223.106 72.5338ZM232.638 115.806L232.638 117.137L234.638 117.137L234.638 115.806L232.638 115.806ZM232.638 117.149C232.941 141.113 224.471 164.36 208.821 182.515L210.336 183.82C226.304 165.296 234.947 141.575 234.637 117.124L232.638 117.149ZM208.796 182.546C202.631 190.312 195.2 196.984 186.816 202.281L187.885 203.972C196.458 198.555 204.057 191.732 210.362 183.789L208.796 182.546ZM186.821 202.278C182.71 204.843 178.314 206.92 173.721 208.466L174.359 210.361C179.099 208.766 183.637 206.623 187.88 203.975L186.821 202.278ZM173.746 208.458C158.155 213.251 141.889 215.483 125.582 215.067L125.531 217.066C142.054 217.487 158.536 215.226 174.334 210.369L173.746 208.458ZM125.536 215.067C105.051 215.498 84.6371 212.512 65.1343 206.233L64.5213 208.136C84.2356 214.484 104.871 217.502 125.578 217.066L125.536 215.067ZM65.1516 206.238C61.4357 204.967 59.1396 204.123 58.2412 203.689L57.3719 205.491C58.4034 205.988 60.8326 206.874 64.504 208.131L65.1516 206.238ZM58.2135 203.677C48.6406 199.412 40.1523 193.045 33.3795 185.049L31.8535 186.342C38.8205 194.567 47.5522 201.116 57.3996 205.503L58.2135 203.677ZM33.3576 185.024C22.8354 173.41 14.5008 159.99 8.75619 145.411L6.89543 146.144C12.7285 160.948 21.1913 174.574 31.8754 186.367L33.3576 185.024ZM8.7725 145.456C3.26025 129.256 0.642497 112.212 1.03894 95.1054L-0.960514 95.0591C-1.3624 112.401 1.29125 129.678 6.87911 146.1L8.7725 145.456ZM1.03921 95.0822L1.03921 94.7163L-0.960789 94.7163L-0.960789 95.0822L1.03921 95.0822ZM1.03917 94.7063C0.909741 81.766 4.19354 69.02 10.5599 57.7521L8.81862 56.7682C2.27934 68.3422 -1.09368 81.4344 -0.960743 94.7263L1.03917 94.7063ZM10.5657 57.7416C16.4158 47.0913 24.239 37.6507 33.6184 29.9232L32.3467 28.3796C22.7715 36.2684 14.7849 45.9061 8.81279 56.7787L10.5657 57.7416ZM33.589 29.9465C44.4768 21.6413 56.4817 14.9124 69.2492 9.95847L68.5258 8.0939C55.583 13.1158 43.4133 19.9371 32.3761 28.3563L33.589 29.9465ZM69.2649 9.95224C82.5545 4.5365 96.7654 1.73781 111.117 1.70998L111.113 -0.290012C96.504 -0.261683 82.0381 2.58721 68.5101 8.10013L69.2649 9.95224ZM111.115 1.70999L111.481 1.70999L111.481 -0.290014L111.115 -0.290014L111.115 1.70999ZM111.474 1.70996C127.915 1.82702 144.134 5.51749 159.006 12.5254L159.858 10.7162C144.724 3.58468 128.219 -0.170862 111.488 -0.289989L111.474 1.70996ZM159.028 12.5356C173.557 18.9522 187.015 27.5576 198.935 38.0518L200.257 36.5507C188.184 25.9214 174.552 17.2053 159.836 10.7061L159.028 12.5356Z" fill="#153863" mask="url(#path-1-inside-1)"/>
</svg>
