<?xml version="1.0" encoding="utf-8"?>
<!-- Generator: Adobe Illustrator 23.1.1, SVG Export Plug-In . SVG Version: 6.00 Build 0)  -->
<svg version="1.1" id="Layer_1" xmlns="http://www.w3.org/2000/svg" xmlns:xlink="http://www.w3.org/1999/xlink" x="0px" y="0px"
	 viewBox="0 0 250 72" style="enable-background:new 0 0 250 72;" xml:space="preserve">
<style type="text/css">
	.st0{fill:#281840;}
</style>
<path class="st0" d="M0.8,25.5C0.4,16.3,7.6,11.2,11.3,9.7c7.2-0.6,23.1-1.8,29.7-1.3c6.6,0.5,38,1,52.9,1.2c10.9-0.5,39.4-1,66,1.1
	c33.2,2.5,60.5-0.1,74.7-0.7c11.3-0.4,14,4.7,13.9,7.4c0.1,7.9,0.3,24.8,0.2,28.9c0,5.1-1.2,11.4-3.4,12.8c-2.2,1.4-17,2.3-28.6,1.4
	s-51.6-0.4-56.1,0.5c-4.5,0.8-61.3,1.7-68.5,1.1c-7.2-0.5-59.5-0.6-75.3,0.2C3.8,62.9,0.8,56,0.8,52.4C1,47.3,1.2,34.7,0.8,25.5z"/>
</svg>
