<svg width="250" height="72" viewBox="0 0 250 72" fill="none" xmlns="http://www.w3.org/2000/svg">
<path d="M0.332524 34.2113C-0.709983 25.0633 6.13686 19.404 9.6906 17.7178C16.7847 16.5782 32.6188 14.309 39.2029 14.3485C45.7869 14.388 77.1636 12.7374 92.0289 11.9071C102.896 10.6588 131.282 8.20216 157.893 8.36178C191.156 8.5613 218.275 3.99551 232.344 2.50375C243.599 1.31034 246.61 6.26701 246.709 8.89453C247.347 16.7791 248.687 33.5732 248.937 37.6727C249.249 42.7971 248.525 49.0973 246.458 50.6611C244.391 52.2249 229.634 54.1065 217.975 54.0366C206.316 53.9667 166.516 57.2743 162.051 58.4296C157.586 59.5849 100.973 64.3679 93.7721 64.3247C86.5708 64.2815 34.4235 67.9091 18.6374 69.7846C6.00856 71.285 2.43666 64.5649 2.22932 61.0173C2.03143 55.8936 1.37503 43.3592 0.332524 34.2113Z" fill="#281840"/>
</svg>
