<?xml version="1.0" encoding="utf-8"?>
<!-- Generator: Adobe Illustrator 23.1.1, SVG Export Plug-In . SVG Version: 6.00 Build 0)  -->
<svg version="1.1" id="Layer_1" xmlns="http://www.w3.org/2000/svg" xmlns:xlink="http://www.w3.org/1999/xlink" x="0px" y="0px"
	 viewBox="0 0 254 52" style="enable-background:new 0 0 254 52;" xml:space="preserve">
<style type="text/css">
	.st0{fill:#FFFFFF;}
</style>
<path class="st0" d="M0.5,16.2c-0.6-7,6.6-10.8,10.3-11.8c7.3-0.4,23.5-1,30.2-0.6c6.7,0.5,38.7,1.3,53.9,1.7
	c11.1-0.2,40.2-0.2,67.3,1.7c33.9,2.4,61.7,0.7,76.1,0.6c11.5-0.1,14.4,3.8,14.3,5.8c0.3,6,0.9,18.7,0.9,21.8
	c0.1,3.9-0.9,8.6-3.1,9.6c-2.2,1-17.3,1.5-29.2,0.6c-11.9-0.8-52.6-1-57.2-0.4c-4.6,0.6-62.5,0.4-69.8-0.1
	c-7.3-0.5-60.6-1.3-76.8-0.9c-12.9,0.3-16.3-5-16.3-7.7C1.2,32.7,1.1,23.2,0.5,16.2z"/>
</svg>
