<svg width="255" height="90" viewBox="0 0 255 90" fill="none" xmlns="http://www.w3.org/2000/svg">
<path d="M3.82297 33.9553C3.46503 24.7551 10.7145 19.6217 14.384 18.205C21.5433 17.5972 37.5026 16.5142 44.0654 17.0442C50.6281 17.5742 82.0406 18.2662 96.9264 18.5459C107.856 18.1109 136.347 17.7763 162.872 19.9184C196.027 22.596 223.411 20.0637 237.552 19.6245C248.865 19.2731 251.498 24.4403 251.401 27.0679C251.45 34.9781 251.535 51.8253 251.478 55.932C251.408 61.0654 250.217 67.2943 248.039 68.6997C245.861 70.105 231.005 70.8818 219.383 69.9433C207.761 69.0047 167.826 69.3374 163.287 70.1568C158.748 70.9762 101.937 71.5273 94.7588 70.9477C87.5808 70.368 35.3081 70.0997 19.4262 70.7936C6.72064 71.3488 3.65943 64.3813 3.71702 60.8281C3.90147 55.7039 4.18091 43.1555 3.82297 33.9553Z" fill="#153863"/>
</svg>
