<svg width="229" height="89" viewBox="0 0 229 89" fill="none" xmlns="http://www.w3.org/2000/svg">
<path d="M3.89296 33.5467C3.71015 24.3084 10.2801 19.1287 13.5879 17.6936C20.0091 17.0592 34.3192 15.9178 40.1892 16.428C46.0593 16.9381 74.1834 17.5274 87.5117 17.7583C97.3074 17.2846 122.83 16.8527 146.555 18.9146C176.211 21.4921 200.775 18.8568 213.447 18.3681C223.584 17.9772 225.865 23.1576 225.739 25.7967C225.664 33.7406 225.488 50.6594 225.376 54.7839C225.236 59.9394 224.076 66.1988 222.104 67.6175C220.133 69.0363 206.815 69.8664 196.42 68.9629C186.025 68.0595 150.252 68.528 146.174 69.3662C142.097 70.2043 91.2058 70.949 84.7855 70.391C78.3652 69.833 31.5513 69.7394 17.3163 70.4898C5.92825 71.0901 3.29083 64.1031 3.39562 60.5346C3.63757 55.3879 4.07577 42.785 3.89296 33.5467Z" fill="#EF7A28"/>
</svg>
