<svg width="254" height="52" viewBox="0 0 254 52" fill="none" xmlns="http://www.w3.org/2000/svg">
<path d="M0.120671 25.0964C-0.99952 18.2072 5.955 13.9113 9.57229 12.6245C16.8069 11.7336 32.9563 9.95192 39.6774 9.95192C46.3986 9.95192 78.4174 8.56615 93.5866 7.87327C104.672 6.88342 133.633 4.90374 160.798 4.90374C194.754 4.90374 222.409 1.34033 236.761 0.152523C248.243 -0.797721 251.347 2.92407 251.464 4.90374C252.164 10.8428 253.634 23.4929 253.914 26.5812C254.264 30.4415 253.564 35.1928 251.464 36.3806C249.363 37.5684 234.311 39.0531 222.409 39.0531C210.507 39.0531 169.9 41.7257 165.349 42.6165C160.798 43.5074 103.038 47.3678 95.687 47.3678C88.3357 47.3678 35.1267 50.3373 19.0239 51.822C6.1417 53.0098 2.45441 47.9617 2.22103 45.2891C1.98766 41.4287 1.24086 31.9857 0.120671 25.0964Z" fill="white"/>
</svg>
