<svg width="203" height="107" viewBox="0 0 203 107" fill="none" xmlns="http://www.w3.org/2000/svg">
<path d="M6.417 37.851C7.11906 27.3852 13.3058 21.7173 16.3114 20.1916C21.9456 19.6657 34.4762 18.8025 39.5251 19.5562C44.574 20.3099 68.937 21.8204 80.4873 22.4814C89.0363 22.2388 111.236 22.5151 131.642 25.5613C157.149 29.3689 178.722 27.1216 189.77 26.9483C198.608 26.8096 200.105 32.7437 199.75 35.7281C198.945 44.7206 197.215 63.8722 196.733 68.5389C196.131 74.3722 194.541 81.4249 192.697 82.9721C190.853 84.5194 179.213 85.06 170.272 83.7253C161.332 82.3907 130.229 81.8484 126.611 82.6752C122.993 83.502 78.7386 82.8191 73.2163 81.9948C67.6941 81.1705 27.0582 79.6608 14.6292 80.0836C4.68597 80.4218 3.04712 72.4315 3.4706 68.394C4.16021 62.5738 5.71494 48.3168 6.417 37.851Z" fill="#EF7A28"/>
</svg>
