<svg width="331" height="97" viewBox="0 0 331 97" fill="none" xmlns="http://www.w3.org/2000/svg">
<path d="M2.66647 38.8239C1.75618 28.3097 11.016 22.2506 15.7597 20.5353C25.1181 19.6551 45.9926 18.0037 54.6234 18.4403C63.2542 18.8769 104.477 18.8564 124.009 18.7916C138.32 18.0114 175.662 16.8923 210.545 18.6568C254.148 20.8624 289.933 17.258 308.455 16.3901C323.272 15.6957 326.972 21.5381 326.971 24.5461C327.414 33.5928 328.332 52.8609 328.455 57.5597C328.609 63.4332 327.345 70.5888 324.557 72.2526C321.769 73.9164 302.326 75.1889 287.042 74.4158C271.758 73.6427 219.409 75.0556 213.497 76.1102C207.585 77.1647 133.118 79.2637 123.678 78.7862C114.238 78.3086 45.6835 79.353 24.8917 80.5573C8.25824 81.5208 3.91031 73.6302 3.81552 69.5645C3.81179 63.6986 3.57677 49.3381 2.66647 38.8239Z" fill="#EF7A28"/>
</svg>
