<svg width="1440" height="62" viewBox="0 0 1440 62" fill="none" xmlns="http://www.w3.org/2000/svg">
<mask id="mask0" mask-type="alpha" maskUnits="userSpaceOnUse" x="0" y="0" width="1440" height="62">
<rect width="1440" height="61.7502" fill="#C4C4C4"/>
</mask>
<g mask="url(#mask0)">
<mask id="path-2-inside-1" fill="white">
<path d="M2163.71 125.551C2338.33 158.999 2476.55 199.733 2569.21 245.052C2670.26 292.307 2724.55 343.26 2728.87 394.914L2728.87 399.479C2733.96 482.538 2591.9 563.116 2329.45 626.041C2225.93 652.991 2101.17 676.143 1960.41 694.523C1891.06 703.467 1816.9 710.707 1739.43 716.095C1478.86 732.65 1207.02 740.359 934.504 738.923C592.567 740.411 251.821 730.112 -73.7215 708.448C-135.044 704.111 -174.268 701.143 -190.289 699.545C-351.497 684.702 -494.441 662.543 -608.495 634.716C-784.53 594.56 -923.965 548.159 -1020.07 497.751C-1112.21 441.785 -1155.97 382.906 -1149.35 323.806L-1149.35 322.551C-1151.52 277.547 -1096.26 233.22 -989.135 194.033C-890.999 157.108 -759.761 124.378 -602.418 97.587C-420.418 68.8949 -219.744 45.6485 -6.32227 28.5341C216.292 9.78511 454.339 0.0962462 694.739 -8.89204e-05L700.816 -8.86547e-05C976.178 0.405122 1247.82 13.1794 1496.9 37.4369C1739.66 59.595 1964.54 89.3115 2163.71 125.551Z"/>
</mask>
<path d="M2569.21 245.052L2568.77 245.95L2568.78 245.954L2568.79 245.958L2569.21 245.052ZM2728.87 394.914L2729.87 394.914L2729.87 394.872L2729.86 394.831L2728.87 394.914ZM2728.87 399.479L2727.87 399.479L2727.87 399.51L2727.87 399.541L2728.87 399.479ZM2329.45 626.041L2329.21 625.069L2329.2 625.071L2329.19 625.074L2329.45 626.041ZM1960.41 694.523L1960.53 695.515L1960.54 695.515L1960.41 694.523ZM1739.43 716.095L1739.49 717.093L1739.5 717.093L1739.43 716.095ZM934.504 738.923L934.509 737.923L934.499 737.923L934.504 738.923ZM-73.7215 708.448L-73.792 709.446L-73.7879 709.446L-73.7215 708.448ZM-190.289 699.545L-190.19 698.55L-190.197 698.55L-190.289 699.545ZM-608.495 634.716L-608.258 633.744L-608.265 633.742L-608.273 633.741L-608.495 634.716ZM-1020.07 497.751L-1020.59 498.606L-1020.56 498.622L-1020.54 498.637L-1020.07 497.751ZM-1149.35 323.806L-1148.35 323.918L-1148.35 323.862L-1148.35 323.806L-1149.35 323.806ZM-1149.35 322.551L-1148.35 322.551L-1148.35 322.527L-1148.35 322.503L-1149.35 322.551ZM-989.135 194.033L-988.791 194.972L-988.782 194.969L-989.135 194.033ZM-602.418 97.587L-602.574 96.5991L-602.586 96.6012L-602.418 97.587ZM-6.32227 28.5341L-6.24243 29.5309L-6.23853 29.5306L-6.32227 28.5341ZM694.739 -8.89204e-05L694.739 -1.00009L694.739 -1.00009L694.739 -8.89204e-05ZM700.816 -8.86547e-05L700.818 -1.00009L700.816 -1.00009L700.816 -8.86547e-05ZM1496.9 37.4369L1496.8 38.4322L1496.81 38.4327L1496.9 37.4369ZM2163.52 126.533C2338.11 159.975 2476.23 200.688 2568.77 245.95L2569.65 244.154C2476.87 198.777 2338.55 158.024 2163.9 124.569L2163.52 126.533ZM2568.79 245.958C2619.26 269.561 2657.99 294.06 2684.63 319.063C2711.27 344.067 2725.74 369.504 2727.87 394.997L2729.86 394.831C2727.68 368.67 2712.85 342.804 2686 317.604C2659.15 292.403 2620.21 267.798 2569.63 244.146L2568.79 245.958ZM2727.87 394.914L2727.87 399.479L2729.87 399.479L2729.87 394.914L2727.87 394.914ZM2727.87 399.541C2729.12 419.986 2721.33 440.355 2704.74 460.434C2688.14 480.523 2662.78 500.277 2628.99 519.44C2561.43 557.766 2460.4 593.615 2329.21 625.069L2329.68 627.014C2460.94 595.542 2562.18 559.64 2629.98 521.18C2663.88 501.95 2689.47 482.054 2706.28 461.708C2723.1 441.353 2731.16 420.502 2729.87 399.418L2727.87 399.541ZM2329.19 625.074C2225.73 652.01 2101.01 675.155 1960.28 693.532L1960.54 695.515C2101.33 677.131 2226.13 653.972 2329.7 627.009L2329.19 625.074ZM1960.28 693.532C1890.96 702.473 1816.81 709.711 1739.36 715.098L1739.5 717.093C1816.99 711.703 1891.17 704.462 1960.53 695.515L1960.28 693.532ZM1739.36 715.097C1478.82 731.651 1207 739.359 934.509 737.923L934.498 739.923C1207.04 741.36 1478.9 733.65 1739.49 717.093L1739.36 715.097ZM934.499 737.923C592.585 739.411 251.863 729.112 -73.6553 707.45L-73.7879 709.446C251.779 731.111 592.548 741.411 934.508 739.923L934.499 737.923ZM-73.6509 707.451C-134.979 703.113 -174.186 700.147 -190.19 698.55L-190.388 700.541C-174.349 702.14 -135.108 705.109 -73.792 709.446L-73.6509 707.451ZM-190.197 698.55C-351.374 683.709 -494.265 661.556 -608.258 633.744L-608.732 635.687C-494.616 663.529 -351.621 685.695 -190.381 700.541L-190.197 698.55ZM-608.273 633.741C-784.271 593.593 -923.611 547.215 -1019.61 496.866L-1020.54 498.637C-924.32 549.102 -784.789 595.527 -608.718 635.691L-608.273 633.741ZM-1019.55 496.897C-1111.64 440.962 -1154.91 382.386 -1148.35 323.918L-1150.34 323.695C-1157.04 383.426 -1112.79 442.608 -1020.59 498.606L-1019.55 496.897ZM-1148.35 323.806L-1148.35 322.551L-1150.35 322.551L-1150.35 323.806L-1148.35 323.806ZM-1148.35 322.503C-1149.41 300.467 -1136.43 278.41 -1109.6 256.891C-1082.79 235.382 -1042.31 214.549 -988.791 194.972L-989.478 193.094C-1043.09 212.704 -1083.8 233.628 -1110.86 255.331C-1137.9 277.023 -1151.46 299.631 -1150.34 322.599L-1148.35 322.503ZM-988.782 194.969C-890.729 158.075 -759.559 125.358 -602.25 98.5728L-602.586 96.6012C-759.962 123.398 -891.269 156.142 -989.487 193.097L-988.782 194.969ZM-602.262 98.5748C-420.291 69.8873 -219.642 46.6435 -6.24243 29.5309L-6.40234 27.5373C-219.845 44.6534 -420.545 67.9026 -602.574 96.5992L-602.262 98.5748ZM-6.23853 29.5306C216.346 10.7841 454.365 1.09624 694.74 0.999911L694.739 -1.00009C454.313 -0.903743 216.238 8.78613 -6.40625 27.5377L-6.23853 29.5306ZM694.739 0.999911L700.816 0.999911L700.816 -1.00009L694.739 -1.00009L694.739 0.999911ZM700.815 0.99991C976.147 1.40508 1247.76 14.178 1496.8 38.4322L1497 36.4416C1247.88 12.1807 976.208 -0.594835 700.818 -1.00009L700.815 0.99991ZM1496.81 38.4327C1739.55 60.5887 1964.4 90.3016 2163.53 126.534L2163.89 124.567C1964.69 88.3214 1739.77 58.6013 1496.99 36.441L1496.81 38.4327Z" fill="#3E77BC" mask="url(#path-2-inside-1)"/>
</g>
</svg>
