<svg width="30" height="30" viewBox="0 0 30 30" fill="none" xmlns="http://www.w3.org/2000/svg">
<rect width="30" height="30" rx="10" fill="#EF7A28"/>
<path d="M21.3438 11.75C21.3646 11.8333 21.375 11.9688 21.375 12.1562C21.375 13.2604 21.1667 14.3646 20.75 15.4688C20.3333 16.5521 19.7396 17.5521 18.9688 18.4688C18.2188 19.3646 17.2396 20.0938 16.0312 20.6562C14.8229 21.2188 13.4896 21.5 12.0312 21.5C10.1979 21.5 8.52083 21.0104 7 20.0312C7.22917 20.0521 7.48958 20.0625 7.78125 20.0625C9.30208 20.0625 10.6667 19.5938 11.875 18.6562C11.1458 18.6562 10.5 18.4479 9.9375 18.0312C9.39583 17.5938 9.02083 17.0521 8.8125 16.4062C9.02083 16.4271 9.21875 16.4375 9.40625 16.4375C9.69792 16.4375 9.98958 16.4062 10.2812 16.3438C9.78125 16.2396 9.33333 16.0312 8.9375 15.7188C8.54167 15.4062 8.22917 15.0312 8 14.5938C7.77083 14.1354 7.65625 13.6458 7.65625 13.125V13.0625C8.11458 13.3333 8.60417 13.4792 9.125 13.5C8.14583 12.8333 7.65625 11.9167 7.65625 10.75C7.65625 10.1667 7.8125 9.61458 8.125 9.09375C8.9375 10.1146 9.92708 10.9271 11.0938 11.5312C12.2812 12.1354 13.5417 12.4688 14.875 12.5312C14.8333 12.2812 14.8125 12.0312 14.8125 11.7812C14.8125 10.8854 15.125 10.1146 15.75 9.46875C16.3958 8.82292 17.1667 8.5 18.0625 8.5C19.0208 8.5 19.8229 8.84375 20.4688 9.53125C21.2188 9.38542 21.9167 9.125 22.5625 8.75C22.3125 9.52083 21.8333 10.125 21.125 10.5625C21.75 10.4792 22.375 10.3021 23 10.0312C22.5417 10.6979 21.9896 11.2708 21.3438 11.75Z" fill="white"/>
</svg>
