<?xml version="1.0" encoding="utf-8"?>
<!-- Generator: Adobe Illustrator 23.1.1, SVG Export Plug-In . SVG Version: 6.00 Build 0)  -->
<svg version="1.1" id="Layer_1" xmlns="http://www.w3.org/2000/svg" xmlns:xlink="http://www.w3.org/1999/xlink" x="0px" y="0px"
	 viewBox="0 0 19 19" style="enable-background:new 0 0 19 19;" xml:space="preserve">
<style type="text/css">
	.st0{fill:#281840;}
</style>
<path class="st0" d="M18.6,8.2c0.4-0.4,0.5-0.9,0.3-1.4c-0.2-0.5-0.6-0.9-1.1-0.9l-4.6-0.7c-0.2,0-0.4-0.2-0.5-0.3l-2.1-4.2
	C10.5,0.3,10,0,9.5,0C9,0,8.5,0.3,8.3,0.8L6.2,4.9C6.1,5.1,6,5.2,5.8,5.3L1.2,5.9C0.7,6,0.2,6.4,0.1,6.9c-0.2,0.5,0,1,0.3,1.4
	l3.3,3.2c0.1,0.1,0.2,0.3,0.2,0.5l-0.8,4.6c-0.1,0.4,0,0.8,0.3,1.1c0.4,0.5,1.1,0.6,1.7,0.3l4.1-2.2c0.2-0.1,0.4-0.1,0.6,0l4.1,2.2
	c0.2,0.1,0.4,0.2,0.6,0.2c0.4,0,0.8-0.2,1-0.5c0.3-0.3,0.4-0.7,0.3-1.1L15.1,12c0-0.2,0-0.4,0.2-0.5L18.6,8.2z"/>
</svg>
