<svg width="1440" height="1303" viewBox="0 0 1440 1303" fill="none" xmlns="http://www.w3.org/2000/svg">
<g opacity="0.2">
<path d="M8.90068 -0.000488281C7.65529 -0.000488281 6.38876 -0.000488281 5.14337 -0.000488281V1.68893H8.85846H9.36505V-0.000488281H8.90068ZM15.8453 0.210689V1.92123C17.2385 1.92123 18.6528 2.13241 20.067 2.28023L20.257 0.590809C18.8216 0.442985 17.4074 0.316278 16.0353 0.210689H15.8453ZM-1.27359 0.400749L-5.49527 0.759751L-5.3264 2.47029C-3.95435 2.32247 -2.51897 2.11129 -1.14693 2.11129L-1.27359 0.400749ZM-11.8278 1.49887L-13.7275 1.75229L-16.1128 2.11129L-15.8806 3.80071L-13.5587 3.46282L-11.68 3.20941L-11.8278 1.49887ZM26.5473 1.49887L26.2307 3.16718C27.6238 3.44171 28.9959 3.73735 30.4524 4.07524L30.8534 2.42805C29.4814 2.06905 28.0671 1.7734 26.6317 1.49887H26.5473ZM-22.2975 3.04047L-26.5192 3.77959L-26.2026 5.44789L-21.9809 4.70877L-22.2975 3.04047ZM37.0171 4.28642L36.4471 5.89137L38.0936 6.50378L40.3522 7.43296L41.0277 5.87025C40.2678 5.53236 39.4868 5.2156 38.7057 4.91995L37.0171 4.28642ZM-32.9151 5.04666C-34.3223 5.31415 -35.7295 5.6098 -37.1368 5.9336L-36.7568 7.58079L-32.5351 6.71496L-32.9151 5.04666ZM-43.3215 7.36961L-47.5432 8.40438L-47.121 10.0516L-42.8994 9.01679L-43.3215 7.36961ZM46.6636 8.80562L45.8404 10.2839C46.8958 10.8752 47.9512 11.4876 48.9222 12.1422H49.6399L50.3576 11.0441C49.1544 10.2627 47.9301 9.5025 46.6636 8.80562ZM-53.6435 10.0727L-57.7386 11.2553L-57.4642 12.1422H-54.6778L-53.1792 11.7199L-53.6435 10.0727ZM-131.28 44.5157L-134.869 46.8176L-133.94 48.2325L-130.478 46.0151V45.7828L-131.28 44.5157ZM-140.272 50.3442L-143.776 52.7939L-142.805 54.1877L-139.323 51.7803L-140.272 50.3442ZM-148.969 56.5106L-152.389 59.1292L-151.354 60.5019L-147.977 57.9466L-148.969 56.5106ZM-130.563 551.173C-131.787 551.173 -133.053 551.173 -134.32 551.363L-134.193 553.053L-130.563 552.862V551.173ZM-140.716 552.081L-143.523 552.567L-143.228 554.235L-140.462 553.771L-140.716 552.081ZM1680.62 721.741L1679.19 722.628V722.755C1679.85 723.873 1680.39 725.063 1680.79 726.303L1682.42 725.796C1681.98 724.421 1681.39 723.102 1680.64 721.868L1680.62 721.741ZM1681.68 732.3C1681.66 733.669 1681.51 735.034 1681.24 736.376L1682.9 736.714C1683.2 735.275 1683.36 733.811 1683.39 732.342L1681.68 732.3ZM1679.23 742.183C1678.81 743.06 1678.33 743.907 1677.79 744.717V746.196L1678.51 746.702L1678.83 746.238C1679.55 745.191 1680.2 744.09 1680.75 742.943L1679.23 742.183ZM1375.42 1297.37H1371.07L1371.28 1298.49L1375.5 1297.62L1375.42 1297.37ZM1280.43 1297.37H1276.21L1276.04 1298.26L1280.26 1299.04L1280.43 1297.37ZM1364.86 1297.96L1360.64 1298.64L1360.89 1300.3C1362.31 1300.09 1363.7 1299.88 1365.12 1299.63L1364.86 1297.96ZM1286.76 1298.4L1286.49 1300.09L1290.71 1300.71L1290.92 1299.02L1286.7 1298.4H1286.76ZM1354.25 1299.48C1352.85 1299.67 1351.44 1299.82 1350.02 1299.97L1350.21 1301.66C1351.63 1301.51 1353.04 1301.36 1354.43 1301.17L1354.25 1299.48ZM1297.25 1299.8L1297.08 1301.49L1301.31 1301.91L1301.45 1300.22L1297.23 1299.8H1297.25ZM1343.8 1300.56L1339.57 1300.85V1302.54L1343.8 1302.25V1300.56ZM1307.79 1300.73L1307.68 1302.44L1311.9 1302.69V1300.98L1307.68 1300.73H1307.79ZM1333.01 1301.15C1331.62 1301.15 1330.2 1301.15 1328.79 1301.28V1302.97H1333.01V1301.15ZM1318.23 1301.15V1302.84H1322.46V1301.13H1318.23" fill="#E9E9E9"/>
<path d="M49.64 12.1421H48.9223L49.4289 12.4589L49.64 12.1421ZM-54.6778 12.1421H-57.4008L-57.1897 12.9023L-54.6145 12.1421H-54.6778ZM-63.7333 13.1557C-65.1405 13.5781 -66.4914 14.0216 -67.7861 14.4862L-67.2584 16.0911L-63.3322 14.7818L-63.7333 13.1557ZM55.5714 14.7818L54.516 16.1122C55.5925 16.9781 56.6268 17.9072 57.6823 18.8575L58.8432 17.5905C57.7878 16.6191 56.7324 15.6899 55.5714 14.7818ZM-73.9287 16.5135L-77.9392 17.9917L-77.3482 19.5755L-73.3587 18.1184L-73.9287 16.5135ZM-83.9129 20.3147L-87.8602 21.9196L-87.2058 23.4823L-83.2797 21.8774L-83.9129 20.3147ZM63.3815 22.173L62.1361 23.3134C63.0649 24.3482 63.9937 25.4252 64.8802 26.5022L66.189 25.4252C65.2813 24.3059 64.3525 23.3134 63.3815 22.173ZM-93.7283 24.5171L-97.5067 26.2699L-96.7891 27.8115L-92.9262 26.0587L-93.7283 24.5171ZM-103.396 28.9941L-107.217 30.8947L-106.457 32.4151L-102.657 30.5357L-103.396 28.9941ZM70.0518 30.6624L68.6375 31.6127C69.4396 32.7741 70.1996 33.9567 70.9384 35.1604L72.3737 34.2735C71.6349 33.0487 70.8539 31.845 70.0518 30.6624ZM-112.895 33.7878L-116.652 35.8996L-115.829 37.3989L-112.114 35.2872L-112.895 33.7878ZM-122.225 38.9616L-125.898 41.0734L-125.032 42.5305C-123.808 41.7914 -122.605 41.0734 -121.38 40.4188L-122.225 38.9616ZM75.54 39.8486L74.0202 40.6299C74.6534 41.8759 75.2655 43.143 75.8566 44.41L77.3975 43.7131C76.8065 42.4038 76.1943 41.1157 75.54 39.8486ZM-130.562 45.7827V46.015H-130.457L-130.562 45.7827ZM79.8039 49.6895L78.1996 50.3019C78.7062 51.6112 79.1706 52.9416 79.5928 54.272L81.2181 53.7441C80.7749 52.3925 80.3105 51.041 79.8039 49.6895ZM727.832 57.4397C726.397 57.4397 724.982 57.4397 723.61 57.4397V59.1291H727.832V57.4397ZM734.164 57.4397V59.1291L738.386 59.2347V57.5453C736.951 57.5453 735.536 57.5453 734.164 57.4397ZM717.109 57.672H715.779L712.845 57.862V59.5515L715.758 59.3825H717.088L717.109 57.672ZM744.824 57.7987V59.5092L749.046 59.7415L749.172 58.0521L744.951 57.7987H744.824ZM706.576 58.4956L702.354 59.0235L702.586 60.7129C704.001 60.5229 705.394 60.3539 706.808 60.2061L706.576 58.4956ZM755.589 58.4956L755.442 60.185L759.663 60.5651L759.832 58.8757L755.611 58.4956H755.589ZM766.165 59.5515L765.954 61.2409L770.175 61.7477L770.386 60.0583L766.165 59.5515ZM82.9912 59.8471L81.3448 60.2695C81.7036 61.6421 81.9991 63.0148 82.2946 64.493L83.9622 64.1551C83.6667 62.7402 83.3501 61.3465 82.9912 59.9316V59.8471ZM695.937 60.0583L691.715 60.8608L692.053 62.5291C693.446 62.2545 694.818 61.98 696.275 61.7477L695.937 60.0583ZM776.719 61.0086L776.487 62.698L780.708 63.3104L780.962 61.6421C779.548 61.4098 778.154 61.1986 776.74 61.0086H776.719ZM685.615 62.2545L681.393 63.3527L681.858 64.9998C683.209 64.6197 684.581 64.2818 685.953 63.944L685.615 62.2545ZM787.4 62.6769L787.104 64.3452L791.326 65.0843L791.622 63.416L787.4 62.6769ZM797.849 64.6197L797.511 66.288L801.732 67.1539L802.091 65.4856L797.87 64.6197H797.849ZM675.441 65.1477C674.09 65.57 672.718 66.0346 671.388 66.4992L671.937 68.1042C673.267 67.6396 674.618 67.1961 675.948 66.7737L675.441 65.1477ZM808.424 66.8582L808.044 68.5054L812.266 69.4768L812.667 67.8085L808.445 66.8582H808.424ZM665.457 68.7166L661.509 70.3426L662.164 71.9054L666.069 70.3004L665.457 68.7166ZM818.809 69.3501L818.387 70.9973L822.609 72.0743L823.031 70.4271L818.598 69.3501H818.809ZM85.1865 70.4693L83.4978 70.7016C83.6878 72.0954 83.8567 73.5103 83.9833 74.9252L85.6931 74.7563C85.5453 73.3414 85.3765 71.9054 85.1865 70.5327V70.4693ZM828.899 72.1799L828.435 73.8271L832.508 75.0097L832.994 73.3836L828.899 72.1799ZM655.451 73.0668C654.164 73.6792 652.897 74.3339 651.631 74.9885L652.412 76.4879C653.636 75.8333 654.902 75.2208 656.169 74.6084L655.451 73.0668ZM839.094 75.1786L838.588 76.8047L842.641 78.0929L843.168 76.4668L839.094 75.1786ZM645.995 78.0084C644.77 78.7264 643.546 79.4655 642.343 80.2258L643.251 81.6618C644.433 80.9226 645.636 80.2046 646.86 79.55L645.995 78.0084ZM849.247 78.4941L848.699 80.099L852.709 81.5139L853.279 79.909L849.247 78.4941ZM86.1364 81.1549H84.4477C84.4477 82.5698 84.4477 83.9636 84.4477 85.3785H86.1364C86.1364 83.9425 86.1364 82.5276 86.1364 81.1549ZM859.358 82.1052L858.746 83.6891L862.715 85.2095L863.327 83.6257C862.018 83.0978 860.688 82.5909 859.358 82.1052ZM637.066 83.7735C635.884 84.5971 634.744 85.4418 633.604 86.3077L634.638 87.6592C635.757 86.8145 636.876 85.9909 638.037 85.1673L637.066 83.7735ZM869.258 85.8853L868.604 87.448C869.934 87.9971 871.221 88.525 872.53 89.0952L873.184 87.5114L869.258 85.9909V85.8853ZM879.053 90.2145L878.377 91.7772L882.24 93.5299L882.937 91.9883L879.053 90.2145ZM628.58 90.3623C627.483 91.2703 626.469 92.2206 625.372 93.1921L626.512 94.438C627.553 93.4807 628.608 92.5515 629.678 91.6505L628.58 90.3623ZM84.3844 91.8194C84.3844 93.2343 84.2366 94.6492 84.1311 96.043L85.8409 96.1697C85.9464 94.7548 86.0309 93.3188 86.0731 91.9461L84.3844 91.8194ZM888.72 94.7337L887.981 96.2541L891.781 98.1336L892.541 96.6131L888.72 94.7337ZM620.686 97.6268C619.672 98.6616 618.701 99.7386 617.773 100.773L619.039 101.893C619.968 100.858 620.918 99.7808 621.889 98.8094L620.686 97.6268ZM898.135 99.5274L897.354 101.027L901.069 103.139L901.892 101.639L898.135 99.5274ZM83.4556 102.315C83.2868 103.73 83.1179 105.124 82.9279 106.538L84.6166 106.771C84.8066 105.377 84.9754 103.962 85.1443 102.547L83.4556 102.315ZM907.464 104.722L906.599 106.201L910.23 108.312L911.116 106.855L907.464 104.743V104.722ZM613.657 105.736C612.77 106.855 611.926 108.017 611.102 109.178L612.474 110.171C613.298 109.009 614.142 107.89 614.986 106.771L613.657 105.736ZM916.541 110.319L915.612 111.755L919.159 114.035L920.108 112.62L916.541 110.255V110.319ZM81.9147 112.789C81.6614 114.183 81.4081 115.577 81.1337 117.013L82.8013 117.33C83.0757 115.936 83.3501 114.542 83.5823 113.106L81.9147 112.789ZM607.514 114.542C606.775 115.767 606.058 116.992 605.403 118.259L606.902 119.082C607.577 117.836 608.274 116.633 609.013 115.429L607.514 114.542ZM925.322 116.358L924.33 117.731L927.729 120.244L928.742 118.892C927.623 118.027 926.462 117.182 925.322 116.358ZM933.766 122.841L932.689 124.151L935.961 126.854L937.058 125.544L933.766 122.841ZM79.8039 123.179C79.4873 124.573 79.1706 125.946 78.8329 127.403L80.5005 127.804C80.8171 126.41 81.1548 125.038 81.4503 123.581L79.8039 123.179ZM602.448 124.024C601.857 125.333 601.287 126.643 600.759 127.973L602.342 128.607C602.87 127.297 603.419 126.009 604.01 124.742L602.448 124.024ZM941.892 129.768L940.752 131.035C941.808 131.964 942.863 132.936 943.876 133.907L945.037 132.661C944.003 131.69 942.927 130.718 941.892 129.768ZM77.292 133.485C76.9331 134.857 76.5743 136.23 76.1943 137.582L77.8408 138.046C78.2207 136.674 78.5796 135.301 78.9384 133.823L77.292 133.485ZM598.67 134.034C598.226 135.385 597.804 136.758 597.424 138.131L599.071 138.595C599.451 137.187 599.852 135.836 600.274 134.541L598.67 134.034ZM949.724 137.117L948.52 138.321C949.512 139.313 950.505 140.432 951.475 141.362L952.721 140.179C951.729 139.144 950.737 138.067 949.724 137.117ZM74.5268 143.727C74.1468 145.078 73.7458 146.451 73.3447 147.803L74.97 148.288L76.1732 144.191L74.5268 143.727ZM595.904 144.403C595.63 145.796 595.356 147.211 595.123 148.626L596.812 148.901C597.044 147.528 597.298 146.134 597.572 144.677L595.904 144.403ZM957.048 144.888L955.781 146.029C956.731 147.063 957.66 148.14 958.568 149.217L959.855 148.098C958.948 147.021 957.998 145.986 957.048 144.888ZM963.95 153.04L962.621 154.096C963.507 155.194 964.394 156.207 965.238 157.432L966.589 156.398C965.724 155.278 964.858 154.159 963.95 153.04ZM71.5083 153.906C71.1072 155.278 70.685 156.63 70.284 157.981L71.9093 158.488C72.3104 157.116 72.7325 155.764 73.1547 154.412L71.5083 153.906ZM594.279 154.983C594.131 156.419 594.026 157.834 593.92 159.206H595.63C595.63 157.791 595.82 156.398 595.968 154.983H594.279ZM970.41 161.55L969.038 162.543C969.84 163.704 970.663 164.866 971.444 166.027L972.858 165.077C972.056 163.894 971.233 162.712 970.41 161.55ZM68.4053 164.084L67.1388 168.139L68.7642 168.646L70.0307 164.591L68.4053 164.084ZM593.688 165.689C593.688 166.133 593.688 166.555 593.688 166.999C593.688 167.991 593.688 168.984 593.688 169.976H595.398C595.398 168.984 595.398 168.012 595.398 167.041V165.753L593.688 165.689ZM976.383 170.441L974.927 171.349C975.687 172.546 976.426 173.749 977.143 174.96L978.621 174.094C977.882 172.869 977.143 171.645 976.383 170.441ZM65.2602 174.242C64.8591 175.594 64.4369 176.966 64.0148 178.318L65.6401 178.825C66.0623 177.452 66.4845 176.1 66.8855 174.749L65.2602 174.242ZM595.714 176.354L594.026 176.48C594.131 177.895 594.258 179.31 594.406 180.704L596.094 180.514C595.947 179.12 595.82 177.705 595.714 176.29V176.354ZM981.808 179.669L980.309 180.493C981.006 181.739 981.66 182.985 982.315 184.231L983.835 183.449C983.18 182.182 982.505 180.915 981.724 179.669H981.808ZM62.0095 184.442L60.8063 188.475L62.4316 188.982C62.8538 187.631 63.2549 186.279 63.6771 184.906L62.0095 184.442ZM596.96 186.765L595.292 187.018C595.503 188.433 595.736 189.848 595.989 191.242L597.656 190.946C597.403 189.538 597.171 188.13 596.96 186.723V186.765ZM986.748 189.13L985.207 189.869C985.798 191.136 986.389 192.424 986.959 193.713L988.521 193.037C987.951 191.728 987.36 190.439 986.748 189.13ZM59.0121 194.578L57.7456 198.633L59.3709 199.14L60.6374 195.085L59.0121 194.578ZM598.86 197.155L597.213 197.535C597.53 198.929 597.867 200.301 598.205 201.758L599.852 201.336C599.514 199.963 599.176 198.591 598.86 197.113V197.155ZM990.927 198.95L989.365 199.583C989.893 200.893 990.399 202.223 990.885 203.532L992.489 202.962C991.982 201.611 991.476 200.28 990.948 198.95H990.927ZM55.867 204.842C55.4659 206.214 55.0437 207.566 54.6215 208.917L56.2469 209.424C56.6691 208.052 57.0912 206.7 57.4923 205.348L55.867 204.842ZM601.54 207.503L599.915 207.988C600.084 208.558 600.253 209.129 600.443 209.699C600.633 210.269 600.928 211.283 601.203 212.064L602.807 211.515C602.554 210.755 602.3 209.973 602.068 209.192C601.836 208.411 601.709 208.073 601.54 207.503ZM994.536 209.065L992.911 209.593C993.354 210.945 993.755 212.296 994.157 213.648L995.782 213.162C995.381 211.811 994.98 210.438 994.536 209.065ZM52.7429 214.915C52.3207 216.266 51.8986 217.618 51.4975 218.969L53.1228 219.476C53.5239 218.125 53.9461 216.773 54.3682 215.401L52.7429 214.915ZM605.044 217.343L603.482 217.977C604.01 219.307 604.58 220.617 605.171 221.926L606.712 221.208C606.142 219.92 605.572 218.632 605.044 217.343ZM997.449 219.455L995.782 219.856C996.12 221.229 996.436 222.602 996.732 224.08L998.399 223.721C998.104 222.313 997.787 220.905 997.449 219.497V219.455ZM1103.29 220.258C1101.83 220.268 1100.38 220.374 1098.94 220.574L1099.19 222.264C1100.59 222.065 1102 221.966 1103.41 221.968V220.258H1103.29ZM1109.81 220.87L1109.47 222.538C1110.82 222.825 1112.14 223.199 1113.44 223.658L1114.01 222.053C1112.63 221.559 1111.22 221.164 1109.79 220.87H1109.81ZM1092.56 222.158C1091.19 222.661 1089.86 223.261 1088.57 223.953L1089.4 225.453C1090.6 224.792 1091.86 224.227 1093.16 223.763L1092.56 222.158ZM1119.86 225.03L1118.93 226.424L1119.39 226.762C1120.36 227.446 1121.28 228.187 1122.16 228.979L1123.3 227.733C1122.38 226.885 1121.4 226.095 1120.38 225.368L1119.86 225.03ZM49.6611 225.199L48.3946 229.275L50.0199 229.761L51.2864 225.706L49.6611 225.199ZM609.498 227.079L607.978 227.839C608.612 229.106 609.266 230.373 609.941 231.64L611.44 230.838L609.498 227.079ZM1083.28 227.733L1082.2 228.768C1081.52 229.438 1080.88 230.143 1080.28 230.88L1081.63 231.915C1082.18 231.175 1082.78 230.47 1083.42 229.803C1083.74 229.465 1084.08 229.148 1084.42 228.831L1083.28 227.733ZM999.624 229.993L998.019 230.183C998.245 231.591 998.456 232.999 998.653 234.407L1000.32 234.174C1000.13 232.759 999.919 231.344 999.687 229.951L999.624 229.993ZM1127.69 232.696L1126.25 233.625C1127 234.769 1127.64 235.978 1128.17 237.236L1129.74 236.582C1129.15 235.225 1128.44 233.925 1127.63 232.696H1127.69ZM46.4737 235.23C46.0726 236.603 45.6505 237.954 45.2283 239.306L46.8537 239.813C47.2758 238.461 47.698 237.088 48.099 235.737L46.4737 235.23ZM614.438 236.307L612.939 237.152L615.05 240.869L616.548 240.024C615.852 238.799 615.155 237.553 614.438 236.307ZM1076.88 236.476C1076.29 237.846 1075.8 239.258 1075.42 240.7L1077.07 241.143C1077.43 239.814 1077.88 238.515 1078.44 237.257L1076.88 236.476ZM1000.89 240.467L999.202 240.615C999.328 242.03 999.434 243.424 999.497 244.839H1001.21C1001.21 243.424 1001.02 241.988 1000.89 240.615V240.467ZM1131.42 242.854L1129.74 243.128C1129.97 244.525 1130.1 245.936 1130.14 247.352H1131.83C1131.79 245.894 1131.65 244.441 1131.42 243.001V242.854ZM43.3497 245.409C42.9275 246.76 42.5053 248.112 42.1043 249.463L43.7296 249.97C44.1307 248.619 44.5528 247.267 44.975 245.916L43.3497 245.409ZM619.609 245.599L618.132 246.423L620.242 250.139L621.72 249.316C621.045 248.07 620.348 246.824 619.609 245.599ZM1074.31 247.035C1074.31 248.239 1074.14 249.463 1074.14 250.709C1074.14 250.921 1074.14 251.153 1074.14 251.385H1075.82V250.752C1075.82 249.548 1075.83 248.386 1075.97 247.225L1074.31 247.035ZM1001.44 251.258H999.729V252.272C999.729 253.328 999.729 254.384 999.729 255.482H1001.44C1001.44 254.384 1001.44 253.37 1001.44 252.23V251.195V251.258ZM1129.78 253.497C1129.61 254.905 1129.38 256.313 1129.08 257.721L1130.75 258.08C1131.04 256.665 1131.3 255.229 1131.47 253.856L1129.78 253.497ZM624.738 254.975L623.24 255.757C623.915 257.024 624.549 258.27 625.203 259.516L626.702 258.755C626.068 257.488 625.414 256.221 624.738 254.975ZM40.2256 255.524L38.9591 259.6L40.5845 260.086L41.8509 256.031L40.2256 255.524ZM1076.35 257.636L1074.66 257.847C1074.83 259.262 1075.09 260.677 1075.36 262.071L1077.03 261.733C1076.75 260.339 1076.52 258.966 1076.35 257.509V257.636ZM999.392 261.733C999.392 263.127 999.159 264.542 999.011 265.956L1000.7 266.147C1000.87 264.711 1001 263.296 1001.1 261.923L999.392 261.733ZM1127.52 263.676C1127.1 265.027 1126.63 266.358 1126.15 267.667L1127.75 268.258C1128.24 266.907 1128.7 265.555 1129.14 264.183L1127.52 263.676ZM629.53 264.478L627.968 265.196C628.559 266.491 629.129 267.78 629.678 269.061L631.24 268.406C630.691 267.097 630.121 265.788 629.53 264.478ZM37.0805 265.745C36.6794 267.097 36.2572 268.448 35.8351 269.8L37.4604 270.307C37.8826 268.955 38.3047 267.604 38.7058 266.231L37.0805 265.745ZM1078.51 267.857L1076.88 268.322C1077.26 269.673 1077.68 271.046 1078.13 272.418L1079.75 271.891C1079.31 270.539 1078.89 269.187 1078.51 267.857ZM998.167 272.081C997.956 273.474 997.703 274.868 997.449 276.304L999.117 276.621C999.392 275.206 999.624 273.812 999.856 272.397L998.167 272.081ZM1123.76 273.39C1123.19 274.699 1122.58 275.987 1121.99 277.233L1123.51 277.972C1124.12 276.705 1124.73 275.417 1125.32 274.087L1123.76 273.39ZM633.541 274.277L631.936 274.847C632.401 276.177 632.823 277.508 633.203 278.859L634.828 278.374C634.448 277.001 634.005 275.65 633.541 274.277ZM34.062 275.776C33.6398 277.128 33.2176 278.479 32.8165 279.831L34.4419 280.338C34.843 278.986 35.2651 277.635 35.6873 276.283L34.062 275.776ZM1082.03 277.761L1080.45 278.374C1080.98 279.704 1081.52 281.013 1082.09 282.344L1083.66 281.647C1083.09 280.359 1082.54 279.049 1082.03 277.761ZM996.331 282.597C996.035 283.97 995.761 285.364 995.465 286.821L997.133 287.159C997.407 285.786 997.703 284.392 997.998 282.935L996.331 282.597ZM1119.18 282.956C1118.51 284.181 1117.83 285.427 1117.07 286.652L1118.55 287.497C1119.27 286.244 1119.97 284.998 1120.66 283.759L1119.18 282.956ZM636.39 284.772L634.723 285.047C634.934 286.42 635.103 287.792 635.208 289.27L636.918 289.123C636.791 287.687 636.622 286.251 636.39 284.899V284.772ZM30.9379 286.145L29.6714 290.221L31.2967 290.728L32.5633 286.652L30.9379 286.145ZM1086.36 287.602L1084.84 288.362C1085.47 289.651 1086.13 290.918 1086.8 292.185L1088.3 291.382C1087.65 290.136 1086.99 288.869 1086.36 287.602ZM1113.8 292.227C1113.06 293.431 1112.3 294.613 1111.52 295.796L1112.95 296.725C1113.74 295.542 1114.5 294.339 1115.26 293.135L1113.8 292.227ZM994.115 293.135C993.84 294.55 993.566 295.944 993.333 297.359L995.001 297.654C995.254 296.282 995.508 294.888 995.782 293.431L994.115 293.135ZM635.272 295.627C635.272 297.021 635.272 298.414 635.082 299.85L636.791 299.977C636.904 298.569 636.967 297.161 636.981 295.754L635.272 295.627ZM27.6661 296.324C27.2651 297.675 26.8429 299.027 26.4207 300.378L28.0461 300.885C28.4682 299.534 28.8904 298.182 29.2914 296.81L27.6661 296.324ZM1091.28 296.915L1089.8 297.781C1090.54 299.006 1091.28 300.231 1092.04 301.434L1093.47 300.526C1092.73 299.344 1091.99 298.14 1091.36 296.915H1091.28ZM1107.97 301.033C1107.15 302.195 1106.31 303.335 1105.46 304.454L1106.83 305.489C1107.68 304.349 1108.52 303.187 1109.35 302.026L1107.97 301.033ZM992.341 303.673C992.172 305.109 992.004 306.524 991.877 307.896L993.566 308.065C993.692 306.672 993.861 305.257 994.03 303.842L992.341 303.673ZM1097.04 305.827L1095.65 306.798C1096.47 307.981 1097.29 309.163 1098.14 310.283L1099.51 309.269C1098.69 308.171 1097.86 307.009 1097.04 305.827ZM634.512 306.122C634.322 307.516 634.089 308.91 633.836 310.346L635.525 310.642C635.778 309.227 635.989 307.812 636.2 306.418L634.512 306.122ZM24.6265 306.481C24.2043 307.833 23.7822 309.185 23.3811 310.557L25.0064 311.043C25.4075 309.691 25.8297 308.34 26.2518 306.988L24.6265 306.481ZM1101.45 309.396C1100.56 310.494 1099.68 311.507 1098.75 312.669L1100.06 313.767C1100.99 312.669 1101.89 311.571 1102.78 310.473L1101.45 309.396ZM1103.24 314.211L1101.94 315.288C1102.86 316.428 1103.79 317.526 1104.72 318.561L1105.99 317.42C1105.08 316.407 1104.17 315.309 1103.24 314.211ZM991.37 314.211V315.098C991.37 316.238 991.37 317.378 991.37 318.519H993.08C993.08 317.399 993.08 316.301 993.08 315.182V314.316L991.37 314.211ZM632.527 316.322C632.211 317.695 631.873 319.068 631.535 320.44L633.182 320.863C633.541 319.49 633.857 318.096 634.174 316.639L632.527 316.322ZM21.4391 316.47C21.017 317.822 20.6159 319.173 20.1937 320.525L21.8191 321.032C22.2413 319.659 22.6634 318.307 23.0645 316.956L21.4391 316.47ZM1094.63 317.336L1091.76 320.44L1092.99 321.602C1093.98 320.588 1094.95 319.49 1095.9 318.476L1094.63 317.336ZM1110.42 321.897L1109.24 323.122C1109.96 323.798 1110.68 324.453 1111.35 325.044L1112.43 325.973L1113.52 324.685L1112.45 323.756C1111.77 323.186 1111.1 322.552 1110.34 321.897H1110.42ZM993.861 324.643L992.172 324.938C992.426 326.353 992.721 327.768 993.101 329.162L994.748 328.74C994.389 327.388 994.093 326.015 993.861 324.643ZM1087.2 324.96C1086.21 325.952 1085.09 326.923 1084.14 327.874L1085.3 329.12C1086.36 328.148 1087.41 327.177 1088.41 326.163L1087.2 324.96ZM629.783 326.564C629.382 327.937 628.96 329.289 628.559 330.619L630.163 331.126C630.586 329.795 631.008 328.423 631.409 327.029L629.783 326.564ZM18.2729 326.564L17.0486 330.64L18.6951 331.126L19.8982 327.05L18.2729 326.564ZM1118.4 328.676L1117.37 330.028L1120.76 332.604L1121.78 331.231L1118.4 328.676ZM1079.43 332.14L1076.18 334.885L1077.28 336.194C1078.38 335.286 1079.39 334.357 1080.53 333.428L1079.43 332.14ZM996.753 334.695L995.191 335.349C995.74 336.68 996.373 337.989 997.048 339.256L998.547 338.433C997.886 337.218 997.287 335.971 996.753 334.695ZM1126.95 334.948L1125.98 336.342L1129.48 338.771L1130.45 337.356L1126.95 334.948ZM626.68 336.701V336.954C626.279 338.2 625.815 339.446 625.351 340.671L626.955 341.284C627.419 340.016 627.884 338.771 628.306 337.482V337.25L626.68 336.701ZM15.3599 336.87C14.98 338.243 14.5789 339.615 14.1989 340.967L15.8243 341.431C16.2254 340.08 16.6053 338.707 17.0064 337.356L15.3599 336.87ZM1071.33 338.834L1070.97 339.108L1067.95 341.368L1068.94 342.741C1069.98 342.002 1071.05 341.241 1072 340.46L1072.36 340.185L1071.33 338.834ZM1135.82 340.946L1134.87 342.361L1138.39 344.747L1139.36 343.353L1135.82 340.946ZM1002.07 343.649L1000.74 344.705C1001.65 345.848 1002.62 346.934 1003.66 347.957L1004.84 346.732C1003.86 345.76 1002.93 344.731 1002.07 343.649ZM1062.72 344.958C1061.53 345.718 1060.35 346.457 1059.13 347.175L1059.99 348.654C1061.24 347.914 1062.44 347.175 1063.65 346.394L1062.72 344.958ZM622.881 346.542C622.311 347.83 621.72 349.118 621.108 350.385L622.628 351.124C623.261 349.836 623.852 348.548 624.443 347.239L622.881 346.542ZM1144.62 346.964L1143.67 348.442L1147.13 350.913L1148.12 349.519L1144.64 347.049L1144.62 346.964ZM12.4892 347.197C12.1092 348.569 11.7293 349.942 11.3704 351.42L13.0169 351.863C13.3757 350.491 13.7557 349.139 14.1356 347.767L12.4892 347.197ZM1053.6 350.259C1052.33 350.871 1051.06 351.462 1049.78 351.99L1050.43 353.574C1051.76 353.004 1053.07 352.413 1054.36 351.779L1053.6 350.259ZM1009.69 350.702L1008.76 352.138C1009.98 352.923 1011.25 353.629 1012.56 354.25L1013.3 352.708C1012.05 352.088 1010.85 351.383 1009.69 350.596V350.702ZM1153.23 353.257L1152.11 354.778C1153.23 355.644 1154.33 356.531 1155.4 357.417L1156.5 356.108C1155.4 355.2 1154.28 354.313 1153.15 353.426L1153.23 353.257ZM533.782 353.975C532.516 353.975 531.249 353.975 529.983 354.144L530.131 355.834C531.355 355.728 532.558 355.665 533.782 355.665H534.289V353.975H533.782ZM1043.74 354.186C1042.96 354.419 1042.16 354.651 1041.33 354.841C1040.51 355.031 1040.26 355.116 1039.69 355.221L1040.05 356.89L1041.76 356.488C1042.58 356.277 1043.42 356.066 1044.25 355.813L1043.74 354.186ZM540.79 354.503L540.537 356.193C541.909 356.404 543.281 356.657 544.632 356.974L545.033 355.327C543.626 354.989 542.219 354.714 540.811 354.503H540.79ZM1019.13 354.778L1018.68 356.425C1020.07 356.801 1021.48 357.104 1022.91 357.333L1023.16 355.644C1021.8 355.437 1020.45 355.147 1019.13 354.778ZM523.671 355.2L522.869 355.454C521.738 355.811 520.631 356.241 519.555 356.742L520.273 358.283C521.278 357.811 522.315 357.409 523.376 357.08L524.136 356.847L523.671 355.2ZM1033.61 356.003C1032.34 356.003 1031.08 356.15 1029.81 356.15H1029.43V357.861H1029.68C1030.99 357.861 1032.32 357.861 1033.61 357.692V356.003ZM618.195 356.003C617.519 357.227 616.802 358.452 616.084 359.656L617.541 360.522C618.279 359.318 618.997 358.072 619.651 356.826L618.195 356.003ZM551.345 356.953L550.796 358.558C552.126 359.001 553.434 359.508 554.722 360.036L555.376 358.452C554.046 357.903 552.717 357.417 551.345 356.953ZM9.74507 357.417C9.38623 358.79 9.02739 360.163 8.68965 361.641L10.3361 362.063C10.6738 360.691 11.0327 359.318 11.3915 357.945L9.74507 357.417ZM513.962 360.163C512.806 361.066 511.726 362.062 510.732 363.14L511.977 364.281C512.919 363.277 513.935 362.345 515.017 361.493L513.962 360.163ZM1161.42 360.163L1160.26 361.409C1161.29 362.359 1162.37 363.352 1163.28 364.344L1164.5 363.162C1163.51 362.148 1162.39 361.05 1161.42 360.163ZM561.223 361.113L560.463 362.612C561.702 363.274 562.926 363.978 564.136 364.724L565.002 363.267C563.756 362.528 562.511 361.852 561.223 361.155V361.113ZM612.643 364.957C611.841 366.118 611.018 367.258 610.174 368.399L611.546 369.412C612.39 368.272 613.234 367.111 614.036 365.928L612.643 364.957ZM570.427 366.73L569.434 368.124C570.595 368.927 571.714 369.771 572.812 370.658L573.867 369.307C572.748 368.42 571.588 367.554 570.427 366.73ZM7.19095 367.765C6.85321 369.138 6.53661 370.532 6.21997 371.989L7.88753 372.369L8.8374 368.145L7.19095 367.765ZM1168.79 368.04L1167.46 369.117C1168.34 370.215 1169.17 371.229 1169.97 372.474L1171.36 371.503C1170.54 370.32 1169.69 369.18 1168.79 368.04ZM506.996 368.547C506.332 369.895 505.816 371.311 505.455 372.77L507.122 373.192C507.438 371.869 507.905 370.586 508.516 369.37L506.996 368.547ZM606.205 373.34C605.298 374.417 604.369 375.452 603.419 376.487L604.664 377.648C605.635 376.592 606.585 375.537 607.514 374.438L606.205 373.34ZM578.764 373.53L577.603 374.776C578.617 375.727 579.714 376.719 580.601 377.733L581.825 376.55C580.833 375.515 579.714 374.438 578.764 373.53ZM1174.74 377.036L1173.22 378.007C1173.87 379.232 1174.46 380.499 1175.01 381.787L1176.58 381.133C1176.01 379.781 1175.39 378.493 1174.72 377.226L1174.74 377.036ZM4.93236 378.345C4.63684 379.739 4.34132 381.133 4.06691 382.569L5.7345 382.907C6.0089 381.513 6.3044 380.119 6.59991 378.683L4.93236 378.345ZM506.806 379.338L505.096 379.528C505.264 381.003 505.597 382.456 506.088 383.857L507.692 383.287C507.236 382.012 506.938 380.685 506.806 379.338ZM599.092 381.175C598.079 382.146 596.981 383.076 595.968 383.984L597.086 385.272C598.163 384.343 599.197 383.392 600.253 382.4L599.092 381.175ZM586.173 381.534L584.865 382.632C585.772 383.709 586.638 384.744 587.482 385.948L588.833 384.913C587.968 383.772 587.102 382.653 586.173 381.534ZM1178.77 387.257L1177.12 387.7C1177.48 389.01 1177.8 390.382 1178.05 391.776L1179.74 391.459C1179.47 390.023 1179.15 388.608 1178.77 387.236V387.257ZM591.028 387.912C589.91 388.756 588.77 389.559 587.588 390.34L588.538 391.755C589.741 390.952 590.902 390.129 592.042 389.284L591.028 387.912ZM510.415 388.566L509.043 389.58C509.922 390.756 510.896 391.858 511.956 392.874L513.138 391.671C512.151 390.708 511.241 389.67 510.415 388.566ZM2.67375 388.714C2.42046 390.108 2.16716 391.502 1.93497 392.938L3.60252 393.233C3.83472 391.839 4.08801 390.446 4.34132 389.01L2.67375 388.714ZM592.337 390.129L590.902 391.058C591.662 392.241 592.379 393.444 593.013 394.648L594.49 393.803C593.772 392.55 593.034 391.326 592.274 390.129H592.337ZM582.184 393.55C580.96 394.247 579.714 394.88 578.448 395.514L579.208 397.034C580.495 396.401 581.762 395.746 583.007 395.028L582.184 393.55ZM518.12 395.514L517.17 396.929C518.385 397.697 519.639 398.402 520.927 399.041L521.708 397.541C520.477 396.9 519.279 396.195 518.12 395.429V395.514ZM1180.48 397.689H1178.77C1178.77 398.914 1178.9 400.139 1178.9 401.427V401.87H1180.59V401.406C1180.59 400.096 1180.59 398.808 1180.46 397.562L1180.48 397.689ZM572.664 397.837C571.355 398.344 570.025 398.808 568.696 399.252L569.223 400.878C570.631 400.441 571.982 399.956 573.276 399.421L572.664 397.837ZM0.921753 399.125C0.710663 400.519 0.499588 401.934 0.309601 403.349L1.97717 403.581C2.18826 402.187 2.37823 400.772 2.61043 399.357L0.921753 399.125ZM597.572 399.4L596.052 400.139C596.664 401.406 597.234 402.694 597.783 403.982L599.345 403.306C598.796 401.997 598.205 400.688 597.572 399.4ZM527.344 400.033L526.774 401.638C528.146 402.124 529.518 402.546 530.996 402.905L531.418 401.258C530.088 400.92 528.737 400.498 527.429 400.033H527.344ZM562.616 401.068C561.209 401.378 559.837 401.652 558.5 401.891L558.796 403.581C560.21 403.327 561.624 403.053 563.018 402.736L562.616 401.068ZM537.582 402.462L537.371 404.151L538.848 404.32L541.656 404.531L541.761 402.821C540.854 402.821 539.925 402.821 539.017 402.609L537.582 402.462ZM552.252 402.694C550.88 402.8 549.466 402.884 548.031 402.926V404.616C549.466 404.616 550.901 404.616 552.252 404.383V402.694ZM1178.52 408.269C1178.39 409.642 1178.2 411.014 1177.99 412.493L1179.66 412.746C1179.89 411.289 1180.08 409.874 1180.21 408.522L1178.52 408.269ZM601.73 409.325L600.126 409.874C600.569 411.204 600.992 412.556 601.393 413.908L603.018 413.422C602.617 412.049 602.195 410.698 601.73 409.325ZM-0.408066 409.684C-0.576935 411.099 -0.724701 412.514 -0.872452 413.908L0.816223 414.076C0.963974 412.683 1.11174 411.268 1.28061 409.853L-0.408066 409.684ZM1176.74 418.617C1176.41 419.989 1176.03 421.341 1175.63 422.671L1177.25 423.178C1177.67 421.806 1178.05 420.433 1178.39 418.955L1176.74 418.617ZM604.707 419.673L603.039 420.032C603.335 421.404 603.588 422.777 603.799 424.255L605.488 423.981C605.255 422.587 605.002 421.172 604.707 419.757V419.673ZM-1.35794 420.391C-1.35794 421.806 -1.56903 423.22 -1.65346 424.614H0.035202C0.119644 423.206 0.225189 421.799 0.351837 420.391H-1.35794ZM1173.68 428.838C1173.2 430.147 1172.67 431.456 1172.14 432.766L1173.7 433.42C1174.25 432.097 1174.78 430.767 1175.29 429.429L1173.68 428.838ZM606.247 430.464L604.559 430.612C604.664 432.005 604.77 433.42 604.812 434.835H606.522C606.522 433.42 606.374 431.984 606.247 430.612V430.464ZM-1.97009 431.266C-1.97009 432.702 -1.97009 434.117 -2.09676 435.49H-0.386963C-0.386963 434.075 -0.386963 432.66 -0.386963 431.266H-1.97009ZM1169.55 438.742C1168.96 440.03 1168.36 441.297 1167.75 442.585L1169.29 443.325C1169.91 442.036 1170.5 440.727 1171.09 439.439L1169.55 438.742ZM604.791 441.297C604.791 442.691 604.685 444.106 604.58 445.521L606.269 445.647C606.374 444.211 606.438 442.797 606.48 441.424L604.791 441.297ZM-0.47139 441.931H-2.18117C-2.18117 443.346 -2.18117 444.761 -2.18117 446.154H-0.492508C-0.492508 444.739 -0.492508 443.325 -0.492508 441.931H-0.47139ZM1164.99 448.266L1163.15 452.11L1164.69 452.828L1166.53 449.005L1164.99 448.266ZM315.986 449.808C314.93 449.808 313.875 449.808 312.82 449.808V451.497H315.901H317.02V449.808H315.88H315.986ZM323.479 450.251L323.268 451.941L325.041 452.194L327.427 452.595L327.722 450.906L325.295 450.505L323.479 450.251ZM306.297 450.505C304.883 450.695 303.469 450.948 302.075 451.223L302.413 452.891C303.785 452.616 305.178 452.384 306.635 452.173L306.297 450.505ZM603.672 451.603C603.503 452.996 603.271 454.39 603.039 455.826L604.707 456.122C604.96 454.707 605.171 453.292 605.361 451.898L603.672 451.603ZM-0.323639 452.3L-2.01231 452.426C-1.92789 453.834 -1.82234 455.242 -1.69568 456.65L-0.00700378 456.502C-0.133652 455.108 -0.239197 453.693 -0.323639 452.278V452.3ZM333.991 452.278L333.548 453.926C334.899 454.306 336.229 454.728 337.538 455.172L338.107 453.567C336.757 453.102 335.384 452.68 333.991 452.278ZM295.806 452.701C294.413 453.102 293.062 453.546 291.711 454.01L292.26 455.615C293.59 455.15 294.92 454.728 296.271 454.348L295.806 452.701ZM344.081 455.932L343.385 457.473C344.672 458.065 345.918 458.677 347.142 459.311L347.944 457.811C346.677 457.157 345.39 456.523 344.081 455.932ZM285.695 456.333C284.387 456.903 283.078 457.495 281.79 458.128L282.529 459.649C283.796 459.036 285.083 458.445 286.371 457.896L285.695 456.333ZM1160.22 457.727C1159.65 459.036 1159.06 460.345 1158.51 461.655L1160.07 462.309C1160.62 461.014 1161.19 459.726 1161.78 458.445L1160.22 457.727ZM353.495 461.063L352.588 462.499C353.749 463.26 354.91 464.041 356.05 464.865L357.042 463.492C355.881 462.647 354.699 461.845 353.495 461.063ZM276.091 461.063C274.846 461.781 273.621 462.499 272.418 463.175L273.305 464.632C274.508 463.872 275.711 463.154 276.935 462.521L276.091 461.063ZM601.773 461.887C601.435 463.239 601.097 464.611 600.717 465.963L602.364 466.427C602.744 465.055 603.102 463.661 603.419 462.204L601.773 461.887ZM0.626236 462.753L-1.06242 462.943C-0.893555 464.358 -0.724701 465.773 -0.513626 467.167L1.17506 466.934C0.963974 465.519 0.795105 464.126 0.626236 462.711V462.753ZM267.057 466.765C265.874 467.61 264.735 468.455 263.595 469.321L264.629 470.672C265.748 469.806 266.888 468.983 268.028 468.159L267.057 466.765ZM362.044 467.357L360.947 468.666C362.023 469.574 363.058 470.503 364.092 471.453L365.253 470.207C364.219 469.236 363.142 468.286 362.044 467.357ZM1156.14 467.568C1155.68 468.976 1155.26 470.348 1154.88 471.686L1156.5 472.15C1156.88 470.799 1157.3 469.468 1157.75 468.117L1156.14 467.568ZM598.881 471.981C598.437 473.312 597.973 474.642 597.466 475.973L599.071 476.564C599.577 475.233 600.042 473.882 600.506 472.53L598.881 471.981ZM2.16716 473.185L0.478485 473.481C0.731781 474.874 0.985092 476.289 1.25949 477.704L2.92706 477.366C2.65265 475.994 2.39935 474.6 2.16716 473.143V473.185ZM258.634 473.312L257.516 474.283L255.405 476.163L256.566 477.409L258.677 475.571L259.774 474.621L258.634 473.312ZM369.897 474.684L368.672 475.867C369.622 476.881 370.593 477.979 371.522 478.971L372.789 477.831C371.839 476.775 370.868 475.719 369.897 474.684ZM1153.46 477.937C1153.19 479.351 1152.98 480.766 1152.79 482.16L1154.47 482.371C1154.66 480.999 1154.88 479.605 1155.13 478.148L1153.46 477.937ZM250.803 480.597C249.79 481.611 248.692 482.709 247.806 483.659L249.051 484.821C250.022 483.807 250.993 482.709 252.006 481.801L250.803 480.597ZM595.102 481.801C594.532 483.089 593.962 484.377 593.35 485.645L594.891 486.384C595.503 485.095 596.094 483.786 596.664 482.477L595.102 481.801ZM376.947 482.73L375.617 483.807C376.504 484.905 377.369 485.919 378.235 487.144L379.585 486.088L376.947 482.73ZM4.34132 483.596L2.67375 483.997C3.01149 485.37 3.34921 486.764 3.70805 488.221L5.35452 487.799C4.98865 486.391 4.65091 485.018 4.34132 483.681V483.596ZM243.563 488.538L240.755 491.769L242.043 492.867L244.829 489.678L243.563 488.538ZM1152.36 488.791C1152.36 489.509 1152.36 490.227 1152.36 490.903C1152.36 491.579 1152.36 492.339 1152.36 493.015H1154.07C1154.07 492.297 1154.07 491.6 1154.07 490.903C1154.07 490.206 1154.07 489.509 1154.07 488.791H1152.36ZM383.49 491.41L382.097 492.402C382.921 493.564 383.744 494.704 384.546 495.887L385.939 494.915C385.137 493.733 384.314 492.571 383.49 491.41ZM590.585 491.41C589.91 492.634 589.234 493.88 588.474 495.105L589.931 495.95C590.648 494.711 591.352 493.465 592.042 492.212L590.585 491.41ZM7.0432 493.902L5.41785 494.387C5.81891 495.76 6.24109 497.133 6.68436 498.484L8.28859 497.956C7.86642 496.605 7.44426 495.274 7.0432 493.902ZM236.66 496.668L234.001 500.005L235.331 501.061L237.99 497.745L236.66 496.668ZM1154.58 499.308L1152.89 499.519C1153.06 500.955 1153.29 502.37 1153.57 503.742L1155.23 503.405C1154.98 502.032 1154.75 500.659 1154.58 499.181V499.308ZM389.528 500.047L388.113 500.997C388.873 502.18 389.654 503.362 390.435 504.545L391.849 503.616L389.528 500.047ZM585.245 500.448C584.485 501.652 583.704 502.813 582.902 503.975L584.316 504.946C585.118 503.764 585.899 502.581 586.659 501.377L585.245 500.448ZM10.3572 503.954L8.77408 504.545C9.25253 505.953 9.75914 507.283 10.2939 508.536L11.877 507.924C11.3493 506.614 10.8427 505.284 10.3572 503.954ZM230.075 505.052L227.563 508.452L228.914 509.486C229.758 508.346 230.623 507.206 231.489 506.087L230.075 505.052ZM395.311 509.127L393.855 510.036C394.636 511.239 395.375 512.443 396.134 513.647L397.591 512.739L395.311 509.127ZM579.208 509.275C578.363 510.395 577.498 511.514 576.611 512.612L577.941 513.668C578.828 512.549 579.693 511.429 580.559 510.289L579.208 509.275ZM1156.73 509.571L1155.11 510.057C1155.51 511.429 1155.95 512.781 1156.44 514.132L1158.04 513.562C1157.56 512.232 1157.13 510.922 1156.73 509.571ZM223.742 513.583L221.23 517.004L222.581 518.018L225.114 514.597L223.742 513.583ZM14.3678 513.773L12.8058 514.449C13.3968 515.758 13.9879 517.068 14.6211 518.335L16.1409 517.596C15.5288 516.329 14.9377 515.062 14.3678 513.773ZM572.601 517.511C571.693 518.567 570.764 519.623 569.793 520.7L571.081 521.84C572.031 520.742 572.981 519.729 573.888 518.609L572.601 517.511ZM401.01 518.145L399.575 519.053C400.335 520.257 401.095 521.46 401.876 522.643L403.29 521.735L401.01 518.145ZM1160.55 519.496L1159.01 520.214C1159.63 521.502 1160.26 522.791 1160.96 524.058L1162.45 523.234C1161.78 522.009 1161.15 520.742 1160.55 519.496ZM217.494 522.242L214.961 525.663L216.333 526.676L218.866 523.255L217.494 522.242ZM19.075 523.361L17.5763 524.163C18.2517 525.43 18.9554 526.676 19.6871 527.901L21.1647 527.056C20.447 525.832 19.7716 524.607 19.0539 523.361H19.075ZM565.55 525.473C564.58 526.486 563.609 527.584 562.616 528.535L563.82 529.717C564.833 528.704 565.93 527.606 566.775 526.634L565.55 525.473ZM406.794 527.162L405.38 528.112L407.744 531.66L409.158 530.71C408.356 529.548 407.575 528.366 406.794 527.162ZM1165.62 528.64L1164.18 529.569C1164.97 530.773 1165.79 531.956 1166.63 533.117L1168.01 532.125C1167.18 530.984 1166.38 529.823 1165.62 528.64ZM211.098 530.752L208.502 534.11L209.853 535.166L212.449 531.787L211.098 530.752ZM24.4154 532.484L22.9801 533.392C23.74 534.596 24.5421 535.778 25.3442 536.961L26.7374 535.989C25.9563 534.849 25.1753 533.666 24.4154 532.484ZM558.099 533.054C557.086 534.025 555.988 534.997 555.017 535.968L556.199 537.214L559.281 534.279L558.099 533.054ZM412.768 535.968L411.375 536.961C412.198 538.122 413.042 539.284 413.887 540.424L415.238 539.41L412.768 535.968ZM1171.91 537.109L1170.6 538.207C1171.53 539.284 1172.48 540.318 1173.45 541.417L1174.7 540.255C1173.75 539.22 1172.82 538.143 1171.91 537.109ZM204.533 539.094C203.647 540.192 202.739 541.205 201.832 542.367L203.14 543.465L205.863 540.171L204.533 539.094ZM550.331 540.255L547.123 543.043L548.221 544.331C549.318 543.402 550.331 542.472 551.45 541.522L550.331 540.255ZM30.4524 541.142L29.1015 542.156C29.9599 543.296 30.8464 544.415 31.7611 545.513L33.0699 544.436C32.1833 543.359 31.3179 542.325 30.4524 541.142ZM419.122 544.436L417.792 545.513C418.678 546.633 419.586 547.731 420.494 548.808L421.802 547.71C420.895 546.633 419.987 545.598 419.122 544.436ZM1179.17 544.732L1178.01 545.978C1179.05 546.949 1180.12 547.9 1181.2 548.829L1182.3 547.541C1181.24 546.633 1180.19 545.682 1179.17 544.732ZM542.078 546.949C540.98 547.836 539.862 548.702 538.743 549.568L539.777 550.92C540.896 550.033 542.036 549.167 543.133 548.259L542.078 546.949ZM197.547 546.949L194.697 550.096L195.942 551.236C196.913 550.202 197.863 549.125 198.813 548.09L197.547 546.949ZM37.1227 549.061L35.8773 550.223C36.8342 551.279 37.8052 552.313 38.7902 553.327L40.0145 552.144C39.0435 551.131 38.0726 550.033 37.1227 549.061ZM-130.014 551.173H-130.562V552.862H-129.993L-130.014 551.173ZM-123.576 551.3L-123.702 552.989C-122.295 553.088 -120.888 553.235 -119.481 553.433L-119.248 551.743C-120.663 551.553 -122.077 551.405 -123.47 551.3H-123.576ZM1187.36 551.3L1186.33 552.651C1187.45 553.517 1188.61 554.341 1189.79 555.164L1190.76 553.77C1189.6 552.968 1188.46 552.144 1187.36 551.3ZM425.982 552.334L424.736 553.496C425.728 554.531 426.721 555.608 427.734 556.558L428.937 555.333C427.924 554.362 426.932 553.348 425.982 552.334ZM-112.937 553.095L-113.338 554.763C-111.966 555.101 -110.636 555.481 -109.306 555.903L-108.779 554.298C-110.13 553.855 -111.523 553.454 -113 553.095H-112.937ZM533.677 553.411C532.537 554.235 531.376 555.037 530.215 555.84L531.165 557.234C532.347 556.431 533.508 555.608 534.669 554.784L533.677 553.411ZM190.327 554.784C189.335 555.798 188.322 556.769 187.309 557.741L188.47 558.987L191.531 555.988L190.327 554.784ZM44.5106 556.621L43.3497 557.888C44.384 558.839 45.4605 559.789 46.537 560.739L47.6557 559.43C46.5792 558.522 45.5449 557.572 44.5106 556.621ZM-102.826 556.621L-103.523 558.163C-102.256 558.733 -101.011 559.367 -99.7864 560.042L-98.9632 558.543C-100.23 557.867 -101.496 557.213 -102.826 556.621ZM1195.81 557.424L1194.88 558.839C1196.08 559.62 1197.28 560.38 1198.51 561.119L1199.39 559.662C1198.19 558.923 1196.99 558.184 1195.81 557.424ZM524.896 559.303C523.714 560.042 522.51 560.782 521.286 561.415L522.152 562.893C523.376 562.154 524.6 561.415 525.803 560.655L524.896 559.303ZM433.517 559.557L432.42 560.866C433.517 561.795 434.636 562.682 435.776 563.548L436.81 562.196C435.692 561.352 434.7 560.465 433.517 559.557ZM182.602 561.985C181.546 562.914 180.491 563.822 179.372 564.688L180.428 566.019C181.546 565.132 182.644 564.203 183.721 563.273L182.602 561.985ZM-93.4961 561.985L-94.4671 563.379C-93.3273 564.181 -92.2296 565.026 -91.1531 565.913L-90.0766 564.604C-91.1742 563.696 -92.3141 562.809 -93.4961 561.985ZM1204.84 562.914L1204 564.393L1207.71 566.504L1208.53 565.005L1204.84 562.893V562.914ZM52.5529 563.4L51.5186 564.752C52.6584 565.617 53.7983 566.462 54.9593 567.286L55.9514 565.913L52.5529 563.4ZM515.756 564.583C514.51 565.258 513.265 565.892 511.998 566.526L512.758 568.046C514.025 567.412 515.291 566.779 516.558 566.103L515.756 564.583ZM441.876 565.765L440.969 567.201C442.172 567.962 443.417 568.701 444.663 569.313L445.486 567.814C444.262 567.159 443.058 566.441 441.876 565.702V565.765ZM1214.06 567.814L1213.28 569.334L1217.08 571.256L1217.84 569.735C1216.58 569.102 1215.31 568.468 1214.06 567.814ZM174.264 568.405C173.124 569.222 171.963 570.024 170.781 570.812L171.731 572.227C172.913 571.425 174.095 570.622 175.256 569.778L174.264 568.405ZM-85.3694 568.87L-86.5937 570.052C-85.6227 571.045 -84.6939 572.164 -83.8074 573.157L-82.4987 572.08C-83.4063 570.96 -84.3773 569.968 -85.3694 568.87ZM506.194 569.039C504.906 569.588 503.597 570.116 502.289 570.601L502.88 572.185C504.209 571.699 505.539 571.15 506.869 570.601L506.194 569.039ZM61.1651 569.334L60.2364 570.77L61.7351 571.699L63.8459 572.988L64.6902 571.531L62.5794 570.242L61.1018 569.334H61.1651ZM451.101 570.496L450.446 572.058C451.755 572.607 453.085 573.135 454.457 573.6L455.006 571.995C453.676 571.53 452.388 571.045 451.101 570.496ZM1223.54 572.481L1222.82 574.022L1226.71 575.796L1227.4 574.234L1223.54 572.481ZM496.231 572.629C494.88 573.03 493.529 573.389 492.178 573.727L492.579 575.374C493.951 575.036 495.344 574.677 496.8 574.255L496.231 572.629ZM461.022 573.769L460.621 575.416C461.993 575.754 463.407 576.029 464.842 576.282L465.138 574.614C463.745 574.36 462.373 574.086 461.043 573.769H461.022ZM165.525 574.149C164.301 574.846 163.077 575.522 161.831 576.261L162.612 577.781C163.879 577.127 165.124 576.43 166.369 575.67L165.525 574.149ZM70.3895 574.55L69.6085 576.071C70.8961 576.704 72.1837 577.338 73.4714 577.929L74.189 576.388C72.9085 575.796 71.642 575.184 70.3895 574.55ZM486.225 574.952C484.832 575.163 483.439 575.311 482.003 575.437L482.13 577.127C483.565 577.021 484.98 576.852 486.352 576.62L486.225 574.952ZM471.576 575.374L471.449 577.063C472.842 577.19 474.278 577.253 475.671 577.296V575.585C474.257 575.585 472.842 575.585 471.449 575.374H471.576ZM1233.29 576.747L1232.62 578.309L1236.54 579.956L1237.2 578.373L1233.29 576.747ZM-78.5092 577.422L-79.9234 578.373C-79.1495 579.541 -78.4458 580.724 -77.8126 581.92L-76.335 581.076C-77.0527 579.83 -77.8126 578.605 -78.6147 577.422H-78.5092ZM79.9516 579.006L79.3395 580.59C80.6693 581.118 81.9991 581.604 83.3501 582.068L83.92 580.463C82.5902 579.999 81.2603 579.513 79.9516 579.006ZM156.047 579.006C154.76 579.555 153.451 580.083 152.142 580.569L152.755 582.174C154.084 581.667 155.414 581.139 156.723 580.569L156.047 579.006ZM1243.13 580.907L1242.5 582.491L1246.47 584.032L1247.08 582.448L1243.13 580.907ZM89.9781 582.322L89.5137 583.948C90.8858 584.349 92.2789 584.708 93.7354 585.046L94.1365 583.378C92.7644 583.061 91.4135 582.702 90.0626 582.322H89.9781ZM146.253 582.575C144.923 582.976 143.551 583.335 142.2 583.673L142.601 585.32C143.995 584.982 145.367 584.624 146.823 584.201L146.253 582.575ZM1253.14 584.687L1252.54 586.292L1256.56 587.728L1257.13 586.123L1253.14 584.687ZM100.342 584.687L100.026 586.355C101.44 586.609 102.854 586.841 104.247 587.031L104.48 585.363C103.086 585.151 101.693 584.94 100.258 584.687H100.342ZM135.931 584.961C134.524 585.201 133.117 585.412 131.709 585.595L131.921 587.284C133.356 587.094 134.77 586.883 136.142 586.63L135.931 584.961ZM110.601 586.059L110.474 587.749C111.889 587.854 113.324 587.939 114.696 588.002V586.313C113.282 586.313 111.868 586.165 110.474 586.059H110.601ZM125.25 586.186C123.836 586.186 122.443 586.334 121.029 586.376V588.066C122.464 588.066 123.878 588.066 125.25 587.897V586.186ZM-73.5487 586.777L-75.1107 587.474C-74.5197 588.741 -73.9709 590.051 -73.4643 591.36L-71.8811 590.748C-72.4088 589.396 -72.9577 588.066 -73.5487 586.777ZM1262.82 588.214L1262.28 589.818L1266.31 591.191L1266.86 589.586L1262.82 588.214ZM1272.89 591.613L1272.37 593.218L1276.4 594.549L1276.92 592.944L1272.89 591.613ZM1283 594.908L1282.48 596.534L1286.53 597.822L1287.06 596.196L1283 594.908ZM-69.8336 596.872L-71.4801 597.336C-71.079 598.667 -70.7413 600.039 -70.4246 601.412L-68.7782 601.032C-69.0948 599.617 -69.4326 598.244 -69.8336 596.808V596.872ZM1293.14 598.076L1292.61 599.702L1296.66 600.99L1297.19 599.364L1293.14 598.076ZM1303.27 601.306L1302.76 602.933L1306.81 604.242L1307.32 602.616L1303.27 601.306ZM1313.4 604.58L1312.87 606.206L1316.93 607.536L1317.45 605.931L1313.4 604.58ZM-67.6172 607.325L-69.3059 607.557C-69.0948 608.93 -68.9471 610.324 -68.8204 611.781L-67.1317 611.633C-67.2584 610.197 -67.4062 608.761 -67.6172 607.41V607.325ZM1323.43 608.043L1322.88 609.648L1326.91 611.042L1327.48 609.437L1323.43 608.043ZM1333.5 611.57L1332.93 613.175L1336.94 614.632L1337.53 613.027L1333.5 611.57ZM1343.48 615.286L1342.87 616.87L1346.73 618.391L1347.34 616.807L1343.46 615.286H1343.48ZM-66.5618 618.137H-68.2716V618.75C-68.2716 619.975 -68.2716 621.199 -68.2716 622.445H-66.5829C-66.5829 621.199 -66.5829 619.932 -66.5829 618.686L-66.5618 618.137ZM1353.76 619.257L1353.13 620.819L1357.05 622.424L1357.71 620.862L1353.76 619.257ZM1363.6 623.311L1362.94 624.874L1366.87 626.521L1367.52 624.958L1363.6 623.311ZM1373.41 627.535L1372.74 629.097L1376.64 630.787L1377.32 629.224L1373.41 627.535ZM-68.8626 628.739C-69.0315 630.111 -69.2426 631.505 -69.4959 632.962L-67.8072 633.258C-67.5821 631.85 -67.371 630.442 -67.174 629.034L-68.8626 628.739ZM1383.16 631.779L1382.49 633.342L1386.37 635.053L1387.05 633.511L1383.16 631.779ZM1392.87 636.109L1392.18 637.671L1396.06 639.424L1396.76 637.882L1392.87 636.109ZM-70.8046 639.002C-70.9524 639.593 -71.1001 640.184 -71.269 640.776C-71.4379 641.367 -71.6912 642.296 -71.9234 643.056L-70.298 643.542C-70.0658 642.782 -69.8547 642 -69.6225 641.219C-69.3903 640.438 -69.3059 640.015 -69.1581 639.403L-70.8046 639.002ZM1402.56 640.438L1401.84 642L1405.71 643.774L1406.42 642.233L1402.56 640.438ZM1412.21 644.936L1411.49 646.477L1415.33 648.294L1416.05 646.752L1412.21 644.936ZM-73.8231 649.159C-74.2734 650.483 -74.7378 651.813 -75.2163 653.151L-73.612 653.742C-73.1265 652.39 -72.6621 651.06 -72.1978 649.708L-73.8231 649.159ZM1421.83 649.561L1421.1 651.081L1424.94 652.939L1425.68 651.398L1421.83 649.561ZM1431.42 654.185L1430.66 655.706L1434.48 657.585L1435.24 656.065L1431.42 654.185ZM1440.96 658.874L1440.2 660.415L1444 662.295L1444.76 660.774L1440.96 658.874ZM-77.4749 659.085C-78.0026 660.415 -78.5303 661.724 -79.0791 663.034L-77.5171 663.667C-76.9683 662.358 -76.4194 661.049 -75.9128 659.718L-77.4749 659.085ZM1450.48 663.646L1449.74 665.209L1453.52 667.109L1454.3 665.589L1450.5 663.688L1450.48 663.646ZM1459.98 668.482L1459.22 670.003L1463 671.945L1463.78 670.425L1459.98 668.482ZM-81.5488 668.926L-83.2586 672.811L-81.6965 673.508L-79.9868 669.601L-81.5488 668.926ZM1469.45 673.339L1468.67 674.86L1472.45 676.802L1473.23 675.303L1469.45 673.339ZM1478.89 678.239L1478.11 679.738L1481.87 681.723L1482.67 680.202L1478.89 678.239ZM-85.876 678.64L-87.6069 682.504L-86.066 683.222C-85.4749 681.913 -84.905 680.625 -84.314 679.337L-85.876 678.64ZM1488.3 683.18L1487.52 684.679L1491.28 686.664L1492.08 685.165L1488.3 683.18ZM1497.72 688.143L1496.92 689.642L1500.67 691.627L1501.48 690.128L1497.72 688.143ZM-90.2243 688.333C-90.8154 689.642 -91.3853 690.93 -91.9552 692.24L-90.3932 692.915L-88.6834 689.03L-90.2243 688.333ZM1507.11 693.127L1506.31 694.626L1510.05 696.632L1510.85 695.133L1507.11 693.127ZM-94.4882 698.047C-95.0371 699.356 -95.5859 700.666 -96.0925 701.996L-94.5305 702.63C-94.0027 701.32 -93.475 700.011 -92.9262 698.702L-94.4882 698.047ZM1516.44 698.047L1515.64 699.546L1519.38 701.658L1520.18 700.159L1516.44 698.153V698.047ZM1525.81 703.179L1524.99 704.678L1528.75 706.79L1529.55 705.29L1525.81 703.179ZM-98.3933 707.972C-98.8788 709.324 -99.3432 710.654 -99.8076 712.027L-98.1822 712.555C-97.7319 711.232 -97.2675 709.901 -96.7891 708.564L-98.3933 707.972ZM1535.17 708.162L1534.36 709.641L1538.1 711.752L1538.9 710.253L1535.17 708.141V708.162ZM1662.26 712.703H1661.56V714.413H1662.22C1663.37 714.409 1664.53 714.48 1665.68 714.624L1665.89 712.935C1664.67 712.783 1663.44 712.705 1662.22 712.703H1662.26ZM1544.47 713.188L1543.67 714.688L1547.41 716.799L1548.21 715.3L1544.47 713.188ZM1655.04 713.463C1653.61 713.756 1652.21 714.123 1650.82 714.561L1651.35 716.187C1652.67 715.764 1654.02 715.411 1655.38 715.131L1655.04 713.463ZM1672.26 714.646L1671.59 716.208C1672.84 716.76 1674.02 717.47 1675.09 718.32L1676.11 716.947C1674.92 716.059 1673.63 715.314 1672.26 714.73V714.646ZM1644.82 717.116C1643.51 717.792 1642.27 718.51 1641.07 719.228L1641.99 720.664C1643.15 719.89 1644.35 719.185 1645.58 718.552L1644.82 717.116ZM-101.728 718.151C-102.137 719.559 -102.516 720.932 -102.868 722.269L-101.222 722.691C-100.863 721.34 -100.504 719.967 -100.103 718.616L-101.728 718.151ZM1553.85 718.278L1553.04 719.777L1556.78 721.889L1557.58 720.39L1553.85 718.278ZM1635.89 723.072C1634.78 723.958 1633.78 724.888 1632.62 725.838L1633.74 727.105C1634.8 726.176 1635.85 725.268 1636.97 724.402L1635.89 723.072ZM1563.2 723.325L1562.39 724.824L1566.13 726.936L1566.93 725.437L1563.2 723.325ZM1572.55 728.393L1571.75 729.893L1575.48 731.899L1576.31 730.399L1572.55 728.393ZM-104.304 728.562C-104.578 729.956 -104.852 731.35 -105.085 732.786L-103.396 733.06C-103.164 731.688 -102.91 730.294 -102.636 728.837L-104.304 728.562ZM1627.98 730.315C1626.99 731.329 1626.02 732.427 1625.04 733.44L1626.31 734.581C1627.26 733.525 1628.21 732.469 1629.2 731.498L1627.98 730.315ZM1581.94 733.461L1581.14 734.961L1584.88 737.073L1585.68 735.573L1581.94 733.567V733.461ZM1620.89 738.445C1620 739.543 1619.13 740.684 1618.27 741.824L1619.64 742.859C1620.49 741.719 1621.35 740.599 1622.22 739.501L1620.89 738.445ZM1591.33 738.593L1590.51 740.092L1594.27 742.204L1595.07 740.705L1591.33 738.699V738.593ZM-105.95 739.121C-106.098 740.536 -106.225 741.972 -106.309 743.345L-104.599 743.45C-104.599 742.056 -104.409 740.663 -104.261 739.227L-105.95 739.121ZM721.183 741.592H720.444V743.281H724.666V741.592H721.141H721.183ZM714.006 741.592L709.784 741.74V743.429L714.006 743.302V741.592ZM731.062 741.592V743.281L735.283 743.471V741.782C733.869 741.782 732.434 741.634 731.062 741.592ZM703.346 741.972L699.125 742.289L699.251 743.978L703.473 743.682L703.346 741.972ZM741.721 742.162L741.595 743.872C742.988 743.872 744.402 744.084 745.816 744.21L745.964 742.5L741.742 742.162H741.721ZM692.75 742.859L688.528 743.323L688.718 745.013L692.94 744.548L692.75 742.859ZM752.36 743.155L752.17 744.844L756.392 745.33L756.603 743.64L752.381 743.155H752.36ZM1600.69 743.302L1599.88 744.802L1601.11 745.456L1603.64 746.808L1604.44 745.309L1601.91 743.957L1600.69 743.302ZM682.174 744.147L677.953 744.781L678.227 746.47L682.449 745.836L682.174 744.147ZM762.956 744.527L762.703 746.217L766.925 746.871L767.199 745.182L762.977 744.527H762.956ZM1677.82 744.654C1677.69 744.844 1677.58 745.034 1677.46 745.203L1677.14 745.646L1677.82 746.132V744.654ZM671.662 745.858L667.441 746.66L667.757 748.328L671.979 747.526L671.662 745.858ZM773.489 746.301L773.173 747.969L777.394 748.793L777.732 747.125L773.511 746.301H773.489ZM1614.62 746.787C1614 747.695 1613.39 748.645 1612.78 749.574L1610.16 748.413L1609.4 749.933L1613.22 751.834L1613.48 751.264L1613.77 751.454C1614.51 750.25 1615.29 749.068 1616.07 747.906L1614.62 746.787ZM661.235 747.969L657.013 748.941L657.414 750.588C658.786 750.271 660.158 749.933 661.636 749.638L661.256 747.969H661.235ZM783.938 748.476L783.558 750.144L787.78 751.116L788.181 749.469L783.959 748.476H783.938ZM-104.705 749.638H-106.414C-106.414 751.046 -106.351 752.453 -106.225 753.861L-104.536 753.735C-104.536 752.341 -104.684 750.947 -104.705 749.511V749.638ZM1673.02 750.102C1672 751.024 1670.91 751.878 1669.77 752.658L1670.72 754.051C1671.93 753.243 1673.08 752.347 1674.16 751.369L1673.02 750.102ZM650.871 750.377C649.464 750.729 648.091 751.109 646.755 751.517L647.219 753.143L651.314 752.024L650.871 750.377ZM794.281 750.947L793.838 752.573L797.933 753.713L798.397 752.087L794.176 750.947H794.281ZM1619.51 752.658L1618.84 754.22C1620.15 754.79 1621.48 755.318 1622.81 755.846L1623.42 754.262C1622.11 753.756 1620.8 753.207 1619.51 752.658ZM640.464 753.333L636.39 754.621L636.918 756.247L640.95 754.959L640.464 753.333ZM804.35 753.903L803.843 755.529L807.896 756.839L808.424 755.213L804.35 753.903ZM1664.14 755.656C1662.87 756.211 1661.57 756.697 1660.25 757.113L1660.76 758.739C1662.15 758.301 1663.51 757.786 1664.83 757.198L1664.14 755.656ZM1608.81 755.656L1606.7 759.394L1608.2 760.218C1608.88 758.972 1609.57 757.726 1610.31 756.501L1608.81 755.656ZM1629.37 756.269L1628.89 757.895C1630.26 758.317 1631.63 758.697 1633.11 759.035L1633.51 757.388C1632.16 757.05 1630.81 756.67 1629.46 756.269H1629.37ZM630.417 756.607L626.617 758H626.406L627.018 759.584H627.208C628.454 759.098 629.72 758.655 630.987 758.19L630.417 756.607ZM814.566 757.198L813.996 758.803L817.965 760.26L818.577 758.676L814.566 757.198ZM1654.26 758.486C1652.89 758.718 1651.49 758.866 1650.04 758.972L1650.16 760.661C1651.57 760.549 1652.98 760.38 1654.39 760.154L1654.26 758.486ZM1639.69 758.486L1639.44 760.175L1640.45 760.302C1641.55 760.457 1642.65 760.563 1643.75 760.619L1643.85 758.908C1642.78 758.908 1641.74 758.761 1640.66 758.613L1639.69 758.486ZM-73.1687 759.035C-74.5923 759.165 -76.0038 759.405 -77.3904 759.753L-76.9894 761.4C-75.6593 761.064 -74.3037 760.838 -72.9366 760.724L-73.1687 759.035ZM-66.5829 759.373L-66.9207 761.041C-65.5909 761.312 -64.2953 761.73 -63.0578 762.287L-62.3612 760.746C-63.7111 760.127 -65.1277 759.667 -66.5829 759.373ZM-103.839 760.239L-105.507 760.513C-105.296 761.928 -105.021 763.343 -104.705 764.737L-103.058 764.378C-103.354 763.005 -103.628 761.633 -103.839 760.154V760.239ZM620.517 760.661L616.591 762.287L617.245 763.85L621.171 762.245L620.517 760.661ZM824.614 761.231L823.981 762.815L827.907 764.42L828.561 762.857L824.614 761.231ZM-83.5752 762.351C-84.8839 762.921 -86.1715 763.554 -87.4591 764.251L-86.657 765.75C-85.4116 765.075 -84.1451 764.462 -82.8997 763.913L-83.5752 762.351ZM610.68 764.948L606.796 766.743L607.535 768.285L611.377 766.49L610.68 764.948ZM-56.7675 764.948L-57.9496 766.173C-56.9858 767.109 -56.1485 768.166 -55.4588 769.319L-54.0023 768.454C-54.7714 767.172 -55.7007 765.994 -56.7675 764.948ZM1603.89 765.434C1603.26 766.701 1602.65 767.968 1602.04 769.277L1603.58 769.995C1604.17 768.707 1604.8 767.44 1605.41 766.194L1603.89 765.434ZM834.387 765.434L833.691 766.975L837.553 768.749L838.271 767.208C836.984 766.616 835.696 766.004 834.387 765.434ZM-92.9684 767.546C-94.1505 768.348 -95.3115 769.193 -96.4513 770.08L-95.417 771.431C-94.2983 770.565 -93.1584 769.742 -92.0186 768.939L-92.9684 767.546ZM601.034 769.467L597.255 771.41L598.036 772.931L601.815 770.988L601.034 769.467ZM844.034 769.974L843.274 771.495L847.052 773.437L847.833 771.917L844.034 769.974ZM-101.433 770.354L-103.037 770.882C-102.636 772.107 -102.193 773.311 -101.728 774.535C-102.671 775.408 -103.6 776.295 -104.515 777.196L-103.312 778.4C-102.319 777.408 -101.306 776.436 -100.251 775.486L-100.99 774.704L-99.9764 774.282L-100.124 773.923C-100.589 772.741 -101.032 771.558 -101.433 770.354ZM591.619 774.451C590.374 775.148 589.129 775.845 587.904 776.563L588.749 778.041C589.973 777.323 591.197 776.626 592.443 775.929L591.619 774.451ZM-51.6171 774.451L-53.1791 775.021C-52.9089 776.306 -52.7745 777.615 -52.778 778.928V779.076H-51.0893V778.907C-51.0838 777.488 -51.2253 776.073 -51.5115 774.683L-51.6171 774.451ZM853.575 775.085L852.751 776.563C853.976 777.239 855.221 777.935 856.445 778.675L857.29 777.196C856.065 776.478 854.82 775.781 853.575 775.085ZM1599.48 775.085C1598.91 776.394 1598.34 777.682 1597.79 779.013L1599.36 779.667C1599.9 778.358 1600.47 777.07 1601.04 775.781L1599.48 775.085ZM181.736 775.317H180.195V777.006H184.417V775.317H181.673H181.736ZM173.694 775.655C172.259 775.76 170.866 775.929 169.472 776.119L169.726 777.809C171.056 777.619 172.428 777.471 173.842 777.344L173.694 775.655ZM190.834 775.655L190.686 777.344C192.079 777.471 193.473 777.598 194.908 777.788L195.119 776.098C193.684 775.908 192.269 775.76 190.897 775.655H190.834ZM201.452 777.049L201.156 778.717C202.528 778.97 203.921 779.245 205.378 779.54L205.758 777.893C204.343 777.576 202.95 777.302 201.536 777.049H201.452ZM163.161 777.049C161.754 777.316 160.347 777.612 158.939 777.935L159.319 779.583C160.691 779.266 162.063 778.97 163.541 778.717L163.161 777.049ZM211.985 779.35L211.541 780.997C212.892 781.378 214.243 781.779 215.573 782.201L216.101 780.596C214.729 780.153 213.378 779.73 211.985 779.35ZM152.755 779.519C151.382 779.899 150.01 780.301 148.659 780.744L149.166 782.349L153.219 781.145L152.755 779.519ZM582.522 779.773L578.891 782.011L579.799 783.468C581.002 782.708 582.205 781.948 583.408 781.23L582.522 779.773ZM-97.169 779.878L-98.6677 780.723C-97.95 781.969 -97.1901 783.194 -96.3669 784.398L-94.9737 783.426C-95.7547 782.286 -96.4935 781.103 -97.0846 779.878H-97.169ZM862.862 780.258L861.955 781.716L865.543 783.975L866.472 782.56L862.862 780.258ZM-108.736 781.842C-109.707 782.961 -110.615 784.06 -111.481 785.158L-110.151 786.214C-109.285 785.137 -108.399 784.102 -107.449 782.961L-108.736 781.842ZM222.201 782.771L221.568 784.355C222.877 784.89 224.164 785.439 225.431 786.003L226.148 784.461C224.84 783.87 223.531 783.299 222.201 782.771ZM142.622 782.771L138.612 784.271L139.245 785.855C140.554 785.348 141.884 784.841 143.192 784.376L142.622 782.771ZM1595.45 784.756C1594.92 786.087 1594.42 787.417 1593.91 788.748L1595.51 789.339C1596 788.03 1596.51 786.699 1597.03 785.39L1595.45 784.756ZM-53.6857 784.883C-54.0979 786.182 -54.6574 787.429 -55.3532 788.6L-53.8968 789.466C-53.14 788.185 -52.5242 786.825 -52.0603 785.411L-53.6857 784.883ZM573.572 785.475L570.025 787.882L570.997 789.276L574.5 786.911L573.572 785.475ZM871.77 786.129L870.799 787.523C871.939 788.347 873.079 789.17 874.198 790.036L875.232 788.663L871.77 786.129ZM132.575 786.953L128.691 788.706L129.409 790.247C130.675 789.656 131.963 789.065 133.25 788.516L132.575 786.953ZM231.784 787.565L230.961 789.043C232.207 789.74 233.41 790.437 234.571 791.155L235.499 789.719C234.296 788.959 233.051 788.22 231.784 787.607V787.565ZM-91.1742 788.431L-92.3985 789.614C-91.3547 790.667 -90.2404 791.647 -89.0634 792.549L-88.008 791.219C-89.1189 790.354 -90.1763 789.424 -91.1742 788.431ZM-115.47 790.543C-116.293 791.81 -117.032 793.056 -117.686 794.259L-116.188 795.062C-115.576 793.9 -114.858 792.697 -114.077 791.472L-115.47 790.543ZM122.802 791.43L119.023 793.394L119.825 794.893C121.071 794.238 122.316 793.584 123.583 792.95L122.802 791.43ZM564.58 791.725L561.16 794.259L562.173 795.611L565.593 793.098L564.58 791.725ZM880.024 792.823L878.926 794.133C880.002 795.041 881.037 795.97 882.092 796.899L883.232 795.653C882.177 794.682 881.121 793.753 880.024 792.823ZM-59.5116 793.351C-59.9997 793.739 -60.5147 794.092 -61.0525 794.407C-61.6701 794.787 -62.3118 795.125 -62.9734 795.421L-62.2768 796.963C-61.5501 796.643 -60.845 796.276 -60.166 795.864C-59.5749 795.502 -59.0041 795.107 -58.4562 794.682L-59.5116 793.351ZM240.671 793.499L239.616 794.851C240.713 795.717 241.726 796.625 242.803 797.554L243.964 796.308C242.909 795.336 241.853 794.407 240.671 793.499ZM-82.7309 794.534L-83.4696 796.076C-82.1549 796.709 -80.7928 797.238 -79.3957 797.659L-78.8891 796.033C-80.2055 795.631 -81.4897 795.129 -82.7309 794.534ZM1591.65 794.978C1591.17 796.308 1590.7 797.659 1590.24 799.011L1591.86 799.56C1592.31 798.208 1592.77 796.878 1593.26 795.548L1591.65 794.978ZM113.577 796.54L109.883 798.652L110.728 800.13L114.401 798.018L113.577 796.54ZM-68.736 797.005C-69.6325 797.114 -70.5347 797.171 -71.4379 797.174H-72.831V798.863C-72.3455 798.863 -71.86 798.863 -71.3534 798.863C-70.3798 798.87 -69.4068 798.814 -68.4405 798.694L-68.736 797.005ZM556.221 798.23C555.102 799.095 554.11 800.004 552.885 800.89L553.962 802.221C555.06 801.313 556.073 800.447 557.276 799.56L556.221 798.23ZM888.024 800.194L886.799 801.376C887.791 802.39 888.741 803.488 889.649 804.459L890.937 803.34C889.987 802.263 889.016 801.228 888.024 800.194ZM-120.198 800.363C-120.663 801.777 -121.043 803.15 -121.38 804.586L-119.734 804.987C-119.417 803.657 -119.016 802.326 -118.594 800.954L-120.198 800.363ZM248.439 801.059L247.13 802.136C248.017 803.213 248.861 804.248 249.642 805.473L251.056 804.523C250.233 803.319 249.368 802.179 248.439 801.059ZM104.29 801.989C103.065 802.728 101.862 803.488 100.659 804.248L101.567 805.684L105.176 803.446L104.29 801.989ZM547.862 805.03L544.632 807.838L545.772 809.105L548.98 806.339L547.862 805.03ZM1588.1 805.135C1587.66 806.487 1587.24 807.838 1586.82 809.19L1588.44 809.697C1588.86 808.345 1589.29 807.015 1589.73 805.663L1588.1 805.135ZM95.2974 807.712L91.7301 810.056L92.68 811.47L96.2262 809.126L95.2974 807.712ZM894.884 808.408L893.512 809.422C894.335 810.541 895.137 811.703 895.897 812.864L897.332 811.935C896.551 810.731 895.728 809.57 894.884 808.408ZM254.265 810.161L252.724 810.879C253.319 812.129 253.84 813.412 254.286 814.723L255.89 814.174C255.427 812.806 254.884 811.466 254.265 810.161ZM-122.541 810.921C-122.709 812.324 -122.808 813.733 -122.837 815.145H-121.148C-121.148 813.793 -121.022 812.4 -120.853 810.921H-122.541ZM539.883 812.146L536.78 815.06L537.962 816.306C538.975 815.314 540.073 814.364 541.044 813.392L539.883 812.146ZM86.453 813.667L82.9279 816.095L83.8989 817.489L87.4029 815.082L86.453 813.667ZM1584.94 815.145C1584.52 816.497 1584.12 817.869 1583.71 819.221L1585.34 819.706C1585.74 818.355 1586.14 816.982 1586.56 815.631L1584.94 815.145ZM900.583 817.362L899.063 818.144C899.697 819.369 900.309 820.636 900.858 821.924L902.42 821.269C901.85 819.939 901.237 818.629 900.583 817.362ZM532.199 819.347L529.202 822.388L530.426 823.571C531.397 822.557 532.41 821.565 533.402 820.551L532.199 819.347ZM77.693 819.706L74.2101 822.156L75.2022 823.55L78.664 821.079L77.693 819.706ZM257.41 820.488L255.721 820.741C255.937 822.14 256.064 823.55 256.101 824.965H257.811C257.752 823.516 257.618 822.071 257.41 820.636V820.488ZM-120.853 821.48L-122.541 821.691C-122.351 823.128 -122.119 824.563 -121.803 825.915L-120.135 825.535C-120.43 824.183 -120.684 822.832 -120.853 821.438V821.48ZM1581.94 825.472L1580.8 829.568L1582.43 830.033C1582.81 828.681 1583.19 827.309 1583.59 825.936L1581.94 825.472ZM69.0386 825.852L65.5768 828.301L66.5689 829.695L70.0307 827.224L69.0386 825.852ZM524.811 827.161C523.84 828.196 522.89 829.273 521.941 830.307L523.207 831.448C524.136 830.392 525.086 829.336 526.057 828.301L524.811 827.161ZM904.615 827.457L902.99 827.942C902.99 828.175 903.116 828.407 903.201 828.639C903.524 829.766 903.799 830.885 904.024 831.997L905.691 831.638C905.438 830.476 905.164 829.336 904.826 828.175C904.768 827.932 904.698 827.692 904.615 827.457ZM255.89 831.11C255.742 832.483 255.552 833.855 255.278 835.334L256.946 835.65C257.22 834.214 257.431 832.778 257.6 831.427L255.89 831.11ZM-118.32 831.49L-119.903 832.124C-119.375 833.454 -118.784 834.784 -118.151 836.073L-116.631 835.312C-117.243 834.066 -117.813 832.799 -118.32 831.49ZM60.363 831.997L56.8801 834.425L57.8511 835.819L61.3551 833.391L60.363 831.997ZM517.719 835.143C516.79 836.22 515.882 837.255 514.975 838.417L516.284 839.494L519.006 836.242L517.719 835.143ZM1579.09 835.735C1578.73 837.129 1578.35 838.48 1577.99 839.853L1579.64 840.296C1580 838.924 1580.36 837.572 1580.74 836.178L1579.09 835.735ZM1154.81 836.748H1153.42V838.459H1157.64V836.748H1154.77H1154.81ZM1146.96 836.938C1145.55 836.938 1144.11 837.086 1142.74 837.213L1142.87 838.902C1144.28 838.797 1145.67 838.712 1147.09 838.649L1146.96 836.938ZM1164.06 836.938V838.628C1165.47 838.628 1166.89 838.797 1168.28 838.924L1168.43 837.213C1166.99 837.107 1165.58 837.002 1164.21 836.938H1164.06ZM1136.45 837.762C1135.04 837.931 1133.63 838.121 1132.23 838.332L1132.48 840.022C1133.87 839.81 1135.29 839.599 1136.7 839.452L1136.45 837.762ZM1174.84 837.762L1174.65 839.452L1178.88 839.979L1179.11 838.29L1174.89 837.762H1174.84ZM906.958 837.868L905.269 838.037C905.417 839.43 905.522 840.824 905.565 842.26H907.275C907.275 840.824 907.127 839.388 906.958 838.037V837.868ZM51.8986 838.037L48.1413 840.486L49.0911 841.901L52.6162 839.515L51.8986 838.037ZM1185.42 839.452L1185.12 841.141C1186.52 841.373 1187.91 841.648 1189.35 841.922L1189.68 840.254L1185.46 839.452H1185.42ZM1125.94 839.557C1124.52 839.832 1123.13 840.148 1121.71 840.486L1122.14 842.133L1126.25 841.204L1125.94 839.557ZM-113.127 840.697L-114.52 841.648C-113.718 842.83 -112.874 843.992 -111.945 845.111L-110.636 844.055C-111.502 842.957 -112.346 841.838 -113.127 840.697ZM254.159 841.352C253.758 842.682 253.315 844.013 252.851 845.364L254.455 845.935C254.94 844.562 255.384 843.211 255.785 841.838L254.159 841.352ZM1196.04 841.627L1195.64 843.274L1199.73 844.309L1200.17 842.661C1198.8 842.302 1197.41 841.943 1195.95 841.627H1196.04ZM1115.57 842.197C1114.2 842.64 1112.83 843.084 1111.5 843.569L1112.07 845.174C1113.4 844.689 1114.73 844.245 1116.08 843.823L1115.57 842.197ZM511.239 843.401C510.352 844.52 509.487 845.66 508.621 846.779L509.972 847.814L512.568 844.456L511.239 843.401ZM43.0752 843.928L39.5079 846.23L40.4156 847.666C41.6188 846.906 42.8219 846.146 44.004 845.364L43.0752 843.928ZM1206.25 844.414L1205.75 846.04L1209.78 847.328L1210.33 845.724C1208.98 845.259 1207.6 844.836 1206.25 844.414ZM1105.52 845.998C1104.22 846.589 1102.93 847.223 1101.66 847.878L1102.44 849.398C1103.69 848.743 1104.93 848.131 1106.22 847.54L1105.52 845.998ZM1576.6 845.998C1576.24 847.392 1575.88 848.764 1575.5 850.116L1577.15 850.559C1577.51 849.187 1577.89 847.835 1578.25 846.336L1576.6 845.998ZM1216.36 847.835L1215.75 849.44C1217.08 849.926 1218.39 850.454 1219.7 850.982L1220.33 849.419C1219.02 848.87 1217.69 848.342 1216.36 847.835ZM905.544 848.68C905.544 850.074 905.375 851.468 905.227 852.904L906.916 853.072C907.063 851.636 907.169 850.222 907.253 848.849L905.544 848.68ZM-106.457 848.68L-107.66 849.905C-106.647 850.897 -105.549 851.89 -104.515 852.84L-103.396 851.552C-104.451 850.623 -105.507 849.672 -106.457 848.68ZM34.1042 849.567L30.4735 851.679L31.339 853.157L34.9907 851.045L34.1042 849.567ZM1096.07 851.13C1094.86 851.911 1093.7 852.756 1092.56 853.622L1093.58 854.973C1094.7 854.128 1095.84 853.326 1097.02 852.544L1096.07 851.13ZM250.423 851.13C249.874 852.418 249.283 853.685 248.671 854.973L250.212 855.712C250.824 854.403 251.436 853.115 251.985 851.805L250.423 851.13ZM504.822 851.826C503.977 852.981 503.154 854.142 502.352 855.311L503.745 856.282C504.547 855.121 505.37 853.981 506.194 852.819L504.822 851.826ZM1226.22 851.826L1225.53 853.389C1226.79 853.959 1228.08 854.572 1229.33 855.205L1230.09 853.664L1226.22 851.826ZM24.9431 854.783L21.2281 856.895L22.009 858.394L25.7663 856.282L24.9431 854.783ZM-98.4566 855.353L-99.4487 856.726C-98.3089 857.571 -97.1268 858.373 -95.9236 859.154L-94.9948 857.74C-96.1769 856.958 -97.3379 856.177 -98.4566 855.353ZM1573.86 856.156C1573.5 857.528 1573.14 858.922 1572.8 860.379L1574.45 860.78C1574.79 859.408 1575.14 858.056 1575.5 856.684L1573.86 856.156ZM1235.76 856.641L1234.96 858.12L1238.63 860.231L1239.48 858.753C1238.25 858.035 1237.03 857.317 1235.76 856.641ZM1087.65 857.718L1087.12 858.225C1086.29 859.07 1085.47 859.936 1084.67 860.823L1085.91 861.963C1086.72 861.09 1087.52 860.245 1088.32 859.429L1088.83 858.943L1087.65 857.718ZM904.362 859.028C904.15 860.4 903.876 861.794 903.602 863.251L905.269 863.589C905.544 862.195 905.818 860.78 906.05 859.366L904.362 859.028ZM15.571 859.703L11.7504 861.541L12.468 863.082L16.3098 861.224L15.571 859.703ZM498.742 860.569C497.961 861.752 497.18 862.956 496.42 864.159L497.856 865.067C498.616 863.864 499.376 862.681 500.157 861.498L498.742 860.569ZM245.779 860.569C245.125 861.815 244.428 863.061 243.668 864.286L245.146 865.131C245.843 863.885 246.539 862.639 247.257 861.393L245.779 860.569ZM-89.57 860.992L-90.3932 862.47C-89.1478 863.167 -87.8813 863.821 -86.5937 864.455L-85.8338 862.934C-87.1003 862.301 -88.3457 861.667 -89.57 860.992ZM1244.95 862.153L1244.02 863.568C1245.18 864.328 1246.36 865.131 1247.5 865.933L1248.47 864.539C1247.29 863.716 1246.11 862.934 1244.92 862.153H1244.95ZM5.86113 864.117L1.70277 865.828L2.31491 867.411C3.64474 866.883 4.95346 866.356 6.28329 865.785L5.86113 864.117ZM-80.3456 865.828L-81 867.411C-79.6912 867.96 -78.3614 868.488 -77.0105 868.995L-76.4194 867.39C-77.7282 866.905 -79.058 866.377 -80.3456 865.828ZM1080.26 866.039C1079.39 867.158 1078.53 868.32 1077.7 869.481L1079.1 870.474C1079.92 869.312 1080.74 868.172 1081.61 867.074L1080.26 866.039ZM1571.07 866.799L1570.18 871.023L1571.85 871.36L1572.74 867.137L1571.07 866.799ZM-4.18648 868.193C-5.5163 868.657 -6.86725 869.101 -8.19707 869.523L-7.69047 871.149C-6.33952 870.727 -4.96748 870.283 -3.63766 869.798L-4.18648 868.193ZM1253.37 868.636L1252.33 869.967C1253.43 870.832 1254.44 871.719 1255.61 872.628L1256.7 871.318C1255.61 870.41 1254.59 869.502 1253.37 868.636ZM-70.4246 869.439L-70.9101 871.065C-69.5592 871.487 -68.1872 871.888 -66.8151 872.268L-66.3507 870.621C-67.7228 870.241 -69.0737 869.861 -70.4246 869.439ZM901.913 869.629C901.575 871.037 901.216 872.409 900.836 873.747L902.483 874.19C902.863 872.796 903.222 871.424 903.559 869.967L901.913 869.629ZM492.769 869.861C492.03 871.086 491.312 872.311 490.658 873.536L492.114 874.401C492.832 873.177 493.55 871.952 494.225 870.748L492.769 869.861ZM240.228 869.924L237.969 873.514L239.383 874.423C240.164 873.24 240.924 872.015 241.663 870.811L240.228 869.924ZM-14.2763 871.192C-15.6272 871.551 -16.9993 871.888 -18.3713 872.205L-17.9703 873.873L-13.7486 872.839L-14.2763 871.192ZM-60.1871 871.994L-60.5459 873.662C-59.1317 873.958 -57.7385 874.232 -56.3242 874.486L-56.0287 872.796C-57.4219 872.564 -58.7939 872.29 -60.2504 871.994H-60.1871ZM-24.6194 873.451C-25.9915 873.683 -27.3635 873.852 -28.8411 874L-28.6511 875.69C-27.2158 875.542 -25.7804 875.373 -24.4294 875.141L-24.6194 873.451ZM-49.8228 873.726L-50.0339 875.415C-48.5986 875.584 -47.1843 875.711 -45.8122 875.837L-45.6645 874.127C-47.0576 874.021 -48.4719 873.895 -49.8862 873.726H-49.8228ZM-35.1103 874.423H-39.332V876.112H-37.7277H-35.047L-35.1103 874.423ZM1074.07 874.718C1073.31 875.922 1072.57 877.147 1071.84 878.393L1073.31 879.258C1074.03 878.013 1074.77 876.83 1075.42 875.626L1074.07 874.718ZM1261.47 875.457L1260.31 876.703C1261.35 877.661 1262.37 878.632 1263.35 879.617L1264.56 878.414L1261.47 875.457ZM1568.92 877.168C1568.66 878.562 1568.41 879.977 1568.18 881.391L1569.87 881.666C1570.1 880.272 1570.33 878.878 1570.58 877.442L1568.92 877.168ZM234.381 878.836L231.995 882.342L233.389 883.313L235.795 879.786L234.381 878.836ZM487.386 879.005C486.69 880.272 486.014 881.518 485.275 882.785L486.774 883.566C487.428 882.321 488.104 881.075 488.779 879.829L487.386 879.005ZM899 879.744C898.599 881.117 898.177 882.468 897.776 883.82L899.401 884.327C899.802 882.954 900.224 881.603 900.625 880.23L899 879.744ZM1268.95 883.081L1267.68 884.221C1268.61 885.256 1269.54 886.333 1270.42 887.41L1271.75 886.333C1270.82 885.235 1269.9 884.221 1268.95 883.081ZM1068.65 883.968C1067.97 885.214 1067.3 886.481 1066.66 887.748L1068.16 888.529C1068.82 887.262 1069.47 886.016 1070.15 884.77L1068.65 883.968ZM228.323 887.579L225.98 891.169L227.352 892.14L229.821 888.656L228.323 887.579ZM1567.17 887.706C1566.95 889.099 1566.76 890.514 1566.6 891.929L1568.28 892.14C1568.45 890.747 1568.64 889.353 1568.85 887.917L1567.17 887.706ZM482.405 888.487C481.771 889.754 481.159 891.042 480.547 892.33L482.088 893.048C482.679 891.781 483.291 890.514 483.924 889.226L482.405 888.487ZM895.876 889.923C895.454 891.274 895.053 892.626 894.63 893.978L896.256 894.484C896.678 893.133 897.079 891.781 897.501 890.43L895.876 889.923ZM1275.7 891.401L1274.31 892.415C1275.15 893.555 1275.95 894.696 1276.73 895.878L1278.15 894.928C1277.35 893.724 1276.52 892.563 1275.7 891.401ZM1063.79 893.513C1063.18 894.78 1062.59 896.068 1061.98 897.356L1063.52 898.074C1064.13 896.807 1064.72 895.519 1065.33 894.252L1063.79 893.513ZM222.286 896.279L219.858 899.785L221.251 900.756L223.679 897.251L222.286 896.279ZM477.993 898.159C477.402 899.447 476.853 900.756 476.304 902.066L477.866 902.741C478.415 901.432 478.964 900.144 479.534 898.835L477.993 898.159ZM1565.92 898.286L1565.48 902.509L1567.19 902.678C1567.31 901.263 1567.46 899.848 1567.61 898.455L1565.92 898.286ZM892.9 900.102C892.499 901.474 892.098 902.847 891.718 904.22L893.364 904.663C893.744 903.312 894.124 901.939 894.525 900.587L892.9 900.102ZM1281.67 900.376L1280.2 901.221C1280.91 902.446 1281.61 903.671 1282.31 904.917L1283.81 904.114C1283.13 902.847 1282.43 901.601 1281.7 900.376H1281.67ZM1059.44 903.164L1057.74 907.092L1059.3 907.767L1061.01 903.861L1059.44 903.164ZM216.27 905.107L213.948 908.676L215.383 909.605L217.705 906.036L216.27 905.107ZM473.792 908C473.286 909.33 472.779 910.661 472.294 911.991L473.877 912.582C474.362 911.273 474.869 909.943 475.396 908.633L473.792 908ZM1564.82 908.887L1564.51 913.11H1566.22C1566.22 911.695 1566.41 910.302 1566.53 908.887H1564.82ZM1286.55 909.858L1285.01 910.576C1285.6 911.864 1286.15 913.152 1286.7 914.441L1288.26 913.786C1287.71 912.477 1287.14 911.167 1286.55 909.858ZM890.113 910.471C889.839 911.864 889.565 913.279 889.353 914.694L891.021 914.948C891.253 913.575 891.507 912.202 891.781 910.724L890.113 910.471ZM1055.16 912.962L1053.51 916.911L1055.08 917.566L1056.72 913.617L1055.16 912.962ZM210.444 914.082C209.705 915.285 208.945 916.489 208.206 917.714L209.663 918.601C210.402 917.376 211.14 916.172 211.9 914.969L210.444 914.082ZM470.077 918.031C469.613 919.439 469.17 920.79 468.747 922.085L470.352 922.613L471.681 918.58L470.077 918.031ZM1564.04 919.53C1564.04 920.945 1563.89 922.36 1563.83 923.754H1565.54C1565.54 922.339 1565.67 920.924 1565.75 919.53H1564.04ZM1290.48 919.805L1288.87 920.354C1289.34 921.705 1289.76 923.036 1290.16 924.387L1291.81 923.88C1291.38 922.529 1290.94 921.156 1290.48 919.805ZM888.488 921.072C888.361 922.508 888.256 923.944 888.214 925.295H889.902C889.902 923.901 890.05 922.508 890.177 921.072H888.488ZM1051.02 922.803C1050.47 924.134 1049.95 925.443 1049.4 926.731L1050.98 927.386C1051.51 926.077 1052.06 924.767 1052.61 923.458L1051.02 922.803Z" fill="#E9E9E9"/>
<path d="M205.018 923.205L202.907 926.922L204.406 927.766C205.082 926.542 205.785 925.317 206.517 924.092L205.018 923.205ZM467.016 928.21C466.615 929.583 466.214 930.934 465.834 932.307L467.48 932.771C467.86 931.399 468.24 930.047 468.641 928.696L467.016 928.21ZM1293.6 930.111L1291.95 930.491C1292.26 931.899 1292.56 933.271 1292.84 934.609L1294.51 934.292C1294.23 932.898 1293.94 931.504 1293.6 930.068V930.111ZM1563.79 930.068C1563.79 931.483 1563.79 932.919 1563.66 934.292H1565.37C1565.37 932.877 1565.37 931.462 1565.37 930.068H1563.79ZM890.092 931.631H888.382C888.382 933.067 888.53 934.503 888.656 935.855L890.345 935.707C890.218 934.313 890.134 932.919 890.092 931.483V931.631ZM199.847 932.307C199.192 933.574 198.538 934.841 197.905 936.108L199.425 936.868L201.345 933.088L199.847 932.307ZM1047.05 932.307L1045.41 936.235L1046.97 936.889L1048.68 933.405L1047.05 932.307ZM464.229 938.494C463.871 939.867 463.533 941.24 463.174 942.612L464.842 943.035C465.179 941.662 465.538 940.289 465.876 938.917L464.229 938.494ZM1295.56 940.606L1293.87 940.817C1294.06 942.211 1294.19 943.626 1294.32 945.041L1296.01 944.893C1296.01 943.478 1295.75 942.063 1295.56 940.669V940.606ZM1563.64 940.838C1563.64 942.274 1563.64 943.689 1563.64 945.062H1565.35C1565.35 943.647 1565.35 942.232 1565.35 940.838H1563.64ZM195.329 942.169C194.738 943.478 194.169 944.787 193.599 946.097L195.182 946.751C195.731 945.463 196.279 944.175 196.87 942.887L195.329 942.169ZM891.274 942.169L889.585 942.464C889.838 943.879 890.113 945.294 890.429 946.688L892.097 946.308C891.78 944.935 891.506 943.563 891.274 942.084V942.169ZM1043.02 942.274C1042.43 943.584 1041.84 944.872 1041.25 946.139L1042.79 946.857C1043.38 945.59 1043.97 944.281 1044.56 942.971L1043.02 942.274ZM461.591 948.821C461.274 950.215 460.937 951.587 460.62 953.044L462.266 953.446C462.583 952.073 462.921 950.679 463.259 949.222L461.591 948.821ZM1296.26 951.355H1294.55V952.622C1294.55 953.594 1294.55 954.586 1294.55 955.579H1296.26C1296.26 954.586 1296.26 953.572 1296.26 952.58V951.292V951.355ZM1565.16 951.418H1563.45C1563.45 952.833 1563.45 954.248 1563.45 955.642H1565.16C1565.16 954.227 1565.16 952.812 1565.16 951.418ZM1038.34 951.904C1037.72 953.171 1037.08 954.438 1036.44 955.705L1037.98 956.487L1039.88 952.664L1038.34 951.904ZM191.087 951.904C190.601 953.256 190.116 954.586 189.672 955.938L191.277 956.487C191.72 955.156 192.184 953.826 192.691 952.495L191.087 951.904ZM893.617 952.263L891.991 952.791C892.435 954.164 892.899 955.515 893.427 956.846L895.01 956.233C894.503 954.924 894.039 953.615 893.617 952.263ZM459.163 959.063C458.826 960.436 458.509 961.829 458.193 963.287L459.839 963.667C460.156 962.294 460.493 960.9 460.81 959.443L459.163 959.063ZM1033.54 961.323C1032.89 962.569 1032.24 963.814 1031.43 965.06L1032.93 965.884C1033.63 964.617 1034.28 963.371 1034.94 962.104L1033.54 961.323ZM1294.09 961.766C1293.94 963.16 1293.77 964.554 1293.54 965.99L1295.23 966.243C1295.44 964.828 1295.63 963.413 1295.77 962.019L1294.09 961.766ZM1565.24 961.977H1563.53C1563.53 963.392 1563.53 964.807 1563.53 966.201H1565.22V961.977H1565.24ZM897.501 961.977L895.981 962.716C896.614 964.005 897.268 965.272 897.986 966.539L899.464 965.694C898.767 964.469 898.113 963.223 897.501 961.977ZM187.773 961.977C187.393 963.35 187.034 964.744 186.696 966.201L188.364 966.581C188.68 965.208 189.039 963.857 189.398 962.505L187.773 961.977ZM456.694 969.305C456.377 970.678 456.039 972.05 455.702 973.529L457.348 973.93L458.361 969.706L456.694 969.305ZM1028.39 970.488C1027.68 971.691 1026.94 972.895 1026.28 974.099L1027.72 975.007C1028.48 973.803 1029.22 972.578 1029.96 971.354L1028.39 970.488ZM902.799 970.973L901.406 971.945C902.208 973.127 903.052 974.289 903.939 975.429L905.29 974.373C904.424 973.254 903.58 972.135 902.799 970.973ZM1292.33 972.05C1292.02 973.402 1291.66 974.775 1291.28 976.126L1292.92 976.591C1293.3 975.218 1293.66 973.824 1294 972.367L1292.33 972.05ZM185.43 972.431C185.197 973.845 185.007 975.26 184.839 976.654L186.527 976.844C186.696 975.45 186.886 974.057 187.118 972.621L185.43 972.431ZM1565.41 972.431H1563.72C1563.72 973.845 1563.72 975.26 1563.72 976.654H1565.43C1565.43 975.239 1565.43 973.824 1565.33 972.431H1565.41ZM909.279 979.083L908.034 980.244C908.984 981.279 909.997 982.356 911.031 983.306L912.213 982.081C911.2 981.11 910.229 980.096 909.279 979.083ZM1022.59 979.252C1021.79 980.413 1020.94 981.532 1020.08 982.652L1021.43 983.686C1022.29 982.567 1023.16 981.406 1023.98 980.244L1022.59 979.252ZM454.182 979.864L453.105 983.982L454.752 984.425L455.828 980.202L454.182 979.864ZM1289.31 982.356C1288.83 983.665 1288.3 984.953 1287.75 986.242L1289.31 986.938C1289.88 985.608 1290.41 984.278 1290.92 982.947L1289.31 982.356ZM184.332 983.348C184.332 984.489 184.332 985.65 184.332 986.812C184.332 987.086 184.332 987.361 184.332 987.635H186.021V986.833C186.021 985.692 186.021 984.573 186.021 983.433L184.332 983.348ZM1565.71 983.348H1564L1564.13 987.572H1565.81C1565.81 986.157 1565.81 984.742 1565.81 983.348H1565.71ZM917.026 986.622L915.949 987.931C917.047 988.839 918.187 989.726 919.348 990.571L920.34 989.198C919.221 988.374 918.102 987.509 917.026 986.622ZM1016.24 987.825C1015.31 988.881 1014.34 989.937 1013.34 990.887L1014.55 992.091C1015.56 991.078 1016.66 989.979 1017.5 988.966L1016.24 987.825ZM451.311 990.085C450.931 991.458 450.53 992.809 450.108 994.161L451.754 994.646L452.958 990.571L451.311 990.085ZM1284.92 991.943C1284.25 993.189 1283.57 994.414 1282.81 995.618L1284.27 996.484C1285.01 995.259 1285.71 994.013 1286.38 992.746L1284.92 991.943ZM925.49 992.746L924.583 994.203C925.786 994.942 927.01 995.681 928.277 996.315L929.1 994.836C927.876 994.133 926.672 993.429 925.49 992.725V992.746ZM186.211 993.907L184.501 994.055C184.649 995.491 184.818 996.906 185.029 998.279L186.717 998.025C186.506 996.632 186.337 995.259 186.211 993.802V993.907ZM1565.92 993.802H1564.21L1564.34 998.025H1566.03C1566.03 996.61 1566.03 995.196 1566.03 993.802H1565.92ZM1008.57 995.111C1007.5 995.998 1006.46 996.843 1005.24 997.624L1006.19 999.018C1007.37 998.215 1008.53 997.349 1009.65 996.42L1008.57 995.111ZM934.694 997.793L933.976 999.335C935.264 999.947 936.572 1000.54 937.902 1001.09L938.557 999.525C937.248 998.976 935.96 998.405 934.694 997.793ZM448.166 1000.22C447.723 1001.57 447.258 1002.9 446.794 1004.23L448.398 1004.8C448.884 1003.45 449.327 1002.1 449.791 1000.75L448.166 1000.22ZM999.729 1000.81C998.483 1001.45 997.217 1002.02 995.929 1002.54L996.562 1004.11C997.913 1003.58 999.222 1002.97 1000.51 1002.33L999.729 1000.81ZM1279.44 1000.92C1278.63 1002.08 1277.81 1003.2 1276.97 1004.32L1278.32 1005.35C1279.18 1004.21 1280.03 1003.05 1280.83 1001.89L1279.44 1000.92ZM944.467 1001.76L943.918 1003.39C945.248 1003.85 946.62 1004.28 947.992 1004.7L948.478 1003.05C947.127 1002.65 945.797 1002.23 944.467 1001.76ZM187.92 1004.28L186.274 1004.68C186.612 1006.07 186.992 1007.46 187.393 1008.9L189.018 1008.39C188.617 1007.06 188.258 1005.71 187.92 1004.34V1004.28ZM990.04 1004.61C988.71 1004.97 987.338 1005.29 985.966 1005.56L986.304 1007.23C987.718 1006.96 989.111 1006.62 990.525 1006.24L990.04 1004.61ZM1566.3 1004.61H1564.61C1564.61 1006.03 1564.61 1007.44 1564.61 1008.84H1566.32C1566.32 1007.42 1566.32 1006.01 1566.32 1004.61H1566.3ZM954.747 1004.61L954.367 1006.28C955.781 1006.6 957.174 1006.87 958.588 1007.13L958.884 1005.44C957.491 1005.21 956.119 1004.93 954.662 1004.61H954.747ZM965.048 1006.3L964.879 1008.01C966.314 1008.14 967.728 1008.27 969.1 1008.33V1006.62C967.707 1006.62 966.314 1006.45 964.879 1006.3H965.048ZM979.655 1006.3C978.261 1006.45 976.868 1006.54 975.433 1006.58V1008.29C976.868 1008.29 978.304 1008.14 979.655 1008.01V1006.3ZM1273.06 1009.15C1272.15 1010.21 1271.22 1011.27 1270.25 1012.3L1271.5 1013.46C1272.47 1012.41 1273.44 1011.35 1274.37 1010.25L1273.06 1009.15ZM444.641 1010.08C444.113 1011.39 443.585 1012.7 443.037 1013.99L444.599 1014.67C445.169 1013.34 445.696 1012.03 446.224 1010.7L444.641 1010.08ZM191.213 1014.29L189.63 1014.92C190.158 1016.25 190.728 1017.56 191.319 1018.87L192.86 1018.17C192.269 1016.88 191.72 1015.6 191.213 1014.29ZM1566.51 1015.26H1564.82V1019.48H1566.51C1566.51 1018.07 1566.51 1016.65 1566.51 1015.26ZM1265.88 1016.95C1264.87 1017.94 1263.77 1018.89 1262.82 1019.86L1263.96 1021.11C1265.02 1020.14 1266.07 1019.16 1267.07 1018.17L1265.88 1016.95ZM332.893 1017.35H331.985V1019.06H332.83C333.91 1019.06 334.989 1019.14 336.059 1019.29L336.313 1017.62C335.161 1017.44 333.996 1017.34 332.83 1017.35H332.893ZM325.421 1018.59C324.03 1019.08 322.693 1019.71 321.431 1020.47L322.297 1021.93C323.467 1021.23 324.704 1020.65 325.991 1020.2L325.421 1018.59ZM342.645 1019.4L341.991 1020.96C343.254 1021.49 344.474 1022.12 345.642 1022.84L346.529 1021.38C345.288 1020.62 343.989 1019.96 342.645 1019.4ZM440.44 1019.9L439.49 1021.87C439.195 1022.46 438.899 1023.07 438.562 1023.66L440.06 1024.49C440.398 1023.85 440.715 1023.24 441.01 1022.63C441.306 1022.02 441.665 1021.3 441.981 1020.62L440.44 1019.9ZM195.583 1023.83L194.084 1024.63C194.76 1025.9 195.477 1027.13 196.195 1028.37L197.651 1027.48C196.934 1026.28 196.216 1025.06 195.541 1023.83H195.583ZM1257.91 1024.04C1256.83 1024.95 1255.79 1025.84 1254.63 1026.72L1255.69 1028.05C1256.81 1027.17 1257.91 1026.26 1259 1025.33L1257.91 1024.04ZM316.217 1024.63C315.225 1025.72 314.328 1026.88 313.537 1028.12L314.951 1029.05C315.7 1027.9 316.54 1026.81 317.463 1025.8L316.217 1024.63ZM351.637 1025.39L350.455 1026.62C351.448 1027.57 352.372 1028.6 353.22 1029.68L354.571 1028.65C353.672 1027.49 352.691 1026.41 351.637 1025.39ZM1566.51 1025.92H1564.8C1564.8 1027.34 1564.8 1028.75 1564.8 1030.15H1566.49C1566.49 1028.73 1566.49 1027.32 1566.49 1025.92H1566.51ZM435.248 1029.05C434.488 1030.21 433.686 1031.35 432.82 1032.51L434.192 1033.52C435.058 1032.34 435.881 1031.16 436.662 1030L435.248 1029.05ZM1249.61 1030.59L1246.19 1033.08L1247.18 1034.45C1248.34 1033.63 1249.48 1032.79 1250.62 1031.94L1249.61 1030.59ZM201.05 1032.7L199.657 1033.67C200.459 1034.83 201.303 1036 202.148 1037.16L203.52 1036.14C202.675 1035 201.852 1033.86 201.05 1032.7ZM310.603 1033.88C310.092 1035.26 309.69 1036.67 309.399 1038.11L311.067 1038.44C311.34 1037.09 311.722 1035.77 312.207 1034.47L310.603 1033.88ZM357.97 1034.16L356.429 1034.85C356.788 1035.68 357.104 1036.5 357.4 1037.35C357.548 1037.79 357.674 1038.25 357.801 1038.72L359.447 1038.28C359.321 1037.8 359.173 1037.31 359.004 1036.82C358.713 1035.91 358.367 1035.02 357.97 1034.16ZM1564.82 1036.48C1564.82 1037.9 1564.82 1039.31 1564.82 1040.7H1566.53C1566.53 1039.27 1566.53 1037.85 1566.53 1036.48H1564.82ZM1240.96 1036.67L1237.58 1038.99L1238.51 1040.43L1242.05 1038.06L1240.96 1036.67ZM428.915 1037.43C428.029 1038.51 427.1 1039.54 426.129 1040.62L427.395 1041.76C428.366 1040.68 429.316 1039.65 430.224 1038.53L428.915 1037.43ZM207.425 1041.17L206.116 1042.25C207.024 1043.34 207.952 1044.36 208.902 1045.5L210.169 1044.38C209.24 1043.32 208.311 1042.27 207.425 1041.17ZM1232.07 1042.46L1228.46 1044.7L1229.35 1046.15L1232.98 1043.89L1232.07 1042.46ZM308.682 1044.57V1044.76C308.675 1046.17 308.767 1047.58 308.956 1048.98L310.645 1048.75C310.476 1047.45 310.391 1046.14 310.391 1044.82V1044.63L308.682 1044.57ZM360.482 1044.72L358.793 1044.82C358.793 1045.41 358.793 1046 358.793 1046.6C358.793 1047.19 358.793 1048.18 358.793 1048.96L360.482 1049.09C360.482 1048.24 360.482 1047.42 360.482 1046.6C360.482 1045.77 360.482 1045.35 360.482 1044.72ZM421.696 1045.16C420.704 1046.15 419.691 1047.12 418.656 1048.1L419.817 1049.34C420.873 1048.35 421.928 1047.36 422.899 1046.36L421.696 1045.16ZM1564.61 1047.04C1564.61 1048.45 1564.61 1049.87 1564.61 1051.26H1566.3L1566.43 1047.04H1564.61ZM1222.95 1047.93L1219.28 1050.04L1220.14 1051.52L1223.82 1049.4L1222.95 1047.93ZM214.412 1048.98L213.187 1050.17C214.179 1051.2 215.171 1052.28 216.185 1053.21L217.388 1052C216.375 1051.01 215.382 1049.89 214.412 1048.98ZM413.949 1052.34C412.873 1053.25 411.838 1054.16 410.677 1055.04L411.754 1056.37C412.873 1055.47 413.97 1054.56 415.047 1053.63L413.949 1052.34ZM1213.77 1053.29L1210.07 1055.4L1210.92 1056.88L1214.61 1054.77L1213.77 1053.29ZM312.101 1054.68L310.518 1055.3C311.037 1056.65 311.665 1057.95 312.397 1059.2L313.874 1058.34C313.202 1057.16 312.616 1055.94 312.122 1054.68H312.101ZM357.716 1055.11C357.389 1056.45 356.98 1057.78 356.492 1059.08L358.096 1059.67C358.602 1058.28 359.031 1056.87 359.384 1055.44L357.716 1055.11ZM222.011 1056.37L220.871 1057.62C221.905 1058.59 222.982 1059.54 224.058 1060.47L225.177 1059.18C224.1 1058.25 223.066 1057.32 222.011 1056.37ZM1564.27 1057.66C1564.27 1059.08 1564.15 1060.49 1564.06 1061.89H1565.77C1565.77 1060.47 1565.92 1059.06 1565.98 1057.66H1564.27ZM1204.54 1058.59L1200.85 1060.7L1201.69 1062.18L1205.39 1060.07L1204.54 1058.59ZM405.696 1058.93C404.556 1059.77 403.416 1060.6 402.255 1061.4L403.226 1062.79C404.387 1061.97 405.548 1061.15 406.688 1060.3L405.696 1058.93ZM230.032 1063.28L228.934 1064.61L232.29 1067.27L233.325 1065.92C232.206 1065.05 231.214 1064.19 230.032 1063.28ZM317.399 1063.6L316.048 1064.63C316.935 1065.79 317.843 1066.91 318.793 1067.97L320.059 1066.83C319.144 1065.81 318.258 1064.74 317.399 1063.6ZM1195.32 1063.87L1191.65 1065.98L1192.51 1067.46L1196.16 1065.35L1195.32 1063.87ZM353.875 1064.78C353.22 1065.98 352.482 1067.19 351.764 1068.33L353.157 1069.3C353.98 1068.09 354.719 1066.85 355.416 1065.58L353.875 1064.78ZM396.957 1064.88C395.754 1065.64 394.551 1066.36 393.326 1067L394.192 1068.47C395.416 1067.76 396.64 1067 397.865 1066.24L396.957 1064.88ZM1563.68 1068.26C1563.58 1069.68 1563.47 1071.07 1563.34 1072.49L1565.05 1072.63L1565.37 1068.41L1563.68 1068.26ZM1186.14 1069.26L1182.49 1071.37L1183.37 1072.82L1187 1070.71L1186.14 1069.26ZM238.37 1069.76L237.377 1071.13L240.881 1073.61L241.831 1072.19L238.37 1069.76ZM387.754 1070.14C386.487 1070.8 385.242 1071.41 383.954 1072.02L384.693 1073.54C385.981 1072.95 387.247 1072.32 388.535 1071.64L387.754 1070.14ZM324.555 1071.13L323.458 1072.47C324.578 1073.39 325.748 1074.25 326.962 1075.04L327.89 1073.63C326.733 1072.86 325.619 1072.03 324.555 1071.13ZM347.774 1073.25C346.825 1074.28 345.854 1075.36 344.84 1076.25L346.022 1077.47C347.057 1076.48 348.133 1075.36 349.041 1074.39L347.774 1073.25ZM378.107 1074.51C376.777 1075.04 375.469 1075.55 374.16 1076.01L374.709 1077.62C376.06 1077.13 377.39 1076.65 378.74 1076.1L378.107 1074.51ZM1177.23 1074.89L1173.64 1077.2L1174.57 1078.63L1178.14 1076.33L1177.23 1074.89ZM247.341 1075.78L246.433 1077.22C247.657 1077.98 248.86 1078.72 250.106 1079.43L250.95 1077.98L247.341 1075.87V1075.78ZM333.568 1076.82L332.851 1078.36C334.173 1078.95 335.526 1079.47 336.904 1079.92L337.431 1078.31C336.123 1077.87 334.835 1077.39 333.568 1076.82ZM368.397 1078.08C367.025 1078.44 365.653 1078.78 364.302 1079.05L364.661 1080.72C366.068 1080.43 367.476 1080.09 368.883 1079.71L368.397 1078.08ZM1562.99 1078.99L1562.54 1083.21L1564.23 1083.4L1564.67 1079.18L1562.99 1078.99ZM343.489 1079.81L343.215 1081.48C344.612 1081.73 346.021 1081.91 347.437 1082.01L347.584 1080.32C346.17 1080.22 344.798 1080.05 343.363 1079.81H343.489ZM357.97 1080.09C356.556 1080.24 355.162 1080.36 353.748 1080.43V1082.12C355.183 1082.12 356.619 1081.95 357.97 1081.78V1080.09ZM340.175 1080.45C339.057 1081.27 337.896 1082.05 336.714 1082.81L337.621 1084.25C338.846 1083.49 340.028 1082.67 341.189 1081.82L340.175 1080.45ZM1168.19 1080.83C1167.01 1081.63 1165.83 1082.45 1164.69 1083.28L1165.66 1084.65C1166.82 1083.85 1167.96 1083.02 1169.14 1082.24L1168.19 1080.83ZM256.312 1081.14L255.51 1082.64C256.776 1083.3 258.064 1083.95 259.351 1084.57L260.069 1083.02C258.802 1082.43 257.557 1081.8 256.312 1081.14ZM265.853 1085.62L265.198 1087.21C266.528 1087.75 267.858 1088.26 269.188 1088.77L269.779 1087.16C268.47 1086.68 267.161 1086.17 265.853 1085.62ZM331.162 1085.85C329.917 1086.47 328.629 1087.04 327.341 1087.59L327.975 1089.15C329.305 1088.6 330.613 1088.03 331.901 1087.4L331.162 1085.85ZM1159.46 1087.06C1158.32 1087.92 1157.18 1088.79 1156.08 1089.68L1157.13 1091.01L1160.47 1088.41L1159.46 1087.06ZM275.774 1089.17L275.288 1090.8C276.66 1091.22 278.053 1091.6 279.51 1091.94L279.932 1090.29C278.56 1089.95 277.209 1089.57 275.858 1089.17H275.774ZM1561.68 1089.55L1561.11 1093.77L1562.77 1094.01C1562.99 1092.59 1563.18 1091.2 1563.37 1089.78L1561.68 1089.55ZM321.579 1089.68C320.249 1090.08 318.898 1090.46 317.526 1090.77L317.927 1092.44C319.32 1092.1 320.713 1091.72 322.149 1091.3L321.579 1089.68ZM286.222 1091.62L285.927 1093.29L287.552 1093.56L290.17 1093.92L290.381 1092.23C289.515 1092.13 288.671 1092.02 287.827 1091.87L286.222 1091.62ZM311.341 1091.98C309.934 1092.19 308.527 1092.36 307.12 1092.49L307.289 1094.17C308.724 1094.05 310.138 1093.88 311.51 1093.67L311.341 1091.98ZM296.671 1092.76V1094.47C297.79 1094.47 298.887 1094.47 300.006 1094.47H300.977V1092.76H300.027C298.93 1092.76 297.916 1092.76 296.776 1092.76H296.671ZM1151.43 1093.79C1150.36 1094.72 1149.32 1095.67 1148.25 1096.65L1149.41 1097.89C1150.44 1096.94 1151.52 1095.99 1152.55 1095.06L1151.43 1093.79ZM1560.33 1100.13C1560.11 1101.52 1559.86 1102.92 1559.61 1104.35L1561.28 1104.67C1561.53 1103.26 1561.78 1101.86 1562.01 1100.45L1560.33 1100.13ZM1143.65 1101.23C1142.65 1102.24 1141.68 1103.34 1140.71 1104.35L1141.98 1105.49C1142.93 1104.46 1143.88 1103.38 1144.87 1102.41L1143.65 1101.23ZM1136.57 1109.25C1135.69 1110.39 1134.82 1111.53 1134 1112.69L1135.37 1113.69C1136.19 1112.55 1137.04 1111.43 1137.9 1110.31L1136.57 1109.25ZM1558.4 1110.56C1558.13 1111.93 1557.83 1113.33 1557.52 1114.79L1559.19 1115.17C1559.48 1113.77 1559.8 1112.38 1560.07 1110.94L1558.4 1110.56ZM1130.45 1118.04C1129.69 1119.26 1129 1120.49 1128.34 1121.75L1129.84 1122.56C1130.52 1121.33 1131.21 1120.11 1131.95 1118.92L1130.45 1118.04ZM1556.06 1120.89L1554.99 1124.99L1556.63 1125.45C1556.99 1124.06 1557.37 1122.68 1557.71 1121.23L1556.06 1120.89ZM1125.45 1127.54C1124.88 1128.85 1124.35 1130.16 1123.85 1131.51L1125.45 1132.1C1125.94 1130.79 1126.46 1129.5 1127.01 1128.22L1125.45 1127.54ZM1553.17 1130.96L1551.9 1135L1553.51 1135.52C1553.95 1134.17 1554.37 1132.8 1554.8 1131.45L1553.17 1130.96ZM1121.82 1137.49C1121.5 1138.54 1121.23 1139.6 1120.98 1140.68C1120.98 1141.01 1120.83 1141.33 1120.76 1141.65L1122.43 1142.01C1122.43 1141.71 1122.56 1141.39 1122.64 1141.08C1122.9 1140.02 1123.15 1138.97 1123.45 1137.95L1121.82 1137.49ZM1549.86 1141.01L1548.4 1144.98L1549.98 1145.6C1550.49 1144.27 1550.97 1142.91 1551.46 1141.58L1549.86 1141.01ZM1119.6 1148C1119.41 1149.44 1119.29 1150.85 1119.18 1152.23L1120.87 1152.35C1120.87 1150.96 1121.1 1149.57 1121.29 1148.13L1119.6 1148ZM1545.99 1150.9C1545.47 1152.21 1544.92 1153.52 1544.35 1154.82L1545.91 1155.48C1546.47 1154.17 1547.02 1152.86 1547.56 1151.55L1545.99 1150.9ZM1120.66 1158.75H1118.97C1118.97 1160.19 1118.97 1161.62 1119.14 1162.98L1120.85 1162.85C1120.74 1161.46 1120.68 1160.06 1120.66 1158.63V1158.75ZM1541.77 1160.53C1541.18 1161.81 1540.57 1163.1 1539.96 1164.37L1541.48 1165.11C1542.11 1163.83 1542.72 1162.54 1543.31 1161.24L1541.77 1160.53ZM1121.55 1169.1L1119.86 1169.35C1120.07 1170.77 1120.32 1172.18 1120.6 1173.58L1122.26 1173.24C1121.99 1171.85 1121.76 1170.47 1121.55 1169.02V1169.1ZM1537.11 1169.97C1536.45 1171.21 1535.8 1172.46 1535.12 1173.7L1536.62 1174.53C1537.3 1173.26 1537.97 1172.01 1538.73 1170.75L1537.11 1169.97ZM1532.04 1179.26C1531.34 1180.48 1530.63 1181.71 1529.93 1182.91L1531.41 1183.8L1533.52 1180.1L1532.04 1179.26ZM1123.74 1179.26L1122.12 1179.7C1122.5 1181.07 1122.9 1182.45 1123.34 1183.92L1124.96 1183.4C1124.52 1182.07 1124.12 1180.71 1123.74 1179.36V1179.26ZM1526.57 1188.36C1525.81 1189.56 1525.03 1190.75 1524.27 1191.93L1525.69 1192.86C1526.47 1191.68 1527.25 1190.49 1528.01 1189.29L1526.57 1188.36ZM1127.12 1189.35L1125.53 1189.99C1126.06 1191.32 1126.61 1192.63 1127.18 1193.93L1128.74 1193.26C1128.17 1191.95 1127.62 1190.66 1127.12 1189.35ZM1520.75 1197.38C1519.95 1198.54 1519.12 1199.7 1518.3 1200.84L1519.67 1201.83L1522.14 1198.35L1520.75 1197.38ZM1131.51 1199.17L1129.99 1199.93C1130.64 1201.2 1131.32 1202.47 1132.1 1203.71L1133.58 1202.89C1132.9 1201.66 1132.23 1200.42 1131.59 1199.17H1131.51ZM1514.5 1205.82C1513.66 1206.94 1512.79 1208.06 1511.9 1209.16L1513.25 1210.22C1514.12 1209.1 1515.01 1207.98 1515.85 1206.84L1514.5 1205.82ZM1136.66 1208.23L1135.2 1209.14C1135.96 1210.34 1136.74 1211.55 1137.52 1212.75L1138.94 1211.8C1138.16 1210.62 1137.4 1209.44 1136.66 1208.23ZM1507.91 1214.27C1507.01 1215.37 1506.1 1216.38 1505.17 1217.5L1506.46 1218.62L1509.22 1215.37L1507.91 1214.27ZM1142.61 1217.08L1141.24 1218.07C1142.06 1219.23 1142.93 1220.37 1143.79 1221.49L1145.14 1220.46C1144.28 1219.34 1143.43 1218.22 1142.61 1217.08ZM1500.97 1222.17C1500.02 1223.2 1499.07 1224.28 1498.1 1225.29L1499.34 1226.46L1502.24 1223.31L1500.97 1222.17ZM1149.13 1225.4L1147.83 1226.5C1148.73 1227.6 1149.68 1228.61 1150.61 1229.73L1151.9 1228.61C1150.95 1227.55 1150.04 1226.5 1149.13 1225.4ZM1493.69 1229.88L1490.69 1232.85L1491.87 1234.08C1492.91 1233.09 1493.98 1231.97 1494.91 1231.06L1493.69 1229.88ZM1156.18 1233.28L1154.96 1234.46C1155.95 1235.49 1156.94 1236.57 1157.96 1237.5L1159.16 1236.3C1158.15 1235.3 1157.05 1234.31 1156.18 1233.28ZM1486.09 1237.25L1482.96 1240.12L1484.1 1241.39L1487.25 1238.49L1486.09 1237.25ZM1163.74 1240.71L1162.58 1241.96L1165.64 1244.72L1166.76 1243.43C1165.75 1242.53 1164.65 1241.62 1163.74 1240.69V1240.71ZM1478.26 1244.3C1477.18 1245.23 1476.15 1246.14 1475.01 1247.02L1476.08 1248.33C1477.18 1247.45 1478.19 1246.52 1479.35 1245.59L1478.26 1244.3ZM1171.74 1247.68L1170.66 1248.99L1173.96 1251.69L1175.03 1250.36C1173.94 1249.5 1172.92 1248.59 1171.74 1247.68ZM1470 1251.02C1468.88 1251.88 1467.77 1252.75 1466.63 1253.59L1467.66 1254.97L1471.04 1252.35L1470 1251.02ZM1179.99 1254.27L1178.96 1255.62C1180.1 1256.49 1181.24 1257.33 1182.4 1258.15L1183.39 1256.78L1179.99 1254.27ZM1461.52 1257.37C1460.38 1258.2 1459.22 1259 1458.06 1259.8L1459.01 1261.19C1460.19 1260.39 1461.35 1259.57 1462.51 1258.75L1461.52 1257.37ZM1188.61 1260.43L1187.64 1261.85L1191.2 1264.21L1192.22 1262.84C1191.03 1262.08 1189.85 1261.28 1188.69 1260.5L1188.61 1260.43ZM1452.86 1263.41L1449.3 1265.69L1450.2 1267.13L1453.79 1264.83L1452.86 1263.41ZM1197.49 1266.18L1196.61 1267.64L1200.28 1269.75L1201.15 1268.29L1197.49 1266.18ZM1443.79 1268.92L1440.11 1271.04L1440.96 1272.51L1444.65 1270.4L1443.79 1268.92ZM1206.68 1271.5L1205.85 1272.98C1207.1 1273.68 1208.34 1274.35 1209.61 1275.09L1210.41 1273.59L1206.68 1271.58V1271.5ZM1434.54 1274.2L1430.78 1276.17L1431.56 1277.69C1432.83 1277.03 1434.1 1276.38 1435.34 1275.7L1434.54 1274.2ZM1216.07 1276.46L1215.33 1277.98L1219.17 1279.84L1219.89 1278.3C1218.62 1277.69 1217.34 1277.1 1216.07 1276.46ZM1425.04 1278.98L1421.22 1280.75L1421.92 1282.31L1425.78 1280.5L1425.04 1278.98ZM1225.65 1280.92L1224.96 1282.48L1228.9 1284.15L1229.56 1282.59L1225.65 1280.92ZM1415.4 1283.31L1411.49 1284.91L1412.12 1286.49L1416.05 1284.87L1415.4 1283.31ZM1235.45 1284.93L1234.83 1286.54L1238.84 1288.04L1239.41 1286.43L1235.45 1284.93ZM1405.56 1287.19C1404.23 1287.68 1402.9 1288.16 1401.57 1288.61L1402.12 1290.23L1406.15 1288.8L1405.56 1287.19ZM1245.43 1288.52L1244.88 1290.15L1248.96 1291.46L1249.46 1289.83L1245.43 1288.52ZM1395.53 1290.63L1391.48 1291.88L1391.97 1293.51L1396.04 1292.26L1395.53 1290.63ZM1255.54 1291.69L1255.08 1293.34L1259.3 1294.48L1259.74 1292.83C1258.37 1292.47 1257.02 1292.09 1255.65 1291.69H1255.54ZM1385.46 1293.59L1381.37 1294.65L1381.77 1296.29L1385.99 1295.24L1385.46 1293.59ZM1265.91 1294.41L1265.5 1296.06L1269.73 1297.03L1270.09 1295.36L1265.86 1294.41H1265.91ZM1375.12 1296.06L1370.9 1296.93L1371 1297.48H1375.35L1375.12 1296.06ZM1276.21 1296.67L1276.06 1297.48H1280.28L1276.06 1296.67" fill="#E9E9E9"/>
</g>
</svg>
