<svg width="1292" height="14" viewBox="0 0 1292 14" fill="none" xmlns="http://www.w3.org/2000/svg">
<path fill-rule="evenodd" clip-rule="evenodd" d="M0.0184321 4.80581C0.213353 4.45567 2.09995 4.19221 4.23227 4.21737C26.2387 4.47697 49.2543 4.78311 72.9383 5.09815C170.532 6.3963 279.474 7.84539 375.905 6.81105C434.803 6.17929 512.234 6.09186 579.981 6.01536C610.464 5.98094 638.987 5.94873 662.979 5.87015C701.435 5.7442 759.715 6.33004 818.461 6.92056L820.801 6.94409C880.479 7.5439 940.389 8.13908 980.903 8.00638C1017.89 7.88524 1056.67 7.93397 1094.59 7.98161C1112.37 8.00394 1129.96 8.02604 1147.08 8.03027C1200.85 8.04358 1250.02 7.8807 1286.71 7.0097C1288.83 6.95926 1290.77 7.2 1291.03 7.5474C1291.3 7.8948 1289.79 8.21732 1287.67 8.26776C1250.35 9.15388 1200.65 9.31481 1146.92 9.30152C1129.69 9.29726 1112.05 9.27508 1094.24 9.25269C1056.38 9.2051 1017.79 9.15659 980.907 9.27738C940.004 9.41135 879.722 8.81143 820.177 8.21296L818.159 8.19267C759.163 7.59966 701.121 7.01623 662.983 7.14114C638.777 7.22042 610.114 7.25275 579.544 7.28722C511.903 7.36349 434.931 7.45028 376.262 8.07957C279.199 9.12068 169.507 7.66103 71.8839 6.36197C48.2758 6.04782 25.3736 5.74307 3.5264 5.48534C1.39408 5.46019 -0.176488 5.15595 0.0184321 4.80581Z" fill="white"/>
</svg>
