<svg width="13" height="12" viewBox="0 0 13 12" fill="none" xmlns="http://www.w3.org/2000/svg">
<path d="M12.4402 11.8659C12.8445 11.8659 13 11.8156 13 11.6983C13 11.6145 12.9067 11.4804 12.7512 11.3128C11.4139 9.72067 9.14354 6.20112 9.14354 5.71508C9.14354 5.58101 11.2584 2.16201 12.4713 0.972066C12.6268 0.804469 12.9067 0.519552 12.9067 0.318436C12.9067 0.201117 12.7823 0.117318 12.5335 0.100558C11.5694 0.0167596 10.3876 0 9.48565 0C8.92584 0 8.98804 0.0670382 8.80144 0.385474L6.7177 3.98883L4.19856 0.469274C4.01196 0.184357 4.07416 0.184357 3.35885 0.184357C2.61244 0.184357 1.43062 0.134077 0.590909 0.134077C0.186603 0.134077 0 0.150837 0 0.217876C0 0.268156 0.0933014 0.335195 0.186603 0.452513C1.52392 1.84357 4.04306 5.86592 4.04306 5.86592C4.04306 6.20112 1.74163 9.40223 0.248804 11.3799C0.0933014 11.5642 0 11.6816 0 11.7654C0 11.9497 3.57656 12 3.98086 12C4.22967 12 4.29187 11.933 4.44737 11.648C5.19378 10.4749 6.2512 8.73184 6.5933 8.31285L8.30383 11.3966C8.55263 11.7821 8.39713 11.8492 9.29904 11.8659C9.88995 11.8659 10.6986 11.8827 11.1962 11.8827C11.6316 11.8827 12.067 11.8659 12.4402 11.8659Z" fill="white"/>
</svg>
