<svg width="332" height="465" viewBox="0 0 332 465" fill="none" xmlns="http://www.w3.org/2000/svg">
<path d="M645.506 -168V174.13C645.506 174.13 626.817 477 323.002 477" stroke="#A28B62" stroke-miterlimit="10"/>
<path d="M639.119 -168V174.13C639.119 174.13 620.801 477 323.002 477" stroke="#A28B62" stroke-miterlimit="10"/>
<path d="M632.738 -168V174.13C632.738 174.13 614.791 477 323.008 477" stroke="#A28B62" stroke-miterlimit="10"/>
<path d="M626.35 -168V174.13C626.35 174.13 608.775 477 323.008 477" stroke="#A28B62" stroke-miterlimit="10"/>
<path d="M619.961 -168V174.13C619.961 174.13 602.757 477 323.002 477" stroke="#A28B62" stroke-miterlimit="10"/>
<path d="M613.574 -168V174.13C613.574 174.13 596.736 477 323.002 477" stroke="#A28B62" stroke-miterlimit="10"/>
<path d="M607.193 -168V174.13C607.193 174.13 590.726 477 323.008 477" stroke="#A28B62" stroke-miterlimit="10"/>
<path d="M600.806 -168V174.13C600.806 174.13 584.71 477 323.008 477" stroke="#A28B62" stroke-miterlimit="10"/>
<path d="M594.419 -168V174.13C594.419 174.13 578.693 477 323.008 477" stroke="#A28B62" stroke-miterlimit="10"/>
<path d="M588.03 -168V174.13C588.03 174.13 572.671 477 323.002 477" stroke="#A28B62" stroke-miterlimit="10"/>
<path d="M581.649 -168V174.13C581.649 174.13 566.661 477 323.008 477" stroke="#A28B62" stroke-miterlimit="10"/>
<path d="M575.261 -168V174.13C575.261 174.13 560.645 477 323.008 477" stroke="#A28B62" stroke-miterlimit="10"/>
<path d="M568.874 -168V174.13C568.874 174.13 554.629 477 323.008 477" stroke="#A28B62" stroke-miterlimit="10"/>
<path d="M562.485 -168V174.13C562.485 174.13 548.611 477 323.002 477" stroke="#A28B62" stroke-miterlimit="10"/>
<path d="M556.098 -168V174.13C556.098 174.13 542.59 477 323.002 477" stroke="#A28B62" stroke-miterlimit="10"/>
<path d="M549.717 -168V174.13C549.717 174.13 536.58 477 323.008 477" stroke="#A28B62" stroke-miterlimit="10"/>
<path d="M543.33 -168V174.13C543.33 174.13 530.564 477 323.008 477" stroke="#A28B62" stroke-miterlimit="10"/>
<path d="M536.941 -168V174.13C536.941 174.13 524.546 477 323.002 477" stroke="#A28B62" stroke-miterlimit="10"/>
<path d="M530.554 -168V174.13C530.554 174.13 518.529 477 323.002 477" stroke="#A28B62" stroke-miterlimit="10"/>
<path d="M524.172 -168V174.13C524.172 174.13 512.515 477 323.008 477" stroke="#A28B62" stroke-miterlimit="10"/>
<path d="M517.785 -168V174.13C517.785 174.13 506.499 477 323.008 477" stroke="#A28B62" stroke-miterlimit="10"/>
<path d="M511.396 -168V174.13C511.396 174.13 500.481 477 323.002 477" stroke="#A28B62" stroke-miterlimit="10"/>
<path d="M505.009 -168V174.13C505.009 174.13 494.464 477 323.002 477" stroke="#A28B62" stroke-miterlimit="10"/>
<path d="M498.628 -168V174.13C498.628 174.13 488.45 477 323.008 477" stroke="#A28B62" stroke-miterlimit="10"/>
<path d="M492.241 -168V174.13C492.241 174.13 482.434 477 323.008 477" stroke="#A28B62" stroke-miterlimit="10"/>
<path d="M485.854 -168V174.13C485.854 174.13 476.418 477 323.008 477" stroke="#A28B62" stroke-miterlimit="10"/>
<path d="M479.465 -168V174.13C479.465 174.13 470.4 477 323.002 477" stroke="#A28B62" stroke-miterlimit="10"/>
<path d="M473.083 -168V174.13C473.083 174.13 464.389 477 323.008 477" stroke="#A28B62" stroke-miterlimit="10"/>
<path d="M466.696 -168V174.13C466.696 174.13 458.369 477 323.008 477" stroke="#A28B62" stroke-miterlimit="10"/>
<path d="M460.309 -168V174.13C460.309 174.13 452.353 477 323.008 477" stroke="#A28B62" stroke-miterlimit="10"/>
<path d="M453.92 -168V174.13C453.92 174.13 446.335 477 323.002 477" stroke="#A28B62" stroke-miterlimit="10"/>
<path d="M447.533 -168V174.13C447.533 174.13 440.318 477 323.002 477" stroke="#A28B62" stroke-miterlimit="10"/>
<path d="M441.152 -168V174.13C441.152 174.13 434.304 477 323.008 477" stroke="#A28B62" stroke-miterlimit="10"/>
<path d="M434.765 -168V174.13C434.765 174.13 428.288 477 323.008 477" stroke="#A28B62" stroke-miterlimit="10"/>
<path d="M428.376 -168V174.13C428.376 174.13 422.27 477 323.002 477" stroke="#A28B62" stroke-miterlimit="10"/>
<path d="M421.988 -168V174.13C421.988 174.13 416.253 477 323.002 477" stroke="#A28B62" stroke-miterlimit="10"/>
<path d="M415.607 -168V174.13C415.607 174.13 410.243 477 323.008 477" stroke="#A28B62" stroke-miterlimit="10"/>
<path d="M409.22 -168V174.13C409.22 174.13 404.223 477 323.008 477" stroke="#A28B62" stroke-miterlimit="10"/>
<path d="M402.831 -168V174.13C402.831 174.13 398.205 477 323.002 477" stroke="#A28B62" stroke-miterlimit="10"/>
<path d="M396.444 -168V174.13C396.444 174.13 392.189 477 323.002 477" stroke="#A28B62" stroke-miterlimit="10"/>
<path d="M390.063 -168V174.13C390.063 174.13 386.178 477 323.008 477" stroke="#A28B62" stroke-miterlimit="10"/>
<path d="M383.676 -168V174.13C383.676 174.13 380.162 477 323.008 477" stroke="#A28B62" stroke-miterlimit="10"/>
<path d="M377.288 -168V174.13C377.288 174.13 374.142 477 323.008 477" stroke="#A28B62" stroke-miterlimit="10"/>
<path d="M370.899 -168V174.13C370.899 174.13 368.124 477 323.002 477" stroke="#A28B62" stroke-miterlimit="10"/>
<path d="M364.518 -168V174.13C364.518 174.13 362.113 477 323.008 477" stroke="#A28B62" stroke-miterlimit="10"/>
<path d="M358.131 -168V174.13C358.131 174.13 356.097 477 323.008 477" stroke="#A28B62" stroke-miterlimit="10"/>
<path d="M351.744 -168V174.13C351.744 174.13 350.077 477 323.008 477" stroke="#A28B62" stroke-miterlimit="10"/>
<path d="M345.355 -168V174.13C345.355 174.13 344.059 477 323.002 477" stroke="#A28B62" stroke-miterlimit="10"/>
<path d="M338.968 -168V174.13C338.968 174.13 338.043 477 323.002 477" stroke="#A28B62" stroke-miterlimit="10"/>
<path d="M332.586 -168V174.13C332.586 174.13 332.032 477 323.008 477" stroke="#A28B62" stroke-miterlimit="10"/>
<path d="M326.199 -168V174.13C326.199 174.13 326.016 477 323.008 477" stroke="#A28B62" stroke-miterlimit="10"/>
<path d="M319.811 -168V174.13C319.811 174.13 319.994 477 323.002 477" stroke="#A28B62" stroke-miterlimit="10"/>
<path d="M313.424 -168V174.13C313.424 174.13 313.978 477 323.003 477" stroke="#A28B62" stroke-miterlimit="10"/>
<path d="M307.041 -168V174.13C307.041 174.13 307.966 477 323.007 477" stroke="#A28B62" stroke-miterlimit="10"/>
<path d="M300.654 -168V174.13C300.654 174.13 301.95 477 323.007 477" stroke="#A28B62" stroke-miterlimit="10"/>
<path d="M294.268 -168V174.13C294.268 174.13 295.935 477 323.004 477" stroke="#A28B62" stroke-miterlimit="10"/>
<path d="M287.879 -168V174.13C287.879 174.13 289.913 477 323.002 477" stroke="#A28B62" stroke-miterlimit="10"/>
<path d="M281.496 -168V174.13C281.496 174.13 283.901 477 323.006 477" stroke="#A28B62" stroke-miterlimit="10"/>
<path d="M275.109 -168V174.13C275.109 174.13 277.885 477 323.007 477" stroke="#A28B62" stroke-miterlimit="10"/>
<path d="M268.723 -168V174.13C268.723 174.13 271.869 477 323.003 477" stroke="#A28B62" stroke-miterlimit="10"/>
<path d="M262.336 -168V174.13C262.336 174.13 265.849 477 323.004 477" stroke="#A28B62" stroke-miterlimit="10"/>
<path d="M255.952 -168V174.13C255.952 174.13 259.837 477 323.007 477" stroke="#A28B62" stroke-miterlimit="10"/>
<path d="M249.565 -168V174.13C249.565 174.13 253.821 477 323.007 477" stroke="#A28B62" stroke-miterlimit="10"/>
<path d="M243.178 -168V174.13C243.178 174.13 247.804 477 323.007 477" stroke="#A28B62" stroke-miterlimit="10"/>
<path d="M236.791 -168V174.13C236.791 174.13 241.788 477 323.003 477" stroke="#A28B62" stroke-miterlimit="10"/>
<path d="M230.407 -168V174.13C230.407 174.13 235.771 477 323.007 477" stroke="#A28B62" stroke-miterlimit="10"/>
<path d="M224.021 -168V174.13C224.021 174.13 229.755 477 323.007 477" stroke="#A28B62" stroke-miterlimit="10"/>
<path d="M217.633 -168V174.13C217.633 174.13 223.739 477 323.006 477" stroke="#A28B62" stroke-miterlimit="10"/>
<path d="M211.246 -168V174.13C211.246 174.13 217.723 477 323.003 477" stroke="#A28B62" stroke-miterlimit="10"/>
<path d="M204.859 -168V174.13C204.859 174.13 211.707 477 323.003 477" stroke="#A28B62" stroke-miterlimit="10"/>
<path d="M198.476 -168V174.13C198.476 174.13 205.69 477 323.007 477" stroke="#A28B62" stroke-miterlimit="10"/>
<path d="M192.089 -168V174.13C192.089 174.13 199.674 477 323.007 477" stroke="#A28B62" stroke-miterlimit="10"/>
<path d="M185.701 -168V174.13C185.701 174.13 193.658 477 323.002 477" stroke="#A28B62" stroke-miterlimit="10"/>
<path d="M179.314 -168V174.13C179.314 174.13 187.642 477 323.003 477" stroke="#A28B62" stroke-miterlimit="10"/>
<path d="M172.932 -168V174.13C172.932 174.13 181.626 477 323.007 477" stroke="#A28B62" stroke-miterlimit="10"/>
<path d="M166.544 -168V174.13C166.544 174.13 175.609 477 323.007 477" stroke="#A28B62" stroke-miterlimit="10"/>
<path d="M160.157 -168V174.13C160.157 174.13 169.593 477 323.003 477" stroke="#A28B62" stroke-miterlimit="10"/>
<path d="M153.77 -168V174.13C153.77 174.13 163.576 477 323.002 477" stroke="#A28B62" stroke-miterlimit="10"/>
<path d="M147.387 -168V174.13C147.387 174.13 157.565 477 323.007 477" stroke="#A28B62" stroke-miterlimit="10"/>
<path d="M141 -168V174.13C141 174.13 151.545 477 323.007 477" stroke="#A28B62" stroke-miterlimit="10"/>
<path d="M134.612 -168V174.13C134.612 174.13 145.528 477 323.007 477" stroke="#A28B62" stroke-miterlimit="10"/>
<path d="M128.226 -168V174.13C128.226 174.13 139.512 477 323.003 477" stroke="#A28B62" stroke-miterlimit="10"/>
<path d="M121.843 -168V174.13C121.843 174.13 133.5 477 323.007 477" stroke="#A28B62" stroke-miterlimit="10"/>
<path d="M115.455 -168V174.13C115.455 174.13 127.479 477 323.007 477" stroke="#A28B62" stroke-miterlimit="10"/>
<path d="M109.068 -168V174.13C109.068 174.13 121.464 477 323.007 477" stroke="#A28B62" stroke-miterlimit="10"/>
<path d="M102.681 -168V174.13C102.681 174.13 115.447 477 323.003 477" stroke="#A28B62" stroke-miterlimit="10"/>
<path d="M96.2939 -168V174.13C96.2939 174.13 109.431 477 323.003 477" stroke="#A28B62" stroke-miterlimit="10"/>
<path d="M89.9111 -168V174.13C89.9111 174.13 103.419 477 323.007 477" stroke="#A28B62" stroke-miterlimit="10"/>
<path d="M83.5234 -168V174.13C83.5234 174.13 97.3983 477 323.007 477" stroke="#A28B62" stroke-miterlimit="10"/>
<path d="M77.1367 -168V174.13C77.1367 174.13 91.3825 477 323.003 477" stroke="#A28B62" stroke-miterlimit="10"/>
<path d="M70.749 -168V174.13C70.749 174.13 85.3657 477 323.003 477" stroke="#A28B62" stroke-miterlimit="10"/>
<path d="M64.3662 -168V174.13C64.3662 174.13 79.3538 477 323.007 477" stroke="#A28B62" stroke-miterlimit="10"/>
<path d="M57.9795 -168V174.13C57.9795 174.13 73.338 477 323.007 477" stroke="#A28B62" stroke-miterlimit="10"/>
<path d="M51.5918 -168V174.13C51.5918 174.13 67.3171 477 323.003 477" stroke="#A28B62" stroke-miterlimit="10"/>
<path d="M45.2051 -168V174.13C45.2051 174.13 61.3014 477 323.003 477" stroke="#A28B62" stroke-miterlimit="10"/>
<path d="M38.8213 -168V174.13C38.8213 174.13 55.2885 477 323.007 477" stroke="#A28B62" stroke-miterlimit="10"/>
<path d="M32.4346 -168V174.13C32.4346 174.13 49.2727 477 323.007 477" stroke="#A28B62" stroke-miterlimit="10"/>
<path d="M26.0479 -168V174.13C26.0479 174.13 43.2528 477 323.007 477" stroke="#A28B62" stroke-miterlimit="10"/>
<path d="M19.6602 -168V174.13C19.6602 174.13 37.236 477 323.003 477" stroke="#A28B62" stroke-miterlimit="10"/>
<path d="M13.2773 -168V174.13C13.2773 174.13 31.2241 477 323.007 477" stroke="#A28B62" stroke-miterlimit="10"/>
<path d="M6.88965 -168V174.13C6.88965 174.13 25.2074 477 323.007 477" stroke="#A28B62" stroke-miterlimit="10"/>
<path d="M0.50293 -168V174.13C0.50293 174.13 19.1915 477 323.007 477" stroke="#A28B62" stroke-miterlimit="10"/>
</svg>
