<?xml version="1.0" encoding="utf-8"?>
<!-- Generator: Adobe Illustrator 25.4.1, SVG Export Plug-In . SVG Version: 6.00 Build 0)  -->
<svg version="1.1" id="Layer_1" xmlns="http://www.w3.org/2000/svg" xmlns:xlink="http://www.w3.org/1999/xlink" x="0px" y="0px"
	 viewBox="0 0 502 188" enable-background="new 0 0 502 188" xml:space="preserve">
	<g>
		<polygon fill="#FDED4F" points="394.2,188.1 394.8,187.2 393.8,187.2 	"/>
		<path fill="#E6204B" d="M501,3.1l-4.9,8.5h-52.3L450.5,0H420l-25.8,44.7L368.5,0h-30.4l56.3,97.4l26-45h52.2l-77.8,134.8H501V3.1z
			M480.8,38.2h-52.3l7.2-12.4H488L480.8,38.2z"/>
		<polygon fill="#41B28B" points="5.8,175.6 0.9,184 0.9,187.2 51.5,187.2 58.2,175.6 	"/>
		<polygon fill="#41B28B" points="14.1,161.4 66.2,161.4 73.6,148.9 21.2,148.9 	"/>
		<polygon fill="#FDED4F" points="157.2,175.6 163.9,187.2 216.2,187.2 209.6,175.6 	"/>
		<polygon fill="#FDED4F" points="141.9,148.9 149.2,161.4 201.4,161.4 194.2,148.9 	"/>
		<polygon fill="#F5A75F" points="81.7,134.8 107.7,89.7 133.7,134.8 186.1,134.8 108.2,0 107.2,0 29.3,134.8 	"/>
		<polygon fill="#2B2C28" points="81.9,187.2 133.6,187.2 107.7,142.5 	"/>
		<polygon fill="#E6204B" points="292,0 153.2,0 222.6,120.2 	"/>
		<polygon fill="#41B28B" points="235.7,175.6 228.9,187.2 281.2,187.2 288,175.6 	"/>
		<polygon fill="#41B28B" points="243.8,161.4 296.1,161.4 303.4,148.9 251.1,148.9 	"/>
		<polygon fill="#FDED4F" points="311.5,134.8 337.6,89.7 316,52.4 368.2,52.4 394.2,97.5 394.2,97.4 338.1,0 337.1,0 259.2,134.8 	
			"/>
		<polygon fill="#41B28B" points="496.1,11.6 501,3.1 501,0 450.5,0 443.9,11.6 	"/>
		<polygon fill="#41B28B" points="428.5,38.2 480.8,38.2 488,25.8 435.6,25.8 	"/>
		<polygon fill="#FDED4F" points="420.4,52.4 394.2,97.4 415.9,134.8 363.6,134.8 337.6,89.7 337.6,89.7 393.8,187.2 394.8,187.2 
			472.5,52.4 	"/>
		<polygon fill="#FDED4F" points="368.2,52.4 316,52.4 337.6,89.7 337.6,89.7 363.6,134.8 415.9,134.8 394.2,97.4 394.2,97.5 	"/>
		<polygon fill="#F5A75F" points="311.8,187.2 363.4,187.2 337.6,142.5 	"/>
		<polygon fill="#FDED4F" points="420,0 368.5,0 394.2,44.7 	"/>
		<g>
			<polygon fill="none" points="201.4,161.4 194.2,148.9 194.2,148.9 201.3,161.4 		"/>
			<polygon fill="none" points="14.1,161.4 66.2,161.4 73.6,148.9 21.2,148.9 		"/>
			<polygon fill="none" points="149.2,161.4 201.3,161.4 194.2,148.9 141.9,148.9 		"/>
			<polygon fill="none" points="243.8,161.4 296.1,161.4 303.4,148.9 251.1,148.9 		"/>
			<path fill="#00A4BD" d="M149.2,161.4l-7.2-12.5h52.2l-8.2-14.1h-52.2l-26-45.1l-26,45.1H29.5L107.2,0H0.9v184l4.9-8.5h52.3
				l-6.7,11.6h30.5l25.8-44.7l25.8,44.7h30.4l-6.7-11.6h52.2l-8.2-14.1L149.2,161.4L149.2,161.4z M66.2,161.4H13.9l7.2-12.5h52.3
				L66.2,161.4z"/>
			<path fill="#2B2C28" d="M337.6,89.7l-26,45h-52.3L337.1,0H292l-69.4,120.2L153.2,0h-44.9l77.8,134.8h-0.1l8.2,14.1h0.1l7.2,12.5
				h-0.1l8.2,14.1h0.1l6.7,11.6h12.6l6.7-11.6H288l-6.7,11.6h30.5l25.8-44.7l25.8,44.7h30.4L337.6,89.7z M296.1,161.4h-52.3l7.2-12.5
				h52.3L296.1,161.4z"/>
		</g>
	</g>
</svg>
