<?xml version="1.0" encoding="utf-8"?>
<!-- Generator: Adobe Illustrator 25.4.1, SVG Export Plug-In . SVG Version: 6.00 Build 0)  -->
<svg version="1.1" id="Layer_1" xmlns="http://www.w3.org/2000/svg" xmlns:xlink="http://www.w3.org/1999/xlink" x="0px" y="0px"
	 viewBox="0 0 188 500" enable-background="new 0 0 188 500" xml:space="preserve">
	<g>
		<polygon fill="#FDED4F" points="188.3,106.7 187.4,106.2 187.4,107.2 	"/>
		<path fill="#E6204B" d="M3.3-0.1l8.5,4.9v52.3L0.2,50.4v30.5l44.7,25.8L0.2,132.5v30.4l97.4-56.3l-45-26V28.4l134.8,77.8V-0.1H3.3z
			M38.4,20.2v52.3L26,65.3V13L38.4,20.2z"/>
		<polygon fill="#41B28B" points="175.8,495.1 184.2,500 187.4,500 187.4,449.5 175.8,442.8 	"/>
		<polygon fill="#41B28B" points="161.6,486.9 161.6,434.7 149.1,427.4 149.1,479.7 	"/>
		<polygon fill="#FDED4F" points="175.8,343.7 187.4,337 187.4,284.7 175.8,291.4 	"/>
		<polygon fill="#FDED4F" points="149.1,359 161.6,351.8 161.6,299.5 149.1,306.8 	"/>
		<polygon fill="#F5A75F" points="135,419.3 89.9,393.2 135,367.2 135,314.9 0.2,392.7 0.2,393.7 135,471.6 	"/>
		<polygon fill="#2B2C28" points="187.4,419 187.4,367.4 142.7,393.2 	"/>
		<polygon fill="#E6204B" points="0.2,209 0.2,347.8 120.4,278.4 	"/>
		<polygon fill="#41B28B" points="175.8,265.3 187.4,272 187.4,219.7 175.8,213 	"/>
		<polygon fill="#41B28B" points="161.6,257.1 161.6,204.8 149.1,197.6 149.1,249.9 	"/>
		<polygon fill="#FDED4F" points="135,189.5 89.9,163.4 52.6,185 52.6,132.7 97.7,106.7 97.6,106.7 0.2,162.9 0.2,163.9 135,241.7 	
			"/>
		<polygon fill="#41B28B" points="11.8,4.8 3.3,-0.1 0.2,-0.1 0.2,50.4 11.8,57.1 	"/>
		<polygon fill="#41B28B" points="38.4,72.5 38.4,20.2 26,13 26,65.3 	"/>
		<polygon fill="#FDED4F" points="52.6,80.6 97.6,106.7 135,85.1 135,137.4 89.9,163.4 89.9,163.4 187.4,107.2 187.4,106.2 
			52.6,28.4 	"/>
		<polygon fill="#FDED4F" points="52.6,132.7 52.6,185 89.9,163.4 89.9,163.4 135,137.4 135,85.1 97.6,106.7 97.7,106.7 	"/>
		<polygon fill="#F5A75F" points="187.4,189.2 187.4,137.6 142.7,163.4 	"/>
		<polygon fill="#FDED4F" points="0.2,80.9 0.2,132.5 44.9,106.7 	"/>
		<g>
			<polygon fill="none" points="161.6,299.5 149.1,306.8 149.1,306.8 161.6,299.6 		"/>
			<polygon fill="none" points="161.6,486.9 161.6,434.7 149.1,427.4 149.1,479.7 		"/>
			<polygon fill="none" points="161.6,351.8 161.6,299.6 149.1,306.8 149.1,359 		"/>
			<polygon fill="none" points="161.6,257.1 161.6,204.8 149.1,197.6 149.1,249.9 		"/>
			<path fill="#00A4BD" d="M161.6,351.8l-12.5,7.2v-52.2L135,315v52.2l-45.1,26l45.1,26v52.3L0.2,393.7V500h184l-8.5-4.9v-52.3
				l11.6,6.7V419l-44.7-25.8l44.7-25.8V337l-11.6,6.7v-52.2l-14.1,8.2V351.8z M161.6,434.7v52.3l-12.5-7.2v-52.3L161.6,434.7z"/>
			<path fill="#2B2C28" d="M89.9,163.4l45,26v52.3L0.2,163.9V209l120.2,69.4L0.2,347.8v44.9L135,314.9v0.1l14.1-8.2v-0.1l12.5-7.2
				v0.1l14.1-8.2v-0.1l11.6-6.7V272l-11.6-6.7V213l11.6,6.7v-30.5l-44.7-25.8l44.7-25.8v-30.4L89.9,163.4z M161.6,204.8v52.3
				l-12.5-7.2v-52.3L161.6,204.8z"/>
		</g>
	</g>
</svg>
