<?xml version="1.0" encoding="utf-8"?>
<!-- Generator: Adobe Illustrator 27.0.0, SVG Export Plug-In . SVG Version: 6.00 Build 0)  -->
<svg version="1.1" id="Layer_1" xmlns="http://www.w3.org/2000/svg" xmlns:xlink="http://www.w3.org/1999/xlink" x="0px" y="0px"
	 viewBox="0 0 188 500" enable-background="new 0 0 188 500" xml:space="preserve">
<g>
	<path fill="#66D2D4" d="M183.4,500.5l-8.5-4.9l0.2-52.3l11.6,6.8l0.1-30.5l-44.6-26l44.8-25.6l0.1-30.4l-97.7,55.9l44.9,26.2
		l-0.2,52.3L-0.2,393.4l-0.4,106.3L183.4,500.5z M148.4,480l0.2-52.3l12.5,7.3l-0.2,52.3L148.4,480z"/>
	<polygon fill="#28364E" points="13,4.5 4.6,-0.5 1.4,-0.5 1.2,50 12.8,56.8 	"/>
	<polygon fill="#28364E" points="27.2,12.7 26.9,65 39.4,72.3 39.6,20 	"/>
	<polygon fill="#28364E" points="12.4,155.9 0.8,162.6 0.5,214.9 12.2,208.2 	"/>
	<polygon fill="#28364E" points="39.1,140.7 26.6,147.8 26.4,200.1 38.9,193 	"/>
	<polygon fill="#28364E" points="53.5,80.5 98.5,106.7 53.3,132.6 53.1,184.9 188.2,107.6 188.2,106.6 53.7,28.2 	"/>
	<polygon fill="#FFD0DB" points="1.1,80.5 0.9,132.1 45.7,106.5 	"/>
	<polygon fill="#66D2D4" points="187.4,291.4 188,152.5 67.5,221.4 	"/>
	<polygon fill="#28364E" points="12.1,234.3 0.5,227.6 0.3,279.9 11.9,286.6 	"/>
	<polygon fill="#28364E" points="26.2,242.6 26,294.9 38.4,302.1 38.7,249.8 	"/>
	<polygon fill="#E8E8E8" points="175,495.5 183.4,500.5 186.6,500.5 186.8,450 175.2,443.2 	"/>
	<polygon fill="#E8E8E8" points="148.6,427.7 148.4,480 160.8,487.3 161.1,435 	"/>
	<polygon fill="#28364E" points="134.5,419.5 89.6,393.3 187.2,337.5 187.3,336.5 52.8,258.1 52.5,310.4 97.5,336.6 -0.2,392.4 
		-0.2,393.4 134.3,471.8 	"/>
	<polygon fill="#FFD0DB" points="0.1,310.4 -0.1,362 44.7,336.4 	"/>
	<polygon fill="#FFD0DB" points="186.9,419.5 187.1,367.9 142.3,393.5 	"/>
	<g>
		<polygon fill="none" points="26.4,200.1 38.9,193 38.9,192.9 26.4,200 		"/>
		<polygon fill="none" points="27.2,12.7 26.9,65 39.4,72.3 39.6,20 		"/>
		<polygon fill="none" points="26.6,147.8 26.4,200 38.9,192.9 39.1,140.7 		"/>
		<polygon fill="none" points="26.2,242.6 26,294.9 38.4,302.1 38.7,249.8 		"/>
		<path fill="#FFBB2C" d="M26.6,147.8l12.5-7.2l-0.2,52.2l14.2-8.1l0.2-52.2l45.2-25.9l-45-26.2l0.2-52.3l134.5,78.4l0.4-106.3
			L4.6-0.5L13,4.5l-0.2,52.3L1.2,50L1.1,80.5l44.6,26L0.9,132.1l-0.1,30.5l11.7-6.7l-0.2,52.2l14.2-8.1L26.6,147.8z M26.9,65
			l0.2-52.3L39.6,20l-0.2,52.3L26.9,65z"/>
		<path fill="#E7E7E7" d="M97.5,336.6l-44.9-26.2l0.2-52.3l134.5,78.4l0.2-45.1l-120-69.9L188,152.5l0.2-44.9L53.1,184.9l0-0.1
			l-14.2,8.1l0,0.1l-12.5,7.2l0-0.1l-14.2,8.1l0,0.1l-11.7,6.7l-0.1,12.7l11.6,6.8l-0.2,52.3l-11.6-6.8l-0.1,30.5l44.6,26L-0.1,362
			l-0.1,30.4L97.5,336.6z M26,294.9l0.2-52.3l12.5,7.3l-0.2,52.3L26,294.9z"/>
	</g>
</g>
</svg>
