<?xml version="1.0" encoding="utf-8"?>
<!-- Generator: Adobe Illustrator 27.0.0, SVG Export Plug-In . SVG Version: 6.00 Build 0)  -->
<svg version="1.1" id="Layer_1" xmlns="http://www.w3.org/2000/svg" xmlns:xlink="http://www.w3.org/1999/xlink" x="0px" y="0px"
	 viewBox="0 0 502 188" enable-background="new 0 0 502 188" xml:space="preserve">
<g>
	<path fill="#66D2D4" d="M501.1,3.5l-4.9,8.5h-52.3l6.7-11.6h-30.5l-25.8,44.7L368.5,0.4h-30.4l56.3,97.5l26-45.1h52.3l-77.8,134.8
		h106.3V3.5z M480.8,38.7h-52.3l7.2-12.5H488L480.8,38.7z"/>
	<polygon fill="#28364E" points="5.8,176 0.9,184.5 0.9,187.6 51.4,187.6 58.1,176 	"/>
	<polygon fill="#28364E" points="14,161.8 66.3,161.8 73.5,149.3 21.2,149.3 	"/>
	<polygon fill="#28364E" points="157.3,176 164,187.6 216.3,187.6 209.6,176 	"/>
	<polygon fill="#28364E" points="141.9,149.3 149.1,161.8 201.4,161.8 194.2,149.3 	"/>
	<polygon fill="#28364E" points="81.7,135.2 107.7,90.1 133.7,135.2 186,135.2 108.2,0.4 107.2,0.4 29.4,135.2 	"/>
	<polygon fill="#FFD0DB" points="81.9,187.6 133.5,187.6 107.7,142.9 	"/>
	<polygon fill="#66D2D4" points="292,0.4 153.1,0.4 222.6,120.6 	"/>
	<polygon fill="#28364E" points="235.7,176 229,187.6 281.3,187.6 288,176 	"/>
	<polygon fill="#28364E" points="243.8,161.8 296.1,161.8 303.4,149.3 251.1,149.3 	"/>
	<polygon fill="#E8E8E8" points="496.2,12 501.1,3.5 501.1,0.4 450.6,0.4 443.9,12 	"/>
	<polygon fill="#E8E8E8" points="428.5,38.7 480.8,38.7 488,26.2 435.7,26.2 	"/>
	<polygon fill="#28364E" points="420.3,52.8 394.3,97.8 338.1,0.4 337.1,0.4 259.2,135.2 311.5,135.2 337.5,90.2 393.8,187.6 
		394.8,187.6 472.6,52.8 	"/>
	<polygon fill="#FFD0DB" points="311.8,187.6 363.4,187.6 337.6,142.9 	"/>
	<polygon fill="#FFD0DB" points="420.1,0.4 368.5,0.4 394.3,45.1 	"/>
	<g>
		<polygon fill="none" points="201.4,161.8 194.2,149.3 194.1,149.3 201.3,161.8 		"/>
		<polygon fill="none" points="14,161.8 66.3,161.8 73.5,149.3 21.2,149.3 		"/>
		<polygon fill="none" points="149.1,161.8 201.3,161.8 194.1,149.3 141.9,149.3 		"/>
		<polygon fill="none" points="243.8,161.8 296.1,161.8 303.4,149.3 251.1,149.3 		"/>
		<path fill="#FFBB2C" d="M149.1,161.8l-7.2-12.5h52.2l-8.2-14.1h-52.2l-26-45.1l-26,45.1H29.4L107.2,0.4H0.9v184.1l4.9-8.5h52.3
			l-6.7,11.6h30.5l25.8-44.7l25.8,44.7H164l-6.7-11.6h52.2l-8.2-14.1H149.1z M66.3,161.8H14l7.2-12.5h52.3L66.3,161.8z"/>
		<path fill="#E7E7E7" d="M337.5,90.2l-26,45.1h-52.3L337.1,0.4H292l-69.4,120.3L153.1,0.4h-44.9L186,135.2H186l8.2,14.1h0.1
			l7.2,12.5h-0.1l8.2,14.1h0.1l6.7,11.6H229l6.7-11.6H288l-6.7,11.6h30.5l25.8-44.7l25.8,44.7h30.4L337.5,90.2z M296.1,161.8h-52.3
			l7.2-12.5h52.3L296.1,161.8z"/>
	</g>
</g>
</svg>
