<?xml version="1.0" encoding="utf-8"?>
<!-- Generator: Adobe Illustrator 26.2.1, SVG Export Plug-In . SVG Version: 6.00 Build 0)  -->
<svg version="1.1" id="Layer_1" xmlns="http://www.w3.org/2000/svg" xmlns:xlink="http://www.w3.org/1999/xlink" x="0px" y="0px"
	 viewBox="0 0 502 188" enable-background="new 0 0 502 188" xml:space="preserve">
<polygon fill="#FDED4F" points="394.2,188.6 394.8,187.6 393.8,187.6 "/>
<path fill="#008251" d="M501,3.5l-4.9,8.5h-52.3l6.7-11.6H420l-25.8,44.7L368.5,0.4h-30.4l56.3,97.4l26-45h52.2l-77.8,134.8H501V3.5
	z M480.8,38.7h-52.3l7.2-12.4H488L480.8,38.7z"/>
<polygon fill="#FF623E" points="5.8,176.1 0.9,184.4 0.9,187.6 51.5,187.6 58.2,176.1 "/>
<polygon fill="#FF623E" points="14.1,161.9 66.2,161.9 73.6,149.4 21.2,149.4 "/>
<polygon fill="#E2CB83" points="157.2,176.1 163.9,187.6 216.2,187.6 209.6,176.1 "/>
<polygon fill="#E2CB83" points="141.9,149.4 149.2,161.9 201.4,161.9 194.2,149.4 "/>
<polygon fill="#E8E8E8" points="81.7,135.2 107.7,90.2 133.7,135.2 186.1,135.2 108.2,0.4 107.2,0.4 29.3,135.2 "/>
<polygon fill="#3D3342" points="81.9,187.6 133.6,187.6 107.7,142.9 "/>
<polygon fill="#008251" points="292,0.4 153.2,0.4 222.6,120.7 "/>
<polygon fill="#FF623E" points="235.7,176.1 228.9,187.6 281.2,187.6 288,176.1 "/>
<polygon fill="#FF623E" points="243.8,161.9 296.1,161.9 303.4,149.4 251.1,149.4 "/>
<polygon fill="#E2CB83" points="311.5,135.2 337.6,90.2 316,52.8 368.2,52.8 394.2,97.9 394.2,97.8 338.1,0.4 337.1,0.4 
	259.2,135.2 "/>
<polygon fill="#FF623E" points="496.1,12 501,3.5 501,0.4 450.5,0.4 443.9,12 "/>
<polygon fill="#FF623E" points="428.5,38.7 480.8,38.7 488,26.2 435.6,26.2 "/>
<polygon fill="#E2CB83" points="420.4,52.8 394.2,97.8 415.9,135.2 363.6,135.2 337.6,90.2 337.6,90.2 393.8,187.6 394.8,187.6 
	472.5,52.8 "/>
<polygon fill="#E2CB83" points="368.2,52.8 316,52.8 337.6,90.2 337.6,90.2 363.6,135.2 415.9,135.2 394.2,97.8 394.2,97.9 "/>
<polygon fill="#E8E8E8" points="311.8,187.6 363.4,187.6 337.6,142.9 "/>
<polygon fill="#E2CB83" points="420,0.4 368.5,0.4 394.2,45.2 "/>
<polygon fill="none" points="201.4,161.9 194.2,149.4 194.2,149.4 201.3,161.9 "/>
<polygon fill="none" points="14.1,161.9 66.2,161.9 73.6,149.4 21.2,149.4 "/>
<polygon fill="none" points="149.2,161.9 201.3,161.9 194.2,149.4 141.9,149.4 "/>
<polygon fill="none" points="243.8,161.9 296.1,161.9 303.4,149.4 251.1,149.4 "/>
<path fill="#FFDD27" d="M149.2,161.9l-7.2-12.5h52.2l-8.2-14.1h-52.2l-26-45.1l-26,45.1H29.5L107.2,0.4H0.9v184l4.9-8.5h52.3
	l-6.7,11.6h30.5l25.8-44.7l25.8,44.7h30.4l-6.7-11.6h52.2l-8.2-14.1L149.2,161.9L149.2,161.9z M66.2,161.9H13.9l7.2-12.5h52.3
	L66.2,161.9z"/>
<path fill="#3D3342" d="M337.6,90.2l-26,45h-52.3L337.1,0.4H292l-69.4,120.2L153.2,0.4h-44.9l77.8,134.8h-0.1l8.2,14.1h0.1l7.2,12.5
	h-0.1l8.2,14.1h0.1l6.7,11.6h12.6l6.7-11.6H288l-6.7,11.6h30.5l25.8-44.7l25.8,44.7h30.4L337.6,90.2z M296.1,161.9h-52.3l7.2-12.5
	h52.3L296.1,161.9z"/>
</svg>
