<?xml version="1.0" encoding="utf-8"?>
<!-- Generator: Adobe Illustrator 26.2.1, SVG Export Plug-In . SVG Version: 6.00 Build 0)  -->
<svg version="1.1" id="Layer_1" xmlns="http://www.w3.org/2000/svg" xmlns:xlink="http://www.w3.org/1999/xlink" x="0px" y="0px"
	 viewBox="0 0 188 500" enable-background="new 0 0 188 500" xml:space="preserve">
<polygon fill="#FDED4F" points="188.1,106.2 187.1,105.8 187.1,106.8 "/>
<path fill="#008251" d="M3-0.6l8.5,4.9v52.3L-0.1,50v30.5l44.7,25.8l-44.7,25.8v30.4l97.4-56.3l-45-26V27.9l134.8,77.8V-0.6H3z
	 M38.2,19.8v52.3l-12.4-7.2V12.6L38.2,19.8z"/>
<polygon fill="#FF623E" points="175.6,494.6 183.9,499.5 187.1,499.5 187.1,449 175.6,442.3 "/>
<polygon fill="#FF623E" points="161.4,486.4 161.4,434.2 148.9,426.9 148.9,479.2 "/>
<polygon fill="#E2CB83" points="175.6,343.2 187.1,336.5 187.1,284.2 175.6,290.9 "/>
<polygon fill="#E2CB83" points="148.9,358.5 161.4,351.3 161.4,299 148.9,306.3 "/>
<polygon fill="#E8E8E8" points="134.8,418.8 89.7,392.8 134.8,366.8 134.8,314.4 -0.1,392.2 -0.1,393.2 134.8,471.1 "/>
<polygon fill="#3D3342" points="187.1,418.5 187.1,366.9 142.4,392.8 "/>
<polygon fill="#008251" points="-0.1,208.6 -0.1,347.3 120.2,277.9 "/>
<polygon fill="#FF623E" points="175.6,264.8 187.1,271.5 187.1,219.2 175.6,212.6 "/>
<polygon fill="#FF623E" points="161.4,256.6 161.4,204.4 148.9,197.2 148.9,249.4 "/>
<polygon fill="#E2CB83" points="134.8,189.1 89.7,162.9 52.3,184.6 52.3,132.2 97.4,106.2 97.3,106.2 -0.1,162.4 -0.1,163.4 
	134.8,241.2 "/>
<polygon fill="#FF623E" points="11.5,4.4 3,-0.6 -0.1,-0.6 -0.1,50 11.5,56.6 "/>
<polygon fill="#FF623E" points="38.2,72.1 38.2,19.8 25.7,12.6 25.7,64.9 "/>
<polygon fill="#E2CB83" points="52.3,80.2 97.3,106.2 134.8,84.7 134.8,136.9 89.7,162.9 89.7,162.9 187.1,106.8 187.1,105.8 
	52.3,27.9 "/>
<polygon fill="#E2CB83" points="52.3,132.2 52.3,184.6 89.7,162.9 89.7,162.9 134.8,136.9 134.8,84.7 97.3,106.2 97.4,106.2 "/>
<polygon fill="#E8E8E8" points="187.1,188.8 187.1,137.2 142.4,162.9 "/>
<polygon fill="#E2CB83" points="-0.1,80.5 -0.1,132.1 44.7,106.2 "/>
<polygon fill="none" points="161.4,299 148.9,306.3 148.9,306.3 161.4,299.1 "/>
<polygon fill="none" points="161.4,486.4 161.4,434.2 148.9,426.9 148.9,479.2 "/>
<polygon fill="none" points="161.4,351.3 161.4,299.1 148.9,306.3 148.9,358.5 "/>
<polygon fill="none" points="161.4,256.6 161.4,204.4 148.9,197.2 148.9,249.4 "/>
<path fill="#FFDD27" d="M161.4,351.3l-12.5,7.2v-52.2l-14.1,8.2v52.2l-45.1,26l45.1,26V471L-0.1,393.2v106.3h184l-8.5-4.9v-52.3
	l11.6,6.7v-30.5l-44.7-25.8l44.7-25.8v-30.4l-11.6,6.7V291l-14.1,8.2L161.4,351.3L161.4,351.3z M161.4,434.2v52.3l-12.5-7.2V427
	L161.4,434.2z"/>
<path fill="#3D3342" d="M89.7,162.9l45,26v52.3L-0.1,163.4v45.1l120.2,69.4L-0.1,347.3v44.9l134.8-77.8v0.1l14.1-8.2v-0.1l12.5-7.2
	v0.1l14.1-8.2v-0.1l11.6-6.7v-12.6l-11.6-6.7v-52.3l11.6,6.7v-30.5l-44.7-25.8l44.7-25.8v-30.4L89.7,162.9z M161.4,204.4v52.3
	l-12.5-7.2v-52.3L161.4,204.4z"/>
</svg>
