<svg width="288" height="37" viewBox="0 0 288 37" fill="none" xmlns="http://www.w3.org/2000/svg">
<path fill-rule="evenodd" clip-rule="evenodd" d="M220.79 5.59748C220.974 5.48504 221.184 5.42296 221.4 5.41748C221.334 5.51215 221.237 5.58151 221.127 5.61421C221.016 5.64692 220.897 5.64102 220.79 5.59748Z" fill="#F06F70"/>
<path fill-rule="evenodd" clip-rule="evenodd" d="M232.82 21.2675C233.02 21.1975 233.64 21.0575 233.57 21.3475C233.318 21.3518 233.066 21.3249 232.82 21.2675Z" fill="#F06F70"/>
<path fill-rule="evenodd" clip-rule="evenodd" d="M233.87 21.6574C233.87 21.5274 234.4 21.6574 234.63 21.6574C234.61 21.7974 234 21.7374 233.87 21.6574Z" fill="#F06F70"/>
<path fill-rule="evenodd" clip-rule="evenodd" d="M237.11 19.2675C237.37 19.1624 237.66 19.1624 237.92 19.2675C237.86 19.4075 237.36 19.2475 237.11 19.2675Z" fill="#F06F70"/>
<path fill-rule="evenodd" clip-rule="evenodd" d="M238.36 21.9975C238.808 21.8683 239.283 21.8683 239.73 21.9975C239.49 22.1575 238.85 22.0475 238.36 21.9975Z" fill="#F06F70"/>
<path fill-rule="evenodd" clip-rule="evenodd" d="M243.86 9.44751C244.62 9.52751 246.21 9.49751 246.71 9.85751C245.81 9.54751 244.71 9.69751 243.86 9.44751Z" fill="#F06F70"/>
<path fill-rule="evenodd" clip-rule="evenodd" d="M245.15 15.3875C246.15 15.1575 247.69 15.7775 248.89 15.7275C249.02 16.0475 247.18 15.5075 246.81 15.7275C246.571 15.669 246.337 15.5921 246.11 15.4975C245.79 15.4475 245.46 15.5975 245.15 15.3875Z" fill="#F06F70"/>
<path fill-rule="evenodd" clip-rule="evenodd" d="M256.19 17.9374C256.19 17.7774 256.28 17.6874 256.59 17.7574C256.629 17.7839 256.658 17.8237 256.671 17.8695C256.684 17.9153 256.68 17.9642 256.66 18.0074L256.19 17.9374Z" fill="#F06F70"/>
<path fill-rule="evenodd" clip-rule="evenodd" d="M261.1 16.5576C262.22 16.4325 263.353 16.538 264.43 16.8676C264.56 16.8676 264.58 16.7476 264.8 16.7876C265.36 16.7876 266.58 17.0276 265.38 16.9176C263.89 16.9976 262.74 16.6476 261.1 16.5576Z" fill="#F06F70"/>
<path fill-rule="evenodd" clip-rule="evenodd" d="M261.29 19.6176C261.573 19.5552 261.867 19.5552 262.15 19.6176C262.05 19.7476 261.42 19.6976 261.29 19.6176Z" fill="#F06F70"/>
<path fill-rule="evenodd" clip-rule="evenodd" d="M263.33 11.9975C263.48 11.8775 264.05 12.0675 264.33 12.0675C263.997 12.1361 263.651 12.1119 263.33 11.9975Z" fill="#F06F70"/>
<path fill-rule="evenodd" clip-rule="evenodd" d="M262.31 18.7275C262.62 18.6075 263.31 18.7275 263.67 18.6475C264 18.9175 262.77 18.7475 262.31 18.7275Z" fill="#F06F70"/>
<path fill-rule="evenodd" clip-rule="evenodd" d="M262.77 19.6275C263.03 19.4675 263.77 19.6275 264.25 19.6275C263.758 19.6828 263.262 19.6828 262.77 19.6275Z" fill="#F06F70"/>
<path fill-rule="evenodd" clip-rule="evenodd" d="M264.58 10.6576C264.64 10.4676 265.08 10.5276 265.4 10.5176C265.31 10.6976 264.87 10.6276 264.58 10.6576Z" fill="#F06F70"/>
<path fill-rule="evenodd" clip-rule="evenodd" d="M264.92 12.1475C265.675 12.0879 266.435 12.1283 267.18 12.2675C266.425 12.3304 265.664 12.29 264.92 12.1475Z" fill="#F06F70"/>
<path fill-rule="evenodd" clip-rule="evenodd" d="M264.49 19.6475C265.183 19.5582 265.887 19.6092 266.56 19.7975C266 19.9175 265.16 19.5575 264.49 19.6475Z" fill="#F06F70"/>
<path fill-rule="evenodd" clip-rule="evenodd" d="M266.33 16.9975C266.659 16.9306 266.994 16.9004 267.33 16.9075C267.34 17.1775 266.73 16.9975 266.33 16.9975Z" fill="#F06F70"/>
<path fill-rule="evenodd" clip-rule="evenodd" d="M267.32 17.6974C267.61 17.5674 267.85 17.6974 268.27 17.6974C268.17 17.8374 267.6 17.6874 267.32 17.6974Z" fill="#F06F70"/>
<path fill-rule="evenodd" clip-rule="evenodd" d="M268.3 18.4974C268.45 18.3574 269.3 18.3574 269.13 18.6674C268.87 18.6674 268.91 18.5774 268.91 18.4774C268.62 18.4374 268.64 18.5774 268.3 18.4974Z" fill="#F06F70"/>
<path fill-rule="evenodd" clip-rule="evenodd" d="M270.79 13.9974C270.28 14.2474 269.4 13.8674 270.79 13.9974V13.9974Z" fill="#F06F70"/>
<path fill-rule="evenodd" clip-rule="evenodd" d="M271.74 11.7474C271.971 11.6401 272.228 11.6019 272.48 11.6374C272.51 11.7274 271.92 11.7974 271.74 11.7474Z" fill="#F06F70"/>
<path fill-rule="evenodd" clip-rule="evenodd" d="M272 11.3775C271.91 11.2075 272.39 11.1675 272.31 11.3775H272Z" fill="#F06F70"/>
<path fill-rule="evenodd" clip-rule="evenodd" d="M272.25 10.3374C272.573 12.4149 273.068 14.462 273.73 16.4574C273.608 16.1597 273.501 15.856 273.41 15.5474C273.3 15.1174 273.07 14.4474 272.95 13.8174C272.83 13.1874 272.62 12.4074 272.52 11.8174C272.42 11.2274 272.3 10.6174 272.25 10.3374Z" fill="#F06F70"/>
<path fill-rule="evenodd" clip-rule="evenodd" d="M270.7 27.2976C270.5 27.3876 270.27 27.3476 270.27 27.2976C270.27 27.2476 270.27 27.2976 270.37 27.2976C270.479 27.2793 270.591 27.2793 270.7 27.2976Z" fill="#F06F70"/>
<path fill-rule="evenodd" clip-rule="evenodd" d="M251.65 6.14758C251.877 6.12936 252.102 6.08576 252.32 6.01758C252.66 6.31758 253.32 6.20758 253.84 6.39758C253.19 6.56758 252.6 6.12758 251.65 6.14758Z" fill="#F06F70"/>
<path fill-rule="evenodd" clip-rule="evenodd" d="M264 13.1274C264.28 13.1274 264.23 13.2674 264.56 13.2574C264.56 13.3574 264.44 13.3474 264.42 13.4174C264.877 13.4797 265.339 13.5098 265.8 13.5074C265.73 13.5574 265.67 13.5974 265.66 13.6774C266.33 13.4174 267.04 13.9974 268.39 13.9274C267.09 14.2074 264.24 13.6774 263.1 13.6174C263.29 13.4074 264.26 13.7274 264.41 13.4774C264.56 13.2274 263.73 13.3774 264 13.1274Z" fill="#F06F70"/>
<path fill-rule="evenodd" clip-rule="evenodd" d="M264.61 18.8775C264.75 18.8775 264.68 18.8275 264.61 18.8175C264.54 18.8075 265.14 18.8175 265.21 18.8875C265.06 19.0475 263.47 18.7875 264.61 18.8775Z" fill="#F06F70"/>
<path fill-rule="evenodd" clip-rule="evenodd" d="M273.54 18.3975V18.6375C273.975 18.5842 274.394 18.4412 274.77 18.2175C274.93 18.0575 274.67 17.8675 274.53 17.7575C274.38 17.668 274.24 17.5642 274.11 17.4475C274.415 17.5003 274.697 17.6431 274.92 17.8575C274.963 17.9098 274.992 17.972 275.004 18.0385C275.016 18.1049 275.011 18.1734 274.99 18.2375C274.931 18.3367 274.844 18.4165 274.74 18.4675C274.578 18.5469 274.407 18.6041 274.23 18.6375C273.666 18.6878 273.114 18.8227 272.59 19.0375C272.43 18.9875 272.14 19.0375 271.98 18.9475C269.84 19.4375 267.52 18.8475 265.31 18.8975C266.31 18.3575 268.54 19.3975 269.7 18.7575C269.88 18.7575 269.7 18.8175 269.57 18.8175C270.908 18.9698 272.263 18.8264 273.54 18.3975Z" fill="#F06F70"/>
<path fill-rule="evenodd" clip-rule="evenodd" d="M272.06 10.8875C272.16 10.7775 272.28 10.7375 272.29 10.6375C272.3 10.5375 272.29 10.7375 272.29 10.8175C272.29 10.8975 272.14 10.9975 272.06 10.8875Z" fill="#F06F70"/>
<path fill-rule="evenodd" clip-rule="evenodd" d="M31.63 9.17744C31.08 9.17744 30.49 9.46744 29.92 9.49744C28.57 9.57744 27.34 9.42744 25.98 9.63744C24.78 9.82744 23.66 10.2174 22.4 10.3874C21.47 10.5074 21.17 10.6274 20.55 10.7474C18.74 11.0974 17.22 11.1374 16.48 11.8274C15.23 12.3374 13.64 12.7374 12.55 13.2374C12.3466 13.2924 12.1393 13.3325 11.93 13.3574C9.17005 14.6074 7.60005 16.3574 4.35005 17.5174C4.13249 18.0499 3.83949 18.5484 3.48005 18.9974C3.26005 19.2374 2.70005 19.4474 2.55005 19.6674C1.99005 20.5074 2.72005 21.3574 1.55005 22.0974C1.55005 22.2974 1.74005 22.3074 1.83005 22.4274C2.02005 23.9074 2.70005 25.0774 2.58005 26.2574C3.52005 26.8174 3.46005 27.6274 4.20005 28.1674C4.79874 28.5031 5.41645 28.8036 6.05005 29.0674C6.68481 29.3662 7.30243 29.7 7.90005 30.0674C7.90005 30.5074 8.71005 30.4974 8.90005 30.8574C9.83005 31.0274 10.56 31.3174 11.51 31.4774C11.61 31.6174 11.84 31.6774 11.88 31.8574C14.0457 32.6059 16.303 33.0567 18.59 33.1974C18.9231 33.2151 19.257 33.2151 19.59 33.1974C21.59 32.9974 24.59 32.9474 25.68 33.4574C26.0401 33.4574 26.02 33.3374 26.38 33.3674C27.0315 33.8403 27.8264 34.0735 28.63 34.0274C29.1263 33.8136 29.6337 33.6267 30.15 33.4674C31.15 33.3074 32.1501 33.7674 33.1501 33.6374C33.57 33.5774 34 33.1974 34.44 33.0974C35.9461 32.8455 37.4755 32.7617 39 32.8474C39.78 32.9074 40.08 33.1774 40.67 33.0874C41.26 32.9974 41.59 32.6774 41.51 32.2174C42.99 31.1274 46.9801 31.7274 49.3301 31.2174C51.1001 31.4974 52.73 30.8174 54.42 30.7974C54.76 30.7974 55.1701 30.8974 55.5201 30.8674C56.09 30.8674 56.85 30.5974 57.59 30.4874C58.84 30.2474 60 30.2074 61 29.9974C62.6501 30.5074 63.81 29.7274 65.17 29.6674C65.68 29.6674 66.17 29.8074 66.77 29.7674C67.37 29.7274 67.71 29.5274 68.24 29.4974C68.77 29.4674 69.34 29.6174 69.85 29.5774C70.36 29.5374 70.53 29.4074 70.85 29.3974C71.2185 29.4395 71.5893 29.4562 71.96 29.4474C72.42 29.3774 72.86 29.1074 73.32 29.0474C75 28.7974 76.84 28.8874 78.4 28.2774C81.33 28.3474 83.7701 27.4574 87.19 27.4074C87.9352 27.1573 88.7142 27.0224 89.5 27.0074C89.69 26.9374 89.6701 26.7974 89.98 26.7674C91.7401 26.6974 93.48 25.9374 95.28 25.8974C95.3354 25.8108 95.4109 25.7387 95.5 25.6874C97.9819 25.6399 100.448 25.2804 102.84 24.6174C104.34 24.7074 105.97 24.1474 107.73 23.9174C108.56 23.8074 109.4 23.9174 110.17 23.7274C111.69 23.4074 113.71 23.3674 115.17 23.1374C115.61 23.0674 116.02 22.8574 116.45 22.7874C117.22 22.6674 118.07 22.7874 118.9 22.5974C122.122 22.114 125.372 21.8434 128.63 21.7874C129.5 21.7274 130.23 21.4974 131.21 21.3774C132.82 21.1774 134.52 21.4274 136.14 21.2974C136.55 21.2974 136.95 21.1274 137.32 21.0874C138.32 20.9874 139.23 21.0874 140.26 21.0874C142.719 20.8444 145.192 20.7842 147.66 20.9074C151.296 20.6191 154.947 20.569 158.59 20.7574C159.367 20.6175 160.163 20.6175 160.94 20.7574C163.722 20.609 166.511 20.6893 169.28 20.9974C174.84 21.1174 180.57 21.5974 186.38 21.9974C192.19 22.3974 198.09 22.7974 203.85 22.7374C204.869 22.9684 205.924 22.9854 206.95 22.7874C207.11 22.9474 207.65 22.9574 208.05 23.0174C209.51 22.6674 211.34 23.0174 213.2 22.9374C213.67 22.5574 214.81 22.8374 215.51 22.5374C215.82 22.7474 215.1 22.7274 215.62 22.8374C216.706 22.4393 217.854 22.2394 219.01 22.2474C220.35 22.1893 221.686 22.0524 223.01 21.8374C222.87 21.8374 222.84 21.7474 223.01 21.7174C223.48 21.8374 223.66 21.4674 224.15 21.4174C227.41 20.9174 229.15 19.9974 231.63 19.6874C231.94 19.7774 232.77 20.0774 233.05 19.8174C232.61 19.8174 232.05 19.8174 232.05 19.5074C232.803 19.5868 233.564 19.5015 234.28 19.2574C235.038 19.3371 235.802 19.3371 236.56 19.2574C236.77 19.2574 236.37 18.9374 236.82 18.9774C238.15 19.2174 238.82 18.9774 240.04 19.2874C240.771 19.0678 241.55 19.0678 242.28 19.2874C242.69 19.2174 241.87 19.0074 242.21 18.9774C243.276 18.9577 244.339 19.0856 245.37 19.3574C245.646 19.2162 245.95 19.1409 246.26 19.1374C246.55 19.1374 246.14 19.3874 246.58 19.3674C247.02 19.3474 246.31 19.0474 246.44 18.8574C247.01 18.8574 246.92 18.6774 247.22 18.5574C247.903 18.6922 248.607 18.6922 249.29 18.5574C250.03 18.5574 250.84 18.7974 251.56 18.8274C252.096 18.7819 252.634 18.7819 253.17 18.8274C253.74 18.9174 254.17 19.2074 254.81 19.2874C255.14 19.2874 254.62 19.0274 255.09 19.0874C257.113 19.4082 259.164 19.5188 261.21 19.4174C258.64 19.5774 256.88 18.8074 254.64 18.8874C254.35 18.5774 253.64 18.8874 253.37 18.4974C253.19 18.6274 253.68 18.8074 253.2 18.7074C253.051 18.6378 252.893 18.5906 252.73 18.5674C253.09 18.2974 252.63 18.2274 252.49 17.9774C250.63 17.7074 249.17 17.6274 247.58 17.3974C247.27 17.3974 247.76 17.6074 247.41 17.6174C246.8 17.6174 246.34 17.4674 245.62 17.4574C245.44 17.1874 244.97 17.0074 245.27 16.7374C247.41 17.0374 250.41 17.0374 252.98 17.3974C253.76 17.4974 254.53 17.8674 255.04 17.5574C254.019 17.3697 253.015 17.0954 252.04 16.7374C250.75 16.4874 249.31 16.6474 248.04 16.3774C247.775 16.2801 247.504 16.1967 247.23 16.1274C246.98 16.1274 246.53 16.2074 246.23 16.1274C245.93 16.0474 245.93 15.9374 245.66 15.9174C245.12 15.8674 244.66 16.0074 244.07 15.9174C243.055 15.7205 242.03 15.5803 241 15.4974C240.81 15.3674 240.92 15.1174 241.19 15.0974L244.07 15.4074C243.92 15.4074 243.84 15.2974 243.86 15.1974C244.27 15.2674 244.41 15.3574 244.71 15.2574C243.71 15.1374 243.86 14.6974 244.23 14.5274C246.71 14.9174 249.77 15.1674 251.77 15.6574C252.013 15.5237 252.283 15.4452 252.56 15.4274C254.86 15.6474 257.38 16.1874 259.83 16.3774C256.888 15.6995 253.9 15.2382 250.89 14.9974C250.78 14.9274 250.89 14.7774 250.57 14.7574C249.16 14.7574 247.57 14.4274 246.45 14.3374C246.01 14.0174 245.57 13.6874 245.15 13.3374C241.67 13.1074 239.23 11.7874 235.8 11.6074C235.8 11.4274 235.55 11.3574 235.45 11.2274C235.709 11.0643 235.98 10.9206 236.26 10.7974C236.81 10.7546 237.363 10.795 237.9 10.9174C240.84 10.5774 244.84 11.4274 248.36 11.6374C248.82 11.4074 248.52 11.1274 248.27 10.8374C246.61 10.4174 245.01 10.6274 243.27 10.0474C242.7 9.26744 243.44 8.84744 244.86 8.98744C247.2 9.20744 251.14 9.87744 252.56 10.2074C255.85 10.5174 259.04 10.9474 262.19 11.2874C263.76 11.4574 265.32 11.6074 266.86 11.6974C267.62 11.6974 268.43 11.7774 269.14 11.7774C269.808 11.7894 270.475 11.7661 271.14 11.7074L268.92 11.6474L266.46 11.5374C264.841 11.4623 263.23 11.2651 261.64 10.9474C261.64 11.0774 261.51 11.1274 261.26 11.0774C258.12 10.5974 254.56 10.0774 251.62 9.80744C250.46 9.18744 248 9.32744 246.79 8.72744C247.2 8.08744 248.29 7.92744 249.61 7.94744C248.28 7.79744 247.06 7.39744 245.93 7.19744C245 7.04744 243.35 7.04744 242.93 6.85744C242.81 6.85744 243.05 6.68744 242.83 6.65744C243.22 6.71744 242.13 6.65744 242.05 6.65744C241.718 6.70294 241.382 6.70294 241.05 6.65744C240.61 6.63877 240.179 6.53342 239.78 6.34744C237.02 6.00744 234.22 6.07744 231.25 5.99744H230.25C229.96 5.99744 230.25 5.83744 229.82 5.83744C229.61 5.83744 229.71 5.96744 229.4 5.97744C228.187 5.97204 226.975 6.03882 225.77 6.17744C224.38 6.35744 223 6.50744 221.84 6.60744C220.68 6.70744 219.67 6.76744 218.84 6.83744C218.45 6.83744 218.95 6.57744 218.43 6.60744C215.37 6.60744 211.86 6.47744 208.28 6.29744C208.01 6.29744 208.28 6.00744 207.84 6.03744C207.4 6.06744 207.46 6.26744 207.01 6.22744C206.769 6.16503 206.544 6.05259 206.35 5.89744C202.24 5.49744 197.92 5.46744 193.6 5.21744C189.6 4.97744 185.48 4.58744 181.55 4.27744C178.45 4.02744 175.44 4.01744 172.63 3.62744C168.83 3.52744 165.53 3.32744 161.94 3.17744C159.35 3.09744 156.51 2.86744 154.34 2.96744C153.97 2.96744 153.52 3.10744 153.09 3.10744C152.43 3.10744 151.77 2.88744 151.09 2.87744C149.32 2.87744 147.51 3.11744 145.75 3.10744C143.75 3.10744 141.86 3.10744 139.92 3.10744C138.83 3.10744 137.78 3.33744 136.7 3.38744C135.98 3.38744 135.22 3.29744 134.48 3.32744C132.39 3.41744 130.28 3.78744 128.3 3.83744C125.624 3.79443 122.949 3.96497 120.3 4.34744C117.161 4.43876 114.029 4.70585 110.92 5.14744C108.58 4.91744 106.24 5.68744 103.64 5.91744C103.36 5.91744 103.17 5.86744 102.89 5.91744C98.89 6.08744 94.77 7.34744 91.67 7.47744C90.6377 7.7918 89.5565 7.91382 88.48 7.83744C87.32 7.91744 86.3 8.26744 85.21 8.41744C84.85 8.46744 84.51 8.41744 84.15 8.41744C83.04 8.50744 81.99 8.84744 80.79 9.02744C78.99 9.29744 77.02 9.02744 74.99 9.51744C73.0384 9.37761 71.077 9.47837 69.15 9.81744C66 9.60744 62.86 10.3474 59.6 10.3274C58.5331 10.1739 57.448 10.2009 56.39 10.4074C55.081 10.2577 53.7591 10.2577 52.4501 10.4074C51.05 10.4074 49.59 10.3274 48.1301 10.3274C46.0401 10.3274 43.4701 10.6974 41.8601 10.1174C41.0801 8.78744 39.7901 10.8574 38.1101 10.6774C37.2001 10.4474 37.3 10.0574 36.89 9.57744C36.1178 9.47116 35.3321 9.52218 34.5801 9.72744C33.5401 9.69744 32.84 9.11744 31.63 9.17744ZM242.51 17.8674C242.51 17.9374 242.51 17.9774 242.61 17.9974C242.32 18.2574 241.82 17.7774 242.51 17.8674ZM242.77 17.7774C243.806 17.7589 244.84 17.8663 245.85 18.0974C246.04 18.0974 245.72 17.7374 246.05 17.7074C246.551 17.9615 247.093 18.1273 247.65 18.1974C247.65 18.6974 246.23 18.1974 246.11 18.6274C245.56 18.5074 245.3 18.4474 245.02 18.6274C243.91 18.3074 243.62 18.6274 242.79 18.3074C243.05 18.0674 242.66 18.0974 242.77 17.7774Z" fill="#F06F70"/>
</svg>
