<svg width="288" height="37" viewBox="0 0 288 37" fill="none" xmlns="http://www.w3.org/2000/svg">
<path fill-rule="evenodd" clip-rule="evenodd" d="M220.789 5.59797C220.973 5.48553 221.183 5.42345 221.399 5.41797C221.333 5.51264 221.236 5.582 221.126 5.6147C221.015 5.6474 220.896 5.6415 220.789 5.59797Z" fill="#89D2D4"/>
<path fill-rule="evenodd" clip-rule="evenodd" d="M232.82 21.2678C233.02 21.1978 233.64 21.0578 233.57 21.3478C233.318 21.352 233.066 21.3252 232.82 21.2678Z" fill="#89D2D4"/>
<path fill-rule="evenodd" clip-rule="evenodd" d="M233.869 21.6574C233.869 21.5274 234.399 21.6574 234.629 21.6574C234.609 21.7974 233.999 21.7374 233.869 21.6574Z" fill="#89D2D4"/>
<path fill-rule="evenodd" clip-rule="evenodd" d="M237.109 19.2673C237.369 19.1622 237.66 19.1622 237.919 19.2673C237.859 19.4073 237.359 19.2473 237.109 19.2673Z" fill="#89D2D4"/>
<path fill-rule="evenodd" clip-rule="evenodd" d="M238.359 21.9973C238.807 21.8681 239.282 21.8681 239.729 21.9973C239.489 22.1573 238.849 22.0473 238.359 21.9973Z" fill="#89D2D4"/>
<path fill-rule="evenodd" clip-rule="evenodd" d="M243.859 9.44727C244.619 9.52727 246.209 9.49727 246.709 9.85727C245.809 9.54727 244.709 9.69727 243.859 9.44727Z" fill="#89D2D4"/>
<path fill-rule="evenodd" clip-rule="evenodd" d="M245.15 15.3873C246.15 15.1573 247.69 15.7773 248.89 15.7273C249.02 16.0473 247.18 15.5073 246.81 15.7273C246.572 15.6687 246.337 15.5918 246.11 15.4973C245.79 15.4473 245.46 15.5973 245.15 15.3873Z" fill="#89D2D4"/>
<path fill-rule="evenodd" clip-rule="evenodd" d="M256.189 17.9374C256.189 17.7774 256.279 17.6874 256.589 17.7574C256.629 17.7839 256.658 17.8237 256.671 17.8695C256.683 17.9153 256.679 17.9642 256.659 18.0074L256.189 17.9374Z" fill="#89D2D4"/>
<path fill-rule="evenodd" clip-rule="evenodd" d="M261.1 16.5579C262.219 16.4328 263.352 16.5383 264.43 16.8679C264.56 16.8679 264.58 16.7479 264.8 16.7879C265.36 16.7879 266.58 17.0279 265.38 16.9179C263.89 16.9979 262.74 16.6479 261.1 16.5579Z" fill="#89D2D4"/>
<path fill-rule="evenodd" clip-rule="evenodd" d="M261.289 19.6171C261.572 19.5547 261.866 19.5547 262.149 19.6171C262.049 19.7471 261.419 19.6971 261.289 19.6171Z" fill="#89D2D4"/>
<path fill-rule="evenodd" clip-rule="evenodd" d="M263.33 11.9978C263.48 11.8778 264.05 12.0678 264.33 12.0678C263.997 12.1364 263.651 12.1122 263.33 11.9978Z" fill="#89D2D4"/>
<path fill-rule="evenodd" clip-rule="evenodd" d="M262.311 18.7275C262.621 18.6075 263.311 18.7275 263.671 18.6475C264.001 18.9175 262.771 18.7475 262.311 18.7275Z" fill="#89D2D4"/>
<path fill-rule="evenodd" clip-rule="evenodd" d="M262.77 19.6278C263.03 19.4678 263.77 19.6278 264.25 19.6278C263.758 19.6831 263.261 19.6831 262.77 19.6278Z" fill="#89D2D4"/>
<path fill-rule="evenodd" clip-rule="evenodd" d="M264.58 10.6571C264.64 10.4671 265.08 10.5271 265.4 10.5171C265.31 10.6971 264.87 10.6271 264.58 10.6571Z" fill="#89D2D4"/>
<path fill-rule="evenodd" clip-rule="evenodd" d="M264.92 12.1478C265.675 12.0882 266.435 12.1285 267.18 12.2678C266.425 12.3307 265.664 12.2903 264.92 12.1478Z" fill="#89D2D4"/>
<path fill-rule="evenodd" clip-rule="evenodd" d="M264.49 19.6472C265.183 19.5579 265.887 19.6089 266.56 19.7972C266 19.9172 265.16 19.5572 264.49 19.6472Z" fill="#89D2D4"/>
<path fill-rule="evenodd" clip-rule="evenodd" d="M266.33 16.9973C266.659 16.9304 266.994 16.9002 267.33 16.9073C267.34 17.1773 266.73 16.9973 266.33 16.9973Z" fill="#89D2D4"/>
<path fill-rule="evenodd" clip-rule="evenodd" d="M267.32 17.6974C267.61 17.5674 267.85 17.6974 268.27 17.6974C268.17 17.8374 267.6 17.6874 267.32 17.6974Z" fill="#89D2D4"/>
<path fill-rule="evenodd" clip-rule="evenodd" d="M268.301 18.4971C268.451 18.3571 269.301 18.3571 269.131 18.6671C268.871 18.6671 268.911 18.5771 268.911 18.4771C268.621 18.4371 268.641 18.5771 268.301 18.4971Z" fill="#89D2D4"/>
<path fill-rule="evenodd" clip-rule="evenodd" d="M270.79 13.9977C270.28 14.2477 269.4 13.8677 270.79 13.9977V13.9977Z" fill="#89D2D4"/>
<path fill-rule="evenodd" clip-rule="evenodd" d="M271.74 11.7479C271.971 11.6406 272.228 11.6024 272.48 11.6379C272.51 11.7279 271.92 11.7979 271.74 11.7479Z" fill="#89D2D4"/>
<path fill-rule="evenodd" clip-rule="evenodd" d="M272 11.3773C271.91 11.2073 272.39 11.1673 272.31 11.3773H272Z" fill="#89D2D4"/>
<path fill-rule="evenodd" clip-rule="evenodd" d="M272.25 10.3379C272.573 12.4154 273.068 14.4625 273.73 16.4579C273.608 16.1602 273.501 15.8565 273.41 15.5479C273.3 15.1179 273.07 14.4479 272.95 13.8179C272.83 13.1879 272.62 12.4079 272.52 11.8179C272.42 11.2279 272.3 10.6179 272.25 10.3379Z" fill="#89D2D4"/>
<path fill-rule="evenodd" clip-rule="evenodd" d="M270.7 27.2976C270.5 27.3876 270.27 27.3476 270.27 27.2976C270.27 27.2476 270.27 27.2976 270.37 27.2976C270.479 27.2793 270.59 27.2793 270.7 27.2976Z" fill="#89D2D4"/>
<path fill-rule="evenodd" clip-rule="evenodd" d="M251.65 6.14758C251.878 6.12936 252.103 6.08576 252.32 6.01758C252.66 6.31758 253.32 6.20758 253.84 6.39758C253.19 6.56758 252.6 6.12758 251.65 6.14758Z" fill="#89D2D4"/>
<path fill-rule="evenodd" clip-rule="evenodd" d="M264 13.1279C264.28 13.1279 264.23 13.2679 264.56 13.2579C264.56 13.3579 264.44 13.3479 264.42 13.4179C264.877 13.4802 265.338 13.5103 265.8 13.5079C265.73 13.5579 265.67 13.5979 265.66 13.6779C266.33 13.4179 267.04 13.9979 268.39 13.9279C267.09 14.2079 264.24 13.6779 263.1 13.6179C263.29 13.4079 264.26 13.7279 264.41 13.4779C264.56 13.2279 263.73 13.3779 264 13.1279Z" fill="#89D2D4"/>
<path fill-rule="evenodd" clip-rule="evenodd" d="M264.61 18.8777C264.75 18.8777 264.68 18.8277 264.61 18.8177C264.54 18.8077 265.14 18.8177 265.21 18.8877C265.06 19.0477 263.47 18.7877 264.61 18.8777Z" fill="#89D2D4"/>
<path fill-rule="evenodd" clip-rule="evenodd" d="M273.541 18.3973V18.6373C273.975 18.584 274.394 18.441 274.771 18.2173C274.931 18.0573 274.671 17.8673 274.531 17.7573C274.381 17.6678 274.24 17.564 274.111 17.4473C274.415 17.5 274.698 17.6428 274.921 17.8573C274.963 17.9095 274.992 17.9718 275.004 18.0383C275.017 18.1047 275.012 18.1732 274.991 18.2373C274.931 18.3364 274.844 18.4163 274.741 18.4673C274.579 18.5466 274.407 18.6038 274.231 18.6373C273.667 18.6876 273.114 18.8224 272.591 19.0373C272.431 18.9873 272.141 19.0373 271.981 18.9473C269.841 19.4373 267.521 18.8473 265.311 18.8973C266.311 18.3573 268.541 19.3973 269.701 18.7573C269.881 18.7573 269.701 18.8173 269.571 18.8173C270.909 18.9695 272.264 18.8262 273.541 18.3973Z" fill="#89D2D4"/>
<path fill-rule="evenodd" clip-rule="evenodd" d="M272.061 10.8877C272.161 10.7777 272.281 10.7377 272.291 10.6377C272.301 10.5377 272.291 10.7377 272.291 10.8177C272.291 10.8977 272.141 10.9977 272.061 10.8877Z" fill="#89D2D4"/>
<path fill-rule="evenodd" clip-rule="evenodd" d="M31.6308 9.17793C31.0808 9.17793 30.4908 9.46793 29.9208 9.49793C28.5708 9.57793 27.3408 9.42793 25.9808 9.63793C24.7808 9.82793 23.6608 10.2179 22.4008 10.3879C21.4708 10.5079 21.1708 10.6279 20.5508 10.7479C18.7408 11.0979 17.2208 11.1379 16.4808 11.8279C15.2308 12.3379 13.6408 12.7379 12.5508 13.2379C12.3473 13.2929 12.1401 13.333 11.9308 13.3579C9.17078 14.6079 7.60078 16.3579 4.35078 17.5179C4.13322 18.0504 3.84023 18.5488 3.48078 18.9979C3.26078 19.2379 2.70078 19.4479 2.55078 19.6679C1.99078 20.5079 2.72078 21.3579 1.55078 22.0979C1.55078 22.2979 1.74078 22.3079 1.83078 22.4279C2.02078 23.9079 2.70078 25.0779 2.58078 26.2579C3.52078 26.8179 3.46078 27.6279 4.20078 28.1679C4.79948 28.5035 5.41719 28.8041 6.05078 29.0679C6.68554 29.3666 7.30316 29.7005 7.90078 30.0679C7.90078 30.5079 8.71078 30.4979 8.90078 30.8579C9.83078 31.0279 10.5608 31.3179 11.5108 31.4779C11.6108 31.6179 11.8408 31.6779 11.8808 31.8579C14.0464 32.6064 16.3038 33.0572 18.5908 33.1979C18.9239 33.2156 19.2577 33.2156 19.5908 33.1979C21.5908 32.9979 24.5908 32.9479 25.6808 33.4579C26.0408 33.4579 26.0208 33.3379 26.3808 33.3679C27.0322 33.8408 27.8271 34.074 28.6308 34.0279C29.127 33.8141 29.6344 33.6272 30.1508 33.4679C31.1508 33.3079 32.1508 33.7679 33.1508 33.6379C33.5708 33.5779 34.0008 33.1979 34.4408 33.0979C35.9468 32.846 37.4762 32.7622 39.0008 32.8479C39.7808 32.9079 40.0808 33.1779 40.6708 33.0879C41.2608 32.9979 41.5908 32.6779 41.5108 32.2179C42.9908 31.1279 46.9808 31.7279 49.3308 31.2179C51.1008 31.4979 52.7308 30.8179 54.4208 30.7979C54.7608 30.7979 55.1708 30.8979 55.5208 30.8679C56.0908 30.8679 56.8508 30.5979 57.5908 30.4879C58.8408 30.2479 60.0008 30.2079 61.0008 29.9979C62.6508 30.5079 63.8108 29.7279 65.1708 29.6679C65.6808 29.6679 66.1708 29.8079 66.7708 29.7679C67.3708 29.7279 67.7108 29.5279 68.2408 29.4979C68.7708 29.4679 69.3408 29.6179 69.8508 29.5779C70.3608 29.5379 70.5308 29.4079 70.8508 29.3979C71.2192 29.44 71.5901 29.4567 71.9608 29.4479C72.4208 29.3779 72.8608 29.1079 73.3208 29.0479C75.0008 28.7979 76.8408 28.8879 78.4008 28.2779C81.3308 28.3479 83.7708 27.4579 87.1908 27.4079C87.9359 27.1578 88.7149 27.0229 89.5008 27.0079C89.6908 26.9379 89.6708 26.7979 89.9808 26.7679C91.7408 26.6979 93.4808 25.9379 95.2808 25.8979C95.3362 25.8113 95.4116 25.7392 95.5008 25.6879C97.9826 25.6403 100.449 25.2809 102.841 24.6179C104.341 24.7079 105.971 24.1479 107.731 23.9179C108.561 23.8079 109.401 23.9179 110.171 23.7279C111.691 23.4079 113.711 23.3679 115.171 23.1379C115.611 23.0679 116.021 22.8579 116.451 22.7879C117.221 22.6679 118.071 22.7879 118.901 22.5979C122.123 22.1145 125.373 21.8439 128.631 21.7879C129.501 21.7279 130.231 21.4979 131.211 21.3779C132.821 21.1779 134.521 21.4279 136.141 21.2979C136.551 21.2979 136.951 21.1279 137.321 21.0879C138.321 20.9879 139.231 21.0879 140.261 21.0879C142.72 20.8449 145.193 20.7847 147.661 20.9079C151.297 20.6196 154.948 20.5695 158.591 20.7579C159.368 20.618 160.164 20.618 160.941 20.7579C163.723 20.6095 166.512 20.6898 169.281 20.9979C174.841 21.1179 180.571 21.5979 186.381 21.9979C192.191 22.3979 198.091 22.7979 203.851 22.7379C204.87 22.9689 205.925 22.9859 206.951 22.7879C207.111 22.9479 207.651 22.9579 208.051 23.0179C209.511 22.6679 211.341 23.0179 213.201 22.9379C213.671 22.5579 214.811 22.8379 215.511 22.5379C215.821 22.7479 215.101 22.7279 215.621 22.8379C216.706 22.4398 217.855 22.2399 219.011 22.2479C220.351 22.1898 221.687 22.0529 223.011 21.8379C222.871 21.8379 222.841 21.7479 223.011 21.7179C223.481 21.8379 223.661 21.4679 224.151 21.4179C227.411 20.9179 229.151 19.9979 231.631 19.6879C231.941 19.7779 232.771 20.0779 233.051 19.8179C232.611 19.8179 232.051 19.8179 232.051 19.5079C232.803 19.5872 233.564 19.5019 234.281 19.2579C235.039 19.3376 235.803 19.3376 236.561 19.2579C236.771 19.2579 236.371 18.9379 236.821 18.9779C238.151 19.2179 238.821 18.9779 240.041 19.2879C240.771 19.0683 241.55 19.0683 242.281 19.2879C242.691 19.2179 241.871 19.0079 242.211 18.9779C243.277 18.9582 244.34 19.086 245.371 19.3579C245.646 19.2167 245.951 19.1414 246.261 19.1379C246.551 19.1379 246.141 19.3879 246.581 19.3679C247.021 19.3479 246.311 19.0479 246.441 18.8579C247.011 18.8579 246.921 18.6779 247.221 18.5579C247.904 18.6927 248.607 18.6927 249.291 18.5579C250.031 18.5579 250.841 18.7979 251.561 18.8279C252.096 18.7824 252.635 18.7824 253.171 18.8279C253.741 18.9179 254.171 19.2079 254.811 19.2879C255.141 19.2879 254.621 19.0279 255.091 19.0879C257.114 19.4087 259.165 19.5193 261.211 19.4179C258.641 19.5779 256.881 18.8079 254.641 18.8879C254.351 18.5779 253.641 18.8879 253.371 18.4979C253.191 18.6279 253.681 18.8079 253.201 18.7079C253.052 18.6383 252.894 18.5911 252.731 18.5679C253.091 18.2979 252.631 18.2279 252.491 17.9779C250.631 17.7079 249.171 17.6279 247.581 17.3979C247.271 17.3979 247.761 17.6079 247.411 17.6179C246.801 17.6179 246.341 17.4679 245.621 17.4579C245.441 17.1879 244.971 17.0079 245.271 16.7379C247.411 17.0379 250.411 17.0379 252.981 17.3979C253.761 17.4979 254.531 17.8679 255.041 17.5579C254.019 17.3702 253.016 17.0958 252.041 16.7379C250.751 16.4879 249.311 16.6479 248.041 16.3779C247.775 16.2806 247.505 16.1972 247.231 16.1279C246.981 16.1279 246.531 16.2079 246.231 16.1279C245.931 16.0479 245.931 15.9379 245.661 15.9179C245.121 15.8679 244.661 16.0079 244.071 15.9179C243.056 15.721 242.031 15.5808 241.001 15.4979C240.811 15.3679 240.921 15.1179 241.191 15.0979L244.071 15.4079C243.921 15.4079 243.841 15.2979 243.861 15.1979C244.271 15.2679 244.411 15.3579 244.711 15.2579C243.711 15.1379 243.861 14.6979 244.231 14.5279C246.711 14.9179 249.771 15.1679 251.771 15.6579C252.014 15.5242 252.284 15.4457 252.561 15.4279C254.861 15.6479 257.381 16.1879 259.831 16.3779C256.889 15.6999 253.901 15.2387 250.891 14.9979C250.781 14.9279 250.891 14.7779 250.571 14.7579C249.161 14.7579 247.571 14.4279 246.451 14.3379C246.011 14.0179 245.571 13.6879 245.151 13.3379C241.671 13.1079 239.231 11.7879 235.801 11.6079C235.801 11.4279 235.551 11.3579 235.451 11.2279C235.71 11.0648 235.981 10.9211 236.261 10.7979C236.81 10.7551 237.363 10.7955 237.901 10.9179C240.841 10.5779 244.841 11.4279 248.361 11.6379C248.821 11.4079 248.521 11.1279 248.271 10.8379C246.611 10.4179 245.011 10.6279 243.271 10.0479C242.701 9.26793 243.441 8.84793 244.861 8.98793C247.201 9.20793 251.141 9.87793 252.561 10.2079C255.851 10.5179 259.041 10.9479 262.191 11.2879C263.761 11.4579 265.321 11.6079 266.861 11.6979C267.621 11.6979 268.431 11.7779 269.141 11.7779C269.808 11.7899 270.476 11.7665 271.141 11.7079L268.921 11.6479L266.461 11.5379C264.842 11.4628 263.23 11.2656 261.641 10.9479C261.641 11.0779 261.511 11.1279 261.261 11.0779C258.121 10.5979 254.561 10.0779 251.621 9.80793C250.461 9.18793 248.001 9.32793 246.791 8.72793C247.201 8.08793 248.291 7.92793 249.611 7.94793C248.281 7.79793 247.061 7.39793 245.931 7.19793C245.001 7.04793 243.351 7.04793 242.931 6.85793C242.811 6.85793 243.051 6.68793 242.831 6.65793C243.221 6.71793 242.131 6.65793 242.051 6.65793C241.719 6.70343 241.383 6.70343 241.051 6.65793C240.611 6.63926 240.18 6.53391 239.781 6.34793C237.021 6.00793 234.221 6.07793 231.251 5.99793H230.251C229.961 5.99793 230.251 5.83793 229.821 5.83793C229.611 5.83793 229.711 5.96793 229.401 5.97793C228.188 5.97252 226.976 6.03931 225.771 6.17793C224.381 6.35793 223.001 6.50793 221.841 6.60793C220.681 6.70793 219.671 6.76793 218.841 6.83793C218.451 6.83793 218.951 6.57793 218.431 6.60793C215.371 6.60793 211.861 6.47793 208.281 6.29793C208.011 6.29793 208.281 6.00793 207.841 6.03793C207.401 6.06793 207.461 6.26793 207.011 6.22793C206.77 6.16552 206.545 6.05308 206.351 5.89793C202.241 5.49793 197.921 5.46793 193.601 5.21793C189.601 4.97793 185.481 4.58793 181.551 4.27793C178.451 4.02793 175.441 4.01793 172.631 3.62793C168.831 3.52793 165.531 3.32793 161.941 3.17793C159.351 3.09793 156.511 2.86793 154.341 2.96793C153.971 2.96793 153.521 3.10793 153.091 3.10793C152.431 3.10793 151.771 2.88793 151.091 2.87793C149.321 2.87793 147.511 3.11793 145.751 3.10793C143.751 3.10793 141.861 3.10793 139.921 3.10793C138.831 3.10793 137.781 3.33793 136.701 3.38793C135.981 3.38793 135.221 3.29793 134.481 3.32793C132.391 3.41793 130.281 3.78793 128.301 3.83793C125.625 3.79491 122.95 3.96546 120.301 4.34793C117.162 4.43925 114.03 4.70634 110.921 5.14793C108.581 4.91793 106.241 5.68793 103.641 5.91793C103.361 5.91793 103.171 5.86793 102.891 5.91793C98.8908 6.08793 94.7708 7.34793 91.6708 7.47793C90.6385 7.79228 89.5572 7.91431 88.4808 7.83793C87.3208 7.91793 86.3008 8.26793 85.2108 8.41793C84.8508 8.46793 84.5108 8.41793 84.1508 8.41793C83.0408 8.50793 81.9908 8.84793 80.7908 9.02793C78.9908 9.29793 77.0208 9.02793 74.9908 9.51793C73.0392 9.3781 71.0778 9.47886 69.1508 9.81793C66.0008 9.60793 62.8608 10.3479 59.6008 10.3279C58.5339 10.1744 57.4487 10.2014 56.3908 10.4079C55.0817 10.2582 53.7598 10.2582 52.4508 10.4079C51.0508 10.4079 49.5908 10.3279 48.1308 10.3279C46.0408 10.3279 43.4708 10.6979 41.8608 10.1179C41.0808 8.78793 39.7908 10.8579 38.1108 10.6779C37.2008 10.4479 37.3008 10.0579 36.8908 9.57793C36.1185 9.47165 35.3328 9.52267 34.5808 9.72793C33.5408 9.69793 32.8408 9.11793 31.6308 9.17793ZM242.511 17.8679C242.511 17.9379 242.511 17.9779 242.611 17.9979C242.321 18.2579 241.821 17.7779 242.511 17.8679ZM242.771 17.7779C243.807 17.7594 244.841 17.8668 245.851 18.0979C246.041 18.0979 245.721 17.7379 246.051 17.7079C246.552 17.962 247.093 18.1277 247.651 18.1979C247.651 18.6979 246.231 18.1979 246.111 18.6279C245.561 18.5079 245.301 18.4479 245.021 18.6279C243.911 18.3079 243.621 18.6279 242.791 18.3079C243.051 18.0679 242.661 18.0979 242.771 17.7779Z" fill="#89D2D4"/>
</svg>
