<svg width="287" height="29" viewBox="0 0 287 29" fill="none" xmlns="http://www.w3.org/2000/svg">
<path fill-rule="evenodd" clip-rule="evenodd" d="M33.0489 6.31591C32.4765 6.28948 31.827 6.5516 31.2209 6.56742C29.8058 6.61891 28.5182 6.4426 27.0744 6.65343C25.8037 6.79921 24.6096 7.12381 23.2746 7.28123C22.2928 7.38194 21.9701 7.46927 21.3062 7.58466C19.8568 7.62992 18.4127 7.94651 17.0139 8.52564C15.6653 8.97454 13.9704 9.33442 12.7915 9.79115C12.6113 9.78283 12.2038 9.86624 12.1388 9.89245C9.14478 11.0102 7.35066 12.5923 3.84718 13.7012C3.54243 14.201 3.18947 14.6419 2.79859 15.011C2.54467 15.2184 1.94031 15.4241 1.70759 15.6325C1.03514 16.3901 1.71416 17.0933 0.417049 17.8074C0.408258 17.9969 0.599715 17.9911 0.669174 18.0966C0.725578 19.399 1.31621 20.4048 1.06546 21.4594C2.00043 21.9115 1.85003 22.6348 2.58294 23.0922C3.02653 23.3756 3.88888 23.5614 4.461 23.8215C5.0962 24.0454 5.72188 24.3131 6.33567 24.6238C6.31741 25.0172 7.15743 24.9976 7.36648 25.2994C8.34813 25.4323 9.10178 25.6716 10.106 25.7764C10.2066 25.8979 10.4377 25.9524 10.4727 26.1147C12.8034 26.7458 15.1735 27.1141 17.5593 27.216C17.8137 27.2277 18.3648 27.2532 18.6828 27.2678C20.8572 27.0251 23.0373 27.1257 25.1799 27.5679C25.5721 27.586 25.5669 27.4689 25.9485 27.4865C26.6827 27.9341 27.4871 28.1411 28.2996 28.0917C28.6388 28.1073 29.2307 27.7111 29.9682 27.6137C31.0362 27.4878 32.0791 27.9011 33.1478 27.7606C33.6036 27.7816 34.0995 27.3956 34.5706 27.3151C36.1794 27.1405 37.7916 27.1125 39.3967 27.2313C39.9817 27.3686 40.5742 27.4496 41.1699 27.4738C41.7316 27.4997 42.1625 27.1399 42.1179 26.7289C43.7537 25.8113 47.9531 26.4142 50.4802 25.9759C52.2819 26.0304 54.0875 25.9431 55.8881 25.7144C56.2379 25.7306 56.6724 25.7506 57.0328 25.7673C57.6475 25.7957 58.4652 25.5706 59.245 25.4751C60.59 25.3328 61.7698 25.3142 62.8717 25.146C64.581 25.6193 65.8443 24.9474 67.2799 24.9114C67.8204 24.9364 68.3357 25.0478 68.9651 24.9893C69.5945 24.9307 69.9623 24.787 70.5261 24.7692C71.0899 24.7515 71.6708 24.8221 72.2113 24.8471C72.7519 24.872 72.9296 24.705 73.2807 24.692C73.6318 24.679 73.9908 24.7248 74.436 24.7453C74.8811 24.7659 75.4054 24.4542 75.8864 24.3888C77.6732 24.3334 79.4586 24.1035 81.2292 23.7008C84.2765 23.7247 86.896 22.8963 90.4813 22.7698C91.293 22.5259 92.1174 22.388 92.9434 22.3577C93.1489 22.2796 93.1331 22.162 93.4637 22.1334C95.3174 22.0146 97.2206 21.2846 99.116 21.1822C99.1974 21.1019 99.2862 21.0371 99.3799 20.9899C102.016 20.8593 104.647 20.4634 107.252 19.8054C108.832 19.8783 110.633 19.2896 112.535 19.0416C113.433 18.9224 114.333 18.9786 115.168 18.8273C116.819 18.5092 118.988 18.4633 120.581 18.2301C121.052 18.1642 121.517 17.9812 121.977 17.9148C122.821 17.8078 123.72 17.8931 124.619 17.7448C128.075 17.2033 132.08 17.1838 135.09 17.0891C136.023 17.1322 136.832 16.8629 137.887 16.7802C139.626 16.6268 141.428 16.9436 143.196 16.8209C143.631 16.8409 144.063 16.6856 144.467 16.6751C145.532 16.6074 146.513 16.7695 147.651 16.7345C150.348 16.7422 153.067 16.5172 155.589 16.882C158.849 16.6674 163.556 17.1038 167.301 17.4228C168.145 17.3305 168.991 17.3696 169.823 17.5393C172.809 17.6177 175.784 17.9258 178.735 18.462C190.541 19.7082 202.977 22.5024 215.112 23.2965C216.177 23.5843 217.269 23.6789 218.36 23.578C218.732 23.7278 219.116 23.819 219.505 23.8499C221.045 23.6289 222.95 24.009 224.89 24.0985C225.392 23.8004 226.558 24.088 227.301 23.8594C227.611 24.049 226.87 24.0001 227.406 24.1271C228.569 23.8078 229.752 23.6713 230.93 23.7203C232.42 23.6576 234.039 23.5571 235.003 23.368C234.866 23.3616 234.837 23.2873 235.008 23.266C235.485 23.288 235.688 23.0345 236.2 22.9851C239.644 22.4723 241.746 21.5908 244.483 21.4251C244.987 21.6271 245.519 21.6864 246.047 21.5996C245.559 21.5771 244.934 21.5482 245 21.2738C245.816 21.3863 246.642 21.3558 247.458 21.1828C248.277 21.2921 249.102 21.3302 249.927 21.2968C250.15 21.3071 249.728 21.0101 250.214 21.0764C251.642 21.4198 252.391 21.3084 253.67 21.6741C254.476 21.5681 255.285 21.6648 256.057 21.9596C256.492 21.9797 255.614 21.6617 255.975 21.6783C257.109 21.78 258.232 22.0225 259.329 22.4028C259.639 22.31 259.955 22.2803 260.268 22.3147C260.575 22.3289 260.152 22.5284 260.607 22.5641C261.062 22.5997 260.313 22.2584 260.448 22.104C261.052 22.1319 260.951 22.0104 261.263 21.9371C261.974 22.1518 262.704 22.2541 263.437 22.242C264.221 22.2782 265.063 22.6676 265.822 22.7903C266.389 22.8145 266.953 22.8796 267.513 22.9852C268.1 23.1438 268.553 23.4568 269.225 23.6193C269.575 23.6354 269.025 23.3617 269.518 23.4867C271.627 24.0375 273.764 24.3996 275.915 24.5708C273.223 24.4465 271.388 23.4709 269.041 23.2456C268.737 22.9249 267.981 23.1967 267.706 22.7166C267.521 22.8103 268.041 23.0388 267.528 22.8837C267.368 22.8062 267.204 22.7449 267.037 22.7004C267.407 22.513 266.924 22.3884 266.777 22.1333C264.824 21.6342 263.297 21.3592 261.617 20.9457C261.299 20.931 261.809 21.1591 261.449 21.1278C260.807 21.0105 260.325 20.8569 259.555 20.7483C259.365 20.4912 258.876 20.2642 259.183 20.0593C261.442 20.6017 264.577 21.0094 267.276 21.689C267.968 22.0021 268.698 22.1445 269.433 22.11C268.355 21.8099 267.291 21.4293 266.247 20.9697C264.895 20.5713 263.39 20.5018 262.038 20.1035C261.672 19.9843 261.529 19.8609 261.193 19.7724C260.858 19.6838 260.451 19.7381 260.133 19.7234C259.815 19.7087 259.803 19.5183 259.529 19.4619C258.947 19.4349 258.47 19.4129 257.86 19.2825C256.809 19.0295 255.766 18.6308 254.605 18.4604C254.409 18.3345 254.525 18.1208 254.801 18.1335L257.832 18.7408C257.683 18.734 257.593 18.613 257.618 18.5265C257.902 18.6577 258.202 18.7113 258.503 18.6842C257.452 18.4604 257.607 18.0879 257.995 17.9743C260.588 18.6199 263.798 19.2646 265.9 19.9751C266.17 19.8818 266.448 19.8502 266.722 19.8816C269.131 20.3872 271.79 21.2257 274.37 21.6953C271.485 20.7004 268.423 20.077 264.997 19.2908C264.87 19.2849 265.006 19.1013 264.658 19.0415C263.182 18.7981 261.504 18.3408 260.346 18.1121L258.971 17.0847C255.335 16.464 252.788 15.032 249.218 14.6042C249.226 14.4439 248.974 14.3739 248.873 14.2524C249.15 14.1218 249.432 14.0129 249.717 13.9262C250.289 13.9366 250.857 14.0166 251.416 14.1653C254.477 14.1168 258.627 15.3308 262.283 15.9816C262.768 15.8287 262.451 15.5512 262.178 15.2611C260.442 14.6698 258.786 14.6517 256.929 13.9379C256.336 13.1949 257.104 12.9091 258.567 13.1957C260.989 13.6435 265.079 14.7671 266.575 15.2597L276.763 17.5265C278.446 17.8672 280.131 18.1787 281.809 18.4168C283.422 18.6712 285.049 18.7902 286.678 18.7731C285.831 18.734 284.961 18.6938 284.096 18.5662L281.414 18.2379C279.641 17.9808 277.904 17.6523 276.206 17.1649C276.201 17.2669 276.073 17.2902 275.814 17.1468C272.453 16.3198 268.685 15.3571 265.624 14.7046C264.403 14.0056 261.853 13.8002 260.599 13.1143C261.005 12.6073 262.131 12.6009 263.503 12.7956C262.116 12.4833 260.854 11.9723 259.689 11.6702C258.735 11.407 257.032 11.2408 256.533 11.0133C256.417 11.0079 256.667 10.8734 256.435 10.8335L255.644 10.7093C254.835 10.7158 254.033 10.5507 253.267 10.2198C250.408 9.7315 247.528 9.44255 244.64 9.35407L243.654 9.30855C243.378 9.29582 243.66 9.17739 243.247 9.1583C242.833 9.13921 243.125 9.2695 242.817 9.26988C241.651 9.21604 240.298 9.29962 239.166 9.4372C236.281 9.80056 233.486 10.0658 231.529 10.1215C231.094 10.1014 231.677 9.89467 231.081 9.92555C227.653 9.86948 223.842 9.59127 219.997 9.13621C219.7 9.12251 220.008 8.88845 219.531 8.881C219.053 8.87355 219.108 9.06594 218.633 9.0002C218.385 8.9329 218.147 8.81355 217.927 8.64629C213.507 7.98943 208.895 7.58658 204.304 6.95103C200.009 6.34376 195.69 5.57471 191.557 4.90191C188.3 4.37176 185.15 4.05101 182.214 3.4481L171.046 2.17292C168.35 1.90237 165.394 1.51757 163.122 1.4857C162.73 1.46759 162.259 1.54807 161.803 1.52703C161.115 1.49521 160.424 1.27345 159.693 1.2251C157.828 1.13896 155.921 1.25538 154.078 1.15564C151.958 1.05775 150.008 0.967694 147.973 0.873719C146.828 0.820859 145.715 1.00314 144.577 1.02363C143.825 0.988882 143.03 0.952174 142.246 0.915955C140.046 0.931229 137.802 1.22194 135.73 1.24308C132.912 1.15106 130.087 1.26929 127.269 1.59724C124.155 1.64329 120.371 1.93589 117.389 2.33856C114.826 2.40928 112.264 2.67617 109.715 3.13798C109.418 3.12427 109.227 3.11546 108.93 3.10176C104.787 3.34858 100.278 4.61544 96.9851 4.84312C95.8526 5.14907 94.7031 5.28696 93.5565 5.25438C92.3295 5.37298 91.199 5.70051 90.0223 5.87985C89.6407 5.86223 89.2804 5.84558 88.8948 5.91541C87.7002 6.0209 86.5486 6.34745 85.244 6.53549C83.2875 6.81026 81.2056 6.58268 78.9852 7.04974C76.8907 6.94216 74.7888 7.03542 72.6949 7.32885C69.335 7.1737 65.9308 7.74674 62.4602 7.68871C61.3222 7.54374 60.1736 7.54449 59.0293 7.69093C57.6191 7.54417 56.2005 7.52745 54.783 7.64088C53.3097 7.57285 51.7517 7.5009 50.2042 7.42944C47.9997 7.32764 45.2329 7.66723 43.5799 7.12354C42.8271 5.94959 41.3422 7.73584 39.567 7.53702C38.6318 7.31858 38.754 6.9737 38.3596 6.54655C37.5435 6.44448 36.7185 6.47502 35.9018 6.63752C34.9585 6.44729 34.0056 6.33987 33.0489 6.31591ZM256.187 20.7534C256.187 20.7534 256.183 20.8409 256.288 20.8749C255.992 21.0657 255.452 20.588 256.187 20.7534ZM256.452 20.7657C257.553 20.8803 258.643 21.1063 259.714 21.442C259.915 21.4513 259.57 21.0995 259.91 21.1152C260.455 21.4187 261.026 21.6361 261.611 21.7633C261.59 22.2005 260.122 21.5777 259.999 21.9372C259.627 21.7785 259.228 21.7601 258.844 21.8838C257.663 21.4642 257.366 21.6696 256.479 21.3365C256.761 20.9844 256.348 20.9653 256.456 20.6928L256.452 20.7657Z" fill="#D5E6E7"/>
</svg>
