<svg width="355" height="48" viewBox="0 0 355 48" fill="none" xmlns="http://www.w3.org/2000/svg">
<path fill-rule="evenodd" clip-rule="evenodd" d="M272.871 13.9355C273.101 13.8302 273.362 13.7762 273.628 13.7789C273.544 13.8709 273.423 13.9364 273.285 13.9649C273.148 13.9933 273.002 13.9829 272.871 13.9355Z" fill="#FAE4AD"/>
<path fill-rule="evenodd" clip-rule="evenodd" d="M287.196 30.0249C287.445 29.9626 288.213 29.8464 288.117 30.1331C287.806 30.1278 287.497 30.0914 287.196 30.0249Z" fill="#FAE4AD"/>
<path fill-rule="evenodd" clip-rule="evenodd" d="M288.477 30.4536C288.481 30.3239 289.129 30.4737 289.413 30.4824C289.384 30.6213 288.634 30.5384 288.477 30.4536Z" fill="#FAE4AD"/>
<path fill-rule="evenodd" clip-rule="evenodd" d="M292.542 28.1914C292.866 28.0964 293.223 28.1074 293.54 28.2221C293.462 28.3595 292.851 28.1809 292.542 28.1914Z" fill="#FAE4AD"/>
<path fill-rule="evenodd" clip-rule="evenodd" d="M293.995 30.9629C294.55 30.8509 295.135 30.8689 295.682 31.0147C295.382 31.1652 294.597 31.0313 293.995 30.9629Z" fill="#FAE4AD"/>
<path fill-rule="evenodd" clip-rule="evenodd" d="M301.162 18.6489C302.096 18.7575 304.055 18.7877 304.659 19.1658C303.56 18.8225 302.201 18.9305 301.162 18.6489Z" fill="#FAE4AD"/>
<path fill-rule="evenodd" clip-rule="evenodd" d="M302.565 24.6245C303.804 24.4328 305.681 25.1097 307.16 25.1052C307.31 25.4294 305.061 24.821 304.598 25.0265C304.306 24.959 304.02 24.8734 303.744 24.7705C303.351 24.7086 302.94 24.8457 302.565 24.6245Z" fill="#FAE4AD"/>
<path fill-rule="evenodd" clip-rule="evenodd" d="M316.082 27.5864C316.087 27.4267 316.2 27.3403 316.58 27.4219C316.628 27.4499 316.662 27.4906 316.676 27.5368C316.69 27.583 316.684 27.6316 316.658 27.674L316.082 27.5864Z" fill="#FAE4AD"/>
<path fill-rule="evenodd" clip-rule="evenodd" d="M322.17 26.3952C323.553 26.3127 324.945 26.4608 326.261 26.8304C326.422 26.8353 326.45 26.7163 326.72 26.7646C327.409 26.7858 328.904 27.0713 327.43 26.9162C325.592 26.9397 324.187 26.547 322.17 26.3952Z" fill="#FAE4AD"/>
<path fill-rule="evenodd" clip-rule="evenodd" d="M322.309 29.4554C322.66 29.4038 323.021 29.4149 323.368 29.4879C323.241 29.6138 322.467 29.5401 322.309 29.4554Z" fill="#FAE4AD"/>
<path fill-rule="evenodd" clip-rule="evenodd" d="M325.059 21.9298C325.248 21.8157 325.944 22.0269 326.289 22.0375C325.876 22.0933 325.451 22.0561 325.059 21.9298Z" fill="#FAE4AD"/>
<path fill-rule="evenodd" clip-rule="evenodd" d="M323.593 28.6057C323.979 28.4977 324.825 28.6435 325.271 28.5773C325.669 28.8592 324.159 28.643 323.593 28.6057Z" fill="#FAE4AD"/>
<path fill-rule="evenodd" clip-rule="evenodd" d="M324.131 29.5211C324.456 29.3713 325.362 29.559 325.953 29.5771C325.346 29.6137 324.734 29.5949 324.131 29.5211Z" fill="#FAE4AD"/>
<path fill-rule="evenodd" clip-rule="evenodd" d="M326.64 20.6402C326.72 20.4529 327.26 20.5294 327.654 20.5315C327.538 20.7077 326.998 20.6212 326.64 20.6402Z" fill="#FAE4AD"/>
<path fill-rule="evenodd" clip-rule="evenodd" d="M327.013 22.1394C327.945 22.1085 328.879 22.1775 329.792 22.3446C328.86 22.3788 327.925 22.3098 327.013 22.1394Z" fill="#FAE4AD"/>
<path fill-rule="evenodd" clip-rule="evenodd" d="M326.249 29.6061C327.105 29.5432 327.97 29.6207 328.793 29.8341C328.1 29.9326 327.077 29.5417 326.249 29.6061Z" fill="#FAE4AD"/>
<path fill-rule="evenodd" clip-rule="evenodd" d="M328.597 27.0317C329.004 26.9774 329.418 26.96 329.831 26.9797C329.835 27.2495 329.089 27.0468 328.597 27.0317Z" fill="#FAE4AD"/>
<path fill-rule="evenodd" clip-rule="evenodd" d="M329.795 27.7676C330.156 27.6489 330.448 27.7877 330.965 27.8035C330.837 27.9394 330.14 27.7682 329.795 27.7676Z" fill="#FAE4AD"/>
<path fill-rule="evenodd" clip-rule="evenodd" d="M330.978 28.6029C331.167 28.4689 332.214 28.501 331.995 28.8039C331.674 28.7941 331.726 28.7058 331.73 28.606C331.374 28.5551 331.394 28.6956 330.978 28.6029Z" fill="#FAE4AD"/>
<path fill-rule="evenodd" clip-rule="evenodd" d="M334.183 24.2075C333.547 24.4377 332.475 24.0252 334.183 24.2075V24.2075Z" fill="#FAE4AD"/>
<path fill-rule="evenodd" clip-rule="evenodd" d="M335.424 21.9986C335.712 21.9003 336.029 21.8719 336.339 21.9168C336.373 22.0077 335.644 22.0553 335.424 21.9986Z" fill="#FAE4AD"/>
<path fill-rule="evenodd" clip-rule="evenodd" d="M335.756 21.6391C335.65 21.4661 336.242 21.4443 336.137 21.6508L335.756 21.6391Z" fill="#FAE4AD"/>
<path fill-rule="evenodd" clip-rule="evenodd" d="M336.096 20.6108C336.428 22.6959 336.974 24.757 337.727 26.773C337.586 26.4713 337.464 26.1642 337.361 25.8529C337.239 25.4197 336.977 24.7425 336.849 24.1094C336.721 23.4763 336.487 22.6901 336.382 22.0977C336.277 21.5053 336.149 20.8921 336.096 20.6108Z" fill="#FAE4AD"/>
<path fill-rule="evenodd" clip-rule="evenodd" d="M333.658 37.474C333.409 37.5562 333.127 37.5076 333.128 37.4577C333.13 37.4078 333.128 37.4577 333.251 37.4615C333.386 37.4474 333.524 37.4516 333.658 37.474Z" fill="#FAE4AD"/>
<path fill-rule="evenodd" clip-rule="evenodd" d="M310.859 15.6512C311.14 15.6416 311.418 15.6066 311.688 15.5468C312.098 15.859 312.914 15.7742 313.548 15.9835C312.743 16.1285 312.03 15.6672 310.859 15.6512Z" fill="#FAE4AD"/>
<path fill-rule="evenodd" clip-rule="evenodd" d="M325.849 23.0824C326.193 23.093 326.127 23.2308 326.534 23.2333C326.531 23.333 326.384 23.3185 326.357 23.3876C326.918 23.4671 327.485 23.5145 328.053 23.5296C327.966 23.5768 327.89 23.6145 327.876 23.6939C328.709 23.4598 329.565 24.0654 331.23 24.0466C329.62 24.2768 326.127 23.6402 324.725 23.5372C324.965 23.3349 326.15 23.6909 326.343 23.4471C326.535 23.2033 325.508 23.3216 325.849 23.0824Z" fill="#FAE4AD"/>
<path fill-rule="evenodd" clip-rule="evenodd" d="M326.421 28.8428C326.594 28.8481 326.509 28.7955 326.423 28.7829C326.337 28.7703 327.076 28.8029 327.16 28.8754C326.97 29.0294 325.02 28.7099 326.421 28.8428Z" fill="#FAE4AD"/>
<path fill-rule="evenodd" clip-rule="evenodd" d="M337.434 28.7015L337.426 28.941C337.963 28.9043 338.483 28.7774 338.954 28.5684C339.156 28.4148 338.842 28.2154 338.673 28.1004C338.491 28.0055 338.321 27.8966 338.165 27.7752C338.539 27.8394 338.882 27.9925 339.15 28.2149C339.201 28.2687 339.235 28.3319 339.248 28.3987C339.261 28.4654 339.253 28.5336 339.224 28.5967C339.148 28.6934 339.039 28.7698 338.909 28.8167C338.708 28.8898 338.495 28.9404 338.276 28.9671C337.58 28.9959 336.895 29.1096 336.244 29.3041C336.048 29.2482 335.69 29.2871 335.495 29.1913C332.845 29.5992 330.006 28.9228 327.283 28.8891C328.531 28.3881 331.245 29.5101 332.693 28.9155C332.915 28.9223 332.692 28.9753 332.531 28.9704C334.175 29.1729 335.848 29.0811 337.434 28.7015Z" fill="#FAE4AD"/>
<path fill-rule="evenodd" clip-rule="evenodd" d="M335.845 21.1523C335.971 21.0463 336.12 21.0109 336.136 20.9115C336.151 20.8121 336.133 21.0113 336.13 21.0911C336.128 21.1709 335.94 21.265 335.845 21.1523Z" fill="#FAE4AD"/>
<path fill-rule="evenodd" clip-rule="evenodd" d="M39.8075 10.3531C39.1301 10.3323 38.3945 10.5993 37.6916 10.6077C36.0265 10.6364 34.5165 10.4403 32.8351 10.5983C31.3513 10.7425 29.9598 11.0893 28.4028 11.2113C27.2537 11.2958 26.8805 11.4042 26.1132 11.5005C23.8733 11.7812 22.0001 11.7636 21.0672 12.4241C19.5119 12.8857 17.5413 13.2246 16.1833 13.6823C15.9309 13.7294 15.6745 13.7616 15.416 13.7785C11.9779 14.9213 9.98966 16.608 5.95096 17.6424C5.66637 18.1655 5.28994 18.6517 4.83323 19.0862C4.55479 19.3173 3.85857 19.5057 3.66696 19.7195C2.95103 20.5364 3.82342 21.4121 2.3594 22.1062C2.35314 22.3057 2.58682 22.3229 2.6939 22.446C2.88156 23.9298 3.68237 25.1229 3.49766 26.2957C4.63775 26.89 4.5385 27.6959 5.43292 28.2626C6.15971 28.6201 6.91102 28.9433 7.68304 29.2306C8.4554 29.5526 9.20555 29.9091 9.93003 30.2983C9.91626 30.7373 10.9141 30.7579 11.1368 31.1243C12.2768 31.3291 13.1667 31.6461 14.3316 31.8416C14.4504 31.9851 14.7318 32.0537 14.7754 32.2348C17.419 33.0634 20.1848 33.5986 22.9969 33.8255C23.4065 33.8557 23.8176 33.8683 24.2284 33.8633C26.6976 33.7394 30.3937 33.803 31.7201 34.3531C32.1635 34.3667 32.1426 34.2462 32.585 34.2897C33.3724 34.7862 34.344 35.0489 35.3352 35.0333C35.953 34.8388 36.5838 34.6715 37.2246 34.5321C38.4611 34.4103 39.6783 34.9071 40.9138 34.8152C41.4329 34.7712 41.9744 34.4083 42.5194 34.3252C44.382 34.1308 46.268 34.105 48.1429 34.2482C49.1016 34.3376 49.4626 34.6183 50.192 34.5508C50.9214 34.4834 51.3378 34.1766 51.2537 33.7146C53.1104 32.683 58.0053 33.4326 60.9153 33.0126C63.0863 33.3589 65.115 32.7421 67.1968 32.7861C67.6156 32.7989 68.1173 32.9142 68.5493 32.8975C69.2513 32.9191 70.1957 32.6784 71.1104 32.5967C72.6573 32.4045 74.0871 32.4084 75.3252 32.2367C77.3412 32.808 78.7942 32.0736 80.4709 32.0652C81.099 32.0845 81.698 32.2427 82.4382 32.2255C83.1783 32.2083 83.6033 32.0216 84.2569 32.0117C84.9106 32.0018 85.6078 32.173 86.2372 32.1524C86.8665 32.1318 87.0799 32.0085 87.4743 32.0106C87.9267 32.0665 88.3829 32.0972 88.8397 32.1025C89.4084 32.0501 89.9587 31.7973 90.5271 31.7548C92.6038 31.5689 94.867 31.7283 96.8072 31.1787C100.413 31.3594 103.446 30.5637 107.659 30.6431C108.585 30.4217 109.548 30.3166 110.517 30.3314C110.753 30.2688 110.733 30.1283 111.115 30.1101C113.285 30.1068 115.452 29.4144 117.67 29.4425C117.74 29.3582 117.836 29.2891 117.947 29.2413C121.005 29.2877 124.053 29.0223 127.02 28.4514C128.864 28.5979 130.889 28.1008 133.064 27.9379C134.089 27.8595 135.12 28.001 136.075 27.8406C137.956 27.5788 140.445 27.6153 142.251 27.441C142.795 27.3878 143.306 27.1938 143.838 27.1402C144.79 27.0496 145.833 27.2015 146.861 27.0433C150.844 26.6828 154.855 26.5358 158.869 26.6032C159.942 26.5762 160.848 26.3743 162.059 26.2917C164.048 26.153 166.134 26.4667 168.133 26.3983C168.638 26.4138 169.136 26.2593 169.593 26.2334C170.827 26.1715 171.945 26.3057 173.213 26.3446C176.249 26.1951 179.297 26.2286 182.332 26.4449C186.819 26.2947 191.317 26.3828 195.797 26.7086C196.758 26.5984 197.739 26.6285 198.691 26.7975C202.122 26.7546 205.554 26.9402 208.954 27.3524C215.798 27.6824 222.839 28.378 229.982 28.9969C237.124 29.6157 244.378 30.2379 251.473 30.3959C252.72 30.6649 254.02 30.7218 255.289 30.563C255.481 30.7287 256.146 30.7591 256.637 30.8341C258.446 30.5401 260.688 30.9586 262.981 30.9491C263.572 30.5877 264.967 30.9102 265.839 30.6374C266.214 30.8586 265.328 30.8114 265.965 30.9408C267.314 30.5846 268.734 30.4287 270.158 30.4804C271.81 30.4731 273.459 30.387 275.097 30.2226C274.924 30.2173 274.89 30.1264 275.101 30.1029C275.676 30.2404 275.909 29.878 276.514 29.8467C280.544 29.4711 282.716 28.619 285.78 28.4035C286.159 28.505 287.172 28.8357 287.524 28.5869C286.983 28.5703 286.293 28.5491 286.303 28.2398C287.227 28.3474 288.167 28.291 289.057 28.0747C289.988 28.1829 290.929 28.2118 291.865 28.1609C292.123 28.1689 291.641 27.8345 292.194 27.8914C293.824 28.1811 294.657 27.967 296.149 28.3225C297.056 28.131 298.015 28.1604 298.908 28.4072C299.415 28.3529 298.412 28.1123 298.831 28.0952C300.145 28.1158 301.45 28.2836 302.711 28.5939C303.055 28.4634 303.432 28.3998 303.814 28.4081C304.171 28.419 303.658 28.653 304.201 28.6496C304.743 28.6463 303.878 28.3202 304.044 28.1355C304.746 28.1571 304.641 27.9741 305.014 27.8657C305.852 28.026 306.718 28.0526 307.564 27.944C308.475 27.972 309.465 28.242 310.351 28.2992C311.012 28.274 311.675 28.2944 312.333 28.3601C313.032 28.4715 313.553 28.7771 314.339 28.8811C314.745 28.8936 314.113 28.6145 314.69 28.6921C317.171 29.0887 319.693 29.2766 322.216 29.2528C319.046 29.3153 316.903 28.4805 314.142 28.4756C313.794 28.1553 312.91 28.4377 312.59 28.0384C312.364 28.1613 312.962 28.3594 312.374 28.2415C312.193 28.1664 311.999 28.1133 311.8 28.084C312.251 27.8283 311.687 27.741 311.523 27.4863C309.24 27.1466 307.445 27.0115 305.494 26.7219C305.112 26.7102 305.709 26.9383 305.278 26.935C304.527 26.9119 303.965 26.7449 303.078 26.7077C302.865 26.4315 302.292 26.2341 302.67 25.976C305.296 26.3563 308.99 26.4698 312.144 26.9262C313.102 27.0554 314.038 27.4537 314.676 27.1637C313.424 26.9377 312.197 26.6261 311.007 26.2321C309.426 25.9339 307.648 26.039 306.092 25.7216C305.768 25.6145 305.438 25.521 305.103 25.4416C304.795 25.4321 304.238 25.4949 303.871 25.4037C303.504 25.3126 303.508 25.2028 303.176 25.1727C302.512 25.1023 301.941 25.2246 301.218 25.1125C299.974 24.8777 298.716 24.699 297.45 24.5774C297.22 24.4405 297.364 24.1952 297.697 24.1855L301.234 24.6037C301.049 24.598 300.954 24.4852 300.982 24.3862C301.484 24.4716 301.654 24.5666 302.027 24.4782C300.799 24.3207 300.997 23.8873 301.458 23.7317C304.5 24.2146 308.261 24.5798 310.708 25.1443C311.012 25.0201 311.347 24.9519 311.689 24.9447C314.514 25.2512 317.601 25.8853 320.612 26.1675C317.01 25.3798 313.344 24.8066 309.645 24.4525C309.512 24.3785 309.652 24.233 309.259 24.201C307.522 24.1477 305.575 23.7583 304.198 23.6261C303.666 23.2902 303.135 22.9443 302.628 22.5792C298.35 22.2181 295.386 20.8088 291.168 20.4995C291.174 20.3199 290.868 20.2406 290.749 20.1071C291.073 19.9542 291.411 19.821 291.76 19.7087C292.438 19.6867 293.118 19.748 293.776 19.8905C297.407 19.6624 302.307 20.6618 306.635 21.0045C307.209 20.7924 306.848 20.5017 306.549 20.2029C304.518 19.721 302.541 19.87 300.416 19.2256C299.739 18.4258 300.663 18.0347 302.407 18.2281C305.282 18.5361 310.114 19.3536 311.852 19.7365C315.894 20.1703 319.809 20.72 323.678 21.1783C325.606 21.4073 327.522 21.616 329.416 21.764C330.352 21.7928 331.347 21.9032 332.221 21.9301C333.043 21.9673 333.866 21.9692 334.686 21.9359L331.954 21.792L328.928 21.5892C326.937 21.453 324.958 21.1953 323.011 20.8183C323.007 20.948 322.845 20.993 322.539 20.9336C318.687 20.336 314.319 19.6825 310.707 19.3019C309.298 18.6394 306.264 18.6861 304.792 18.0417C305.317 17.4186 306.665 17.3002 308.29 17.3701C306.656 17.1701 305.167 16.7249 303.781 16.4826C302.641 16.2978 300.609 16.2354 300.097 16.0299C299.95 16.0254 300.25 15.8648 299.98 15.8266C300.459 15.9012 299.118 15.8001 299.02 15.7971C298.61 15.8299 298.196 15.8172 297.788 15.7593C297.248 15.724 296.719 15.6026 296.234 15.4019C292.846 14.9583 289.395 14.9223 285.74 14.7301L284.509 14.6923C284.152 14.6813 284.514 14.5327 283.984 14.5164C283.726 14.5085 283.845 14.6419 283.463 14.6402C281.969 14.5889 280.474 14.6097 278.986 14.7024C277.269 14.8295 275.564 14.9269 274.133 14.9828C272.701 15.0387 271.455 15.0604 270.431 15.0989C269.951 15.0841 270.575 14.8436 269.933 14.8539C266.165 14.7381 261.846 14.4757 257.443 14.1607C257.111 14.1505 257.452 13.8713 256.909 13.8846C256.367 13.8979 256.434 14.0997 255.881 14.0428C255.587 13.9714 255.313 13.8507 255.079 13.6886C250.03 13.1341 244.711 12.9407 239.398 12.5279C234.48 12.1372 229.418 11.5922 224.588 11.1343C220.778 10.7676 217.072 10.6438 213.624 10.1484C208.947 9.90492 204.889 9.58056 200.473 9.29512C197.286 9.11735 193.795 8.78046 191.12 8.79816C190.664 8.78417 190.106 8.90683 189.576 8.89057C188.763 8.8656 187.957 8.62114 187.12 8.58545C184.941 8.5185 182.704 8.6895 180.537 8.61296C178.074 8.53732 175.746 8.46584 173.357 8.39246C172.015 8.35124 170.715 8.54101 169.383 8.55005C168.496 8.52281 167.563 8.40427 166.651 8.40622C164.074 8.41697 161.464 8.70633 159.024 8.68133C155.73 8.5372 152.43 8.60618 149.156 8.88761C145.288 8.86 141.423 9.00804 137.58 9.33103C134.705 9.01305 131.799 9.69281 128.59 9.82395C128.245 9.81336 128.013 9.75629 127.667 9.79559C122.735 9.81392 117.622 10.9152 113.8 10.9277C112.519 11.2023 111.184 11.2832 109.861 11.1662C108.429 11.2022 107.162 11.5128 105.815 11.6213C105.37 11.6575 104.953 11.5948 104.51 11.5812C103.14 11.629 101.836 11.9285 100.353 12.0627C98.1278 12.264 95.7102 11.9201 93.1949 12.3322C90.7959 12.1189 88.3773 12.1453 85.9936 12.4107C82.1209 12.082 78.2308 12.7016 74.2167 12.5583C72.9076 12.3648 71.5704 12.3507 70.2611 12.5167C68.6536 12.3179 67.0257 12.2679 65.4089 12.3677C63.6848 12.3148 61.8893 12.1797 60.0913 12.1245C57.5175 12.0455 54.3409 12.3174 52.3764 11.6779C51.4574 10.3214 49.804 12.3379 47.7407 12.0948C46.6272 11.8309 46.7626 11.4455 46.2727 10.9511C45.325 10.8159 44.3557 10.8371 43.4232 11.0134C42.1434 10.9441 41.2995 10.339 39.8075 10.3531ZM299.236 26.9991C299.233 27.0689 299.232 27.1089 299.355 27.1326C298.989 27.381 298.389 26.8832 299.236 26.9991ZM299.559 26.9191C300.835 26.9398 302.105 27.0861 303.342 27.3549C303.576 27.3621 303.193 26.9908 303.6 26.9733C304.209 27.2458 304.871 27.4316 305.555 27.5228C305.539 28.0216 303.806 27.469 303.645 27.8935C302.972 27.753 302.653 27.6833 302.303 27.8523C300.946 27.4911 300.579 27.7994 299.567 27.4487C299.894 27.2191 299.413 27.2343 299.559 26.9191Z" fill="#FAE4AD"/>
</svg>
