<svg width="365" height="35" viewBox="0 0 365 35" fill="none" xmlns="http://www.w3.org/2000/svg">
<path fill-rule="evenodd" clip-rule="evenodd" d="M293.199 11.9079C293.508 11.8303 293.821 11.7798 294.135 11.7566C293.831 11.8725 293.515 11.9235 293.199 11.9079Z" fill="#89D2D4"/>
<path fill-rule="evenodd" clip-rule="evenodd" d="M309.56 18.2646C309.925 18.248 310.289 18.2559 310.652 18.2882C310.289 18.3486 309.921 18.3407 309.56 18.2646Z" fill="#89D2D4"/>
<path fill-rule="evenodd" clip-rule="evenodd" d="M314.094 17.5047C314.469 17.492 314.843 17.5289 315.211 17.6147C315.117 17.6641 314.427 17.5119 314.094 17.5047Z" fill="#89D2D4"/>
<path fill-rule="evenodd" clip-rule="evenodd" d="M316.01 18.9185C316.646 18.9333 317.281 18.9985 317.911 19.1139C317.274 19.0938 316.64 19.0287 316.01 18.9185Z" fill="#89D2D4"/>
<path fill-rule="evenodd" clip-rule="evenodd" d="M322.152 13.9912C323.135 14.1668 325.155 14.4334 325.828 14.7052C324.649 14.3881 323.266 14.2554 322.152 13.9912Z" fill="#89D2D4"/>
<path fill-rule="evenodd" clip-rule="evenodd" d="M324.473 17.0087C325.699 17.0351 327.843 17.6989 329.411 17.9385C329.607 18.1143 327.142 17.4779 326.675 17.485L325.747 17.242C325.318 17.2064 324.892 17.1284 324.473 17.0087Z" fill="#89D2D4"/>
<path fill-rule="evenodd" clip-rule="evenodd" d="M339.228 20.6033C339.228 20.6033 339.323 20.5024 339.733 20.6142C339.853 20.6168 339.891 20.7032 339.864 20.737L339.228 20.6033Z" fill="#89D2D4"/>
<path fill-rule="evenodd" clip-rule="evenodd" d="M345.484 20.9438C346.469 20.9651 348.712 21.3909 349.932 21.6745C350.097 21.6598 350.262 21.6634 350.425 21.6851C351.156 21.8038 352.816 22.0626 351.208 21.8392C349.24 21.6423 347.688 21.3002 345.484 20.9438Z" fill="#89D2D4"/>
<path fill-rule="evenodd" clip-rule="evenodd" d="M346.092 22.4151C346.332 22.4203 346.732 22.4289 347.222 22.5596C346.842 22.5684 346.463 22.5199 346.092 22.4151Z" fill="#89D2D4"/>
<path fill-rule="evenodd" clip-rule="evenodd" d="M347.987 19.2139C348.174 19.2179 348.983 19.3727 349.409 19.4162C348.931 19.3982 348.455 19.3305 347.987 19.2139Z" fill="#89D2D4"/>
<path fill-rule="evenodd" clip-rule="evenodd" d="M347.323 22.1846C347.723 22.1932 348.652 22.3505 349.105 22.3774C349.557 22.4044 347.934 22.2835 347.323 22.1846Z" fill="#89D2D4"/>
<path fill-rule="evenodd" clip-rule="evenodd" d="M348.018 22.6794C348.337 22.6863 349.267 22.8265 349.958 22.91C349.545 22.9182 348.656 22.7447 348.018 22.6794Z" fill="#89D2D4"/>
<path fill-rule="evenodd" clip-rule="evenodd" d="M349.527 18.8358C349.905 18.7861 350.285 18.7943 350.66 18.8603C350.282 18.892 349.903 18.8839 349.527 18.8358Z" fill="#89D2D4"/>
<path fill-rule="evenodd" clip-rule="evenodd" d="M350.193 19.5019C350.713 19.5131 352.466 19.7911 353.343 19.8958C352.171 19.8876 351.387 19.7678 350.193 19.5019Z" fill="#89D2D4"/>
<path fill-rule="evenodd" clip-rule="evenodd" d="M350.279 22.9343C351.191 22.9922 352.1 23.1091 353.003 23.2847C352.23 23.3023 351.144 22.953 350.279 22.9343Z" fill="#89D2D4"/>
<path fill-rule="evenodd" clip-rule="evenodd" d="M352.51 22.0218C352.817 22.0284 353.35 22.0399 353.843 22.0505C353.879 22.2228 353.043 22.0676 352.51 22.0218Z" fill="#89D2D4"/>
<path fill-rule="evenodd" clip-rule="evenodd" d="M353.874 22.4631C354.319 22.4512 354.764 22.4895 355.204 22.5775C355.017 22.6078 354.26 22.4885 353.874 22.4631Z" fill="#89D2D4"/>
<path fill-rule="evenodd" clip-rule="evenodd" d="M355.236 22.9211C355.409 22.9248 356.568 22.9499 356.339 23.0821C356.109 23.2144 356.046 23.0758 356.035 22.9727C355.649 22.93 355.673 23.0506 355.236 22.9211Z" fill="#89D2D4"/>
<path fill-rule="evenodd" clip-rule="evenodd" d="M358.634 21.0736C357.872 21.1772 356.569 21.029 358.634 21.0736V21.0736Z" fill="#89D2D4"/>
<path fill-rule="evenodd" clip-rule="evenodd" d="M360.295 20.0631L362.099 19.8447C361.504 19.9909 360.9 20.0641 360.295 20.0631Z" fill="#89D2D4"/>
<path fill-rule="evenodd" clip-rule="evenodd" d="M360.753 19.884C360.553 19.8797 361.675 19.7152 361.446 19.8132L360.753 19.884Z" fill="#89D2D4"/>
<path fill-rule="evenodd" clip-rule="evenodd" d="M361.879 18.3134L362.161 18.1995L362.267 18.2018L362.39 18.6675L362.538 19.2367L362.39 18.6675L362.28 18.2363C362.28 18.2363 362.28 18.2363 362.2 18.2346L361.879 18.3134Z" fill="#89D2D4"/>
<path fill-rule="evenodd" clip-rule="evenodd" d="M360.88 25.067C359.739 24.8365 359.358 24.5881 360.88 25.067V25.067Z" fill="#89D2D4"/>
<path fill-rule="evenodd" clip-rule="evenodd" d="M331.683 13.9565C331.949 13.9623 332.322 13.9703 332.508 13.9744C332.984 14.1905 333.834 14.2946 334.549 14.4987C333.723 14.4981 332.878 14.1539 331.683 13.9565Z" fill="#89D2D4"/>
<path fill-rule="evenodd" clip-rule="evenodd" d="M348.958 19.8697C349.344 19.8781 349.291 19.8769 349.741 20.0239C349.741 20.0239 349.581 20.0204 349.568 20.0201C350.351 20.1571 350.79 20.1838 351.455 20.2839C351.375 20.2821 351.281 20.2801 351.281 20.2801C352.187 20.2997 353.206 20.6475 355.056 20.7561C353.271 20.7175 349.353 20.0841 347.8 19.8275C348.039 19.8327 349.38 20.0847 349.555 20.0027C349.73 19.9207 348.69 19.9497 348.958 19.8697Z" fill="#89D2D4"/>
<path fill-rule="evenodd" clip-rule="evenodd" d="M350.366 22.6277C350.552 22.6317 350.459 22.6297 350.366 22.6277C350.634 22.6362 350.901 22.6764 351.163 22.7478C350.975 22.7781 348.865 22.4066 350.366 22.6277Z" fill="#89D2D4"/>
<path fill-rule="evenodd" clip-rule="evenodd" d="M362.274 22.8844L362.271 23.0045C362.868 22.9365 363.447 22.6969 363.966 22.3035C364.2 21.9483 363.807 21.6139 363.624 21.4727L363.033 21.0655C363.4 21.1986 363.737 21.4408 364.017 21.7729C364.055 21.835 364.081 21.9077 364.093 21.9854C364.105 22.063 364.103 22.1434 364.087 22.2203C364.023 22.3601 363.928 22.4717 363.814 22.5403C363.611 22.6786 363.393 22.7781 363.168 22.8352C362.269 23.1074 361.402 23.1572 360.972 23.2852C360.759 23.2806 360.386 23.2725 360.173 23.2679C357.219 23.3737 354.264 23.1895 351.336 22.7169C352.671 22.6257 355.613 23.3753 357.137 23.1509C357.377 23.156 357.137 23.1509 356.978 23.1474C358.743 23.3294 360.52 23.2412 362.274 22.8844Z" fill="#89D2D4"/>
<path fill-rule="evenodd" clip-rule="evenodd" d="M361.052 19.6335C361.279 19.6384 361.654 19.5092 361.856 19.4278C361.605 19.5805 361.328 19.6511 361.052 19.6335Z" fill="#89D2D4"/>
<path fill-rule="evenodd" clip-rule="evenodd" d="M40.7073 15.3429L38.4373 15.5513C36.6628 15.6502 35.0636 15.65 33.2742 15.8172L28.5581 16.3671C27.3293 16.495 26.9282 16.555 26.1131 16.6574C24.3201 16.7693 22.5336 17.0345 20.7653 17.4512C19.1058 17.7755 17.0064 18.1075 15.5464 18.4534C15.3199 18.4485 14.8245 18.5579 14.7309 18.573C11.0211 19.4192 8.78702 20.4345 4.43497 21.404C4.00869 21.7366 3.55595 22.0086 3.08481 22.2153C2.76179 22.3627 2.01178 22.5352 1.74242 22.6666C0.879183 23.1454 1.72576 23.4381 0.0755202 23.9514C-0.00662221 24.0525 0.288645 23.956 0.379297 24.078C0.365234 24.7295 1.10155 25.1914 0.755219 25.8014C1.91224 25.9121 1.70392 26.3021 2.60711 26.4417C3.16657 26.4537 4.23219 26.4767 4.94964 26.578C5.66709 26.6792 6.60136 26.6137 7.27774 26.7655C7.27366 26.9541 8.31672 26.7879 8.5254 26.9982L11.9783 26.9356C12.0982 26.9382 12.4046 26.9447 12.4286 27.0653C15.0927 27.1228 17.7568 27.1804 21.3988 27.0017L22.827 26.8953C25.5698 26.5977 28.3213 26.4853 31.0701 26.5587C31.5496 26.569 31.5381 26.483 32.0313 26.4765C33.0167 26.6667 34.0161 26.7228 35.0129 26.6438C35.4391 26.653 36.1777 26.3944 37.1123 26.3117C38.5143 26.1876 39.843 26.3707 41.1117 26.2437C41.6845 26.256 42.2895 26.0118 42.8907 25.939C44.4666 25.7843 47.6535 25.6988 48.9729 25.693C50.0252 25.7157 50.4115 25.724 51.1974 25.741C51.9833 25.758 52.4547 25.528 52.3792 25.3205C54.4165 24.7813 59.7039 24.9298 62.8694 24.6036C65.1871 24.6536 67.4064 24.3241 69.6335 24.2521L71.0721 24.2831C71.8314 24.2995 72.8481 24.1157 73.8357 24.0512C75.5044 23.9157 76.9852 23.8448 78.3609 23.7029C80.1916 23.7318 82.0233 23.6166 83.8456 23.3582C84.5249 23.3728 85.1776 23.3869 85.9368 23.4033C86.6961 23.4197 87.1797 23.2415 87.8872 23.1882C88.5946 23.1348 89.2991 23.2186 89.9677 23.113L91.3035 22.9703C91.8363 22.9818 92.1826 22.9893 92.7421 23.0014C93.3015 23.0135 93.9331 22.7698 94.5344 22.697C96.7385 22.453 99.1262 22.3501 101.215 21.9149C104.978 21.6702 108.231 20.9686 112.667 20.4468C113.765 20.2304 114.567 20.0763 115.73 19.947C115.912 19.8134 116.102 19.6971 116.297 19.599C118.595 19.3055 120.994 18.7055 123.346 18.4132C123.453 18.3473 123.566 18.298 123.682 18.2661C126.929 17.8559 131.034 17.207 133.551 16.661C135.528 16.4806 137.804 15.9981 140.236 15.6561C141.373 15.4919 142.507 15.4306 143.563 15.2647C145.649 14.9324 148.4 14.7001 150.404 14.4347L152.169 14.164C153.238 14.0499 154.385 14.006 155.507 13.8587C159.89 13.3358 164.854 13.0484 168.762 12.8583L172.287 12.5743C174.489 12.4331 176.78 12.4826 178.953 12.4094L180.569 12.2899C181.901 12.3186 183.153 12.3456 184.567 12.2561C187.98 12.2097 191.421 12.061 194.629 12.2675C198.736 12.1503 204.725 12.4855 209.477 12.7596C210.558 12.68 211.568 12.8046 212.671 12.9485C216.078 13.1764 220.431 13.3904 223.991 13.9475C238.964 15.4371 254.641 18.3142 269.694 19.2052C271.018 19.3937 272.351 19.4855 273.686 19.48C274.161 19.5691 274.641 19.6253 275.121 19.6482C277.015 19.5862 279.395 19.8605 281.78 19.8777C282.396 19.7195 283.844 19.9222 284.754 19.7531C285.14 19.7615 284.221 19.7416 284.885 19.876C286.437 19.6008 291.754 19.5955 294.136 19.1323C293.963 19.1286 293.923 19.1277 294.136 19.1323C294.63 19.0813 295.121 18.9946 295.608 18.8725C299.846 18.2265 302.687 17.5159 306.221 17.3864C306.893 17.4692 307.57 17.4838 308.246 17.4301C307.606 17.4163 306.807 17.399 306.917 17.2641C307.969 17.2868 309.368 17.3171 310.075 17.2466C311.407 17.2753 312.07 17.444 313.243 17.4522C313.536 17.4585 312.98 17.2921 313.591 17.3568C315.425 17.6194 316.37 17.6397 318.016 17.9497C319.03 17.9661 320.039 18.0969 321.033 18.3407C321.579 18.3525 320.451 18.1394 320.916 18.1838C322.417 18.4049 323.812 18.6237 325.177 18.9791C325.563 18.9558 325.951 18.9642 326.336 19.0041C326.709 19.0121 326.214 19.1043 326.785 19.1853C327.356 19.2662 326.376 18.9878 326.524 18.9224C326.855 18.976 327.19 18.9833 327.523 18.944C328.557 19.2236 329.289 19.2394 330.245 19.3972C331.201 19.5551 332.314 19.8536 333.257 20.0283C334.199 20.203 334.426 20.1736 335.355 20.3823C336.283 20.591 336.679 20.7882 337.541 20.9612C337.981 20.9707 337.265 20.8009 337.887 20.9687C340.793 21.5632 343.713 22.1236 345.854 22.3414C342.517 21.9435 340.135 21.2059 337.226 20.7658C336.817 20.5511 335.898 20.5484 335.516 20.3001C335.317 20.2957 335.965 20.5156 335.33 20.296C335.125 20.2257 334.917 20.1696 334.707 20.1282C335.133 20.1374 334.525 19.9355 334.301 19.7935L327.801 18.4353C327.401 18.4267 328.064 18.5611 327.614 18.4313C326.805 18.2766 326.195 18.1262 325.225 17.9852C324.962 17.8252 324.326 17.64 324.687 17.5791C327.541 18.1382 331.458 18.7888 334.867 19.5141C335.74 19.7719 336.627 19.9514 337.521 20.0516C335.981 19.7611 334.778 19.3063 333.453 18.9861C331.742 18.5718 329.882 18.3259 328.145 17.9282C327.667 17.815 327.483 17.7253 327.045 17.6472C326.607 17.5691 326.139 17.6276 325.716 17.4469C325.294 17.2663 325.293 17.3006 324.948 17.2417C324.218 17.1059 323.618 17.0929 322.862 16.9393C321.535 16.6877 320.209 16.3676 318.734 16.1642C318.468 16.1584 318.605 15.9727 318.951 15.9973L322.775 16.6459C322.575 16.6416 322.456 16.639 322.471 16.5193C322.844 16.6099 323.221 16.6696 323.6 16.6981C322.273 16.4636 322.423 16.2782 322.877 16.2708C326.168 16.9079 330.189 17.6807 332.866 18.3732C333.199 18.3503 333.533 18.3575 333.865 18.3947C336.89 19.0089 340.271 19.8194 343.523 20.4042C339.838 19.5185 335.977 18.7319 331.665 17.8327C331.505 17.8292 331.667 17.7297 331.216 17.6514L325.802 16.574L323.991 15.866C319.437 15.0988 316.154 14.1016 311.724 13.7144C311.724 13.7144 311.407 13.5875 311.275 13.516C311.635 13.5238 311.877 13.4089 312.291 13.4007C312.998 13.4266 313.704 13.4991 314.405 13.6179C318.146 13.7844 323.373 14.8578 327.928 15.6251C328.501 15.6375 328.079 15.4224 327.71 15.2258C325.523 14.6983 323.502 14.4832 321.168 13.9182C320.365 13.4549 321.273 13.3717 323.092 13.7025C326.093 14.1961 331.225 15.3532 333.121 15.8401C337.473 16.7231 341.755 17.7417 346.072 18.418C348.222 18.8075 350.387 19.1458 352.554 19.3984C354.697 19.6883 356.851 19.8265 359.008 19.8122C356.677 19.7619 354.336 19.5571 352.024 19.267C349.711 18.977 347.506 18.6378 345.318 18.1617C345.318 18.1617 345.171 18.1585 344.825 18.1511L332.138 15.6816C330.564 15.1159 327.429 14.6709 325.814 14.1558C326.984 13.9943 328.165 14.0661 329.314 14.3686L324.54 13.2878C323.359 13.0393 321.273 12.7712 320.664 12.6037C320.53 12.6008 320.81 12.6069 320.533 12.498L319.549 12.3567C319.104 12.3371 318.661 12.2875 318.22 12.208C317.68 12.1445 317.144 12.0412 316.614 11.8988C313.155 11.4253 309.678 11.1843 306.195 11.1766L305.023 11.1512C304.677 11.1438 305.023 11.1512 304.53 11.1406C304.037 11.13 304.384 11.1374 304.011 11.1294C302.679 11.1006 301.035 11.2882 299.672 11.4646C296.237 11.9393 292.508 12.4592 289.907 12.5574C289.334 12.545 290.096 12.4414 289.308 12.5445C284.8 12.6702 279.981 12.4632 274.991 12.1154C274.618 12.1073 274.927 11.9939 274.381 11.9649C273.835 11.936 273.861 11.9537 273.249 11.9405C272.94 11.8972 272.635 11.8276 272.334 11.7321C266.681 11.1984 260.842 10.695 255.047 10.0038C249.597 9.35445 244.136 8.56763 238.939 7.94087L227.232 6.41887C222.272 5.90015 217.923 5.48044 213.334 5.10693C209.967 4.86274 206.282 4.56015 203.458 4.49919L201.82 4.46383L199.252 4.28841C196.934 4.23839 194.574 4.29036 192.272 4.13775C189.688 4.08197 187.21 4.02842 184.676 4.11095C183.238 4.07989 181.862 4.20461 180.449 4.25985L177.545 4.19717C174.811 4.27539 172.034 4.52415 169.446 4.62267C165.992 4.77108 162.444 4.88322 158.944 5.28794C155.074 5.53031 150.36 5.97749 146.672 6.46391C143.657 6.58752 140.552 7.2066 137.158 7.64791L136.196 7.73007C131.052 8.33945 125.495 9.57457 121.299 10.1015C119.772 10.4973 118.438 10.5543 117.007 10.7636C115.577 10.9728 114.038 11.2826 112.553 11.5079L111.125 11.6485L106.511 12.3894C104.051 12.7308 101.411 12.8283 98.5897 13.2477C96.3885 13.3545 93.1454 13.5761 90.5801 13.8809C86.3261 14.0121 82.024 14.5195 77.6502 14.6481C76.1716 14.6162 74.8263 14.5872 73.3288 14.8121C71.8314 15.0371 69.9284 14.9102 67.9948 14.9714L62.2356 15.0701C59.462 15.1474 56.005 15.3988 53.9174 15.1822C52.9569 14.6126 51.1235 15.585 48.8986 15.5541C48.3634 15.5847 47.8331 15.4311 47.3623 15.1093C46.3387 15.0921 45.3144 15.1444 44.2938 15.266C43.1831 15.4822 42.2951 15.2571 40.7073 15.3429ZM321.274 17.6769C321.274 17.6769 321.274 17.6769 321.418 17.7658C321.057 17.8266 320.344 17.5197 321.274 17.6769ZM321.607 17.6841C322.935 17.9015 324.782 18.1472 325.722 18.4248C325.988 18.4305 325.513 18.2316 325.938 18.2922C326.363 18.3528 327.143 18.6442 328.111 18.8538C328.107 19.0766 326.252 18.5563 326.14 18.8112C325.666 18.6706 325.18 18.6024 324.692 18.6084C323.181 18.2327 322.833 18.311 321.693 18.0291C322.016 17.8817 321.564 17.8204 321.567 17.6833L321.607 17.6841Z" fill="white"/>
</svg>
